<svg id="Layer_1" data-name="Layer 1" xmlns="http://www.w3.org/2000/svg" viewBox="0 0 66.71 65.54"><defs><style>.cls-1{fill:#202020;}</style></defs><title>1</title><path class="cls-1" d="M946.81,648.51c1.1-.83,3.46-2.88,2.84-2.66l-4.15,3.29Z" transform="translate(-926.43 -607)"/><path class="cls-1" d="M953.29,641a89.57,89.57,0,0,0-9.39,7.39c4.06-3.08,2.48-1.66,7.3-5.34.63-.22-1,1.4-2.55,2.63,1.09-.81-.65,1,2-1,2.94-2.88,2.81-3.28,0-1.4C951.42,642.42,952.53,641.59,953.29,641Z" transform="translate(-926.43 -607)"/><path class="cls-1" d="M956.28,637.08v0Z" transform="translate(-926.43 -607)"/><path class="cls-1" d="M955.8,640.32l0,.07Z" transform="translate(-926.43 -607)"/><path class="cls-1" d="M954.9,641.13l.05,0Z" transform="translate(-926.43 -607)"/><path class="cls-1" d="M956.28,637.08l-.06.08Z" transform="translate(-926.43 -607)"/><path class="cls-1" d="M941.51,646.82a8.24,8.24,0,0,0,1.19-.74,3.31,3.31,0,0,1-.55.21Z" transform="translate(-926.43 -607)"/><path class="cls-1" d="M955.84,639.86l-.07,0h0Z" transform="translate(-926.43 -607)"/><path class="cls-1" d="M954.17,641.25a.66.66,0,0,0,.12-.12,2.11,2.11,0,0,1-.15.15Z" transform="translate(-926.43 -607)"/><polygon class="cls-1" points="27.87 32.04 27.93 32.06 28.68 27.05 28.87 26.95 28.68 27.05 27.93 32.06 27.87 32.04"/><path class="cls-1" d="M956,638.66v0Z" transform="translate(-926.43 -607)"/><path class="cls-1" d="M928.74,640.63l.8,0C929.08,640.54,928.76,640.54,928.74,640.63Z" transform="translate(-926.43 -607)"/><path class="cls-1" d="M951.73,634.48l.2.16,2.35.91Z" transform="translate(-926.43 -607)"/><path class="cls-1" d="M952.33,641.85h0Z" transform="translate(-926.43 -607)"/><path class="cls-1" d="M966.48,639s.07,0-.06,0-.16,0,0,0S966.49,639,966.48,639Z" transform="translate(-926.43 -607)"/><path class="cls-1" d="M941.88,646.34c-.08,0-.16,0-.16-.12C941.66,646.39,941.71,646.42,941.88,646.34Z" transform="translate(-926.43 -607)"/><path class="cls-1" d="M966.45,639h0Z" transform="translate(-926.43 -607)"/><path class="cls-1" d="M959,637h0Z" transform="translate(-926.43 -607)"/><path class="cls-1" d="M952,641.85h0Z" transform="translate(-926.43 -607)"/><path class="cls-1" d="M962.08,649.24c.33.13.84.48.44,0l-.46-.3C962.52,649.36,962.71,649.59,962.08,649.24Z" transform="translate(-926.43 -607)"/><path class="cls-1" d="M964,646.74l-.72-.56.13.23Z" transform="translate(-926.43 -607)"/><path class="cls-1" d="M946.59,666.36a29.67,29.67,0,0,1,1.56-3.76C946.73,665.47,944.63,665.58,946.59,666.36Z" transform="translate(-926.43 -607)"/><path class="cls-1" d="M943.44,645.19a11.79,11.79,0,0,1-1.56,1.15.78.78,0,0,0,.27-.05C942.67,645.87,943.15,645.46,943.44,645.19Z" transform="translate(-926.43 -607)"/><path class="cls-1" d="M933.91,627.67l1-.2A1,1,0,0,0,933.91,627.67Z" transform="translate(-926.43 -607)"/><path class="cls-1" d="M973.45,618.12l.62-.28C974,617.67,973.77,617.71,973.45,618.12Z" transform="translate(-926.43 -607)"/><path class="cls-1" d="M936,625a18.33,18.33,0,0,0,2.74,1.56c-.25-.25-.44-.47-.82-.82Z" transform="translate(-926.43 -607)"/><path class="cls-1" d="M948.17,662.56l0,0Z" transform="translate(-926.43 -607)"/><path class="cls-1" d="M932.14,662.35c.55.82,1.82.08,3.29-1.09s3.21-2.73,4.63-3.68c2.43.26-2.74,3.48-4.51,6a11.54,11.54,0,0,0,4.18-1.48c1.45-.72,2.66-1.38,2.91-1a7.71,7.71,0,0,1-1.66,1.93c2.07-1.31,2.76-.77,3.7-.36s2,.71,4.08-1.52a12.59,12.59,0,0,1-.59,1.36c1.29-2.67,2.83-5.26,4-7.09.49.16,2.47-2.9.84.61-.19-.23-.94,1.13-1.66,2.12q.66-.6,1.26-1.23c-2,5.2-1.56,1.35-3.56,4.93a19.88,19.88,0,0,0,3.4-2.4c1.06-.83,1.79-1.36,2-.47-1.53,5.25-2.89.83-3.3,5.87a14.61,14.61,0,0,1-.78-2.61c-2.5,8.34-.78-1-3.59,7.79,1,1.36,2.23,1.06,3.24.7s2-.78,3.19.34a13.51,13.51,0,0,0,1.07-3.59,16.77,16.77,0,0,1,1-3.61c1-1.13,1.45-.9,1.71.06a28.88,28.88,0,0,1,.44,4.24,14.17,14.17,0,0,0,.59,3.91c.34.72.88.58,1.62-1.21.4-1.81.65-4.43,1-6.15s.64-2.5,1.47-.75c0,2.05-.09,4.12-.21,6.17,1.23.23,1.37-2,1.48-3.81s.18-3.11,1.52-1.25c.07,2.47-1.34,2.24-.91,2.93,1.08,2.31,1.29,1.4,1.24-.1s-.25-3.57.23-3.67l1.34,5.27a8.53,8.53,0,0,0,2.77-3.71,22.18,22.18,0,0,1,2-4c.63,1.49,1,3.21,2.26,4.44a4.6,4.6,0,0,1,1.74-2.13,7.4,7.4,0,0,1,2.61-.94c1-.15,2.14-.32,3.36-.44l1.87-.2c.63-.1,1.28-.2,1.93-.32a48.53,48.53,0,0,0-2.64-4.14c.23-.2,2,.83,2.54,1.68,2.36-.17-2.31-1.88-3.37-3.54.16-.79,2.82.68,3.66,1.95-.42-1.15-.84-2.38-1.2-3.54a19.29,19.29,0,0,1-.77-3.33,3.87,3.87,0,0,1,.42-2.54,4.59,4.59,0,0,1,2.65-1.65c.42.28.83.56,1.24.86,1.18-.93-1.07-2.08-3.07-2.88s-3.71-1.35-1.5-2.15l.82.41a6,6,0,0,0,.54-3.5,25,25,0,0,0-.74-3.33,8,8,0,0,1-.25-3.23,11.3,11.3,0,0,1,1.78-4.14c-3.09,1.42-3,.22-3.2-.86s-.83-1.86-4.48,1.12c1.13-2.26,2-3.72,2.58-5.07a8,8,0,0,0,.49-5.17c-.27-.48-1.49.46-2.76,1.57s-2.62,2.39-3.3,2.53l2.72-4.12c-1.39,1.14-2.72,2.33-4,3.6.8-1.81,1.54-3.64,2.23-5.51-.54.19-1.06.39-1.58.6.27.46-.23,2.38-1,3.59-1.18.63-1.52-.51-1.72-2.14a14.35,14.35,0,0,1,.3-5,29.7,29.7,0,0,0-5.36,2.85c.46-1.94,1.31-2.45,2.22-3.53-1.78,2.16-1.55.9-1.42-.46s.29-2.76-1.34-.65c.17,1.15-.58,2.88-.74,3.87a3.23,3.23,0,0,0-2.4-2.67,4.6,4.6,0,0,0-3.48.83c0-1.13.06-2.27.11-3.41a8.58,8.58,0,0,0-3.5.41,14.45,14.45,0,0,0-3.46,1.58c-1.13.68-2.22,1.42-3.25,2.19s-2,1.57-3.1,2.28c1.22.12,2.49,1.54,3.38,3s1.47,3,1.2,3.57q-1.68-2-3.45-4a4.79,4.79,0,0,0,.44.88h0l-6.89,14.49a1.93,1.93,0,0,0,.49,0l6.7-14.07h0c.89,1,1.53.51,2.34,3.09h0L945,635.45c.17,0,.36,0,.55.08-.55.9-5.87,1.06-7.61.43.63.45,1.26.87,1.9,1.26a38.89,38.89,0,0,1-4.37,0c1.63.18.39.91-.52,1.76s-1.48,1.77,1.36,1.7l-1.5.38a8.16,8.16,0,0,0,1.9,3.9,21.39,21.39,0,0,1,2.42,3.18c4.12-1.81,3.66-.4,7.24-1.46a36.1,36.1,0,0,0-.94,4.14,4.36,4.36,0,0,0,1.22,4,3.87,3.87,0,0,0,3-1.38,12.44,12.44,0,0,1,2.55-2.27,5.64,5.64,0,0,0-1.61,3.6,2.37,2.37,0,0,1-1.74,2.32,11.27,11.27,0,0,0,4.11,1.57c.32,0,.75.1,1.19.12a11.39,11.39,0,0,0,1.42,0A13,13,0,0,0,959,658c0-1.73-.17-2.59.51-3.83.43-.2.64.3.72,1.11a7.79,7.79,0,0,1-.28,2.86l-.31.36a3.69,3.69,0,0,1,2.08-.84,3.24,3.24,0,0,1,1.8.64c1.2.8,2.53,2.22,4.13,3.41a8.7,8.7,0,0,0,5,2.13c1.59,0,3-1.06,3.15-3.49l-.07.49a24.42,24.42,0,0,0,2-6.26c1.06-.35,1.32.4,1.57,1.48s.52,2.38,2.06,2.83a9.86,9.86,0,0,1,3.66-7.75,9.57,9.57,0,0,0,2.24-2.86,4.55,4.55,0,0,0-.23-4c3.19-.15,5-1.67,5.72-3.63a7.09,7.09,0,0,0,.36-3.16,11.48,11.48,0,0,0-.76-3.27c-.38-1-.86-2-1.32-3a28.15,28.15,0,0,1-1.23-2.56,8.72,8.72,0,0,1-.4-1.29,5.13,5.13,0,0,1-.15-1.24,7.33,7.33,0,0,1,.61-2.9l-2.24,1.79c-1.51.21-1.35-.28-.85-1s1.35-1.72,1.33-2.28c-1.66,1.46-1.3,2.54-3,2.89a32.51,32.51,0,0,1-2.76-2,28.62,28.62,0,0,1-2.24-2.13c-.7-.76-1.36-1.55-2-2.36s-1.36-1.69-2.1-2.55a34.2,34.2,0,0,0-2.42-2.63,22.79,22.79,0,0,0-2.93-2.51,19.33,19.33,0,0,0-7.84-3.48c-1.08-.18-1.82.72-2.22,2a22,22,0,0,0-.65,4.46,8.61,8.61,0,0,1-.65,3.36c-.4.56-.8.35-2-1.11-.15-1.78-.24-3.57-.28-5.37a11.93,11.93,0,0,1-3.37,3.82,18.27,18.27,0,0,1-3.49,1.78c-2.27,1-4.47,2.14-4.22,5.4-.59-1.09-1.56-2.34-1.24-2.57-1.49-1.27-2.24-.74-2.17.3a6.93,6.93,0,0,0,1.83,3.82c-.62.09-2-2-3.33-2.95-1-.56-.57.67-.15,1.7s.81,1.84-.68.63a3.16,3.16,0,0,1-.88-1.31c.5.82,0,1.12-.09,1.56s.08,1,1.84,2.34c-2.34-.58.15,2.79-2.33,1.67,3.51,3.53-2.85-.26,2.54,4.21-5.65-4.54-5.52-2.41-3.07,0-1.64-1.45-2.06-1-4.36-3a.46.46,0,0,0,0,.21l-1.48,24.94c1.18,1.25,3.09,1.44,5.58-.7-1.34,1.84-1.32,2.93-.77,3.47a3.89,3.89,0,0,0,2.62.51c2-.08,3.33-.4.57,4.48a41.41,41.41,0,0,0,8.21-.73c2.32-.44,4.28-.95,6.07-1.45-.76,3.52-1.88,3.49-2.91,3.4s-2.06-.17-3.33,3.4c2.51-.64,4.6-2.52,6.25-3.93s2.91-2.42,4.57-1.57a2.09,2.09,0,0,1,.07,2.09c-.28.82-.77,1.67-1,2.27,2.26-1.62,4.29-1.43,6.4-1.93l8.83-2.08,3.22-8.26a3.93,3.93,0,0,0-.71-4.41,4.19,4.19,0,0,1,1.76,1.07c-.09-.62,1.35-1.15-1.88-1.74l.75.72c-2.42-.11-4.7-1.25-6.77-2.14a22.6,22.6,0,0,0-5.16-1.82c4.62.92,5.27.58,6.21.16a5.36,5.36,0,0,1,2.18-.42A25.37,25.37,0,0,1,979,644a7.69,7.69,0,0,0-4.31-1c.66-.46,1.95-.67,4.42,0a5.37,5.37,0,0,0-3.28-1.74c-1.1-.27-1.94-.47-2-1.31a26.72,26.72,0,0,1,4.11.26c-3.17-.87-6.31-1.12-5.27-2.74.95-.12,2.13-.56,2.2-.09-.51-1.32-2.85-1.9-4.75-2.26a7.93,7.93,0,0,1-2.32-.66c-.52-.33-.71-.81-.45-1.76,6.22-3.11,1.35-2.08,5.89-5.91a22.07,22.07,0,0,0-2.74-.46q-.76,1.3-1.62,2.52a1.5,1.5,0,0,0-1.2-.41,5.46,5.46,0,0,0-.79.06l-.86.1c-1.13.13-1.95.24-1.95-.92a16.67,16.67,0,0,1,2.45-1.27,12.77,12.77,0,0,0-1.69-.49,10.82,10.82,0,0,0-1.64-.28,17.46,17.46,0,0,1,.28,2.77c-1.44.91-2.29,2.61-3,3.72s-1,1.7-1.12.73c.24-.22.07-.33-.06-.81a7.57,7.57,0,0,1,0-3.07v0c-.56.82-1.06,1.7-1.44,2.18s-.62.54-.82-.23a36.74,36.74,0,0,1,.65-4.13,32.06,32.06,0,0,0,.65-3.64c-.78,2.4-1.55,2.64-2.35,3s-1.59.84-1.65,3.5a29.89,29.89,0,0,0-.25-5c-.08,1.36-.13,2.73-.12,4.09a9.12,9.12,0,0,1-1.18-4.3c-1.12-.2-.54,1.65-.13,3.17s.74,2.73-.54,1.38a6.62,6.62,0,0,1,0-1.61,1.59,1.59,0,0,0-1.65.14,4.23,4.23,0,0,0-1.19,1.35,10.61,10.61,0,0,1-1,1.41,2.18,2.18,0,0,1-1.58.63c-2.34-1.92-2.19-2.58-1.86-3.2s.74-1.05-1.21-2.77a6.47,6.47,0,0,0-1,1.67,8.86,8.86,0,0,0-.59,2,13.32,13.32,0,0,0,0,4.08c.13,1.38.38,2.7.51,3.77a7.58,7.58,0,0,1-.07,3.26,7.79,7.79,0,0,1,.64-.78c4.22.29,3.21.53,1.74,1.6a6.49,6.49,0,0,0-1.85,1.85c-.32.6-.14,1.16.95,1.15-.73-.11-4.59,1.23-3.65,1a3.14,3.14,0,0,0,.24,1.26,2.82,2.82,0,0,0,.64.93,4.52,4.52,0,0,0,2.15,1.2,10.15,10.15,0,0,0,2.73.23,22.36,22.36,0,0,0,2.76-.42c-.5.55-1,1.07-1.53,1.58a2.51,2.51,0,0,0,1,2.32,7.3,7.3,0,0,1,1.81,1.6c1.15-1.89,1.64-1.38,2.25-4.51a7.93,7.93,0,0,0,.38,3.53,2.07,2.07,0,0,0,1.39,1.3,1.94,1.94,0,0,0,.83,0,3.47,3.47,0,0,0,.89-.36,6.49,6.49,0,0,0,1.6-1.36c.53-.57,1-1.18,1.39-1.69a8.45,8.45,0,0,1,.59-.69,3,3,0,0,1,.65-.56,2.39,2.39,0,0,1,1.71-.28,17.2,17.2,0,0,1,3.14.81,1.92,1.92,0,0,0-.15,1.42c.08.54.27,1,.52.8a11.12,11.12,0,0,0,1.23-2.57,15.5,15.5,0,0,0,.55-2.49,13.36,13.36,0,0,0-2.7-1.1,7.12,7.12,0,0,1-2.23-.74c-.76-.81-1.43-1.55-1.91-2.09s-.77-.88-.72-1a11.65,11.65,0,0,0,3.62,2.07,11.51,11.51,0,0,0,4,.47c-1.1-.29-2.19-.95-3.29-1.29,1.68.19,2.12,0,1.85-.23a9.66,9.66,0,0,0-2.23-.85c-1-.31-2.12-.63-2.68-.86s-.59-.33.55-.59l1.93.2a5.43,5.43,0,0,0-2.08-.88c-.72-.19-1.24-.27-1-.55,4.12-1.24,2,.15,5.54-.18-.1-.36-.69-.63-1.44-.77a11,11,0,0,0-2.43-.07c-1.54.07-2.36.33-.66-1,1.23-.31,1.46.26,2.73.32,2.2-1.35,2.85-2.22,3.06-2.74s0-.71,0-1.38l0,.15a16,16,0,0,0,.24-1.73c.05-.59.1-1.11.11-1.7q-.32.69-.66,1.35c-2.47,1.37-3.82,2.14-4.63,2.48s-1.09.25-1.31.08-.37-.45-.82-.36-1.17.59-2.34,2c1.12-1.34,1.92-2.15,2.43-2.73a6.06,6.06,0,0,0,.94-1.28,13,13,0,0,1,1.75-3.21c.34-1.4.3-3.18,1.21-4.23-1.48,1.39-1.48.55-1.75-.19s-.77-1.32-2.52,1.12c.46-1.51-1.09-.52.28-4.19-1,.34-1.05,1-1,1.86a5.86,5.86,0,0,1-.14,2.68c-1.72,2.24-2.28.47-3.85-1a3.87,3.87,0,0,0-2.86-1.21c-1.15.17-2.22,1-2.66,3.14a7.23,7.23,0,0,0-.25,6.46,14.13,14.13,0,0,0,1.32,2.7,15.4,15.4,0,0,0,1.48,2,15,15,0,0,1-3.1-2.16,7.31,7.31,0,0,1-1.23-1.54,2.37,2.37,0,0,0-2.07.28l.67,7.45c0,.3.59.1,1.58-.4a30.71,30.71,0,0,0-3.18,2.86c.53,0,4.49-3.49,3-1.67-1.38,1.07-3.57,2.79-5,3.79,1.36-.62,3.84-2.2,5.18-2.79a36.29,36.29,0,0,1-4.76,3.51,15.84,15.84,0,0,0,6-3.33l1-1.22a23.59,23.59,0,0,1-3.45,2.86c-2.84,1.87.76-1.41,1.95-2.43l1-.42c6.8-6.14-1.89,0-1.87-.76l5.25-4.11-4.62,3.1a31.3,31.3,0,0,1,5-4.1c2-2.18-1.19.5-.11-.75l.27,2.92.78.46,0,0c-.13-.08,0,.08-.68-.51l.45.37.09.07a1.68,1.68,0,0,1-.27-.24h0s0-.05,0,0l.07.1,0,0a.34.34,0,0,1,.06.17v0s.06.17-.12-.39c-.24-.79-.54-1.68-.82-2.73a11.36,11.36,0,0,1-.44-3.75,39.86,39.86,0,0,1,1.3,5.88l.22,1.75v.08h0s0,0,0-.1l0-.6a4,4,0,0,1,0,.58,2.73,2.73,0,0,1,0,.43s0,.34,0-.32c0-.41,0-.58.06-.92a23.4,23.4,0,0,1,.18-2.56c0,2.25.16,1.74.4,1.68s.18.07.06.6a10.81,10.81,0,0,1-.36,1.2l-.34.94-.32.86c.31-.82.42-1.11.6-1.57s.26-.76.34-1a7.13,7.13,0,0,1,.91-2.12c-1.47,3.92-1.39,3.58-.91,2.78s1.39-2,.49-.3l-1.18,1.86-.36.61,0,0,.1-.14a2.37,2.37,0,0,1,.32-.39s.12-.14.35-.35a5.26,5.26,0,0,1,.87-.58,2.82,2.82,0,0,1,.54-.23l.12,0,.05,0,.13,0c.17,0,.08,0,.06,0h0l-.06,0a1,1,0,0,1-.47-.2.54.54,0,0,0,.19.11l-.13-.07s-.09-.06,0,0a1.26,1.26,0,0,1,.31.2L956,640c.24.23.15.13.21.19s-.06-.08-.07-.12,0-.08-.1-.28l.22.6c.88,2.52,1.91,4.86,1.4,6.39-.58-2.14-1.32-5.86-1.55-6.73.11.27.34,1.8.11.89,0-.31-.09-.61-.15-.92l-.08-.46s0,0,0,0l0,.13a.84.84,0,0,1,0-.2s0-.06,0,0a2.65,2.65,0,0,1,.07.52c0-.26-.06-.48-.09-.67v-.1c0-.05,0-.09,0-.07l0,.17v.14c0-.09,0-.29,0-.45a1.64,1.64,0,0,1,0-.34s0,0,0-.23a3.45,3.45,0,0,1,.07-.54c.05-.15.08-.41.1-.41a1.07,1.07,0,0,1,.06-.19c.06-.13.06-.18.1-.25s0,0,0,0h0v0h0c-.55,1-.88,1.33-.93,1.3a.58.58,0,0,1,.12-.26l.17-.23.11-.13.05-.07,0,0a2.87,2.87,0,0,1-.57.52,2.56,2.56,0,0,1-.65.41h0a1.27,1.27,0,0,1-.33.16,1.17,1.17,0,0,1-.2.06l-.08,0a.65.65,0,0,1-.2,0c-.06,0,0,0,0,0s0,0,0,0l.14,0,.16.05a.51.51,0,0,1,.15.07l0,0,0,0h0l.36.18h0l-.36-.18h0l-.1-.06a.3.3,0,0,1,.11.07h0l.36.18h0s.05,0,.05,0,.11.09.2.22l-.11-.14a2.5,2.5,0,0,1,.24.34l0-.06a3.23,3.23,0,0,1,.4.93,2.77,2.77,0,0,1,.07.55v0a2.12,2.12,0,0,1,.16-.51s0,0,0,0v0l.24-.53a10.67,10.67,0,0,1,.89-1.62,5.93,5.93,0,0,1-.7,1.4l-.16.26-.09.14h0v0l0,0s0,0-.05.08l0,.08c-.06.08-.11.19-.06.09l0,0a3.16,3.16,0,0,1,.23-.35l0,0a1,1,0,0,1,.13-.16l-.92,1s-.09.08-.19.14l0,0a2.57,2.57,0,0,1-.5.29,2.92,2.92,0,0,1-.34.15c-.3.11-.06,0,0,0a4.84,4.84,0,0,1-1.07.29l.24,0-.37.06.13,0-.24,0h-.16c-.17,0-.45,0-.47,0a1.4,1.4,0,0,0,.3,0h-.22a1.85,1.85,0,0,1-.39,0h0l.09,0-.06,0,.06,0c.36.1.48.14.91.29l-.82-.27h0a2,2,0,0,1,.32.12l6.62-3.76a1,1,0,0,1,0-.23v-.09a2.9,2.9,0,0,1,0-.51c0,.07,0,.07,0-.09a2.74,2.74,0,0,0,0,.41,2.43,2.43,0,0,1,0-.27c0,.13,0,.25,0,.35v-.11l0,.7q0-.39,0-.72v-.19c0,.43-.08,1.09-.12,1.29s-.07,0,0-.92l.09-.58c0-.1,0,0,0,0h0a1.58,1.58,0,0,1,.09-.37h0l0,0,0,.05-.12.17-.1.12a2.54,2.54,0,0,1-.22.23l-.11.1-.2.17c-.15.11-.19.14-.09,0l.18-.13.09-.07a.79.79,0,0,1-.15.11,1,1,0,0,1-.19.13l3.27,10.94c-.18-.27-.07-.32.7.18-1-.92-3.65-3-3.27-3,.53.37,1.24,1,1.24,1a32.34,32.34,0,0,0-4.34-3.58c4.15,2.69,4.31,2.19,4.34,1.59s-.06-1.31,3.29,1.29a5.85,5.85,0,0,1-.9-2.42c.66.68,1.12,1.11.84.92,1.19.89-.38-.74-1.86-2.41s-2.87-3.35-1.53-2.35c3.6,3.63,1.65,2.23,3.07,3.55,3.54,3.81,3.31,3.55,2.79,2.81s-1.31-1.93.56.44l.37.5.33.42.06.08,0,0-.06-.09-.26-.35-.49-.67-.44-.67-.5-.79c-.29-.45-.44-.74-.34-.59l.28.46.09.17h0v0c-.15-.27-.31-.55-.47-.85-.28-.48-.52-.93-.73-1.35a19.1,19.1,0,0,1-.94-2.14,10,10,0,0,1-.65-2.78c.63,1.93.81,2.43,1,2.94l.88,2.31-.2-.56-.81-2.24a17.86,17.86,0,0,1-1.15-4c.4,1,.78,2,1.18,3.27.19.63.39,1.33.6,2.14.31,1.22.19.73.21.83l0,.17,0-.16c-.28-1.41-.56-2.82-.79-4v0a2.54,2.54,0,0,1,.06.52,3.85,3.85,0,0,1,0,.65v-.11c.31-3.08.35-2.19.19-1.13s-.43,2.29.09,0l-.4,1.85c0,.09-.09.29-.12.4h0s0,0,0,0l.09-.26.2-.5c.14-.32.28-.63.42-.91a7.58,7.58,0,0,1,.75-1.22c-.55,1-1,1.94-1.4,2.78l-.14.31c0,.08,0,0,0,0l0,0,0-.06c0-.09.06-.2.11-.33a3.13,3.13,0,0,1-.17.45l0-.09,0,.08h0l.25-.52c.17-.35.34-.65.49-.92.61-1.07,1-1.49,1.11-1.36l-1.8,2.73,0,0s.11-.16.2-.26.23-.27.38-.41l.36-.33a6.63,6.63,0,0,1,.69-.49,2,2,0,0,1,.38-.21,3.4,3.4,0,0,1,.34-.16,2.66,2.66,0,0,1,1-.23h0l-.06,0a.82.82,0,0,1-.25-.08l-.1,0h0l.27.12h0l-.27-.12h0l.27.12h0s0,0,0,0l0,0-.11-.09.12.1a2.09,2.09,0,0,1-.55-.62.91.91,0,0,0,.11.16,1.68,1.68,0,0,1-.17-.26c-.08-.12-.13-.25-.2-.38a3.22,3.22,0,0,1-.19-.57s0-.07,0,0c-.05-.24,0-.29,0-.14a2.75,2.75,0,0,1-.17.69l0-.05a3,3,0,0,1-.14.33s0,0,0,0l0,.07v0h0l.73-1.3v0l.07-.1,0,0a3.71,3.71,0,0,1,.42-.49c.09-.1.19-.18.31-.29l.42-.33.36-.23c.2-.12.47-.28.64-.36h0a6.05,6.05,0,0,1,1.8-.62h-.12l-7.71,5.5h0c-.16-.16-.13-.32,0,.26,0-.08,0,0,0,.1a2.79,2.79,0,0,1,0,.5v.29a4.58,4.58,0,0,1-.06.56l0,.05a5.32,5.32,0,0,1-.41,1.36,3.13,3.13,0,0,1-.22.41l0-.05h0a4.33,4.33,0,0,1,.74-.66l-.1.08a5.41,5.41,0,0,1,.67-.43l.09,0c.13-.07.35-.14.45-.19a1.87,1.87,0,0,1,.4-.14l.11,0,.05,0,.12,0a1.42,1.42,0,0,1,.21,0h0s0,0,.07,0l-1.12-.12h0a.76.76,0,0,1-.21-.08h0a2.11,2.11,0,0,1-.41-.2h0a4.43,4.43,0,0,1-.46-.29l.1.07-.19-.15-.07-.05,0,0h0l.22.18.46.38c.67.58.4.46-.34-.21l-.85-.82,0,0,0,0,0,0h0l.13.14c.66.72,1,1.15.6.72-1.29-1.54-.79-.93-.86-1s-.26-.32-.33-.43l.34.51a2,2,0,0,1,.22.37,5.52,5.52,0,0,1-.7-1.1l-.06-.1a3.31,3.31,0,0,0,.27.41s-.15-.22,0,0a4.08,4.08,0,0,1-.32-.54h0l0,0v0s0,0,0,0h0v0h0l.15.39c.08.21.1.28,0,.16s-.25-.7-.19-.52c.16.5.33,1,.49,1.52.21.67.41,1.32.59,1.94.36,1.23.65,2.29.82,3-.5-1.49-.92-2.79-1.27-4-.17-.61-.32-1.19-.46-1.75l-.1-.42,0-.1h0v0l0,.14a3,3,0,0,1,.06.59c0,.11,0,.22,0,.32,0,.73-.1,1.39-.15,2s0-.08.06-1l.07-.65h0V641a3.26,3.26,0,0,1-.05.48c0,.09,0,.12,0,.18-.2.84-.35,1.46-.51,2.1.12-.65.3-1.3.47-1.89v0s0-.05,0,.15v0a2.12,2.12,0,0,1-.13.36l0,.05h0l.64-1.37h0l0,0,0-.06h0l-.3.48c-.22.34-.43.65-.63.92a6.31,6.31,0,0,1-.93,1.08c-.37.32-.09-.49,2-2.68l-1.39,1.53c.8-1,1.08-1.32.95-1.31s-.62.23-1.06.3-.83,0-.66-.26,1-.85,3-1.56c1.63-.55-2,.5-4.85.94,1.57-.38,3.14-.75,4.71-1.1q-2.73.54-5.52.84c-2,.06.86-.68,3.33-1,1.25-.17,2.4-.26,2.74-.3s-.13,0-2-.13h-3.26c.64-.12-1.88-.81,1.85-.39-.59-.07-3.35-.44-1.65-.31l2.5.31a27.69,27.69,0,0,1-4.2-1.13,37.21,37.21,0,0,1,5.66,1.13l1.45.34h0l-.24-.06-.14,0-.53-.19c-1.82-.66-3.68-1.48-4.47-1.75a30.67,30.67,0,0,1-3.94-1.16c-.39-.24-.76-.49-1.14-.75-3.47-1.36-6.94-2.85-10.21-4.07s-6.36-2.11-9.22-1.78a44.14,44.14,0,0,0,3.91,2.79c-1.2-.17-2.4-.32-3.61-.44a13.17,13.17,0,0,1,.14-1.38c-3.51-.18-.72,1.19,1.16,2.14a11.34,11.34,0,0,0-4-.21,68.69,68.69,0,0,0,6.71,2.78c-2.91-.26-5.6-1.64-7.35-.81a16,16,0,0,0,4.71.78,8.6,8.6,0,0,1,3.84.91c-3.43.17-6.17-.23-3.37.85a8.67,8.67,0,0,1-3.93-.78c2.2,1,.83,2.18,4.78,2.65-2.11.29-1.83.92-1.9,1.42s-.5.94-4,1.1a34.22,34.22,0,0,1,3.47.62,6.27,6.27,0,0,1,2.5.85c-4.26-.11-4.32.51-4.41,1.33s-.18,1.75-4.67,2.43c3.85-.16,4.82.49,5.48,1.32s1,1.86,3.24,1.91c-.6.12-1.82.36-1.5.09-.27,1.09-2.3,2.18-3.37,3.37,5.84-2.23,7.73-1.51,11.48-2.72a20.17,20.17,0,0,1-5.9,3.14,26.53,26.53,0,0,0-6,2.45c4.55-2.25,5.53-.35,9-2.8-1.42,1.28-1.7,1.69-2.17,2.14s-1.13.94-3.21,2.53c3.39-2,3.77-2,3.89-1.72s0,.83,2.16-.25c-2.37,3.3-5.73,4.63-2.85,4.47a5.83,5.83,0,0,1-2.76,2.13A7.08,7.08,0,0,1,932.14,662.35Zm38.66-1.89,0,.08-.44.49A4.62,4.62,0,0,0,970.8,660.46Zm2.15-1.32a2.13,2.13,0,0,0-1,.42c-.85-1.3-1.58-2.73-1.35-2.77C971,657.75,971.91,658.26,973,659.14Zm-12.73-19.63Z" transform="translate(-926.43 -607)"/><polygon class="cls-1" points="33.8 32.53 33.8 32.54 33.8 32.53 33.8 32.52 33.8 32.53"/><polygon class="cls-1" points="29.86 30.04 29.86 30.05 29.86 30.04 29.86 30.04"/><polygon class="cls-1" points="51.6 11.2 50.97 12.15 51.79 11.51 51.6 11.2"/><path class="cls-1" d="M967.21,644.15a2.87,2.87,0,0,0,1.2.06A4.77,4.77,0,0,0,967.21,644.15Z" transform="translate(-926.43 -607)"/><path class="cls-1" d="M967.08,633.33a17,17,0,0,0,.55-2.1A10.06,10.06,0,0,0,967.08,633.33Z" transform="translate(-926.43 -607)"/><path class="cls-1" d="M963.93,626.85c-.51.6-.86,1.08-1.18,1.53,0,0,0,0,0,0Z" transform="translate(-926.43 -607)"/><path class="cls-1" d="M977.8,648.52a.44.44,0,0,0,.13.29C978.61,649.6,978.4,649.12,977.8,648.52Z" transform="translate(-926.43 -607)"/><path class="cls-1" d="M959.4,629a8.54,8.54,0,0,1,1.47-1.72C960.54,626.75,960.18,626.54,959.4,629Z" transform="translate(-926.43 -607)"/><path class="cls-1" d="M933.79,627.69l.06,0s0,0,.06-.07Z" transform="translate(-926.43 -607)"/><path class="cls-1" d="M962,627.84c0-1-.57-1.05-1.14-.59C961.14,627.66,961.35,628.27,962,627.84Z" transform="translate(-926.43 -607)"/><path class="cls-1" d="M942.47,648.6l-.08.21c.23-.2.42-.35.57-.46Z" transform="translate(-926.43 -607)"/><path class="cls-1" d="M943,648.35l.48-.25C943.4,648.05,943.35,648,943,648.35Z" transform="translate(-926.43 -607)"/><path class="cls-1" d="M944.46,647.56l-1,.54C943.49,648.17,943.45,648.34,944.46,647.56Z" transform="translate(-926.43 -607)"/><path class="cls-1" d="M942.16,645l-.71.57-1.34-14.69-.58-.42a2.5,2.5,0,0,0,.44.35l1.36,14.87Z" transform="translate(-926.43 -607)"/><path class="cls-1" d="M943.11,627.74a19,19,0,0,1-2.62.32c-1,.17-2,.65-2,1.63l1,.78c-.86-.92.49-1.22,1.76-1.33S943.68,629.08,943.11,627.74Z" transform="translate(-926.43 -607)"/><path class="cls-1" d="M954,641.16a3.46,3.46,0,0,0,.13-.71c0,.13,0,.31,0,0,0,.49-.06.42,0,.39S954.06,640.74,954,641.16Z" transform="translate(-926.43 -607)"/><path class="cls-1" d="M953.83,641.66c-.09.11,0,0,0,0S954,641.49,953.83,641.66Z" transform="translate(-926.43 -607)"/><path class="cls-1" d="M953.86,638.9h0C954.08,638.94,953.83,638.89,953.86,638.9Z" transform="translate(-926.43 -607)"/><path class="cls-1" d="M947.67,626.21a19.46,19.46,0,0,0-2.24-1.63c.5,1.16,1,2.31,1.62,3.43A15.92,15.92,0,0,1,947.67,626.21Z" transform="translate(-926.43 -607)"/><path class="cls-1" d="M955.46,640.89v-.06c0,.08,0,.16,0,.21Z" transform="translate(-926.43 -607)"/><path class="cls-1" d="M966.77,649.66l-3.9-3.19C963.47,647.17,967.82,650.8,966.77,649.66Z" transform="translate(-926.43 -607)"/><path class="cls-1" d="M963.46,639.89a2.08,2.08,0,0,1-.06.46A2.32,2.32,0,0,0,963.46,639.89Z" transform="translate(-926.43 -607)"/><path class="cls-1" d="M961.68,642.25l0-.17a2.81,2.81,0,0,1-.08.31Z" transform="translate(-926.43 -607)"/></svg>