<svg id="Layer_1" data-name="Layer 1" xmlns="http://www.w3.org/2000/svg" viewBox="0 0 142.57 159.53"><defs><style>.cls-1{fill:#202020;}</style></defs><title>1</title><path class="cls-1" d="M946.62,643.7c1.33-.37,4.27-1.43,3.61-1.45l-5.06,1.57Z" transform="translate(-897.16 -560.37)"/><path class="cls-1" d="M955.39,639A89.2,89.2,0,0,0,944,642.52c4.9-1.4,2.92-.64,8.74-2.33.66,0-1.47.93-3.33,1.53,1.31-.37-1,.72,2.2-.24,3.78-1.62,3.81-2,.48-1.32C953.13,639.7,954.46,639.33,955.39,639Z" transform="translate(-897.16 -560.37)"/><path class="cls-1" d="M959.59,636.47l0,0Z" transform="translate(-897.16 -560.37)"/><path class="cls-1" d="M958,639.33l-.06,0Z" transform="translate(-897.16 -560.37)"/><path class="cls-1" d="M956.84,639.76l.06,0Z" transform="translate(-897.16 -560.37)"/><path class="cls-1" d="M959.59,636.47l-.09.06Z" transform="translate(-897.16 -560.37)"/><path class="cls-1" d="M942.29,640.21a9,9,0,0,0,1.39-.26,4,4,0,0,1-.6,0Z" transform="translate(-897.16 -560.37)"/><path class="cls-1" d="M958.17,638.92l0-.06,0,0Z" transform="translate(-897.16 -560.37)"/><path class="cls-1" d="M956.11,639.61a1.16,1.16,0,0,0,.16-.08l-.19.09Z" transform="translate(-897.16 -560.37)"/><polygon class="cls-1" points="59.88 77.22 59.92 77.25 62.45 72.86 62.65 72.83 62.45 72.86 59.92 77.25 59.88 77.22"/><path class="cls-1" d="M958.71,637.83l0,0Z" transform="translate(-897.16 -560.37)"/><path class="cls-1" d="M932.63,629.82l.76.25C933,629.86,932.68,629.74,932.63,629.82Z" transform="translate(-897.16 -560.37)"/><path class="cls-1" d="M956.29,632.41l.13.22,1.86,1.7Z" transform="translate(-897.16 -560.37)"/><path class="cls-1" d="M954.18,639.5h0S954.21,639.51,954.18,639.5Z" transform="translate(-897.16 -560.37)"/><path class="cls-1" d="M968.4,642l-.06,0,0,0Z" transform="translate(-897.16 -560.37)"/><path class="cls-1" d="M942.81,639.9c-.07,0-.13-.09-.11-.17C942.59,639.86,942.62,639.91,942.81,639.9Z" transform="translate(-897.16 -560.37)"/><path class="cls-1" d="M968.37,642l0,0Z" transform="translate(-897.16 -560.37)"/><path class="cls-1" d="M962.15,637.36h0Z" transform="translate(-897.16 -560.37)"/><path class="cls-1" d="M953.88,639.38l0,0Z" transform="translate(-897.16 -560.37)"/><path class="cls-1" d="M960.59,649.91c.26.25.61.76.4.18l-.32-.45C961,650.19,961.06,650.47,960.59,649.91Z" transform="translate(-897.16 -560.37)"/><path class="cls-1" d="M963.32,648.29l-.46-.77,0,.25Z" transform="translate(-897.16 -560.37)"/><path class="cls-1" d="M940,660.26a30.8,30.8,0,0,1,2.81-2.94C940.4,659.48,938.4,658.83,940,660.26Z" transform="translate(-897.16 -560.37)"/><path class="cls-1" d="M944.68,639.39a12.26,12.26,0,0,1-1.87.51.87.87,0,0,0,.27.05C943.72,639.74,944.32,639.54,944.68,639.39Z" transform="translate(-897.16 -560.37)"/><path class="cls-1" d="M942.14,619.61l1,.17C942.72,619.52,942.37,619.47,942.14,619.61Z" transform="translate(-897.16 -560.37)"/><path class="cls-1" d="M982.46,625l.68,0C983.11,624.79,982.91,624.76,982.46,625Z" transform="translate(-897.16 -560.37)"/><path class="cls-1" d="M945.06,617.88a18.27,18.27,0,0,0,2,2.44c-.14-.32-.24-.6-.47-1.06Z" transform="translate(-897.16 -560.37)"/><path class="cls-1" d="M942.8,657.29l0,0Z" transform="translate(-897.16 -560.37)"/><path class="cls-1" d="M927.94,651.29c.21,1,1.66.73,3.46.18s4-1.38,5.64-1.75c2.18,1.12-3.81,2.25-6.39,4a11.57,11.57,0,0,0,4.43.12c1.61-.14,3-.32,3.08.13a7.53,7.53,0,0,1-2.25,1.19c2.41-.47,2.85.29,3.58,1s1.59,1.37,4.35.06a11.5,11.5,0,0,1-1,1c2.17-2,4.55-3.88,6.25-5.18.4.34,3.36-1.8.57.88-.1-.29-1.3.71-2.32,1.37.55-.21,1.09-.44,1.62-.68-3.8,4.09-1.94.68-5.11,3.3a19.72,19.72,0,0,0,4-1c1.3-.39,2.17-.62,2,.27-3.33,4.34-3-.27-5.2,4.27a15.92,15.92,0,0,1,.21-2.71c-5.34,6.87-.33-1.26-6.16,6,.48,1.64,1.69,1.79,2.77,1.82s2.12,0,2.84,1.47a13,13,0,0,0,2.3-3,17.25,17.25,0,0,1,2.26-3c1.39-.68,1.68-.31,1.58.67a30.62,30.62,0,0,1-1.13,4.12,14,14,0,0,0-.87,3.85c.06.8.62.86,1.95-.54,1-1.54,2.21-3.89,3.12-5.38s1.5-2.11,1.63-.18c-.77,1.91-1.57,3.81-2.42,5.68,1.06.66,2-1.39,2.75-3s1.3-2.83,1.87-.61c-.82,2.33-2.06,1.6-1.9,2.4.17,2.55.7,1.78,1.19.36s1.06-3.42,1.54-3.34l-.66,5.4a8.43,8.43,0,0,0,3.92-2.46,23.4,23.4,0,0,1,3.37-3c.05,1.62-.26,3.35.5,5a4.52,4.52,0,0,1,2.4-1.35,7.2,7.2,0,0,1,2.76.07c1,.22,2.12.47,3.29.8l1.82.49c.63.14,1.27.28,1.92.4-.25-1.63-.57-3.24-1-4.81.29-.11,1.61,1.52,1.75,2.49,2.27.69-1.47-2.59-1.85-4.53.43-.68,2.38,1.66,2.7,3.14,0-1.21.08-2.52.17-3.72a18.42,18.42,0,0,1,.48-3.39,3.94,3.94,0,0,1,1.31-2.22,4.66,4.66,0,0,1,3.07-.57c.29.41.58.82.85,1.25,1.44-.44-.25-2.32-1.82-3.8s-3-2.6-.62-2.54l.61.67a5.94,5.94,0,0,0,1.77-3.06,25,25,0,0,0,.52-3.38,8.07,8.07,0,0,1,.94-3.1,11.13,11.13,0,0,1,3.16-3.21c-3.4.2-2.84-.86-2.68-2s-.1-2-4.57-.57c1.87-1.7,3.17-2.75,4.23-3.8a7.84,7.84,0,0,0,2.33-4.63c-.07-.55-1.55-.12-3.14.46s-3.31,1.28-4,1.16l4-2.85a53.21,53.21,0,0,0-5,1.91q2.09-2.1,4.07-4.33c-.57,0-1.13,0-1.69,0,.08.54-1.07,2.15-2.2,3-1.32.16-1.23-1-.82-2.62a14.48,14.48,0,0,1,2.08-4.56,30.14,30.14,0,0,0-6,.72c1.13-1.64,2.1-1.81,3.34-2.48-2.43,1.37-1.76.27-1.15-.94s1.26-2.47-1-1.1c-.25,1.14-1.58,2.48-2.09,3.34A3.23,3.23,0,0,0,974,617a4.59,4.59,0,0,0-3.56-.48c.44-1,.88-2.1,1.35-3.14a8.56,8.56,0,0,0-3.42-.89,14.9,14.9,0,0,0-3.79.22c-1.3.23-2.59.52-3.83.86s-2.46.73-3.71,1c1.09.56,1.76,2.34,2.05,4.06s.26,3.37-.17,3.76q-.84-2.49-1.79-4.93a4.54,4.54,0,0,0,.09,1h0l-11.67,11a2,2,0,0,0,.47.16l11.34-10.69h0c.45,1.28,1.23,1,1,3.73h0l-8.72,8.23a3.57,3.57,0,0,1,.49.28c-.84.63-5.86-1.15-7.25-2.37.42.65.86,1.27,1.31,1.87a38.54,38.54,0,0,1-4.09-1.56c1.46.76,0,1-1.12,1.45s-2,1.12.66,2.09l-1.54-.2a8.19,8.19,0,0,0,.36,4.33,21.53,21.53,0,0,1,1.1,3.83c4.5-.19,3.56,1,7.28,1.27a37.64,37.64,0,0,0-2.38,3.51,4.4,4.4,0,0,0-.32,4.2,3.94,3.94,0,0,0,3.27-.21,11.78,11.78,0,0,1,3.2-1.2,5.61,5.61,0,0,0-2.81,2.77,2.35,2.35,0,0,1-2.46,1.53,11.27,11.27,0,0,0,3.26,3c.29.15.67.36,1.07.54a13.34,13.34,0,0,0,1.33.5,13.56,13.56,0,0,0,3.51.52c.65-1.6.79-2.47,1.87-3.38.47,0,.48.51.26,1.3a7.63,7.63,0,0,1-1.29,2.56l-.42.22a3.82,3.82,0,0,1,2.25,0,3.23,3.23,0,0,1,1.44,1.25c.83,1.18,1.55,3,2.61,4.68a8.74,8.74,0,0,0,3.9,3.79c1.48.56,3.13.09,4.2-2.11l-.25.43a24.78,24.78,0,0,0,4.11-5.12c1.11,0,1.08.85.92,1.95s-.38,2.4.9,3.38a9.78,9.78,0,0,1,6.22-5.9,9.77,9.77,0,0,0,3.12-1.85,4.53,4.53,0,0,0,1.22-3.77c3,1,5.22.23,6.64-1.32a7,7,0,0,0,1.49-2.82,11.46,11.46,0,0,0,.47-3.31c0-1.1-.07-2.2-.15-3.26a23.84,23.84,0,0,1-.22-2.83,8.67,8.67,0,0,1,.09-1.35,5.17,5.17,0,0,1,.31-1.2,7.48,7.48,0,0,1,1.62-2.49l-2.74.86c-1.48-.35-1.16-.75-.43-1.25s1.89-1.11,2.07-1.65c-2.08.76-2.13,1.9-3.81,1.63-.72-1-1.31-2-1.83-2.9a29.3,29.3,0,0,1-1.32-2.8c-.37-1-.7-1.94-1-2.93s-.66-2.07-1-3.14a32.56,32.56,0,0,0-1.3-3.33,23.46,23.46,0,0,0-1.82-3.4,19.46,19.46,0,0,0-6-6.08c-.94-.56-2,0-2.79,1.07a21.67,21.67,0,0,0-2.23,3.92,8.43,8.43,0,0,1-1.82,2.89c-.57.39-.87,0-1.47-1.75.51-1.71,1.08-3.42,1.69-5.11a11.79,11.79,0,0,1-4.52,2.34,18.52,18.52,0,0,1-3.9.4c-2.47.08-4.94.37-5.89,3.5-.15-1.23-.61-2.75-.22-2.84-.94-1.72-1.83-1.51-2.14-.51a7,7,0,0,0,.32,4.23c-.61-.14-1.13-2.6-2-4-.77-.91-.77.42-.75,1.53s.09,2-.87.34a3.1,3.1,0,0,1-.34-1.54c.17.95-.37,1.06-.65,1.42s-.28,1,.86,2.85c-2-1.39-.87,2.65-2.77.71,2,4.56-2.57-1.27.84,4.84-3.62-6.27-4.27-4.24-2.85-1.11-1-1.95-1.55-1.72-3-4.4a.41.41,0,0,0-.12.19l-10.41,22.7c.64,1.59,2.35,2.47,5.45,1.38-1.91,1.23-2.29,2.24-2,3s1.35,1.1,2.26,1.42c1.87.64,3.25.83-1.09,4.38A40.32,40.32,0,0,0,944.1,655c2.33.44,4.34.67,6.18.85-2,3-3,2.58-3.94,2.12s-1.85-.9-4.33,2c2.57.31,5.2-.68,7.25-1.4s3.58-1.2,4.83.2a2.09,2.09,0,0,1-.7,2c-.55.66-1.32,1.27-1.72,1.77,2.7-.7,4.52.21,6.67.51l9,1.27,6-6.55a3.9,3.9,0,0,0,1-4.36,4.07,4.07,0,0,1,1.24,1.64c.15-.62,1.68-.58-1.12-2.31l.44,1c-2.21-1-3.93-2.87-5.53-4.45a23.08,23.08,0,0,0-4.15-3.57c4,2.53,4.7,2.45,5.73,2.4a5.53,5.53,0,0,1,2.19.4,25.22,25.22,0,0,1,5.21,2.81,7.73,7.73,0,0,0-3.64-2.53c.78-.19,2,.09,4.1,1.63a5.32,5.32,0,0,0-2.43-2.8c-.92-.66-1.63-1.14-1.36-1.94a27.28,27.28,0,0,1,3.73,1.73c-2.65-2-5.47-3.33-3.92-4.46.93.23,2.19.25,2.09.71,0-1.42-2-2.81-3.62-3.82a8.2,8.2,0,0,1-1.92-1.46c-.36-.49-.37-1,.22-1.81,6.93-.64,2-1.44,7.63-3.37a20.87,20.87,0,0,0-2.39-1.42c-.79.62-1.6,1.21-2.42,1.77a1.52,1.52,0,0,0-1-.83,6.08,6.08,0,0,0-.76-.22l-.84-.22c-1.1-.29-1.9-.48-1.48-1.56a16.54,16.54,0,0,1,2.74-.31,13.56,13.56,0,0,0-1.4-1.06,9.19,9.19,0,0,0-1.42-.85,17.44,17.44,0,0,1-.75,2.68c-1.67.32-3.08,1.6-4.11,2.39s-1.57,1.22-1.31.28c.3-.13.18-.29.24-.79a7.71,7.71,0,0,1,1.14-2.85s0,0,0,0c-.81.56-1.6,1.21-2.12,1.51s-.78.28-.69-.51a39.54,39.54,0,0,1,2.1-3.61,32.66,32.66,0,0,0,1.93-3.16c-1.6,2-2.41,1.89-3.28,1.94s-1.79.21-2.81,2.67a30.78,30.78,0,0,0,1.59-4.77c-.57,1.24-1.11,2.49-1.6,3.77a9.31,9.31,0,0,1,.46-4.44c-1-.59-1.1,1.34-1.27,2.91s-.3,2.81-1,1.09a7.14,7.14,0,0,1,.59-1.5,1.56,1.56,0,0,0-1.59-.46,4.36,4.36,0,0,0-1.6.82,9.15,9.15,0,0,1-1.44,1,2.15,2.15,0,0,1-1.7,0c-1.48-2.64-1.11-3.2-.57-3.66s1.07-.71-.13-3a6.88,6.88,0,0,0-1.55,1.2,8.62,8.62,0,0,0-1.26,1.63,13,13,0,0,0-1.52,3.8c-.38,1.33-.62,2.65-.89,3.7a7.64,7.64,0,0,1-1.24,3,8.2,8.2,0,0,1,.87-.5c3.84,1.8,2.8,1.65,1,2.13a6.48,6.48,0,0,0-2.4,1c-.51.44-.55,1,.47,1.42-.64-.38-4.72-.53-3.77-.38a3.27,3.27,0,0,0-.23,1.26,2.94,2.94,0,0,0,.25,1.1,4.56,4.56,0,0,0,1.58,1.9,10.25,10.25,0,0,0,2.46,1.21,22.5,22.5,0,0,0,2.72.6c-.66.33-1.32.63-2,.92a2.52,2.52,0,0,0,.12,2.54,7.43,7.43,0,0,1,1.12,2.14c1.75-1.34,2-.69,3.72-3.39a8.08,8.08,0,0,0-.92,3.43,2,2,0,0,0,.83,1.72,1.91,1.91,0,0,0,.76.29,3.17,3.17,0,0,0,1,0,6.23,6.23,0,0,0,2-.69,20.69,20.69,0,0,0,1.91-1.07c.28-.16.53-.3.8-.43a3.39,3.39,0,0,1,.81-.28,2.39,2.39,0,0,1,1.7.36,17.38,17.38,0,0,1,2.63,1.89c-.31.14-.54.72-.66,1.26s-.11,1,.2.94a11.5,11.5,0,0,0,2.08-2,15.91,15.91,0,0,0,1.41-2.12,12.27,12.27,0,0,0-2.12-2,7.45,7.45,0,0,1-1.81-1.5c-.42-1-.77-2-1-2.64s-.4-1.1-.29-1.23a11.79,11.79,0,0,0,2.61,3.24,11.53,11.53,0,0,0,3.55,1.87c-.93-.66-1.7-1.67-2.61-2.38,1.51.78,2,.75,1.82.45a9.7,9.7,0,0,0-1.78-1.6c-.84-.66-1.74-1.35-2.18-1.77s-.43-.52.73-.36c.58.29,1.15.59,1.72.9a5.44,5.44,0,0,0-1.62-1.58c-.6-.44-1.06-.71-.73-.87,4.28.33,1.85.88,5.23,1.83,0-.37-.42-.84-1.07-1.24a11.21,11.21,0,0,0-2.23-.94c-1.47-.5-2.33-.55-.28-1.13,1.26.16,1.27.78,2.44,1.29,2.53-.46,3.45-1,3.84-1.44s.21-.68.52-1.29l-.1.13a14.87,14.87,0,0,0,.85-1.52c.27-.54.5-1,.72-1.55-.36.36-.73.7-1.1,1-2.8.38-4.34.61-5.22.63s-1.1-.16-1.24-.4-.19-.55-.64-.63-1.3.12-2.9,1c1.52-.84,2.56-1.31,3.25-1.67a6,6,0,0,0,1.33-.85,13.31,13.31,0,0,1,2.8-2.36c.83-1.17,1.43-2.85,2.65-3.5-1.87.76-1.57,0-1.56-.81s-.24-1.51-2.74.13c1-1.24-.83-.88,1.77-3.81-1.07-.05-1.36.6-1.6,1.38a5.87,5.87,0,0,1-1.09,2.45c-2.42,1.46-2.3-.39-3.22-2.36a3.85,3.85,0,0,0-2.23-2.16c-1.13-.26-2.45.16-3.61,2-2,1.5-2.53,3.79-2.58,5.93a14.19,14.19,0,0,0,.25,3,17,17,0,0,0,.66,2.38,14.72,14.72,0,0,1-2.1-3.14,6.88,6.88,0,0,1-.59-1.87,2.37,2.37,0,0,0-2-.5L948.68,637c-.11.29.51.31,1.61.2a29.94,29.94,0,0,0-4,1.51c.5.19,5.45-1.63,3.42-.45-1.67.49-4.33,1.3-6,1.71,1.48-.09,4.37-.66,5.83-.72a35.7,35.7,0,0,1-5.71,1.54,15.54,15.54,0,0,0,6.84-.91l1.36-.79a21.91,21.91,0,0,1-4.25,1.42c-3.32.72,1.22-1,2.7-1.56l1,0c8.56-3.26-1.78-.65-1.47-1.39l6.38-1.93L951,636.79a31,31,0,0,1,6.12-2c2.64-1.31-1.29,0,.17-.74l-.81,2.83c.13.15.32.38.56.71l0,0c-.08-.12,0,.08-.45-.72l.29.51.06.1a2.09,2.09,0,0,1-.17-.33h0s0-.06,0,0,0,.09,0,.12v0a1.05,1.05,0,0,1,0,.19s0,0,0,0,0,.18,0-.41c.06-.83.11-1.76.22-2.84a11.46,11.46,0,0,1,1-3.66,39.57,39.57,0,0,1-.91,6l-.44,1.71v.08h0s0,0,0-.09l.2-.58a3.28,3.28,0,0,1-.18.56c-.22.54-.15.36-.17.39s-.15.31.13-.29c.18-.37.25-.52.39-.83a24.41,24.41,0,0,1,1.11-2.32c-.79,2.11-.49,1.67-.25,1.71s.15.13-.16.58a11.35,11.35,0,0,1-.77,1l-.65.75-.61.68,1.12-1.24c.32-.36.52-.61.69-.84a7.71,7.71,0,0,1,1.62-1.65c-2.79,3.13-2.59,2.84-1.86,2.27s2-1.38.57-.1l-1.77,1.3-.56.45,0,0a.57.57,0,0,1,.15-.09,1.73,1.73,0,0,1,.44-.25s.16-.09.45-.19a4.36,4.36,0,0,1,1-.24,2.94,2.94,0,0,1,.58,0l.13,0h0l.13,0,.06,0h0s0,0,0,0a1.06,1.06,0,0,1-.37-.36.78.78,0,0,0,.14.18l-.1-.12s-.06-.08,0,0a1.28,1.28,0,0,1,.22.3l0-.08a1.68,1.68,0,0,0,.13.25c0,.09,0-.1,0-.14a1.72,1.72,0,0,0,0-.29v.63c-.09,2.67,0,5.23-1,6.47.22-2.2.89-5.94,1-6.83,0,.29-.34,1.8-.23.87.07-.31.14-.61.2-.92l.09-.46s0,0,0,0l0,.13a1,1,0,0,1,0-.21s0-.06,0,0a2.41,2.41,0,0,1-.12.52l.17-.66v0l0-.08c0-.05,0-.09,0-.07l0,.17,0,.14c0-.09.07-.29.12-.44a2.49,2.49,0,0,1,.13-.32s0,0,.09-.2a1.79,1.79,0,0,1,.27-.48c.09-.13.22-.35.23-.36a1,1,0,0,1,.13-.14c.1-.1.12-.15.18-.2s0,0,0,0h0c-.88.75-1.3.93-1.33.88s.07-.1.21-.2l.24-.16.14-.08.08,0,0,0a2.69,2.69,0,0,1-.72.27,2.33,2.33,0,0,1-.76.15h0a1.32,1.32,0,0,1-.36,0l-.21,0h-.09a.54.54,0,0,1-.19,0h0l0,0s.07.05.11.08l.13.1.12.13,0,0v0h0l.27.3h0l-.27-.3h0v0l-.07-.09.08.1h0l.27.3h0v0s0,.05,0,.06a2,2,0,0,1,.1.28l0-.17a1.89,1.89,0,0,1,.1.41v-.08a3.22,3.22,0,0,1,0,1,2.27,2.27,0,0,1-.13.53c0,.07,0-.14,0-.08s0,.1,0,.08a1.72,1.72,0,0,1,.33-.42l0,0h0l.42-.41a10.23,10.23,0,0,1,1.42-1.19,6.34,6.34,0,0,1-1.16,1l-.25.19-.13.09h0l0,0h0l-.07.05-.07.06c-.08.06-.16.14-.08.06l0,0a2.93,2.93,0,0,1,.34-.25c.16-.09.06,0,0,0a.78.78,0,0,1,.18-.11l-1.22.58a1.09,1.09,0,0,1-.22.07h0a2.42,2.42,0,0,1-.57.09,1.6,1.6,0,0,1-.37,0h0a5.15,5.15,0,0,1-1.11-.11l.24,0-.37-.07.13,0-.24-.06-.15,0a4.51,4.51,0,0,1-.45-.15l.29.1-.24-.09s0,0,0,0a2.6,2.6,0,0,1-.35-.16l0,0s0,0,0,0l.09.06,0,0,0,0a8.16,8.16,0,0,1,.74.6l-.67-.55h0l.26.22,7.52-1.1a1.89,1.89,0,0,1,0-.23l0-.09a2.78,2.78,0,0,1,.18-.48c0,.06,0,.07,0-.08a2.17,2.17,0,0,0-.16.38,1.86,1.86,0,0,1,.1-.25,1.53,1.53,0,0,0-.13.32l0-.1c0,.12-.08.26-.22.67.08-.26.16-.48.23-.69l0-.06,0-.12a11.2,11.2,0,0,1-.58,1.16c-.11.19-.08,0,.39-.83l.29-.51,0,0h0a1.59,1.59,0,0,1,.21-.31h0s0,0,0,.05l0,0-.18.12-.13.07a1.83,1.83,0,0,1-.29.14l-.14.05-.25.08-.1,0,.22-.06.11,0-.18,0a1.7,1.7,0,0,1-.23.05l-.91,11.39c-.07-.32,0-.33.58.41-.63-1.23-2.33-4.07-1.95-4,.36.53.81,1.33.81,1.33-.81-1.33-.72-2-2.75-4.9,2.91,4,3.23,3.6,3.47,3s.42-1.24,2.61,2.4a5.83,5.83,0,0,1,0-2.59c.37.88.64,1.44.46,1.17.78,1.25-.1-.83-.87-2.92s-1.47-4.17-.57-2.75c2,4.69.73,2.67,1.57,4.42,1.92,4.83,1.81,4.5,1.59,3.62s-.53-2.27.36.62l.16.6c0,.17.1.34.16.51l0,.09s0,0,0,0l0-.11-.12-.41q-.11-.37-.21-.81c-.06-.26-.12-.52-.17-.78s-.13-.61-.19-.92c-.1-.53-.14-.85-.09-.67l.08.53,0,.19h0v0l-.14-1c-.07-.55-.14-1-.18-1.51a21,21,0,0,1-.11-2.35,10.94,10.94,0,0,1,.4-2.83c-.11,2-.12,2.57-.13,3.11s0,.81,0,2.46v-.59c0-.7,0-1.51.06-2.38a17.86,17.86,0,0,1,.36-4.09c0,1.11,0,2.15-.09,3.47,0,.66-.11,1.38-.21,2.22-.15,1.24-.09.74-.1.84l0,.18,0-.17.7-4v0a2.73,2.73,0,0,1-.13.52,3.71,3.71,0,0,1-.25.6l0-.1c1.41-2.76,1.13-1.92.59-1s-1.23,2,.07.08l-1,1.58c0,.08-.19.23-.26.33h0s0,0,0,0l.18-.21.37-.39c.25-.26.49-.49.73-.7a7.68,7.68,0,0,1,1.13-.87c-.89.76-1.65,1.45-2.31,2.09l-.25.24,0,0,0,0,.05,0c.07-.07.14-.17.22-.27a2.57,2.57,0,0,1-.31.36l.07-.07-.07.06h0l.42-.4.78-.67c1-.78,1.51-1,1.54-.87l-2.67,1.89,0,0a3.26,3.26,0,0,1,.29-.17c.12-.06.31-.17.49-.25l.47-.17a8,8,0,0,1,.81-.21,2,2,0,0,1,.44-.05,2.33,2.33,0,0,1,.37,0,2.39,2.39,0,0,1,1,.15h0l0,0,0,0a1.92,1.92,0,0,1-.21-.16l-.07-.09h0l.21.21h0l-.21-.21h0v0h0l.21.21h0s0,0,0,0l0,0-.08-.13.08.14a2.46,2.46,0,0,1-.29-.78,1.33,1.33,0,0,0,0,.19A1.8,1.8,0,0,1,968,641a3,3,0,0,1,0-.42,3.69,3.69,0,0,1,0-.6s0-.08,0,0c0-.24.08-.28,0-.14a2.64,2.64,0,0,1-.4.58l0,0-.25.25s0,0,0,0l-.07,0,0,0h0l1.15-1,0,0,.1-.07,0,0a3.31,3.31,0,0,1,.56-.31l.4-.16.51-.15.42-.09c.23,0,.54-.09.72-.1h0A6.1,6.1,0,0,1,973,639h0l-.11,0-9.17,2.34c-.1-.21,0-.35-.11.23,0-.07,0,0,0,.1a2.74,2.74,0,0,1-.15.48l0-.07-.15.33a2.36,2.36,0,0,1-.26.5l0,0a5.1,5.1,0,0,1-.87,1.11,2.36,2.36,0,0,1-.36.31l.06,0h0a4.58,4.58,0,0,1,.92-.34l-.12,0a5.76,5.76,0,0,1,.79-.15l.1,0c.14,0,.37,0,.49,0a3,3,0,0,1,.41,0l.12,0h.17a2,2,0,0,1,.2.06h0l.07,0-1-.51h0a1,1,0,0,1-.17-.15h0a2.22,2.22,0,0,1-.31-.34l0,0a3.32,3.32,0,0,1-.33-.44l.07.11c-.08-.12-.1-.18-.13-.22l0-.07,0,0h0l.13.24.29.53c.42.78.21.57-.23-.33l-.5-1.07,0,0,0,0v0h0l.07.17c.35.92.5,1.44.29.9a9.43,9.43,0,1,1-.42-1.26,5.25,5.25,0,0,1-.16-.52l.13.6a3.19,3.19,0,0,1,.08.42c0,.11-.09-.19-.26-1.28l0-.11c0,.21.1.52.1.49s-.06-.27,0-.06a4.49,4.49,0,0,1-.11-.61h0v-.09s0,0,0,0h0a0,0,0,0,0,0,0h0v0h0v.42c0,.22,0,.3,0,.16s0-.74,0-.55c0,.53-.07,1.07-.1,1.59,0,.7-.1,1.39-.15,2-.11,1.28-.23,2.36-.31,3.06.07-1.57.15-2.94.27-4.2.06-.63.13-1.23.2-1.8l.06-.42v-.11h0v0l0,.14a3.76,3.76,0,0,1-.15.57c0,.1-.07.21-.11.31-.32.65-.6,1.26-.88,1.84s0-.08.41-.89l.3-.59v0l.08-.18a3.83,3.83,0,0,1-.23.43c0,.07-.06.11-.09.15L960.4,644c.36-.57.76-1.1,1.13-1.6l0,0s0,0-.1.12l0,0a1.94,1.94,0,0,1-.25.29l0,0h0l1.09-1h0l0,0,0,0h0l-.45.34c-.32.23-.63.44-.91.62a7,7,0,0,1-1.26.67c-.47.17.09-.49,2.79-1.79l-1.85.93c1.13-.68,1.49-.85,1.36-.88s-.65,0-1.09-.1-.79-.28-.53-.48,1.23-.44,3.37-.38c1.71.08-2.07-.26-4.86-.87,1.6.21,3.2.44,4.79.68q-2.75-.48-5.45-1.22c-1.94-.69,1-.32,3.45.3,1.23.3,2.33.63,2.66.72s-.11-.07-1.85-.86l-3-1.19c.63.11-1.47-1.45,1.86.3-.52-.27-3-1.62-1.43-.89l2.23,1.2a29.52,29.52,0,0,1-3.51-2.57,35.63,35.63,0,0,1,4.86,3.1c.42.28.81.56,1.23.85l0,0-.19-.14-.12-.09-.43-.37c-1.45-1.27-2.89-2.71-3.53-3.25a29.88,29.88,0,0,1-3.25-2.51c-.27-.36-.54-.73-.79-1.11-2.74-2.53-5.44-5.17-8-7.49s-5.17-4.27-8-5a42.1,42.1,0,0,0,2.63,4c-1.06-.59-2.12-1.17-3.2-1.72.19-.41.38-.82.62-1.23-3.21-1.44-1.1.84.31,2.41a11.66,11.66,0,0,0-3.68-1.66,67.38,67.38,0,0,0,5.25,5c-2.62-1.3-4.63-3.56-6.56-3.42a15.87,15.87,0,0,0,4.11,2.43,8.54,8.54,0,0,1,3.24,2.24c-3.25-1.09-5.67-2.45-3.44-.43a8.56,8.56,0,0,1-3.38-2.15c1.69,1.73,0,2.33,3.49,4.2-2.07-.49-2,.2-2.29.64s-.8.69-4.14-.43a32.91,32.91,0,0,1,3,1.84c1.05.71,2,1.36,2,1.69-3.94-1.64-4.21-1.09-4.6-.36s-.8,1.57-5.23.58c3.64,1.24,4.32,2.2,4.63,3.21s.22,2.09,2.33,3c-.6-.11-1.82-.33-1.43-.47-.65.92-2.94,1.2-4.36,1.93,6.25,0,7.75,1.39,11.68,1.62a20.11,20.11,0,0,1-6.63.79,26.67,26.67,0,0,0-6.52.09c5.05-.44,5.27,1.68,9.43.67-1.79.68-2.2,1-2.8,1.2s-1.39.47-3.9,1.2c3.87-.62,4.23-.49,4.24-.2s-.33.76,2.11.56c-3.41,2.21-7,2.23-4.28,3.13a5.8,5.8,0,0,1-3.34,1A7.15,7.15,0,0,1,927.94,651.29Zm36.72,12.24v.09l-.6.3A4.29,4.29,0,0,0,964.66,663.53Zm2.47-.45a2.06,2.06,0,0,0-1.1,0c-.33-1.52-.48-3.12-.26-3.07C965.82,661.07,966.49,661.88,967.13,663.08Zm-4.74-22.91Z" transform="translate(-897.16 -560.37)"/><polygon class="cls-1" points="65.23 79.82 65.23 79.83 65.23 79.82 65.23 79.81 65.23 79.82"/><polygon class="cls-1" points="62.46 76.07 62.46 76.08 62.47 76.07 62.46 76.07"/><polygon class="cls-1" points="89.55 66.39 88.62 67.05 89.61 66.74 89.55 66.39"/><path class="cls-1" d="M967.22,647a2.84,2.84,0,0,0,1.09.5A5.16,5.16,0,0,0,967.22,647Z" transform="translate(-897.16 -560.37)"/><path class="cls-1" d="M971,636.89a16.65,16.65,0,0,0,1.26-1.75A10.16,10.16,0,0,0,971,636.89Z" transform="translate(-897.16 -560.37)"/><path class="cls-1" d="M970.43,629.71c-.7.38-1.2.7-1.66,1l0,0Z" transform="translate(-897.16 -560.37)"/><path class="cls-1" d="M975.5,654.94a.43.43,0,0,0,0,.31C975.87,656.24,975.84,655.71,975.5,654.94Z" transform="translate(-897.16 -560.37)"/><path class="cls-1" d="M965.43,630.05a8.42,8.42,0,0,1,2-1.07C967.3,628.4,967,628.07,965.43,630.05Z" transform="translate(-897.16 -560.37)"/><path class="cls-1" d="M942,619.59l0,.06s0,0,.07,0Z" transform="translate(-897.16 -560.37)"/><path class="cls-1" d="M968.28,629.94c.32-1-.15-1.19-.85-1C967.53,629.46,967.5,630.1,968.28,629.94Z" transform="translate(-897.16 -560.37)"/><path class="cls-1" d="M942.54,642.22l-.14.16c.28-.1.51-.17.69-.22Z" transform="translate(-897.16 -560.37)"/><path class="cls-1" d="M943.09,642.16l.54-.06C943.61,642.05,943.56,642,943.09,642.16Z" transform="translate(-897.16 -560.37)"/><path class="cls-1" d="M944.78,642l-1.15.13C943.65,642.18,943.55,642.33,944.78,642Z" transform="translate(-897.16 -560.37)"/><path class="cls-1" d="M943.55,638.76l-.86.28,4.07-14.18-.39-.6a2.18,2.18,0,0,0,.29.48l-4.12,14.35Z" transform="translate(-897.16 -560.37)"/><path class="cls-1" d="M950.7,623a17.11,17.11,0,0,1-2.57-.65c-1-.21-2.1-.11-2.45.8l.69,1.11c-.47-1.18.9-1,2.12-.61S950.74,624.46,950.7,623Z" transform="translate(-897.16 -560.37)"/><path class="cls-1" d="M955.94,639.44a3.29,3.29,0,0,0,.38-.62l0,0c-.22.45-.21.38-.19.35S956.2,639.09,955.94,639.44Z" transform="translate(-897.16 -560.37)"/><path class="cls-1" d="M955.65,639.86c-.12.07,0,0,0,0S955.82,639.74,955.65,639.86Z" transform="translate(-897.16 -560.37)"/><path class="cls-1" d="M956.68,637.3l0,0Z" transform="translate(-897.16 -560.37)"/><path class="cls-1" d="M955.5,623.23a19.22,19.22,0,0,0-1.5-2.33q.07,1.9.27,3.78A15.68,15.68,0,0,1,955.5,623.23Z" transform="translate(-897.16 -560.37)"/><path class="cls-1" d="M957.45,639.74v-.06a1.93,1.93,0,0,1-.05.2Z" transform="translate(-897.16 -560.37)"/><path class="cls-1" d="M964.82,652l-2.48-4.38C962.63,648.48,965.37,653.44,964.82,652Z" transform="translate(-897.16 -560.37)"/><path class="cls-1" d="M965.27,641.7a4.24,4.24,0,0,1-.22.41A3.5,3.5,0,0,0,965.27,641.7Z" transform="translate(-897.16 -560.37)"/><path class="cls-1" d="M962.75,643.25l.1-.14-.19.27Z" transform="translate(-897.16 -560.37)"/><path class="cls-1" d="M898.94,711.08a.16.16,0,0,0,.24-.19l-.33-.15Z" transform="translate(-897.16 -560.37)"/><path class="cls-1" d="M899.51,709.61c-.16-.25-.46-.53-.75-.36.32.24.19.31.58.57,0,.21-.1.37-.22.34.09.08-.06.34.15.45a.81.81,0,0,0,0-1C899.36,709.52,899.45,709.59,899.51,709.61Z" transform="translate(-897.16 -560.37)"/><path class="cls-1" d="M899.49,688.6l0,.13A.4.4,0,0,0,899.49,688.6Z" transform="translate(-897.16 -560.37)"/><path class="cls-1" d="M899.47,675.59c0,.09,0,.14.07.14S899.49,675.56,899.47,675.59Z" transform="translate(-897.16 -560.37)"/><path class="cls-1" d="M899.8,673.36l0,.13S899.83,673.39,899.8,673.36Z" transform="translate(-897.16 -560.37)"/><path class="cls-1" d="M899.49,688.6l.1-.35C899.48,688.23,899.51,688.43,899.49,688.6Z" transform="translate(-897.16 -560.37)"/><path class="cls-1" d="M898.63,706.74a.51.51,0,0,0,.09.18l0-.17Z" transform="translate(-897.16 -560.37)"/><path class="cls-1" d="M899.88,694.33v.1l.14.09Z" transform="translate(-897.16 -560.37)"/><path class="cls-1" d="M900,698.73c0-.1-.28-.13-.4-.17a.35.35,0,0,1,.2.22A.71.71,0,0,0,900,698.73Z" transform="translate(-897.16 -560.37)"/><path class="cls-1" d="M899.74,705.72l0,.12Z" transform="translate(-897.16 -560.37)"/><path class="cls-1" d="M899.87,691.18l.1,0A.14.14,0,0,0,899.87,691.18Z" transform="translate(-897.16 -560.37)"/><path class="cls-1" d="M899.81,568h.05S899.82,568,899.81,568Z" transform="translate(-897.16 -560.37)"/><path class="cls-1" d="M901.48,563v.07l.16,0Z" transform="translate(-897.16 -560.37)"/><path class="cls-1" d="M900.13,669.29v0C900.16,669.42,900.15,669.36,900.13,669.29Z" transform="translate(-897.16 -560.37)"/><path class="cls-1" d="M900.07,632c-.26.42-.31-.69-.6-.06C899.58,631.87,899.9,632.51,900.07,632Z" transform="translate(-897.16 -560.37)"/><path class="cls-1" d="M898.66,706.62c0-.06,0-.12,0-.18A.82.82,0,0,0,898.66,706.62Z" transform="translate(-897.16 -560.37)"/><path class="cls-1" d="M899.47,631.92h0l0,.07Z" transform="translate(-897.16 -560.37)"/><path class="cls-1" d="M899.92,659.93a.29.29,0,0,0-.12.1S899.86,660,899.92,659.93Z" transform="translate(-897.16 -560.37)"/><path class="cls-1" d="M899.55,666.91l0-.17A.55.55,0,0,0,899.55,666.91Z" transform="translate(-897.16 -560.37)"/><path class="cls-1" d="M899.52,656.31c0-.1.06-.13,0-.26l0,0A.2.2,0,0,1,899.52,656.31Z" transform="translate(-897.16 -560.37)"/><path class="cls-1" d="M899.52,652.54l0,.07v.12Z" transform="translate(-897.16 -560.37)"/><path class="cls-1" d="M899.36,579.47a.83.83,0,0,1,.26-.17C899.42,579.35,899.38,578.8,899.36,579.47Z" transform="translate(-897.16 -560.37)"/><path class="cls-1" d="M898.78,706.73a.15.15,0,0,1-.12-.11l0,.13S898.76,706.76,898.78,706.73Z" transform="translate(-897.16 -560.37)"/><path class="cls-1" d="M897.3,656.15l0-.6A3.7,3.7,0,0,0,897.3,656.15Z" transform="translate(-897.16 -560.37)"/><path class="cls-1" d="M898.34,606.53l0-.13A.14.14,0,0,0,898.34,606.53Z" transform="translate(-897.16 -560.37)"/><path class="cls-1" d="M897.3,653.77a.89.89,0,0,0,.2-.33.16.16,0,0,0-.07-.07Z" transform="translate(-897.16 -560.37)"/><path class="cls-1" d="M899.63,579.3h0Z" transform="translate(-897.16 -560.37)"/><path class="cls-1" d="M899.15,575.32c0,.58.35.29.56.42.07.69-.29.3-.49.53.08.43.4.77.37,1.09-.06,0-.09.08-.16,0,.27.47,0,1.34.29,1.88a.14.14,0,0,1-.09.06.93.93,0,0,1,.51,0c0,.25.21.48,0,.57,0-.16-.08-.18-.15-.25l.09.27c-.36.22-.1-.37-.36-.38a4.53,4.53,0,0,1,.23,1.54c-.35.07-.07-.94-.4-.42l.16-.61c-.56.45.06-.38-.54,0-.14.81.13.92,0,1.73.18.19.28-.05.47.15.28,1.17-.9.87-.48,1.74.21.23.64.33.39.93l-.38-.22c-.07.78.53.47.24,1.29-.14-.16-.1-.63-.15-.51-.33.52.2.39.18.8l-.34.07c0,.84.22,1.78.24,2.71-.1-.05-.2-.22-.31,0a12.3,12.3,0,0,1-.39,3.63l.28.45c0,.1-.14.18-.2.07-.12.43.19,0,.3.24s-.18.33-.27.17a5.55,5.55,0,0,1,.11,3l-.08-.17c-.14.64.57.75.28,1.33l0-.12c-.18,1.39,0,2.93-.44,4,.41.21-.24,1.36.35,1.47a5.23,5.23,0,0,0-.65,1.67c0,.29.36.45.41.82h-.31l.3.51-.37.26.07.35c0-.14.14-.29.23-.27a1.54,1.54,0,0,1-.41,1.32l.22,1.29c-.13,0-.16-.25-.24-.42.3.69-.32.11-.06.74.08-.08.19.06.25.07a2.79,2.79,0,0,0-.15,1.54l-.21-.1c-.08.94,0,2,0,3.06.11-.38.48-.28.51,0l-.33.12c.19.21.13-.32.36.1,0,.39-.37.26-.47,0l.1.49c-.1,0-.15-.09-.27-.12.2.2-.35.83,0,1.12l-.09,0c0,1.06.06,1.54.06,2.41.28,0,.21.36.43.63a10.75,10.75,0,0,0-.33,2.1c.13.54.23.16.39.41-.25,0-.25.8-.42.4a13.28,13.28,0,0,0,.21,2.34c.11-.12.16-.26.24-.19,0,.22-.12.48-.24.45l0-.06c.35,1.32-.81,3-.3,4.06l0-.06L898,629c0,.5-.19-.3-.35.07.41,1.17-.09,1.84.18,2.8-.77.73,0,2.64-.49,3.63l.18,0c.17.26-.1.31-.15.5.14,0,.17-.28.26-.12a43.4,43.4,0,0,1-.49,6.78c-.06.82.92.47.48,1.51l-.33-.3c.38,1.66,0,3.39.29,5-.07-.1-.17-.1-.17-.26-.24.35,0,1.27.18,1.28,0,.25-.18.06-.28.21-.14.35.31.87.07,1.05,0,0-.08-.1-.1-.16.12.23,0,1,.25.83-.14.61.11,1.17,0,1.66.31.31-.15,1,.28,1.14-.45,0-.37,1.07-.15,1.46-.14-.13-.14.33-.33.18,0,.44.09.84.32.77-.54.81.44,1.63-.25,2.08.24,1.31.41,2.52.52,3.7-.45,0,0-1.3-.52-1.25a9.56,9.56,0,0,1,.47,2.86c-.06.29-.2-.16-.27-.25.18,1.11,0,2.15.22,3.14,0,0-.09-.11-.12-.21,0,.2-.07.46.14.43l-.06-.19c.3-.31.63.78.79.81-.59-.33-.14,1-.89.46,0,.13.14.29.27.26,0,.19-.11.25-.27.06.12.7.33.45.33,1.08-.1,0-.14-.13-.25-.19A1.6,1.6,0,0,1,898,671c-.06,0-.14,0-.14-.13,0,.93.53,1.57.35,2.58-.43-.29-.14.35-.51.4l.12.54.17-.22c0,.48.28.9.16,1.31l-.15-.35.08.89.13-.51c.2.48.47-.06.38.58,0-.13,0,.47-.22.72h0a1.09,1.09,0,0,1,.17.83c-.12.09-.42-.07-.5,0,.32.23.1,1.12.44,1.4a.32.32,0,0,0-.31-.06l.25.19c-.08.22-.11.25-.27.22,0,.66.47-.22.28.57,0-.06-.06,0-.1-.16-.1.79.18,1.53.06,2.25-.37.22-.1-.63-.41-.38a23.67,23.67,0,0,1,.41,3.18l0-.19c.53.13-.25.75,0,1.26,0-.12-.3-.16-.24-.12a9.86,9.86,0,0,0,.35,2.46l-.14-.13a12.52,12.52,0,0,0-.1,1.52c.13.13.12.38.31.23-.75,1.37.46,2.58-.15,3.81,0-.15-.13-.35-.13-.23l.16,1c.23-.09.13-.14.31-.36a1,1,0,0,1,.26.67c-.17-.46-.37,0-.5.21.07,0,.15,0,.22,0-.39.54.47.07.21.81l-.12,0a2.54,2.54,0,0,1,.21.82c-.27.13-.13-.29-.35-.31,0,.42.52.81.26,1.2-.07-.18-.08-.43-.16-.61a1.13,1.13,0,0,0-.27.77v0l-.12.71.08-.18c.71.5.15,1,.62,1.74-.44-.67-.25-.1-.55-.15-.08.18-.17.46-.26.38.26.33-.18.56.19,1-.09,0,0,.35-.24.29.08.43.16-.11.29-.08.34.66-.36,1.58.12,2.52.22.82.55,1,.74,1.72-.15.26-.37-.2-.37-.2a1.72,1.72,0,0,0,0,1.12c-.08-.08-.15,0-.26.13,0,.31.36.2.23.62a1.35,1.35,0,0,1-.4-.31c.1.37.29.73.39,1.11-.16.11-.26-.22-.38-.35.09.43.19,1.11.46,1.24l.09-.28c0,.15-.23.09-.28,0a.35.35,0,0,1,.18-.56l.07.27c.56-.3-.13-1.09-.11-1.64l.42.21-.36-.55c.1-.12.33-.21.4.06.2-.4-.16-.35.06-.69,0,0,.06,0,.08,0l-.14-.38c.09.07.29-.08.24.16.22-.7-.35-1.1,0-1.37l0,0c-.17-.95-.31-.08-.69-.79l.74-.51-.31-.08c0-.1,0-.3.15-.26-.22-.37-.13.06-.34-.15.26-.48-.16-1.31.32-1.43-.24-.16-.17.46-.34,0,.52-.16-.1-.59.12-1,.28.13.14.54.37.1-.46-.25.08-.85,0-1.21-.37,0-.17-.8-.31-1.41a9.87,9.87,0,0,0,.29-1.74h.06c-.37-.1-.32-.69-.4-1.12.22,0,.31.09.41.32v-.41a.64.64,0,0,1-.23-.48l.27.1a5,5,0,0,1-.18-1.78c-.26,0-.7.57-.89-.16.14,0,.38-.06.44.13,0-.06-.12-.22-.07-.35l.24.29c.1-.32-.19-.16-.18-.41.2,0,.14-.19.3-.16s-.08.22,0,.32a1.24,1.24,0,0,1,.29-.75.23.23,0,0,1-.3-.21c0-.53.23-.19.33-.5-.14-.13,0-.48-.3-.48,0-.16.14-.19.22-.25-.14-.28-.07-1.3-.37-1l0,.07,0-.05h0c-.31-.9.13-1.9,0-2.8h.1a6.9,6.9,0,0,0-.31-1.59c0-.16.17-.38.29-.31a1.6,1.6,0,0,1,0-1.06c.18.41.15-.15.13.42.08-.53.24-.66,0-1.23.25.19.31-.41.23-.67l-.17.38a4.19,4.19,0,0,1,0-.79l.34.13c.39-1.1-.72-2,0-2.82-.24-.29-.16.6-.43.35,0-.51.51-1,.51-1.2.17-.7-.5-.64-.38-1.37-.12.09-.44.18-.55-.36s.48-.62.58-.31c0,.13,0,.18-.06.18,0,.16.1.38.22.18l-.12-.07c.12-.25.1-1,.3-.79-.12-.38-.2-.16-.26.13a15.81,15.81,0,0,0,.1-1.69c-.06.11-.2.21-.2.1.14-1-.23-.43-.29-1.09.18-.38.44.13.28-.54.12-.41.32-.09.41.07-.23-.6.14-1.14.18-1.48l.1.32a1.6,1.6,0,0,1-.06-.51l-.23.18c0-.19,0-.35.14-.34-.16-.2-.4.15-.61-.23.12-.26-.14-.77.18-.86-.1.79.31-.09.37.58a.93.93,0,0,1,0-.47s.06,0,.08.07c.28-.75-.36-.34-.35-1.13.17.1.33-.18.29-.31,0,.32-.29.16-.43-.13.13-.51-.11-.55-.09-.81l-.07.3c-.17-.1-.15-.35-.21-.7.14,0,.1.31.16.19-.32-.39.31-.88.1-1.42.12-.25.33,0,.41-.25-.23-.61.24-.66,0-1.3-.24.19-.18.22-.41-.23l.17,1-.35-.67c0,.32.15.67.11.86-.2-.32-.14-.29-.33-.14.35-.43-.21-.86,0-1.36h.59c.26-.75-.31-1.33-.16-2.31l-.1.31c-.24-.13,0-.6-.13-.92.19,0,.26-.17.39-.3-.15,0,0-.72-.39-.81l.26-.44c.11-.79-.56-.9-.49-1.66.21.23.35-.11.5.39,0-.25,0-.48-.1-.48.13-.15-.26-.7-.08-.94-.08-.1-.29-.14-.27-.42a.07.07,0,0,1,.09,0c-.09,0-.13-.45-.35-.2.62-.78,0-2.18.5-2.86-.07-.56-.13-1.22-.14-1.73.06,0,.1,0,.08.1.18-.69-.57-.43-.36-1.22.32-.4.17.42.29.17.65-.1-.08-.95.3-1.48l0,.13c.22-.41-.25-1-.2-1.65a.11.11,0,0,0,.1,0,4.92,4.92,0,0,1-.52-1.95c.25.2.13.29.39.17,0-.29-.41.08-.48-.49.14-.19.27-.6.54-.65v.54c.36-.27,0-.7.06-1l.16,0c0-.83-.44-.84-.4-1.73l-.12.09c-.39-.49.22-.4-.06-.89l.39-.14a12.42,12.42,0,0,1-.44-1.7,5.49,5.49,0,0,1,.61,1.42c0-.32,0-1.08-.22-1.25,0,.13.14.29.07.42a2.41,2.41,0,0,1-.44-1.54c.77.12.21-1.64.81-2.09-.26-1.12.16-2.22.13-3.52-.6.45,0-.38-.62-.31,0-.3,0-.42,0-.44l.38-.92c.18-.21.13.29.27.27.06-.67.27-.28.43-.71-.22.08-.31-.24-.22-.62l-.29.53c-.31-.93.53-.79.22-1.73l.19.3c-.11-.48,0-1.77-.45-2.25.07-.08.24-.19.28,0,.1-1.14-.47-2.56-.15-3.45l.15.09c0-.21-.27-.37-.12-.64.06,0,.15.09.16,0a1.49,1.49,0,0,1-.16-.85l.17.24c.22-1.11-.38-1.72-.46-2.66.44,0,.6-.87.68-1.3h.07a17.4,17.4,0,0,0-.45-3.43c.49-.73.26-2.53.56-3.72-.08.18-.34,0-.38-.25s-.28-.79.12-.74v.1c.4-.2.31-.78.34-1.23l-.53-.09c.81-1.16-.18-3.12.53-3.74-.13-.29-.11-.64-.24-.93l.29,0a12,12,0,0,0,.11-2.16l.19.2c0-.55-.79-.72-.79-1.23l.42-.14c0-1,.44-1.92.09-2.89a.22.22,0,0,1,.19.21c0-.45.36-1.74-.23-1.6.38,0,.07-1-.07-1.52l.27.09a1.62,1.62,0,0,1-.51-1.08c0-.15.23-.12.15.07.16-.48-.25-.39-.08-1l.17.22c0-.49-.06-.46-.25-.74s.1-.94.36-1a.57.57,0,0,1-.26-.64c.09,0,.15.07.17.13.22-.83-.27-1.25,0-1.82a.18.18,0,0,0,.17-.09,9.57,9.57,0,0,1-.09,1.15c.25,0,.32-.52.66-.09a3.14,3.14,0,0,1-.42-1.7.2.2,0,0,1,.09-.06l0,0a.52.52,0,0,0,0-.33,2.23,2.23,0,0,0,.1-.43c.21-.05.14-.6.16-.87-.28,0-.22-.34-.47,0,0,0,0,0,0,.23s0,.09,0,.11l0,0V588a.63.63,0,0,1-.08-.73l-.44-.39c.41-.35.65-1.05.9-1.13-.12-.82,0-1.92-.53-2.46,0-.23.17-.26.25-.34,0,.14,0,.29.11.37-.12-.47,0-1.37-.36-1.5.19-.58.32.34.3-.46l.11.11c.66-1.54-.82-2.6,0-4.31-.06.11-.08.17-.14.2.43-2-.12-4.12.51-6.06.14-.55-.09-.63-.25-1l.31-.1-.32-.6c-.21-.84.82-1.39.4-2.47l-.21.13c0-.38-.06-1.2.17-1.12,0,0-.2-.14-.09-.28h.16l-.22-.94c.15-.71.62.15.71-.9,0-.39-.4-1.13-.52-1s-.12.4-.27.4l-.07-.36c-.46-.09-.92-.39-1.29.46l.25.63-.24.18,0-.51c-.23.28-.05.47.06.68a.47.47,0,0,0-.26.24l.41.63c-.18.06-.34-.29-.47.1.2.29.43-.24.54.23-.23.28-.4.18-.24.53-.12,0-.19,0-.24-.17.13.31,0,.81.26,1-.28.29,0,1-.43,1a1.72,1.72,0,0,1,.32.84c-.5-.54-.09,1-.64.87.45.41.13,1.38.36,2.06,0,0-.11-.12-.08-.17a2.25,2.25,0,0,1-.31.71c.39.07.45.66.67,1-.4.44-.44-.31-.81-.18.32,0,.27.82.55.67-.25.34-.13.3-.47.47.49.08.07.33.36.64-.27.49-.47.1-.35.67C899.3,575.83,899.15,575.32,899.15,575.32Zm.24,13.38h0v0Zm0,1.12a3.58,3.58,0,0,0,0-.49c.1,0,.2,0,.19.13C899.5,589.39,899.43,589.66,899.34,589.82Zm2-2.29c0,.18,0,.24-.08.26s0-.18,0-.31l0,0A.37.37,0,0,1,901.39,587.53Z" transform="translate(-897.16 -560.37)"/><path class="cls-1" d="M901,587.2a.19.19,0,0,1,0-.08l-.07.11.09.06Z" transform="translate(-897.16 -560.37)"/><path class="cls-1" d="M899.45,688.76v0a.1.1,0,0,1,0,0Z" transform="translate(-897.16 -560.37)"/><polygon class="cls-1" points="1.09 44.91 1.16 44.91 1.1 44.81 1.09 44.91"/><path class="cls-1" d="M898.61,695a.17.17,0,0,0-.07.09A.25.25,0,0,0,898.61,695Z" transform="translate(-897.16 -560.37)"/><path class="cls-1" d="M898.61,697.62l-.09.38A1.44,1.44,0,0,0,898.61,697.62Z" transform="translate(-897.16 -560.37)"/><path class="cls-1" d="M898.53,699.68l.12,0h0Z" transform="translate(-897.16 -560.37)"/><path class="cls-1" d="M897.67,667.06l0-.08C897.6,666.8,897.62,666.92,897.67,667.06Z" transform="translate(-897.16 -560.37)"/><path class="cls-1" d="M898.41,676.76a1.69,1.69,0,0,1-.13-.31C898.26,676.63,898.25,676.76,898.41,676.76Z" transform="translate(-897.16 -560.37)"/><polygon class="cls-1" points="0.14 95.84 0.14 95.85 0.14 95.78 0.14 95.84"/><path class="cls-1" d="M898.28,676a.69.69,0,0,0,0,.45A1.36,1.36,0,0,0,898.28,676Z" transform="translate(-897.16 -560.37)"/><path class="cls-1" d="M898.66,708.57v.1h0Z" transform="translate(-897.16 -560.37)"/><path class="cls-1" d="M898.69,708.68l0,.11S898.72,708.69,898.69,708.68Z" transform="translate(-897.16 -560.37)"/><path class="cls-1" d="M898.81,709l-.08-.23C898.73,708.87,898.73,709,898.81,709Z" transform="translate(-897.16 -560.37)"/><path class="cls-1" d="M898.7,705.85l-.1,0A.15.15,0,0,0,898.7,705.85Z" transform="translate(-897.16 -560.37)"/><path class="cls-1" d="M898.65,705c0,.19-.2.5-.13.77l.08,0C898.45,705.7,898.83,705.21,898.65,705Z" transform="translate(-897.16 -560.37)"/><path class="cls-1" d="M899.81,701.55l-.07.69c.11-.12.25-.29.29,0C900.32,701.39,899.79,702.45,899.81,701.55Z" transform="translate(-897.16 -560.37)"/><path class="cls-1" d="M899.91,699.4c.06.37.16,0,.22,0C900,699.18,900,699.12,899.91,699.4Z" transform="translate(-897.16 -560.37)"/><path class="cls-1" d="M899.58,683.92l.25,0C899.79,683.67,899.74,684,899.58,683.92Z" transform="translate(-897.16 -560.37)"/><polygon class="cls-1" points="1.05 120.61 0.9 120.89 1.14 121.02 1.05 120.61"/><polygon class="cls-1" points="2.85 118.83 2.89 118.95 2.79 118.48 2.85 118.83"/><path class="cls-1" d="M899.77,653.21l-.32.08C899.51,653.49,899.86,653.53,899.77,653.21Z" transform="translate(-897.16 -560.37)"/><path class="cls-1" d="M899.51,642a.48.48,0,0,0,.11-.63C899.6,641.6,899.47,641.85,899.51,642Z" transform="translate(-897.16 -560.37)"/><polygon class="cls-1" points="3.52 47.96 3.62 48.19 3.54 47.76 3.52 47.96"/><path class="cls-1" d="M1036.12,566.37a.15.15,0,0,0-.15-.25l-.16.32Z" transform="translate(-897.16 -560.37)"/><path class="cls-1" d="M1034.84,565.69c-.24.15-.52.42-.39.73.25-.31.29-.17.56-.54.2,0,.34.13.3.25.07-.08.3.09.41-.12a.68.68,0,0,0-.91-.1C1034.74,565.84,1034.82,565.75,1034.84,565.69Z" transform="translate(-897.16 -560.37)"/><path class="cls-1" d="M1015.73,564.2l.12,0Z" transform="translate(-897.16 -560.37)"/><path class="cls-1" d="M1003.88,563.41c.09,0,.13,0,.14-.06S1003.86,563.38,1003.88,563.41Z" transform="translate(-897.16 -560.37)"/><path class="cls-1" d="M1001.87,562.94l.12,0S1001.9,562.92,1001.87,562.94Z" transform="translate(-897.16 -560.37)"/><path class="cls-1" d="M1015.73,564.2l-.31-.12C1015.39,564.19,1015.57,564.17,1015.73,564.2Z" transform="translate(-897.16 -560.37)"/><path class="cls-1" d="M1032.16,566.36l.17-.08-.16,0Z" transform="translate(-897.16 -560.37)"/><path class="cls-1" d="M1021,564.2h.09a.73.73,0,0,0,.09-.13Z" transform="translate(-897.16 -560.37)"/><path class="cls-1" d="M1025,564.35c-.09,0-.14.26-.18.39a.32.32,0,0,1,.21-.19A.4.4,0,0,0,1025,564.35Z" transform="translate(-897.16 -560.37)"/><path class="cls-1" d="M1031.32,565.17l.11,0Z" transform="translate(-897.16 -560.37)"/><path class="cls-1" d="M1018.1,564a.62.62,0,0,0,0-.1A.19.19,0,0,0,1018.1,564Z" transform="translate(-897.16 -560.37)"/><path class="cls-1" d="M906.25,566.58s0,0,0-.05S906.22,566.59,906.25,566.58Z" transform="translate(-897.16 -560.37)"/><path class="cls-1" d="M901.43,566.16l.06,0a.76.76,0,0,0,0-.16Z" transform="translate(-897.16 -560.37)"/><path class="cls-1" d="M998.19,562.4h0C998.3,562.37,998.25,562.38,998.19,562.4Z" transform="translate(-897.16 -560.37)"/><path class="cls-1" d="M964.14,561c.38.27-.64.3-.06.6C964,561.45,964.62,561.15,964.14,561Z" transform="translate(-897.16 -560.37)"/><path class="cls-1" d="M1032.05,566.31h-.16A.42.42,0,0,0,1032.05,566.31Z" transform="translate(-897.16 -560.37)"/><path class="cls-1" d="M964.08,561.56h0l0,0Z" transform="translate(-897.16 -560.37)"/><path class="cls-1" d="M989.64,562.13a.36.36,0,0,0,.08.12S989.7,562.19,989.64,562.13Z" transform="translate(-897.16 -560.37)"/><path class="cls-1" d="M996,562.85l-.15,0A.34.34,0,0,0,996,562.85Z" transform="translate(-897.16 -560.37)"/><path class="cls-1" d="M986.32,562.35c-.08,0-.11-.06-.23,0l0,0S986.22,562.31,986.32,562.35Z" transform="translate(-897.16 -560.37)"/><path class="cls-1" d="M982.88,562.18l.06.06h.11Z" transform="translate(-897.16 -560.37)"/><path class="cls-1" d="M916.48,564.79a.67.67,0,0,1-.19-.23C916.36,564.75,915.88,564.9,916.48,564.79Z" transform="translate(-897.16 -560.37)"/><path class="cls-1" d="M1032.16,566.2c0,.07-.05.1-.11.11h.12S1032.19,566.22,1032.16,566.2Z" transform="translate(-897.16 -560.37)"/><path class="cls-1" d="M986.07,564.56l-.55-.07A2.84,2.84,0,0,0,986.07,564.56Z" transform="translate(-897.16 -560.37)"/><path class="cls-1" d="M941,563l-.13,0A.18.18,0,0,0,941,563Z" transform="translate(-897.16 -560.37)"/><path class="cls-1" d="M983.9,564.45a.75.75,0,0,0-.3-.21s-.05,0-.06.07Z" transform="translate(-897.16 -560.37)"/><path class="cls-1" d="M916.29,564.56Z" transform="translate(-897.16 -560.37)"/><path class="cls-1" d="M912.84,565.73c.51-.06.19-.39.26-.62.6-.19.33.23.56.39.37-.15.61-.53.9-.56,0,.06.09.07,0,.16.37-.35,1.2-.19,1.62-.62l.08.08a.92.92,0,0,1-.14-.49c.23,0,.39-.3.51-.07-.14,0-.14.11-.2.2l.23-.14c.26.32-.31.16-.28.42.46-.18,1-.52,1.35-.47.11.33-.84.22-.31.46l-.58-.06c.49.48-.34,0,.12.52.75,0,.8-.27,1.55-.25.14-.21-.09-.27.05-.48,1-.46.92.75,1.63.21.18-.24.21-.68.78-.52l-.15.41c.72,0,.35-.61,1.13-.42-.12.16-.55.18-.44.22.52.25.32-.25.69-.29l.11.33c.76-.12,1.57-.44,2.41-.58,0,.11-.17.23,0,.31a9,9,0,0,1,3.31,0l.37-.32c.09,0,.18.12.08.18.41.09,0-.18.19-.31s.32.15.18.25a4.64,4.64,0,0,1,2.74-.41l-.14.1c.58.08.62-.64,1.17-.39l-.1.06c1.27.07,2.65-.26,3.63.13.17-.43,1.25.14,1.32-.44a4.63,4.63,0,0,0,1.54.55c.27,0,.4-.38.73-.45l0,.31.44-.34.25.37.31-.09c-.12,0-.26-.13-.25-.22a1.29,1.29,0,0,1,1.22.34l1.16-.28c0,.13-.22.17-.38.25.62-.32.12.33.69,0-.08-.07,0-.18.05-.24a2.36,2.36,0,0,0,1.4.09l-.09.22c.86,0,1.82-.13,2.78-.12a.25.25,0,0,1,0-.5l.11.32c.19-.2-.29-.12.08-.37.36,0,.25.37,0,.48l.44-.11c0,.1-.08.15-.11.27.18-.2.76.33,1,0l0,.1c1,0,1.41-.1,2.2-.11,0-.28.32-.22.56-.45a10.68,10.68,0,0,0,1.92.32c.49-.13.14-.24.37-.4,0,.26.72.25.36.42a10.39,10.39,0,0,0,2.13-.22c-.11-.1-.24-.15-.17-.24s.44.12.41.24l0,0c1.19-.36,2.72.82,3.68.31l-.05,0,1-.25c.45,0-.28.18,0,.35,1.07-.4,1.67.11,2.55-.14.65.78,2.4,0,3.29.56l0-.18c.24-.17.28.11.45.16,0-.14-.25-.17-.1-.27a34.2,34.2,0,0,1,6.15.7c.74.08.46-.9,1.39-.43l-.29.32c1.53-.32,3.09.16,4.59-.1-.09.07-.1.17-.25.16.3.26,1.16.07,1.17-.12.23,0,0,.18.19.28.3.16.8-.26,1,0,0,0-.09.08-.15.09.21-.1.95.08.77-.21.55.16,1.07-.06,1.5.12.31-.29.95.2,1.06-.23-.06.45,1,.41,1.32.22-.13.13.3.15.15.34.4,0,.77-.06.71-.29.71.58,1.51-.36,1.89.35a33,33,0,0,1,3.39-.34c-.06.45-1.19,0-1.17.46a8.32,8.32,0,0,1,2.64-.33c.25.08-.16.19-.25.26,1-.13,2,.14,2.87-.06,0,0-.1.09-.2.12.18,0,.41.08.4-.12l-.17,0c-.27-.31.74-.58.78-.74-.34.58.88.2.36.91.12,0,.27-.12.25-.26.18,0,.23.14,0,.28.65-.08.43-.31,1-.27,0,.1-.13.13-.19.24a1.37,1.37,0,0,1,1.09-.24s0,.13-.13.13c.84,0,1.46-.45,2.37-.21-.3.41.3.16.33.53l.5-.08-.19-.2c.44,0,.83-.22,1.2-.08l-.33.14.81,0-.45-.17c.45-.17,0-.47.55-.34-.12,0,.43,0,.65.26h0a.89.89,0,0,1,.76-.11c.08.12-.09.41,0,.49.23-.3,1,0,1.3-.35a.36.36,0,0,0-.08.31l.19-.25c.2.1.23.14.19.29.6.08-.17-.48.54-.24-.06,0,0,.06-.16.09.72.14,1.4-.09,2.06.07.17.38-.59.06-.38.39a19.53,19.53,0,0,1,2.92-.22l-.17,0c.15-.52.67.3,1.15.07-.12,0-.17.29-.13.23a8,8,0,0,0,2.26-.18l-.12.13a9.82,9.82,0,0,0,1.37.2c.13-.13.36-.09.23-.3,1.2.84,2.38-.29,3.45.41-.13,0-.32.1-.21.11l.94-.08c-.06-.23-.12-.14-.3-.33a.88.88,0,0,1,.62-.22c-.43.14,0,.38.16.51,0-.07,0-.14,0-.22.47.44.11-.46.76-.15l0,.12a2.19,2.19,0,0,1,.76-.15c.1.28-.27.12-.3.33.38,0,.77-.46,1.1-.18-.16.07-.39.06-.56.12a.92.92,0,0,0,.68.32h0l.64.18-.16-.1c.51-.67,1-.07,1.63-.5-.64.4-.11.25-.18.55.16.09.41.2.33.28.32-.23.5.22.94-.12,0,.1.32,0,.24.27.4-.06-.08-.18,0-.3.62-.3,1.4.48,2.29.07.76-.15.92-.47,1.62-.6.23.17-.21.34-.21.34a1.39,1.39,0,0,0,1,.06c-.08.08,0,.16.1.27.29,0,.21-.34.58-.18a1.18,1.18,0,0,1-.31.38c.35-.08.69-.24,1-.31.09.17-.22.25-.35.35.4-.06,1-.1,1.16-.36l-.25-.11c.15,0,.07.23,0,.28a.32.32,0,0,1-.5-.22l.25,0c-.22-.58-1,0-1.5,0l.23-.4-.53.32c-.11-.12-.17-.35.08-.4-.35-.23-.32.13-.62-.12,0,0,0,0,0-.07l-.36.11c.07-.09,0-.3.17-.23-.62-.27-1,.26-1.26-.07l.06,0c-.88.1-.1.3-.78.63l-.4-.78-.1.3c-.09,0-.27,0-.23-.17-.35.2,0,.14-.15.33-.42-.3-1.21.07-1.28-.42-.17.22.41.2-.07.33-.1-.53-.54.06-.92-.2.13-.26.5-.1.12-.36-.26.45-.77-.14-1.11-.07,0,.37-.73.12-1.3.21,0-.12-1.05-.25-1.56-.41v-.06c-.12.36-.65.26-1,.32a.41.41,0,0,1,.32-.39l-.37,0a.58.58,0,0,1-.45.2l.11-.27c-.49,0-1,.27-1.63.06-.05.25.47.74-.21.87,0-.14,0-.37.15-.42-.06,0-.21.1-.33,0l.28-.22c-.28-.12-.16.19-.39.15,0-.19-.16-.15-.12-.3s.2.09.29,0a1.1,1.1,0,0,1-.66-.34.22.22,0,0,1-.21.28c-.49,0-.15-.24-.43-.36-.13.13-.43,0-.46.27-.14,0-.16-.15-.21-.23-.26.11-1.19,0-.92.3l.06,0h0c-.85.25-1.72-.26-2.55-.17V564a5.66,5.66,0,0,0-1.46.2c-.15,0-.34-.2-.27-.31a1.33,1.33,0,0,1-1,0c.38-.15-.13-.16.39-.1-.48-.11-.59-.28-1.13,0,.2-.25-.35-.34-.59-.28l.34.2a3.46,3.46,0,0,1-.73,0l.15-.33c-1-.46-1.85.6-2.57-.12-.28.22.53.19.28.45-.46-.07-.91-.57-1.06-.58-.62-.21-.61.46-1.27.3.08.12.14.44-.35.53-.46-.07-.55-.53-.25-.61.11,0,.16,0,.16.08s.34-.08.17-.22l-.07.12c-.22-.13-.86-.15-.7-.34-.35.1-.16.19.1.26a14.85,14.85,0,0,0-1.53-.2c.1.07.18.22.08.21-.89-.19-.4.21-1,.23-.34-.2.14-.43-.47-.31-.37-.14-.07-.32.09-.41-.57.2-1-.2-1.35-.26l.3-.08a1.28,1.28,0,0,1-.47,0l.16.25c-.17,0-.32-.06-.31-.16-.19.15.11.4-.25.6-.22-.14-.7.09-.76-.23.71.15-.07-.32.54-.34a.73.73,0,0,1-.43,0s0-.06.08-.07c-.68-.32-.34.33-1.05.29.1-.17-.15-.34-.27-.31.29,0,.12.3-.15.42-.45-.16-.5.08-.74.05l.27.08c-.1.17-.33.14-.65.18,0-.14.29-.08.18-.15-.37.29-.78-.36-1.29-.18-.22-.13,0-.33-.2-.42-.56.2-.59-.28-1.18-.12.16.25.19.19-.23.4l1-.11-.63.31c.29,0,.62-.12.79-.07-.3.18-.27.12-.14.33-.38-.38-.79.17-1.24-.1l0-.59c-.67-.3-1.23.24-2.12.05l.29.12c-.14.22-.56,0-.85.08,0-.2-.14-.28-.26-.41,0,.15-.65,0-.75.35l-.39-.28c-.71-.15-.85.52-1.53.41.21-.2-.09-.35.38-.48-.23,0-.44-.06-.45.07-.13-.13-.65.23-.86,0-.1.08-.14.28-.4.25,0,0,0-.09,0-.09s-.42.11-.2.34c-.68-.65-2-.06-2.59-.62-.5,0-1.12.07-1.57.07,0-.06,0-.1.09-.08-.62-.21-.42.55-1.13.31-.35-.34.39-.16.17-.29-.07-.65-.87,0-1.34-.36l.12,0c-.36-.24-.91.2-1.51.12a.09.09,0,0,0,0-.09,4.12,4.12,0,0,1-1.8.44c.19-.24.27-.12.17-.38-.26,0,.06.42-.46.46-.17-.14-.54-.28-.57-.56h.49c-.24-.37-.64,0-.89-.1l0-.15c-.76,0-.79.41-1.59.34l.07.12c-.46.37-.36-.24-.81,0l-.12-.4a8.81,8.81,0,0,1-1.56.39,4.93,4.93,0,0,1,1.31-.56c-.28,0-1,0-1.14.18.12,0,.27-.13.38-.06a2,2,0,0,1-1.41.39c.13-.76-1.5-.26-1.89-.87-1,.24-2-.2-3.21-.2.4.62-.35,0-.3.62-.28,0-.38,0-.4,0l-.83-.4c-.19-.19.27-.13.25-.26-.61-.07-.25-.27-.64-.45.07.22-.22.3-.57.21l.48.3c-.86.3-.72-.54-1.58-.24l.27-.18c-.44.1-1.61,0-2.06.42-.07-.07-.17-.24,0-.28-1-.1-2.34.46-3.15.14l.08-.14c-.19,0-.34.27-.59.11,0-.06.09-.14,0-.15a1.26,1.26,0,0,1-.78.16l.23-.17c-1-.21-1.58.38-2.44.47,0-.44-.79-.6-1.19-.67v-.06a13.93,13.93,0,0,0-3.13.52c-.69-.49-2.32-.2-3.43-.46.17.08,0,.35-.22.39s-.71.31-.67-.09h.09c-.2-.4-.73-.29-1.14-.29L943,561c-1.09-.77-2.83.34-3.44-.34-.26.14-.58.15-.84.29v-.29a8.89,8.89,0,0,0-2,0l.18-.21c-.51,0-.61.84-1.08.88l-.15-.42c-.88.05-1.8-.28-2.65.14a.21.21,0,0,1,.17-.21c-.41,0-1.62-.21-1.44.36,0-.38-.91,0-1.38.22l.06-.28c-.38.38-.38.48-.94.61-.13,0-.13-.21.05-.15-.45-.12-.33.28-.87.17l.19-.19c-.46,0-.42.1-.65.32s-.87,0-1-.25a.53.53,0,0,1-.56.32c0-.09,0-.16.1-.19-.78-.13-1.1.42-1.65.19,0-.09,0-.13-.1-.15a8.73,8.73,0,0,1,1-.06c0-.25-.51-.25-.15-.64-.38.23-1,.71-1.5.63a.27.27,0,0,1-.07-.08l0,0a.47.47,0,0,0-.29.07,1.46,1.46,0,0,0-.41,0c-.07-.21-.57-.06-.81,0,0,.28-.28.26,0,.46,0,0,0,0,.21-.06l.1,0,0,0,.61-.08a.56.56,0,0,1-.66.17,4,4,0,0,1-.29.48c-.37-.36-1-.51-1.15-.74-.73.22-1.74.3-2.15.87-.2.1-.25-.12-.34-.19.11-.07.26-.08.32-.16-.41.18-1.25.2-1.3.57-.55-.1.25-.37-.47-.22l.09-.13c-1.52-.43-2.21,1.23-3.89.71.11,0,.17,0,.2.1a12.45,12.45,0,0,0-2.77.36,8.05,8.05,0,0,1-2.76.3c-.52,0-.54.23-.81.46l-.16-.28-.47.43c-.7.38-1.43-.49-2.27.18l.16.18c-.35,0-1,.34-1,.1,0,0-.07.23-.22.15l0-.15-.77.43c-.67,0,0-.63-1-.47-.34.14-.89.66-.74.74s.38,0,.43.17l-.3.15c0,.46-.1,1,.75,1.13l.48-.39.22.19-.45.11c.3.15.42-.07.58-.23a.44.44,0,0,0,.28.2l.43-.55c.11.17-.16.4.22.43.2-.26-.33-.35.06-.57.3.15.26.34.53.1.06.11,0,.19-.1.27.24-.2.71-.21.8-.48.32.2.89-.25,1,.18a1.48,1.48,0,0,1,.66-.5c-.36.6.94-.13.92.45.25-.53,1.18-.42,1.73-.78,0,0-.08.13-.14.11a1.68,1.68,0,0,1,.7.16c0-.4.48-.58.73-.87.47.3-.18.5,0,.84-.07-.31.66-.44.48-.68.35.18.29.07.5.36,0-.49.28-.12.5-.46.5.18.19.44.67.22C913.26,565.5,912.84,565.73,912.84,565.73Zm11.91-2.26h0l-.25,0Zm1-.1-.44,0c0-.09,0-.2.09-.2S925.6,563.3,925.76,563.37Zm-2.33-1.74c.16-.06.22,0,.25,0l-.28.06,0,0A.58.58,0,0,1,923.43,561.63Z" transform="translate(-897.16 -560.37)"/><path class="cls-1" d="M923.18,562l-.07,0,.1.05,0-.09Z" transform="translate(-897.16 -560.37)"/><path class="cls-1" d="M1015.87,564.25h0l0,0Z" transform="translate(-897.16 -560.37)"/><polygon class="cls-1" points="42.67 2.81 42.67 2.73 42.58 2.8 42.67 2.81"/><path class="cls-1" d="M1021.44,565.5a.13.13,0,0,0,.07.08S1021.48,565.53,1021.44,565.5Z" transform="translate(-897.16 -560.37)"/><path class="cls-1" d="M1023.87,565.69l.34.12A1.56,1.56,0,0,0,1023.87,565.69Z" transform="translate(-897.16 -560.37)"/><path class="cls-1" d="M1025.73,565.92a.19.19,0,0,0,0-.11h0Z" transform="translate(-897.16 -560.37)"/><path class="cls-1" d="M996,564.74h-.07C995.77,564.79,995.89,564.78,996,564.74Z" transform="translate(-897.16 -560.37)"/><path class="cls-1" d="M1004.89,564.53l-.29.12C1004.75,564.68,1004.87,564.69,1004.89,564.53Z" transform="translate(-897.16 -560.37)"/><polygon class="cls-1" points="88.97 4.2 88.97 4.19 88.91 4.19 88.97 4.2"/><path class="cls-1" d="M1004.18,564.62a.62.62,0,0,0,.42,0A1.18,1.18,0,0,0,1004.18,564.62Z" transform="translate(-897.16 -560.37)"/><path class="cls-1" d="M1033.82,566.47h.09s0,0,0,0Z" transform="translate(-897.16 -560.37)"/><path class="cls-1" d="M1033.92,566.44l.11,0S1033.94,566.41,1033.92,566.44Z" transform="translate(-897.16 -560.37)"/><path class="cls-1" d="M1034.24,566.35l-.21.06C1034.1,566.41,1034.19,566.43,1034.24,566.35Z" transform="translate(-897.16 -560.37)"/><path class="cls-1" d="M1031.35,566.21l0,.1A.13.13,0,0,0,1031.35,566.21Z" transform="translate(-897.16 -560.37)"/><path class="cls-1" d="M1030.6,566.2c.18,0,.44.24.69.19l0-.08C1031.2,566.46,1030.78,566,1030.6,566.2Z" transform="translate(-897.16 -560.37)"/><path class="cls-1" d="M1027.53,564.78l.63.12c-.11-.12-.25-.27,0-.28C1027.42,564.25,1028.35,564.87,1027.53,564.78Z" transform="translate(-897.16 -560.37)"/><path class="cls-1" d="M1025.59,564.53c.34,0,0-.16,0-.22C1025.39,564.4,1025.34,564.42,1025.59,564.53Z" transform="translate(-897.16 -560.37)"/><path class="cls-1" d="M1011.48,563.8l0-.25C1011.26,563.57,1011.51,563.65,1011.48,563.8Z" transform="translate(-897.16 -560.37)"/><polygon class="cls-1" points="111.55 4.61 111.8 4.78 111.93 4.55 111.55 4.61"/><polygon class="cls-1" points="110.05 2.71 110.17 2.68 109.73 2.75 110.05 2.71"/><path class="cls-1" d="M983.51,562l.06.32C983.75,562.24,983.8,561.88,983.51,562Z" transform="translate(-897.16 -560.37)"/><path class="cls-1" d="M973.26,561.78a.42.42,0,0,0-.58-.13C972.91,561.68,973.14,561.81,973.26,561.78Z" transform="translate(-897.16 -560.37)"/><polygon class="cls-1" points="45.34 0.22 45.54 0.11 45.15 0.2 45.34 0.22"/><path class="cls-1" d="M1038.05,716c.09.08.28,0,.24-.18l-.33-.15Z" transform="translate(-897.16 -560.37)"/><path class="cls-1" d="M1038.65,714.5c-.17-.25-.45-.54-.75-.37.32.25.19.31.57.58,0,.21-.1.37-.23.34.09.07-.07.34.14.45a.81.81,0,0,0,0-1C1038.5,714.41,1038.59,714.49,1038.65,714.5Z" transform="translate(-897.16 -560.37)"/><path class="cls-1" d="M1038.92,693.44l0,.14A.47.47,0,0,0,1038.92,693.44Z" transform="translate(-897.16 -560.37)"/><path class="cls-1" d="M1038.94,680.4c0,.1,0,.14.08.14S1039,680.37,1038.94,680.4Z" transform="translate(-897.16 -560.37)"/><path class="cls-1" d="M1039.28,678.16c0,.05,0,.09,0,.14S1039.31,678.2,1039.28,678.16Z" transform="translate(-897.16 -560.37)"/><path class="cls-1" d="M1038.92,693.44l.1-.35C1038.91,693.07,1038.94,693.27,1038.92,693.44Z" transform="translate(-897.16 -560.37)"/><path class="cls-1" d="M1037.81,711.61a.66.66,0,0,0,.09.19l0-.18Z" transform="translate(-897.16 -560.37)"/><path class="cls-1" d="M1039.25,699.19v.11l.14.08Z" transform="translate(-897.16 -560.37)"/><path class="cls-1" d="M1039.35,703.6c0-.1-.27-.13-.39-.16a.32.32,0,0,1,.2.21A.41.41,0,0,0,1039.35,703.6Z" transform="translate(-897.16 -560.37)"/><path class="cls-1" d="M1038.94,710.61l0,.12A.84.84,0,0,0,1038.94,710.61Z" transform="translate(-897.16 -560.37)"/><path class="cls-1" d="M1039.28,696l.1,0A.18.18,0,0,0,1039.28,696Z" transform="translate(-897.16 -560.37)"/><path class="cls-1" d="M1035.71,572.61h0S1035.71,572.58,1035.71,572.61Z" transform="translate(-897.16 -560.37)"/><path class="cls-1" d="M1037,567.48l0,.07.16,0Z" transform="translate(-897.16 -560.37)"/><path class="cls-1" d="M1039.59,674.08v0C1039.62,674.21,1039.62,674.15,1039.59,674.08Z" transform="translate(-897.16 -560.37)"/><path class="cls-1" d="M1039,636.67c-.25.42-.33-.69-.61,0C1038.45,636.56,1038.79,637.2,1039,636.67Z" transform="translate(-897.16 -560.37)"/><path class="cls-1" d="M1037.85,711.5a1.08,1.08,0,0,1,0-.18A.54.54,0,0,0,1037.85,711.5Z" transform="translate(-897.16 -560.37)"/><path class="cls-1" d="M1038.34,636.62h0l0,.07A.25.25,0,0,0,1038.34,636.62Z" transform="translate(-897.16 -560.37)"/><path class="cls-1" d="M1039.32,664.69a.41.41,0,0,0-.13.1S1039.26,664.77,1039.32,664.69Z" transform="translate(-897.16 -560.37)"/><path class="cls-1" d="M1039,671.7l0-.18A.67.67,0,0,0,1039,671.7Z" transform="translate(-897.16 -560.37)"/><path class="cls-1" d="M1038.88,661.07a.44.44,0,0,0,0-.26l0,0A.2.2,0,0,1,1038.88,661.07Z" transform="translate(-897.16 -560.37)"/><path class="cls-1" d="M1038.83,657.28l-.06.07s0,.09,0,.12Z" transform="translate(-897.16 -560.37)"/><path class="cls-1" d="M1036,584.1a.92.92,0,0,1,.25-.17C1036,584,1036,583.43,1036,584.1Z" transform="translate(-897.16 -560.37)"/><path class="cls-1" d="M1038,711.61a.17.17,0,0,1-.12-.11.5.5,0,0,0,0,.12A.11.11,0,0,0,1038,711.61Z" transform="translate(-897.16 -560.37)"/><path class="cls-1" d="M1036.66,660.94l0-.6A3.7,3.7,0,0,0,1036.66,660.94Z" transform="translate(-897.16 -560.37)"/><path class="cls-1" d="M1036.34,611.23l0-.14A.16.16,0,0,0,1036.34,611.23Z" transform="translate(-897.16 -560.37)"/><path class="cls-1" d="M1036.63,658.55a.83.83,0,0,0,.19-.34s0-.05-.07-.06Z" transform="translate(-897.16 -560.37)"/><path class="cls-1" d="M1036.23,583.93Z" transform="translate(-897.16 -560.37)"/><path class="cls-1" d="M1035.52,580c0,.57.37.26.58.38.11.68-.27.32-.46.55.11.43.45.75.44,1.07-.06,0-.08.09-.16,0,.3.44,0,1.33.41,1.86a.26.26,0,0,1-.1.07.92.92,0,0,1,.51-.09c0,.26.24.47,0,.57,0-.16-.09-.17-.17-.24l.11.27c-.35.24-.13-.37-.38-.37a4.61,4.61,0,0,1,.32,1.54c-.34.09-.13-.94-.42-.4l.12-.62c-.53.48,0-.38-.54.06-.08.82.19.92.1,1.73.19.18.28-.06.47.12.35,1.16-.84.92-.38,1.77.23.22.66.3.44.91l-.39-.2c0,.79.56.44.31,1.27-.15-.14-.14-.62-.18-.5-.3.55.22.38.23.79l-.34.09c.06.85.32,1.77.39,2.71-.1-.05-.21-.21-.31,0a12.07,12.07,0,0,1-.2,3.65l.3.43c0,.1-.13.19-.19.08-.11.45.19,0,.3.23s-.16.34-.25.18a5.66,5.66,0,0,1,.26,3.05l-.09-.16c-.11.64.61.71.34,1.31l0-.11c-.11,1.39.17,2.93-.26,4,.43.2-.17,1.38.42,1.46a5.42,5.42,0,0,0-.57,1.7c0,.3.37.44.44.81h-.31l.33.5-.37.27.09.34c0-.13.13-.29.22-.27a1.49,1.49,0,0,1-.36,1.34l.28,1.27c-.13,0-.17-.24-.25-.41.32.68-.33.13,0,.76.07-.09.18,0,.25.05a2.79,2.79,0,0,0-.09,1.55l-.22-.1c0,1,.13,2,.14,3.07.09-.38.46-.3.5,0l-.33.13c.21.2.12-.33.38.09,0,.39-.37.27-.48,0l.12.48c-.1,0-.15-.08-.28-.11.21.2-.31.84,0,1.12l-.1,0c0,1.07.13,1.55.16,2.42.28,0,.22.35.45.61a12.17,12.17,0,0,0-.26,2.12c.15.53.24.15.41.39-.26,0-.22.81-.41.42a12.47,12.47,0,0,0,.29,2.34c.1-.13.14-.27.23-.2s-.1.48-.22.45l0-.05c.4,1.3-.71,3-.17,4.07l0-.06.29,1.08c0,.5-.2-.3-.35.07.44,1.16,0,1.84.25,2.8-.74.75.09,2.64-.38,3.65l.17-.06c.18.26-.09.32-.13.51.14,0,.15-.29.25-.13a41.11,41.11,0,0,1-.34,6.8c0,.82.93.45.52,1.5l-.34-.29c.42,1.66,0,3.4.38,5-.07-.09-.17-.1-.17-.25-.24.34,0,1.27.2,1.27,0,.25-.18.06-.28.22-.14.35.32.86.08,1,0,0-.08-.1-.1-.16.12.22,0,1,.26.83-.12.61.14,1.16,0,1.65.31.32-.14,1,.3,1.15-.45,0-.35,1.07-.13,1.46-.14-.13-.14.33-.33.19,0,.44.1.84.33.76-.53.82.45,1.63-.23,2.09.25,1.31.43,2.52.55,3.7-.45,0-.06-1.31-.53-1.25a10,10,0,0,1,.5,2.87c-.06.28-.2-.16-.28-.26.2,1.11,0,2.16.24,3.15,0,0-.09-.11-.12-.21,0,.2-.06.46.14.43l-.06-.19c.3-.32.64.77.79.8-.59-.32-.13,1-.88.47,0,.13.14.29.27.26,0,.19-.11.25-.27.06.12.7.33.45.34,1.08-.1,0-.14-.13-.26-.19a1.61,1.61,0,0,1,.32,1.18c-.06,0-.14,0-.14-.13,0,.92.53,1.56.36,2.58-.44-.3-.14.34-.51.4l.12.54.17-.22c0,.48.28.9.16,1.31l-.16-.35.09.89.13-.51c.2.48.47-.06.38.58,0-.13,0,.48-.22.73h0a1.07,1.07,0,0,1,.16.83c-.12.09-.41-.07-.49,0,.31.23.1,1.11.43,1.4a.29.29,0,0,0-.31-.06l.25.19c-.07.22-.11.25-.27.22,0,.66.47-.22.28.57,0-.06-.06,0-.1-.16-.1.8.18,1.53.06,2.26-.37.22-.1-.64-.41-.39a23.77,23.77,0,0,1,.4,3.19l0-.19c.53.13-.26.75,0,1.27,0-.13-.3-.17-.24-.13A10.24,10.24,0,0,0,1038,693l-.14-.13a10.77,10.77,0,0,0-.11,1.52c.13.13.11.38.31.23-.76,1.37.45,2.6-.18,3.81,0-.14-.13-.34-.13-.22l.14,1c.23-.08.14-.13.32-.35a1.13,1.13,0,0,1,.25.67c-.16-.46-.37,0-.5.21.07,0,.15,0,.22,0-.4.54.47.08.2.82l-.12,0a2.39,2.39,0,0,1,.19.83c-.26.12-.12-.29-.34-.31,0,.42.51.82.25,1.2-.08-.18-.08-.43-.16-.61a1,1,0,0,0-.27.77v0l-.14.7.08-.18c.71.52.14,1.06.61,1.76-.44-.68-.25-.11-.56-.16-.08.18-.17.46-.26.38.25.33-.18.56.18,1-.1,0,0,.36-.25.29.08.43.17-.11.29-.07.34.66-.38,1.57.08,2.52.2.82.53,1,.71,1.73-.16.26-.36-.2-.36-.2a1.66,1.66,0,0,0,0,1.12c-.09-.08-.16,0-.27.13,0,.31.36.2.22.62a1.35,1.35,0,0,1-.4-.31c.1.37.28.73.38,1.12-.17.1-.26-.23-.38-.37.09.44.17,1.12.44,1.25l.09-.27c0,.15-.23.08-.28,0a.34.34,0,0,1,.19-.55l.06.27c.57-.29-.1-1.1-.07-1.65l.41.22-.35-.56c.11-.12.34-.21.41.07.2-.4-.16-.35.07-.7,0,0,.06,0,.07,0l-.13-.39c.09.08.3-.06.24.17.23-.69-.33-1.11,0-1.38l0,.06c-.15-1-.3-.09-.67-.81l.75-.49-.31-.09c0-.1,0-.3.15-.26-.21-.37-.13.06-.33-.15.27-.48-.14-1.32.34-1.43-.23-.17-.17.46-.34-.05.52-.15-.1-.59.14-1,.27.13.13.55.37.11-.46-.26.09-.85,0-1.22-.37,0-.17-.8-.29-1.41a10.22,10.22,0,0,0,.31-1.75l.06,0c-.37-.11-.31-.7-.39-1.13.22,0,.31.09.41.32v-.4a.68.68,0,0,1-.22-.49l.27.1a5.25,5.25,0,0,1-.16-1.78c-.26,0-.71.56-.89-.17.14,0,.38-.06.44.13,0-.06-.12-.22-.06-.35l.23.29c.1-.31-.19-.16-.17-.41.19,0,.14-.19.29-.16s-.08.22,0,.32a1.27,1.27,0,0,1,.3-.75.22.22,0,0,1-.3-.2c0-.54.24-.19.33-.51-.13-.13,0-.47-.29-.48,0-.16.14-.19.21-.25-.13-.28,0-1.31-.36-1l0,.08a.09.09,0,0,0,0,0h0c-.31-.91.14-1.91,0-2.81h.1a7.6,7.6,0,0,0-.3-1.6c0-.16.17-.38.29-.31a1.55,1.55,0,0,1,0-1.06c.17.42.15-.14.13.43.08-.54.23-.67,0-1.24.25.19.31-.41.23-.67l-.17.38a3.5,3.5,0,0,1,0-.79l.34.13c.39-1.11-.71-2-.05-2.83-.23-.29-.15.6-.43.34,0-.5.51-1,.51-1.2.18-.69-.49-.64-.38-1.37-.11.1-.43.19-.55-.35,0-.51.49-.63.59-.32,0,.13,0,.19-.06.18,0,.16.09.38.22.18l-.12-.07c.12-.25.1-.95.3-.79-.12-.38-.2-.16-.26.13.16-.66,0-1,.1-1.69-.06.1-.2.2-.2.1.13-1-.23-.43-.29-1.1.18-.38.43.13.27-.54.12-.41.32-.09.42.07-.24-.6.13-1.14.17-1.49l.1.32a1.57,1.57,0,0,1-.06-.51l-.24.19c0-.19,0-.35.14-.35-.16-.19-.39.16-.61-.23.12-.25-.14-.76.18-.86-.1.8.31-.09.37.58a.93.93,0,0,1,0-.47s.07,0,.08.07c.28-.76-.36-.34-.36-1.13.18.1.34-.18.3-.31,0,.32-.3.16-.44-.13.14-.51-.11-.55-.09-.81l-.06.3c-.18-.1-.16-.35-.22-.71.14,0,.1.32.16.2-.32-.39.31-.89.09-1.43.12-.25.34,0,.41-.25-.23-.61.24-.66,0-1.3-.23.19-.18.22-.41-.23l.18,1.05-.36-.67c0,.32.16.67.12.86-.2-.32-.14-.29-.33-.13.35-.44-.22-.86,0-1.37h.59c.26-.76-.31-1.34-.18-2.32l-.1.31c-.23-.13,0-.6-.14-.92.2,0,.27-.17.39-.31-.14,0,0-.72-.39-.8l.26-.44c.09-.8-.58-.9-.52-1.66.22.22.36-.12.52.38,0-.25,0-.48-.11-.48.12-.15-.27-.7-.09-.94-.09-.11-.29-.14-.28-.42,0,0,.1,0,.1,0s-.14-.45-.36-.2c.61-.79-.07-2.19.45-2.88-.07-.55-.14-1.22-.16-1.72.06,0,.1,0,.08.09.17-.69-.57-.42-.38-1.21.32-.41.18.42.3.17.65-.12-.1-1,.27-1.49l0,.12c.22-.41-.26-1-.22-1.65a.11.11,0,0,0,.1,0,4.89,4.89,0,0,1-.56-1.95c.26.2.14.29.4.17,0-.29-.42.09-.49-.48.13-.19.25-.61.52-.66l0,.53c.35-.28,0-.69,0-1l.16,0c-.06-.83-.45-.84-.44-1.73l-.11.1c-.4-.49.21-.41-.08-.89l.39-.16a11.29,11.29,0,0,1-.48-1.69,5.33,5.33,0,0,1,.64,1.41c0-.32,0-1.08-.24-1.24,0,.12.14.28.08.41a2.33,2.33,0,0,1-.48-1.53c.77.1.18-1.65.77-2.12-.3-1.12.09-2.22,0-3.53-.59.47,0-.38-.63-.29,0-.3,0-.42,0-.45l.36-.92c.17-.22.14.28.27.26,0-.67.26-.29.42-.73-.22.09-.32-.23-.24-.61l-.28.54c-.33-.93.51-.81.17-1.74l.2.29c-.12-.48,0-1.77-.51-2.24.06-.09.23-.2.28,0,.06-1.15-.56-2.55-.26-3.45l.15.09c-.05-.22-.29-.37-.14-.64.06,0,.15.08.16,0a1.47,1.47,0,0,1-.19-.85l.17.24c.19-1.12-.43-1.72-.54-2.65.44,0,.57-.89.64-1.33h.06a16.63,16.63,0,0,0-.58-3.42c.47-.76.17-2.54.43-3.75-.08.18-.35,0-.39-.24s-.32-.78.09-.74v.1c.39-.22.28-.8.29-1.25l-.53-.07c.75-1.2-.32-3.11.36-3.77-.14-.29-.14-.64-.27-.92h.28a11.13,11.13,0,0,0,0-2.17l.21.19c0-.55-.83-.69-.85-1.2l.42-.16c0-1,.34-1.94,0-2.9a.24.24,0,0,1,.2.2c0-.45.27-1.76-.31-1.59.38,0,0-1-.15-1.52l.28.08a1.58,1.58,0,0,1-.56-1.06c0-.15.22-.13.15.06.14-.48-.27-.37-.13-1l.18.21c0-.5-.08-.45-.29-.73s.06-.95.31-1a.61.61,0,0,1-.29-.64c.1,0,.16.07.18.12.18-.83-.33-1.23-.07-1.81a.22.22,0,0,0,.17-.1,9,9,0,0,1,0,1.15c.26,0,.3-.54.66-.12a3.25,3.25,0,0,1-.52-1.68.31.31,0,0,1,.09-.07l0,0a.53.53,0,0,0,0-.33,2.31,2.31,0,0,0,.08-.43c.21-.07.1-.62.11-.89-.28,0-.24-.32-.47,0,0,0,0,.05,0,.23a.35.35,0,0,0,0,.11l0,0c0,.18,0,.41,0,.67a.64.64,0,0,1-.11-.73,4.81,4.81,0,0,1-.46-.37c.39-.37.59-1.08.83-1.18-.17-.81-.13-1.92-.66-2.43-.07-.23.15-.27.23-.35.06.13,0,.29.13.36-.15-.46-.07-1.37-.44-1.48.16-.59.34.32.27-.48l.11.11c.58-1.59-1-2.56-.23-4.32,0,.12-.07.18-.13.2.31-2-.36-4.11.15-6.09.1-.56-.14-.62-.32-1l.3-.12-.36-.59c-.26-.82.73-1.44.23-2.49l-.2.14c0-.38-.13-1.19.1-1.13,0,0-.21-.12-.11-.27h.16l-.28-.93c.1-.72.63.11.64-.94-.06-.39-.47-1.11-.57-1s-.1.4-.25.42l-.09-.36c-.47-.06-1-.32-1.26.55l.29.61-.22.2,0-.51c-.21.29,0,.47.11.68a.43.43,0,0,0-.25.26l.45.59c-.18.07-.36-.27-.46.14.21.28.41-.28.55.19-.21.29-.38.21-.2.55-.12.05-.19,0-.25-.16.15.3.07.81.32,1-.26.31.08,1-.36,1a1.84,1.84,0,0,1,.38.82c-.54-.51,0,1-.59.92.48.37.23,1.36.5,2,0,0-.12-.11-.09-.17a2.11,2.11,0,0,1-.27.73c.39,0,.49.63.74.94-.38.47-.47-.27-.83-.12.32,0,.33.8.59.64-.23.35-.11.3-.43.49.49.06.08.33.39.62-.24.51-.46.13-.3.7C1035.7,580.47,1035.52,580,1035.52,580Zm1,13.36h0c0-.12,0-.22,0-.28S1036.51,593.2,1036.53,593.34Zm0,1.12c0-.14,0-.31,0-.49s.2,0,.19.12C1036.68,594,1036.62,594.29,1036.54,594.46Zm1.92-2.4c0,.18,0,.24-.07.26a2.11,2.11,0,0,0,0-.31l0,0A.46.46,0,0,1,1038.46,592.06Z" transform="translate(-897.16 -560.37)"/><path class="cls-1" d="M1038.09,591.75a.19.19,0,0,1,0-.08.3.3,0,0,0-.06.11l.09.06A.28.28,0,0,1,1038.09,591.75Z" transform="translate(-897.16 -560.37)"/><path class="cls-1" d="M1038.87,693.6v0a.1.1,0,0,1,0,0Z" transform="translate(-897.16 -560.37)"/><polygon class="cls-1" points="139.03 49.61 139.1 49.6 139.04 49.51 139.03 49.61"/><path class="cls-1" d="M1038,699.8a.23.23,0,0,0-.07.09A.25.25,0,0,0,1038,699.8Z" transform="translate(-897.16 -560.37)"/><path class="cls-1" d="M1038,702.48l-.1.38A2.73,2.73,0,0,0,1038,702.48Z" transform="translate(-897.16 -560.37)"/><path class="cls-1" d="M1037.83,704.53a.24.24,0,0,0,.12,0h0Z" transform="translate(-897.16 -560.37)"/><path class="cls-1" d="M1037.12,671.86a.19.19,0,0,0,0-.08C1037.05,671.59,1037.07,671.72,1037.12,671.86Z" transform="translate(-897.16 -560.37)"/><path class="cls-1" d="M1037.89,681.58c-.05-.11-.1-.21-.14-.31C1037.73,681.44,1037.73,681.57,1037.89,681.58Z" transform="translate(-897.16 -560.37)"/><path class="cls-1" d="M1036.65,661h0v0Z" transform="translate(-897.16 -560.37)"/><path class="cls-1" d="M1037.75,680.81a.8.8,0,0,0,0,.46A1,1,0,0,0,1037.75,680.81Z" transform="translate(-897.16 -560.37)"/><path class="cls-1" d="M1037.81,713.44v.1h0Z" transform="translate(-897.16 -560.37)"/><path class="cls-1" d="M1037.85,713.55l0,.11S1037.88,713.57,1037.85,713.55Z" transform="translate(-897.16 -560.37)"/><path class="cls-1" d="M1038,713.89l-.07-.23C1037.88,713.74,1037.87,713.84,1038,713.89Z" transform="translate(-897.16 -560.37)"/><path class="cls-1" d="M1037.91,710.72l-.1,0A.13.13,0,0,0,1037.91,710.72Z" transform="translate(-897.16 -560.37)"/><path class="cls-1" d="M1037.87,709.89c0,.2-.21.5-.15.78l.09,0C1037.65,710.56,1038,710.08,1037.87,709.89Z" transform="translate(-897.16 -560.37)"/><path class="cls-1" d="M1039.09,706.43l-.07.69c.1-.12.25-.28.28,0C1039.61,706.28,1039.06,707.34,1039.09,706.43Z" transform="translate(-897.16 -560.37)"/><path class="cls-1" d="M1039.22,704.28c.06.37.16,0,.22,0C1039.34,704.06,1039.31,704,1039.22,704.28Z" transform="translate(-897.16 -560.37)"/><path class="cls-1" d="M1039,688.75l.26,0C1039.26,688.5,1039.2,688.79,1039,688.75Z" transform="translate(-897.16 -560.37)"/><polygon class="cls-1" points="140.53 125.43 140.37 125.71 140.6 125.84 140.53 125.43"/><polygon class="cls-1" points="142.33 123.65 142.36 123.78 142.27 123.3 142.33 123.65"/><path class="cls-1" d="M1039.09,658l-.32.09C1038.83,658.24,1039.19,658.27,1039.09,658Z" transform="translate(-897.16 -560.37)"/><path class="cls-1" d="M1038.63,646.7a.48.48,0,0,0,.1-.63C1038.71,646.32,1038.59,646.57,1038.63,646.7Z" transform="translate(-897.16 -560.37)"/><polygon class="cls-1" points="141.59 52.56 141.7 52.79 141.61 52.36 141.59 52.56"/><path class="cls-1" d="M1034.22,712.72a.15.15,0,0,0-.06-.28l-.24.27Z" transform="translate(-897.16 -560.37)"/><path class="cls-1" d="M1033.26,711.73c-.26.08-.58.28-.54.61.3-.24.3-.1.64-.38.19,0,.27.21.2.31.09-.06.24.17.41,0a.62.62,0,0,0-.79-.34C1033.14,711.84,1033.22,711.78,1033.26,711.73Z" transform="translate(-897.16 -560.37)"/><path class="cls-1" d="M1015.28,709.46l.12,0A.19.19,0,0,0,1015.28,709.46Z" transform="translate(-897.16 -560.37)"/><path class="cls-1" d="M1004,709.82c.08,0,.12-.05.12-.08S1004,709.79,1004,709.82Z" transform="translate(-897.16 -560.37)"/><path class="cls-1" d="M1002.08,709.56l.11,0S1002.11,709.53,1002.08,709.56Z" transform="translate(-897.16 -560.37)"/><path class="cls-1" d="M1015.28,709.46l-.31-.09C1015,709.48,1015.13,709.44,1015.28,709.46Z" transform="translate(-897.16 -560.37)"/><path class="cls-1" d="M1030.67,711.82a.34.34,0,0,0,.17-.05h-.15Z" transform="translate(-897.16 -560.37)"/><path class="cls-1" d="M1020.26,709.11h.09a.64.64,0,0,0,.08-.14Z" transform="translate(-897.16 -560.37)"/><path class="cls-1" d="M1024.11,709.2c-.08,0-.13.26-.17.38a.25.25,0,0,1,.2-.18A.39.39,0,0,0,1024.11,709.2Z" transform="translate(-897.16 -560.37)"/><path class="cls-1" d="M1030.1,710.52l.11,0Z" transform="translate(-897.16 -560.37)"/><path class="cls-1" d="M1017.51,709.07a.2.2,0,0,0,0-.1A.22.22,0,0,0,1017.51,709.07Z" transform="translate(-897.16 -560.37)"/><path class="cls-1" d="M911.54,719.59s0,0,0-.05S911.51,719.59,911.54,719.59Z" transform="translate(-897.16 -560.37)"/><path class="cls-1" d="M907,718.72l.06,0v-.16Z" transform="translate(-897.16 -560.37)"/><path class="cls-1" d="M998.55,709.39h0C998.65,709.36,998.6,709.37,998.55,709.39Z" transform="translate(-897.16 -560.37)"/><path class="cls-1" d="M966.32,711.77c.38.22-.57.37,0,.6C966.26,712.27,966.79,711.9,966.32,711.77Z" transform="translate(-897.16 -560.37)"/><path class="cls-1" d="M1030.58,711.76l-.15,0A.37.37,0,0,0,1030.58,711.76Z" transform="translate(-897.16 -560.37)"/><path class="cls-1" d="M966.32,712.37h0l.06,0Z" transform="translate(-897.16 -560.37)"/><path class="cls-1" d="M990.46,710a.27.27,0,0,0,.09.12A.32.32,0,0,0,990.46,710Z" transform="translate(-897.16 -560.37)"/><path class="cls-1" d="M996.51,710.08l-.15,0Z" transform="translate(-897.16 -560.37)"/><path class="cls-1" d="M987.35,710.63c-.08,0-.11,0-.22,0l0,0A.14.14,0,0,1,987.35,710.63Z" transform="translate(-897.16 -560.37)"/><path class="cls-1" d="M984.1,710.85l.06,0,.1,0Z" transform="translate(-897.16 -560.37)"/><path class="cls-1" d="M921.37,718.35a.8.8,0,0,1-.18-.24C921.26,718.3,920.79,718.43,921.37,718.35Z" transform="translate(-897.16 -560.37)"/><path class="cls-1" d="M1030.7,711.66c0,.07-.07.1-.12.1h.11A.11.11,0,0,0,1030.7,711.66Z" transform="translate(-897.16 -560.37)"/><path class="cls-1" d="M987.36,712.85h-.52A3,3,0,0,0,987.36,712.85Z" transform="translate(-897.16 -560.37)"/><path class="cls-1" d="M944.63,716l-.12,0A.13.13,0,0,0,944.63,716Z" transform="translate(-897.16 -560.37)"/><path class="cls-1" d="M985.31,713a.69.69,0,0,0-.3-.18l-.06.08Z" transform="translate(-897.16 -560.37)"/><path class="cls-1" d="M921.19,718.11Z" transform="translate(-897.16 -560.37)"/><path class="cls-1" d="M917.87,719.15c.49,0,.19-.39.27-.61.57-.17.3.24.52.41.36-.14.6-.51.87-.53,0,.06.09.08,0,.16.36-.34,1.15-.14,1.56-.56a.18.18,0,0,1,.07.09,1,1,0,0,1-.13-.5c.22,0,.39-.27.49,0-.13,0-.13.1-.19.18l.22-.12c.25.32-.3.15-.27.4.44-.16.93-.5,1.28-.44.11.33-.79.2-.3.45l-.54-.07c.46.49-.33,0,.1.53.72,0,.77-.26,1.48-.24.14-.2-.08-.27.06-.47,1-.45.87.76,1.55.23.17-.24.2-.68.74-.51l-.14.4c.69,0,.33-.59,1.07-.41-.11.17-.52.19-.41.22.49.25.3-.25.66-.29l.1.33c.72-.12,1.49-.45,2.29-.6,0,.11-.16.23,0,.31a9,9,0,0,1,3.15-.08l.34-.33c.09,0,.18.12.09.18.39.07,0-.18.17-.32s.3.14.18.24a4.24,4.24,0,0,1,2.59-.48l-.13.1c.56.07.56-.66,1.1-.44l-.09.07c1.2,0,2.5-.39,3.45,0,.13-.44,1.2.07,1.22-.52a4.1,4.1,0,0,0,1.5.45c.26,0,.35-.4.66-.49l0,.31.4-.37.26.35.29-.11c-.12,0-.26-.11-.25-.2a1.21,1.21,0,0,1,1.18.26l1.07-.36c0,.13-.19.18-.33.28.56-.37.14.31.65,0-.08-.06,0-.18,0-.25a2.11,2.11,0,0,0,1.34,0l-.07.22c.82,0,1.71-.25,2.63-.33a.25.25,0,0,1,0-.5l.13.31c.16-.21-.29-.1,0-.37.34,0,.26.35.07.47l.41-.15c0,.09-.06.15-.08.28.16-.22.75.26,1-.11l0,.09c.91-.08,1.32-.22,2.06-.3,0-.28.29-.25.49-.49a9,9,0,0,0,1.84.13c.45-.18.12-.25.31-.43.06.25.72.17.39.38a10.13,10.13,0,0,0,2-.43c-.12-.1-.24-.13-.19-.22s.43.07.41.19l0,0c1.09-.47,2.65.54,3.51-.07l-.05,0,.91-.35c.43,0-.25.21.08.35,1-.51,1.59-.07,2.4-.42.69.71,2.26-.23,3.16.19l-.06-.17c.21-.19.27.08.44.11,0-.14-.25-.15-.12-.25a30.27,30.27,0,0,1,5.87,0c.71,0,.33-.94,1.26-.58l-.23.34c1.4-.49,2.92-.19,4.3-.62-.08.08-.08.18-.21.19.31.22,1.09-.06,1.08-.26.22,0,.06.17.21.26s.72-.35.89-.12c0,0-.07.08-.13.1.19-.13.91,0,.7-.29.54.09,1-.19,1.43-.06.25-.32.91.09,1-.35,0,.45.94.3,1.26.07-.1.14.3.12.18.32.38,0,.72-.13.64-.36.73.49,1.38-.53,1.82.14a30.33,30.33,0,0,1,3.15-.71c0,.45-1.12.12-1,.59a7,7,0,0,1,2.44-.61c.26,0-.12.2-.2.28.95-.24,1.86-.07,2.7-.36,0,0-.09.09-.18.13.17,0,.4,0,.37-.16l-.16.07c-.29-.29.63-.66.65-.82-.25.6.86.1.44.86.11,0,.25-.15.21-.28.17,0,.23.11.07.27.6-.15.37-.35.92-.38,0,.1-.11.15-.16.27a1.24,1.24,0,0,1,1-.36c0,.06,0,.13-.1.14.79-.07,1.32-.59,2.2-.45-.23.45.31.13.37.5l.47-.14-.2-.17c.41,0,.76-.31,1.12-.2l-.3.17.77-.11L1004,711c.41-.22-.07-.47.49-.4-.11.05.41,0,.63.19h0a.85.85,0,0,1,.71-.19c.08.12,0,.42,0,.5.19-.33,1-.14,1.2-.48a.36.36,0,0,0,0,.32l.16-.27c.19.08.22.11.2.27.57,0-.21-.46.48-.29,0,0,0,.06-.13.1.68.07,1.31-.22,1.94-.13.2.37-.54.12-.32.42a16.68,16.68,0,0,1,2.73-.49l-.16,0c.09-.53.66.23,1.09,0-.11,0-.13.31-.1.24a7.49,7.49,0,0,0,2.11-.38l-.1.14a11.11,11.11,0,0,0,1.31.08c.11-.14.32-.12.19-.32,1.19.74,2.23-.47,3.27.18-.12,0-.29.12-.19.12l.88-.12c-.07-.23-.12-.14-.3-.32a.8.8,0,0,1,.58-.24c-.4.15,0,.37.17.5,0-.07,0-.15,0-.22.46.42.09-.47.72-.17l0,.12a1.8,1.8,0,0,1,.71-.17c.1.27-.25.12-.28.34.36,0,.73-.48,1-.2-.15.07-.37.06-.53.12a.85.85,0,0,0,.64.32h0l.59.17-.15-.09c.49-.67.92-.06,1.56-.48-.63.39-.12.25-.19.54.14.1.36.22.29.3.3-.22.45.24.88-.08,0,.1.3,0,.21.28.37,0-.07-.18,0-.3.61-.25,1.27.56,2.13.25.72-.07.91-.36,1.59-.38.19.19-.25.31-.25.31a1.38,1.38,0,0,0,.94.21c-.09.06,0,.15,0,.28.26,0,.26-.3.57-.07a1.39,1.39,0,0,1-.36.31c.32,0,.68-.11,1-.1,0,.18-.25.19-.39.27.37,0,.94.12,1.13-.11l-.2-.16c.14,0,0,.24-.11.26-.36.11-.4-.22-.39-.32h.24c-.07-.63-.94-.16-1.38-.31l.29-.35-.55.21c-.08-.13-.1-.37.15-.38-.29-.28-.33.08-.57-.2,0-.05,0-.06,0-.07l-.36.05c.09-.07,0-.3.2-.2-.55-.36-1,.11-1.18-.23l0,0c-.85,0-.13.29-.8.54l-.3-.81-.13.29c-.08,0-.25-.07-.2-.19-.35.17,0,.14-.18.31-.37-.33-1.14,0-1.18-.5-.17.21.38.22-.08.33-.07-.53-.52,0-.87-.24.14-.26.49-.08.13-.36-.27.43-.73-.15-1.06-.09,0,.36-.71.1-1.25.2,0-.13-1-.25-1.5-.39l0-.06c-.1.37-.62.28-1,.36a.39.39,0,0,1,.29-.4h-.36a.58.58,0,0,1-.42.22l.09-.28c-.47,0-.94.32-1.55.15,0,.25.49.71-.15.88,0-.14-.05-.37.12-.43-.06,0-.19.12-.31.06l.26-.24c-.28-.1-.15.2-.36.18,0-.2-.17-.14-.14-.3s.19.08.28,0a1.12,1.12,0,0,1-.66-.28.21.21,0,0,1-.17.29c-.47,0-.17-.23-.44-.33-.11.14-.42,0-.41.3-.14,0-.17-.13-.23-.21-.23.14-1.13.08-.84.38l.06,0h0c-.78.33-1.65-.1-2.43.06v-.09a4.92,4.92,0,0,0-1.36.34c-.14,0-.34-.16-.29-.28a1.18,1.18,0,0,1-.91.06c.35-.19-.13-.14.36-.14-.47-.06-.58-.22-1.06.08.15-.26-.37-.3-.59-.22l.34.17a2.7,2.7,0,0,1-.69,0l.1-.33c-1-.36-1.68.77-2.44.13-.24.24.53.14.32.42-.44,0-.92-.48-1.06-.47-.61-.16-.53.51-1.17.42.09.11.18.43-.28.56s-.56-.47-.29-.58c.1,0,.15,0,.15.06s.32-.11.14-.23l0,.13c-.22-.11-.82-.07-.69-.27-.33.13-.13.2.12.25a11.92,11.92,0,0,0-1.47,0c.1.06.19.19.1.2-.86-.11-.36.24-.93.32-.34-.16.09-.43-.48-.25-.36-.11-.09-.31,0-.42-.51.26-1-.09-1.29-.12l.27-.11a1.21,1.21,0,0,1-.44.08l.17.23c-.16,0-.3,0-.3-.13-.16.17.15.39-.17.62-.23-.11-.66.17-.75-.14.69.06-.09-.31.48-.4a.69.69,0,0,1-.41,0s0-.07.07-.09c-.67-.24-.28.38-1,.41.07-.18-.18-.33-.29-.29.28,0,.15.29-.09.44-.44-.11-.47.13-.7.13l.27,0c-.08.18-.3.17-.6.25,0-.14.27-.12.16-.17-.32.33-.78-.28-1.24,0-.22-.11,0-.33-.23-.4-.51.26-.59-.21-1.13,0,.18.23.2.17-.17.42l.89-.22-.56.38c.28,0,.57-.18.74-.15-.27.21-.24.15-.1.34-.4-.34-.73.25-1.18,0l0-.59c-.67-.22-1.14.38-2,.28l.27.09c-.1.24-.52.06-.78.17,0-.19-.17-.26-.29-.37,0,.14-.62,0-.67.42l-.4-.23c-.69-.07-.74.61-1.4.58.18-.23-.12-.35.31-.53-.22,0-.42,0-.42.13-.13-.12-.59.3-.8.13-.09.09-.11.3-.35.3a.12.12,0,0,1,0-.1c0,.1-.37.16-.14.36-.72-.57-1.89.17-2.51-.32a14.19,14.19,0,0,1-1.48.24c0-.06,0-.09.08-.08-.61-.14-.33.59-1,.43-.37-.29.35-.19.12-.3-.14-.64-.82.14-1.3-.2l.11,0c-.37-.2-.84.3-1.42.3a.11.11,0,0,0,0-.1,3.8,3.8,0,0,1-1.64.65c.15-.27.24-.15.11-.4-.24.05.1.41-.38.51-.17-.12-.54-.22-.6-.49l.46,0c-.26-.34-.6.06-.85,0l0-.16c-.71.11-.69.5-1.46.52l.09.12c-.39.41-.37-.2-.76.12l-.16-.38a9.72,9.72,0,0,1-1.43.56,4.26,4.26,0,0,1,1.18-.71c-.28,0-.93.1-1.06.31.11,0,.24-.16.35-.1a1.83,1.83,0,0,1-1.28.55c0-.77-1.44-.08-1.88-.65-.94.36-1.92,0-3,.16.44.56-.33,0-.21.65-.26,0-.36,0-.39,0l-.82-.3c-.2-.16.24-.15.21-.29-.58,0-.27-.24-.66-.37.1.22-.17.33-.51.28l.49.24c-.78.39-.74-.46-1.52-.07l.24-.21c-.4.14-1.53.12-1.89.64-.08-.07-.19-.22,0-.28-1,0-2.16.69-3,.46l.07-.16c-.18.06-.3.31-.54.18,0-.06.06-.15,0-.16s-.47.31-.72.24l.2-.18c-1-.12-1.45.53-2.25.7,0-.44-.81-.51-1.19-.55v-.07a12.27,12.27,0,0,0-2.91.8c-.68-.42-2.2,0-3.26-.18.16.07,0,.34-.18.4s-.64.37-.64,0h.09c-.22-.37-.71-.22-1.1-.2l0,.53c-1.09-.67-2.65.53-3.27-.1-.24.16-.54.18-.77.34l0-.29a8.46,8.46,0,0,0-1.87.14l.15-.22c-.47,0-.52.87-1,.93l-.17-.41c-.83.09-1.71-.19-2.49.27,0-.06,0-.19.15-.22-.39,0-1.54-.13-1.34.43,0-.38-.86.05-1.29.26l0-.29c-.34.39-.34.49-.86.64-.13,0-.13-.21,0-.15-.43-.11-.3.29-.82.19l.17-.19c-.43,0-.39.11-.6.34s-.82,0-.91-.23a.49.49,0,0,1-.52.34c0-.09,0-.15.09-.19-.74-.11-1,.43-1.56.21,0-.09-.05-.13-.1-.15a4.87,4.87,0,0,1,1-.06c0-.26-.49-.26-.16-.65-.35.23-.94.72-1.4.64a.29.29,0,0,1-.07-.08l0,0a.38.38,0,0,0-.28.07,1.3,1.3,0,0,0-.38,0c-.08-.21-.54-.06-.78,0,0,.28-.25.27,0,.47,0,0,0,0,.2-.07l.09,0v0l.57-.08c-.17.16-.35.3-.62.18-.1.19-.21.38-.27.48-.36-.36-1-.51-1.09-.74-.69.24-1.64.28-2,.86-.19.09-.24-.13-.33-.2.11-.07.25-.08.3-.16-.38.18-1.17.18-1.23.56-.52-.11.25-.37-.43-.23l.08-.13c-1.42-.43-2.11,1.17-3.69.59.11,0,.16,0,.19.11-1.75-.14-3.5.71-5.25.37-.49-.05-.52.19-.79.4l-.14-.28-.46.4c-.68.34-1.32-.59-2.16,0l.14.19c-.33,0-1,.24-1,0,0,0-.08.23-.22.13l0-.15-.76.36c-.63,0,0-.63-.88-.56-.33.1-.9.57-.76.66s.36.06.39.21l-.3.12c0,.47-.18,1,.61,1.21l.49-.35.19.21-.43.06c.27.18.41,0,.57-.17a.39.39,0,0,0,.25.22l.46-.5c.08.17-.19.39.16.45.22-.24-.27-.38.11-.56.27.18.22.36.49.14.06.12,0,.2-.11.27.25-.18.69-.15.79-.41.29.23.88-.17.9.27a1.47,1.47,0,0,1,.66-.44c-.38.57.9-.07.85.5.27-.51,1.14-.34,1.69-.67,0,0-.08.12-.14.11a1.61,1.61,0,0,1,.66.2c0-.4.49-.54.73-.81.44.33-.19.48,0,.83-.06-.32.65-.4.49-.64.33.2.27.08.46.39,0-.5.28-.12.49-.45.47.19.17.45.63.25C918.28,718.93,917.87,719.15,917.87,719.15Zm11.37-2.08h0l-.24,0Zm1-.1-.42,0c0-.09,0-.2.08-.2S930.05,716.9,930.2,717ZM928,715.24c.15-.06.21,0,.23,0l-.26.06v0A.33.33,0,0,1,928,715.24Z" transform="translate(-897.16 -560.37)"/><path class="cls-1" d="M927.73,715.63s0,0-.07,0l.1.06,0-.1Z" transform="translate(-897.16 -560.37)"/><path class="cls-1" d="M1015.42,709.5h0l0,0Z" transform="translate(-897.16 -560.37)"/><polygon class="cls-1" points="46.41 155.81 46.4 155.74 46.32 155.81 46.41 155.81"/><path class="cls-1" d="M1020.76,710.39a.15.15,0,0,0,.07.07S1020.8,710.42,1020.76,710.39Z" transform="translate(-897.16 -560.37)"/><path class="cls-1" d="M1023,710.53l.32.11A1.52,1.52,0,0,0,1023,710.53Z" transform="translate(-897.16 -560.37)"/><path class="cls-1" d="M1024.78,710.78a.31.31,0,0,0,0-.12h0Z" transform="translate(-897.16 -560.37)"/><path class="cls-1" d="M996.74,712l-.06,0C996.52,712,996.63,712,996.74,712Z" transform="translate(-897.16 -560.37)"/><path class="cls-1" d="M1005.08,710.83a1.74,1.74,0,0,1-.26.15C1005,711,1005.09,711,1005.08,710.83Z" transform="translate(-897.16 -560.37)"/><polygon class="cls-1" points="90.26 152.48 90.26 152.48 90.2 152.48 90.26 152.48"/><path class="cls-1" d="M1004.43,711a.52.52,0,0,0,.39,0A.86.86,0,0,0,1004.43,711Z" transform="translate(-897.16 -560.37)"/><path class="cls-1" d="M1032.14,712.25l.08,0a.05.05,0,0,1,0,0Z" transform="translate(-897.16 -560.37)"/><path class="cls-1" d="M1032.24,712.24h.1A.09.09,0,0,0,1032.24,712.24Z" transform="translate(-897.16 -560.37)"/><path class="cls-1" d="M1032.55,712.23h-.21A.2.2,0,0,0,1032.55,712.23Z" transform="translate(-897.16 -560.37)"/><path class="cls-1" d="M1030,711.55l0,.09A.19.19,0,0,0,1030,711.55Z" transform="translate(-897.16 -560.37)"/><path class="cls-1" d="M1029.27,711.43c.16.06.37.3.6.29l0-.08C1029.78,711.77,1029.46,711.3,1029.27,711.43Z" transform="translate(-897.16 -560.37)"/><path class="cls-1" d="M1026.54,709.72l.59.16c-.09-.12-.21-.28.07-.27C1026.48,709.19,1027.32,709.87,1026.54,709.72Z" transform="translate(-897.16 -560.37)"/><path class="cls-1" d="M1024.69,709.38c.33,0,0-.16,0-.22C1024.51,709.25,1024.46,709.27,1024.69,709.38Z" transform="translate(-897.16 -560.37)"/><path class="cls-1" d="M1011.22,709.46l0-.25C1011,709.25,1011.25,709.3,1011.22,709.46Z" transform="translate(-897.16 -560.37)"/><polygon class="cls-1" points="111.57 150.53 111.82 150.68 111.92 150.44 111.57 150.53"/><polygon class="cls-1" points="109.97 148.79 110.08 148.75 109.67 148.86 109.97 148.79"/><path class="cls-1" d="M984.66,710.56l.09.31C984.92,710.8,984.93,710.45,984.66,710.56Z" transform="translate(-897.16 -560.37)"/><path class="cls-1" d="M975,711.55a.39.39,0,0,0-.56-.06C974.65,711.49,974.88,711.6,975,711.55Z" transform="translate(-897.16 -560.37)"/><polygon class="cls-1" points="48.74 153.06 48.92 152.93 48.57 153.06 48.74 153.06"/></svg>