<svg id="Layer_1" data-name="Layer 1" xmlns="http://www.w3.org/2000/svg" viewBox="0 0 247.22 259.36"><defs><style>.cls-1{fill:#202020;}</style></defs><title>2</title><path class="cls-1" d="M991.57,561.18c0-.69,0-1.82-.06-2.69a2.41,2.41,0,0,0-.2-1c-.11-.22-.24-.31-.42-.16a45.16,45.16,0,0,1-1,5.23A12.94,12.94,0,0,0,991.57,561.18Z" transform="translate(-911.84 -466.06)"/><path class="cls-1" d="M990,551a28.25,28.25,0,0,1-3.65,3.64,24.22,24.22,0,0,0-4.66,5c2.21-1.43,3-1.83,3.74-2.32a11.18,11.18,0,0,0,3.38-3.63c.35-.16.34.29.24,1.05a12.31,12.31,0,0,1-.73,2.7c.36-.6.54-.23.86-.1s.66,0,1.07-1.64c-.06-2.07,0-3.17-.18-3.38s-.69.47-2,1.63A25.57,25.57,0,0,1,990,551Z" transform="translate(-911.84 -466.06)"/><path class="cls-1" d="M991,550.11h0Z" transform="translate(-911.84 -466.06)"/><path class="cls-1" d="M989.75,550.91v0Z" transform="translate(-911.84 -466.06)"/><path class="cls-1" d="M989.66,551.36v0Z" transform="translate(-911.84 -466.06)"/><path class="cls-1" d="M991,550.11l-.06,0Z" transform="translate(-911.84 -466.06)"/><path class="cls-1" d="M976.07,550.19a3.06,3.06,0,0,0,1.45.44,2.63,2.63,0,0,1-.62-.49Z" transform="translate(-911.84 -466.06)"/><polygon class="cls-1" points="78.92 84.27 78.93 84.26 78.94 84.26 78.92 84.27"/><path class="cls-1" d="M991.81,548.9l0,.06,0-.08Z" transform="translate(-911.84 -466.06)"/><path class="cls-1" d="M992.83,548.4h0Z" transform="translate(-911.84 -466.06)"/><path class="cls-1" d="M991.41,550.14h0Z" transform="translate(-911.84 -466.06)"/><path class="cls-1" d="M980.54,542.12Z" transform="translate(-911.84 -466.06)"/><path class="cls-1" d="M988.28,542.88l0-.25c-.15-.84-.29-1.66-.43-2.48Q988,541.53,988.28,542.88Z" transform="translate(-911.84 -466.06)"/><path class="cls-1" d="M989.71,551.47Z" transform="translate(-911.84 -466.06)"/><path class="cls-1" d="M990.48,550.45c-.05.18.08-.32,0,0C990.49,550.42,990.42,550.64,990.48,550.45Z" transform="translate(-911.84 -466.06)"/><path class="cls-1" d="M976.62,549.75a1.2,1.2,0,0,1-.09-.59C976.4,549.44,976.43,549.63,976.62,549.75Z" transform="translate(-911.84 -466.06)"/><path class="cls-1" d="M990.48,550.42v0Z" transform="translate(-911.84 -466.06)"/><path class="cls-1" d="M990.83,550.77l0,0Z" transform="translate(-911.84 -466.06)"/><path class="cls-1" d="M990.62,551.16h0Z" transform="translate(-911.84 -466.06)"/><path class="cls-1" d="M989.8,549.71l0-.06h0Z" transform="translate(-911.84 -466.06)"/><path class="cls-1" d="M989.76,549.28h0S989.76,549.28,989.76,549.28Z" transform="translate(-911.84 -466.06)"/><path class="cls-1" d="M970.6,561.89a31,31,0,0,1,3.37-2.28C971.22,561.24,969.46,560.3,970.6,561.89Z" transform="translate(-911.84 -466.06)"/><path class="cls-1" d="M978.58,549.91a3.92,3.92,0,0,1-2-.16,1.28,1.28,0,0,0,.28.39A8.08,8.08,0,0,0,978.58,549.91Z" transform="translate(-911.84 -466.06)"/><path class="cls-1" d="M978.58,525.84c.9-.17,1.84-.3,2.75-.39A4.67,4.67,0,0,0,978.58,525.84Z" transform="translate(-911.84 -466.06)"/><path class="cls-1" d="M1002,530.23l.64-.25C1002.49,529.8,1002.29,529.84,1002,530.23Z" transform="translate(-911.84 -466.06)"/><path class="cls-1" d="M989,523.36a11.11,11.11,0,0,0,1.53,3.12,7.12,7.12,0,0,0,.35-1.14A26.79,26.79,0,0,0,989,523.36Z" transform="translate(-911.84 -466.06)"/><path class="cls-1" d="M974,559.59l0,0Z" transform="translate(-911.84 -466.06)"/><path class="cls-1" d="M961.25,548.63c-.16,1.41,1.31,1.76,3.19,1.81s4.21-.07,5.9.15c.86,1-.2,1.29-1.87,1.49s-3.94.18-5.41.77a9.23,9.23,0,0,0,4.28,1.7c1.6.33,3,.51,2.95,1a7.27,7.27,0,0,1-2.47.61c2.45.2,2.75,1,3.27,1.84s1.25,1.59,4.16.79c-.43.31-.85.58-1.24.81,2.55-1.53,5.26-2.86,7.18-3.79.28.33,3.55-1.25.27.79,0-.25-1.37.5-2.49,1,.56-.13,1.11-.27,1.67-.44-4.56,3.2-2,.42-5.6,2.33a15.73,15.73,0,0,0,4-.45c1.25-.24,2.07-.39,1.67.36-4.17,3.55-2.59-.46-5.83,3.33a21.44,21.44,0,0,1,.93-2.36c-3.34,2.73-3.31,2.51-3.4,2.22s-.26-.55-3.81,2.42c0,1.54,1.07,1.79,2.06,1.93s2,.23,2.23,1.71a14.77,14.77,0,0,0,2.84-2.46,19.41,19.41,0,0,1,2.79-2.5c1.44-.48,1.6-.1,1.28.83s-1.19,2.36-1.94,3.8a12.83,12.83,0,0,0-1.52,3.62c-.08.79.49,1,2.07-.14,1.27-1.34,2.84-3.46,4-4.79s1.81-1.88,1.75.1c-1,1.79-2.07,3.55-3.2,5.28,1.14.9,2.41-1,3.38-2.53a5.43,5.43,0,0,1,1.28-1.63c.36-.19.64.1,1,1.26-1,2.25-2.53,1.35-2.37,2.17.14,2.61.85,1.89,1.47.53s1.32-3.31,1.94-3.2c-.28,1.8-.52,3.59-.74,5.4a9.73,9.73,0,0,0,5.21-2.48c1.65-1.28,2.66-2.79,3.81-3.6.34,1.58.22,3.38,1.43,4.77a7.58,7.58,0,0,1,2.64-2,11.43,11.43,0,0,1,3.1-.91c2.22-.36,4.9-.48,7.43-.87a37.46,37.46,0,0,0-2.64-4.12c.21-.18,2,.9,2.5,1.73,1.13,0,.55-.48-.44-1.14a13.45,13.45,0,0,1-3-2.36c.1-.68,2.72.85,3.59,2.06a49.76,49.76,0,0,1-2.35-6c-.37-1.6.1-2.52,2.78-2.76l1.22.79c1.15-.52-1-1.64-3-2.47s-3.66-1.45-1.4-1.65l.78.37a3.12,3.12,0,0,0,.87-2.2c0-.77-.1-1.6-.11-2.39a5,5,0,0,1,.53-2.5,13.18,13.18,0,0,1,2.73-3.26c-3.33.72-2.85-.32-2.9-1.42s-.44-2-4.57.25c1.52-2,2.55-3.32,3.35-4.6a7.31,7.31,0,0,0,1-5.3c-.25-.57-1.6.18-3,1.12s-2.88,2.1-3.58,2.18l3.06-3.87a38.73,38.73,0,0,0-4.31,3.23c.92-1.76,1.78-3.54,2.57-5.36-.55.15-1.1.31-1.63.5.26.48-.35,2.36-1.16,3.53-1.19.58-1.48-.57-1.53-2.19a16.27,16.27,0,0,1,.59-4.93,20.08,20.08,0,0,0-4.83,2.86,7.82,7.82,0,0,1,2.11-3.52c-1.65,2.16-1.37.91-1.16-.44s.41-2.75-1-.65a19.22,19.22,0,0,1-.87,3.84c-.13-1.54-.76-2.4-1.54-2.71a2.41,2.41,0,0,0-2.4.59c.1-1.13.21-2.26.34-3.39a6.15,6.15,0,0,0-4.49.75,30.52,30.52,0,0,1-4.38,2.14c1.59,1.16,2.85,6.94,2.45,7.66q-.93-2.44-1.94-4.85a5.43,5.43,0,0,0,1,2.51,7,7,0,0,1,.8,3.13c-.95-.28-2.75-5.29-2.65-7.14-.24.72-.47,1.47-.65,2.2a34.66,34.66,0,0,1-1.35-4.16c.31,1.62-.79.67-1.92.09s-2.3-.74-1.32,1.94L975.8,526a9.28,9.28,0,0,0-3.44,3.52c-.37.62-.71,1.26-1.08,1.93a18,18,0,0,1-1.27,2,8.17,8.17,0,0,1,2.52,3.08,8,8,0,0,0,1.86,3,27.52,27.52,0,0,0-4.18,1.31,6.41,6.41,0,0,0-1.92,1.29,3.89,3.89,0,0,0-1,2.05,3.7,3.7,0,0,0,2.73,1.82,12.38,12.38,0,0,1,3.29.93,5.53,5.53,0,0,0-3.89.57,2.34,2.34,0,0,1-2.89-.18,16.62,16.62,0,0,0,.3,2.34,7.38,7.38,0,0,0,.68,1.76,7.55,7.55,0,0,0,1.3,1.72,13.74,13.74,0,0,0,2.37,1.75c1.53-.78,2.17-1.27,3.57-1.42.38.16,0,.52-.64,1a10.35,10.35,0,0,1-2.62,1.14l-.46,0c1.74.41,2,1.13,1.78,2.29s-1.06,2.6-1.64,4.19a7.35,7.35,0,0,0-.65,4.24c.34,1,1.37,1.45,3.39.45l-.41.18a26.3,26.3,0,0,0,5.07-1.44c.26.64-.32,1.16-1.13,1.81a5.25,5.25,0,0,0-2.15,2.75c1.76-.81,2.8-1.07,3.53-1a2.85,2.85,0,0,1,1.68,1.12,4,4,0,0,0,1.57,1.36,2.48,2.48,0,0,0,2.55-.72c-.31,3.07.45,4.75,1.57,5.56s2.73.71,4.29.33,3.12-1.07,4.6-1.29a6.09,6.09,0,0,1,4.8,1.37l-1.24-2.58c.07-1.5.49-1.24,1.11-.58s1.39,1.7,2,1.79c-1.09-1.92-2.22-1.82-2.2-3.51a34.49,34.49,0,0,1,2.69-2.38c.46-.36.92-.7,1.39-1l1.46-1.09a74.73,74.73,0,0,0,6.07-4.75c3.89-3.42,7.29-7.7,8.54-12.06.34-1.55-3.39-1.76-6.34-1.89a11.75,11.75,0,0,1-3.28-.41c-.51-.27-.27-.66,1.28-1.63,1.78-.08,3.56-.09,5.35,0-3.55-2.1-4.09-4.08-5-6.45a9.16,9.16,0,0,0-1.86-3.3,5.41,5.41,0,0,0-1.65-1.19,6.3,6.3,0,0,0-2.44-.54c1.11-.6,2.31-1.63,2.66-1.2,1.08-1.7.24-2.69-1.06-2.79a5,5,0,0,0-4.15,1.81c-.48-.84,1.61-2.35,2.08-4,.08-1.35-1.35-.89-2.66-.46s-2.27.86-1.77-1c.16-.62,1-.92,1.37-1-.91.56-1.9-.07-2.84-.25s-1.82.11-2.11,2.35c-.87-1.42-2.32-1.3-3.52-1.1s-2.24.51-3.22-.85c-.75,2.45-1.69,1.85-2.57,1.6s-1.74-.21-1.3,3.27c-.48-3.58-1.79-4.89-3.12-4.65s-2.41,1.94-2.33,3.76c-.43-2.22-2.11-1.51-2.89-4.49a2.9,2.9,0,0,0-1.57,2.26,5.45,5.45,0,0,0,1.48,3.72c-3.65-2.82-4-.3-3.83,1.55s.54,3.14-4.26.21a31.09,31.09,0,0,0,1.09,7.31c.52,2,1.13,3.55,1.61,4.92-3.47-1-3.42-1.81-3.37-2.61s.08-1.6-3.42-3c.72,2.12,2.59,3.91,4,5.31s2.33,2.38,1.36,3.45c-1,.54-3.09-.66-4.27-1.12,1.32,1.62,1.07,2.81,1.1,4.22a4.13,4.13,0,0,0,.42,2,3.64,3.64,0,0,0,2.08,1.64,4.29,4.29,0,0,1-2-.13c.32.47-.76,1.5,2.41.61l-1-.26c2.24-.92,4.77-1,7-1.16a22.35,22.35,0,0,0,5.38-.85c-4.51,1.33-5,1.85-5.63,2.62a6.17,6.17,0,0,1-1.76,1.33,26.11,26.11,0,0,1-5.54,2.1,7.78,7.78,0,0,0,4.3-1.1c-.36.71-1.39,1.52-3.91,2.06a5.09,5.09,0,0,0,3.73,0c1.1-.29,1.89-.55,2.36.15a24.55,24.55,0,0,1-3.7,1.82c1.59-.41,3.13-.94,4.22-1.16s1.73-.14,1.72.82c-.75.6-1.52,1.61-1.82,1.25,1.12.83,3.39,0,5-.82s2.74-1.59,3,.16c-3.4,6.06-.23,2.37-2.12,8a21.15,21.15,0,0,0,2.1-1.18c.06-1,.15-2,.27-2.95.56.24,1.34-.67,2-1.4s1.07-1.26,1.36-.23c-.34.79-.71,1.56-1.13,2.32.39-.13.76-.26,1.12-.41s.67-.33,1-.5a23,23,0,0,1-.81-2.33,17.51,17.51,0,0,0,.81-4.67c.12-1.29.17-2,.45-1.15-.13.6.41.1,1,3.58v0c.25-1.93.21-3.94.81-2.52.43,1.87.91,6.54,1.19,7.78-.13-2.49.24-2.92.6-3.41s.72-1,.07-3.61c.27,1.23,1.17,4.23,1.42,4.83-.29-1.33-.62-2.65-1-4a16,16,0,0,1,1.76,4.07c.68.14-.11-1.59-.73-3s-1.11-2.62,0-1.29a12.17,12.17,0,0,1,.39,1.51c.89.58,1.14-.29,1.3-1.06s.22-1.5,1.2-1c3.72,4.74,0,1.78,3.09,5.8.6-1,.36-3.1,0-4.8s-.71-3,.32-3.14l-.69-.22c-3.17-2.82-2.28-2.23-.82-1.51s3.55,1.54,2.09.13a27.92,27.92,0,0,0,3,2.22c.95-.16.89-1.17.3-2.28a17.58,17.58,0,0,0-2.76-3.62c.68.26,1.36.54,2,.82a1.81,1.81,0,0,0,1.72-1.08,4.07,4.07,0,0,1,.92-1.53c-2.15-.48-1.78-.87-5-.77,3.12-.37,4.29-1.18,4.32-1.93s-1-1.34-2-1.68-2.2-.49-2.49-.88.24-1,2.25-2.74c.14.21,2-.24,1.93-.46a15.64,15.64,0,0,0-2.79-.8c-3,2.16-1.72,1.46-4,3.21-2,1-3.51,1.74-3.61,1.6a21.51,21.51,0,0,0,3.46-2.29,25.91,25.91,0,0,0,2.78-2.72c-.87.73-1.92,1.41-2.81,2.14,2.34-2.34.82-1.25-.82.11-.82.67-1.7,1.38-2.18,1.72s-.56.33.12-.56l1.42-1.32c-1,.42-2.85,2.2-2.64,1.64,2.59-3.41,1.49-1.35,3.86-4-.35-.14-1.88,1.21-2.93,2.27s-1.59,1.75-.67-.17c.81-.92,1.07-.75,2-1.56a11.51,11.51,0,0,0,1.58-3.6c0-.46-.21-.46-.32-1v.13a11.13,11.13,0,0,0-.67-2.84c0,.48,0,1-.07,1.45-1.46,2.4-2.23,3.74-2.72,4.43s-.72.78-.95.73-.42-.21-.73.1a5.44,5.44,0,0,0-.93,2.89c.25-1.72.54-2.81.7-3.57a6.31,6.31,0,0,0,.21-1.56,15.34,15.34,0,0,1,0-3.67c-.35-1.41-1.36-2.9-1.09-4.26-.63,2-1.07,1.21-1.74.72s-1.48-.66-1.61,2.3c-.31-1.57-1.57.3-2.43-3.53-1,1-.55,1.59.08,2.16a4.37,4.37,0,0,1,1.67,2.19c-.3,1.49-.78,2-1.56,2.09s-1.87,0-3,0a3.89,3.89,0,0,0-2.92,1.11c-.56.71-.66,2,.63,3.5a6.42,6.42,0,0,0,1.76,2.36,16,16,0,0,0,2.6,1.67,26.85,26.85,0,0,0,5,1.93,25.26,25.26,0,0,1-3.75-.47,11.87,11.87,0,0,1-1.84-.56c-2.39.33-2,1.27-.18,1.81a13.24,13.24,0,0,0-4.24.55c.24.39,1.67.35,2.76.32s1.83,0,.79.59a26.61,26.61,0,0,1-6.32.3c1.62,1.06,4.73,1.3,6.39,1.54a7.75,7.75,0,0,1-3.14,1.07c-.95.09-1.85,0-2.78,0a9.25,9.25,0,0,0,3.2,1.66,4.57,4.57,0,0,0,2.17,0,6.56,6.56,0,0,0,2.5-1.2,6.28,6.28,0,0,1,.81-1.46c.33.12-2.85,2.39-3.74,2.47-1.76.41-1.75-.34-1-1a13,13,0,0,1,2.89-1.82c.37,0,.77.07,1.15.07,3.85-2.48,3.62-2.17,2.1-2.08a13.65,13.65,0,0,1-2.56,0c-.82-.1-1.42-.32-1.31-.57,2.22-.08,4.44-.27,6.63-.56a24.46,24.46,0,0,1-5.54,0,55.26,55.26,0,0,1,6.45-.18c.81-.05,1.1,0,1,0l-.54,0a2.49,2.49,0,0,1-.49,0h.31l.76,0h0l-.6-.1.6.1a2.26,2.26,0,0,1-.47-.14h0a2.64,2.64,0,0,1-.24-.12l-.88-.51-1.32-.77a14.25,14.25,0,0,1-3-2.31A46.2,46.2,0,0,1,991.9,548l-.08-.07,0,0s-.09-.09-.08-.07c-.7-.9-.32-.42-.86-1.1a9.7,9.7,0,0,1,.75.95l.06.08h0s0,0,0,0v0h0l.22.86h0s0,0,0-.08-.06-.26-.11-.44a12.06,12.06,0,0,1-.25-1.4l.37,1.89h0v0h0v-.29c0-.13,0-.16,0,0v.36h0a1.14,1.14,0,0,1-.06.29,2.12,2.12,0,0,1-.28.6,3.05,3.05,0,0,1-.52.64h0a1.43,1.43,0,0,1-.24.19l.05,0-.05,0,0,0h0a2.25,2.25,0,0,1,.26-.11h0l1.79-.63c2.53-.88,4.89-1.78,6.33-1.76-2.12.67-5.77,1.68-6.64,1.92.27-.09,1.79-.45.88-.16-.6.14-1.2.3-1.8.46l-.5.14.08,0,.8-.21c.35-.09.58-.14.5-.1l-1,.23-.24.06h0l-.12,0,.29-.06.09,0h.18l-.51,0H991l-.06,0c-.08,0,.15,0,.11,0a1.87,1.87,0,0,1-.26-.08l-.16-.06a2.4,2.4,0,0,1-.45-.23h0a1.85,1.85,0,0,1-.27-.19l-.06,0,0,0h0l.12.1c.33.28.78.67,1.4,1.25l-.38-.3-.89-.8-.43-.4h0l-.17-.18.06.06a.59.59,0,0,1-.12-.14h0a3,3,0,0,1,.26.66l0-.12a3.13,3.13,0,0,1,.11.46,5.35,5.35,0,0,1,0,.55v0c0,.71,0,1.39-.1,1.83,0-.66.06-1.14.08-1.59v-.07c0-.07,0-.15,0-.08v0l0,.25c0,.11,0,0,0,0a.78.78,0,0,1,0,.23.51.51,0,0,1,0,.09s0,0,0,0v0l0,0h0l-.21.3h0s-.1.12,0,0l0,0,.07-.06,0,0,0,0,0,0,.11-.07.11-.06c-.23.13,0,0-.17.11l.13-.09h0l.38-.17.13,0c-.13,0-.06,0,0,0l.35-.09-.13,0a2,2,0,0,1,.31-.05h-.09a3.36,3.36,0,0,1,.56,0h.07a1,1,0,0,1,.25,0h0l-.14,0h.12l-.16,0c.07,0,.06,0,0,0l.16,0h0l-.1,0a2.32,2.32,0,0,1-.32-.14l.1,0s-.18-.1-.31-.16l-.12-.07s-.27-.21-.3-.22l-.16-.13a1.52,1.52,0,0,1-.18-.18l-.1-.09a1.83,1.83,0,0,1-.21-.27c.05.05,0,0,.1.13l-.11-.15a1.44,1.44,0,0,1-.13-.23h0s0,0,0,0,0-.1,0,0a.36.36,0,0,1,0,.14h0v-.29h0v0a.17.17,0,0,1,0-.07.55.55,0,0,1,0-.12.22.22,0,0,1,0,.08.77.77,0,0,1-.1.21l0,0c-.11.15-.06.11-.28.4-.13.14.12-.15,0-.06l-.18.19a2.61,2.61,0,0,1-.35.33l.05,0a3.83,3.83,0,0,1-.63.42h0a1.07,1.07,0,0,1-.24.12l-.06,0h0l.29-.09.56-.15-.87.25h0l.77-.22a14.54,14.54,0,0,1,1.58-.37c-.54.15-1.06.29-1.61.42l-.68.15h.07l-.1,0,.21,0h0a3,3,0,0,1,.77,0h-.05c.26,0,.23,0,.48.06l.08,0,.39.11a1.3,1.3,0,0,1,.4.18,1,1,0,0,0-.29-.14l-.16-.05-.19-.07a3.38,3.38,0,0,1,.57.21l-.18-.08a1.16,1.16,0,0,1,.27.14.55.55,0,0,1,.2.12l0,0s0,0,0,0h0l-.07-.09c0-.06-.06-.11-.08-.14s0,0,0,0l0,.07,0-.05V551a1.91,1.91,0,0,1,0-.3c0,.2,0-.15,0-.12l0-.16a2.49,2.49,0,0,1,.14-.39c0-.09,0,.11,0,.1l.13-.29a1.73,1.73,0,0,1,.12-.21l-.11.18a2.53,2.53,0,0,1,.31-.46l0,0,.11-.13-.05,0h0a3.46,3.46,0,0,1-1,.47h0l-.25,0h0a1.07,1.07,0,0,1-.27,0h-.16s0,0,0,0h0l.33.12h0a.31.31,0,0,1,.09.07h0a2.66,2.66,0,0,1,.68.9,3,3,0,0,1,.18.51l0,.17v0a.39.39,0,0,1,0-.11v0s0-.17,0-.3v0a2.6,2.6,0,0,1,.23-.68,1.28,1.28,0,0,1,.16-.26.73.73,0,0,1,.09-.13l.08-.08h0l0,0h0c.05,0,0,0,0,0h0l0,0a1.12,1.12,0,0,1-.19.09h0c-.09,0-.19.08-.33.11h0a2.61,2.61,0,0,1-.93.07h.05a.62.62,0,0,1-.24,0l.11,0h0l.22.12s0,0,0,0l.27.17-.07,0a1.3,1.3,0,0,1,.22.17,3,3,0,0,1,.3.28,1.63,1.63,0,0,1,.14.18l0,0a2.57,2.57,0,0,1,.17.26l.07.14h0l-.07-.14,0-.07s.07.13,0,0a.93.93,0,0,1,.12.24h0v0a0,0,0,0,1,0,0h0l.05.39h0v0h0l-.05-.4h0l.05.4h0v0a.62.62,0,0,1,0-.12l0-.09a2.53,2.53,0,0,1,.41-.84l.09-.11-.1.11c.13-.15.34-.39.36-.4l.08-.07h0c.24-.21.11,0-.65.18l.09,0a2.82,2.82,0,0,1-1.23,0l-.1,0h0s-.1-.05,0,0a.35.35,0,0,1,.09.07h0l4.62,4,.13,0,.26.06.59.14c.41.11.9.24,1.42.43,1.84.39-1.11-2-3.28-3.86l4.06,2.61c-1.39-1.25-2.82-2.46-4.29-3.61-1.53-1.41,1.15-.12,3.59.65a7.27,7.27,0,0,0,2.82.52c.46-.16.23-.74-1.39-1.85-1-.35-2-.73-3.07-1.11.38-.08.09-.69.12-1s.41-.64,2.21-.09l-1.6-.62c-.52-.22-.77-.35.1-.35l2.47.52a12.62,12.62,0,0,0-.93-.87l-.49-.38a3.19,3.19,0,0,1-.5-.43,8,8,0,0,0-1.05-.89,13.57,13.57,0,0,1-1.13-.8,4.65,4.65,0,0,1,1.83-2.27,14.82,14.82,0,0,1,2.95-1.78,3.11,3.11,0,0,0,2-3,6.55,6.55,0,0,0-1.24-3.34,12.22,12.22,0,0,0-5.15-4.06c-.24-.07-.52-.14-.74-.18l-.54,0a7.56,7.56,0,0,0-1.16,0,9,9,0,0,0-2.41.59,8.22,8.22,0,0,0-1.12.53.86.86,0,0,0-.37.32l-.27.34a9.16,9.16,0,0,0-.87,1.47,6.42,6.42,0,0,0-.52,4.91c.28,0,.69.35,1,1a7.92,7.92,0,0,1,.56,2.92,5.33,5.33,0,0,0-.38,1.36l.51,2.75.14.69c0,.1,0,0,0,.06v0c.54,2.48,1.06,4.88,1.56,7.22l.14.64.07.31v0l-1.77-8.2h0l0-.06c0-.05,0-.12-.06-.22s0-.22-.06-.38a2.42,2.42,0,0,1,0-.27V545a.61.61,0,0,1,.06-.37c0-.09,0-.08.05-.13s0,0,0,0l.06,0,0,0s0,0,0,.12c0-.12,0-.1.08-.16a.17.17,0,0,1-.13.08,1,1,0,0,1-.3.09h-.18l-.3,0a2.32,2.32,0,0,1-.59-.06l.11,0-.45-.05c-.7-.11.67.12-.49-.09-.69-.2-.55-.1-1.47-.4-.13,0,.06,0,.44.14a23.86,23.86,0,0,1-2.68-1c-.41-.16-1.07-.44-1.61-.72l-.79-.39-.67-.36-.6-.33c.3.16,0,0-.34-.21l-.07,0,.25.16.59.42c.36.26.73.54,1.09.83s1,.77,1.37,1.13l-.42-.37.59.52.06,0h0l-9-7.87h-.14l-.34,0c-.22,0-.45-.06-.68-.11a12.1,12.1,0,0,0-2.85-.36,21.37,21.37,0,0,1,4.64,5.06,16.18,16.18,0,0,0,3.4,3.94,13.58,13.58,0,0,1-6.1-2.71c-1.47-1.14-2.71-2.62-5.46-3.63a8.53,8.53,0,0,1,3.75,3.71,5,5,0,0,0,3.64,2.57,23.94,23.94,0,0,0-3.15.11,38.36,38.36,0,0,1-4.11-.38c3.75,1.15,4,1.51,3.86,1.91s-.68.92,1.64,1.75a20.94,20.94,0,0,1-4.92.59c-1.06,0-1.37.27-.23,1.46a4.3,4.3,0,0,1-3.48-.18A6.24,6.24,0,0,1,961.25,548.63Zm34.25,18.18,0,.09-.64.42A4.05,4.05,0,0,0,995.5,566.81Zm2.63-1.11a2.84,2.84,0,0,0-1.19.34c-.67-1.4-1.18-2.93-.94-2.93C996.28,564.11,997.17,564.72,998.13,565.7Zm-7-13.75Z" transform="translate(-911.84 -466.06)"/><polygon class="cls-1" points="79.24 85.9 79.24 85.9 79.24 85.9 79.24 85.9 79.24 85.9"/><polygon class="cls-1" points="79.14 84.06 79.13 84.06 79.14 84.06 79.14 84.06"/><polygon class="cls-1" points="94.83 64.66 94.12 65.56 95.02 65 94.83 64.66"/><path class="cls-1" d="M1001.53,542a6.3,6.3,0,0,0,.81-.83A8.13,8.13,0,0,0,1001.53,542Z" transform="translate(-911.84 -466.06)"/><path class="cls-1" d="M998.12,537.74a14.69,14.69,0,0,0-.1-1.86A10.16,10.16,0,0,0,998.12,537.74Z" transform="translate(-911.84 -466.06)"/><path class="cls-1" d="M993.27,533.92c-.16.78-.23,1.37-.3,1.91,0,0,0,0,0,0Z" transform="translate(-911.84 -466.06)"/><path class="cls-1" d="M968.69,555.65a.46.46,0,0,0-.25-.18C967.49,555.11,967.89,555.41,968.69,555.65Z" transform="translate(-911.84 -466.06)"/><path class="cls-1" d="M990.44,562.32a11.22,11.22,0,0,1-.42,2.14C990.34,564.81,990.59,564.88,990.44,562.32Z" transform="translate(-911.84 -466.06)"/><path class="cls-1" d="M978.29,525.9l0,.07a2.1,2.1,0,0,1,.26-.13Z" transform="translate(-911.84 -466.06)"/><path class="cls-1" d="M989.21,564.37c.28.91.58.72.81.09C989.75,564.16,989.49,563.69,989.21,564.37Z" transform="translate(-911.84 -466.06)"/><path class="cls-1" d="M978.24,557.52l.14.53a3.7,3.7,0,0,1,.62-.37C978.75,557.64,978.5,557.58,978.24,557.52Z" transform="translate(-911.84 -466.06)"/><path class="cls-1" d="M979,557.68c.25.05.49.08.76.15C979.58,557.59,979.46,557.47,979,557.68Z" transform="translate(-911.84 -466.06)"/><path class="cls-1" d="M981.44,558.05a14.33,14.33,0,0,1-1.68-.22C980,558.18,980.31,558.72,981.44,558.05Z" transform="translate(-911.84 -466.06)"/><path class="cls-1" d="M977.67,547.34l-1.62-.21A11.41,11.41,0,0,0,977.67,547.34Z" transform="translate(-911.84 -466.06)"/><path class="cls-1" d="M977.58,544.81a15.64,15.64,0,0,1-1.94.79c-.76.33-1.36.81-.88,1.34l1.29.19c-1.2-.31-.18-.77.83-1.13S978.85,545.4,977.58,544.81Z" transform="translate(-911.84 -466.06)"/><path class="cls-1" d="M991.65,547.74c0-.07,0,0,0,0s0,0,0,0l0,0h0v0Z" transform="translate(-911.84 -466.06)"/><path class="cls-1" d="M991.86,548.69h0S991.84,548.74,991.86,548.69Z" transform="translate(-911.84 -466.06)"/><path class="cls-1" d="M989.59,549.33h0Z" transform="translate(-911.84 -466.06)"/><path class="cls-1" d="M997.88,564.3c.56.66,1.13,1.31,1.72,2q-.86-1.68-1.74-3.33C997.89,563.38,997.89,563.83,997.88,564.3Z" transform="translate(-911.84 -466.06)"/><polygon class="cls-1" points="77.73 83.44 77.72 83.41 77.76 83.56 77.73 83.44"/><path class="cls-1" d="M989.74,549.38v0S989.74,549.45,989.74,549.38Z" transform="translate(-911.84 -466.06)"/><path class="cls-1" d="M988.92,550.86l.34,0Z" transform="translate(-911.84 -466.06)"/><polygon class="cls-1" points="78.9 84.93 78.88 85.01 78.92 84.87 78.9 84.93"/><path class="cls-1" d="M1081.33,621.69c.59,1.24,1.83,4.1,2.05,3.34-.58-1.67-1.1-3.37-1.55-5.08A12.65,12.65,0,0,0,1081.33,621.69Z" transform="translate(-911.84 -466.06)"/><path class="cls-1" d="M1086.5,630.3a40.09,40.09,0,0,1,.55-5.11,31.67,31.67,0,0,0,.56-6.81l-1.16,4.12a15.46,15.46,0,0,0-.39,4.91c-.13.32-.32-.09-.57-.8a18.46,18.46,0,0,1-.7-2.7c.06.68-.18.44-.39.46s-.38.27,0,1.88c1.84,3.73,1.43,4,1.92.52C1086.54,627.94,1086.45,629.32,1086.5,630.3Z" transform="translate(-911.84 -466.06)"/><path class="cls-1" d="M1091.21,631.23h0Z" transform="translate(-911.84 -466.06)"/><path class="cls-1" d="M1086.63,634.87v0Z" transform="translate(-911.84 -466.06)"/><path class="cls-1" d="M1086.64,634.88h0Z" transform="translate(-911.84 -466.06)"/><path class="cls-1" d="M1091.21,631.23h0Z" transform="translate(-911.84 -466.06)"/><path class="cls-1" d="M1096.56,621.27a3,3,0,0,0-1.34.7,2.76,2.76,0,0,1,.77-.1Z" transform="translate(-911.84 -466.06)"/><polygon class="cls-1" points="179.26 165.27 179.25 165.28 179.24 165.29 179.26 165.27"/><path class="cls-1" d="M1087.1,633.85h0Z" transform="translate(-911.84 -466.06)"/><path class="cls-1" d="M1085.89,633.53l0,0Z" transform="translate(-911.84 -466.06)"/><path class="cls-1" d="M1091.29,631.21Z" transform="translate(-911.84 -466.06)"/><path class="cls-1" d="M1071,649.91c.2-.25.31-.42.47-.64C1071.15,649.58,1070.94,649.82,1071,649.91Z" transform="translate(-911.84 -466.06)"/><polygon class="cls-1" points="171.89 165.06 172.13 165.1 172.76 165.18 173.03 165.21 173.03 165.21 173.03 165.21 173.04 165.21 171.89 165.06"/><path class="cls-1" d="M1087.8,634.34h0Z" transform="translate(-911.84 -466.06)"/><path class="cls-1" d="M1084.72,635.94h0Z" transform="translate(-911.84 -466.06)"/><path class="cls-1" d="M1096.45,622a.77.77,0,0,1,.38.3C1096.77,622,1096.68,621.91,1096.45,622Z" transform="translate(-911.84 -466.06)"/><path class="cls-1" d="M1084.72,636h0Z" transform="translate(-911.84 -466.06)"/><path class="cls-1" d="M1091.17,616.58c-.07.76-.13,1.36-.2,2C1091,618.08,1091.09,617.52,1091.17,616.58Z" transform="translate(-911.84 -466.06)"/><path class="cls-1" d="M1088.47,634.29h0Z" transform="translate(-911.84 -466.06)"/><path class="cls-1" d="M1088.88,622.69c0-.35.07-1-.06-.37,0,.22,0,.37,0,.55C1088.86,622.26,1088.92,622,1088.88,622.69Z" transform="translate(-911.84 -466.06)"/><path class="cls-1" d="M1087.3,622.52c0,.33-.06.6-.08.91a2.25,2.25,0,0,1,.08-.24Z" transform="translate(-911.84 -466.06)"/><path class="cls-1" d="M1103.43,643.16a17.93,17.93,0,0,1-3.72-1.75,6.68,6.68,0,0,1,2.27,2.52C1102.33,644.5,1102.62,644.55,1103.43,643.16Z" transform="translate(-911.84 -466.06)"/><path class="cls-1" d="M1094.91,623.18c.79-.82,1.24-1.17,1.54-1.23a1.39,1.39,0,0,0-.46-.08A9.14,9.14,0,0,0,1094.91,623.18Z" transform="translate(-911.84 -466.06)"/><path class="cls-1" d="M1084.49,657.9l-.17-.69C1084.34,657.65,1084.4,657.89,1084.49,657.9Z" transform="translate(-911.84 -466.06)"/><path class="cls-1" d="M1066.36,641h-.57C1065.72,641.05,1065.86,641.07,1066.36,641Z" transform="translate(-911.84 -466.06)"/><path class="cls-1" d="M1083.5,657.78c.15-1.58.21-2.5.23-3.11,0,.36-.09.66-.17,1.15Z" transform="translate(-911.84 -466.06)"/><path class="cls-1" d="M1099.67,641.39l0,0Z" transform="translate(-911.84 -466.06)"/><path class="cls-1" d="M1092.45,658.14c1.07-.2.9-1.68.4-3.49s-1.29-4-1.61-5.68c.57-1.06,1.08-.1,1.73,1.45a28,28,0,0,0,2.21,5,10.21,10.21,0,0,0,.42-4.6c-.1-1.65-.3-3,.18-3.16a6.58,6.58,0,0,1,1.33,2.17c-.53-2.4.51-3.18,1.34-4.16a3.37,3.37,0,0,0,.91-1.86,4.41,4.41,0,0,0-1-3.11,9,9,0,0,1,1.32.69,58.53,58.53,0,0,1-6.59-4.74c.12-.23-.51-1-.79-1.33s-.17-.41,1.54.48c-.25.2,1.05,1.05,2,1.87a15.15,15.15,0,0,0-1.08-1.42c2.55,1.11,2.88,1.53,2.93,2s-.1.91,1.57,2.1a11.44,11.44,0,0,0-1.91-4.07c-.77-1.18-1.31-1.94-.44-2.17a6,6,0,0,1,2.49.94,1.85,1.85,0,0,1,.59,1.1,1.15,1.15,0,0,0,.51.88,4.25,4.25,0,0,0,2.37.28,15.43,15.43,0,0,1-2.86,1.35,25.13,25.13,0,0,1,3.53,1.14c.43.24.28.42.14.6s-.26.38.21.7a12.31,12.31,0,0,0,3.83,1.31,4.38,4.38,0,0,0,1.22-4.68c-.39-1.23-.88-2.14.13-3.73a11.36,11.36,0,0,0-3.7-.65,16.07,16.07,0,0,1-3.7-.58c-2.56-1.66.75-2.47,3.86-3.67a17.15,17.15,0,0,0,2.15-.94A4.12,4.12,0,0,0,1109,627c.53-.86.12-1.92-2-2.62a45.91,45.91,0,0,0-6.33.7c-1.82.17-2.73.07-1.85-1.91a48.25,48.25,0,0,1,5.74-2.4c-1-2.15-3.16-1.2-4.83-.48a4.64,4.64,0,0,1-2.06.6c-.46-.05-.62-.48-.52-1.76a2.64,2.64,0,0,1,2.4-.52c.56.14,1,.47,1,0,.89-2.6-.14-2.32-1.37-1.44s-2.76,2.3-3.33,1.86c1-1.51,2-3,3-4.56a7.23,7.23,0,0,0-2.83-.47,11,11,0,0,0-2.8.56c-1.78.59-3.26,1.47-4.4,1.78.38-1.58,1.19-3.16.85-4.92-2,1-3.55.79-5.53,0l-3.27-1.34a31.58,31.58,0,0,0-3.95-1.25,41.55,41.55,0,0,0,.26,5c-.34.1-1.6-1.58-1.6-2.6-1.25-.37-.92.32-.26,1.32a10.39,10.39,0,0,1,1.7,3.37c-.51.65-2.47-1.67-2.59-3.25-.24,1.3-.48,2.71-.69,4s-.46,2.67-.75,3.75l-.12.4,0,.29a3.12,3.12,0,0,1-.14.51,1.69,1.69,0,0,1-.57.76,4,4,0,0,1-2.73.36c-.34-.35-.67-.71-1-1.07-1.3.32.6,1.92,2.34,3.15s3.26,2.19,1,1.91l-.69-.51c-1.48,1-1.33,2.66-1.55,3.82a2.56,2.56,0,0,1-1,1.65,11.31,11.31,0,0,1-3.48,1.51c3.39.12,2.65.63,2.27,1.2s-.4,1.06,4.28.51c-2.26.79-3.79,1.24-5.12,1.73a10.83,10.83,0,0,0-3.8,2.28c-.31.6,5.88-.73,6.93-.6l-4.74,1.32c1.72-.23,3.44-.5,5.14-.83q-2.78,1-5.53,2.08l1.35.06a12.2,12.2,0,0,1,3.34-1.46c1.16,0,.46.54-.79,1.34a31,31,0,0,1-4.24,2.27c.79,0,1.57,0,2.35,0h0l11.21,10.44a19.64,19.64,0,0,0,2.33-1.39c-.55,1.91-1.38,2.4-2.31,3.43,1.81-2.08,1.49-.84,1.27.5s-.48,2.73,1.09.71c0-1.15.73-2.85.94-3.82a2.93,2.93,0,0,0,1.72,2.73,2.72,2.72,0,0,0,2.62-.61c-.08,1.13-.18,2.26-.29,3.4a4.88,4.88,0,0,0,2.43,0,9.05,9.05,0,0,0,2.3-.94c.71-.4,1.42-.85,2.08-1.26a10.11,10.11,0,0,1,2-1c-1.57-1.1-3.17-6.8-2.88-7.51.71,1.59,1.43,3.17,2.18,4.75a5.92,5.92,0,0,0-1.08-2.46,8.07,8.07,0,0,1-1-3.08c.86.28,3,5.18,3,7,.15-.72.26-1.43.35-2.14a38.59,38.59,0,0,1,1.61,4.06c-.44-1.58.63-.64,1.67-.07s2.06.81.91-1.79l.9,1.28.24-.16a6.73,6.73,0,0,0,2.29-2.88,15.28,15.28,0,0,1,1.53-2.94c-3.27-3.09-1.93-3.07-4.4-5.81a31.65,31.65,0,0,0,3.78-.2c1.34-.24,2.56-.79,2.84-1.94a4.58,4.58,0,0,0-2.5-2,16.85,16.85,0,0,1-3.1-1.43,6.51,6.51,0,0,0,3.83.42,2.9,2.9,0,0,1,2.8.77,10.88,10.88,0,0,0,0-2.51,7.36,7.36,0,0,0-.84-2.45l-3.85-12.59h0c-.61.09-1.53.12-2.73.32a13.58,13.58,0,0,1-2.56,2.84c-.69.23.73-1.74,2.14-3.1l.38-.23c-1.53.65-1.94.28-2-.66s.28-2.49.43-4,.13-3-.32-3.72-1.32-.62-2.69,1.11l.29-.33a28.14,28.14,0,0,0-3.54,3.34c-.27-.47.08-1.16.57-2a7.57,7.57,0,0,0,1.19-3.29c-2.26,2.83-2.85,2.43-3.57,1.72s-1.42-1.66-2.57.51c0-6.09-1.83-6-3.37-5.18a6.7,6.7,0,0,1-2.3,1c-.76,0-1.55-.48-2.58-2.23l.71,2.76c0,2.85-1-1.45-1.7-2,.62,2.12,1.25,2.34,1.25,3.92a5.47,5.47,0,0,1-3.87,2l-1.51.17-6.06,6.06a46.88,46.88,0,0,0-6.93,8.32,21.16,21.16,0,0,0-3.43,10.32c.07,1.83,3.77,1.23,6.68.71a11.06,11.06,0,0,1,3.32-.32c.6.17.45.66-.72,2.13-1.72.5-3.47.92-5.23,1.28a14.82,14.82,0,0,1,4.58,2.73c.56.51,1.09,1.07,1.62,1.65s1,1.16,1.59,1.77a13.38,13.38,0,0,0,4,3.12,7.93,7.93,0,0,0,2.6.73,7.09,7.09,0,0,0,2.87-.31l3.23.7.09-.36c-.1.69-.21,1.4-.29,2l-3.52-.75c-.26.41-.54.67-.86.55a3,3,0,0,0,.31,1.21l3.84.83c-.06,1.95.63-1.17,1-3.91.06.36-.33,2.81-.45,4.4-.14,2.27,1-4.82.57-1-.07.62-.2,1.23-.26,1.52.32-1.83.38.53.83-3.88,0,2.13.73-1.89.61.73.74-4.9.15,2.42,1-4.52-.9,7.18-.27,5.84.31,2.49-.32,2.16-.14,2.27-.57,5.26.2-.08.53-1.39,1-5.08-.71,8.63,1.53-6.84.37,4.2a62.8,62.8,0,0,1,2.55-8c-.9,7.16-.63.64-1.53,8.16.66-2.32,1.45-6.71,1.87-7.44l12.62-5.09a2.06,2.06,0,0,1,1.12-1.24c.63-.07,1.24.43,1.77,1.11s1,1.54,1.36,2c-.09-2.46.83-3.78,1.51-5.55a6.15,6.15,0,0,0,.51-2.62,4,4,0,0,0-1.39-2.59,3.86,3.86,0,0,1,1.88.86c-.15-.65,1.19-1.45-2.09-1.54l.85.64c-2.42.25-4.83-.61-7-1.11a20.8,20.8,0,0,0-5.39-.7c4.71,0,5.29-.32,6.15-.84a6.4,6.4,0,0,1,2.06-.75,26.63,26.63,0,0,1,5.91-.44,7.77,7.77,0,0,0-4.42-.13c.57-.53,1.79-1,4.34-.84a3.12,3.12,0,0,0-1.74-.71,12,12,0,0,0-1.78-.06c-1.11,0-2,0-2.13-.56a30.18,30.18,0,0,1,4-.73c-1.6,0-3.18.15-4.24.13s-1.58-.13-1.15-.82c.9-.33,2-1,2.09-.65-.59-.75-2.78-.52-4.46-.13s-2.89.67-2.09-.71c5.72-3.9,1.5-1.77,6-5.69-.69.1-1.36.24-2,.4-.62.75-1.25,1.5-1.89,2.23-.21-.32-1.22.15-2,.54s-1.38.67-.94-.25c.66-.51,1.34-1,2-1.48a17.47,17.47,0,0,0-1.77,0,23.45,23.45,0,0,1-.91,2.19,24.57,24.57,0,0,0-3.25,3.44c-.84,1-1.27,1.52-.94.74.44-.44-.18-.23,1.57-3.3h0c-1.29,1.43-2.42,3.06-2,1.64.82-1.73,3.27-5.74,3.82-6.88-1.39,2.08-1.89,2.21-2.42,2.39s-1.12.41-2.17,2.86c.52-1.14,1.65-4.07,1.81-4.69-.57,1.23-1.12,2.47-1.63,3.73a16.16,16.16,0,0,1,1.06-4.31c-.49-.54-.88,1.33-1.25,2.86s-.67,2.76-.73,1a10.73,10.73,0,0,1,.58-1.45c-.37-1-1.25-.45-1.85.1s-1.15,1.14-1.82.19c-1-6,1.21-1.55.45-6.58-1.46.59-2.62,2.61-3.32,4.41s-.87,3.22-2,3.1l.63.39c2.3,4.09,1.28,2.62-.18,1.38l-2.67,5c-1.5.12-3.06.45-1.27.69-.62-.12-4.7-.19-3.76-.14-.68.48-.14,1,.93,1.43a21.41,21.41,0,0,0,4.06,1l-2.16.28c-1.82.85-.82,1.5-1.6,2.3a19.11,19.11,0,0,0,4.83-1.31c-2.85,1.29-3.74,2.13-3.7,2.54s1,.42,2,.28a7.4,7.4,0,0,1,2.32-.21c.27.17-.22.78-2.12,2.57a4.13,4.13,0,0,0-1.74.86,19.09,19.09,0,0,0,2.4-.15c2.81-2.4,1.63-1.54,3.79-3.45a24,24,0,0,1,3.29-2.12,32.11,32.11,0,0,0-3.22,2.61c-1.06,1-2,2-2.7,2.78.83-.78,1.81-1.56,2.66-2.34-2.28,2.38-.86,1.18.7-.27s3.3-3.08,1.89-1.37L1084.5,638c.62-.41,1.77-1.46,2.23-1.82l1.28.25c0-.23,0-.32.11-.21,1.33,2.88.94,2.59,1.07,3.6l-4.85-1c-.26.24-.63.61-1.24,1.28,0,0,.08,0,.14,0l6.5,1.3c.23-.66-.2-2.59-.63-3.82s-.78-1.78.57-.31c.51,1.13.21,1.31.47,2.51,1.5,2.06,2.34,2.65,2.79,2.84s.65-.1,1.29-.11l-.15,0a12.36,12.36,0,0,0,3.45-.23c-.5-.1-1-.23-1.48-.37-1.75-2.21-2.81-3.37-3.32-4.07s-.53-1-.41-1.18.29-.4.06-.75a5.38,5.38,0,0,0-2.66-1.42,31.05,31.05,0,0,1,3.36,1.36,7.24,7.24,0,0,0,1.5.52,15.08,15.08,0,0,1,3.59.73c1.47-.14,3.1-.68,4.39-.18-1.82-.91-1-1.14-.41-1.6s1-1.13-1.91-1.68c1.57-.06.12-.88,4-.89-.65-.63-1.32-.46-2.08-.21a7.25,7.25,0,0,1-2.58.6c-2.68-.63-1.15-1.29,0-2.51.57-.6,1-1.23.88-1.69s-.94-.76-2.8-.43a13.55,13.55,0,0,0-5.55,1.39,34.42,34.42,0,0,0-4.72,2.46,35.94,35.94,0,0,1,3-2.3,15,15,0,0,1,1.64-1c1.61-1.74.72-2.08-.85-1.11a16.48,16.48,0,0,0,2.76-3.27c-.42-.1-1.43.92-2.2,1.68s-1.29,1.31-.89.18a28.4,28.4,0,0,1,4.33-4.58,9,9,0,0,0-2.87,1.48c-1,.66-1.91,1.41-2.55,1.9a8.41,8.41,0,0,1,1.58-2.91c.62-.72,1.33-1.25,2-1.91a7.21,7.21,0,0,0-3.14,1.05,6,6,0,0,0-2.46,4,10,10,0,0,1,.19,1.61c-.28.15.63-3.65,1.2-4.32s.85-1,1.06-.9.22.45.15,1a15.58,15.58,0,0,1-1,3.25,9.41,9.41,0,0,0-.79.75c-1.32,4.4-1.35,4-.37,2.87a16,16,0,0,1,1.79-1.8c.62-.51,1.18-.78,1.26-.54-1.56,1.58-3,3.24-4.44,5a26.3,26.3,0,0,1,4-3.84c-1.11,1.35-3.86,3.86-4.56,4.56l-.2.21,0,0,.15-.14.1-.08-.24.2-.11.09,0,0h0a.15.15,0,0,0-.06,0l0,0,.1-.08-.11.08h0l0,0a1.4,1.4,0,0,1-.24.16l-.06,0h0l0,0h0l.28-.12a44.13,44.13,0,0,1,6.21-2.26q-2.79,1.14-5.65,2.1l-.71.23-.08,0h0l.06,0,2.32-.5c-2.17.52-1.65.38-1.55.41h-.08c.35,0,.78,0,1.43,0l-1.37,0h.09a1.6,1.6,0,0,1,.29.05h0l.21,0,.17.08.07,0s0,0,0,0a.77.77,0,0,1-.15-.32l3.92-2,.06-.06h0l.1-.1,0,0,0,0,0,0h0l.13-.08-2.32,1.35a38.47,38.47,0,0,1-5.79,3.1c1.93-1.09,5.26-2.89,6.07-3.31-.26.15-1.64.84-.82.37l1.65-.86.82-.44.4-.22h0l-.07,0-.3.16c-.83.44-1.81,1-1.66.85l2-1.06h0l0,0h0l-.48.1-.35.06a1,1,0,0,1,.26-.07l.29-.05.16,0h-.29l-3.38,1.94-.09-.11s0-.08,0-.07l0,0h0v0s0,.09,0,.13v-.07a.66.66,0,0,1,0,.14s0,0,0,0a1.79,1.79,0,0,1-.07.48,2.22,2.22,0,0,1-.17.48l0-.12a2,2,0,0,1-.19.41,2.75,2.75,0,0,1-.21.33h0l0,0s0,0,0,0l.31-.4c.19-.25.37-.46.52-.63l-.34.44-.56.68h0v0s0-.06,0,0h0l-.06.07h0l0,0s0,0,0,0l.16-.12.12-.07h0a2.69,2.69,0,0,1,.46-.22l-.11,0,.18-.07-.06,0,.12,0,.08,0a1.3,1.3,0,0,1,.33-.08l-.23,0,.18,0h0c.29,0,.11,0,.38-.06h.24a.4.4,0,0,1,.14,0h0a.44.44,0,0,1-.21-.15l4.59-18.54,0,.19c0,.38-.07.71-.1,1l-4.45,17.36h0l4.05-14.14c-.08.47-.21,1.2-.4,2.34l.2-.69-3.85,12.49a.27.27,0,0,0,.11.1.44.44,0,0,1-.1-.08.57.57,0,0,0,.13.1h0a.65.65,0,0,1-.12-.11l3-5.57c-.16.72-.28,1.07-.18-.38l1.15-9.38c.2-4.22-1.15,4.75-1.27,2.34l-.07,1.64c-.51,3.72-.31.49-.63,2,.39-3.14.45-4.29.63-6.24-.27,2.32-.27-.25-1.08,6l.33-4.15c-.13-1.73-1.48,8.89-1.66,7.78.51-3.39.64-5.63,1.15-8-.1,0-.13-.63-.4,1.55.18-2-.81,4.19-.54,1.2a40.27,40.27,0,0,1-.72,4.37c.08-.66.19-1.54.19-1.54-.19,1.54-.45,2.08-.77,5.56.88-9.82-1,.6-.25-7.83a8.08,8.08,0,0,1-1,2.2c.13-.94.2-1.57.2-1.24.06-2.95-1.29,9-1.22,5.69.45-5.09.51-2.72.64-4.65,1-8.67-.07-1.83-.14-3l-.94,10.66v0h0a1.59,1.59,0,0,1,.11-.18h0a1.62,1.62,0,0,1,.3-.27l0,0,.07,0,.07,0,0,0,.07,0H1085a1.22,1.22,0,0,1-.35-.06,1,1,0,0,0,.28.06,1.22,1.22,0,0,1-.25-.05l.08,0a1,1,0,0,1-.23-.07l0,0,.06,2.71c0,.06.06.16.08.21a2.41,2.41,0,0,1,.06.5s0,0,0,0V636h0v0h0l0-.06h0s.07-.15.11-.21,0,0,0,0a2,2,0,0,1,.32-.4h0l.06-.05h0l.41-3h-.06a1.43,1.43,0,0,1-.42-.18s-.16-.11-.21-.16h0c-.14-.12-.18-.18-.18-.19v0a1.68,1.68,0,0,1,.15.59s0,0,0,.05a1.38,1.38,0,0,1,0,.14v0a1.35,1.35,0,0,1,0,.18h0a.18.18,0,0,1,0,.06l7.61-.92h0a11.66,11.66,0,0,1-1.22.4l-.6.15h0a9.83,9.83,0,0,1-1.53.22h.14a8.15,8.15,0,0,1-.82,0h-.1a5,5,0,0,1-1.46-.21l.06,0a1.66,1.66,0,0,1-.29-.1l-.11,0-.07,0h0l-1-.81h0l0,0,0,0s0,0,0,0a.51.51,0,0,1,.12.18l0,0a1,1,0,0,1,.09.18,1.1,1.1,0,0,1,.1.29.74.74,0,0,1,0,.16v0c0,.19,0,.21,0,.2h0s0,0,0,0v0c0,.07,0,.06,0-.05h0l0-.07a.24.24,0,0,1,0-.12,1.47,1.47,0,0,1,.12-.3h0l0,.08,0,0h0l-.07.21.08-.24a.76.76,0,0,1,.07-.13,2.3,2.3,0,0,1,.26-.4c.22-.27.44-.31.31-.27l-.06,0,.06,0s-.15.06-.21.06h0l-.63,0h.16l.17.05h0c.45.13.09.17-.27-.55l.05.09a3.53,3.53,0,0,1-.39-1.26c0-.2,0-.19,0-.27a.41.41,0,0,1,0,.19,1.48,1.48,0,0,1-.08.32l0,0c0,.07,0,.16-.09.24a4.3,4.3,0,0,1-.25.48,1.18,1.18,0,0,1-.17.24c-.08.08-.1.13-.17.2l0,0a.92.92,0,0,1-.21.17l0,0,0,0h0l-.07,0,.05,0h0l.12,0a.85.85,0,0,1,.34,0l-.14,0h-.13l-.66-.08c-3.7-.44-7.42-1-10.88-1.47s-6.74-.49-9.39,1.35a22.56,22.56,0,0,0,4.65,2.08,31.37,31.37,0,0,0-3.47,1.27,16.85,16.85,0,0,1-.44-2.13c-1.67.7-1.72,1.3-1.09,1.68a10,10,0,0,0,3.09.94c-1.84.58-3.07,1.28-3.59,2.08a28.15,28.15,0,0,0,7.54.2,20,20,0,0,1-4,1.38c-1.22.37-2.28.85-2.58,2.11,1.8-.06,3.11-1.11,4.39-1.89a5.82,5.82,0,0,1,3.8-1.18c-2.55,2.39-5,3.77-1.8,3.33-1.47,1.24-2.64,1.71-3.71,1.59,2.69,0,2.93,2.31,6.2,0-1.18,1.8-.25,2.32.24,2.83s.61,1.13-1.49,4c.64-.58,1.83-1.44,2.89-2.19a7,7,0,0,1,2.4-1.35c-2.67,3.34-2.08,3.84-1.36,4.41s1.58,1.22-.27,5.35c2.07-3.25,3.11-3.79,4.16-3.93s2.09.08,3.11-1.91c-.17.59-.53,1.77-.6,1.36.74.76.72,3.06,1.24,4.55.76-6.2,2.07-7.58,2.52-11.46a24,24,0,0,1,.16,6.68,29.91,29.91,0,0,0-.46,6.49,13,13,0,0,1,.92-5,8.11,8.11,0,0,0,.39-4.35c.47,1.85.72,2.28.9,2.9s.34,1.43.89,4c-.36-3.9-.22-4.25,0-4.25s.69.37.58-2.05a33.93,33.93,0,0,1,1.78,4.56c.34,1,.59,1.23,1.13-.15a5.49,5.49,0,0,1,.87,3.38A6.39,6.39,0,0,1,1092.45,658.14Zm-3.92-40.39,0-.09.63-.14A5.42,5.42,0,0,0,1088.53,617.75Zm-2.36-.16a1.86,1.86,0,0,0,1,.22c-.06,1.56-.29,3.14-.46,3.05A7.73,7.73,0,0,0,1086.17,617.59Zm-.15,14.53,0,.09s0-.05,0-.1h0Z" transform="translate(-911.84 -466.06)"/><path class="cls-1" d="M1086.06,632v0l0,0v0Z" transform="translate(-911.84 -466.06)"/><polygon class="cls-1" points="179.38 165.17 179.38 165.17 179.38 165.17 179.38 165.17"/><polygon class="cls-1" points="151.89 173.9 152.99 173.59 151.99 173.71 151.89 173.9"/><path class="cls-1" d="M1080.63,640.63a8.77,8.77,0,0,0-.79.84C1080.06,641.27,1080.33,641,1080.63,640.63Z" transform="translate(-911.84 -466.06)"/><path class="cls-1" d="M1094.23,642.51a13,13,0,0,0,2.1.25A11.77,11.77,0,0,0,1094.23,642.51Z" transform="translate(-911.84 -466.06)"/><path class="cls-1" d="M1100,637.76a18.56,18.56,0,0,0-1.81-.68h0Z" transform="translate(-911.84 -466.06)"/><path class="cls-1" d="M1108.11,636.7a.45.45,0,0,0,.17.29C1109.05,637.74,1108.78,637.26,1108.11,636.7Z" transform="translate(-911.84 -466.06)"/><path class="cls-1" d="M1092.9,625.53a14.66,14.66,0,0,1,1.51-1.53C1094.43,623.59,1094.32,623.4,1092.9,625.53Z" transform="translate(-911.84 -466.06)"/><path class="cls-1" d="M1084.51,658v-.08s0,0,0,0Z" transform="translate(-911.84 -466.06)"/><path class="cls-1" d="M1094.84,624.4c.37-.84.08-.81-.43-.4C1094.39,624.35,1094.27,624.83,1094.84,624.4Z" transform="translate(-911.84 -466.06)"/><path class="cls-1" d="M1090.8,617.68l-.39-.29a3.68,3.68,0,0,1-.23.69C1090.38,617.94,1090.59,617.81,1090.8,617.68Z" transform="translate(-911.84 -466.06)"/><path class="cls-1" d="M1090.18,618.08l-.59.41C1089.81,618.54,1090,618.54,1090.18,618.08Z" transform="translate(-911.84 -466.06)"/><path class="cls-1" d="M1088.46,619.44c.36-.33.73-.65,1.13-1C1089.27,618.41,1088.85,618.19,1088.46,619.44Z" transform="translate(-911.84 -466.06)"/><path class="cls-1" d="M1097.05,624.12l1.3-1A14.43,14.43,0,0,0,1097.05,624.12Z" transform="translate(-911.84 -466.06)"/><path class="cls-1" d="M1098.55,625.36c.09-.54,2.2-3,.85-3l-1.05.78c.53-.32.67-.24.63,0a4.89,4.89,0,0,1-.6,1.14C1097.85,625.17,1097.28,625.93,1098.55,625.36Z" transform="translate(-911.84 -466.06)"/><path class="cls-1" d="M1086,633.68l-.26,0s.09,0,0,0Z" transform="translate(-911.84 -466.06)"/><path class="cls-1" d="M1086.93,633.77c-.12,0,0,0,0,0Z" transform="translate(-911.84 -466.06)"/><path class="cls-1" d="M1087.3,633h0C1087.27,632.93,1087.3,633,1087.3,633Z" transform="translate(-911.84 -466.06)"/><path class="cls-1" d="M1088.25,619.7c-.14-.86-.28-1.73-.5-2.58-.16,1.25-.28,2.5-.38,3.75C1087.66,620.46,1088,620.07,1088.25,619.7Z" transform="translate(-911.84 -466.06)"/><path class="cls-1" d="M1087.17,633.89v0a.49.49,0,0,1-.06.17Z" transform="translate(-911.84 -466.06)"/><path class="cls-1" d="M1088.06,618.61l-.57,5C1087.68,622.73,1088.38,617.11,1088.06,618.61Z" transform="translate(-911.84 -466.06)"/><path class="cls-1" d="M1085.21,632.57h0Z" transform="translate(-911.84 -466.06)"/><polygon class="cls-1" points="173.03 166.77 173.03 166.75 173.02 166.78 180.64 165.86 180.64 165.86 180.63 165.87 180.64 165.86 180.64 165.86 173.02 166.78 173.03 166.77"/><path class="cls-1" d="M943.75,706.08c.11.1.28,0,.18-.31l-.37-.15Z" transform="translate(-911.84 -466.06)"/><path class="cls-1" d="M943.9,703.86c-.23-.34-.6-.7-.84-.4.39.3.27.41.73.72.1.31,0,.57-.12.54.1.1,0,.51.27.63a1.67,1.67,0,0,0-.26-1.47C943.73,703.75,943.84,703.84,943.9,703.86Z" transform="translate(-911.84 -466.06)"/><path class="cls-1" d="M938.19,673.2v.2A.66.66,0,0,0,938.19,673.2Z" transform="translate(-911.84 -466.06)"/><path class="cls-1" d="M934.8,654.18c0,.14.08.2.11.2S934.82,654.14,934.8,654.18Z" transform="translate(-911.84 -466.06)"/><path class="cls-1" d="M934.57,650.87v.2A.26.26,0,0,0,934.57,650.87Z" transform="translate(-911.84 -466.06)"/><path class="cls-1" d="M938.19,673.2v-.53C938.08,672.66,938.16,673,938.19,673.2Z" transform="translate(-911.84 -466.06)"/><path class="cls-1" d="M942.24,699.81a.65.65,0,0,0,.14.26l-.09-.25Z" transform="translate(-911.84 -466.06)"/><path class="cls-1" d="M940.09,681.5l0,.16.16.1Z" transform="translate(-911.84 -466.06)"/><path class="cls-1" d="M941.43,687.9c0-.15-.3-.14-.43-.18a.49.49,0,0,1,.25.28A.41.41,0,0,0,941.43,687.9Z" transform="translate(-911.84 -466.06)"/><path class="cls-1" d="M943.05,698.14l.07.18Z" transform="translate(-911.84 -466.06)"/><path class="cls-1" d="M939.24,676.9a.19.19,0,0,0,.08-.07S939.26,676.86,939.24,676.9Z" transform="translate(-911.84 -466.06)"/><path class="cls-1" d="M912.23,496.13h0S912.23,496.08,912.23,496.13Z" transform="translate(-911.84 -466.06)"/><path class="cls-1" d="M913,488.46l0,.11h.16Z" transform="translate(-911.84 -466.06)"/><path class="cls-1" d="M933.88,644.87v0C933.94,645.05,933.92,645,933.88,644.87Z" transform="translate(-911.84 -466.06)"/><path class="cls-1" d="M925.06,590.2c-.16.65-.46-1-.61,0C924.55,590.1,925,591,925.06,590.2Z" transform="translate(-911.84 -466.06)"/><path class="cls-1" d="M942.24,699.64l-.06-.26A.71.71,0,0,0,942.24,699.64Z" transform="translate(-911.84 -466.06)"/><path class="cls-1" d="M924.45,590.2h0v0Z" transform="translate(-911.84 -466.06)"/><path class="cls-1" d="M931.37,631.19a.42.42,0,0,0-.09.16S931.33,631.31,931.37,631.19Z" transform="translate(-911.84 -466.06)"/><path class="cls-1" d="M932.71,641.47v-.26A1,1,0,0,0,932.71,641.47Z" transform="translate(-911.84 -466.06)"/><path class="cls-1" d="M930.1,626a.71.71,0,0,0,0-.37l0,.06A.38.38,0,0,1,930.1,626Z" transform="translate(-911.84 -466.06)"/><path class="cls-1" d="M929.21,620.43a.76.76,0,0,1,0,.11l.05.17Z" transform="translate(-911.84 -466.06)"/><path class="cls-1" d="M913.81,513.09a1,1,0,0,1,.23-.28C913.85,512.91,913.7,512.1,913.81,513.09Z" transform="translate(-911.84 -466.06)"/><path class="cls-1" d="M942.39,699.78a.19.19,0,0,1-.15-.14l0,.18A.08.08,0,0,0,942.39,699.78Z" transform="translate(-911.84 -466.06)"/><path class="cls-1" d="M927.87,626.09l-.1-.89A8.35,8.35,0,0,0,927.87,626.09Z" transform="translate(-911.84 -466.06)"/><path class="cls-1" d="M918,553.08l-.05-.2A.31.31,0,0,0,918,553.08Z" transform="translate(-911.84 -466.06)"/><path class="cls-1" d="M927.31,622.6a1.45,1.45,0,0,0,.12-.53s0-.07-.09-.09Z" transform="translate(-911.84 -466.06)"/><path class="cls-1" d="M914,512.81Z" transform="translate(-911.84 -466.06)"/><path class="cls-1" d="M912.86,507c.07.85.4.37.62.53.2,1-.23.49-.38.85a14.54,14.54,0,0,1,.56,1.55c-.06,0-.08.13-.16,0,.35.64.19,2,.62,2.72a.2.2,0,0,1-.08.11.72.72,0,0,1,.5-.17c0,.38.29.68.06.85,0-.23-.11-.24-.19-.35l.13.39c-.31.39-.16-.53-.42-.51a9.32,9.32,0,0,1,.5,2.25c-.32.15-.23-1.38-.46-.56l0-.93c-.47.75,0-.56-.52.13,0,1.22.29,1.34.3,2.55.22.26.27-.11.48.14.51,1.68-.72,1.43-.14,2.64.25.31.69.39.55,1.31l-.41-.27c.08,1.17.62.62.48,1.86-.17-.2-.22-.9-.25-.72-.22.82.27.54.33,1.15l-.32.16c.17,1.24.55,2.58.74,3.95-.1-.06-.23-.29-.31.05a27.32,27.32,0,0,1,.3,5.4l.36.61c0,.15-.1.29-.17.14,0,.66.19,0,.33.32s-.11.5-.22.28a12.42,12.42,0,0,1,.69,4.47l-.11-.23c0,1,.71,1,.53,1.91l-.07-.16c.09,2.06.59,4.3.34,5.91.45.25,0,2,.64,2.11a10.7,10.7,0,0,0-.3,2.55c0,.45.44.62.56,1.16l-.3,0,.4.71-.32.43.14.5c0-.2.08-.45.18-.42a3,3,0,0,1-.15,2l.47,1.86c-.12,0-.2-.34-.31-.58.43,1-.3.22.09,1.11.06-.13.19,0,.25.06a6.13,6.13,0,0,0,.18,2.29l-.23-.12c.11,1.4.46,2.93.65,4.5,0-.58.41-.49.5,0l-.3.23c.24.27.06-.5.38.08,0,.59-.32.44-.46.12l.2.7c-.1.05-.17-.11-.3-.14.24.27-.17,1.27.23,1.65l-.09.05c.19,1.57.39,2.27.56,3.54.28,0,.28.5.56.85a24.65,24.65,0,0,0,.12,3.14c.24.78.27.21.48.54-.25.09-.08,1.22-.33.66a27.53,27.53,0,0,0,.71,3.41c.07-.2.09-.42.19-.32.09.31,0,.72-.14.69l0-.07c.63,1.87-.16,4.54.57,6l0-.08.49,1.55c.06.73-.25-.42-.33.15.66,1.65.32,2.71.8,4.08-.6,1.2.59,3.87.32,5.41l.17-.11c.22.35,0,.47,0,.76.13-.06.1-.44.23-.21a98.76,98.76,0,0,1,1.05,10c.13,1.21,1,.54.82,2.13L925,608c.75,2.38.74,5,1.45,7.32-.1-.13-.2-.12-.23-.36-.16.54.28,1.87.48,1.85,0,.37-.17.11-.23.35-.06.53.5,1.22.31,1.53,0,.05-.1-.13-.13-.22.17.31.21,1.54.44,1.18,0,.91.39,1.69.34,2.43.38.42.09,1.56.55,1.63-.46,0-.12,1.63.19,2.16-.17-.17-.06.52-.28.32.11.65.29,1.23.5,1.08-.33,1.27.83,2.31.26,3.09.56,1.88,1,3.62,1.41,5.33-.46,0-.37-1.9-.82-1.75a21.31,21.31,0,0,1,1.16,4.12c0,.43-.24-.2-.34-.33.46,1.6.51,3.16,1,4.57-.05,0-.12-.15-.18-.29.07.28.05.68.25.61l-.11-.27c.22-.51.82,1,1,1-.66-.38.11,1.46-.76.82.07.18.21.4.33.33,0,.29-.05.39-.25.13.29,1,.44.61.6,1.54-.1,0-.17-.17-.3-.25a3.35,3.35,0,0,1,.6,1.68c-.07,0-.13.06-.17-.17.27,1.34.91,2.2,1,3.71-.5-.36,0,.53-.4.67l.25.78.12-.35a11.64,11.64,0,0,1,.49,1.88l-.24-.49.31,1.29v-.76c.32.66.45-.16.52.78-.07-.18.12.69,0,1.1h0a2.27,2.27,0,0,1,.37,1.19c-.09.15-.42,0-.48.07.36.28.38,1.61.79,2-.11-.12-.3-.1-.33,0l.3.24c0,.33-.05.39-.21.36.13,1,.41-.39.42.8,0-.09-.07,0-.14-.22.11,1.17.57,2.2.64,3.28-.31.38-.26-.91-.51-.49.35,1.51,1,3.08,1.23,4.57v-.28c.56.1,0,1.15.34,1.85-.07-.18-.33-.19-.26-.15a21,21,0,0,0,1,3.54l-.17-.16c0,.62.24,1.58.3,2.24.17.16.22.53.37.27-.37,2.14,1.13,3.71.86,5.59,0-.21-.22-.48-.19-.31l.43,1.47c.2-.16.1-.22.21-.57a2.06,2.06,0,0,1,.44.94c-.29-.65-.36.07-.43.39.06-.06.15,0,.22,0-.25.87.48,0,.43,1.16l-.13,0a5.18,5.18,0,0,1,.42,1.16c-.22.23-.21-.4-.43-.38.14.6.74,1.09.59,1.69-.12-.24-.2-.61-.33-.85a2.13,2.13,0,0,0,0,1.16v0l.07,1,0-.28c.83.62.43,1.52,1.09,2.45-.63-.9-.28-.11-.59-.13,0,.28-.05.69-.15.6.34.43,0,.84.46,1.45-.09,0,.1.52-.17.46.21.61.14-.18.27-.15.52.9.08,2.35.82,3.64.43,1.16.8,1.31,1.2,2.39-.08.41-.42-.23-.42-.23a3.72,3.72,0,0,0,.34,1.63c-.1-.1-.15,0-.22.23.12.45.41.23.4.87a1.69,1.69,0,0,1-.48-.38c.2.52.49,1,.69,1.55-.13.19-.32-.28-.47-.45.21.61.49,1.59.8,1.73v-.42c.06.22-.2.16-.29,0-.32-.49-.07-.79,0-.84l.14.38c.48-.53-.42-1.57-.56-2.38l.48.25-.51-.75c.07-.2.27-.37.41,0,.08-.61-.25-.47-.13-1,0-.06,0,0,.08,0l-.24-.53c.11.09.27-.15.28.2,0-1-.65-1.55-.42-2l0,.08c-.43-1.36-.32-.07-.9-1l.59-.86-.32-.08c0-.14-.06-.43.07-.4-.32-.5-.11.11-.37-.16.12-.74-.52-1.88-.08-2.14-.27-.2,0,.7-.35,0,.47-.32-.26-.84-.15-1.52.3.14.29.77.39.08-.52-.29-.15-1.25-.34-1.77-.36,0-.38-1.13-.68-2a20.09,20.09,0,0,0-.19-2.59h.07c-.4-.09-.5-1-.7-1.57.22,0,.32.07.49.4l-.12-.59a1.26,1.26,0,0,1-.36-.67l.3.1a11.08,11.08,0,0,1-.66-2.56c-.26,0-.54.94-.92-.09.13-.07.36-.16.46.11a1.14,1.14,0,0,1-.15-.5l.31.38c0-.48-.24-.2-.28-.57.19,0,.08-.3.24-.28s0,.34.09.46a2.33,2.33,0,0,1,.09-1.14c-.11.06-.26.05-.35-.24-.16-.79.18-.32.19-.8-.17-.16-.12-.69-.42-.64,0-.23.09-.3.15-.41-.21-.38-.4-1.89-.62-1.37v.11l0-.07h0c-.54-1.27-.37-2.8-.75-4.09l.1,0a15.68,15.68,0,0,0-.72-2.27c0-.23.07-.58.2-.5a3.32,3.32,0,0,1-.31-1.54c.28.57.1-.24.24.6a3.32,3.32,0,0,0-.36-1.8c.3.24.2-.65.06-1l-.08.58a8.63,8.63,0,0,1-.21-1.16l.37.14c.1-1.68-1.21-2.77-.77-4.12-.31-.38,0,.91-.34.58a11.73,11.73,0,0,1,.19-1.84c0-1-.65-.86-.72-1.94-.09.16-.38.34-.63-.43-.1-.75.32-1,.5-.55,0,.18,0,.27,0,.27.08.23.19.54.26.22l-.13-.07c.05-.39-.15-1.41.09-1.2-.22-.54-.24-.21-.22.22,0-1-.28-1.48-.33-2.48,0,.17-.15.33-.18.18-.1-1.46-.33-.59-.55-1.56.08-.58.46.13.14-.83,0-.61.29-.18.42,0a5.4,5.4,0,0,1-.19-2.2l.18.45a3.84,3.84,0,0,1-.19-.74l-.18.31c0-.28,0-.51.05-.52-.2-.26-.35.28-.66-.25.05-.38-.32-1.09,0-1.27.1,1.17.29-.19.52.78a1.9,1.9,0,0,1-.12-.69s.07,0,.1.1c.08-1.16-.44-.45-.63-1.6.2.12.28-.32.21-.5.08.46-.25.27-.46-.13,0-.76-.24-.78-.29-1.17v.45c-.2-.12-.24-.49-.39-1,.13-.07.18.45.21.26-.41-.52.09-1.34-.26-2.1.06-.39.33-.09.35-.43-.38-.85.08-1-.27-1.91-.19.31-.12.35-.46-.27l.42,1.51-.51-.93c.08.47.31,1,.32,1.24-.27-.44-.2-.4-.36-.14.25-.7-.42-1.23-.3-2l.59-.08c.07-1.15-.63-1.91-.72-3.37l0,.48c-.26-.15-.18-.88-.35-1.33.2,0,.23-.29.32-.51-.15,0-.17-1.05-.58-1.11l.15-.68c-.08-1.18-.77-1.23-.89-2.36.27.3.32-.22.6.5-.06-.38-.08-.72-.22-.7.09-.24-.43-1-.31-1.36-.11-.14-.32-.16-.37-.58,0,0,.09,0,.09,0s-.23-.63-.39-.24c.43-1.24-.55-3.19-.19-4.27-.19-.8-.41-1.77-.54-2.51.07,0,.1,0,.1.13,0-1-.66-.53-.64-1.72.23-.64.27.59.33.2.62-.26-.3-1.38,0-2.22l.06.18c.13-.63-.47-1.41-.57-2.39,0,0,.06,0,.09,0a10,10,0,0,1-1-2.78c.3.25.2.4.43.19-.1-.42-.4.18-.59-.64.1-.3.13-.92.39-1l.13.79c.29-.46-.17-1-.17-1.45l.17,0c-.24-1.2-.63-1.16-.79-2.47l-.1.15c-.49-.65.13-.63-.26-1.29l.36-.28a22,22,0,0,1-.83-2.42,10.44,10.44,0,0,1,.92,2,5,5,0,0,0-.49-1.79c.06.18.2.4.16.59a4.7,4.7,0,0,1-.78-2.18c.78,0-.18-2.44.33-3.2-.52-1.61-.34-3.28-.66-5.18-.49.76-.09-.56-.68-.36-.1-.44-.11-.61-.08-.65l.17-1.41c.13-.34.19.41.32.35-.09-1,.2-.45.27-1.11-.19.16-.35-.3-.35-.87l-.17.82c-.51-1.31.35-1.24-.17-2.57l.25.41c-.21-.69-.35-2.61-.93-3.23.06-.14.2-.32.28,0-.14-1.7-1-3.69-.88-5l.16.11c-.08-.31-.35-.51-.25-.92.07,0,.17.1.16,0a3.08,3.08,0,0,1-.34-1.23l.21.33c0-1.67-.74-2.47-1-3.84.44-.05.4-1.36.4-2h.06a35.6,35.6,0,0,0-1.15-5c.34-1.17-.26-3.76-.21-5.57,0,.28-.35,0-.43-.31s-.44-1.11,0-1.1v.15c.36-.36.15-1.2.08-1.87l-.53,0c.56-1.83-.81-4.54-.23-5.58-.18-.4-.24-.93-.42-1.33H920a24.15,24.15,0,0,0-.32-3.2l.24.27c-.08-.81-.93-.93-1-1.68l.4-.28c-.18-1.42,0-2.9-.48-4.26a.28.28,0,0,1,.23.27c-.06-.67,0-2.62-.54-2.31.37-.06-.12-1.47-.37-2.23l.29.09a2.88,2.88,0,0,1-.71-1.51c0-.22.2-.21.16.08.07-.73-.32-.53-.26-1.41l.21.3a1.39,1.39,0,0,0-.4-1.05c-.16-.45-.07-1.41.16-1.54a1.06,1.06,0,0,1-.38-.91c.09-.07.16.09.2.16.06-1.25-.5-1.8-.31-2.67a.22.22,0,0,0,.15-.16,16.6,16.6,0,0,1,.12,1.7c.26,0,.22-.82.64-.23a6.32,6.32,0,0,1-.73-2.44.28.28,0,0,1,.08-.11l0,.08a1.13,1.13,0,0,0-.09-.49,3.45,3.45,0,0,0,0-.64c.2-.11,0-.92,0-1.31-.28.06-.28-.46-.47,0,0-.06,0,.07.08.33a.71.71,0,0,0,0,.17l0,0c0,.26.07.6.11,1a1.32,1.32,0,0,1-.21-1.06,4.59,4.59,0,0,1-.5-.51c.33-.57.44-1.63.67-1.8-.27-1.19-.38-2.82-1-3.53-.1-.34.12-.41.19-.54.07.19.08.42.17.52-.2-.67-.25-2-.63-2.15.08-.88.38.46.21-.72l.13.15c.38-2.39-1.28-3.71-.75-6.36,0,.18,0,.27-.1.31.08-3-.86-6.05-.57-9,0-.84-.2-.91-.42-1.4l.29-.2-.42-.84c-.35-1.2.58-2.18,0-3.69l-.19.22c0-.56-.26-1.76,0-1.68,0-.06-.22-.17-.13-.4l.15,0-.37-1.35c0-1.07.63.12.54-1.43-.1-.57-.59-1.61-.68-1.38s0,.6-.2.63l-.13-.52c-.47-.06-1-.43-1.2.89l.36.87-.2.31-.08-.76a1,1,0,0,0,.19,1,.59.59,0,0,0-.22.4l.51.85c-.17.12-.39-.37-.44.23.23.4.37-.42.56.25-.18.45-.36.34-.14.83-.11.08-.2,0-.26-.22.18.44.15,1.19.42,1.4-.23.47.19,1.51-.26,1.5a3.25,3.25,0,0,1,.46,1.18c-.58-.71.09,1.55-.49,1.4.52.52.37,2,.72,3-.05-.05-.13-.16-.11-.24a4.49,4.49,0,0,1-.19,1.1c.4,0,.56.89.85,1.34-.32.72-.5-.37-.84-.13.31-.06.42,1.16.66.9-.18.55-.07.46-.37.76.5.05.12.48.46.89-.17.77-.44.23-.22,1C913.1,507.75,912.86,507,912.86,507Zm2.68,19.66h0l0-.41Zm.16,1.66c0-.21,0-.46-.06-.72.09-.07.2,0,.21.15C915.78,527.68,915.76,528.08,915.7,528.34Zm1.6-3.7c.07.26,0,.35,0,.39,0-.12,0-.26-.08-.45l0,0A.29.29,0,0,1,917.3,524.64Z" transform="translate(-911.84 -466.06)"/><path class="cls-1" d="M916.89,524.2a.24.24,0,0,1,0-.1,1,1,0,0,0-.05.16l.1.08Z" transform="translate(-911.84 -466.06)"/><path class="cls-1" d="M938.19,673.44v0l0,.08Z" transform="translate(-911.84 -466.06)"/><polygon class="cls-1" points="5.79 85.2 5.86 85.19 5.79 85.05 5.79 85.2"/><path class="cls-1" d="M939,682.62a.23.23,0,0,0,0,.13S939,682.69,939,682.62Z" transform="translate(-911.84 -466.06)"/><path class="cls-1" d="M939.73,686.51v.57A4.9,4.9,0,0,0,939.73,686.51Z" transform="translate(-911.84 -466.06)"/><path class="cls-1" d="M940.2,689.53a.22.22,0,0,0,.13,0h0Z" transform="translate(-911.84 -466.06)"/><path class="cls-1" d="M930.89,642l0-.11C930.76,641.62,930.81,641.81,930.89,642Z" transform="translate(-911.84 -466.06)"/><path class="cls-1" d="M934.06,656.07a3.42,3.42,0,0,1-.21-.43C933.87,655.9,933.9,656.1,934.06,656.07Z" transform="translate(-911.84 -466.06)"/><polygon class="cls-1" points="16.04 160.13 16.05 160.13 16.03 160.03 16.04 160.13"/><path class="cls-1" d="M933.73,655a1.5,1.5,0,0,0,.12.66A2.48,2.48,0,0,0,933.73,655Z" transform="translate(-911.84 -466.06)"/><path class="cls-1" d="M942.77,702.48l0,.14h.05Z" transform="translate(-911.84 -466.06)"/><path class="cls-1" d="M942.84,702.63l.06.15A.23.23,0,0,0,942.84,702.63Z" transform="translate(-911.84 -466.06)"/><path class="cls-1" d="M943,703.1l-.14-.32C942.93,702.9,943,703,943,703.1Z" transform="translate(-911.84 -466.06)"/><path class="cls-1" d="M942.07,698.5l-.11,0A.12.12,0,0,0,942.07,698.5Z" transform="translate(-911.84 -466.06)"/><path class="cls-1" d="M941.78,697.31a4.35,4.35,0,0,0,.09,1.15l.09,0C941.77,698.32,942,697.55,941.78,697.31Z" transform="translate(-911.84 -466.06)"/><path class="cls-1" d="M942,692.05l.13,1c.07-.19.17-.46.29,0C942.43,691.73,942.19,693.38,942,692.05Z" transform="translate(-911.84 -466.06)"/><path class="cls-1" d="M941.49,688.9c.16.53.15,0,.22,0C941.54,688.56,941.5,688.48,941.49,688.9Z" transform="translate(-911.84 -466.06)"/><path class="cls-1" d="M937.05,666.35h.26C937.19,666,937.21,666.37,937.05,666.35Z" transform="translate(-911.84 -466.06)"/><polygon class="cls-1" points="23.1 196.22 23.02 196.65 23.28 196.8 23.1 196.22"/><polygon class="cls-1" points="24.42 193.33 24.49 193.51 24.27 192.83 24.42 193.33"/><path class="cls-1" d="M929.62,621.37l-.3.18C929.42,621.82,929.78,621.83,929.62,621.37Z" transform="translate(-911.84 -466.06)"/><path class="cls-1" d="M926.76,605a1,1,0,0,0,0-.94A6,6,0,0,0,926.76,605Z" transform="translate(-911.84 -466.06)"/><polygon class="cls-1" points="8.8 89.3 8.95 89.62 8.79 89 8.8 89.3"/><path class="cls-1" d="M1155.45,686c.22.17.3-.09-.21-.59l-.57-.15Z" transform="translate(-911.84 -466.06)"/><path class="cls-1" d="M1152.15,682.56c-.88-.21-1.85-.32-1.46.18a4.15,4.15,0,0,1,.94.13l1,.19c.64.33,1,.75.83.79.24.09.8.74,1.22.85a5.74,5.74,0,0,0-1.07-1.17,7.49,7.49,0,0,0-1.63-.8C1151.78,682.56,1152.06,682.59,1152.15,682.56Z" transform="translate(-911.84 -466.06)"/><path class="cls-1" d="M1157.09,686.48l.19.45A4.53,4.53,0,0,0,1157.09,686.48Z" transform="translate(-911.84 -466.06)"/><path class="cls-1" d="M1146,643.63c.06.34.11.47.15.49C1146.11,643.81,1146.05,643.56,1146,643.63Z" transform="translate(-911.84 -466.06)"/><path class="cls-1" d="M1145.41,636l0,.45A1.22,1.22,0,0,0,1145.41,636Z" transform="translate(-911.84 -466.06)"/><path class="cls-1" d="M1157.09,686.48c-.17-.39-.35-.72-.52-1.08C1156.43,685.4,1156.82,685.94,1157.09,686.48Z" transform="translate(-911.84 -466.06)"/><path class="cls-1" d="M1142.67,682.41l.58-.22a5.15,5.15,0,0,0-.56.16A.14.14,0,0,1,1142.67,682.41Z" transform="translate(-911.84 -466.06)"/><path class="cls-1" d="M1152.51,704.74l-.32.21c-.07.1-.14.19-.2.29Z" transform="translate(-911.84 -466.06)"/><path class="cls-1" d="M1137.65,703.57c.27.24.55.1.73.09a1.8,1.8,0,0,1-.72-.34C1137.61,703.35,1137.61,703.43,1137.65,703.57Z" transform="translate(-911.84 -466.06)"/><path class="cls-1" d="M1139.17,682.54l.36-.25Z" transform="translate(-911.84 -466.06)"/><path class="cls-1" d="M1158.7,695.48a.31.31,0,0,0,.12-.13S1158.75,695.4,1158.7,695.48Z" transform="translate(-911.84 -466.06)"/><path class="cls-1" d="M936.11,487.72s0,0,0-.05S936,487.74,936.11,487.72Z" transform="translate(-911.84 -466.06)"/><path class="cls-1" d="M918.6,489.44l.23-.06a.45.45,0,0,0,0-.16Z" transform="translate(-911.84 -466.06)"/><path class="cls-1" d="M1144.26,622.12v.07C1144.33,622.55,1144.3,622.34,1144.26,622.12Z" transform="translate(-911.84 -466.06)"/><path class="cls-1" d="M1134.54,494.13c0,1.48-.7-2.29-.62-.08C1134,493.83,1134.68,496,1134.54,494.13Z" transform="translate(-911.84 -466.06)"/><path class="cls-1" d="M1142.3,682.48l-.56.16A4.22,4.22,0,0,0,1142.3,682.48Z" transform="translate(-911.84 -466.06)"/><path class="cls-1" d="M1133.92,494.05h0v0Z" transform="translate(-911.84 -466.06)"/><path class="cls-1" d="M1141.81,590.06a1.45,1.45,0,0,0-.1.33S1141.77,590.31,1141.81,590.06Z" transform="translate(-911.84 -466.06)"/><path class="cls-1" d="M1143,614v-.6A5.63,5.63,0,0,0,1143,614Z" transform="translate(-911.84 -466.06)"/><path class="cls-1" d="M1140.79,577.64a4.27,4.27,0,0,0,0-.87.28.28,0,0,0,0,.13A2.17,2.17,0,0,1,1140.79,577.64Z" transform="translate(-911.84 -466.06)"/><path class="cls-1" d="M1140.18,564.69c0,.07,0,.16,0,.24s0,.28,0,.41Z" transform="translate(-911.84 -466.06)"/><path class="cls-1" d="M975,481.43a2.45,2.45,0,0,1-.63-.16C974.57,481.44,972.7,481.77,975,481.43Z" transform="translate(-911.84 -466.06)"/><path class="cls-1" d="M1142.62,682.26a.56.56,0,0,1-.32.22l.39-.13C1142.72,682.3,1142.71,682.26,1142.62,682.26Z" transform="translate(-911.84 -466.06)"/><path class="cls-1" d="M1138.55,577.22l0-2.06C1138.5,575.74,1138.52,576.49,1138.55,577.22Z" transform="translate(-911.84 -466.06)"/><path class="cls-1" d="M1067.38,471.39l-.47.06A1.58,1.58,0,0,0,1067.38,471.39Z" transform="translate(-911.84 -466.06)"/><path class="cls-1" d="M1138.17,569.05a7.2,7.2,0,0,0,.14-1.17,1,1,0,0,0-.09-.23Z" transform="translate(-911.84 -466.06)"/><path class="cls-1" d="M974.34,481.26h0Z" transform="translate(-911.84 -466.06)"/><path class="cls-1" d="M961,483.92c1.94-.29.86-.5,1.24-.77,2.29-.45,1.11.11,1.92.17,1.43-.31,2.49-.82,3.57-1,.09,0,.3,0,.07.15,1.48-.53,4.54-.67,6.27-1.29a.56.56,0,0,1,.24.05c-.31-.14-.38-.32-.34-.46.87-.13,1.58-.46,1.94-.27a1.73,1.73,0,0,0-.8.28l.9-.23c.87.23-1.23.3-1.2.55a49.35,49.35,0,0,1,5.18-1c.33.29-3.17.57-1.31.6l-2.13.18c1.69.3-1.29.14.27.5,2.79-.3,3.08-.62,5.87-.91.6-.27-.25-.25.35-.52,3.9-.86,3.22.44,6-.4a5,5,0,0,1,3-.83l-.65.47c2.69-.31,1.46-.76,4.32-.86-.49.21-2.1.4-1.69.39,1.86.06,1.26-.38,2.67-.56l.33.31c2.86-.41,6-1,9.16-1.5-.16.12-.69.3.06.31,4-.65,8.57-.94,12.46-1.18l1.45-.46c.34,0,.65.06.28.16,1.52-.05.06-.2.77-.39s1.16.05.62.2a62.82,62.82,0,0,1,10.37-1.3l-.54.14c2.2-.11,2.41-.84,4.47-.76l-.39.08c4.76-.31,10-1.1,13.65-.95.65-.48,4.72-.21,5-.82a57,57,0,0,0,5.8.12c1-.05,1.5-.48,2.75-.64l.06.3,1.69-.45.94.3,1.18-.17c-.48,0-1-.06-1-.15a14.27,14.27,0,0,1,4.58,0l4.36-.56a5.22,5.22,0,0,1-1.39.34c2.31-.47.44.29,2.57-.13-.3-.06.14-.2.18-.26a33.67,33.67,0,0,0,5.31-.24l-.33.23,10.49-.71c-1.32,0-1-.41,0-.51l.45.3c.68-.24-1.13-.06.28-.38,1.36,0,.93.32.16.47l1.65-.21c.1.09-.29.17-.38.29.67-.23,2.87.17,3.84-.23l.1.09c3.64-.16,5.29-.35,8.26-.51.05-.28,1.21-.27,2.09-.54,2.19,0,4.62.13,7.25,0,1.85-.21.53-.26,1.36-.45.14.25,2.77.13,1.42.36l3.7-.2,1.79-.12a6.79,6.79,0,0,1,2.16.15c-.29-.22-.71-.34-.48-.38.67.07,1.24.59,1.09.65l-.14,0A3.11,3.11,0,0,1,1128,471a29.86,29.86,0,0,1,.6,3.61,34.17,34.17,0,0,0,1.28,6.48l-.06-.19,1,3.57c.23,1.69-.36-1-.31.3,1.07,3.86,1,6.22,1.79,9.42a12.05,12.05,0,0,0,.08,2.55c.1,1,.27,2.16.44,3.33a46.32,46.32,0,0,1,.75,6.51l.15-.22c.29.86,0,1.08.09,1.73.12-.11,0-1,.2-.44.54,3.73.84,7.6,1.15,11.49s.38,7.83.63,11.67c.18,2.82,1,1.53.86,5.11l-.39-1c.77,5.65.74,11.62,1.35,17.17a2.41,2.41,0,0,1-.22-.87,13.14,13.14,0,0,0,.42,4.36c0,.87-.16.21-.23.75-.08,1.18.44,2.95.24,3.59,0,.1-.1-.33-.12-.55.15.77.14,3.59.38,2.84,0,2.1.31,4,.23,5.67.36,1.08,0,3.59.47,3.92-.46-.13-.19,3.69.09,5-.16-.43-.09,1.16-.31.65.08,1.51.23,2.89.45,2.62-.41,2.81.72,5.57.11,7.17.22,2.24.43,4.4.64,6.5s.39,4.14.58,6.15c-.45-.11-.32-4.46-.78-4.26.42,3.83,1,6,1.07,9.81,0,1-.23-.54-.33-.87.44,3.82.52,7.4,1,10.79a2.26,2.26,0,0,1-.18-.72c.07.67,0,1.57.25,1.47l-.1-.64c.21-1.1.82,2.61,1,2.71-.7-1.08.18,3.37-.74,1.63.08.44.23,1,.36.87,0,.65,0,.87-.25.22.34,2.39.48,1.52.68,3.69-.1,0-.18-.43-.32-.65a16.63,16.63,0,0,1,.7,4c-.07-.1-.13.12-.18-.43.31,3.16,1.12,5.31,1.35,8.78-.56-1,0,1.19-.35,1.42l.34,1.84.09-.76c.21,1.62.62,3,.72,4.43-.11-.39-.23-.79-.33-1.18.16,1,.36,2,.54,3l-.13-1.73c.44,1.61.44-.25.67,1.92a24,24,0,0,1,.16,2.49h0a11.91,11.91,0,0,1,.59,2.79c-.07.33-.45-.18-.49,0,.44.74.64,3.78,1.19,4.72-.14-.32-.34-.31-.36-.19l.38.61c.06.76,0,.88-.13.79.39,2.25.33-.8.64,1.89a3.51,3.51,0,0,1-.2-.52c.41,2.69,1.16,5.13,1.51,7.6-.23.8-.51-2.12-.65-1.23.72,3.53,2,7.22,2.87,10.6l-.15-.64c.65.32.48,2.59,1.33,4.18-.18-.39-.46-.44-.37-.35a31.9,31.9,0,0,0,3.84,7.68l-.35-.32c.3.65.83,1.47,1.19,2.24.1.2.21.39.3.59l.21.61a5.42,5.42,0,0,1,.31,1.14c.21.38.35,1.2.45.68a23.46,23.46,0,0,1-.83,6.37,9.55,9.55,0,0,1-3.27,5.08c.32-.35.67-.91.42-.64a10.33,10.33,0,0,1-1.15,1.23l-.61.57-.68.49c.33,0,.47-.09,1.13-.42a2.82,2.82,0,0,1-.69.72,4.87,4.87,0,0,1-1.09.74c1.3-.9-.18-.27-.83-.15.13,0,0,.18,0,.22-.44.12-.67.16-.81.22a.49.49,0,0,0-.23.22.68.68,0,0,1-.34.29,2.39,2.39,0,0,1-.45.17,6.7,6.7,0,0,1-.76.06l.11-.14a7.44,7.44,0,0,1-2.77.29c-.19-.17.06-.13.36-.16s.67,0,.7-.15a7,7,0,0,1-4-.5c.3.06.65.15,1,.24a3.44,3.44,0,0,0,1,.17,5.63,5.63,0,0,1-.76-.35c-.2-.1-.36-.18-.51-.24a5.32,5.32,0,0,1-1-.44l.09.05c-.34-.19-.68-.36-1-.56l-.93-.68.45.39a4.63,4.63,0,0,1-2.37-1.35c-.33-.35-.7-.7-1.06-1.09s-.74-.79-1.16-1.23c1.72,1.6.42.16.77.13-.3-.51-.64-1.34-.45-1.16a3.12,3.12,0,0,1-.74-1.29,13.11,13.11,0,0,0-.77-1.65c0-.09-.29-1.11,0-.94-.37-1.33-.1.36-.24.28a5.11,5.11,0,0,1-.39-1.72c0-.31,0-.63,0-1l.12-1c0-.17,0-.34,0-.52l.13-.51c.1-.34.14-.7.26-1.05.25-.68.43-1.41.75-2.11a10.59,10.59,0,0,1,.8-1.47,6.86,6.86,0,0,1,.72-1.05,5.1,5.1,0,0,1,.81-1,7,7,0,0,1,1.28-1c.85-.29-.47.63-.43.67l1.71-.85c.56-.21,1.06-.53,1.69-.74-.23.15.06.14.46.14,1-.31.6-.53,2-.63a5,5,0,0,1-1,.56,14.88,14.88,0,0,1,1.78-.42l.92-.16c.31,0,.63,0,1,0,.33.21-.78.17-1.21.35,1.4-.14,3.65.11,4.13.08a4.63,4.63,0,0,0-.88-.32c.53.07.22.26-.17.25-1.23,0-1.73-.31-1.8-.42.3,0,.61,0,.92,0a1.87,1.87,0,0,0-1-.3,4.8,4.8,0,0,0-1.45,0,9.71,9.71,0,0,0-1.59.31c-.52.13-1,.24-1.47.38a6.06,6.06,0,0,1,.66-.59c-.61.24-1.19.55-1.76.83-.41.06-.77-.07.09-.45a3.47,3.47,0,0,0-1.19.43,5.52,5.52,0,0,1-1,.45c-.13,0-.09,0,0-.09a11,11,0,0,0-1.1.79c.17-.22-.37-.15.39-.52a6.8,6.8,0,0,0-2.35,1.87c-.56.58-.81,1.15-1.24,1.4l.11-.18a4.78,4.78,0,0,0-.73,1.35c-.08.23,0,.26,0,.27s.12,0,.12.15-.09.4-.19,1a8.56,8.56,0,0,0-1.21,1.39l.24.39c0,.17-.1.42-.16.62s-.08.33-.14.26c.14,1.31.14-.21.3.55a4,4,0,0,0-.1,1.41,7.53,7.53,0,0,0,.19,1.52c.11.48.18.93.25,1.27a1.13,1.13,0,0,1,0,.73c.41.49-.34-1.55.38.07-.17.33,0,.81.37,1.36.17.27.33.58.53.89a5.17,5.17,0,0,1,.55,1c-.47-.25-1.12-1.58-.51-.13.8.57,1.7,2.48,2.76,3.33.15-.13.7.32,1.48.88.42.25.86.58,1.36.84a13,13,0,0,0,1.56.66s.18.11.56.26l.69.26c.27.08.58.13.9.2a12.06,12.06,0,0,0,4,.1l-.05.06a5.57,5.57,0,0,1,1.48-.71,7.65,7.65,0,0,0,1.1-.5,6.38,6.38,0,0,0,1.06-.61c.06.22-.11.47-.85.91l.67-.32c.22-.12.41-.27.62-.4.22-.31.61-.54,1.28-1.21l-.11.45a19,19,0,0,0,3.9-5.05c-.08-.11-.48.23-.72.3s-.19,0-.17-.17a7.58,7.58,0,0,1,.35-1.09c.16,0,.42,0,.2.62a5.44,5.44,0,0,1,.43-1.14l-.19,1c.53-1,.07-.6.41-1.41.18.09.33-.58.44-.41,0,.23-.3.72-.39,1.06.25-.45.41-1,.62-1.43s.35-.84.46-1c-.13.06-.26-.06-.15-.8.23-1.9.31-.62.52-1.75-.08-.48-.07-1.74-.35-1.74a2.24,2.24,0,0,1,.08-.92c-.09-.25-.17-.67-.3-1.12l-.52-1.37c-.42-.82-.8-1.34-.66-.77l.1.23-.09-.13h0c-.44-.71-.88-1.35-1.29-2s-.76-1.42-1.1-2.16c-.66-1.47-1.2-3-1.8-4.42l.1,0c-.76-1.68-1.38-3.87-1.93-5.09-.15-.53-.16-1.3,0-1.1a15.82,15.82,0,0,1-.88-3.51c.49,1.35,0-.51.46,1.39a19.05,19.05,0,0,0-1-4.13c.38.61,0-1.42-.19-2.27l.07,1.31c-.23-1-.37-1.82-.51-2.68l.41.4c-.3-3.78-2-6.55-1.82-9.5-.39-.95.17,2.05-.24,1.22-.24-1.73,0-3.59-.12-4.13-.19-2.38-.82-2.12-1.08-4.6-.07.34-.34.68-.73-1.14-.23-1.73.16-2.19.42-1.12.08.42.07.62,0,.61.13.55.29,1.27.31.57l-.15-.21c0-.87-.39-3.23-.1-2.7-.28-1.29-.27-.53-.21.44-.1-2.23-.42-3.45-.59-5.74,0,.37-.11.72-.16.36-.27-3.36-.4-1.45-.74-3.71,0-1.3.49.41.06-1.85,0-1.4.27-.33.44.21a23.61,23.61,0,0,1-.34-5.09l.2,1.09c-.12-.65-.17-1.19-.23-1.73l-.17.65c0-.65-.07-1.2,0-1.19-.22-.65-.35.54-.69-.75,0-.87-.38-2.61-.1-2.93.16,2.71.29-.33.56,2a11.21,11.21,0,0,1-.15-1.62c0-.1.07.08.11.25,0-2.6-.47-1.15-.73-3.83.21.33.28-.65.21-1.08.08,1.08-.25.54-.46-.44a17.56,17.56,0,0,0-.3-2.76v1a9.26,9.26,0,0,1-.39-2.39c.13-.12.18,1.08.2.65-.41-1.31.09-3-.26-4.88.06-.87.33-.11.35-.87-.39-2.06.08-2.27-.25-4.45-.2.65-.13.76-.46-.77l.39,3.59-.49-2.29c.07,1.09.29,2.29.31,2.94-.28-1.09-.21-1-.37-.45.25-1.51-.4-2.93-.26-4.67l.59,0c.1-2.6-.58-4.58-.64-7.94l0,1.08c-.27-.43-.15-2.07-.3-3.15.2.09.24-.6.34-1.07-.15.07-.12-2.46-.52-2.74l.18-1.51c0-2.72-.73-3.07-.79-5.68.26.77.34-.42.58,1.32-.05-.87-.05-1.66-.18-1.66.1-.52-.38-2.41-.23-3.22a3.09,3.09,0,0,1-.35-1.45c0-.11.1,0,.1,0s-.21-1.53-.38-.66c.49-2.71-.4-7.5,0-9.86-.15-1.9-.32-4.19-.42-5.91.06.1.1,0,.09.32.07-2.39-.63-1.43-.57-4.15.25-1.4.25,1.43.32.56.63-.41-.26-3.27,0-5.11l.06.44c.15-1.41-.43-3.39-.5-5.67,0,0,.06.11.1,0a53.73,53.73,0,0,1-1-6.67c.3.67.2,1,.43.56-.1-1-.4.31-.6-1.64.1-.65.13-2.07.39-2.28l.14,1.85c.29-1-.17-2.39-.17-3.37l.16.11c-.23-2.83-.66-2.83-.87-5.88l-.09.33c-.53-1.63.1-1.42-.32-3l.35-.53c-.2-1.09-.67-3.82-1-5.77a40.41,40.41,0,0,1,1,4.78,24,24,0,0,0-.59-4.24,6.25,6.25,0,0,1,.21,1.42,25.29,25.29,0,0,1-1-5.21c.8.31-.39-5.65,0-7.29-.76-3.79-.87-7.59-1.5-12-.38,1.67-.19-1.29-.77-.93a6.7,6.7,0,0,1-.24-1.51l-.16-3.19c0-.77.3,1,.42.85-.33-2.27.1-1,0-2.52-.17.35-.44-.73-.57-2l0,1.86c-.86-3.1.08-2.83-.82-5.94.13.32.27.64.38,1-.43-1.6-1.22-6-2-7.48,0-.3.09-.72.28,0-.18-1-.41-2-.66-3a30.17,30.17,0,0,0-.89-3.15,6.39,6.39,0,0,0-2-3,6.54,6.54,0,0,0-2.89-1.15l.36-.11c-.86-.07-1.46.17-2.41,0,0-.06.3-.16,0-.15a17,17,0,0,1-2.92.28l.83-.2c-3.86-.06-5.89.63-9.11.85,0-.45-3-.47-4.56-.46l0-.07c-4.48.16-7.59.7-11.73,1.1-2.59-.33-8.72.27-12.87.27.64,0-.08.35-.81.44-1,0-2.66.48-2.54.07l.35,0c-.76-.35-2.74-.11-4.3,0l-.22.54c-4.13-.52-10.64,1.06-12.91.53-1,.21-2.19.3-3.15.5l0-.28c-2.72.15-4.08.23-7.44.58l.67-.26c-1.9.14-2.32,1-4.07,1.18l-.56-.37c-3.31.28-6.68.25-9.91.93,0-.07.13-.2.67-.26-1.56.13-6,.28-5.42.8-.08-.37-3.41.32-5.18.67l.25-.31a12.6,12.6,0,0,1-3.59.93c-.5,0-.46-.17.21-.17-1.68,0-1.27.4-3.29.46l.73-.26a6.28,6.28,0,0,0-2.48.55,9.12,9.12,0,0,1-3.52.07,4.65,4.65,0,0,1-2.14.53c-.14-.07.22-.17.4-.22-2.87.13-4.2.8-6.19.75a.44.44,0,0,0-.35-.13c2.26-.25,4.09-.44,3.92-.4,0-.26-1.87-.09-.45-.61a36.07,36.07,0,0,1-5.7,1.16.92.92,0,0,1-.25-.06l.18,0a7.09,7.09,0,0,0-1.12.18c-.57,0-.94,0-1.48.11a12.74,12.74,0,0,0-3,.24c.11.27-1.08.37.06.47-.15,0,.17-.06.77-.14.14,0,.3,0,.39-.08l-.06,0,2.26-.3a6.71,6.71,0,0,1-2.46.42c-.45.23-.94.48-1.22.6-1.29-.23-3.72-.15-4.09-.35-2.76.51-6.53,1-8.21,1.72a1.94,1.94,0,0,1-1.23-.07c.45-.11,1-.18,1.23-.28-1.57.34-4.68.67-5,1.09-2,.11,1.07-.5-1.66-.05l.36-.17c-5.46.2-8.61,2.15-14.66,2.31a2,2,0,0,1,.72,0c-3.42.35-6.9,1-10.37,1.54s-6.93,1.21-10.31,1.49a9.7,9.7,0,0,0-3.22.84l-.46-.23-1.92.68c-2.76.74-5,.11-8.45,1.2l.49.12c-1.28.17-4,.83-3.84.56a1.48,1.48,0,0,1-.9.27l-.07-.14L925,488c-2.44.33.27-.69-3.27-.07-1.31.3-3.67,1.13-3.15,1.15s1.37-.15,1.44,0l-1.19.3c-.13.5-1,1.14,2,.92l2-.65.7.1-1.73.33a5.22,5.22,0,0,0,2.28-.52,2.1,2.1,0,0,0,.91.08l1.94-.8c.27.14-.84.52.53.37.91-.37-1-.23.56-.65,1,0,.77.25,1.89-.14.18.09-.05.21-.5.34a26.84,26.84,0,0,0,3.2-.88c1.07.08,3.46-.66,3.44-.21a15.19,15.19,0,0,1,2.69-.83c-1.64.81,3.55-.58,3.18.05,1.2-.69,4.59-1,6.81-1.6a1.6,1.6,0,0,1-.56.18,19.42,19.42,0,0,1,2.51-.13c.1-.41,2.08-.82,3.11-1.24,1.62.12-.88.61-.33.89-.13-.3,2.67-.75,2.09-.93,1.24,0,1-.05,1.72.17.14-.51,1.1-.25,2-.7,1.77,0,.52.39,2.4,0C962.7,483.49,961,483.92,961,483.92Zm45.28-7.05h0l-.94.14Zm3.82-.45-1.66.17c-.14-.08,0-.19.38-.23C1008.64,476.45,1009.55,476.4,1010.13,476.42Zm-8.32-1c.6-.12.81-.09.9,0l-1.06.16-.06.05A.5.5,0,0,1,1001.81,475.46Z" transform="translate(-911.84 -466.06)"/><path class="cls-1" d="M1000.76,476l-.24.05.37,0,.2-.12Z" transform="translate(-911.84 -466.06)"/><path class="cls-1" d="M1157.32,687l0-.08a.83.83,0,0,1,0,.18A.41.41,0,0,1,1157.32,687Z" transform="translate(-911.84 -466.06)"/><polygon class="cls-1" points="151.27 5.79 151.26 5.72 150.93 5.81 151.27 5.79"/><path class="cls-1" d="M1150.1,704.64a.56.56,0,0,0-.27.05A1.27,1.27,0,0,0,1150.1,704.64Z" transform="translate(-911.84 -466.06)"/><path class="cls-1" d="M1141.69,704.54a11.32,11.32,0,0,1-1-.64A8,8,0,0,0,1141.69,704.54Z" transform="translate(-911.84 -466.06)"/><path class="cls-1" d="M1136.66,700.23a.53.53,0,0,0-.18,0h0Z" transform="translate(-911.84 -466.06)"/><path class="cls-1" d="M1141.14,614.64l0-.27C1141,613.74,1141.06,614.17,1141.14,614.64Z" transform="translate(-911.84 -466.06)"/><path class="cls-1" d="M1145.59,647.75c-.1-.34-.21-.68-.3-1C1145.36,647.3,1145.43,647.76,1145.59,647.75Z" transform="translate(-911.84 -466.06)"/><path class="cls-1" d="M1138.56,577.45h0v0Z" transform="translate(-911.84 -466.06)"/><path class="cls-1" d="M1145.06,645.17a8.82,8.82,0,0,0,.23,1.54A11.44,11.44,0,0,0,1145.06,645.17Z" transform="translate(-911.84 -466.06)"/><path class="cls-1" d="M1148.53,682.24l.31.06s0,0,.05,0Z" transform="translate(-911.84 -466.06)"/><path class="cls-1" d="M1148.89,682.26a2,2,0,0,1,.35,0A.72.72,0,0,0,1148.89,682.26Z" transform="translate(-911.84 -466.06)"/><path class="cls-1" d="M1150,682.45l-.74-.14A2.17,2.17,0,0,0,1150,682.45Z" transform="translate(-911.84 -466.06)"/><path class="cls-1" d="M1139.94,683.29l0,.14A.16.16,0,0,0,1139.94,683.29Z" transform="translate(-911.84 -466.06)"/><path class="cls-1" d="M1137.71,684.75c.27-.17.62-.36,1-.58a13.08,13.08,0,0,0,1.17-.62l0-.12a3.63,3.63,0,0,1-1.07.55A4.31,4.31,0,0,0,1137.71,684.75Z" transform="translate(-911.84 -466.06)"/><path class="cls-1" d="M1133,694.83a7.1,7.1,0,0,1-.12-1.22,7.22,7.22,0,0,1,0-1.23,4,4,0,0,1-.18.52c-.05.06-.12-.08-.09-.65a3.15,3.15,0,0,0-.08.89c0,.21,0,.33,0,.4s.06.06.1,0S1132.74,693.24,1133,694.83Z" transform="translate(-911.84 -466.06)"/><path class="cls-1" d="M1136.06,701.74c-.85-1-.11.11-.2.09a1.78,1.78,0,0,0,.56.48S1136.32,702.17,1136.06,701.74Z" transform="translate(-911.84 -466.06)"/><path class="cls-1" d="M1151.29,671.73l.28.06C1151.28,670.86,1151.47,671.81,1151.29,671.73Z" transform="translate(-911.84 -466.06)"/><polygon class="cls-1" points="236.01 196.02 236.04 196.99 236.35 197.4 236.01 196.02"/><polygon class="cls-1" points="236.66 189.78 236.78 190.2 236.37 188.61 236.66 189.78"/><path class="cls-1" d="M1140.54,567l-.3.31C1140.33,568,1140.69,568.08,1140.54,567Z" transform="translate(-911.84 -466.06)"/><path class="cls-1" d="M1138,528.43a4.8,4.8,0,0,0-.07-2.18C1137.93,527.12,1137.88,528,1138,528.43Z" transform="translate(-911.84 -466.06)"/><polygon class="cls-1" points="161.29 2.52 162.06 2.36 160.61 2.55 161.29 2.52"/><path class="cls-1" d="M1139.06,694.32c.11-.07.07-.27-.22-.26l-.23.31Z" transform="translate(-911.84 -466.06)"/><path class="cls-1" d="M1137.2,693.55c-.35.13-.76.38-.58.7.37-.29.43-.15.83-.49.29,0,.49.14.43.26.1-.08.43.11.61-.08a1.34,1.34,0,0,0-1.33-.17C1137.06,693.69,1137.17,693.61,1137.2,693.55Z" transform="translate(-911.84 -466.06)"/><path class="cls-1" d="M1109.26,691.42l.18,0Z" transform="translate(-911.84 -466.06)"/><path class="cls-1" d="M1091.88,691.25c.13,0,.19,0,.2-.08S1091.85,691.22,1091.88,691.25Z" transform="translate(-911.84 -466.06)"/><path class="cls-1" d="M1088.9,691h.18C1089,690.94,1088.94,690.92,1088.9,691Z" transform="translate(-911.84 -466.06)"/><path class="cls-1" d="M1109.26,691.42l-.46-.11C1108.76,691.41,1109,691.39,1109.26,691.42Z" transform="translate(-911.84 -466.06)"/><path class="cls-1" d="M1133.28,694a.71.71,0,0,0,.26-.07l-.24,0Z" transform="translate(-911.84 -466.06)"/><path class="cls-1" d="M1116.93,691.37h.14a.77.77,0,0,0,.12-.13Z" transform="translate(-911.84 -466.06)"/><path class="cls-1" d="M1122.8,691.63c-.13,0-.19.26-.25.38a.38.38,0,0,1,.3-.18A.34.34,0,0,0,1122.8,691.63Z" transform="translate(-911.84 -466.06)"/><path class="cls-1" d="M1132.07,692.77l.17,0Z" transform="translate(-911.84 -466.06)"/><path class="cls-1" d="M1112.72,691.15a.31.31,0,0,0,0-.1A.14.14,0,0,0,1112.72,691.15Z" transform="translate(-911.84 -466.06)"/><path class="cls-1" d="M953.06,723.17a.05.05,0,0,0,0,0S953,723.19,953.06,723.17Z" transform="translate(-911.84 -466.06)"/><path class="cls-1" d="M946.26,724.56l.08,0a.88.88,0,0,0-.05-.15Z" transform="translate(-911.84 -466.06)"/><path class="cls-1" d="M1083.46,690.84h0C1083.62,690.81,1083.54,690.82,1083.46,690.84Z" transform="translate(-911.84 -466.06)"/><path class="cls-1" d="M1033.89,696.61c.6.15-.85.48,0,.61C1033.83,697.12,1034.61,696.65,1033.89,696.61Z" transform="translate(-911.84 -466.06)"/><path class="cls-1" d="M1133.14,694l-.24,0A.72.72,0,0,0,1133.14,694Z" transform="translate(-911.84 -466.06)"/><path class="cls-1" d="M1033.92,697.22Z" transform="translate(-911.84 -466.06)"/><path class="cls-1" d="M1071,691.8a.35.35,0,0,0,.13.11S1071.06,691.85,1071,691.8Z" transform="translate(-911.84 -466.06)"/><path class="cls-1" d="M1080.29,691.56l-.23,0Z" transform="translate(-911.84 -466.06)"/><path class="cls-1" d="M1066.16,692.58a.56.56,0,0,0-.34,0l.06,0A.29.29,0,0,1,1066.16,692.58Z" transform="translate(-911.84 -466.06)"/><path class="cls-1" d="M1061.15,693.1l.1,0,.15,0Z" transform="translate(-911.84 -466.06)"/><path class="cls-1" d="M967.15,717.37a1,1,0,0,1-.31-.15C967,717.38,966.32,717.71,967.15,717.37Z" transform="translate(-911.84 -466.06)"/><path class="cls-1" d="M1133.29,693.86a.17.17,0,0,1-.15.11h.16S1133.33,693.89,1133.29,693.86Z" transform="translate(-911.84 -466.06)"/><path class="cls-1" d="M1066.16,694.8l-.8,0A7.42,7.42,0,0,0,1066.16,694.8Z" transform="translate(-911.84 -466.06)"/><path class="cls-1" d="M1001.35,706.27l-.16.08A.21.21,0,0,0,1001.35,706.27Z" transform="translate(-911.84 -466.06)"/><path class="cls-1" d="M1063,695.12a1.34,1.34,0,0,0-.47-.14l-.08.08Z" transform="translate(-911.84 -466.06)"/><path class="cls-1" d="M966.84,717.21h0Z" transform="translate(-911.84 -466.06)"/><path class="cls-1" d="M962.19,719.73c.71-.26.2-.46.27-.72.81-.42.49.11.85.17.49-.3.77-.77,1.17-.91,0,.05.14,0,.07.14.46-.49,1.65-.65,2.17-1.25a.23.23,0,0,1,.12.05.76.76,0,0,1-.28-.43c.32-.13.51-.45.71-.27-.19.07-.18.17-.24.27l.3-.22c.42.2-.42.28-.33.52a8,8,0,0,1,1.8-1c.22.28-1.12.56-.35.59l-.82.17c.78.28-.48.15.26.48,1.05-.3,1.07-.62,2.12-.89.17-.26-.17-.23,0-.49,1.34-.83,1.44.4,2.35-.4.2-.31.16-.75,1-.8l-.13.45c1-.31.38-.72,1.51-.84-.14.21-.74.39-.57.38.77,0,.4-.37.92-.55l.22.28c1-.42,2.12-1.06,3.27-1.53,0,.12-.2.29.11.3a14.14,14.14,0,0,1,2.29-.83c.81-.21,1.62-.35,2.37-.48l.46-.45c.13,0,.28,0,.16.15.59-.07,0-.19.2-.38s.48,0,.3.17a10,10,0,0,1,3.79-1.42l-.17.15c.84-.14.73-.87,1.57-.84l-.13.09c1.8-.43,3.66-1.31,5.15-1.24.14-.48,1.81-.31,1.77-.91a8.58,8.58,0,0,0,2.31,0c.39-.08.47-.51.93-.7l.09.29.56-.49.43.26.43-.2c-.18,0-.41,0-.41-.12a2.38,2.38,0,0,1,1.8-.11l1.57-.71c0,.13-.27.24-.47.38.8-.55.24.27,1-.23-.12,0,0-.19,0-.26a5.14,5.14,0,0,0,2-.38l-.08.23c1.24-.24,2.55-.73,3.93-1.06-.52,0-.49-.36-.1-.49l.24.28c.21-.26-.45,0,0-.39.52-.09.43.27.16.45l.6-.26c.06.08-.08.17-.09.3.21-.26,1.15,0,1.44-.38l.06.09c1.37-.34,2-.6,3.08-.89,0-.28.41-.32.7-.63a19.74,19.74,0,0,0,2.8-.29c.67-.29.16-.28.44-.51.1.24,1.09,0,.62.3a26,26,0,0,0,3-.9c-.19-.07-.38-.07-.31-.18.27-.1.65,0,.64.1l-.07,0c1.63-.73,4.07-.11,5.32-.9l-.07,0,1.36-.52c.66-.07-.35.26.16.33,1.44-.69,2.42-.37,3.62-.87,1.1.57,3.44-.66,4.83-.42l-.11-.16c.31-.23.43,0,.68,0,0-.13-.39-.09-.19-.22,2.83-.73,6-.63,9-.92,1.08-.11.49-1,1.91-.78l-.35.39a17.54,17.54,0,0,1,3.3-.66,20.93,20.93,0,0,0,3.28-.5c-.12.09-.11.19-.32.21.48.19,1.67-.18,1.66-.37.33,0,.1.16.31.24.47.09,1.11-.43,1.38-.22,0,0-.12.09-.2.12.28-.15,1.38-.13,1.07-.37.82,0,1.52-.29,2.18-.2.39-.36,1.4,0,1.49-.46,0,.46,1.44.2,1.94,0-.16.15.45.11.27.31.58,0,1.11-.18,1-.4,1.12.46,2.12-.6,2.78,0,1.71-.38,3.3-.67,4.85-.9,0,.46-1.72.18-1.61.65a17.19,17.19,0,0,1,3.76-.76c.38,0-.2.21-.33.3,1.47-.31,2.87-.11,4.17-.43,0,0-.14.1-.28.14.26,0,.61,0,.57-.17l-.25.07c-.43-.28,1-.67,1-.83-.41.61,1.31.09.64.86.17,0,.38-.15.34-.29.25,0,.34.11.09.28.92-.16.58-.36,1.42-.4,0,.1-.16.15-.24.27a2.56,2.56,0,0,1,1.55-.37c0,.06,0,.13-.17.14,1.22-.09,2.07-.61,3.42-.49-.39.45.46.12.54.49l.72-.13-.3-.18a9.15,9.15,0,0,1,1.74-.16l-.47.16,1.18-.09-.67-.13c.63-.2-.08-.47.76-.38-.17,0,.64,0,1,.21h0a1.89,1.89,0,0,1,1.1-.17c.13.12-.09.42,0,.5.3-.32,1.48-.11,1.87-.45-.13.08-.14.28-.09.32l.25-.26c.3.08.34.12.3.27.88,0-.29-.47.76-.28-.08,0,0,.06-.21.1,1,.09,2-.19,3-.07.29.37-.84.1-.51.41a26.62,26.62,0,0,1,4.23-.35l-.25,0c.19-.53,1,.28,1.68,0-.16,0-.22.29-.17.24a17.56,17.56,0,0,0,3.29-.24l-.18.13a18.53,18.53,0,0,0,2,.17c.18-.13.51-.1.31-.3,1.79.82,3.47-.38,5.06.37-.19,0-.46.1-.31.1l1.37,0c-.1-.24-.17-.15-.45-.34a1.62,1.62,0,0,1,.91-.2c-.63.12,0,.37.25.51-.05-.07,0-.14,0-.22.7.45.14-.46,1.1-.13l0,.12a4,4,0,0,1,1.1-.13c.15.27-.39.1-.43.32.55,0,1.12-.45,1.61-.16-.24.07-.58,0-.82.11a1.74,1.74,0,0,0,1,.34h0l.93.19-.24-.1c.73-.66,1.42,0,2.38-.46-.93.39-.17.24-.25.54.23.1.58.21.48.29.45-.22.72.23,1.36-.09,0,.09.47,0,.36.27.58-.05-.13-.18-.07-.3.91-.3,2,.57,3.34.21,1.11-.09,1.34-.4,2.37-.48.33.18-.31.33-.31.33a2.9,2.9,0,0,0,1.48.13c-.11.08,0,.16.14.28.42,0,.31-.33.85-.14a1.43,1.43,0,0,1-.45.35c.5,0,1-.18,1.52-.23.12.18-.33.23-.52.33.58,0,1.5,0,1.7-.28l-.36-.13c.21,0,.09.24-.07.28-.51.17-.7-.16-.72-.26l.37,0c-.32-.6-1.47,0-2.2-.12l.34-.39-.77.28c-.15-.12-.24-.37.12-.4-.51-.25-.47.11-.91-.16,0,0,0-.05,0-.07l-.52.08c.1-.07-.07-.3.24-.21-.9-.32-1.5.19-1.83-.16l.08,0c-1.28,0-.14.3-1.13.57l-.59-.8-.14.29c-.14,0-.39-.07-.34-.18-.5.16.08.14-.22.31-.61-.35-1.76,0-1.87-.48-.24.22.6.21-.09.34-.16-.54-.79,0-1.36-.23.2-.26.74-.08.17-.36-.38.44-1.12-.15-1.62-.09,0,.36-1.07.09-1.9.17a15.84,15.84,0,0,0-2.29-.45l0-.06c-.16.36-1,.25-1.53.3,0-.22.14-.3.46-.38l-.54,0a1.12,1.12,0,0,1-.66.19l.15-.27a9.81,9.81,0,0,1-2.38,0c-.06.25.71.73-.27.88,0-.14-.06-.38.2-.43a.86.86,0,0,1-.47.05l.4-.23c-.42-.11-.23.19-.57.16,0-.19-.24-.14-.19-.3s.29.09.42,0a2,2,0,0,1-1-.33c0,.12,0,.27-.29.29-.72,0-.23-.24-.65-.35-.18.13-.64,0-.66.28-.21,0-.24-.15-.32-.23-.38.13-1.74,0-1.33.33l.1,0h-.06c-1.23.27-2.54-.21-3.75-.11v-.1a12.3,12.3,0,0,0-2.12.24c-.22,0-.51-.19-.41-.3a3,3,0,0,1-1.42,0c.56-.17-.19-.15.57-.12a2.53,2.53,0,0,0-1.65,0c.26-.26-.54-.31-.88-.23l.5.17a6.29,6.29,0,0,1-1.06,0l.18-.34c-1.47-.38-2.64.73-3.77.07-.38.23.8.15.46.43a9.71,9.71,0,0,1-1.6-.5c-.93-.18-.86.49-1.83.38.13.12.25.43-.47.55-.68,0-.85-.48-.42-.58.16,0,.24,0,.24.06.21,0,.5-.1.23-.22l-.09.12c-.34-.12-1.27-.1-1-.29-.51.12-.22.19.16.25a20.89,20.89,0,0,0-2.25-.07c.14.06.28.2.14.2-1.32-.08-.57.25-1.46.35-.51-.16.17-.44-.72-.25-.55-.1-.13-.31.09-.42a4.35,4.35,0,0,1-2-.1l.43-.11a2.91,2.91,0,0,1-.68.08l.25.23c-.25,0-.46,0-.46-.12-.26.17.21.39-.29.62-.34-.1-1,.18-1.15-.13,1.06.06-.13-.31.76-.4a1.82,1.82,0,0,1-.63,0s0-.07.1-.09c-1-.23-.45.38-1.5.42.13-.18-.26-.32-.43-.28.42,0,.22.29-.16.44-.68-.11-.72.14-1.08.14l.41,0c-.13.19-.47.18-.93.26,0-.14.42-.12.25-.17-.5.34-1.19-.27-1.9,0-.35-.1-.06-.33-.36-.39-.79.27-.89-.18-1.73.07.26.22.3.15-.29.43l1.39-.27-.87.41c.42,0,.88-.22,1.13-.2-.41.23-.37.17-.16.35-.6-.31-1.13.3-1.81.11l0-.59c-1-.18-1.76.44-3.08.4l.43.07c-.16.24-.8.09-1.22.22,0-.2-.25-.25-.44-.36,0,.15-.95.06-1,.47l-.6-.22c-1.07,0-1.16.66-2.17.67.28-.24-.19-.34.47-.55-.33,0-.64,0-.63.15-.21-.1-.92.34-1.24.18-.14.1-.17.31-.55.32,0,0,0-.1,0-.1s-.58.19-.23.38c-1.1-.5-2.9.36-3.85-.06-.73.14-1.61.31-2.28.39,0-.06,0-.09.12-.09-.94-.08-.5.63-1.57.54-.57-.26.54-.23.19-.31-.22-.63-1.25.22-2-.07l.16-.06c-.56-.16-1.28.39-2.17.44a.08.08,0,0,0,0-.1,9.46,9.46,0,0,1-2.51.88c.23-.29.37-.19.17-.43-.37.09.17.4-.58.58-.26-.1-.82-.14-.93-.41l.71-.11c-.41-.31-.92.14-1.3.13l0-.16c-1.08.21-1,.6-2.22.74l.14.1c-.59.48-.57-.14-1.17.24l-.25-.36a20.46,20.46,0,0,1-2.17.77,8.68,8.68,0,0,1,1.78-.88,4.32,4.32,0,0,0-1.61.46c.16-.06.36-.19.53-.15a3.82,3.82,0,0,1-2,.74c0-.78-2.21.12-2.9-.34-1.43.54-2.94.4-4.65.75.71.47-.5.1-.29.68-.39.11-.54.13-.58.1l-1.28-.15c-.32-.12.36-.2.3-.33-.89.11-.42-.19-1-.24.16.19-.24.36-.76.36l.76.16c-1.17.53-1.15-.32-2.33.22l.36-.26c-.62.21-2.34.41-2.85,1-.13,0-.31-.18,0-.28-1.52.24-3.24,1.21-4.46,1.16l.08-.17c-.27.1-.43.38-.81.31,0-.07.08-.17,0-.15a2.57,2.57,0,0,1-1.08.4l.28-.23c-1.51.12-2.16.87-3.36,1.23-.09-.42-1.28-.34-1.87-.26V700a29,29,0,0,0-4.32,1.61c-1.09-.22-3.34.61-5,.74.26,0,0,.34-.22.45s-.94.54-1,.14l.13,0c-.38-.31-1.11,0-1.69.12l0,.54c-1.72-.32-3.92,1.39-4.94,1-.33.23-.79.36-1.12.59l-.05-.28a21.54,21.54,0,0,0-2.81.74l.2-.26c-.71.18-.67,1-1.32,1.23l-.31-.35a11.62,11.62,0,0,0-3.7,1.14c0-.07,0-.19.2-.27-.59.17-2.33.43-1.95.92-.12-.36-1.28.36-1.89.73l0-.3a2.41,2.41,0,0,1-1.19,1c-.2,0-.24-.16,0-.17-.66.06-.4.41-1.19.5l.22-.26c-.64.18-.56.26-.85.56s-1.22.32-1.39.11a.9.9,0,0,1-.72.52c-.08-.07,0-.17.09-.22-1.12.15-1.46.85-2.27.83a.2.2,0,0,0-.18-.11c.84-.29,1.52-.51,1.46-.47-.08-.24-.77-.05-.35-.57a5.53,5.53,0,0,1-2,1.21l-.12,0,.06-.06a.88.88,0,0,0-.4.19,2.5,2.5,0,0,0-.57.12c-.15-.18-.82.16-1.16.27.12.26-.33.37.16.44-.06,0,.05,0,.27-.14.05,0,.11,0,.13-.08v0l.83-.31a1.07,1.07,0,0,1-.88.42c-.12.23-.24.48-.32.6-.59-.21-1.55-.1-1.75-.29-1,.51-2.39,1-2.86,1.67-.26.17-.38,0-.52-.06.15-.11.35-.17.42-.28-.54.34-1.71.66-1.73,1.06-.79.1.3-.48-.69,0l.1-.16c-2.18.21-2.86,2.12-5.31,2.26.17,0,.25,0,.3,0-2.59.67-5,2.24-7.63,2.78-.72.19-.71.44-1.06.79l-.26-.22-.59.63c-.91.67-2.05.07-3.15,1.06l.25.12c-.48.16-1.42.73-1.43.48,0,.06-.07.26-.29.24l-.08-.14-1,.73c-.92.28-.11-.63-1.41-.11-.45.26-1.17,1-1,1s.53-.12.61,0l-.4.26c.11.46,0,1,1.17.88l.63-.58.33.11-.62.28c.44,0,.59-.23.79-.45a.55.55,0,0,0,.41.09l.55-.72c.16.13-.18.47.35.36.26-.34-.49-.24,0-.6.44,0,.41.24.75-.1.11.08,0,.19-.1.31.32-.29,1-.48,1.06-.78.47.08,1.23-.6,1.36-.18a2.65,2.65,0,0,1,.86-.76c-.42.75,1.29-.52,1.34.07.28-.63,1.59-.9,2.3-1.49,0,0-.09.16-.17.17a3,3,0,0,1,1-.12c-.09-.39.6-.75.9-1.13.72.13-.17.56.14.83-.15-.29.88-.68.58-.85.53,0,.42,0,.77.17-.11-.48.38-.23.63-.65.72,0,.33.36,1,0C962.74,719.33,962.19,719.73,962.19,719.73Zm16.35-6.91h0l-.34.14Zm1.4-.49-.61.2c-.08-.08-.06-.19.08-.23C979.36,712.38,979.71,712.32,979.94,712.33Zm-3.61-.8c.21-.12.31-.09.35,0l-.38.17v0A.29.29,0,0,1,976.33,711.53Z" transform="translate(-911.84 -466.06)"/><path class="cls-1" d="M976.05,712l-.09.05h.16l0-.11Z" transform="translate(-911.84 -466.06)"/><path class="cls-1" d="M1109.47,691.47h0l.07,0A.07.07,0,0,1,1109.47,691.47Z" transform="translate(-911.84 -466.06)"/><polygon class="cls-1" points="87.95 240.8 87.93 240.73 87.82 240.82 87.95 240.8"/><path class="cls-1" d="M1117.67,692.69s0,0,.1.08S1117.72,692.72,1117.67,692.69Z" transform="translate(-911.84 -466.06)"/><path class="cls-1" d="M1121.21,692.94l.49.12Z" transform="translate(-911.84 -466.06)"/><path class="cls-1" d="M1123.93,693.22l.06-.12h0Z" transform="translate(-911.84 -466.06)"/><path class="cls-1" d="M1080.58,693.43h-.1C1080.24,693.51,1080.4,693.48,1080.58,693.43Z" transform="translate(-911.84 -466.06)"/><path class="cls-1" d="M1093.46,692.29a3.31,3.31,0,0,1-.41.14C1093.28,692.45,1093.46,692.45,1093.46,692.29Z" transform="translate(-911.84 -466.06)"/><polygon class="cls-1" points="154.41 228.74 154.41 228.74 154.32 228.74 154.41 228.74"/><path class="cls-1" d="M1092.45,692.43a1.21,1.21,0,0,0,.6,0A2,2,0,0,0,1092.45,692.43Z" transform="translate(-911.84 -466.06)"/><path class="cls-1" d="M1135.7,694.25l.13,0,0,0Z" transform="translate(-911.84 -466.06)"/><path class="cls-1" d="M1135.85,694.23l.15,0A.18.18,0,0,0,1135.85,694.23Z" transform="translate(-911.84 -466.06)"/><path class="cls-1" d="M1136.32,694.17l-.32,0C1136.11,694.22,1136.24,694.24,1136.32,694.17Z" transform="translate(-911.84 -466.06)"/><path class="cls-1" d="M1132.12,693.82l0,.1A.23.23,0,0,0,1132.12,693.82Z" transform="translate(-911.84 -466.06)"/><path class="cls-1" d="M1131,693.75a3.19,3.19,0,0,0,1,.24l0-.07C1131.88,694.05,1131.28,693.6,1131,693.75Z" transform="translate(-911.84 -466.06)"/><path class="cls-1" d="M1126.54,692.12c.31,0,.61.1.91.15-.15-.12-.35-.29.07-.28C1126.38,691.58,1127.74,692.24,1126.54,692.12Z" transform="translate(-911.84 -466.06)"/><path class="cls-1" d="M1123.69,691.81c.5,0,0-.15,0-.21C1123.4,691.68,1123.33,691.7,1123.69,691.81Z" transform="translate(-911.84 -466.06)"/><path class="cls-1" d="M1103,691.12l0-.25C1102.69,690.9,1103.07,691,1103,691.12Z" transform="translate(-911.84 -466.06)"/><polygon class="cls-1" points="187.23 226.42 187.6 226.57 187.78 226.33 187.23 226.42"/><polygon class="cls-1" points="184.88 224.63 185.05 224.59 184.41 224.69 184.88 224.63"/><path class="cls-1" d="M1062,692.75l.15.3C1062.41,693,1062.43,692.61,1062,692.75Z" transform="translate(-911.84 -466.06)"/><path class="cls-1" d="M1047.16,694.92a.79.79,0,0,0-.85,0A5.62,5.62,0,0,0,1047.16,694.92Z" transform="translate(-911.84 -466.06)"/><polygon class="cls-1" points="91.11 237.29 91.38 237.11 90.85 237.34 91.11 237.29"/></svg>