<svg id="Layer_1" data-name="Layer 1" xmlns="http://www.w3.org/2000/svg" viewBox="0 0 167.38 153.02"><defs><style>.cls-1{fill:#202020;}</style></defs><title>2</title><path class="cls-1" d="M907.31,602.57c0-.69,0-1.81-.06-2.69a2.35,2.35,0,0,0-.21-1c-.11-.23-.25-.31-.43-.17a47,47,0,0,1-1.05,5.23A13.4,13.4,0,0,0,907.31,602.57Z" transform="translate(-876.1 -563.26)"/><path class="cls-1" d="M905.55,592.34a29,29,0,0,1-3.69,3.61,23.68,23.68,0,0,0-4.65,5c2.21-1.42,3-1.81,3.76-2.3a11,11,0,0,0,3.41-3.6c.36-.16.37.29.27,1.05a11.46,11.46,0,0,1-.72,2.7c.36-.59.56-.22.88-.08s.69,0,1.1-1.64c-.07-2.07,0-3.18-.23-3.39s-.74.46-2.07,1.6A24.32,24.32,0,0,1,905.55,592.34Z" transform="translate(-876.1 -563.26)"/><path class="cls-1" d="M906.62,591.42h0Z" transform="translate(-876.1 -563.26)"/><path class="cls-1" d="M905.19,592.37v0Z" transform="translate(-876.1 -563.26)"/><path class="cls-1" d="M905.08,592.91v0Z" transform="translate(-876.1 -563.26)"/><path class="cls-1" d="M906.62,591.42l-.07,0Z" transform="translate(-876.1 -563.26)"/><path class="cls-1" d="M891.48,591.24a3,3,0,0,0,1.46.46,2.55,2.55,0,0,1-.63-.51Z" transform="translate(-876.1 -563.26)"/><polygon class="cls-1" points="30.3 28.42 30.31 28.41 30.32 28.41 30.3 28.42"/><path class="cls-1" d="M907.64,590a.41.41,0,0,0,0,.07l0-.08Z" transform="translate(-876.1 -563.26)"/><path class="cls-1" d="M908.86,589.39h0Z" transform="translate(-876.1 -563.26)"/><path class="cls-1" d="M907.17,591.46h0Z" transform="translate(-876.1 -563.26)"/><path class="cls-1" d="M894.23,581.91Z" transform="translate(-876.1 -563.26)"/><path class="cls-1" d="M903.49,583l0-.25c-.14-.85-.28-1.67-.42-2.49C903.2,581.22,903.33,582.13,903.49,583Z" transform="translate(-876.1 -563.26)"/><path class="cls-1" d="M905.15,593h0S905.12,593.06,905.15,593Z" transform="translate(-876.1 -563.26)"/><path class="cls-1" d="M906.06,591.83c-.06.22.09-.38,0,0C906.07,591.79,906,592.05,906.06,591.83Z" transform="translate(-876.1 -563.26)"/><path class="cls-1" d="M892,590.79a1.28,1.28,0,0,1-.09-.61C891.81,590.47,891.84,590.66,892,590.79Z" transform="translate(-876.1 -563.26)"/><path class="cls-1" d="M906.07,591.8v0Z" transform="translate(-876.1 -563.26)"/><path class="cls-1" d="M906.47,592.21l0,0Z" transform="translate(-876.1 -563.26)"/><path class="cls-1" d="M906.23,592.68l.09,0Z" transform="translate(-876.1 -563.26)"/><path class="cls-1" d="M905.25,591l0-.08h0Z" transform="translate(-876.1 -563.26)"/><path class="cls-1" d="M905.2,590.44h0S905.2,590.44,905.2,590.44Z" transform="translate(-876.1 -563.26)"/><path class="cls-1" d="M885.58,603.74a31.43,31.43,0,0,1,3.36-2.3C886.19,603.08,884.4,602.08,885.58,603.74Z" transform="translate(-876.1 -563.26)"/><path class="cls-1" d="M894,591a3.82,3.82,0,0,1-2-.18,1.52,1.52,0,0,0,.28.4A7.45,7.45,0,0,0,894,591Z" transform="translate(-876.1 -563.26)"/><path class="cls-1" d="M893.73,566.43a26.41,26.41,0,0,1,2.81-.41A4.81,4.81,0,0,0,893.73,566.43Z" transform="translate(-876.1 -563.26)"/><path class="cls-1" d="M918.05,570.83l.66-.25C918.6,570.4,918.39,570.43,918.05,570.83Z" transform="translate(-876.1 -563.26)"/><path class="cls-1" d="M904.42,563.88A11.32,11.32,0,0,0,906,567a7,7,0,0,0,.36-1.14A24,24,0,0,0,904.42,563.88Z" transform="translate(-876.1 -563.26)"/><path class="cls-1" d="M889,601.42l0,0Z" transform="translate(-876.1 -563.26)"/><path class="cls-1" d="M876.11,590c-.16,1.44,1.31,1.79,3.19,1.85s4.21-.08,5.9.15c.86,1.08-.19,1.34-1.86,1.54s-3.94.18-5.42.79a9.23,9.23,0,0,0,4.29,1.77c1.61.34,3,.55,3,1a6.83,6.83,0,0,1-2.47.62c2.45.23,2.76,1.08,3.3,1.94s1.28,1.66,4.21.9a13.66,13.66,0,0,1-1.24.81c2.54-1.53,5.25-2.86,7.17-3.8.3.36,3.57-1.2.3.85,0-.26-1.38.48-2.51.94.57-.12,1.13-.25,1.69-.41-4.54,3.23-2,.38-5.61,2.29a15.75,15.75,0,0,0,4.06-.36c1.27-.21,2.1-.34,1.73.42-4.17,3.56-2.66-.54-5.86,3.3a23.29,23.29,0,0,1,.88-2.43c-3.32,2.76-3.3,2.53-3.4,2.23s-.27-.57-3.8,2.42c.08,1.58,1.11,1.85,2.12,2s2,.27,2.3,1.78a13.48,13.48,0,0,0,2.83-2.45,19,19,0,0,1,2.8-2.5c1.47-.46,1.65-.06,1.34.89a38.37,38.37,0,0,1-1.91,3.82,12.56,12.56,0,0,0-1.49,3.65c-.07.8.52,1,2.12-.11,1.28-1.33,2.85-3.45,4-4.77s1.84-1.87,1.82.13Q898,612,896.35,614.6c1.18.92,2.46-1,3.44-2.5a5.48,5.48,0,0,1,1.3-1.62c.38-.18.67.11,1,1.28-1,2.23-2.61,1.32-2.43,2.15.18,2.61.89,1.9,1.52.55s1.33-3.32,2-3.2c-.27,1.8-.52,3.6-.73,5.4a7.49,7.49,0,0,0,2.75-.77,14.67,14.67,0,0,0,2.62-1.7c1.71-1.28,2.77-2.8,4-3.63.34,1.59.2,3.39,1.43,4.78a8.22,8.22,0,0,1,2.75-2.1,12.46,12.46,0,0,1,3.2-1c2.27-.4,5-.57,7.58-1a38.57,38.57,0,0,0-2.59-4.16c.21-.18,2,.88,2.5,1.73,1.15,0,.57-.51-.43-1.17a12.61,12.61,0,0,1-2.94-2.36c.12-.71,2.74.82,3.6,2a47.16,47.16,0,0,1-2.26-6.2c-.34-1.66.15-2.65,2.85-2.93l1.21.81c1.17-.56-1-1.7-3-2.55s-3.66-1.49-1.39-1.73l.77.39a3.41,3.41,0,0,0,.89-2.33c.06-.82-.09-1.69-.11-2.52a5.48,5.48,0,0,1,.52-2.62,13,13,0,0,1,2.7-3.36c-3.33.71-2.86-.37-2.93-1.51s-.48-2.09-4.61.18c1.49-2.05,2.51-3.37,3.3-4.67a7.33,7.33,0,0,0,.9-5.39c-.26-.58-1.62.15-3,1.09s-2.91,2.08-3.62,2.14l3.06-3.86a39,39,0,0,0-4.36,3.18c.9-1.76,1.76-3.54,2.54-5.37-.56.14-1.12.3-1.66.48.27.49-.32,2.38-1.13,3.55-1.23.56-1.55-.62-1.63-2.24a15.5,15.5,0,0,1,.54-4.95,21.33,21.33,0,0,0-5,2.8,7.62,7.62,0,0,1,2.16-3.5c-1.69,2.15-1.41.9-1.21-.45s.41-2.75-1-.66a18.56,18.56,0,0,1-.87,3.84c-.16-1.54-.81-2.41-1.63-2.72a2.6,2.6,0,0,0-2.5.58c.11-1.13.22-2.26.35-3.39a6.49,6.49,0,0,0-4.66.77,35.22,35.22,0,0,1-4.57,2.17c1.63,1.15,2.88,6.94,2.45,7.66-.63-1.62-1.28-3.24-2-4.84a5.24,5.24,0,0,0,1,2.51,6.83,6.83,0,0,1,.79,3.14c-1-.27-2.79-5.29-2.67-7.15-.25.73-.5,1.49-.69,2.23a36.13,36.13,0,0,1-1.35-4.17c.31,1.63-.81.68-2,.12s-2.35-.71-1.38,2l-.87-1.29a9.86,9.86,0,0,0-3.56,3.61c-.39.63-.74,1.29-1.13,2a20.23,20.23,0,0,1-1.32,2.06,7.86,7.86,0,0,1,2.5,3.09,8.07,8.07,0,0,0,1.84,3c-.58.19-1.27.36-2,.57a15.58,15.58,0,0,0-2.23.84,6.73,6.73,0,0,0-2,1.35,4.14,4.14,0,0,0-1,2.11,3.66,3.66,0,0,0,2.72,1.87A11.77,11.77,0,0,1,888,588a5.41,5.41,0,0,0-3.88.62,2.3,2.3,0,0,1-2.9-.18,18.78,18.78,0,0,0,.3,2.41,7.5,7.5,0,0,0,.68,1.82,8.13,8.13,0,0,0,1.3,1.79,14.17,14.17,0,0,0,2.4,1.83c1.52-.8,2.16-1.3,3.56-1.44.39.17,0,.55-.63,1A9.7,9.7,0,0,1,886.2,597l-.46,0c1.76.45,2.07,1.21,1.83,2.41s-1,2.68-1.58,4.31-.94,3.27-.58,4.34,1.43,1.5,3.47.53l-.42.17a26.2,26.2,0,0,0,5.16-1.35c.29.66-.3,1.17-1.11,1.81a5,5,0,0,0-2.16,2.76c1.8-.8,2.86-1,3.61-.91a3,3,0,0,1,1.75,1.16,4.31,4.31,0,0,0,1.64,1.39,2.58,2.58,0,0,0,2.63-.69c-.29,3.07.5,4.76,1.66,5.57s2.8.73,4.4.34,3.21-1.07,4.73-1.29a6.21,6.21,0,0,1,4.9,1.34l-1.25-2.58c.09-1.51.52-1.25,1.15-.6s1.4,1.71,2,1.79c-1.09-1.92-2.25-1.82-2.22-3.51.91-.87,1.84-1.69,2.78-2.43l2.93-2.2a71.49,71.49,0,0,0,6.2-4.91c4-3.55,7.38-8,8.63-12.46.33-1.6-3.4-1.81-6.34-2a11.55,11.55,0,0,1-3.29-.44c-.51-.29-.28-.69,1.27-1.7,1.78-.06,3.57-.06,5.36,0-3.57-2.19-4.14-4.28-5.07-6.74a9.72,9.72,0,0,0-1.93-3.43,5.36,5.36,0,0,0-1.7-1.25,6.29,6.29,0,0,0-2.48-.6c1.11-.59,2.31-1.62,2.68-1.17,1.06-1.72.2-2.74-1.12-2.87a5,5,0,0,0-4.2,1.77c-.51-.85,1.6-2.35,2.06-4,.06-1.36-1.39-.92-2.72-.5s-2.31.84-1.81-1c.14-.62,1-.91,1.37-1-.91.56-1.94-.09-2.9-.28s-1.85.1-2.13,2.34c-.91-1.43-2.39-1.32-3.62-1.13s-2.31.5-3.32-.85c-.77,2.45-1.73,1.84-2.65,1.6s-1.79-.2-1.35,3.28c-.48-3.58-1.82-4.89-3.19-4.64s-2.49,2-2.43,3.8c-.41-2.23-2.14-1.5-2.91-4.49a3.06,3.06,0,0,0-1.63,2.3,5.36,5.36,0,0,0,1.45,3.72c-3.69-2.79-4-.23-3.93,1.64s.48,3.2-4.34.29a24.55,24.55,0,0,0,.31,4.13A25.33,25.33,0,0,0,886,582c.49,2,1.07,3.68,1.53,5.12-3.47-1-3.4-1.85-3.35-2.69s.11-1.67-3.39-3.1c.7,2.18,2.55,4,3.91,5.47s2.31,2.48,1.34,3.62c-1,.58-3.09-.68-4.27-1.15,1.31,1.69,1,2.94,1.1,4.41a4.34,4.34,0,0,0,.42,2.08,3.72,3.72,0,0,0,2.1,1.73,4.19,4.19,0,0,1-2-.15c.33.49-.75,1.55,2.42.66l-1-.28c2.23-.94,4.76-1,7-1.13a21.65,21.65,0,0,0,5.41-.79c-4.52,1.31-5,1.86-5.62,2.65a6,6,0,0,1-1.76,1.37,24.94,24.94,0,0,1-5.53,2.08,7.4,7.4,0,0,0,4.3-1.07c-.35.73-1.36,1.55-3.9,2.07a5,5,0,0,0,3.76,0c1.11-.29,1.9-.53,2.4.2a24.71,24.71,0,0,1-3.71,1.81c1.6-.4,3.15-.92,4.25-1.12s1.76-.1,1.77.88c-.75.6-1.52,1.61-1.83,1.24,1.16.87,3.46.06,5.14-.72s2.83-1.54,3.14.24c-3.44,6-.19,2.38-2.08,8a22.05,22.05,0,0,0,2.16-1.15q.08-1.5.24-3c.59.26,1.4-.65,2-1.37s1.12-1.25,1.44-.22q-.52,1.17-1.17,2.31c.4-.12.79-.25,1.17-.4s.71-.32,1.05-.5a20.57,20.57,0,0,1-.88-2.33,16.42,16.42,0,0,0,.84-4.67c.12-1.29.18-2,.5-1.15-.15.6.46.11,1,3.59h0c.28-1.93.27-3.94.91-2.53.44,1.87.9,6.54,1.19,7.78-.12-2.49.28-2.92.68-3.42s.78-1,.15-3.63c.27,1.23,1.16,4.22,1.41,4.82-.28-1.32-.6-2.65-.95-4a14.27,14.27,0,0,1,1.79,4.06c.72.13-.08-1.6-.7-3s-1.12-2.61,0-1.31a13.07,13.07,0,0,1,.37,1.52c.93.57,1.23-.33,1.42-1.12s.3-1.54,1.31-1c3.75,4.73-.08,1.83,3.05,5.83.66-1.06.47-3.18.17-4.92s-.62-3.13.45-3.27l-.71-.2c-3.15-2.83-2.25-2.26-.77-1.57s3.58,1.5,2.13.06a27.26,27.26,0,0,0,3,2.24c1-.2.93-1.25.37-2.41a19,19,0,0,0-2.7-3.76c.67.26,1.35.54,2,.83a1.87,1.87,0,0,0,1.73-1.16,4.58,4.58,0,0,1,.94-1.62c-2.14-.5-1.78-.92-5-.8,3.11-.42,4.29-1.26,4.32-2a1.33,1.33,0,0,0-.61-1.07,6,6,0,0,0-1.45-.73c-1.09-.4-2.23-.57-2.53-1s.21-1.1,2.21-2.84c.15.23,2-.2,1.93-.43a15.6,15.6,0,0,0-2.84-.91c-3,2.17-1.71,1.47-4,3.25-2,1-3.53,1.69-3.64,1.53a18.89,18.89,0,0,0,3.46-2.28,23.67,23.67,0,0,0,2.75-2.75c-.86.74-1.92,1.41-2.81,2.14,2.32-2.37.81-1.28-.83.07-.83.67-1.71,1.38-2.2,1.72s-.57.31.09-.6l1.42-1.32c-1,.4-2.89,2.16-2.71,1.58,2.58-3.42,1.52-1.33,3.89-3.93-.37-.16-1.92,1.18-3,2.22s-1.63,1.73-.73-.21c.82-.91,1.11-.71,2-1.51a10.9,10.9,0,0,0,1.53-3.63c0-.47-.22-.47-.35-1v.13a10.86,10.86,0,0,0-.75-2.88c0,.49,0,1,0,1.46-1.47,2.4-2.25,3.73-2.76,4.42s-.75.76-1,.71-.46-.22-.79.09-.71,1.07-1,2.88c.27-1.71.58-2.8.74-3.56a5.87,5.87,0,0,0,.21-1.57,13.82,13.82,0,0,1,0-3.67c-.37-1.41-1.42-2.9-1.13-4.26-.65,2-1.11,1.21-1.8.72s-1.52-.65-1.68,2.32c-.31-1.57-1.61.31-2.46-3.52-1,1-.57,1.59.07,2.16a4.28,4.28,0,0,1,1.69,2.18c-.31,1.5-.82,2-1.62,2.11s-1.91,0-3.1.06a4,4,0,0,0-3,1.18c-.57.73-.69,2,.58,3.56a6.41,6.41,0,0,0,1.74,2.42,15,15,0,0,0,2.58,1.71,29,29,0,0,0,5,2,21.58,21.58,0,0,1-3.75-.47,10.24,10.24,0,0,1-1.84-.58c-2.4.37-2,1.36-.19,1.94a12.54,12.54,0,0,0-4.24.57c.24.41,1.67.37,2.76.35s1.84,0,.8.63a25.6,25.6,0,0,1-6.32.26c1.62,1.11,4.75,1.39,6.42,1.67a7.29,7.29,0,0,1-3.14,1.06c-1,.08-1.86-.06-2.79,0a9.3,9.3,0,0,0,3.23,1.74,4.5,4.5,0,0,0,2.19,0,6.64,6.64,0,0,0,2.52-1.18,6.58,6.58,0,0,1,.78-1.49c.34.13-2.83,2.39-3.74,2.46-1.77.39-1.77-.37-1-1.08a12.63,12.63,0,0,1,2.88-1.83c.37,0,.78.09,1.17.1,3.84-2.5,3.59-2.22,2.06-2.16a13.92,13.92,0,0,1-2.57-.05c-.83-.12-1.43-.35-1.31-.62q3.33-.12,6.63-.54a24.58,24.58,0,0,1-5.55-.12,45.7,45.7,0,0,1,6.45-.16c1.63-.11,1.06-.06.51-.11s-1-.13.79,0l.38,0h0l-.26,0c-.32-.05-.65-.1-1-.17l1.2.2-.27-.07-.28-.1h0a1.23,1.23,0,0,1-.24-.12l-.19-.11c-.71-.41-1.54-.87-2.46-1.43a13.37,13.37,0,0,1-3-2.34,46.85,46.85,0,0,1,5,3.41l.29.23s0,0,0,0h0l0,0,0,0,0,0a.51.51,0,0,1-.09-.1l-1.1-1.39a9.23,9.23,0,0,1,1,1.29s0-.06,0,0,0,0,0,0,0,0,0,0v0l.24.94,0,.08h0l0-.18a13.87,13.87,0,0,1-.45-2.26l.46,2.31,0,.1h0v0c0,.24-.05-.59,0-.8s.06-.15,0,.81v0a1.81,1.81,0,0,1-.06.36,3.71,3.71,0,0,1-.34.71,3.93,3.93,0,0,1-.61.76h0l-.13.12-.09.06c-.09.07.1-.08.34-.23l-.4.28h0l.05,0-.07,0,0,0h0s0,0,.3-.13h0l.23-.07.48-.17,1.91-.67c2.53-.89,4.88-1.78,6.34-1.72-2.11.67-5.76,1.69-6.65,1.91.28-.09,1.8-.43.9-.12-.6.13-1.21.28-1.81.44l-1.33.38.41-.11a11,11,0,0,1,1.81-.43l-2,.48h0l-.14,0a2.64,2.64,0,0,1,.35-.07l.11,0a.51.51,0,0,1,.17,0h0l-.61,0h-.16c-.07,0-.1,0-.07,0h0l.1,0,.48.12c.25.07.35.12.33.14a2.74,2.74,0,0,1-.89-.24l-.35-.14-.21-.09-.16-.07a1.64,1.64,0,0,1-.26-.16h0l-.17-.1-.08-.06,0,0,.12.09a25.27,25.27,0,0,1,2.11,1.89,2.14,2.14,0,0,1-.39-.29c-.23-.19-.55-.47-.9-.79l-1.14-1.05-.15-.15h0s-.19-.2.2.21c.09.09.09.11,0,0l-.36-.39.06.07a.87.87,0,0,1-.13-.16h0v0a2.9,2.9,0,0,1,.31.78c0,.13-.08-.25,0-.14s.1.49.13.55a5.14,5.14,0,0,1,.05.66v0c0,.29,0,.59,0,1a15.27,15.27,0,0,1-.14,1.85,7.77,7.77,0,0,1,0-1.55l.06-.64,0-.17v-.08h0s0,0,0-.05v-.09c0-.08,0-.18,0-.09v0l0,.29c0,.13,0,.06,0,0a1.07,1.07,0,0,1-.06.27.3.3,0,0,1,0,.11v0c-.05.12,0,0,0,0l0,0h0l-.25.36h0s-.12.14,0,0l-.06,0,.08-.07,0,0,0,0h0l.12-.09.13-.07a1.49,1.49,0,0,0-.2.12l.16-.1h0c.27-.13.06,0,.45-.2l.15,0c-.15,0-.07,0,.06,0s.29-.08.42-.1l-.16,0a2.31,2.31,0,0,1,.37-.06h-.1a3.5,3.5,0,0,1,.66,0h.09c.16,0,.24,0,.29,0h0l-.17,0,.14,0-.19,0h0l.15,0h0l-.46-.08c-.11,0-.12,0,0,0l.48.1h0l-.12,0s-.19-.07-.38-.17l.11.06s-.21-.12-.36-.19l-.14-.08s-.33-.25-.37-.27l-.19-.15-.21-.21-.12-.12a2.17,2.17,0,0,1-.24-.32c.05.06,0-.06.11.16l-.1-.15,0,0a1,1,0,0,1-.15-.28s0,0,0,0h0l-.05-.16c.07.21,0,.14.05.15h0v0l0,.05a1,1,0,0,1,0,.16v0h0v-.35h0v0s0,0,0-.07,0-.16,0-.14a.16.16,0,0,1,0,.09.67.67,0,0,1,0,.12l-.08.13,0,0a3.91,3.91,0,0,1-.34.48l.06-.07a2.37,2.37,0,0,1-.21.23,2.49,2.49,0,0,1-.42.39l.07,0a4.89,4.89,0,0,1-.75.5h0a1.3,1.3,0,0,1-.29.14l0,0a7.21,7.21,0,0,1,.69-.24,9.87,9.87,0,0,1,1.19-.3l-1.94.56h0l1.83-.52a10.78,10.78,0,0,1,1.59-.34c-1.06.31-2.13.59-3.33.84h.06l-.12,0,.24,0h0a4.26,4.26,0,0,1,.91,0h-.06l.47,0,.5.06-.27,0-.32,0-.1,0h0l.28,0,.1,0a3.14,3.14,0,0,1,.47.14,1.58,1.58,0,0,1,.47.2,1.55,1.55,0,0,0-.34-.16l-.19-.06-.23-.08.39.13a1.83,1.83,0,0,1,.29.12l-.22-.1a1.73,1.73,0,0,1,.33.17.67.67,0,0,1,.23.14l0,0h0l0,0-.08-.11a.7.7,0,0,1-.09-.16c-.05-.12,0-.06,0,0a.19.19,0,0,1,0,.08s0,0,0-.06v-.17c0-.12,0-.16,0-.36,0,.23,0-.19,0-.14l.06-.2a1.46,1.46,0,0,1,.16-.46c0-.11-.06.13-.05.12l.15-.34s.06-.11.15-.25l-.13.21.19-.33.17-.22,0,.06a1.08,1.08,0,0,1,.13-.15l-.06,0h0a3.63,3.63,0,0,1-1.26.56h0c-.09,0-.23,0-.3.05h0a1.47,1.47,0,0,1-.33,0h-.1l-.09,0h0l.4.15h0a.41.41,0,0,1,.11.07h0a3.06,3.06,0,0,1,.81,1.07,3.78,3.78,0,0,1,.22.6l0,.2v-.1a3.44,3.44,0,0,1,0-.36v0a1.9,1.9,0,0,1,.11-.38,1.68,1.68,0,0,1,.17-.42,1.42,1.42,0,0,1,.19-.32.85.85,0,0,1,.1-.14l.09-.1h0l0,0h0l0,0h0l0,0a1.2,1.2,0,0,1-.23.12l0,0a2.94,2.94,0,0,1-.39.13h0a3,3,0,0,1-1.11.08h0a1,1,0,0,1-.28,0l.13,0h0a2.41,2.41,0,0,1,.27.14s0,0,0,0l.32.22-.08-.06.27.21a2.29,2.29,0,0,1,.35.34,1.77,1.77,0,0,1,.17.2l0,0,.21.3.06.13,0,.05h0l-.08-.17-.05-.08s.09.15,0,0a1,1,0,0,1,.13.29h0v0h0l.06.47h0v0h0v0h0l-.06-.47h0l.06.47h0v0a.82.82,0,0,1,0-.14s0-.06,0-.11a2.39,2.39,0,0,1,.2-.53,5.11,5.11,0,0,1,.29-.47l.11-.13-.12.14a3.46,3.46,0,0,1,.43-.48l.09-.09,0,0c.29-.25.13,0-.77.21l.1,0a3.56,3.56,0,0,1-1.46,0l-.12,0h0l0,0h0l0,0a.29.29,0,0,1,.1.08h0l4.13,3.62h.13l.27,0,.6.12c.43.1.92.22,1.45.39,1.89.35-1.07-2-3.21-3.95l4.07,2.6c-1.37-1.27-2.8-2.49-4.26-3.67-1.49-1.44,1.2-.19,3.67.53a6.85,6.85,0,0,0,2.85.46c.47-.19.25-.79-1.35-1.93-1-.35-2.06-.72-3.08-1.1.39-.1.12-.74.15-1.09s.43-.69,2.22-.13l-1.59-.63c-.52-.22-.76-.36.1-.37l2.48.52q-.45-.48-.93-.9l-.49-.4a2.78,2.78,0,0,1-.49-.44,9.88,9.88,0,0,0-1.05-.92,12.33,12.33,0,0,1-1.14-.83,4.72,4.72,0,0,1,1.83-2.3,14.13,14.13,0,0,1,2.95-1.79,3.09,3.09,0,0,0,2-3,6.7,6.7,0,0,0-1.26-3.36,12.33,12.33,0,0,0-5.17-4.08,5.7,5.7,0,0,0-.75-.17l-.55,0a7.8,7.8,0,0,0-1.17.05,9.11,9.11,0,0,0-2.42.59,8.48,8.48,0,0,0-1.14.53,1,1,0,0,0-.38.32l-.26.34a8.91,8.91,0,0,0-.9,1.47,6.35,6.35,0,0,0-.55,4.92c.29,0,.72.34,1,1a7.44,7.44,0,0,1,.58,2.92,5.43,5.43,0,0,0-.43,1.37l.51,2.74.24,1.16v0c.51,2.34,1,4.6,1.47,6.81l.14.63.07.32v0l-1.69-7.78h0l0-.07c0-.06,0-.14-.08-.26s-.05-.27-.07-.46,0-.2,0-.32v-.19a.36.36,0,0,0,0-.11.9.9,0,0,1,.08-.45c0-.1,0-.09.06-.15s0,0,0,0l.06-.06s0,0,0,0,0,0-.05.14c.05-.14,0-.13.09-.19a.22.22,0,0,1-.15.09,1.58,1.58,0,0,1-.35.11h-.23l-.35,0a2.85,2.85,0,0,1-.71-.07c-.1,0,.1,0,.14,0s.09,0-.54-.06c-.83-.14.8.14-.58-.11-.41-.11-.57-.16-.78-.2s-.41-.09-1-.27c-.16-.06.07,0,.52.16a27.8,27.8,0,0,1-3.19-1.17c-.48-.19-1.27-.53-1.91-.86l-.94-.46c-.12-.06-.43-.22-.8-.43l-.72-.4c.36.21,0,0-.41-.24l-.08-.05.3.2.7.49c.44.31.88.65,1.3,1,.58.43,1.15.9,1.64,1.33l-.5-.43.7.61.07.07h0l-8-7h-.15l-.33,0c-.23,0-.46-.06-.69-.1a12.22,12.22,0,0,0-2.87-.33,21.14,21.14,0,0,1,4.61,5.09,16.1,16.1,0,0,0,3.37,4,13.31,13.31,0,0,1-6.11-2.7c-1.46-1.16-2.7-2.65-5.44-3.66a8.33,8.33,0,0,1,3.73,3.76,4.9,4.9,0,0,0,3.62,2.59,22.88,22.88,0,0,0-3.16.15c-.67,0-1.49-.1-4.11-.36,3.75,1.15,4,1.52,3.85,1.94s-.69,1,1.63,1.79a20.35,20.35,0,0,1-4.92.63c-1.06,0-1.37.28-.24,1.51a4.22,4.22,0,0,1-3.48-.19A6,6,0,0,1,876.11,590Zm35.29,19.11,0,.09-.67.43A6.4,6.4,0,0,0,911.4,609.12Zm2.75-1.17a3.12,3.12,0,0,0-1.24.37c-.68-1.4-1.18-2.93-.93-2.94C912.25,606.39,913.17,607,914.15,608Zm-7.38-14.33Z" transform="translate(-876.1 -563.26)"/><polygon class="cls-1" points="30.67 30.36 30.67 30.37 30.67 30.36 30.67 30.36 30.67 30.36"/><polygon class="cls-1" points="30.55 28.18 30.55 28.17 30.56 28.18 30.55 28.18"/><polygon class="cls-1" points="46.79 8.13 46.08 9.03 46.99 8.48 46.79 8.13"/><path class="cls-1" d="M917.89,582.79a5.31,5.31,0,0,0,.81-.84A9.66,9.66,0,0,0,917.89,582.79Z" transform="translate(-876.1 -563.26)"/><path class="cls-1" d="M914.25,578.32a15.3,15.3,0,0,0-.14-1.89A9.21,9.21,0,0,0,914.25,578.32Z" transform="translate(-876.1 -563.26)"/><path class="cls-1" d="M909.17,574.42c-.17.78-.24,1.37-.31,1.91v0Z" transform="translate(-876.1 -563.26)"/><path class="cls-1" d="M883.34,597.36a.43.43,0,0,0-.25-.19C882.13,596.79,882.54,597.11,883.34,597.36Z" transform="translate(-876.1 -563.26)"/><path class="cls-1" d="M905.94,604.67a10.18,10.18,0,0,1-.46,2.15C905.82,607.16,906.09,607.23,905.94,604.67Z" transform="translate(-876.1 -563.26)"/><path class="cls-1" d="M893.43,566.49l0,.07a1.69,1.69,0,0,1,.27-.13Z" transform="translate(-876.1 -563.26)"/><path class="cls-1" d="M904.62,606.72c.29.91.62.72.86.1C905.2,606.51,904.91,606.05,904.62,606.72Z" transform="translate(-876.1 -563.26)"/><path class="cls-1" d="M893.72,598.78l.14.54a3.47,3.47,0,0,1,.63-.37C894.24,598.9,894,598.85,893.72,598.78Z" transform="translate(-876.1 -563.26)"/><path class="cls-1" d="M894.49,599l.77.16C895.07,598.87,895,598.74,894.49,599Z" transform="translate(-876.1 -563.26)"/><path class="cls-1" d="M897,599.35a14.48,14.48,0,0,1-1.7-.24C895.53,599.47,895.82,600,897,599.35Z" transform="translate(-876.1 -563.26)"/><path class="cls-1" d="M893.08,588.29l-1.62-.22A12.66,12.66,0,0,0,893.08,588.29Z" transform="translate(-876.1 -563.26)"/><path class="cls-1" d="M893,585.65a13,13,0,0,1-1.94.84c-.77.35-1.37.84-.89,1.39l1.29.19c-1.2-.31-.17-.8.84-1.17S894.28,586.25,893,585.65Z" transform="translate(-876.1 -563.26)"/><path class="cls-1" d="M907.46,588.6c0-.08,0,0,0,0s0,0,0,0,0-.08,0-.06h0v0Z" transform="translate(-876.1 -563.26)"/><path class="cls-1" d="M907.7,589.73c0-.09,0,0,0,0S907.68,589.8,907.7,589.73Z" transform="translate(-876.1 -563.26)"/><path class="cls-1" d="M905,590.5h0C904.94,590.43,905,590.5,905,590.5Z" transform="translate(-876.1 -563.26)"/><path class="cls-1" d="M913.86,606.5c.57.66,1.15,1.31,1.75,1.94-.56-1.11-1.14-2.23-1.73-3.34A13,13,0,0,1,913.86,606.5Z" transform="translate(-876.1 -563.26)"/><polygon class="cls-1" points="28.88 27.44 28.86 27.39 28.92 27.57 28.88 27.44"/><path class="cls-1" d="M905.19,590.56v0S905.18,590.63,905.19,590.56Z" transform="translate(-876.1 -563.26)"/><path class="cls-1" d="M904.2,592.32a2.69,2.69,0,0,1,.41.06A3.09,3.09,0,0,0,904.2,592.32Z" transform="translate(-876.1 -563.26)"/><path class="cls-1" d="M906.37,592.47l0,.09,0-.17Z" transform="translate(-876.1 -563.26)"/><path class="cls-1" d="M1015.11,678.47c.58,1.25,1.83,4.11,2.07,3.34-.58-1.67-1.1-3.37-1.54-5.08A11.91,11.91,0,0,0,1015.11,678.47Z" transform="translate(-876.1 -563.26)"/><path class="cls-1" d="M1020.39,687.06A40.8,40.8,0,0,1,1021,682a31.1,31.1,0,0,0,.56-6.81c-.7,2.51-.92,3.26-1.18,4.12a15.38,15.38,0,0,0-.42,4.91c-.14.32-.33-.08-.59-.8a18.13,18.13,0,0,1-.7-2.7c.05.69-.19.45-.41.46s-.4.28,0,1.9c1.87,3.72,1.48,3.93,2,.5A31.18,31.18,0,0,1,1020.39,687.06Z" transform="translate(-876.1 -563.26)"/><path class="cls-1" d="M1026,688h0Z" transform="translate(-876.1 -563.26)"/><path class="cls-1" d="M1020.54,692.34v0Z" transform="translate(-876.1 -563.26)"/><path class="cls-1" d="M1020.55,692.35h0Z" transform="translate(-876.1 -563.26)"/><path class="cls-1" d="M1026,688h0Z" transform="translate(-876.1 -563.26)"/><path class="cls-1" d="M1030.67,678.11a3.09,3.09,0,0,0-1.36.69,2.86,2.86,0,0,1,.79-.09C1030.29,678.5,1030.46,678.32,1030.67,678.11Z" transform="translate(-876.1 -563.26)"/><polygon class="cls-1" points="149.76 124.87 149.75 124.88 149.74 124.88 149.76 124.87"/><path class="cls-1" d="M1021.1,691.13h0l0,0Z" transform="translate(-876.1 -563.26)"/><path class="cls-1" d="M1019.65,690.74l.06,0Z" transform="translate(-876.1 -563.26)"/><path class="cls-1" d="M1026.08,688Z" transform="translate(-876.1 -563.26)"/><path class="cls-1" d="M1004.32,707c.2-.26.3-.43.47-.65C1004.45,706.66,1004.23,706.9,1004.32,707Z" transform="translate(-876.1 -563.26)"/><path class="cls-1" d="M1016.87,687.84l.24,0,1.26.15h.09s.11,0-.22,0Z" transform="translate(-876.1 -563.26)"/><path class="cls-1" d="M1021.93,691.71Z" transform="translate(-876.1 -563.26)"/><path class="cls-1" d="M1018.27,693.62s0,.06,0,0S1018.27,693.57,1018.27,693.62Z" transform="translate(-876.1 -563.26)"/><path class="cls-1" d="M1030.56,678.79a.84.84,0,0,1,.39.32C1030.89,678.84,1030.79,678.76,1030.56,678.79Z" transform="translate(-876.1 -563.26)"/><path class="cls-1" d="M1018.27,693.63h0Z" transform="translate(-876.1 -563.26)"/><path class="cls-1" d="M1025.5,674.2c-.07.75-.13,1.35-.19,2C1025.37,675.7,1025.42,675.14,1025.5,674.2Z" transform="translate(-876.1 -563.26)"/><path class="cls-1" d="M1022.73,691.65h0Z" transform="translate(-876.1 -563.26)"/><path class="cls-1" d="M1022.92,680.28c0-.35.06-1-.08-.38,0,.22,0,.37-.05.55C1022.89,679.84,1023,679.56,1022.92,680.28Z" transform="translate(-876.1 -563.26)"/><path class="cls-1" d="M1021,680.07l-.08.91.09-.24Z" transform="translate(-876.1 -563.26)"/><path class="cls-1" d="M1037.57,700.17a18.24,18.24,0,0,1-3.73-1.74,6.56,6.56,0,0,1,2.26,2.52C1036.45,701.53,1036.74,701.58,1037.57,700.17Z" transform="translate(-876.1 -563.26)"/><path class="cls-1" d="M1029,680c.79-.82,1.24-1.17,1.54-1.23a1.7,1.7,0,0,0-.46-.08A8,8,0,0,0,1029,680Z" transform="translate(-876.1 -563.26)"/><path class="cls-1" d="M1018.52,715.48l-.22-.69C1018.33,715.23,1018.41,715.47,1018.52,715.48Z" transform="translate(-876.1 -563.26)"/><path class="cls-1" d="M999.7,698.44h-.57C999.06,698.54,999.2,698.56,999.7,698.44Z" transform="translate(-876.1 -563.26)"/><path class="cls-1" d="M1017.33,715.34c.14-1.58.2-2.51.21-3.11l-.17,1.15Z" transform="translate(-876.1 -563.26)"/><path class="cls-1" d="M1033.8,698.41l0,0Z" transform="translate(-876.1 -563.26)"/><path class="cls-1" d="M1026.31,715.32c1.1-.21.93-1.69.43-3.5s-1.29-4-1.61-5.68c.6-1.06,1.12-.11,1.77,1.44a27.33,27.33,0,0,0,2.21,5,10.15,10.15,0,0,0,.47-4.63c-.09-1.65-.28-3,.21-3.17a6.49,6.49,0,0,1,1.34,2.17c-.52-2.41.54-3.21,1.39-4.21a3.46,3.46,0,0,0,.94-1.88,4.42,4.42,0,0,0-1-3.14,9.53,9.53,0,0,1,1.32.69,60.09,60.09,0,0,1-6.6-4.73c.13-.25-.49-1-.77-1.36s-.16-.42,1.55.47c-.26.21,1,1.05,1.94,1.88a13.77,13.77,0,0,0-1.07-1.44c2.56,1.1,2.88,1.53,2.93,2s-.12.93,1.56,2.12a11.63,11.63,0,0,0-1.88-4.13c-.77-1.2-1.3-2-.43-2.22a5.75,5.75,0,0,1,2.5,1,1.9,1.9,0,0,1,.58,1.12,1.14,1.14,0,0,0,.5.89,4.24,4.24,0,0,0,2.38.26,16.28,16.28,0,0,1-2.88,1.41,24.93,24.93,0,0,1,3.53,1.12c.43.24.28.42.14.61s-.26.39.21.71a12.14,12.14,0,0,0,3.83,1.3,4.52,4.52,0,0,0,1.25-4.75c-.39-1.25-.88-2.17.13-3.79a11.09,11.09,0,0,0-3.69-.66,15.61,15.61,0,0,1-3.71-.58c-2.54-1.71.76-2.53,3.86-3.75a17.31,17.31,0,0,0,2.15-1,4.16,4.16,0,0,0,1.38-1.25c.53-.87.12-1.94-2-2.66a49.45,49.45,0,0,0-6.33.68c-1.83.16-2.74,0-1.88-2a47.65,47.65,0,0,1,5.75-2.39c-1-2.18-3.18-1.23-4.86-.52a4.77,4.77,0,0,1-2.07.6c-.47-.07-.63-.5-.55-1.8a2.62,2.62,0,0,1,2.42-.49c.57.14,1,.48,1,0,.88-2.62-.16-2.34-1.39-1.47s-2.77,2.29-3.35,1.84c1-1.51,2-3,3-4.56a7.34,7.34,0,0,0-2.88-.5,12,12,0,0,0-2.85.54c-1.82.58-3.33,1.44-4.51,1.74.38-1.57,1.21-3.15.85-4.91-2.06,1-3.64.78-5.68,0l-3.34-1.33a31.11,31.11,0,0,0-4-1.23,41.62,41.62,0,0,0,.23,5c-.34.11-1.61-1.57-1.6-2.59-1.27-.36-.94.33-.28,1.33a10,10,0,0,1,1.7,3.37c-.53.65-2.5-1.66-2.61-3.25-.25,1.31-.51,2.73-.73,4.07s-.49,2.7-.8,3.79l-.12.41,0,.3a4,4,0,0,1-.15.52,1.77,1.77,0,0,1-.59.78,3.91,3.91,0,0,1-2.76.41c-.33-.35-.66-.71-1-1.08-1.31.34.58,2,2.31,3.2s3.25,2.21,1,2l-.69-.52c-1.51,1-1.37,2.78-1.59,4a2.78,2.78,0,0,1-1,1.73,11.23,11.23,0,0,1-3.49,1.58c3.39.13,2.66.66,2.28,1.26s-.4,1.11,4.29.57c-2.26.82-3.78,1.28-5.12,1.79a10.61,10.61,0,0,0-3.79,2.35c-.3.62,5.9-.7,7-.54L998.14,697c1.73-.22,3.45-.48,5.15-.79-1.84.67-3.69,1.37-5.52,2.09l1.36.09a11.87,11.87,0,0,1,3.34-1.49c1.16,0,.47.6-.78,1.42a28.63,28.63,0,0,1-4.22,2.3c.79,0,1.58.05,2.37.05h0l11.21,10.44a22.75,22.75,0,0,0,2.38-1.37c-.56,1.9-1.4,2.38-2.35,3.41,1.85-2.07,1.53-.83,1.3.51s-.47,2.74,1.12.72c0-1.15.73-2.85,1-3.82a3,3,0,0,0,1.78,2.74,2.83,2.83,0,0,0,2.68-.61c-.08,1.13-.18,2.27-.29,3.4a5,5,0,0,0,2.48,0,9.09,9.09,0,0,0,2.36-.94c.73-.4,1.47-.86,2.15-1.28a10.34,10.34,0,0,1,2.07-1c-1.61-1.1-3.2-6.8-2.88-7.51.7,1.59,1.43,3.16,2.18,4.74a5.78,5.78,0,0,0-1.08-2.46,7.88,7.88,0,0,1-1-3.09c.89.27,3,5.17,3,7q.24-1.1.39-2.16a38.75,38.75,0,0,1,1.6,4.06c-.43-1.58.65-.65,1.71-.08s2.09.79.95-1.81l.9,1.27.25-.17a7,7,0,0,0,2.37-2.93,16.08,16.08,0,0,1,1.59-3c-3.27-3.09-1.91-3.09-4.37-5.85a36.61,36.61,0,0,0,3.83-.27c1.36-.27,2.59-.84,2.88-2a4.46,4.46,0,0,0-2.49-2,16.21,16.21,0,0,1-3.1-1.43,6.49,6.49,0,0,0,3.85.39,2.81,2.81,0,0,1,2.79.77,10.94,10.94,0,0,0,0-2.57,7.71,7.71,0,0,0-.83-2.52l-3.85-12.59h0c-.62.08-1.55.09-2.77.27a12.89,12.89,0,0,1-2.55,2.85c-.7.22.7-1.76,2.12-3.12l.38-.23c-1.55.64-2,.25-2-.71s.23-2.53.35-4.06.09-3.06-.39-3.78-1.36-.63-2.75,1.09l.29-.34a28.7,28.7,0,0,0-3.62,3.32c-.29-.48.07-1.17.57-2a7.32,7.32,0,0,0,1.19-3.29c-1.17,1.4-1.88,2-2.42,2.17s-.9-.13-1.26-.48c-.7-.7-1.49-1.67-2.68.49,0-6.09-1.91-6-3.51-5.19a7.12,7.12,0,0,1-2.38,1c-.79,0-1.6-.47-2.65-2.22l.72,2.76c0,2.85-1.07-1.44-1.75-1.95.63,2.12,1.27,2.33,1.27,3.92a5.93,5.93,0,0,1-4,2l-1.58.19-6,6a46.19,46.19,0,0,0-7,8.5,21.7,21.7,0,0,0-3.43,10.51c.08,1.87,3.79,1.27,6.7.76a10.83,10.83,0,0,1,3.33-.29c.6.17.45.68-.71,2.17-1.72.49-3.47.91-5.23,1.26a15.11,15.11,0,0,1,4.62,2.81c.57.52,1.11,1.1,1.65,1.69s1,1.19,1.62,1.81a13.87,13.87,0,0,0,4.1,3.18,8.31,8.31,0,0,0,2.65.75,7.1,7.1,0,0,0,2.91-.29l3.23.7.1-.35c-.1.7-.21,1.38-.3,2l-3.51-.75c-.27.41-.56.67-.88.55a3,3,0,0,0,.33,1.21l3.84.83c0,1.95.71-1.15,1.05-3.9.08.37-.32,2.81-.43,4.41-.11,2.27,1-4.82.65-1a11.8,11.8,0,0,1-.27,1.52c.34-1.83.47.53.9-3.88.05,2.14.82-1.88.74.75.77-4.9.23,2.43,1.14-4.52-.91,7.19-.18,5.86.43,2.51-.33,2.16-.11,2.27-.56,5.27.23-.08.6-1.39,1-5.08-.65,8.64,1.67-6.82.54,4.22a53.26,53.26,0,0,1,2.85-7.92c-.91,7.15-.74.63-1.64,8.15.74-2.31,1.58-6.7,2.06-7.42l12.62-5.09a2.15,2.15,0,0,1,1.14-1.29c.64-.07,1.25.43,1.78,1.11s.95,1.56,1.34,2.06c-.06-2.49.88-3.85,1.57-5.66a6.26,6.26,0,0,0,.53-2.68,4.06,4.06,0,0,0-1.38-2.65,3.73,3.73,0,0,1,1.87.88c-.14-.66,1.2-1.49-2.08-1.57.28.2.56.42.84.64-2.41.27-4.82-.6-7-1.12a20.76,20.76,0,0,0-5.39-.75c4.71,0,5.29-.33,6.14-.86a6.28,6.28,0,0,1,2.07-.77,25.49,25.49,0,0,1,5.9-.43,7.6,7.6,0,0,0-4.41-.15c.56-.54,1.78-1,4.33-.85a3.1,3.1,0,0,0-1.74-.74,10.93,10.93,0,0,0-1.79-.07c-1.11,0-2,0-2.13-.61a30.07,30.07,0,0,1,4-.71c-1.61,0-3.19.13-4.25.1s-1.6-.16-1.18-.88c.9-.33,2-.94,2.1-.64-.6-.78-2.8-.58-4.5-.22s-2.93.61-2.15-.8c5.73-3.88,1.48-1.78,6-5.71-.69.09-1.38.21-2,.36-.62.77-1.24,1.51-1.88,2.25-.23-.34-1.25.13-2.06.51s-1.41.64-1-.29c.67-.51,1.35-1,2.06-1.46a16.21,16.21,0,0,0-1.83-.08,23.64,23.64,0,0,1-.88,2.21,23.5,23.5,0,0,0-3.26,3.43c-.84,1-1.28,1.52-1,.72.45-.43-.2-.24,1.52-3.32v0c-1.3,1.42-2.45,3-2,1.61.82-1.73,3.29-5.74,3.83-6.89-1.4,2.08-1.91,2.2-2.47,2.37s-1.16.39-2.23,2.84c.54-1.14,1.66-4.06,1.83-4.69q-.88,1.85-1.65,3.72a15.25,15.25,0,0,1,1-4.31c-.51-.54-.9,1.32-1.27,2.86s-.66,2.76-.75,1a9.34,9.34,0,0,1,.59-1.44c-.4-1-1.31-.47-1.94.08s-1.21,1.14-1.91.19c-1.06-6,1.26-1.56.49-6.58a4.88,4.88,0,0,0-2,1.75,13.84,13.84,0,0,0-1.43,2.68c-.79,1.8-1,3.26-2.14,3.15.22.12.43.25.64.38,2.3,4.09,1.26,2.64-.21,1.41l-2.67,5c-1.51.14-3.06.48-1.27.75A34.67,34.67,0,0,0,1008,688c-.68.51-.15,1.07.93,1.52a21.72,21.72,0,0,0,4.08,1.08l-2.17.27c-1.82.89-.8,1.58-1.56,2.42a18.15,18.15,0,0,0,4.82-1.3c-2.83,1.32-3.71,2.18-3.66,2.62s1.05.46,2.08.35a7,7,0,0,1,2.36-.15c.28.2-.2.82-2.09,2.64a4,4,0,0,0-1.75.84,18.08,18.08,0,0,0,2.45-.08c2.81-2.4,1.63-1.55,3.78-3.47a19.53,19.53,0,0,1,3.32-2.08,28.53,28.53,0,0,0-3.23,2.6,38.25,38.25,0,0,0-2.67,2.8c.82-.78,1.8-1.55,2.65-2.34-2.26,2.4-.84,1.2.72-.24s3.31-3.08,1.91-1.35l-1.38,1.36c.64-.39,1.8-1.43,2.27-1.78l1.28.25c0-.23,0-.33.13-.21,1.33,2.87.93,2.58,1,3.6l-4.85-1c-.26.24-.63.61-1.25,1.28a.26.26,0,0,0,.15-.05l6.5,1.3c.25-.66-.17-2.6-.59-3.84s-.74-1.79.61-.33c.5,1.14.18,1.33.43,2.53,1.51,2.05,2.37,2.64,2.82,2.83s.66-.11,1.31-.13l-.15,0a12.23,12.23,0,0,0,3.48-.27c-.49-.1-1-.22-1.48-.36-1.74-2.21-2.8-3.38-3.3-4.09s-.52-1-.4-1.21.31-.42.08-.78a5.24,5.24,0,0,0-2.64-1.46,35.31,35.31,0,0,1,3.35,1.38,6,6,0,0,0,1.49.52,14.77,14.77,0,0,1,3.6.72c1.47-.16,3.11-.72,4.39-.21-1.81-.92-1-1.16-.4-1.64s1-1.16-1.91-1.72c1.57-.06.13-.91,4-.91-.66-.65-1.33-.48-2.08-.22a7.3,7.3,0,0,1-2.58.62c-2.69-.67-1.16-1.36,0-2.61.57-.61,1-1.26.86-1.74s-.94-.8-2.81-.49a13.63,13.63,0,0,0-5.59,1.33,38.12,38.12,0,0,0-4.75,2.41,30.75,30.75,0,0,1,3-2.3,15.94,15.94,0,0,1,1.66-1c1.58-1.77.68-2.12-.91-1.18a15.38,15.38,0,0,0,2.75-3.28c-.43-.1-1.44.91-2.22,1.67s-1.29,1.3-.91.16a28.38,28.38,0,0,1,4.35-4.56,8.79,8.79,0,0,0-2.9,1.46c-1,.64-1.94,1.39-2.6,1.87a8.2,8.2,0,0,1,1.59-2.9c.63-.72,1.35-1.25,2-1.9a7.38,7.38,0,0,0-3.19,1,6,6,0,0,0-2.5,4,11.27,11.27,0,0,1,.21,1.61c-.3.14.62-3.65,1.21-4.32s.86-1,1.07-.9.23.46.16,1a15.51,15.51,0,0,1-1,3.26,9.71,9.71,0,0,0-.81.75c-1.31,4.4-1.31,4-.31,2.89a14.64,14.64,0,0,1,1.82-1.78c.63-.5,1.2-.77,1.28-.52-1.56,1.58-3,3.23-4.45,4.95a27.28,27.28,0,0,1,4-3.81c-1.1,1.36-3.84,3.87-4.55,4.56l-.53.54,0,0h0l.07-.06.15-.13a2.43,2.43,0,0,1,.38-.32l-.23.2-.52.44s0,0,0,0l-.07.06h0l.1-.07.4-.29-.49.36-.07,0h0l.05,0a1.72,1.72,0,0,1-.29.19l-.07,0h0l-.05,0h0l.85-.35a39.66,39.66,0,0,1,6.22-2.24q-2.79,1.15-5.64,2.12l-1.35.44h0l.24-.07-.18.06c-.05,0,0,0,0,0h0l.36-.08c.5-.1,1-.24,2.51-.53-2.17.54-1.64.42-1.54.47s0,0-.55.06h.48a14,14,0,0,1,1.42.06l-1.36,0h-.32a1.67,1.67,0,0,1,.35.07c-.07,0-.31-.08-.06,0,.08,0,.14,0,.24.06l.14.07.06,0a.22.22,0,0,1,.09.06s0,0,0,0-.16-.19-.17-.38l4.66-2.43.08-.08h0l0,0,0,0-.19.17-.48.39.73-.61h0l0,0,0,0,.05,0h0l.15-.1-3.22,1.88A34.85,34.85,0,0,1,1017,693c1.93-1.09,5.26-2.89,6.07-3.29-.26.14-1.64.82-.83.34,1.11-.56,2.21-1.13,3.3-1.73,1.44-.79-2.74,1.47-2.47,1.25l3-1.53H1026l-.08,0-.2.05h0c-2.29.54-1.67.21-.68.07.24,0,.53-.08.76-.1h-.29l-4,2.32a.67.67,0,0,1-.11-.14l0-.08c-.06-.14,0,0,0-.06h0s0-.05,0,.06a.85.85,0,0,1,0,.15v-.09c0,.08,0,.11,0,.18v0a1.85,1.85,0,0,1-.08.58,2,2,0,0,1-.2.56c0,.12.11-.24.06-.13a4.14,4.14,0,0,1-.22.48c-.16.23-.12.21-.26.4v0h0l.18-.23c.46-.6.87-1.11,1.17-1.45a12.29,12.29,0,0,1-1,1.24l-.48.57,0,0v0s.06-.07,0,0v0l-.06.08h0c-.07.07,0,0,0,0h0l.19-.15.15-.08h0a3.47,3.47,0,0,1,.55-.27l-.14,0,.22-.07-.08,0,.15,0,.09,0a2.07,2.07,0,0,1,.39-.09,2.24,2.24,0,0,0-.27,0l.22,0h0a4.55,4.55,0,0,1,.45-.07h.18a.43.43,0,0,1,.17,0h-.07a.56.56,0,0,1,.18,0h0a.73.73,0,0,1-.25-.18l5-18.23,0,.2c0,.38-.07.71-.1,1l-4.85,17h0l4.46-13.83c-.09.47-.22,1.2-.43,2.34l.22-.68-4.25,12.17a.47.47,0,0,0,.13.11.58.58,0,0,1-.12-.1,1,1,0,0,0,.17.13l0,0a.65.65,0,0,1-.15-.12l3.4-5.25c-.17.71-.3,1.07-.22-.38l1.16-9.38c.14-4.23-1.26,4.73-1.46,2.31l0,1.65c-.53,3.72-.37.48-.71,2,.4-3.13.44-4.28.61-6.24-.28,2.32-.33-.26-1.14,6l.28-4.16c-.18-1.74-1.54,8.88-1.79,7.77.53-3.4.63-5.64,1.19-8-.13-.05-.17-.63-.44,1.54.17-2-.87,4.18-.62,1.19a35.46,35.46,0,0,1-.75,4.37c.06-.63.19-1.54.19-1.54-.19,1.54-.48,2.07-.79,5.56.82-9.83-1.17.58-.48-7.86a7.37,7.37,0,0,1-1.14,2.18c.13-.94.19-1.56.2-1.23,0-3-1.32,9-1.31,5.67.42-5.09.54-2.72.65-4.65,1-8.67-.13-1.83-.24-3l-.82,10.28v0h0a.73.73,0,0,1,.13-.21h0a1.86,1.86,0,0,1,.35-.33s0,0,0,0l.09-.06.08,0-.07,0,.1,0h0l-.12,0h0a.55.55,0,0,1-.19,0h0a1.83,1.83,0,0,1-.42-.07,1.58,1.58,0,0,0,.35.06,1.66,1.66,0,0,1-.31-.05l.09,0a.56.56,0,0,1-.15,0l-.11,0,0,0,.07,3.23a1.52,1.52,0,0,1,.09.25,1.85,1.85,0,0,1,.07.6v.13h0v0h0l0-.07v0a1.73,1.73,0,0,1,.12-.25h0a2.24,2.24,0,0,1,.39-.48h0l.06,0h0l.5-3.52h0l-.08,0h0a2,2,0,0,1-.5-.22,1.88,1.88,0,0,1-.25-.18h0a1.9,1.9,0,0,1-.23-.23l0,0a1.84,1.84,0,0,1,.18.71c0-.06,0,0,0,.06s0,.17,0,.16v0a2.11,2.11,0,0,1,0,.21h0a.25.25,0,0,1,0,.07l9.06-1.1a11.32,11.32,0,0,1-1.45.49l-.72.17h0a15.27,15.27,0,0,1-1.82.26l.16,0a8.63,8.63,0,0,1-1,0h-.12a6,6,0,0,1-1.74-.25l.07,0-.35-.13-.13-.06-.08,0h0l-1.15-1h0l0,0,0,.06s0,0,0,0a1.27,1.27,0,0,1,.15.21s0,0,0,0a2.34,2.34,0,0,1,.11.21,2.05,2.05,0,0,1,.11.34,1,1,0,0,1,0,.19v0c0,.23,0,.26,0,.24h0v0c0,.08,0,.07,0-.06h0a.19.19,0,0,0,0-.08,1.13,1.13,0,0,1,0-.15s.08-.23.15-.35h0s0,0,0,.1l0,0h0l-.09.25.1-.28.08-.16a2.89,2.89,0,0,1,.31-.47c.26-.32.52-.37.36-.32l-.06,0,.06,0s-.17.06-.24.06h0l-.75,0h.11l.08,0a1,1,0,0,1,.21.06l-.05,0c.54.16.11.21-.32-.65l.06.11a4.25,4.25,0,0,1-.33-.79,5.47,5.47,0,0,1-.14-.71.93.93,0,0,0,0-.21v-.11a.57.57,0,0,1,0,.22,2.84,2.84,0,0,1-.1.38l0,0c0,.08-.06.19-.1.29s-.22.39-.31.57a1.28,1.28,0,0,1-.21.28,2.43,2.43,0,0,1-.2.25l0,0a1.25,1.25,0,0,1-.24.21l0,0-.05,0h0l-.08,0,.06,0h0l.14,0a.92.92,0,0,1,.4,0l-.16,0h-.21l-.33,0-.66-.09c-3.7-.44-7.43-1-10.89-1.48s-6.74-.47-9.38,1.41a22.91,22.91,0,0,0,4.64,2.12,33.5,33.5,0,0,0-3.46,1.29,17.51,17.51,0,0,1-.45-2.17c-1.67.71-1.71,1.32-1.08,1.71a10.24,10.24,0,0,0,3.09,1,6.71,6.71,0,0,0-3.59,2.1,28.35,28.35,0,0,0,7.56.25,20,20,0,0,1-3.95,1.38c-1.22.37-2.28.84-2.58,2.11,1.81,0,3.12-1.1,4.4-1.88a5.72,5.72,0,0,1,3.8-1.17c-2.54,2.41-5,3.79-1.77,3.37-1.47,1.24-2.65,1.7-3.72,1.58,2.7.07,3,2.36,6.24,0-1.16,1.82-.22,2.35.28,2.88s.64,1.14-1.46,4a33.85,33.85,0,0,1,2.91-2.17,6.73,6.73,0,0,1,2.43-1.33c-2.68,3.33-2.08,3.84-1.34,4.42s1.63,1.24-.22,5.37c2.08-3.24,3.15-3.77,4.23-3.91s2.15.1,3.19-1.89c-.16.58-.53,1.76-.61,1.36.77.76.76,3.06,1.3,4.56.77-6.2,2.13-7.58,2.6-11.46a22.84,22.84,0,0,1,.16,6.67,29.21,29.21,0,0,0-.48,6.5,12.67,12.67,0,0,1,1-5,8,8,0,0,0,.41-4.35c.48,1.85.74,2.27.92,2.9s.35,1.42.9,4c-.35-3.91-.21-4.26.07-4.26s.72.37.61-2a33.28,33.28,0,0,1,1.82,4.55c.34,1,.59,1.23,1.14-.15a5.34,5.34,0,0,1,.88,3.37A6.39,6.39,0,0,1,1026.31,715.32Zm-3.91-41.12,0-.09.66-.13A6.71,6.71,0,0,0,1022.4,674.2ZM1020,674a1.86,1.86,0,0,0,1,.23c-.06,1.56-.29,3.14-.46,3A7.88,7.88,0,0,0,1020,674Zm-.15,15,0,.1s0-.06.05-.12h0Z" transform="translate(-876.1 -563.26)"/><path class="cls-1" d="M1019.86,688.94v0l0,0v0Z" transform="translate(-876.1 -563.26)"/><path class="cls-1" d="M1026,688h0l-.27.07.27-.07Z" transform="translate(-876.1 -563.26)"/><polygon class="cls-1" points="120.94 134.09 122.04 133.78 121.04 133.9 120.94 134.09"/><path class="cls-1" d="M1014.65,698.09a7.61,7.61,0,0,0-.79.84C1014.07,698.73,1014.34,698.43,1014.65,698.09Z" transform="translate(-876.1 -563.26)"/><path class="cls-1" d="M1028.41,700a12.2,12.2,0,0,0,2.13.22A12.18,12.18,0,0,0,1028.41,700Z" transform="translate(-876.1 -563.26)"/><path class="cls-1" d="M1034.25,695.11c-.73-.32-1.29-.5-1.81-.68h0Z" transform="translate(-876.1 -563.26)"/><path class="cls-1" d="M1042.84,694.12a.58.58,0,0,0,.17.3C1043.78,695.18,1043.51,694.69,1042.84,694.12Z" transform="translate(-876.1 -563.26)"/><path class="cls-1" d="M1027.28,682.29a15.32,15.32,0,0,1,1.54-1.52C1028.82,680.35,1028.71,680.17,1027.28,682.29Z" transform="translate(-876.1 -563.26)"/><path class="cls-1" d="M1018.54,715.56v-.07s0,0,0,0Z" transform="translate(-876.1 -563.26)"/><path class="cls-1" d="M1029.27,681.2c.37-.85.06-.83-.45-.43C1028.81,681.13,1028.7,681.62,1029.27,681.2Z" transform="translate(-876.1 -563.26)"/><path class="cls-1" d="M1024.78,674.45l-.41-.29a3.76,3.76,0,0,1-.22.69C1024.35,674.71,1024.56,674.58,1024.78,674.45Z" transform="translate(-876.1 -563.26)"/><path class="cls-1" d="M1024.15,674.85c-.21.13-.4.27-.6.41C1023.77,675.3,1024,675.31,1024.15,674.85Z" transform="translate(-876.1 -563.26)"/><path class="cls-1" d="M1022.4,676.2a13.08,13.08,0,0,1,1.15-.94C1023.22,675.17,1022.79,675,1022.4,676.2Z" transform="translate(-876.1 -563.26)"/><path class="cls-1" d="M1031.2,681l1.31-1A14.21,14.21,0,0,0,1031.2,681Z" transform="translate(-876.1 -563.26)"/><path class="cls-1" d="M1032.74,682.3c.08-.55,2.18-3,.81-3l-1,.77c.52-.32.67-.23.63.05a4.79,4.79,0,0,1-.59,1.14C1032,682.1,1031.47,682.87,1032.74,682.3Z" transform="translate(-876.1 -563.26)"/><path class="cls-1" d="M1019.79,690.92c-.13,0-.22,0-.31.05s.11,0,0,0Z" transform="translate(-876.1 -563.26)"/><path class="cls-1" d="M1020.9,691c-.15,0,0,0,0,0S1021,691.08,1020.9,691Z" transform="translate(-876.1 -563.26)"/><path class="cls-1" d="M1021.33,690.1h0C1021.31,690,1021.34,690.11,1021.33,690.1Z" transform="translate(-876.1 -563.26)"/><path class="cls-1" d="M1022.32,676.34a23.15,23.15,0,0,0-.53-2.58c-.15,1.25-.28,2.5-.38,3.75C1021.71,677.1,1022,676.72,1022.32,676.34Z" transform="translate(-876.1 -563.26)"/><path class="cls-1" d="M1021.18,691.17l0-.06a1.8,1.8,0,0,1-.08.21Z" transform="translate(-876.1 -563.26)"/><path class="cls-1" d="M1021.85,676.17l-.57,5C1021.49,680.29,1022.2,674.67,1021.85,676.17Z" transform="translate(-876.1 -563.26)"/><path class="cls-1" d="M1018.85,689.6l-.13,0Z" transform="translate(-876.1 -563.26)"/><polygon class="cls-1" points="142.34 126.65 142.35 126.62 142.34 126.66 151.4 125.57 151.39 125.57 151.4 125.57 142.34 126.66 142.34 126.65"/></svg>