<svg id="Layer_1" data-name="Layer 1" xmlns="http://www.w3.org/2000/svg" viewBox="0 0 312.47 316.42"><defs><style>.cls-1{fill:#202020;}</style></defs><title>3</title><path class="cls-1" d="M1183.65,692.87a34.84,34.84,0,0,0-2.28,3.14l3.21-4.21Z" transform="translate(-1080.24 -621.52)"/><path class="cls-1" d="M1178.15,701c1.6-2,4.37-5.57,7.24-9.5l-5.55,7.12a21.36,21.36,0,0,1,2.1-3c-.83,1.07.61-1-1.41,1.64-2.38,3.34-2.39,3.54-.27.9C1179.58,699.13,1178.74,700.22,1178.15,701Z" transform="translate(-1080.24 -621.52)"/><path class="cls-1" d="M1185,699.88v0Z" transform="translate(-1080.24 -621.52)"/><path class="cls-1" d="M1185.87,699.4h0Z" transform="translate(-1080.24 -621.52)"/><path class="cls-1" d="M1185.7,699.4h0Z" transform="translate(-1080.24 -621.52)"/><path class="cls-1" d="M1185,699.88l0,0Z" transform="translate(-1080.24 -621.52)"/><path class="cls-1" d="M1186.53,691.31c-.18.19-.49.58-.89,1.09l.38-.42Z" transform="translate(-1080.24 -621.52)"/><path class="cls-1" d="M1174.52,714l0,0-1.31,1.71Z" transform="translate(-1080.24 -621.52)"/><path class="cls-1" d="M1172.92,713.77c-.09.18,2.6-3.42,3.79-5-1.12,1.48-1.67,2.17-1.9,2.43Z" transform="translate(-1080.24 -621.52)"/><path class="cls-1" d="M1175.87,706.11l-.4.47Z" transform="translate(-1080.24 -621.52)"/><path class="cls-1" d="M1184.76,700.11h0Z" transform="translate(-1080.24 -621.52)"/><path class="cls-1" d="M1155.47,699.11h0Z" transform="translate(-1080.24 -621.52)"/><path class="cls-1" d="M1177.76,697.62l.24,0,2.52,0Z" transform="translate(-1080.24 -621.52)"/><path class="cls-1" d="M1185.2,699.33h0Z" transform="translate(-1080.24 -621.52)"/><path class="cls-1" d="M1177.27,700.18s0,0,0,0S1177.26,700.21,1177.27,700.18Z" transform="translate(-1080.24 -621.52)"/><path class="cls-1" d="M1186.2,691.81s.09,0,.07,0C1186.34,691.67,1186.32,691.67,1186.2,691.81Z" transform="translate(-1080.24 -621.52)"/><path class="cls-1" d="M1177.27,700.17h0Z" transform="translate(-1080.24 -621.52)"/><path class="cls-1" d="M1177.66,697.91h0Z" transform="translate(-1080.24 -621.52)"/><path class="cls-1" d="M1184.88,699.24h0Z" transform="translate(-1080.24 -621.52)"/><path class="cls-1" d="M1177.16,698.07h0Z" transform="translate(-1080.24 -621.52)"/><polygon class="cls-1" points="96.02 76.58 96.03 76.58 96.06 76.58 96.02 76.58"/><path class="cls-1" d="M1157.62,702.76l4,0C1158.46,702.73,1157.32,702.55,1157.62,702.76Z" transform="translate(-1080.24 -621.52)"/><path class="cls-1" d="M1185,693.34c.69-.9,1-1.35,1.19-1.53l-.18.17Z" transform="translate(-1080.24 -621.52)"/><path class="cls-1" d="M1203.2,693.54c-.14.48-.28,1-.45,1.4A1.59,1.59,0,0,0,1203.2,693.54Z" transform="translate(-1080.24 -621.52)"/><path class="cls-1" d="M1192.87,689.1l.55-.1C1193.48,688.89,1193.34,688.9,1192.87,689.1Z" transform="translate(-1080.24 -621.52)"/><path class="cls-1" d="M1203.6,698.44a19.47,19.47,0,0,0-3.12.56c.35,0,.64.11,1.16.16C1202.3,699,1203,698.7,1203.6,698.44Z" transform="translate(-1080.24 -621.52)"/><path class="cls-1" d="M1161.7,702.73h0Z" transform="translate(-1080.24 -621.52)"/><path class="cls-1" d="M1151,701.41c-.13.18,5.79.12,9.18.18,1.67.23-4.35.08-7.38.13,1.57.15,7,.28,6.76.38-1,0-1.33,0-2.55,0,4.7.17.23.42,6.13.63h-1.47l8.12,0c.1.08,3.73.17-.13.18.11,0-1.45-.06-2.65-.09l1.67.09c-5.55.05-1.92-.12-6-.15,1.81.18,6.4.4,4.83.52-5.43,0-1.82-.31-6.66-.17l2.08-.18c-8.57.1.6-.12-8.57,0-1.58.25,2.77.31,1.18.56l7.49.08c5.42.4-13.67.21-6.43.52,3.05.08,8.41.14,7.85.26l-32,6.89,54.54-.64a4.25,4.25,0,0,1,1,.29q2.61,1.64,5.19,3.3c1.06-.62-7.45-4.75-3.4-3.57,2.08,1.23,1.48,1.56,2.19,1.78,4.61,1.67-2.87-2-2.7-2.36l4.94,2.28a7.49,7.49,0,0,0-2-2.58,18.88,18.88,0,0,1-2.26-2.36,28.46,28.46,0,0,0,4.73,1.55c-1.06-1.09-.74-1.65.32-2.15a41,41,0,0,1,4.52-1.41c-1.52-.43-3-.82-4.58-1.18a11,11,0,0,1,3,.3c1.83-.33-3-.4-4.76-.85-.29-.28,2.73-.07,4.11.27a42.17,42.17,0,0,1-5-2c-1-.59-.88-1,1.62-1.53l1.39.14c1-.38-1.47-.51-3.57-.57s-3.89-.06-1.72-.47l.83,0c1-.71.33-1.35.29-2s.54-1.32,3.83-2.75c-3.31.71-2.66.21-2.35-.24s.28-.81-4.22.61c2.12-1,3.57-1.73,4.82-2.38a12.14,12.14,0,0,0,3.49-2.57c.24-.55-5.65,1.76-6.69,1.86l4.49-2c-1.65.52-3.29,1.09-4.92,1.68q2.61-1.39,5.17-2.86l-1.33.19a13.61,13.61,0,0,1-3.09,1.92c-1.13.26-.51-.41.62-1.37a36,36,0,0,1,3.86-2.86,39.16,39.16,0,0,0-4.39.86,16.1,16.1,0,0,1,3.57-1.73c-4.69,2,4.23-3-.08-1.17-.86.73-2.45,1.62-3.27,2.19,2.12-1.92,1.67-2.79.43-2.63l-62.44,8.15,27.83,4.17.18,0-2.79,0,39.25-14,.47-.36v0l0-.25-40.31,14.62c-.82.3,1.64.63,1.58,1,1.58-.12,7.48-.09,8,0l-5.21,0c3.23.06,2-.1,5.91,0-.6.13-5.92.08-7.62,0l1.81.16-4.36,0c3.24.07-5.23.26.39.35h-1.55c0,.34,1.75.49,2,.77,4.5,0,3.5.12,7.13.2-1.43.2-5,.42-4.59.67,2.24.17,3.81,0,6.49.13-4.1,0-3.72.25-6.66.12.67.3.82.38,4.14.75,1.68,0,2.41-.08,3.81-.06.67.07-1.72.15-3.69.14l-.42,0c6.14.43-12,.94-3.41,1.29l-.42,0,4.45.35-.15,0,7.74,13.18c.1.53-.42,1.14-1.07,1.9l-8.86-15.09c-.94,0-2.06,0-3.22,0L1166,720.31a.43.43,0,0,0,0,.05c1.49-1.14,2.36-1.61,3-1.66a1.67,1.67,0,0,1,1.4.74,2.91,2.91,0,0,0,1.27,1c.54.13,1.23-.09,2-1.11-.21,6.11,2.3,6.29,4.32,5.4a12.2,12.2,0,0,1,3-1.11c1-.09,1.85.35,3.08,2l-.89-2.71c-.09-2.86,1.22,1.35,2,1.8-.77-2.08-1.48-2.22-1.54-3.82a7,7,0,0,1,1.61-1.42,5.49,5.49,0,0,1,1.62-.71,10.8,10.8,0,0,1,1.89-.25c.34,0,.71,0,1,0l1,.05c1.39.09,3.05.15,4.57.11a12.49,12.49,0,0,0,4.22-.67c.85-.42-1.95-2.86-4.13-4.82s-3.85-3.36-.66-2q2.06,1.68,4.05,3.42c-1.73-3-1.14-3.91-.39-5s1.51-2.2-.66-4.13c1.11.51,2.61,1,2.51,1.26,1.89.4,2.13-.09,1.46-.77a9,9,0,0,0-3.71-1.89c.44-.26,2.76.66,4.36.82,1.17,0,.07-.67-.87-1.2s-1.7-.94.2-.72a3.79,3.79,0,0,1,1.46.56c-1.73-.68.78-1.74-3.66-2,1.12-.33.68-.89.3-1.35s-.73-.88.6-1.21c-2.46-.36-1.87-.74-1.53-1.14s.39-.78-3.11-.67c7.25-.2,5.71-2.38,2.18-2.53,2.21-.1,2.13-1,5.16-1.26-.28-1-1.81-1.51-5.37-.44,4-1.79,2.06-2.29.45-2.48s-2.84-.18,2-3a48.19,48.19,0,0,0-8.84-1.23L1167.94,685l.55,1.84c.18.6.37,1.12.52,1.59-3.63-2.5-2.67-2.64-2.8-3.32l-1.47-8.29,28.86,7.58c.53.13,1.4-.07,3.69-1.92a5.73,5.73,0,0,0-1.54.09l-31.78.83a38,38,0,0,0,3,4.16c.85,1.13,1.27,1.86.36,2-1-.18-2.65-1.68-3.64-2.43.92,1.4.48,1.91.14,2.52s-.49,1.25,1.16,2.46a8.69,8.69,0,0,1-1.75-.91c.13.31-1.2.19,1.91,1.24l-.77-.51a51.34,51.34,0,0,1,6.59,2.59c2,.89,3.82,1.61,5,2-8.91-3-2.46,0-13.76-3.66a18,18,0,0,0,4.12,1.44,13.32,13.32,0,0,1-4.28-1.07c1.52,1.27,5,1.76,4.78,2.35-1.55-.32-2.13-.57-3.94-1,2.95,1,6,1.83,4.56,2.07-.94-.17-2.19-.3-2.14-.46.17.51,2.15,1.17,3.75,1.64s2.77.79,1.26,1.1c-6.89-.5-2.29.2-8.26.16.59.21,1.19.41,1.78.59l2.9-.23c-.1.47,4.26.63,2.32,1-.82,0-1.64-.1-2.47-.17.39.25.78.48,1.18.7.74-.21,1.48-.39,2.23-.57,3.09.12,7.53-.53,5.9-.09-.61,0-.05.19-3.52.77h0c1.91-.08,3.9-.27,2.46.13-1.88.36-6.53,1-7.78,1.25,2.48-.3,2.86-.16,3.28,0s.89.26,3.5-.25c-1.23.22-4.29.89-4.91,1.06l4-.77a33.5,33.5,0,0,1-4.27,1.18c-.6.69,7.31-2,4.28-.68-.33,0-.91.23-1.53.3-.74.49,0,.6.61.65s1.26.06.42.64c-5.56,2.31-1.56.05-6.25,2,.69.31,2.57.12,4.1-.1s2.74-.44,2.29.22l.52-.44c3.77-2,2.87-1.4,1.54-.48s-3.08,2.24-1.27,1.36c-.58.26-4.08,2.34-3.26,1.88-.8,1.27,2.5,0,5-1.11l-1.76,1.28c-1.3,1.48-.28,1.42-.74,2.38a25.83,25.83,0,0,0,3.75-3.31c-2.08,2.32-2.62,3.38-2.49,3.66s1-.17,1.77-.75a8.62,8.62,0,0,1,1.89-1.23c.26,0,0,.73-1.24,3a5.79,5.79,0,0,0-1.25,1.47l.46-.25,13-18.49-1.12,1.09c-2.19,3-1.31,1.82-3,4.17a27.4,27.4,0,0,1-2.5,3c1.58-1.88,3.55-4.76,4.73-6.45-.69.91-1.43,1.9-2.12,2.83,3.8-5.38-4.47,5.94-2,2.25l1.17-1.55c-.66.75-2.26,2.75-2,2.25,2.52-3.45,1.27-1.54,3.38-4.36-.26.12-5.06,6.34-2.61,2.85.76-.92.84-.89,1.59-1.8,2.9-4.1,2.13-3.09,2.53-3.79l-.07.1,1.19-2-.77,1.13c-6.81,8.84-1.49,1.43-6,7.15,4.31-5.41,2.42-3.18,5.33-7,.76-1.12,1.6-2.38,2.43-3.46-2.42,3.07,1.7-2.57-1.83,1.92.92-1.25,0-.19,2.36-3.31-.84.9-1.6,2.19-2.78,3.75-3.35,4.15,3.47-5.47-1.15.21-2,2.25-5.19,6.44-7,8.4,1.43-2,3.46-4.52,3.46-4.52,1.27-1.92.93-1.64-.24-.28.84-1.08,1.51-2,2.53-3.44-.33.26-3.46,4.51-2.19,2.59l3.83-5c-1,1.07-2.79,3.34-3.72,4.39,1.6-2.19,2.52-3.26,3.62-4.66a51.79,51.79,0,0,0-4.37,5.19l-.85,1.28c-.16.14,2.19-3,2.69-3.58,2.12-2.63-.75,1.3-1.69,2.56l-.66.75c-5.41,7.38,1.15-1,1-.44l-4,5.29,3.44-4.32c-1,1.41-3.2,4.4-3.87,5.15-1.87,2.71,1.51-1.83-.6,1.17-.33.47-.53.72-.7.93l1.29-1.52c-.86,1.11-2.8,3.78-2.28,3-2.12,3.21,3.27-3.79.32.31l-.26.31c1.59-1.62,2.94-3.9,6.56-8.35l-7.09,9.75,2.95-3.9a14.75,14.75,0,0,1-1.43,2.05c2.09-2.61,1.25-1.72,3.2-4.2-2.54,3.65,1.58-1.42-3.05,4.83,2.26-2.94,1.6-2.38,3.27-4.35-5,6.74,1-1-1.18,2.12-2.62,3.44-1.35,1.53-3.55,4.7,4.44-5.8-.74,1.44.19.39,3.48-4.65,1.65-1.79,3-3.23-1.18,1.57-1.62,2.79-2.73,4.58l-.59.78c3.55-4.69,3-3.69,3.87-4.58-2.11,2.81-3,3.91-4,5.13l.12.05c1.15-1.49,1.78-2.26,2.25-2.75l-2.66,3.5a4.6,4.6,0,0,0,.7-.7l9.86-13.72.06-.09-1.62,2.13a52.33,52.33,0,0,1-4.13,5.1c1.36-1.75,3.74-4.7,4.32-5.4-.18.23-1.18,1.42-.61.67l1.19-1.44.59-.73.27-.33h0l0,.05-.22.27c-.59.73-1.29,1.58-1.19,1.43l1.47-1.77v0l0-.06,0,0,0,0,0,0,0,0,.1-.09h0l-.69.57c-.2.16-.29.22-.3.21l.2-.18.51-.4.51-.38.08-.05h0l.1-.06h0l-.48.26-1.67.86s.63-.35,1.48-.78l.76-.39h0l.12-.06-.05,0,.13,0,0,0h0l.06,0h0l.14,0h0l-2,.18c-.75.07-1.41.11-1.86.13.17,0,.76-.1,1.56-.16l2.21-.15h-.3l-.19,0h.05l-.07,0h-.06l-.11,0h0l-.15,0,0,0s0,0,0,0l-.1,0h0l-.09,0h0l-.17-.08h0l-.13-.07h0l.1.06-.08,0,.1.06h0l-.11-.07h0l-.09-.06-6.77-1.07h0s0,0,0,0l-.05,0,0,0-.22.07.08,0-.1,0-.19,0H1177a3.5,3.5,0,0,1-.72,0c-.14,0-.29-.05-.38-.06h0l-.11,0h0l.19,0c.6.15.72.21-.07,0l-.21-.06h0l-.17-.06h0l-.09,0h0l0,0,.5.31-.44-.28h0l1.71,1.1-1.4-.9-.18-.12,0,0h0l0,0-.09-.06.16.11h0l.34.28,0,0a1.21,1.21,0,0,1,.19.2l0,0a3.49,3.49,0,0,1,.37.42,2,2,0,0,0-.31-.35,1.5,1.5,0,0,1,.27.31l-.08-.12c.08.09.18.29.29.42a2.2,2.2,0,0,1,.13.22l.09.21.05.1a1.62,1.62,0,0,1,.09.41s0,0,0,0v0l0-.08c0-.05,0,.09,0,0s0-.06,0-.17,0-.06.06-.14l-.06.12a1,1,0,0,1,.16-.29l20.41,2.79a7.88,7.88,0,0,0-1.19-.12l3.08.1c-1.82-.15.06-.56-7.8-.72,1.13,0,3.81-.06,4.51,0,1.18-.36-8.36-.82-3.52-1.1l2.39,0c-.69-.07-4.49-.12-2.08-.2,1,0,2.38,0,2.52,0-.82,0-4.19-.19-2.79-.28l2.69.08c3.13-.35-6.56-.55-8.2-.85A82.59,82.59,0,0,0,1198,699h1c.87-.41-5.83-.71-8.6-1.09,7.65-.23,3.2-.81,7.49-1.18-1.28,0-5.48,0-6.19-.09.29,0,.26,0,.08-.06l-20.59,3.9-.05,0h0l-.1.07h0a1.84,1.84,0,0,1-.37.21l-.09,0h0l-.19.06h0l-.08,0h0l-.11,0h.29l.07,0h0l.19,0h0l-.12,0h0l.18,0h0l0,0,0,0,.09,0h0l-.07,0,.08,0,1.6.7-1-.46-.5-.22h0l0,0,0,0,.12.07,20.81,3.25c-1.15-.15-3-.29-7.3-.39-1.08-.08,2.42-.07,3.75-.09.85,0,.72.09,1.93.12a34.06,34.06,0,0,0-6.74-.51c2.67-.17,5.43.14,4.47-.12l1.81,0c9.43-.44-15.07-.9-3-1.38-.75,0-1.09.05-2.08.05,5.35-.6-5-1.33,3.47-1.91,1.71-.17-2.06-.21-4.93-.33h4.83l-5.57-.22c-4.08-.29,11.86-.39,4.14-.76l-3.25,0c.61-.12-1.92-.39,1.82-.35-.59,0-3.38-.06-1.68-.09h2.53l-4.34-.32c1.83-.22,10,.09,10.53-.24-1-.12-7.35-.39-9-.35a35.14,35.14,0,0,1-4.1.1l-1.32-.12c-7.45-.06-15.08-.19-20.28.06l4.55.21-3.61.05-.23-.17c-3.4.07-.39.15,1.67.23-1.92,0-3.26,0-4,.06l7.11.23c-2.91,0-5.78-.12-7.39,0,3.31.1,6.54,0,8.7.11-3.38.07-6.14,0-3.25.15-1.91,0-3.14,0-4-.07,2.3.11,1,.26,4.93.33-4.18.07,1.09.33-6,.28,1.69,0,5.54.21,5.83.3-8.44-.21-.5.33-9.55.23,7.59.16,3.37.45,7.58.69-.6,0-1.82-.05-1.43-.06-.64.11-2.92.13-4.36.2,6.27,0,7.7.25,11.57.37-6.05.11-7.36-.13-13.17-.12,5.08,0,5.07.29,9.3.26-3.74.09-1.81.09-7,.11,7.84.07,1.34.12,6.15.24-3.87.14-7.34,0-5,.19C1153.81,701.59,1151,701.41,1151,701.41Zm37.48,5.47.08,0,.17.32C1188.71,707.16,1188.65,707.06,1188.51,706.88Zm.22-1a.4.4,0,0,0-.29.36,16.24,16.24,0,0,1-2.92-1A18.06,18.06,0,0,0,1188.73,705.92Zm-17.81-4.83h0Z" transform="translate(-1080.24 -621.52)"/><polygon class="cls-1" points="90.71 79.58 90.72 79.58 90.71 79.58 90.7 79.58 90.71 79.58"/><polygon class="cls-1" points="104.74 78.38 104.74 78.38 104.73 78.38 104.74 78.38"/><polygon class="cls-1" points="115.3 67.99 114.26 68.46 115.22 68.17 115.3 67.99"/><path class="cls-1" d="M1186.61,697.45l.67-.94C1187.12,696.74,1186.88,697.06,1186.61,697.45Z" transform="translate(-1080.24 -621.52)"/><path class="cls-1" d="M1186.54,696.13l.86-1.35C1186.89,695.54,1186.67,695.91,1186.54,696.13Z" transform="translate(-1080.24 -621.52)"/><path class="cls-1" d="M1187.35,694l-1.17,1.54v0Z" transform="translate(-1080.24 -621.52)"/><path class="cls-1" d="M1163.23,691.19s-.06-.09-.16-.16C1162.34,690.49,1162.6,690.77,1163.23,691.19Z" transform="translate(-1080.24 -621.52)"/><path class="cls-1" d="M1172.37,701.06c-.82,0-1.62.06-2.14,0C1169.91,701.26,1169.83,701.37,1172.37,701.06Z" transform="translate(-1080.24 -621.52)"/><path class="cls-1" d="M1203.26,693.38l-.08,0a.32.32,0,0,1,0,.14Z" transform="translate(-1080.24 -621.52)"/><path class="cls-1" d="M1170.28,700.76c-.89.2-.68.31,0,.33C1170.52,701,1171,700.8,1170.28,700.76Z" transform="translate(-1080.24 -621.52)"/><path class="cls-1" d="M1186.31,690.63l.08-.16-.43.57Z" transform="translate(-1080.24 -621.52)"/><path class="cls-1" d="M1186,691l-.35.41S1185.66,691.44,1186,691Z" transform="translate(-1080.24 -621.52)"/><path class="cls-1" d="M1184.88,692.31l.73-.86S1185.66,691.29,1184.88,692.31Z" transform="translate(-1080.24 -621.52)"/><path class="cls-1" d="M1185.76,692.82l1-1.31Z" transform="translate(-1080.24 -621.52)"/><path class="cls-1" d="M1186.25,692.59c.17-.33,2-2.88,1.27-2.11l-.78,1C1188.22,689.59,1184.55,694.76,1186.25,692.59Z" transform="translate(-1080.24 -621.52)"/><path class="cls-1" d="M1175.06,709.4l.61-1.17c-1,1.41-2.37,3.31-2.7,3.59C1170.09,716.14,1175.25,708.67,1175.06,709.4Z" transform="translate(-1080.24 -621.52)"/><path class="cls-1" d="M1174.1,711.83c-.58.58-1.51,2-2.1,2.8A24.63,24.63,0,0,0,1174.1,711.83Z" transform="translate(-1080.24 -621.52)"/><path class="cls-1" d="M1185.53,699.54Z" transform="translate(-1080.24 -621.52)"/><path class="cls-1" d="M1169,704.93c-.78.34-1.56.68-2.34,1l3.58-1.12C1169.87,704.89,1169.46,704.91,1169,704.93Z" transform="translate(-1080.24 -621.52)"/><polygon class="cls-1" points="105.66 77.88 105.65 77.88 105.67 77.88 105.66 77.88"/><path class="cls-1" d="M1176.43,698.11h0Z" transform="translate(-1080.24 -621.52)"/><path class="cls-1" d="M1176.14,698.38l.14.13Z" transform="translate(-1080.24 -621.52)"/><polygon class="cls-1" points="90.72 79.11 90.75 79.1 90.7 79.12 90.72 79.11"/><path class="cls-1" d="M1218.86,763.91c.4,1.31,1.3,4.3,1.38,3.64q-.66-2.56-1.23-5.15C1218.94,762.9,1218.89,763.41,1218.86,763.91Z" transform="translate(-1080.24 -621.52)"/><path class="cls-1" d="M1222.48,773.12c-.12-1.29-.22-3.06-.32-5.11a67.47,67.47,0,0,0-.56-6.81c0,2.48,0,3.26,0,4.17a35.3,35.3,0,0,0,.36,4.88c0,.64-.63-1.61-1-3.52.21,1.34-.7-1,0,2.21,1.31,3.91,1.22,4.09,1.09.68C1222.23,770.77,1222.35,772.15,1222.48,773.12Z" transform="translate(-1080.24 -621.52)"/><path class="cls-1" d="M1223.79,778.19h0Z" transform="translate(-1080.24 -621.52)"/><path class="cls-1" d="M1223.68,776.82v0Z" transform="translate(-1080.24 -621.52)"/><path class="cls-1" d="M1223.75,776.43h0Z" transform="translate(-1080.24 -621.52)"/><path class="cls-1" d="M1223.79,778.19l.07,0Z" transform="translate(-1080.24 -621.52)"/><path class="cls-1" d="M1226.44,760.68a4.61,4.61,0,0,0-.62,1.3,2.76,2.76,0,0,1,.42-.49Z" transform="translate(-1080.24 -621.52)"/><polygon class="cls-1" points="142.22 156.79 142.2 156.8 142.18 156.81 142.22 156.79"/><path class="cls-1" d="M1222.08,778.48h0Z" transform="translate(-1080.24 -621.52)"/><path class="cls-1" d="M1222.89,777.28v0Z" transform="translate(-1080.24 -621.52)"/><path class="cls-1" d="M1223.26,778.16h0Z" transform="translate(-1080.24 -621.52)"/><path class="cls-1" d="M1197.53,776.32l.8-.06A3.39,3.39,0,0,0,1197.53,776.32Z" transform="translate(-1080.24 -621.52)"/><path class="cls-1" d="M1219.73,773l.24,0,2.51.16Z" transform="translate(-1080.24 -621.52)"/><path class="cls-1" d="M1223.67,776.56h0S1223.67,776.55,1223.67,776.56Z" transform="translate(-1080.24 -621.52)"/><path class="cls-1" d="M1224.79,777.74s0-.1,0,0S1224.76,777.81,1224.79,777.74Z" transform="translate(-1080.24 -621.52)"/><path class="cls-1" d="M1226.52,761.3a.38.38,0,0,1,.33,0Q1226.69,761.06,1226.52,761.3Z" transform="translate(-1080.24 -621.52)"/><path class="cls-1" d="M1224.79,777.73h0Z" transform="translate(-1080.24 -621.52)"/><path class="cls-1" d="M1222.39,777.61h0Z" transform="translate(-1080.24 -621.52)"/><path class="cls-1" d="M1223.33,777l0,0Z" transform="translate(-1080.24 -621.52)"/><path class="cls-1" d="M1223.57,777.76l0,0h0Z" transform="translate(-1080.24 -621.52)"/><polygon class="cls-1" points="144.02 156.59 144.01 156.58 144 156.57 144.02 156.59"/><path class="cls-1" d="M1203,787.61c1.07-.69,2.27-1.4,3.47-2.08C1203.68,787.1,1202.34,787,1203,787.61Z" transform="translate(-1080.24 -621.52)"/><path class="cls-1" d="M1225.91,763.15a6.47,6.47,0,0,1,.61-1.85.77.77,0,0,0-.28.19A14,14,0,0,0,1225.91,763.15Z" transform="translate(-1080.24 -621.52)"/><path class="cls-1" d="M1198.19,769.31c.35-.36.71-.71,1.07-1A1.61,1.61,0,0,0,1198.19,769.31Z" transform="translate(-1080.24 -621.52)"/><path class="cls-1" d="M1238.91,795.52l.11.6C1239.16,796.14,1239.17,796,1238.91,795.52Z" transform="translate(-1080.24 -621.52)"/><path class="cls-1" d="M1200.27,764.61a18.18,18.18,0,0,0,3,1c-.28-.22-.5-.41-.93-.7C1201.67,764.78,1201,764.69,1200.27,764.61Z" transform="translate(-1080.24 -621.52)"/><path class="cls-1" d="M1206.5,785.51l0,0Z" transform="translate(-1080.24 -621.52)"/><path class="cls-1" d="M1194.86,785.35c.12.77,5.57-1.56,8.82-2.54,1.81.06-4,1.78-6.71,3.11,1.67,0,6.83-1.72,6.74-1.34a20.93,20.93,0,0,1-2.34,1c2.27-.68,2.46-.39,2.81-.14s.85.46,3.59-.69c-.45.28-.88.53-1.27.75,2.57-1.47,5.24-2.87,7.14-3.85.18.12,3.41-1.54.07.39a16.63,16.63,0,0,0-2.41,1.13l1.57-.64c-4.75,2.9-1.82.69-5.43,2.64,1.85-.36,6-2.34,4.85-1.27-4.53,3-2,.23-5.85,3.2.47-.55,1-1.09,1.46-1.61-7.18,4.73.29-.69-7.41,4.32-.41.88.39.83,1.14.72s1.48-.23,1.14.68c2.62-1.52,3.64-2.59,6.24-4.15,2.54-1.1-.1,1.06-2.46,3.23s-4.5,4.22-1.33,2.38c1.49-1,3.54-2.69,4.93-3.71s2.07-1.46.94,0c-1.55,1.34-3.11,2.67-4.69,4,.34,1.25,6.76-5.69,4.5-2.12-1.8,1.63-2,.92-2.38,1.54-2.9,4,2.8-2.13,3.1-1.84L1208,794.6a7,7,0,0,0,3.42-.84,17.78,17.78,0,0,1,3.19-1.35,22.43,22.43,0,0,0-2.65,4.22c1.48-.68,2.11-.14,2.55,1.08a50.26,50.26,0,0,1,1,4.93c.75-1.39,1.46-2.81,2.13-4.23a8.8,8.8,0,0,1-.81,2.92c.13,1.91.92-2.83,1.75-4.5.39-.22-.31,2.71-.94,4a34.69,34.69,0,0,1,3.25-4.51c.88-.87,1.42-.67,1.72,1.88l-.38,1.37c.37,1,.88-1.38,1.23-3.46s.6-3.85.84-1.65l-.16.83a1.44,1.44,0,0,0,1.3.62c.44,0,.88-.16,1.33-.18.9,0,1.75.54,3.41,3.8-.59-3.34,0-2.69.66-2.45s1.17.15-.35-4.31c1.26,2,2.09,3.42,2.91,4.59a8.64,8.64,0,0,0,3.45,3c.38.06-.08-1.37-.68-2.93a21.4,21.4,0,0,1-1.32-3.82l2.56,4.21q-.9-2.48-2-4.85c1.21,1.56,2.45,3.1,3.73,4.6,0-.49-.09-1-.15-1.46a8.4,8.4,0,0,1-2.55-2.63c-.28-1.18.63-.8,1.94,0a22.56,22.56,0,0,1,3.85,3,25.57,25.57,0,0,0-1.1-4.83,10,10,0,0,1,2.33,3.27c-2.73-4.47,4.1,3.26,1.59-.92a24.45,24.45,0,0,1-3-2.58c2.71,1.4,3.82-.06,3.28-1.67l2.8,1.94a3.12,3.12,0,0,0,1-1.52,6.71,6.71,0,0,0,.22-1.87,13.68,13.68,0,0,1,.15-3.67c-1.75.37-7.31-1.64-7.74-2.18q2.54.6,5.09,1.16a7.49,7.49,0,0,0-2.61-.63,10.09,10.09,0,0,1-3.07-1c.7-.36,5.86.94,7.4,1.83-.51-.46-1-.9-1.56-1.31,1.53.27,2.29.66,4.21,1.15-1.53-.56-.17-.69.92-1s1.87-.76-.88-1.42l1.54.14c.32-2.36-1.49-3.4-1.81-5-4.5.21-3.54-.46-7.2-.49.68-.51,1.85-1.16,2.75-1.9s1.55-1.54,1.19-2.13a7.1,7.1,0,0,0-3.1.3,26.93,26.93,0,0,1-3.31.8c4-1.13,3.2-2.23,6.2-2.5a4.41,4.41,0,0,0-1.64-1.38,9.68,9.68,0,0,0-3.63-.55,16.9,16.9,0,0,1-3.27,2c-.7.1,1.25-1.32,3-2.24l.42-.13c-1.6.29-1.85-.08-1.55-.92s1.11-2.13,1.77-3.47c1.38-2.64,1.82-5.66-1.89-3.26l.38-.23a27.47,27.47,0,0,0-4.41,2.08c-.09-.51.45-1.07,1.18-1.77a7.88,7.88,0,0,0,2.15-2.76c-1.51,1-2.34,1.4-2.86,1.4s-.75-.36-.94-.78c-.37-.83-.75-2-2.44-.23,1-2.88,1.08-4.43.75-5.22s-1.07-.78-1.83-.62c-1.58.3-3,1.34-3.25-2.63l-.38,2.83c-.9,2.68-.28-1.7-.57-2.4-.24,2.2.13,2.61-.37,4.1-2,1.43-3.44.36-5.47-1.31s-4.52-3.8-7.07-4.38c-.92-.13,0,3.47.75,6.3s1.33,4.94-.62,2.05q-.79-2.52-1.48-5.09c-.27,3.5-1.42,4-2.81,4.61s-2.86,1.32-2.17,4.28c-.67-1-1.69-2.25-1.45-2.42-1.47-1.28-2-.87-1.84.09a8.27,8.27,0,0,0,2.19,3.55c-.53,0-2.07-1.94-3.4-2.85-1-.56-.45.6.08,1.55s1,1.71-.58.6a3.26,3.26,0,0,1-1-1.23c1.13,1.51-1.64,1.27,2.12,3.66-1.16-.23-1.08.5-1,1.13s.17,1.19-1.18.88c2,1.51,1.27,1.56.78,1.77s-.74.51,2.39,2.1c-3.24-1.63-4.78-1.8-5.15-1.26s.48,1.69,2,2.57c-2-1-2.36-.1-5.14-1.33-.23,1,.86,2.25,4.51,3-4.4-.27-2.91,1.17-1.59,2.07s2.41,1.49-3.16,1.91a38.88,38.88,0,0,0,9.43,7.43c-3.34,1.36-3.81.71-4.25.09s-.88-1.31-4.55-.34c1.85,1.29,4.42,1.49,6.36,1.7a10.1,10.1,0,0,1,2.34.42,1,1,0,0,1,.71,1.19c-.53,1-2.8,1.43-4,1.84a4.17,4.17,0,0,1,3.06,2.07c.6.78,1.44,1.56,3.35.6a6.28,6.28,0,0,1-1.59,1.2c.41.06-.09,1.35,2-1.16l-.82.46a37.22,37.22,0,0,1,4.94-5.08,37.78,37.78,0,0,0,3.77-3.87c-3,3.61-3.22,4.2-3.54,5.09a9.54,9.54,0,0,1-1,1.91,47.54,47.54,0,0,1-3.57,4.72,13.3,13.3,0,0,0,2.85-3.34c-.15.67-.75,1.81-2.43,3.69,2-.83,3.47-4,4.15-3.53-.79,1.38-1.25,1.82-2.29,3.37,2.05-2.37,3.77-5,3.75-3.49-.45.84-.92,2-1.1,1.88.69.07,2-1.6,3-3s1.65-2.41,1.71-.83c-2.16,6.56-.23,2.3-1.54,8.11.43-.51.84-1,1.22-1.56.08-1,.18-1.93.29-2.9.29.12.78-.87,1.15-1.65s.65-1.34.78-.35c-.23.8-.48,1.6-.75,2.39.45-.32.89-.66,1.3-1-.17-.77-.31-1.54-.41-2.31a28,28,0,0,0,.68-4.68c.12-1.29.18-2,.31-1.15-.09.61.23.09.45,3.62h0c.24-1.9.27-3.91.62-2.45.24,1.9.41,6.59.57,7.85,0-2.5.27-2.87.56-3.3s.6-.93.17-3.56c.18,1.25.77,4.32,1,4.94-.18-1.34-.39-2.68-.62-4a20.66,20.66,0,0,1,1.29,4.25c.58.23,0-1.57-.48-3.08s-.84-2.72,0-1.26a14.64,14.64,0,0,1,.28,1.53c.69.7,1-.14,1.19-.87s.24-1.39,1.14-.78c3.4,5-.11,1.77,2.69,6,.69-1,.59-3.14.3-4.8s-.72-3,.26-3l-.67-.24c-3.15-2.85-2.29-2.21-.86-1.45s3.47,1.63,2,.25a30.89,30.89,0,0,0,3.06,2.2c.9-.15.82-1,.16-2a15.66,15.66,0,0,0-2.93-3.18c.69.24,1.37.5,2,.77,2,0,1.46-1.26,2.53-1.81a15.43,15.43,0,0,0-4.92-.83c3.11,0,4.27-.56,4.39-1s-.8-.91-1.8-1.15a7.82,7.82,0,0,1-2.25-.67c-.18-.28.48-.64,2.89-1.67a4.15,4.15,0,0,0,1.93-.21,18.34,18.34,0,0,0-2.29-.65c-3.48,1.28-2.07.88-4.76,1.92a32,32,0,0,1-3.8.9,38.43,38.43,0,0,0,3.92-1.36c1.33-.55,2.57-1.17,3.49-1.65-1,.45-2.23.85-3.29,1.28,3-1.42,1.22-.77-.74,0s-4.17,1.76-2.23.67l1.77-.8c-1,.24-3.31,1.3-2.89,1,3.72-2.11,1.84-.82,5-2.41a14.79,14.79,0,0,0-3.38,1.35c-1.33.62-2.12,1-.37-.17,1.06-.55,1.17-.42,2.26-.9a22.41,22.41,0,0,0,3.13-2.28c.29-.3.14-.31.39-.66l-.08.08a22.53,22.53,0,0,0,1.43-1.94l-1,1c-4.73,3-5.19,3.21-5.34,3.06s0-.65-2.8,1.68c2.68-2.2,3.49-2.77,4-3.3a31.67,31.67,0,0,1,2.64-2.52,23.63,23.63,0,0,1,2.78-3.2c-1.58,1.17-1.14.52-.92,0s.24-1-1.9.93c1-1.17-.24-.41,2.41-3.3-1.33.49-1.64,2.16-3,3.58-2,1.75-1.29.29-1-1.16.17-.72.29-1.41,0-1.59s-1,.17-2.11,1.62a18.88,18.88,0,0,0-3.33,4.57c-1,1.77-1.86,3.56-2.39,4.76.37-1.19.82-2.54,1.24-3.57s.79-1.74.79-1.74c.44-2.28-.13-2.05-.92-.37a23.26,23.26,0,0,0,.84-4.19c-.56.3-1.38,5.51-1.39,3.18a49.75,49.75,0,0,1,1.49-6.1,26.65,26.65,0,0,0-2.3,5.49,19.68,19.68,0,0,1,1-5.84c-.91,1.13-2.1,2.41-2,6.71.12.51.22,1,.31,1.53a22.16,22.16,0,0,1,0-4.48c.25-1.69.5-1.32.58-.32a32,32,0,0,1,0,3.38c-.11.33-.21.66-.3,1,0,4.58,0,4.19.34,2.78s1-3.85,1.29-3.53q-.83,3.22-1.47,6.5a44.33,44.33,0,0,1,1.5-5.33c-.31,1.7-1.35,5.27-1.62,6.24-.39,1.59-.27,1-.1.49a2.66,2.66,0,0,1,.16-.46s0,.1-.09.3-.15.47-.27.85h0v.05l.27-.73c-.1.27-.36,1-.29.77h0l0,0c-.06.15-.11.23-.14.31h0l0,.1v0l.52-.93a59.66,59.66,0,0,1,3.46-5.64c-1,1.74-2,3.47-3.09,5.17l-1,1.57h0l.08-.11.34-.51c0,.08-.12.19-.32.49l-.13.18h0l0,0h0l.08-.12.54-.74c.3-.41.57-.82,1.52-2.08-1.27,1.84-1,1.43-.83,1.38s0,0-.32.46-1.57,1.74-1.2,1.35h0l.22-.23.73-.81c.39-.43.66-.78,1.58-1.67-2.84,3.07-2.62,2.79-2,2.14s1.79-1.63.4-.31l-1.08,1-.09.08s-.06,0,0,0l.16-.09h0l.19-.07-.06,0,.08,0,.11,0h0l.45-.11h0l.17,0,1-.17a40.81,40.81,0,0,1,6.51-.84l-6.85.92c.29-.05,1.83-.22.89-.08l-1.66.19.71-.08-.54.06h.45a1.26,1.26,0,0,1,.16,0h0l.11,0h0l0,0,0,0h0l0,0h0l0,0h0l0,0v0l-.05-.09v0a.92.92,0,0,1-.09-.25,1.35,1.35,0,0,1-.07-.31c0-.06,0,.14,0,.08a2.91,2.91,0,0,1,0-.31V777s0,0,0,0v0h0l0,.39q0,.39-.06.81c0-.09,0-.28,0-.55s0-.5.07-.78v0s0,0,0,0v.08h0l0-.18c0-.07,0,0,0,0a1.15,1.15,0,0,1,.06-.28s0,0,0,0l0-.08v0h0s0,0,0,.06v0l0,0h0l0,0v0l-.07.12,0-.08,0,.07h0l-.13.18,0,0c0-.06,0,0,0,0a1.1,1.1,0,0,1-.14.15l.06-.05-.13.13,0,0a1.46,1.46,0,0,1-.28.26l0,0a.89.89,0,0,1-.27.17s0,0,0,0a1.27,1.27,0,0,0,.22-.13l-.14.09.18-.11c-.06,0-.06,0,0,0s-.23.13-.26.16h0l-.17.07-.07,0h.1l.74.06h0l.14,0-.07,0,.09,0,.18.06.09,0h0l-.14-.05.26.1.15.08.24.14.18.14h0l0,0h0s0,.05-.13-.11c-.44-.43-.52-.54.05,0l.09.09h0s0,0,0,0h0l-.28-.32h0l0,0,0,0v0l.13.19h0l.07.11,0,.06v0l-.18-.39.19.41h0v0h0l0-.06-.12-.26c-.32-.67-.56-1.21-.66-1.48l.85,1.9,0,0,0,.09h0l0,.1h0l-.07-.29c-.06-.25-.09-.37-.11-.49,0,.21.11.46.18.79h0s0,0,0,0c0-.27,0-.55-.06-.76,0,.28,0,.52.06.75v0c0-.06,0,.16,0-.58,0,.17,0,.33,0,.48h0v-.22a2,2,0,0,1,.13-.53c0,.06,0,0,0,0l0-.06,0-.11v0l0-.07,0-.05,0,0,0-.06.24-.3v0h0l-.23.28h0l.22-.28h0l0,0-.05,0-.11.11h0a1.8,1.8,0,0,1-.42.27h0l-.07,0h0l-.07,0h0l-.08,0h.07a1.45,1.45,0,0,1,.44,0,1.74,1.74,0,0,1,.56.18s0,0,0,0l.07,0h0s0,0,.06,0h0l-.18-.15h0l0,0a1,1,0,0,1-.1-.15l-.07-.13h0c0-.07,0-.11-.07-.17a1.35,1.35,0,0,1-.08-.24v0l-.07-.27v0a3.38,3.38,0,0,1-.06-.6v0c0-.09,0-.28,0-.25l0-.15h0v0h0v0l0,.06,0,.06v0a1.13,1.13,0,0,1-.11.22h0l.08-.15s0,.07,0,0a2,2,0,0,1-.13.23h0l0,0,0,.07-.1.13h0s0,0,0,0h0l.08-.1-.08.11c-.13.15-.25.31-.32.38l.19-.22.08-.1h0l0,0,0,.06,1-1.1a2.3,2.3,0,0,1,.22-.2l.06,0-.06,0a2.26,2.26,0,0,1,.21-.16l.13-.09,0,0,.24-.15.27-.15.13-.07,0,0-.33.16-.49.23c-.21.09-.15,0,.31-.17l1-.45-.21.09.4-.16.26-.1.29-.09,0,0-.16.05-.32.09c-.41.1-.76.15-.46,0a8.59,8.59,0,0,1,1-.24l1.39-.28.19,0c-1.07.17-2.72.41-4.14.6l4.36-.63-2.34.3-2.77.32c-2,.16.9-.26,3.4-.49l2.52-.22h0l-1.87.09-3.25.17c.61-.07-1.93-.14,1.82-.21-.6,0-3.39,0-1.69,0l2.53,0c-1.45,0-2.89,0-4.34-.14.92-.06,3.43,0,5.77.07l1.86,0h.06l-1.41-.09-4.79-.32c-.12,0-1.57,0-4.1-.16L1220,773l-11-.76a62.37,62.37,0,0,0-9.31-.09c1.51.25,3,.48,4.53.68l-3.61,0-.21-.44c-3.41.12-.41.42,1.65.62a35.55,35.55,0,0,0-4,.14q3.56.35,7.11.55c-2.91.07-5.78-.24-7.39.13,3.31.21,6.54-.23,8.71.1-3.39.23-6.15.25-3.25.46a23.79,23.79,0,0,1-4-.05c2.3.22,1,.7,5,.64-4.16.46,1.14.72-5.89,1.22a47.38,47.38,0,0,1,5.86.19c-8.45.41-.39.93-9.38,1.95,3.79-.28,4.66-.09,5.14.21s.54.69,2.67.59c-.6.08-1.82.24-1.45.12-.55.47-2.76,1-4.11,1.6,6.15-1.25,7.65-1.06,11.47-1.78a53.17,53.17,0,0,1-6.47,1.68c-1.78.34-3.55.6-6.35,1.37,4.93-1.21,5.13-.4,9.18-1.67-3.52,1.3-1.68.74-6.63,2.36,7.55-2.14,1.38,0,6.07-1.16-3.52,1.66-6.94,2.4-4.48,2.24a15.59,15.59,0,0,1-5,1.39Zm20.57,5.78,0,.08-.4,0A3.5,3.5,0,0,0,1215.43,791.13Zm1.1.56a.55.55,0,0,0-.38-.41,13.46,13.46,0,0,1,1.63-2.61A14.86,14.86,0,0,0,1216.53,791.69Zm8.11-15.19,0,0,0,0h0Z" transform="translate(-1080.24 -621.52)"/><polygon class="cls-1" points="144.36 155.02 144.35 155.03 144.37 155.02 144.37 155.01 144.36 155.02"/><polygon class="cls-1" points="143.52 156.66 143.53 156.66 143.52 156.66 143.52 156.66"/><polygon class="cls-1" points="157.79 177.28 157.2 176.31 157.53 177.27 157.79 177.28"/><path class="cls-1" d="M1234.71,773.49a9.18,9.18,0,0,0,1-.5C1235.48,773.1,1235.12,773.29,1234.71,773.49Z" transform="translate(-1080.24 -621.52)"/><path class="cls-1" d="M1234.33,770.56c.38-.41.74-.82,1.1-1.25A13.39,13.39,0,0,0,1234.33,770.56Z" transform="translate(-1080.24 -621.52)"/><path class="cls-1" d="M1234.68,767.33c-.61.5-1.06.89-1.47,1.25l0,0Z" transform="translate(-1080.24 -621.52)"/><path class="cls-1" d="M1208.77,792.61a.37.37,0,0,0-.24.06C1207.68,793.07,1208.09,793,1208.77,792.61Z" transform="translate(-1080.24 -621.52)"/><path class="cls-1" d="M1223.67,788a19.32,19.32,0,0,1-.34,2.12C1223.51,790.44,1223.67,790.53,1223.67,788Z" transform="translate(-1080.24 -621.52)"/><path class="cls-1" d="M1198.06,769.43l.08,0a.39.39,0,0,1,0-.14Z" transform="translate(-1080.24 -621.52)"/><path class="cls-1" d="M1222.84,790c.13.91.33.73.49.11C1223.18,789.78,1223,789.31,1222.84,790Z" transform="translate(-1080.24 -621.52)"/><path class="cls-1" d="M1222.9,759.9l-.21-.18c0,.29,0,.54,0,.72Z" transform="translate(-1080.24 -621.52)"/><path class="cls-1" d="M1222.68,760.44l-.2.54C1222.58,761,1222.66,760.94,1222.68,760.44Z" transform="translate(-1080.24 -621.52)"/><path class="cls-1" d="M1222.1,762.12c.12-.38.24-.76.38-1.14C1222.33,761,1222.12,760.84,1222.1,762.12Z" transform="translate(-1080.24 -621.52)"/><path class="cls-1" d="M1227.51,762.68l.55-1.54C1227.93,761.45,1227.75,762,1227.51,762.68Z" transform="translate(-1080.24 -621.52)"/><path class="cls-1" d="M1228.92,762.69c-.11-.45.43-3.57-.42-2.77l-.44,1.22c.47-1.12.45-.1.38.87S1228.26,763.91,1228.92,762.69Z" transform="translate(-1080.24 -621.52)"/><path class="cls-1" d="M1222.37,778.2l.1-.13h0Z" transform="translate(-1080.24 -621.52)"/><path class="cls-1" d="M1222.12,778.45Z" transform="translate(-1080.24 -621.52)"/><path class="cls-1" d="M1223.89,778.2Z" transform="translate(-1080.24 -621.52)"/><path class="cls-1" d="M1229.6,790.81q.72,1.07,1.53,2.1c-.48-1.16-1-2.31-1.49-3.45C1229.65,789.9,1229.63,790.36,1229.6,790.81Z" transform="translate(-1080.24 -621.52)"/><polygon class="cls-1" points="143.49 156.22 143.49 156.25 143.47 156.13 143.49 156.22"/><path class="cls-1" d="M1224.16,778h0S1224.11,778,1224.16,778Z" transform="translate(-1080.24 -621.52)"/><path class="cls-1" d="M1224.61,778.68v0Z" transform="translate(-1080.24 -621.52)"/><polygon class="cls-1" points="145.16 156.37 145.16 156.37 145.16 156.37 145.16 156.37"/><path class="cls-1" d="M1269.85,844.88c.41,1.32,1.34,4.3,1.45,3.62q-.67-2.57-1.24-5.15Q1269.93,844.12,1269.85,844.88Z" transform="translate(-1080.24 -621.52)"/><path class="cls-1" d="M1273.69,854c-.1-1.29-.18-3-.24-5.11a64.09,64.09,0,0,0-.5-6.82c0,2.56-.07,3.31-.1,4.18a32.76,32.76,0,0,0,.28,4.88c-.06.64-.66-1.61-1-3.52.2,1.33-.75-1-.07,2.23,1.37,3.88,1.28,4.08,1.21.66C1273.47,851.68,1273.56,853.06,1273.69,854Z" transform="translate(-1080.24 -621.52)"/><path class="cls-1" d="M1275,854.69v0Z" transform="translate(-1080.24 -621.52)"/><path class="cls-1" d="M1273.72,858.18v0Z" transform="translate(-1080.24 -621.52)"/><path class="cls-1" d="M1274.2,857.59l0,0Z" transform="translate(-1080.24 -621.52)"/><path class="cls-1" d="M1275,854.69l0,.07Z" transform="translate(-1080.24 -621.52)"/><path class="cls-1" d="M1278,841.64a4.58,4.58,0,0,0-.64,1.29,2.64,2.64,0,0,1,.44-.48Z" transform="translate(-1080.24 -621.52)"/><polygon class="cls-1" points="194.93 233.32 194.93 233.34 194.94 233.36 194.93 233.32"/><path class="cls-1" d="M1274.72,858.22h0l.77-2.77h0l-.77,2.77Z" transform="translate(-1080.24 -621.52)"/><path class="cls-1" d="M1274.17,858.71h0Z" transform="translate(-1080.24 -621.52)"/><path class="cls-1" d="M1275.11,854.4Z" transform="translate(-1080.24 -621.52)"/><path class="cls-1" d="M1252.58,872.26c.27-.17.42-.3.66-.46C1252.8,872,1252.52,872.12,1252.58,872.26Z" transform="translate(-1080.24 -621.52)"/><path class="cls-1" d="M1270.84,859.17l.15.16h0Z" transform="translate(-1080.24 -621.52)"/><path class="cls-1" d="M1274,857.32Z" transform="translate(-1080.24 -621.52)"/><path class="cls-1" d="M1268.7,855.46Z" transform="translate(-1080.24 -621.52)"/><path class="cls-1" d="M1278.08,842.27a.43.43,0,0,1,.35,0C1278.31,842.12,1278.2,842.11,1278.08,842.27Z" transform="translate(-1080.24 -621.52)"/><path class="cls-1" d="M1268.7,855.46Z" transform="translate(-1080.24 -621.52)"/><path class="cls-1" d="M1273.06,856.24v0Z" transform="translate(-1080.24 -621.52)"/><path class="cls-1" d="M1273.69,857.13l0,0Z" transform="translate(-1080.24 -621.52)"/><path class="cls-1" d="M1272.84,857l0,.05h0Z" transform="translate(-1080.24 -621.52)"/><polygon class="cls-1" points="196.12 236.22 196.11 236.22 196.09 236.22 196.12 236.22"/><path class="cls-1" d="M1291.63,855.53a19.89,19.89,0,0,1-3.88,1.31,7.61,7.61,0,0,1,3.37.09C1291.78,857,1292,856.91,1291.63,855.53Z" transform="translate(-1080.24 -621.52)"/><path class="cls-1" d="M1277.45,844.11a6.42,6.42,0,0,1,.63-1.84.88.88,0,0,0-.28.18A12.52,12.52,0,0,0,1277.45,844.11Z" transform="translate(-1080.24 -621.52)"/><path class="cls-1" d="M1259.49,878.65l-.28-.31-9.3-10.31.15-1.32c0-.43.1-.87.16-1.29a1.84,1.84,0,0,0-.25,1.32l.91,5,8.28,6.7A3.14,3.14,0,0,0,1259.49,878.65Z" transform="translate(-1080.24 -621.52)"/><path class="cls-1" d="M1289,846.6l.69.23C1289.75,846.62,1289.56,846.5,1289,846.6Z" transform="translate(-1080.24 -621.52)"/><path class="cls-1" d="M1248.7,861.5a17.61,17.61,0,0,0,3-1.1,10.26,10.26,0,0,0-1.17,0C1249.91,860.73,1249.3,861.11,1248.7,861.5Z" transform="translate(-1080.24 -621.52)"/><path class="cls-1" d="M1287.71,856.85h0Z" transform="translate(-1080.24 -621.52)"/><path class="cls-1" d="M1293.13,875.82c1.09-1.4,0-2.54-1.52-3.57a54.42,54.42,0,0,1-5-3.21c0-.82.22-1.11.68-1.17a4.4,4.4,0,0,1,1.89.49c1.55.64,3.5,1.81,5.14,1.89-.21-1.4-1.55-2.86-2.75-4.06s-2.33-2.07-2.08-2.61a5.72,5.72,0,0,1,2.49.51,4.06,4.06,0,0,1-2.11-3.79c-.13-1.22-.59-2.61-3.63-3a13,13,0,0,1,1.43-.42,68.22,68.22,0,0,1-8,1.32c-.08-.23-1-.28-1.5-.33s-.41-.15,1.44-.7c-.05.3,1.47,0,2.69-.08-.59-.1-1.17-.16-1.76-.21,2.62-1,3.13-.9,3.51-.62s.56.64,2.58.29a12.89,12.89,0,0,0-4.15-1.34c-1.37-.3-2.25-.41-1.82-1.24,2.31-1.44,3.09-1,3.66-.62a1.17,1.17,0,0,0,1,.26,4.43,4.43,0,0,0,1.92-1.41,12.69,12.69,0,0,1-1.19,2.8,26.79,26.79,0,0,1,3.35-1.58c.47-.13.48.08.5.29s.06.41.62.31a13.71,13.71,0,0,0,3.69-1.67,4.59,4.59,0,0,0-.13-1.44,3.46,3.46,0,0,0-.52-1.11,5.7,5.7,0,0,0-1.61-1.42,6.41,6.41,0,0,1-3.17-3.71,8.4,8.4,0,0,0-3.07,2.17,12,12,0,0,1-3,2.25c-1.75.08-2.1-.44-2-1.54a30.52,30.52,0,0,1,1.22-4.26,9.25,9.25,0,0,0,.67-4.08c-.22-.91-1.17-1.23-2.92,0a62.66,62.66,0,0,0-3.47,5.26c-1,1.47-1.58,2.14-2.2.16.61-2,1.31-3.92,2.1-5.83-1.82-.73-2.6,1.48-3.19,3.18a5.26,5.26,0,0,1-.9,1.88c-.33.28-.69.08-1.41-.93.39-2.46,2.29-2,1.86-2.74-1-2.48-1.48-1.59-1.73-.11s-.4,3.57-1,3.62c-.25-1.79-.53-3.59-.84-5.38a9.1,9.1,0,0,0-4.2,3.88c-1.09,1.71-1.8,3.48-2.72,4.76-.85-1.38-1.24-3.19-3-4a13.21,13.21,0,0,1-1.48,2.4,24.53,24.53,0,0,1-1.92,2.12c-1.42,1.39-3.13,2.94-4.78,4.81h0L1266.27,878a44,44,0,0,0,4.45,3.09,35.49,35.49,0,0,0,1.35-4.83c.34,0,1,2,.69,3,1,.75,1,0,.66-1.16a10.27,10.27,0,0,1-.55-3.73c.7-.47,1.72,2.4,1.41,3.91,1.11-2.26,2.19-4.9,3.06-6.49a2.89,2.89,0,0,1,1.64-1.55,4,4,0,0,1,2.71.63c.18.45.36.9.52,1.36,1.33.16.2-2-1-3.81s-2.28-3.21-.28-2.14l.46.73a3.22,3.22,0,0,0,2.15-1.77A7.29,7.29,0,0,1,1285,863c.77-.7,2.09-1.08,4.84-1.22-3.15-1.26-2.23-1.69-1.65-2.35s.77-1.49-3.9-2.16c2.42-.47,4-.71,5.45-1.15a7.27,7.27,0,0,0,4.1-3.06c.16-.57-1.36-.83-3-1s-3.55-.18-4.13-.54l4.81-1.09a46.43,46.43,0,0,0-5.4-.21c1.8-.82,3.58-1.72,5.31-2.7-.54-.28-1.09-.53-1.64-.75-.07.6-1.69,1.77-3,2.19-.66-.19-.88-.55-.82-1.06a5.33,5.33,0,0,1,.76-1.94,14.45,14.45,0,0,1,3.13-4,20.75,20.75,0,0,0-5.86-1h-.47a4.69,4.69,0,0,1,1.46-1,10.82,10.82,0,0,1,2.43-.63c-1.38.33-1.84.32-1.88.06-.08-.48,1.3-1.76,1.61-2.48l-20.89-5.23c-.27-.45-.63-.33-1,1.25.65,1,.72,2.86,1,3.82a3.14,3.14,0,0,0-3.23-1.39,3.75,3.75,0,0,0-2.42,2.16c-.51-1-1-2-1.49-3.07a6.48,6.48,0,0,0-1.37.68,7.87,7.87,0,0,0-1.13,1,11.66,11.66,0,0,0-1.82,2.44c-.47.84-.87,1.73-1.28,2.59a20.07,20.07,0,0,1-1.2,2.32c2-.19,6.64,3.49,6.8,4.29q-2.28-1.26-4.61-2.45a5.16,5.16,0,0,0,2.35,1.3,7.25,7.25,0,0,1,2.63,1.89c-.91.38-5.54-2.25-6.65-3.74a13.8,13.8,0,0,0,1,2,36.44,36.44,0,0,1-3.75-2.27c1.31,1-.13,1-1.34,1.21s-2.18.76.33,2.09l-1.48-.44a5.35,5.35,0,0,0-.33,2.61c.13,1.78.77,3,.82,4.64,4.49.39,3.43,1.19,7.06,1.78-.72.63-1.94,1.42-2.87,2.36s-1.54,2.12-1.12,3.09a4.88,4.88,0,0,0,3.18,0,17.06,17.06,0,0,1,3.34-.73,6.94,6.94,0,0,0-3.33,1.94,3,3,0,0,1-2.71,1,8.79,8.79,0,0,0,2.2,2.53,8,8,0,0,0,1.67.86,12.34,12.34,0,0,0,2.65.68,1,1,0,0,1,.39,0l.61-.77a6.6,6.6,0,0,1,2.09-1.95c.14,0,.21,0,.23.14,0,.45-1.13,2-2.38,3.07l-.43.15c1.82-.27,2.44.32,2.79,1.55s.48,3,.93,4.82l17.29.16a6.88,6.88,0,0,0,3.91,1.11c1-.2,1.39-1.14.52-3.18l.15.41a24,24,0,0,0-1.27-4.89c.58-.11,1.06.5,1.66,1.33a6.47,6.47,0,0,0,2.53,2.4c-1.53-3.38-.88-3.85.13-4.35a2.71,2.71,0,0,0,1.25-.86c.23-.41.17-1-.62-2,5.72,2.11,6.36.24,6.14-1.56a7.17,7.17,0,0,1-.14-2.61c.23-.76,1-1.33,3-1.71l-2.84-.27c-2.67-1,1.71-.51,2.42-1-2.21-.14-2.62.4-4.11-.15a5.46,5.46,0,0,1-.66-3.62,13.5,13.5,0,0,1,.59-2.33c.29-.89.59-1.79.89-2.69s.59-2,.83-3.12a22.76,22.76,0,0,0,.4-3.45l.41-12-37.54,4.55a13,13,0,0,0-3.66.95c-1,.56,1.55,3.22,3.62,5.3a16,16,0,0,1,2.17,2.45c.24.48-.17.5-1.84-.09q-2-1.77-3.87-3.65c1.38,3.44.56,4.71-.35,6.2s-1.77,3.07.45,5.21c-1.13-.48-2.66-.9-2.56-1.21-1.94-.19-2.17.52-1.48,1.26a7.41,7.41,0,0,0,3.81,1.77c-.43.4-2.81-.38-4.43-.32-1.18.19,0,.86.94,1.37s1.79.92-.13,1a3,3,0,0,1-1.51-.48c1.79.63-.6,2.27,3.85,1.94-1.07.57-.58,1.17-.12,1.69s.84,1-.4,1.6c2.5.05,2,.57,1.7,1.08s-.25.95,3.19.32c-3.56.67-4.87,1.52-4.83,2.23s1.46,1.18,3.19,1a4.93,4.93,0,0,0-1.44.52l7.67,9.75c-.32,1,0,1.89-1.47,3.51a2.47,2.47,0,0,0,2.48,0,6.23,6.23,0,0,0,2.25-3.29c-.37,2.21.06,3.08.69,3.23s1.46-.43,2.14-1c1.42-1.11,2.23-2.11,2.06,3.47a32,32,0,0,0,5.24-4.71c1.32-1.46,2.31-2.76,3.19-3.89,1,3.48.25,3.88-.44,4.24s-1.36.74-.8,4.48c1.39-1.71,2-4.21,2.43-6.14s.8-3.25,2.27-3a2.63,2.63,0,0,1,1,1.84c.16.84.21,1.75.35,2.36.74-2,2-2.56,3.28-3.5a5.23,5.23,0,0,0,1.63-1.76,3.71,3.71,0,0,0,.38-1.27,4.82,4.82,0,0,0-.11-1.66,3.85,3.85,0,0,1,1.08,1.78c.24-.65,1.83-.62-.88-2.48.12.33.24.67.35,1-2.17-1.09-3.71-3.14-5.27-4.77a18.83,18.83,0,0,0-4.11-3.57,25.52,25.52,0,0,0,3.95,2.2,3.64,3.64,0,0,0,1.77.23,5.67,5.67,0,0,1,2.2.32,20.86,20.86,0,0,1,5.28,2.71,6.46,6.46,0,0,0-3.68-2.54c.79-.28,2.11-.15,4.19,1.41a4.71,4.71,0,0,0-2.51-2.92c-1-.6-1.74-1-1.55-1.92a21.72,21.72,0,0,1,3.9,1.33c-1.41-.87-2.87-1.59-3.8-2.21s-1.36-1.45-.75-2.43c1,.05,2.19-.3,2.2.36a3.72,3.72,0,0,0-1.76-2.35,10,10,0,0,0-3-1.26,11.89,11.89,0,0,1-2.39-.7c-.55-.32-.73-.67-.52-1.61,5.87-3.72,1.14-2.21,5.29-6.44a18.37,18.37,0,0,0-2.58.05c-.43.9-.9,1.77-1.4,2.62-.46-.49-1.61,0-2.44.4s-1.48.74-1.35-.32a24.32,24.32,0,0,1,1.94-1.7,10.41,10.41,0,0,0-2.31,0,18.17,18.17,0,0,1-.14,2.46,17.41,17.41,0,0,0-2.52,4c-.6,1.15-.91,1.78-.81.9.33-.52-.26-.2.5-3.65h0c-.94,1.7-1.55,3.6-1.61,2.08.13-.94.44-2.57.78-4.1s.68-3,.73-3.63c-.75,2.41-1.24,2.65-1.86,3s-1.16.76-1.29,3.44a43.21,43.21,0,0,0,0-5c-.13,1.36-.2,2.72-.22,4.08a12.07,12.07,0,0,1-.86-4.37c-.92-.26-.45,1.6-.13,3.15a9.54,9.54,0,0,1,.27,1.78c0,.32-.13.23-.7-.47a7,7,0,0,1,0-1.59c-1.12-.63-1.91.29-2.54,1.33s-.93,2-2.36,2.07c-2.49-1.72-2.42-2.38-2.11-3s.74-1.16-1.35-2.72a8.27,8.27,0,0,0-.92,7.47c.24.73.52,1.39.77,2l.7,6c1.13.28,1.83.55,1.8,1.36.11-.22.23-.44.35-.64,3.56-2.33,2.76-1.65,1.72-.37s-2.23,3.2-.52,2.06a25.38,25.38,0,0,0-2.81,2.52c.06,1,1.08,1.22,2.29.81a13.25,13.25,0,0,0,3.86-2.22c-.37.63-.74,1.26-1.12,1.88-.24,2.06,1.18,1.74,1.6,2.86.81-2,1-1.61,1.6-4.74-.37,3.12,0,4.35.54,4.54s1.13-.67,1.6-1.62.81-2,1.16-2.17.75.53,1.73,3c-.21.06-.25,2,0,2a15.91,15.91,0,0,0,1.32-2.38c-1.19-3.5-.88-2.07-1.85-4.79a26.29,26.29,0,0,1-.63-3.87,29.5,29.5,0,0,0,1.23,4,26,26,0,0,0,1.74,3.47c-.45-1-.81-2.24-1.25-3.3,1.53,2.92.91,1.16.08-.8s-1.83-4.14-.61-2.26l.86,1.73c-.17-1-1.39-3.3-1-2.92,2.51,3.47.92,1.79,2.75,4.79.2-.27-.7-2.1-1.45-3.37s-1.3-2,.25-.51a12.51,12.51,0,0,1,1,2.26,12.26,12.26,0,0,0,2.92,2.59c.41.18.46,0,1,.07l-.12,0a13.12,13.12,0,0,0,2.7.43c-.44-.18-.87-.37-1.3-.58a50.54,50.54,0,0,1-3.92-4.37l.55-4.66c-.53,0-.32-.28-.56-.39s-.92,0-3,1.13c3.06-1.63,4-2,4.61-2.42a23.28,23.28,0,0,1,3-2c1-.94,1.94-2.26,3.16-2.89-1.83.78-1.33.16-1.11-.45s.2-1.16-2.25.38c1.15-1.05-.34-.59,2.63-3.15-.79,0-1.22.59-1.67,1.23a9.73,9.73,0,0,1-1.67,2c-2.34,1.39-1.51-.06-1.23-1.62.15-.76.2-1.51-.15-1.75s-1.09,0-2.35,1.41a15.79,15.79,0,0,0-3.61,4.41c-1.06,1.72-2,3.49-2.54,4.67a37.1,37.1,0,0,1,1.3-3.54,19,19,0,0,1,.84-1.72c.44-2.3-.22-2.06-1-.42a23,23,0,0,0,.87-4.18c-.58.29-1.45,5.49-1.46,3.15a49.37,49.37,0,0,1,1.58-6.08,27,27,0,0,0-2.44,5.46,18.89,18.89,0,0,1,1.09-5.82c-.94,1.11-2.2,2.36-2.13,6.67.12.51.23,1,.31,1.53a21,21,0,0,1,0-4.48c.28-1.68.53-1.3.61-.31a31.7,31.7,0,0,1,0,3.39q-.18.5-.33,1c0,4.58,0,4.2.36,2.79s1.15-3.83,1.39-3.5q-.86,3.21-1.55,6.47a43.06,43.06,0,0,1,1.6-5.3c-.33,1.71-1.4,5.27-1.7,6.22-.39,1.6-.26,1-.08.51s.36-1-.22.76l-.12.36c0,.08,0,0,0,0h0s0,0,0,0l.09-.23c.11-.31.23-.62.36-.92l-.46,1.18h0s0,0,0,0h0c.34-.54.4-.65.56-.91a52.36,52.36,0,0,1,3.7-5.49c-1.05,1.71-2.16,3.39-3.3,5l-.87,1.23c-.07.1,0,0,0,0v0l.24-.31a3.06,3.06,0,0,0-.22.29h0l.36-.44c.33-.39.62-.78,1.66-2-1.39,1.75-1,1.34-.93,1.32s0,0-.37.41l-.38.34-.17.15h0l.09-.08.16-.14c.44-.37.74-.7,1.77-1.47l-1.8,1.51-.19.15h0l0,0,.31-.22.48-.33c.21-.13.13,0-.68.47l0,0a.55.55,0,0,1,.15-.08h0l.77-2.77,0-.05,0-.06a1.51,1.51,0,0,1-.12-.2h0a2.06,2.06,0,0,1-.1-.25l0,.08,0-.1,0-.1v0a2.3,2.3,0,0,1-.05-.32l.06.95a31.77,31.77,0,0,1,.08,6.57c-.08-2.22-.09-6-.12-6.91,0,.29,0,1.84,0,.89v-1.52h0v0c0,.37,0,.61,0,.52,0-.38,0-.29,0-.59v0h0v.1a1.07,1.07,0,0,0,0,.16v0h0a2,2,0,0,1-.33.54h0l-.1.1-.07.05h0l-.72,1.51a.51.51,0,0,1-.21-.06c.15.06-.06,0,.15.05a.48.48,0,0,1-.22-.08l-.08,0h0l0,0,0,0s0,0,.08.1l0,0a2,2,0,0,1,.25,1.12v-.14a1.33,1.33,0,0,1,0,.29l0,.12,0,.11h0s0,0,0-.06.07-.11,0-.05l0,0s0,.06,0,0h0l.1-.17c.07-.11,0,0,0,0a2,2,0,0,1,.39-.47l0,0c.24-.21.16-.11.27-.21l.12,0h0l.06,0h-.12l-.6-.05h.1l-.07,0,0,0s0,0,0,0a.66.66,0,0,1-.16-.13l0,0-.15-.13.05,0a1.85,1.85,0,0,1-.29-.35l0-.06a1.89,1.89,0,0,1-.18-.34l0-.05a2.78,2.78,0,0,0,.12.26l-.08-.17a1.51,1.51,0,0,0,.11.22c0-.09,0-.08,0,0a1.42,1.42,0,0,1-.14-.32h0c0-.12,0-.2,0-.13v.11l0,.16v.1a1.49,1.49,0,0,1-.12.39l0-.09a.62.62,0,0,1,0,.11.56.56,0,0,1-.09.17h0l3,.76.05,0h0l-.67.19.75-.21.12,0,.2,0h.25l-.51-.08c-.62-.09-.74-.14.06,0l.48.09h0l-.06,0h0l-.08,0,0,0-.42-.25.38.23h0l-.26-.16c-.63-.4-1.13-.72-1.36-.9l1.4.91.16.11h0l0,0,.06.05-.11-.09h0l-.19-.17h0l-.06-.07-6.41-2,0,0h0a1.32,1.32,0,0,1-.23.07l.2-.06-.17,0h.06a1.7,1.7,0,0,1-.26.05h-.35a.51.51,0,1,0-.14,0h0l0,0,.11.06,0,0,.09,0,.09.07-.08-.06a1.5,1.5,0,0,1,.24.2l0,0a1.8,1.8,0,0,1,.24.28s0,0,0,0l0,.07,3,1,0,0,.1-.09,0,0h0l.11-.06h0a.68.68,0,0,1,.21-.11l-.06,0a2.25,2.25,0,0,1,.7-.18.64.64,0,0,1,.2,0h0c.07,0,0,0,0,0l-.29-.1a2.3,2.3,0,0,1-.77-.58l0,0,0-.06h0c0-.06,0,0,0,0h0l-2.32-.69h0a.22.22,0,0,1,.07-.07l-.06,0a1.16,1.16,0,0,1-.33.11c-.09,0-.17,0-.28,0h0a2.73,2.73,0,0,1-.64-.06h0a.49.49,0,0,1-.22-.06h0l0,0a1.14,1.14,0,0,1,.23.15l0,0a2,2,0,0,1,.32.3,1.93,1.93,0,0,1,.28.38v0c.06.1.07.16.12.25v0a1.26,1.26,0,0,1,0,.16h0a.06.06,0,0,1,0,0v-.08l1.17,3h0a.66.66,0,0,1,.21.16l0,0a1.11,1.11,0,0,0-.17-.15h0a.83.83,0,0,1,.24.25h0l0,.06,0,.06,0,.06h0l0-.07,0,.07h0s0-.09,0-.11a1,1,0,0,1,.1-.47l0,0,0,0c0-.06,0,0,0,0l-.06,0h0c-.25.19-.69.14-.43.17h0a1.07,1.07,0,0,1,.47.29c.35.54.11.42.25.08a1.24,1.24,0,0,1,.15-.34l0,0,.12-.15c.15-.18.23-.16-.06,0l0,0a2.41,2.41,0,0,1-.38.13l-.1,0h-.37l0,0s0,0,0,0l.07,0,0,0h0l4.43,4.45-4.43-4.45a.22.22,0,0,0-.06-.05.12.12,0,0,1,0,.05c-1.3-1.25-2.66-2.61-3.92-3.93l-3.8-3.84a13.86,13.86,0,0,0-4-3,7.54,7.54,0,0,0-5.08-.5,18.75,18.75,0,0,0,2.28,5.41,34.2,34.2,0,0,0-3.79-.12,19,19,0,0,1,1.12-3.23c-2,.08-2.45,1-2.17,1.86a7.93,7.93,0,0,0,2.15,2.76c-1.93-.21-3.38,0-4.24.78.52.46,1.06.88,1.6,1.28a18.5,18.5,0,0,0,1.69,1,24.7,24.7,0,0,0,3.5,1.57,16.28,16.28,0,0,1-4.18-.28c-1.27-.15-2.42-.13-3.18,1.21,1.69.79,3.3.2,4.77-.09a8.3,8.3,0,0,1,2.11-.21,4.56,4.56,0,0,1,1.86.59c-3.23,1.38-6,1.81-2.84,2.62-1.82.66-3.08.66-4,.12a8.42,8.42,0,0,1,2.41,1.91c.67.6,1.54,1,3.45.41-1.72,1.29-1,2.07-.74,2.75s.27,1.4-2.66,3.36c.81-.3,2.24-.65,3.54-1a6.54,6.54,0,0,1,2.84-.35c-1.82,1.14-2.67,1.82-2.91,2.43s.06,1.05.46,1.57c.77,1,1.79,2.13-1.12,5.6a9.79,9.79,0,0,1,3.8-2,5.61,5.61,0,0,1,1.44-.11,12.42,12.42,0,0,1,1.46.26,13.55,13.55,0,0,0,3.1.52,4.84,4.84,0,0,0,3.37-1.22c-.3.57-.91,1.72-1.17,1.27a6.81,6.81,0,0,1,1.34,1,10.62,10.62,0,0,1,1.1,1.21,11.47,11.47,0,0,0,2.31,2.47,16.23,16.23,0,0,1,1.78-7,20.19,20.19,0,0,0,1-2.63,8.65,8.65,0,0,0,.28-2.82,14.69,14.69,0,0,1,2.14,3.21,7.45,7.45,0,0,1,.64,2.87c.12,1.92-.39,4,1.08,6.54-.89-2.37.08-4.06.63-5.65a4.46,4.46,0,0,0,.4-2.26,4.67,4.67,0,0,0-1.15-2.26,17.76,17.76,0,0,0,2.8,1.7,35.57,35.57,0,0,1,3.21,2.66c-2.28-3.19-2.22-3.67-1.79-4s1.28-.54-.07-2.63a18,18,0,0,1,4.65,2c.94.5,1.4.42,1.2-1.42a3.56,3.56,0,0,1,2.85,2A5.93,5.93,0,0,1,1293.13,875.82Zm-30.27-27.67,0-.07.52-.67A7.4,7.4,0,0,0,1262.86,848.15Zm-2.47,2.41a5.19,5.19,0,0,0,1.17-1c1.16,1,2.17,2.29,1.93,2.41C1262.87,851.12,1261.76,851,1260.39,850.56Zm10.82,9.13v0h0Z" transform="translate(-1080.24 -621.52)"/><polygon class="cls-1" points="190.97 238.19 190.97 238.19 190.97 238.19 190.97 238.19 190.97 238.19"/><polygon class="cls-1" points="194.79 233.13 194.79 233.14 194.8 233.13 194.79 233.13"/><polygon class="cls-1" points="212.33 228.72 211.22 228.97 212.26 229.1 212.33 228.72"/><path class="cls-1" d="M1279.49,866.1a6.11,6.11,0,0,0,.54,1C1279.92,866.85,1279.71,866.5,1279.49,866.1Z" transform="translate(-1080.24 -621.52)"/><path class="cls-1" d="M1284.06,864.38a14,14,0,0,0,1.7.54A11.15,11.15,0,0,0,1284.06,864.38Z" transform="translate(-1080.24 -621.52)"/><path class="cls-1" d="M1287.73,850.52c-.7.36-1.22.65-1.69.92l0,0Z" transform="translate(-1080.24 -621.52)"/><path class="cls-1" d="M1288.82,869.92a.48.48,0,0,0,0,.34C1289,871.33,1289.06,870.76,1288.82,869.92Z" transform="translate(-1080.24 -621.52)"/><path class="cls-1" d="M1276.65,849.09a11.59,11.59,0,0,1,1.16-1.85C1277.65,846.82,1277.43,846.65,1276.65,849.09Z" transform="translate(-1080.24 -621.52)"/><path class="cls-1" d="M1259.66,878.85l0-.07a.8.8,0,0,1-.22-.13Z" transform="translate(-1080.24 -621.52)"/><path class="cls-1" d="M1278.51,847.62c.09-1-.27-.89-.7-.38C1277.94,847.61,1278,848.14,1278.51,847.62Z" transform="translate(-1080.24 -621.52)"/><path class="cls-1" d="M1274.34,840.8l-.21-.18c0,.3,0,.54,0,.72Z" transform="translate(-1080.24 -621.52)"/><path class="cls-1" d="M1274.11,841.34l-.22.54C1274,841.87,1274.08,841.84,1274.11,841.34Z" transform="translate(-1080.24 -621.52)"/><path class="cls-1" d="M1273.48,843c.12-.39.26-.77.41-1.15C1273.73,841.87,1273.51,841.74,1273.48,843Z" transform="translate(-1080.24 -621.52)"/><path class="cls-1" d="M1279.14,843.68l.57-1.53C1279.57,842.46,1279.38,843,1279.14,843.68Z" transform="translate(-1080.24 -621.52)"/><path class="cls-1" d="M1280.66,843.76c-.13-.46.42-3.6-.49-2.82l-.46,1.21c.5-1.11.49-.08.42.9S1280,845,1280.66,843.76Z" transform="translate(-1080.24 -621.52)"/><path class="cls-1" d="M1274.36,858.47l-.08.08s0,0,0,0Z" transform="translate(-1080.24 -621.52)"/><path class="cls-1" d="M1274.65,858.25Z" transform="translate(-1080.24 -621.52)"/><path class="cls-1" d="M1274.53,855.35h0Z" transform="translate(-1080.24 -621.52)"/><path class="cls-1" d="M1267.45,846.15a17.43,17.43,0,0,0-2.28-1.58c.53,1.15,1.1,2.28,1.72,3.38A16.43,16.43,0,0,1,1267.45,846.15Z" transform="translate(-1080.24 -621.52)"/><path class="cls-1" d="M1273.73,857.58v-.06a1.7,1.7,0,0,1,0,.22Z" transform="translate(-1080.24 -621.52)"/><path class="cls-1" d="M1276.26,857.74h0S1276.22,857.75,1276.26,857.74Z" transform="translate(-1080.24 -621.52)"/><path class="cls-1" d="M1276.06,857.37l0,0v0h0l-6.41-2h0l6.41,2h0v0Z" transform="translate(-1080.24 -621.52)"/><polygon class="cls-1" points="189.92 233.65 189.91 233.66 189.94 233.63 189.92 233.65"/><path class="cls-1" d="M1080.28,892.35c.08.13.28.08.27-.26l-.31-.27Z" transform="translate(-1080.24 -621.52)"/><path class="cls-1" d="M1081.11,890.13c-.13-.41-.36-.89-.69-.66.28.42.14.5.47,1,0,.34-.16.58-.27.51.07.13-.13.52.06.72a1.86,1.86,0,0,0,.21-1.57C1081,890,1081.05,890.1,1081.11,890.13Z" transform="translate(-1080.24 -621.52)"/><path class="cls-1" d="M1085.05,857.24l-.06.21Z" transform="translate(-1080.24 -621.52)"/><path class="cls-1" d="M1087.78,836.9c0,.16,0,.23,0,.24C1087.82,837,1087.81,836.87,1087.78,836.9Z" transform="translate(-1080.24 -621.52)"/><path class="cls-1" d="M1088.61,833.48l-.06.2A.29.29,0,0,0,1088.61,833.48Z" transform="translate(-1080.24 -621.52)"/><path class="cls-1" d="M1085.05,857.24l.17-.53C1085.11,856.66,1085.1,857,1085.05,857.24Z" transform="translate(-1080.24 -621.52)"/><path class="cls-1" d="M1080.74,885.51a1.22,1.22,0,0,0,.06.3v-.28Z" transform="translate(-1080.24 -621.52)"/><path class="cls-1" d="M1084.29,866.26l0,.16a.44.44,0,0,0,.12.15Z" transform="translate(-1080.24 -621.52)"/><path class="cls-1" d="M1083.6,873.16c0-.15-.24-.23-.36-.31a.5.5,0,0,1,.16.36A.28.28,0,0,0,1083.6,873.16Z" transform="translate(-1080.24 -621.52)"/><path class="cls-1" d="M1082,884.07l0,.19Z" transform="translate(-1080.24 -621.52)"/><path class="cls-1" d="M1084.9,861.33l.1-.05A.1.1,0,0,0,1084.9,861.33Z" transform="translate(-1080.24 -621.52)"/><path class="cls-1" d="M1119.82,670.4l0,0S1119.84,670.35,1119.82,670.4Z" transform="translate(-1080.24 -621.52)"/><path class="cls-1" d="M1123.31,663v.11l.14.07Z" transform="translate(-1080.24 -621.52)"/><path class="cls-1" d="M1089.86,827.19v0C1089.86,827.39,1089.87,827.29,1089.86,827.19Z" transform="translate(-1080.24 -621.52)"/><path class="cls-1" d="M1099.32,769.14c-.37.61-.11-1.13-.57-.19C1098.87,768.87,1099,769.92,1099.32,769.14Z" transform="translate(-1080.24 -621.52)"/><path class="cls-1" d="M1080.79,885.33l0-.28A2.05,2.05,0,0,0,1080.79,885.33Z" transform="translate(-1080.24 -621.52)"/><path class="cls-1" d="M1098.75,769h0l0,.09Z" transform="translate(-1080.24 -621.52)"/><path class="cls-1" d="M1091.86,812.56a.43.43,0,0,0-.14.13S1091.79,812.66,1091.86,812.56Z" transform="translate(-1080.24 -621.52)"/><path class="cls-1" d="M1089.83,823.38l.08-.26A1.86,1.86,0,0,0,1089.83,823.38Z" transform="translate(-1080.24 -621.52)"/><path class="cls-1" d="M1092.34,806.85a.83.83,0,0,0,.09-.39l0,.06A.41.41,0,0,1,1092.34,806.85Z" transform="translate(-1080.24 -621.52)"/><path class="cls-1" d="M1093.3,801l-.07.09,0,.19Z" transform="translate(-1080.24 -621.52)"/><path class="cls-1" d="M1115.25,687.92a.89.89,0,0,1,.31-.21C1115.34,687.75,1115.5,686.89,1115.25,687.92Z" transform="translate(-1080.24 -621.52)"/><path class="cls-1" d="M1080.9,885.52a.21.21,0,0,1-.11-.19v.2S1080.87,885.56,1080.9,885.52Z" transform="translate(-1080.24 -621.52)"/><path class="cls-1" d="M1090.19,806.27l.18-.93C1090.31,805.59,1090.24,805.93,1090.19,806.27Z" transform="translate(-1080.24 -621.52)"/><path class="cls-1" d="M1105.21,729.44l0-.22A.35.35,0,0,0,1105.21,729.44Z" transform="translate(-1080.24 -621.52)"/><path class="cls-1" d="M1090.79,802.56a1.51,1.51,0,0,0,.28-.49.22.22,0,0,0,0-.12Z" transform="translate(-1080.24 -621.52)"/><path class="cls-1" d="M1115.56,687.71Z" transform="translate(-1080.24 -621.52)"/><path class="cls-1" d="M1116.51,681.52c-.23.87.24.5.4.74-.17,1.07-.39.41-.67.72a13.9,13.9,0,0,1,0,1.74c-.07,0-.11.11-.16,0,.1.76-.52,2-.38,2.93,0,0-.08.08-.12.08a.68.68,0,0,1,.53,0c-.1.39,0,.78-.24.87.07-.24,0-.28-.06-.41v.43c-.43.28,0-.59-.22-.65a10.91,10.91,0,0,1-.32,2.41c-.37,0,.26-1.46-.24-.72l.37-.91c-.71.59.19-.57-.54,0-.42,1.22-.21,1.43-.62,2.65.11.33.29,0,.41.31-.12,1.85-1.18,1.18-1.07,2.59.13.4.51.63.06,1.5l-.29-.41c-.34,1.2.36.83-.21,2-.09-.26.11-1,0-.81-.5.75.07.64-.09,1.27l-.36,0c-.28,1.31-.39,2.78-.69,4.22-.08-.1-.12-.37-.31-.06a32.9,32.9,0,0,1-1.61,5.53l.12.73c0,.15-.19.26-.21.07-.27.66.17.08.21.44s-.29.47-.31.2a13.74,13.74,0,0,1-.91,4.72l0-.26c-.36.95.32,1.24-.17,2.09v-.19c-.63,2.11-.94,4.52-1.73,6,.34.41-.67,2.08-.12,2.35a11.76,11.76,0,0,0-1.17,2.45c-.13.46.2.77.14,1.35l-.31-.06.14.85-.45.33,0,.54c.06-.2.23-.42.31-.36a3.25,3.25,0,0,1-.83,2l-.19,2c-.11-.07-.08-.41-.1-.69.07,1.12-.36.12-.29,1.14.09-.11.16.11.22.15a6.77,6.77,0,0,0-.62,2.36l-.18-.2c-.37,1.45-.56,3.1-.92,4.75.22-.57.56-.36.49.13l-.36.12c.13.36.23-.47.33.22-.17.6-.45.33-.48,0l0,.77c-.1,0-.12-.17-.23-.24.13.35-.59,1.22-.35,1.74l-.1,0c-.35,1.64-.4,2.41-.68,3.75.27.08.1.59.24,1a28.81,28.81,0,0,0-1,3.21c0,.86.19.29.28.7-.27,0-.48,1.2-.54.55a31.89,31.89,0,0,0-.48,3.67c.14-.17.23-.39.29-.25,0,.33-.25.72-.36.65v-.1c0,2.1-1.68,4.52-1.48,6.24v-.1l0,1.73c-.19.76-.1-.5-.37,0,.08,1.89-.6,2.84-.6,4.38-1,1-.73,4.09-1.5,5.56l.19-.06c.1.43-.19.47-.29.76.15,0,.24-.41.29-.14-.44,3.44-1.52,7-2.31,10.45-.28,1.27.78.88.07,2.42l-.24-.51c-.08,2.64-1,5.27-1,7.86,0-.17-.15-.19-.1-.43-.33.49-.34,2-.15,2-.09.39-.19.06-.33.29-.23.51.08,1.39-.2,1.64,0,0-.06-.16-.06-.26.06.36-.3,1.62,0,1.33-.29.93-.18,1.83-.47,2.57.23.54-.41,1.6,0,1.82-.43-.14-.64,1.61-.52,2.25-.1-.23-.22.5-.37.23-.1.69-.11,1.33.14,1.25-.73,1.18,0,2.61-.76,3.21-.07,2.08-.2,4-.38,5.84-.43-.14.27-2-.21-2a24.42,24.42,0,0,1-.23,4.54c-.13.44-.16-.28-.21-.45-.09,1.77-.52,3.36-.51,4.95,0,0-.06-.19-.07-.35,0,.31-.17.7,0,.69v-.3c.36-.45.44,1.3.59,1.38-.51-.6-.37,1.51-1,.58,0,.2.07.47.21.44-.08.3-.18.38-.29,0,0,1.11.23.76.08,1.75-.09,0-.1-.23-.2-.35a3.57,3.57,0,0,1,0,1.89c-.05-.06-.14,0-.1-.22-.18,1.44.16,2.52-.25,4.07-.36-.52-.22.52-.6.55v.86l.22-.31a13.36,13.36,0,0,1-.12,2.06l-.08-.58-.11,1.41.24-.77c.09.78.48,0,.25,1,0-.21-.11.74-.37,1.1h0a2.52,2.52,0,0,1,0,1.31c-.14.13-.4-.17-.49-.08.26.4-.14,1.75.13,2.25a.24.24,0,0,0-.3-.15l.21.34c-.12.33-.17.38-.31.3-.19,1,.51-.27.15.94,0-.1-.06-.06-.07-.27-.26,1.23-.15,2.41-.42,3.53-.42.29,0-1-.33-.66-.15,1.65,0,3.45-.26,5l.08-.29c.5.29-.4,1.15-.25,2,0-.2-.26-.29-.21-.23a24.75,24.75,0,0,0-.16,3.91l-.11-.22c-.2.62-.27,1.67-.41,2.36.11.22,0,.61.26.39-1,2.05-.08,4.12-.91,5.94,0-.23-.06-.55-.08-.37l0,1.63c.25-.11.16-.2.38-.52a2.36,2.36,0,0,1,.13,1.09c-.08-.75-.37,0-.53.26.07,0,.14.07.21.05-.5.8.45.2,0,1.32l-.11-.08a6.33,6.33,0,0,1,0,1.31c-.29.17-.08-.47-.29-.52-.06.65.36,1.34,0,1.9,0-.28,0-.68,0-1a2.35,2.35,0,0,0-.41,1.17v-.05l-.26,1.09.12-.27c.6.89,0,1.68.28,2.82-.31-1.11-.23-.2-.52-.31-.11.27-.25.69-.32.56.18.54-.29.85,0,1.62-.1,0-.07.55-.3.41,0,.68.19-.14.3-.07.22,1.07-.64,2.41-.33,4,.07,1.31.37,1.58.42,2.8-.19.39-.32-.36-.32-.36a4.23,4.23,0,0,0-.17,1.76c-.07-.14-.16,0-.29.16,0,.5.33.37.12,1a1.51,1.51,0,0,1-.34-.53c0,.6.16,1.19.19,1.8-.18.14-.22-.39-.31-.61,0,.68,0,1.77.23,2l.14-.42c0,.24-.24.1-.27-.08-.16-.6.17-.83.27-.86l0,.44c.61-.39.07-1.74.19-2.6l.38.4-.26-.92c.12-.17.37-.28.39.15.26-.6-.1-.56.18-1.07,0-.06.06,0,.07,0l-.07-.62c.08.13.31-.07.21.29.34-1.06-.14-1.78.21-2.16l0,.1c0-1.52-.29-.18-.54-1.34l.82-.69-.29-.18c0-.15.07-.46.19-.39-.15-.6-.14.08-.31-.27.35-.72.08-2.08.58-2.2-.2-.29-.25.7-.32-.11.54-.18,0-.94.32-1.59.24.23,0,.87.34.21-.41-.46.24-1.32.22-1.91-.36-.06,0-1.27,0-2.24a20.07,20.07,0,0,0,.62-2.69l.06,0c-.35-.22-.18-1.14-.18-1.82.21,0,.29.18.34.56l.07-.64a1.43,1.43,0,0,1-.14-.78l.26.19a11.52,11.52,0,0,1,.16-2.8c-.25-.09-.81.78-.85-.39.15,0,.39,0,.41.27a1.07,1.07,0,0,1,0-.56l.17.48c.16-.48-.16-.28-.09-.67.19,0,.17-.28.32-.2s-.12.33-.06.49a2.71,2.71,0,0,1,.44-1.12c-.12,0-.27,0-.25-.36.08-.85.27-.26.43-.75-.12-.22.09-.74-.2-.79,0-.24.17-.27.26-.36-.08-.45.2-2-.17-1.59l0,.11v-.07h0c-.13-1.47.51-2.95.56-4.39l.09,0a16.6,16.6,0,0,0,0-2.53c0-.25.25-.57.35-.45a3.85,3.85,0,0,1,.18-1.66c.09.67.18-.2,0,.69a3.72,3.72,0,0,0,.23-1.94c.21.34.4-.6.37-1l-.25.56a7.89,7.89,0,0,1,.17-1.24l.3.26c.62-1.67-.28-3.19.56-4.41-.17-.49-.28.91-.5.47a12.25,12.25,0,0,1,.76-1.8c.32-1.06-.35-1.07-.08-2.19-.13.13-.47.22-.47-.64.15-.78.62-.91.65-.39,0,.19-.06.28-.1.26,0,.26,0,.61.19.31l-.11-.12c.17-.38.3-1.47.46-1.19,0-.61-.16-.28-.28.16.31-1,.21-1.59.47-2.62-.08.16-.24.29-.22.13.36-1.51-.13-.7,0-1.75.26-.56.4.27.4-.79.21-.62.33-.1.39.17a6,6,0,0,1,.52-2.29l0,.51a4,4,0,0,1,.06-.8l-.28.25c.09-.29.12-.53.22-.52-.11-.32-.42.18-.55-.45.18-.38,0-1.21.37-1.3-.28,1.21.34-.1.24,1a2.47,2.47,0,0,1,.11-.75s.06.06.06.14c.45-1.14-.27-.59-.09-1.82.15.18.37-.23.36-.44-.07.5-.32.2-.39-.28.25-.76,0-.86.09-1.27l-.13.46c-.15-.19-.07-.57,0-1.13.14,0,0,.51.11.32-.22-.65.52-1.32.43-2.2.17-.37.33,0,.46-.32-.09-1,.4-1,.36-2-.28.25-.23.31-.35-.43l-.09,1.66-.18-1.1c-.08.5,0,1.07-.1,1.36-.11-.53-.06-.47-.29-.27.46-.62,0-1.37.36-2.11l.58.11c.44-1.14,0-2.13.4-3.64l-.18.48c-.2-.24.12-.95.1-1.46.19.08.31-.22.46-.41-.15,0,.19-1.11-.18-1.31l.36-.64c.29-1.22-.34-1.5-.09-2.67.16.39.38-.13.41.69.06-.39.15-.74,0-.77.15-.21-.1-1.14.14-1.47-.06-.18-.25-.27-.17-.71,0,0,.1,0,.1,0s0-.72-.3-.37c.81-1.11.52-3.4,1.22-4.38.08-.87.19-1.91.3-2.7,0,.06.1,0,0,.16.36-1-.45-.75,0-1.95.42-.57.06.68.25.31.67-.06.16-1.49.67-2.25v.2c.32-.59,0-1.58.23-2.6,0,0,0,.06.1,0a10.49,10.49,0,0,1,0-3.12c.19.35,0,.47.34.33,0-.45-.43.06-.35-.84.19-.26.43-.88.71-.92l-.13.84c.43-.37.18-1.08.32-1.51l.14.08c.18-1.29-.2-1.38.07-2.75l-.14.12c-.25-.82.33-.59.18-1.39l.43-.16a24.94,24.94,0,0,1,0-2.71,11.92,11.92,0,0,1,.21,2.3,5.7,5.7,0,0,0,.12-2,1.33,1.33,0,0,1,0,.66,5.43,5.43,0,0,1,0-2.46c.72.31.64-2.52,1.37-3.12,0-1.78.77-3.41,1.11-5.43-.72.6.1-.59-.53-.58.05-.48.1-.66.14-.69l.63-1.36c.24-.3.05.47.19.46.25-1,.34-.38.63-1-.24.09-.24-.42,0-1l-.43.77c0-1.5.74-1.14.7-2.65l.1.49c0-.76.53-2.74.2-3.56.1-.11.3-.25.27.08.43-1.76.29-4,.87-5.36l.11.16c0-.34-.15-.63.08-1,0,0,.12.16.16,0a3.47,3.47,0,0,1,.09-1.35l.09.41c.54-1.69.14-2.74.33-4.21.43.09.84-1.24,1.06-1.9l0,0a39.76,39.76,0,0,0,.61-5.38c.72-1.05,1-3.87,1.7-5.66-.14.26-.33-.12-.3-.46.18-.42,0-1.27.34-1.12l0,.16c.46-.24.54-1.16.71-1.86l-.49-.23c1.16-1.65.81-4.83,1.71-5.67,0-.47.09-1,.06-1.48l.27.08a27.1,27.1,0,0,0,.8-3.32l.13.35c.21-.84-.55-1.25-.39-2l.46-.14c.33-1.48,1.06-2.89,1-4.44.06,0,.16.11.12.35.18-.69.93-2.62.3-2.5.37.07.4-1.52.43-2.35l.24.18a3.23,3.23,0,0,1-.14-1.76c.09-.21.26-.14.12.14.32-.71-.12-.64.24-1.51l.1.38a1.57,1.57,0,0,0,0-1.19c0-.51.42-1.44.69-1.49a1.18,1.18,0,0,1,0-1c.1,0,.12.14.13.23.49-1.23.16-2,.64-2.79a.21.21,0,0,0,.2-.1c-.26,1-.48,1.82-.48,1.74.25.06.5-.75.68,0a7.12,7.12,0,0,1,.17-2.7.31.31,0,0,1,.11-.08v.09a1.2,1.2,0,0,0,.08-.52,3.86,3.86,0,0,0,.25-.64c.23,0,.34-.91.46-1.31-.29,0-.11-.56-.46-.12,0,0,0,.09,0,.36a1.54,1.54,0,0,0,0,.19v0c-.07.27-.15.62-.24,1a1.49,1.49,0,0,1,.17-1.14,6.19,6.19,0,0,1-.29-.68c.52-.46,1-1.48,1.27-1.57.16-1.29.64-3,.32-3.87,0-.38.25-.37.36-.49a3.11,3.11,0,0,0,0,.59c0-.74.48-2.11.16-2.37.39-.85.2.59.46-.65l.07.19c1.2-2.25.12-4.15,1.56-6.62-.1.17-.14.26-.21.28,1.13-3,1.34-6.35,2.68-9.2.34-.82.13-1,.1-1.54l.35-.1-.09-1c.1-1.33,1.32-2,1.29-3.7l-.25.15c.19-.56.39-1.85.58-1.69,0-.07-.15-.24,0-.44l.15,0,.13-1.48c.41-1.06.56.34,1-1.24.1-.61,0-1.81-.14-1.61s-.26.58-.42.55l.07-.56c-.42-.22-.76-.77-1.45.47l0,1-.3.24.2-.79a1.19,1.19,0,0,0-.18,1.07.6.6,0,0,0-.35.32l.18,1c-.21.06-.24-.51-.5.07.08.49.5-.29.44.45-.33.38-.46.21-.43.78-.13,0-.18-.09-.17-.31,0,.5-.28,1.24-.11,1.54-.38.39-.37,1.58-.78,1.42a3.6,3.6,0,0,1,0,1.33c-.3-.91-.47,1.58-1,1.23.3.7-.37,2.13-.4,3.22,0-.07-.07-.2,0-.29a4.81,4.81,0,0,1-.56,1c.36.18.2,1.09.31,1.64-.55.61-.33-.55-.74-.42.32.05,0,1.3.3,1.13-.37.48-.23.44-.62.63.45.22,0,.52.12,1.05-.44.72-.49.08-.58,1C1116.48,682.32,1116.51,681.52,1116.51,681.52Zm-4.43,20.6h0l.09-.43C1112.14,701.78,1112.12,701.91,1112.08,702.12Zm-.43,1.72c.06-.21.13-.47.2-.74.11,0,.19,0,.14.22C1112,703.21,1111.79,703.6,1111.65,703.84Zm2.8-3.16c0,.28-.1.36-.17.38s.06-.28.09-.48l0,0A.3.3,0,0,1,1114.45,700.68Z" transform="translate(-1080.24 -621.52)"/><path class="cls-1" d="M1114.22,700.1a.45.45,0,0,1,0-.11,1.34,1.34,0,0,0-.11.14l.07.12Z" transform="translate(-1080.24 -621.52)"/><path class="cls-1" d="M1085,857.48l0,0,0,.07Z" transform="translate(-1080.24 -621.52)"/><polygon class="cls-1" points="25.27 105.97 25.34 105.98 25.31 105.82 25.27 105.97"/><path class="cls-1" d="M1082.92,867.05a.25.25,0,0,0-.09.12S1082.88,867.11,1082.92,867.05Z" transform="translate(-1080.24 -621.52)"/><path class="cls-1" d="M1082.41,871.23l-.16.58A5.48,5.48,0,0,0,1082.41,871.23Z" transform="translate(-1080.24 -621.52)"/><path class="cls-1" d="M1081.93,874.43a.33.33,0,0,0,.11.08h0Z" transform="translate(-1080.24 -621.52)"/><path class="cls-1" d="M1087.94,823.33a.57.57,0,0,0,0-.13C1087.93,822.91,1087.92,823.11,1087.94,823.33Z" transform="translate(-1080.24 -621.52)"/><path class="cls-1" d="M1086.48,838.59a4.43,4.43,0,0,1-.06-.51C1086.36,838.35,1086.33,838.56,1086.48,838.59Z" transform="translate(-1080.24 -621.52)"/><polygon class="cls-1" points="9.93 184.85 9.93 184.85 9.95 184.75 9.93 184.85"/><path class="cls-1" d="M1086.51,837.37a1.87,1.87,0,0,0-.09.71A2.82,2.82,0,0,0,1086.51,837.37Z" transform="translate(-1080.24 -621.52)"/><path class="cls-1" d="M1080.44,888.38l0,.15s0,0,0,0Z" transform="translate(-1080.24 -621.52)"/><path class="cls-1" d="M1080.46,888.56l0,.17C1080.48,888.65,1080.49,888.58,1080.46,888.56Z" transform="translate(-1080.24 -621.52)"/><path class="cls-1" d="M1080.51,889.1l0-.37A.51.51,0,0,0,1080.51,889.1Z" transform="translate(-1080.24 -621.52)"/><path class="cls-1" d="M1081,884.13l-.1-.06A.14.14,0,0,0,1081,884.13Z" transform="translate(-1080.24 -621.52)"/><path class="cls-1" d="M1081.07,882.83a5,5,0,0,0-.27,1.19l.08.05C1080.75,883.85,1081.21,883.14,1081.07,882.83Z" transform="translate(-1080.24 -621.52)"/><path class="cls-1" d="M1082.84,877.54l-.19,1.08c.13-.18.29-.41.27.08C1083.38,877.37,1082.65,879,1082.84,877.54Z" transform="translate(-1080.24 -621.52)"/><path class="cls-1" d="M1083.35,874.2c0,.59.16,0,.22,0C1083.51,873.87,1083.49,873.78,1083.35,874.2Z" transform="translate(-1080.24 -621.52)"/><path class="cls-1" d="M1086.09,849.94l.25.09C1086.36,849.58,1086.24,850,1086.09,849.94Z" transform="translate(-1080.24 -621.52)"/><polygon class="cls-1" points="5.13 223.62 4.92 224.04 5.12 224.28 5.13 223.62"/><polygon class="cls-1" points="7.29 221.12 7.3 221.32 7.31 220.56 7.29 221.12"/><path class="cls-1" d="M1093.37,802.07l-.33.08C1093.05,802.46,1093.38,802.58,1093.37,802.07Z" transform="translate(-1080.24 -621.52)"/><path class="cls-1" d="M1096,784.57a1.12,1.12,0,0,0,.28-1A5.64,5.64,0,0,0,1096,784.57Z" transform="translate(-1080.24 -621.52)"/><polygon class="cls-1" points="26.69 111.1 26.72 111.47 26.78 110.8 26.69 111.1"/><path class="cls-1" d="M1327,935.48c.15.26.29.06.09-.71l-.45-.47Z" transform="translate(-1080.24 -621.52)"/><path class="cls-1" d="M1326.44,930.13c-.38-.87-.82-1.88-1-1.23.48.85.42,1.09,1,2,.21.77.2,1.37,0,1.27.14.26.19,1.22.49,1.59a9.94,9.94,0,0,0-.75-3.63C1326.22,929.82,1326.36,930.08,1326.44,930.13Z" transform="translate(-1080.24 -621.52)"/><path class="cls-1" d="M1330.79,853.49l-.15.48A4.68,4.68,0,0,0,1330.79,853.49Z" transform="translate(-1080.24 -621.52)"/><path class="cls-1" d="M1343.06,807.17a1.3,1.3,0,0,0-.08.54C1343.06,807.38,1343.11,807.1,1343.06,807.17Z" transform="translate(-1080.24 -621.52)"/><path class="cls-1" d="M1345.69,799.42c-.06.16-.1.3-.16.45A1.36,1.36,0,0,0,1345.69,799.42Z" transform="translate(-1080.24 -621.52)"/><path class="cls-1" d="M1330.79,853.49l.38-1.22C1331.09,852.16,1330.94,852.89,1330.79,853.49Z" transform="translate(-1080.24 -621.52)"/><path class="cls-1" d="M1324,919.68a4.81,4.81,0,0,0,.17.68c0-.22-.07-.43-.11-.65C1324,919.7,1324,919.7,1324,919.68Z" transform="translate(-1080.24 -621.52)"/><path class="cls-1" d="M1327.11,874.27l-.06.38a1.89,1.89,0,0,0,.09.34Z" transform="translate(-1080.24 -621.52)"/><path class="cls-1" d="M1325.27,890.33c0-.36-.23-.51-.34-.66a1.8,1.8,0,0,1,.12.81C1325.11,890.49,1325.17,890.44,1325.27,890.33Z" transform="translate(-1080.24 -621.52)"/><path class="cls-1" d="M1324.75,915.94l.07.45C1324.8,916.27,1324.77,916.08,1324.75,915.94Z" transform="translate(-1080.24 -621.52)"/><path class="cls-1" d="M1329.17,862.87a.34.34,0,0,0,.12-.12S1329.22,862.79,1329.17,862.87Z" transform="translate(-1080.24 -621.52)"/><path class="cls-1" d="M1144.72,625.3s0,0,0,0S1144.6,625.29,1144.72,625.3Z" transform="translate(-1080.24 -621.52)"/><path class="cls-1" d="M1126.14,622.12h.26a.51.51,0,0,0,.07-.15Z" transform="translate(-1080.24 -621.52)"/><path class="cls-1" d="M1350.35,785.19l0,.06C1350.24,785.63,1350.3,785.42,1350.35,785.19Z" transform="translate(-1080.24 -621.52)"/><path class="cls-1" d="M1376.68,665c1.44.65-2.53-.35-.34.53C1376.16,665.4,1378.51,665.7,1376.68,665Z" transform="translate(-1080.24 -621.52)"/><path class="cls-1" d="M1324,919.25c0-.22,0-.44-.08-.66C1323.94,918.89,1324,919.1,1324,919.25Z" transform="translate(-1080.24 -621.52)"/><path class="cls-1" d="M1376.34,665.56h0l.23.09Z" transform="translate(-1080.24 -621.52)"/><path class="cls-1" d="M1360.85,752.33a1.15,1.15,0,0,0-.23.3S1360.71,752.56,1360.85,752.33Z" transform="translate(-1080.24 -621.52)"/><path class="cls-1" d="M1352.44,776.62l.22-.59A5.07,5.07,0,0,0,1352.44,776.62Z" transform="translate(-1080.24 -621.52)"/><path class="cls-1" d="M1364.86,739.6a4.15,4.15,0,0,0,.34-.87l-.08.12A2.13,2.13,0,0,1,1364.86,739.6Z" transform="translate(-1080.24 -621.52)"/><path class="cls-1" d="M1369.59,726.54l-.14.22-.14.42Z" transform="translate(-1080.24 -621.52)"/><path class="cls-1" d="M1186.66,630.05a2.56,2.56,0,0,1-.6-.33C1186.24,629.94,1184.21,629.75,1186.66,630.05Z" transform="translate(-1080.24 -621.52)"/><path class="cls-1" d="M1324.16,919.65a.68.68,0,0,1-.17-.4c0,.16,0,.31.07.46S1324.14,919.75,1324.16,919.65Z" transform="translate(-1080.24 -621.52)"/><path class="cls-1" d="M1363,738.33l.78-2.07C1363.52,736.83,1363.23,737.58,1363,738.33Z" transform="translate(-1080.24 -621.52)"/><path class="cls-1" d="M1285,646.18l-.51-.07A1.68,1.68,0,0,0,1285,646.18Z" transform="translate(-1080.24 -621.52)"/><path class="cls-1" d="M1365.93,730.07a7.77,7.77,0,0,0,.61-1.1,1.37,1.37,0,0,0,0-.27Z" transform="translate(-1080.24 -621.52)"/><path class="cls-1" d="M1186.05,629.71h0Z" transform="translate(-1080.24 -621.52)"/><path class="cls-1" d="M1171.55,628.57c2.09.25,1-.25,1.49-.41,2.51.19,1.12.41,2,.7,1.57.08,2.8-.09,4,.07.08.07.3.12,0,.16,1.68-.08,4.88.62,6.85.5a.73.73,0,0,1,.23.12c-.28-.22-.31-.41-.23-.54.94.12,1.77,0,2.09.28a2,2,0,0,0-.91,0l1,0c.84.46-1.35,0-1.38.2,1.92.14,4.19.14,5.64.43.26.37-3.44-.33-1.53.22l-2.24-.42c1.66.75-1.38-.22.14.56,3,.49,3.36.24,6.31.76.7-.09-.18-.31.51-.4,4.27.26,3.21,1.31,6.37,1.3a5.73,5.73,0,0,1,3.39,0l-.81.28c2.88.44,1.72-.32,4.7.36-.55.07-2.28-.19-1.85-.09,1.91.58,1.42,0,2.92.2l.26.38c3.07.42,6.48.69,9.88,1.14-.2.07-.8.09,0,.31,4.31.47,9.12,1.46,13.21,2.34l1.62,0c.36.06.65.24.25.23,1.59.37.11-.17.9-.16s1.18.37.59.36a66.94,66.94,0,0,1,11.08,1.64h-.6c2.3.52,2.73-.14,4.83.51l-.42,0c2.51.5,5.16.93,7.66,1.37a66.23,66.23,0,0,1,6.71,1.53c.81-.28,4.94,1.11,5.37.59,2.82.83,2,.76,6,1.74,1.07.24,1.67,0,3,.16l0,.31,1.87,0,.89.55,1.26.17c-.49-.11-1-.34-.93-.41a16.45,16.45,0,0,1,4.73,1.32l4.66.66a5.66,5.66,0,0,1-1.53-.06c2.52.18.38.41,2.69.59-.29-.13.2-.14.26-.19a39.55,39.55,0,0,0,5.55,1.27l-.41.13c3.41.78,7.23,1.4,11,2.24-1.35-.4-1-.69.17-.47l.38.41c.77,0-1.14-.38.4-.29,1.42.36.88.58,0,.5l1.77.27c.08.12-.34.08-.47.18.75,0,2.92,1,4,.87l.07.11c3.82.86,5.58,1.13,8.7,1.81.12-.26,1.32.08,2.3.08,2.26.62,4.74,1.42,7.5,2,2,.32.62-.1,1.52,0,.09.28,2.84.9,1.37.74,3.31.73,4.23.94,8.44,1.76-.43-.21-.93-.38-.64-.4.76.15,1.69.53,1.55.62l-.2,0c4.76.79,10.61,3.34,14.44,3.81l-.21,0,3.91.72c1.76.5-1.11-.08.16.41,4.26.66,6.55,1.73,10,2.36,2.44,1.45,9.37,2.48,12.81,3.9l-.16-.22a2.76,2.76,0,0,1,.59.1c.14,0,.09,0,.12.08s0,.14,0,.16-.07-.18.13-.23l.32.06-.14.37-.45,1.09-1.17,2.72-2.45,5.47c-1.62,3.66-3.33,7.32-4.87,11-1.18,2.8.21,1.94-1.61,5.33l.1-1.13c-1,2.91-2.12,5.82-3.26,8.71s-2.3,5.77-3.2,8.64a2.69,2.69,0,0,1,.18-1,15,15,0,0,0-1.5,4.45c-.35.87-.24.14-.54.65-.58,1.13-.85,3.08-1.3,3.63-.08.1,0-.36.11-.58-.17.81-1.36,3.6-.83,3-.9,2.07-1.37,4.08-2.15,5.71-.12,1.2-1.45,3.57-1.16,4.06-.37-.3-1.68,3.59-2,5,0-.49-.55,1.12-.54.53-.54,1.53-1,3-.64,2.77-1.49,2.65-1.56,5.82-2.77,7.18-1.35,4.63-2.6,8.92-3.88,13.06-.39-.29,1.48-4.56,1-4.53-1.15,4-1.51,6.33-2.88,10.17-.38,1,0-.63,0-1-1.11,4-2.49,7.54-3.35,11.11a2.72,2.72,0,0,1,.12-.78c-.21.69-.57,1.58-.35,1.56l.16-.69c.63-1-.27,2.92-.16,3.09-.2-1.34-1.22,3.4-1.35,1.32-.11.47-.19,1.07,0,1-.25.66-.39.85-.33.12-.65,2.51-.17,1.69-.86,3.93-.09,0,0-.5,0-.77a19.25,19.25,0,0,1-1,4.25c0-.13-.17.06,0-.5-1,3.25-1.16,5.69-2.4,9.2-.11-1.17-.5,1.18-.91,1.26l-.46,1.95.4-.72c-.51,1.68-.66,3.25-1.19,4.67l.2-1.3-.83,3.18.65-1.75c-.3,1.76.5-.05-.24,2.16a26.16,26.16,0,0,1-.94,2.5h0a14,14,0,0,1-.69,3c-.2.29-.32-.37-.46-.18.08.91-1,4-1,5.11,0-.37-.16-.44-.23-.33l0,.76c-.29.76-.36.86-.48.69-.69,2.35.67-.62-.3,2.12,0-.22,0-.13.06-.6-.88,2.78-1.29,5.48-2.1,8-.57.67.51-2.28,0-1.49-.93,3.75-1.61,7.84-2.6,11.44l.21-.67c.38.63-.94,2.63-1.14,4.53.07-.46-.14-.66-.11-.52-.71,2.46-1.11,5.11-1.81,8.92l0-.49c-.47,1.43-.92,3.86-1.33,5.44,0,.5-.19,1.4.12.89a31.77,31.77,0,0,0-1.58,7.06,37.31,37.31,0,0,1-1.25,6.69c.09-.52.1-1.27,0-.85-.19,1.25-.33,2.51-.47,3.77.27-.26.21-.47.5-1.23a11.49,11.49,0,0,1-.12,2.5c.1-1.71-.37,0-.61.67.09-.11.13.15.21.1-.69,1.9.38.39-.24,3l-.1-.16a29.1,29.1,0,0,1-.18,3c-.32.42,0-1.08-.2-1.18-.16,1.53.11,3.06-.27,4.42,0-.66.09-1.59.1-2.25a9.45,9.45,0,0,0-.58,2.77v-.11l-.37,2.58.14-.65a8.47,8.47,0,0,1,.11,3,18.55,18.55,0,0,0,0,3.5c-.29-2.53-.23-.43-.52-.64-.12.66-.27,1.66-.34,1.37.19,1.23-.34,2,0,3.78-.1.08,0,1.31-.28,1,0,1.6.18-.37.3-.24a23.79,23.79,0,0,1-.09,4.25,26.46,26.46,0,0,0,.18,5.06c.28,3,.73,3.58,1,6.38-.09,1-.4-.75-.4-.75a17.8,17.8,0,0,0,0,2.1c.07.66.18,1.31.32,2-.12-.28-.16,0-.21.48.15,1.15.44.73.47,2.27a4.87,4.87,0,0,1-.52-1.11c.24,1.36.56,2.68.91,4.07-.11.39-.4-.81-.59-1.29a24.61,24.61,0,0,0,1.17,4.5l-.07-1c.11.57-.18.33-.3-.08-.43-1.32-.23-2-.14-2.06l.22,1a5.67,5.67,0,0,0-.26-2.66c-.22-1.12-.52-2.35-.62-3.36l.51.79-.58-2c.06-.45.25-.78.43.21.05-1.46-.32-1.26-.18-2.52,0-.14,0-.08.08,0l-.22-1.4c.1.27.28-.26.27.61.08-2.55-.58-4.07-.33-5l0,.21c-.23-3.53-.31-.33-.74-3l.72-1.8-.31-.34c0-.37,0-1.09.13-1-.22-1.35-.14.23-.34-.55.31-1.76,0-4.85.46-5.23-.22-.64-.21,1.67-.34-.21.51-.51,0-2.16.33-3.75.24.5,0,2,.35.42-.39-1,.25-3.11.28-4.45-.35-.09.12-2.94.2-5.21.07.15.7-4.22,1.08-6.29l.05.07c-.33-.46.08-2.6.23-4.18.21.1.25.39.22,1.25l.22-1.47a6.56,6.56,0,0,1,0-1.79l.21.41a54.67,54.67,0,0,1,1-6.47c-.23-.19-1,1.88-.76-.82.16-.07.41-.12.34.58a5.59,5.59,0,0,1,.18-1.28l0,1.1c.3-1.12-.08-.63.11-1.54.19.06.28-.65.4-.49a10.11,10.11,0,0,0-.23,1.15,13.27,13.27,0,0,1,.83-2.63c-.13.07-.26,0-.14-.81.37-1.94.36-.62.69-1.73,0-.5.35-1.71.07-1.8a1.62,1.62,0,0,1,.41-.84c.08-1,1-4.7.42-3.63l-.08.25,0-.17h0c.45-3.35,1.7-6.78,2.39-10l.09,0c.36-2,1-4.33,1.14-5.76.15-.57.52-1.3.58-1a19.11,19.11,0,0,1,1-3.78c-.23,1.53.27-.47-.28,1.56a20,20,0,0,0,1.14-4.42c.06.77.69-1.36.85-2.29l-.53,1.3c.24-1,.5-1.92.76-2.83l.19.58c1.41-3.81,1.25-7.23,2.71-10,.06-1.1-.74,2.08-.75,1.08.54-1.79,1.51-3.53,1.67-4.09.86-2.41.18-2.43,1-5-.21.29-.6.52-.16-1.43.55-1.79,1.11-2.07.88-.91-.12.43-.21.63-.25.6-.12.59-.29,1.36,0,.69l0-.27c.37-.85,1.06-3.33,1.08-2.69.28-1.39,0-.64-.36.35.81-2.25,1-3.59,1.84-5.92-.17.36-.41.67-.29.29,1.16-3.42.23-1.59.87-3.95.57-1.28.28.6.83-1.8.54-1.41.39-.22.32.38a29.39,29.39,0,0,1,1.76-5.18l-.25,1.15c.15-.69.32-1.24.49-1.8l-.42.57c.24-.65.41-1.21.51-1.17.06-.73-.54.41-.33-1,.39-.85.7-2.74,1.09-3-.95,2.75.4-.21-.27,2.16a11.29,11.29,0,0,1,.52-1.67c.06-.09,0,.11,0,.3,1.09-2.58,0-1.34.9-4.09.06.4.52-.53.63-1-.36,1.11-.45.45-.26-.61a19.44,19.44,0,0,0,.82-2.87l-.4,1a10.85,10.85,0,0,1,.58-2.54c.17-.06-.26,1.15-.06.73.14-1.46,1.27-3,1.69-5,.4-.84.35,0,.68-.73.47-2.2,1-2.23,1.53-4.52-.44.57-.42.7-.12-.95l-1,3.73.44-2.47c-.37,1.11-.63,2.39-.88,3,.18-1.19.2-1.06-.16-.58.83-1.41.78-3.08,1.59-4.76l.54.24c1.1-2.56,1.27-4.78,2.56-8.15l-.47,1.07a24.4,24.4,0,0,1,1-3.26c.15.17.45-.5.73-.93-.17,0,.86-2.5.6-2.93l.78-1.44c1-2.71.56-3.32,1.54-5.94-.07.87.48-.29,0,1.53.31-.88.62-1.66.5-1.72.29-.48.61-2.53,1.08-3.28a3.61,3.61,0,0,1,.27-1.57c.08-.09.09,0,.09,0s.43-1.59-.08-.8c1.54-2.51,2.67-7.59,4-9.76.65-1.93,1.44-4.26,2.07-6,0,.13.09,0,0,.36,1.07-2.33,0-1.67,1.25-4.31.82-1.28-.39,1.5,0,.68.75-.15,1.17-3.31,2.21-5l-.13.46c.73-1.32,1.08-3.49,2-5.75,0,0,0,.13.09,0a59.32,59.32,0,0,1,2.12-6.88c0,.77-.26,1,.14.72.35-1-.51.13.21-1.85.39-.58,1.06-1.94,1.4-2l-.73,1.85c.71-.81,1-2.39,1.39-3.33l.1.18c1.09-2.84.73-3,2-6l-.24.26c.32-1.79.77-1.3,1.19-3l.57-.35c.36-1.12,1.22-4,2-5.94-.19,1.22-1,3.56-1.42,5a30.78,30.78,0,0,0,1.54-4.31,7.94,7.94,0,0,1-.51,1.44,25.44,25.44,0,0,1,1.76-5.38c.27.33.91-1,1.63-2.67.36-.81.74-1.69,1.1-2.44.27-.54.52-1,.73-1.48s.51-.94.75-1.31l.09-.24-2.49-.6-1.69-.43c-1-.26-2-.55-3-.86-2-.6-4.11-1.26-6.4-1.85,1.49,1-1.36-.35-1.23.32a9.67,9.67,0,0,1-1.59-.44l-3.18-1.22c-.73-.37,1.06.14,1,0-2.36-.65-.93-.51-2.46-1.07.27.3-.9.09-2.23-.34l1.83.77c-3.39-.54-2.74-1.24-6.16-1.79l1.11.09c-1.74-.33-6.32-1.64-8.13-1.58-.28-.14-.64-.41.12-.26-4.09-1.08-9.27-1.74-12.39-2.82l.35-.07a8.48,8.48,0,0,1-2.32-.44c.06,0,.34-.06,0-.16a19.93,19.93,0,0,1-3.1-.56l.91,0c-4-1.13-6.26-1-9.65-1.73.11-.43-3-1.31-4.58-1.74l.07,0c-4.68-1.13-8-1.42-12.43-2.23a45.74,45.74,0,0,0-6-1.65c-2.49-.55-5.19-1.11-7.33-1.7.64.22-.18.31-1,.19-1-.3-2.88-.29-2.64-.65l.36.08c-.69-.55-2.8-.88-4.44-1.24l-.37.46c-4.13-1.62-11.29-2-13.5-3.1-1.06-.07-2.34-.33-3.39-.4l.11-.27c-2.86-.61-4.29-.91-7.85-1.51l.76-.06c-2-.4-2.68.33-4.53,0l-.48-.52c-3.49-.66-7-1.66-10.5-1.88.07,0,.19-.15.76-.07-1.64-.3-6.33-1.4-5.83-.72,0-.38-3.6-.67-5.52-.84l.34-.22a16,16,0,0,1-4-.1c-.53-.12-.43-.3.26-.11-1.74-.43-1.42,0-3.53-.46l.82,0a7.76,7.76,0,0,0-2.71-.16,10.57,10.57,0,0,1-3.66-.92,5.35,5.35,0,0,1-2.35-.1c-.13-.11.27-.11.47-.1-3-.7-4.56-.4-6.61-1,0-.1-.16-.16-.33-.22,2.41.38,4.36.69,4.17.68,0-.25-1.9-.6-.3-.71a38.43,38.43,0,0,1-6.22-.45,1,1,0,0,1-.23-.12h.2a6.82,6.82,0,0,0-1.21-.14c-.6-.14-1-.23-1.56-.32a15.32,15.32,0,0,0-3.2-.61c0,.29-1.22.05-.06.46-.16,0,.18,0,.83.08l.42,0h-.07l2.42.35a7.5,7.5,0,0,1-2.66-.3c-.53.11-1.1.21-1.43.25-1.27-.59-3.8-1.2-4.13-1.48-3-.26-7-.88-9-.62a2.32,2.32,0,0,1-1.26-.41c.5,0,1.08.1,1.35.06-1.71-.1-5-.65-5.47-.34-2.11-.46,1.25-.17-1.69-.52l.41-.06c-5.69-1.34-9.5-.28-15.8-1.85a2.39,2.39,0,0,1,.74.22c-3.62-.64-7.4-1-11.15-1.37s-7.49-.82-11.08-1.45a11.93,11.93,0,0,0-3.55-.07l-.41-.34-2.18.11c-3.06-.06-5.18-1.31-9.07-1.2l.47.25c-1.37-.17-4.38-.3-4.13-.51a1.62,1.62,0,0,1-1,0l0-.16-3.42-.05c-2.62-.36.47-.58-3.36-1-1.43-.07-4.11.07-3.58.23s1.46.24,1.49.4l-1.31,0c-.28.44-1.32.82,1.85,1.45l2.25-.08.7.3-1.88-.17a6,6,0,0,0,2.51.14,2.14,2.14,0,0,0,.91.33l2.23-.23c.25.2-1,.26.44.5,1-.11-.94-.5.77-.47,1,.31.72.45,2,.39.16.14-.11.19-.61.19a26.7,26.7,0,0,0,3.55,0c1.09.36,3.77.31,3.61.74a16.59,16.59,0,0,1,3,0c-1.92.32,3.83.43,3.27.94,1.44-.32,5,.32,7.5.32a2.16,2.16,0,0,1-.64,0,19.35,19.35,0,0,1,2.64.56c.22-.37,2.37-.21,3.55-.31,1.65.57-1.07.34-.58.76,0-.33,3,0,2.42-.3,1.26.38,1.1.24,1.72.64.29-.46,1.22.06,2.32-.11,1.84.46.43.51,2.5.61C1173.39,628.61,1171.55,628.57,1171.55,628.57Zm48.77,5.82h0l-1-.13Zm4.08.62-1.76-.28c-.13-.12,0-.2.45-.13C1222.85,634.63,1223.81,634.83,1224.4,635Zm-8.34-3.24c.65.06.86.14.94.21l-1.13-.14-.09,0A.51.51,0,0,1,1216.06,631.77Z" transform="translate(-1080.24 -621.52)"/><path class="cls-1" d="M1214.84,632a1.37,1.37,0,0,1-.27,0l.38.12.24,0Z" transform="translate(-1080.24 -621.52)"/><path class="cls-1" d="M1330.62,854.06l0-.09a1,1,0,0,1-.07.17A.28.28,0,0,1,1330.62,854.06Z" transform="translate(-1080.24 -621.52)"/><polygon class="cls-1" points="200.2 23.9 200.21 23.83 199.84 23.82 200.2 23.9"/><path class="cls-1" d="M1325.52,876.25a1,1,0,0,0-.12.29A1.13,1.13,0,0,0,1325.52,876.25Z" transform="translate(-1080.24 -621.52)"/><path class="cls-1" d="M1324.26,886l-.23,1.38C1324.14,886.8,1324.21,886.37,1324.26,886Z" transform="translate(-1080.24 -621.52)"/><path class="cls-1" d="M1323.52,893.57a.28.28,0,0,0,.11.15h0Z" transform="translate(-1080.24 -621.52)"/><path class="cls-1" d="M1350.49,776.55l.07-.28C1350.72,775.6,1350.6,776.05,1350.49,776.55Z" transform="translate(-1080.24 -621.52)"/><path class="cls-1" d="M1340.86,811c.05-.38.11-.75.19-1.14C1340.85,810.47,1340.71,811,1340.86,811Z" transform="translate(-1080.24 -621.52)"/><path class="cls-1" d="M1362.88,738.55h0l.09-.23Z" transform="translate(-1080.24 -621.52)"/><path class="cls-1" d="M1341.51,808.27a8.85,8.85,0,0,0-.46,1.6C1341.21,809.37,1341.4,808.79,1341.51,808.27Z" transform="translate(-1080.24 -621.52)"/><path class="cls-1" d="M1324.92,926.4l0,.36s0,0,0,0Z" transform="translate(-1080.24 -621.52)"/><path class="cls-1" d="M1325,926.79l.1.4A1.41,1.41,0,0,0,1325,926.79Z" transform="translate(-1080.24 -621.52)"/><path class="cls-1" d="M1325.33,928l-.21-.83A2.78,2.78,0,0,0,1325.33,928Z" transform="translate(-1080.24 -621.52)"/><path class="cls-1" d="M1323.74,916.4l-.11-.1A.15.15,0,0,0,1323.74,916.4Z" transform="translate(-1080.24 -621.52)"/><path class="cls-1" d="M1323.51,913.35a25.35,25.35,0,0,0,0,2.86l.09.09C1323.45,915.83,1323.73,914,1323.51,913.35Z" transform="translate(-1080.24 -621.52)"/><path class="cls-1" d="M1324.48,900.63l-.13,2.54c.12-.44.27-1,.28.13C1325,900.11,1324.37,904,1324.48,900.63Z" transform="translate(-1080.24 -621.52)"/><path class="cls-1" d="M1325,892.78c0,1.36.16,0,.21.07C1325.12,892,1325.11,891.77,1325,892.78Z" transform="translate(-1080.24 -621.52)"/><path class="cls-1" d="M1335,836.8l.22.2C1335.44,836,1335.12,837,1335,836.8Z" transform="translate(-1080.24 -621.52)"/><polygon class="cls-1" points="256.25 204.39 255.84 205.34 255.94 205.88 256.25 204.39"/><polygon class="cls-1" points="259.7 198.65 259.61 199.1 259.99 197.38 259.7 198.65"/><path class="cls-1" d="M1369,728.94l-.4.2C1368.37,729.82,1368.65,730.08,1369,728.94Z" transform="translate(-1080.24 -621.52)"/><path class="cls-1" d="M1383.59,690.27a5.65,5.65,0,0,0,1-2.12C1384.2,689,1383.73,689.81,1383.59,690.27Z" transform="translate(-1080.24 -621.52)"/><polygon class="cls-1" points="211.46 23.56 212.3 23.62 210.74 23.4 211.46 23.56"/><path class="cls-1" d="M1311.44,937.94c.14-.05.12-.26-.21-.3l-.31.26Z" transform="translate(-1080.24 -621.52)"/><path class="cls-1" d="M1309.44,936.79c-.41.05-.92.21-.75.57.45-.21.51-.06,1-.32.34.05.54.25.45.35.14,0,.48.2.71.05a1.78,1.78,0,0,0-1.49-.45C1309.26,936.89,1309.4,936.84,1309.44,936.79Z" transform="translate(-1080.24 -621.52)"/><path class="cls-1" d="M1278.2,928.38l.19.08A.68.68,0,0,0,1278.2,928.38Z" transform="translate(-1080.24 -621.52)"/><path class="cls-1" d="M1258.72,923.63c.15,0,.22,0,.23,0C1258.81,923.6,1258.69,923.6,1258.72,923.63Z" transform="translate(-1080.24 -621.52)"/><path class="cls-1" d="M1255.46,922.52l.19.07A.28.28,0,0,0,1255.46,922.52Z" transform="translate(-1080.24 -621.52)"/><path class="cls-1" d="M1278.2,928.38l-.5-.23C1277.64,928.25,1278,928.29,1278.2,928.38Z" transform="translate(-1080.24 -621.52)"/><path class="cls-1" d="M1304.93,936.43a.74.74,0,0,0,.3,0l-.27,0Z" transform="translate(-1080.24 -621.52)"/><path class="cls-1" d="M1286.85,930.2l.16,0a.83.83,0,0,0,.16-.09Z" transform="translate(-1080.24 -621.52)"/><path class="cls-1" d="M1293.45,931.8c-.15,0-.27.21-.36.32a.51.51,0,0,1,.37-.11A.31.31,0,0,0,1293.45,931.8Z" transform="translate(-1080.24 -621.52)"/><path class="cls-1" d="M1303.74,935h0Z" transform="translate(-1080.24 -621.52)"/><path class="cls-1" d="M1282.15,929a.21.21,0,0,0,0-.12A.19.19,0,0,0,1282.15,929Z" transform="translate(-1080.24 -621.52)"/><path class="cls-1" d="M1095.16,898.21s0,0,0-.05S1095.11,898.21,1095.16,898.21Z" transform="translate(-1080.24 -621.52)"/><path class="cls-1" d="M1087.5,896h.11a.83.83,0,0,0,0-.15Z" transform="translate(-1080.24 -621.52)"/><path class="cls-1" d="M1249.41,920.83h0C1249.61,920.84,1249.51,920.83,1249.41,920.83Z" transform="translate(-1080.24 -621.52)"/><path class="cls-1" d="M1192.94,909.8c.6.37-1.1.13-.19.58C1192.68,910.26,1193.71,910.11,1192.94,909.8Z" transform="translate(-1080.24 -621.52)"/><path class="cls-1" d="M1304.77,936.35l-.27-.06A.89.89,0,0,0,1304.77,936.35Z" transform="translate(-1080.24 -621.52)"/><path class="cls-1" d="M1192.75,910.38h0l.1,0Z" transform="translate(-1080.24 -621.52)"/><path class="cls-1" d="M1235.26,918a.36.36,0,0,0,.11.15S1235.35,918.05,1235.26,918Z" transform="translate(-1080.24 -621.52)"/><path class="cls-1" d="M1245.69,920.59l-.25-.09A1.29,1.29,0,0,0,1245.69,920.59Z" transform="translate(-1080.24 -621.52)"/><path class="cls-1" d="M1229.71,917.21a.81.81,0,0,0-.38-.1l.05,0A.44.44,0,0,1,1229.71,917.21Z" transform="translate(-1080.24 -621.52)"/><path class="cls-1" d="M1224,916.06a.73.73,0,0,0,.09.08l.19,0Z" transform="translate(-1080.24 -621.52)"/><path class="cls-1" d="M1112.7,900.11a1,1,0,0,1-.24-.28C1112.53,900,1111.67,900,1112.7,900.11Z" transform="translate(-1080.24 -621.52)"/><path class="cls-1" d="M1305,936.28a.19.19,0,0,1-.19.07l.19,0S1305,936.32,1305,936.28Z" transform="translate(-1080.24 -621.52)"/><path class="cls-1" d="M1229,919.33l-.89-.23A7.13,7.13,0,0,0,1229,919.33Z" transform="translate(-1080.24 -621.52)"/><path class="cls-1" d="M1154,905.71h-.22A.33.33,0,0,0,1154,905.71Z" transform="translate(-1080.24 -621.52)"/><path class="cls-1" d="M1225.44,918.61a1.53,1.53,0,0,0-.47-.29.31.31,0,0,0-.12,0Z" transform="translate(-1080.24 -621.52)"/><path class="cls-1" d="M1112.46,899.82h0Z" transform="translate(-1080.24 -621.52)"/><path class="cls-1" d="M1106.35,899.77c.87.11.45-.31.66-.5,1.06,0,.45.33.79.56a14.71,14.71,0,0,1,1.68-.23c0,.07.12.1,0,.16.72-.21,2,.23,2.89,0a.26.26,0,0,1,.09.1.69.69,0,0,1-.06-.51c.39,0,.76-.15.87.11-.24,0-.27.06-.39.12l.42-.06c.33.39-.57.06-.6.31a10,10,0,0,1,2.38,0c.09.35-1.45-.06-.67.34l-.93-.24c.66.62-.57-.11,0,.54,1.23.25,1.41,0,2.64.25.31-.15-.06-.29.25-.44,1.81-.11,1.28,1,2.64.74.36-.18.55-.59,1.44-.24l-.36.34c1.2.19.76-.46,2,0-.25.12-1,0-.79.07.78.41.61-.14,1.24-.06l.08.36c1.29.11,2.74.05,4.17.17-.09.09-.35.16,0,.31a26.59,26.59,0,0,1,5.52,1l.7-.2c.15,0,.27.18.09.21.66.2.06-.18.4-.25s.49.24.23.29a13,13,0,0,1,4.67.43l-.26,0c1,.25,1.19-.44,2,0l-.18,0c2.1.42,4.48.48,6,1.16.36-.37,2.06.5,2.28-.06a11.5,11.5,0,0,0,2.47,1c.45.09.74-.26,1.31-.24l0,.31.81-.21.35.42h.54c-.21,0-.42-.2-.38-.28a3.14,3.14,0,0,1,2,.67l2,0c-.06.12-.39.11-.66.15,1.09-.16.14.35,1.13.21-.11-.09.1-.18.13-.23a7,7,0,0,0,2.33.48l-.18.18c1.43.29,3,.38,4.67.65-.57-.19-.38-.54.1-.5l.14.36c.34-.15-.48-.2.19-.35.6.14.35.43,0,.48h.75c0,.1-.15.12-.22.24.33-.15,1.22.52,1.71.25l0,.1c1.62.26,2.37.26,3.69.46.07-.28.57-.13,1-.3a24.87,24.87,0,0,0,3.16.83c.84,0,.27-.2.67-.3,0,.26,1.18.44.55.52a31.4,31.4,0,0,0,3.59.34c-.17-.13-.38-.22-.25-.28.33,0,.71.23.64.34h-.09c2,0,4.45,1.51,6.12,1.25h-.09l1.68,0c.75.18-.48.11.05.37,1.83-.11,2.77.56,4.27.54,1,.94,4,.66,5.43,1.41l-.06-.2c.43-.1.46.19.74.28,0-.14-.4-.23-.13-.28,3.36.38,6.79,1.54,10.16,2.33,1.24.28.88-.77,2.37-.06l-.51.24c2.58.08,5.12,1,7.64,1.16-.16,0-.19.14-.42.09.47.34,1.91.39,1.95.2.38.1.06.19.27.34.5.24,1.37,0,1.6.25,0,0-.16,0-.26,0,.36,0,1.57.35,1.3,0,.89.31,1.78.23,2.48.54.54-.21,1.55.46,1.79.06-.16.43,1.54.67,2.16.59-.22.1.48.25.21.38.67.14,1.29.18,1.22-.07,1.11.79,2.54.09,3.09.91,2,.17,3.87.39,5.66.66-.15.43-2-.36-2,.11a23.06,23.06,0,0,1,4.41.45c.41.15-.29.14-.45.19,1.72.17,3.23.74,4.77.83,0,0-.18.05-.34.05.3,0,.67.21.68,0h-.3c-.41-.39,1.3-.35,1.38-.49-.62.47,1.44.47.49,1,.21,0,.47,0,.45-.18.28.1.36.2,0,.29,1.08.12.75-.17,1.7,0,0,.1-.22.09-.35.18a3.5,3.5,0,0,1,1.84.1c-.06,0,0,.14-.22.09,1.39.27,2.47,0,3.94.53-.54.32.49.25.49.63l.84.07-.29-.25a12.59,12.59,0,0,1,2,.31l-.57,0,1.36.24-.73-.31c.77,0,0-.48,1-.16-.21,0,.71.17,1,.47h0a2.37,2.37,0,0,1,1.28.13c.11.15-.21.38-.13.48.41-.22,1.69.3,2.2.08-.16,0-.22.23-.18.28l.35-.18c.32.15.35.2.27.34,1,.28-.21-.53.92-.06-.1,0-.06,0-.26,0,1.16.37,2.32.37,3.38.74.24.44-1-.13-.67.26a44,44,0,0,1,4.84.77l-.27-.11c.33-.47,1.07.52,1.89.47-.19,0-.31.22-.25.18a22.89,22.89,0,0,0,3.77.59l-.23.09c.58.27,1.6.45,2.24.67.23-.08.6,0,.42-.22,1.85,1.25,4,.52,5.63,1.61-.21,0-.54,0-.37,0l1.57.26c-.07-.25-.17-.18-.45-.44a2.16,2.16,0,0,1,1.07,0c-.73,0-.08.36.18.56,0-.08.09-.13.08-.21.71.6.25-.42,1.28.13l-.09.1a5.6,5.6,0,0,1,1.28.12c.12.31-.47,0-.55.22.62.14,1.35-.18,1.85.22-.29,0-.67-.09-1-.08a2.41,2.41,0,0,0,1.07.56l0,0,1,.4-.25-.15c.95-.48,1.61.27,2.77.09-1.12.17-.23.2-.38.48.25.14.63.34.49.39.56-.11.78.39,1.57.22,0,.1.52.14.35.35.66.09-.11-.2,0-.3,1.07-.08,2.22,1,3.76.91,1.27.14,1.58-.12,2.76,0,.35.25-.4.26-.4.26a3.85,3.85,0,0,0,1.67.44c-.14,0,0,.16.11.31.48.1.4-.26,1,0a1.8,1.8,0,0,1-.57.25c.57.06,1.17,0,1.76.09.11.21-.41.16-.64.22.66.09,1.7.28,2,.07l-.39-.2c.24,0,.06.26-.12.26-.6.06-.77-.3-.78-.4l.43,0c-.28-.66-1.66-.33-2.48-.58l.45-.31-.93.11c-.15-.15-.21-.41.21-.36-.54-.35-.56,0-1-.35,0,0,0-.06,0-.06l-.6,0c.13-.06,0-.31.31-.16-1-.5-1.74-.13-2-.54h.09c-1.46-.24-.21.26-1.37.33l-.54-.92-.21.26c-.15,0-.44-.15-.35-.25-.6.06.06.15-.31.26-.64-.46-2-.38-2-.89-.32.16.63.35-.17.31-.08-.56-.9-.13-1.49-.53.27-.21.85.09.26-.31-.51.34-1.25-.42-1.82-.47-.11.35-1.23-.15-2.18-.26a19.22,19.22,0,0,0-2.51-1l0-.06c-.25.32-1.12,0-1.78-.06.08-.2.21-.26.59-.27l-.61-.15a1.4,1.4,0,0,1-.78,0l.22-.23a12.48,12.48,0,0,1-2.69-.53c-.12.24.65.89-.48.8,0-.15,0-.39.3-.37a1.1,1.1,0,0,1-.53-.08l.49-.12c-.45-.21-.29.13-.67,0,.06-.19-.24-.2-.15-.34s.31.16.47.12a2.74,2.74,0,0,1-1-.56c0,.11-.06.25-.38.2-.81-.18-.22-.29-.67-.5-.23.08-.71-.18-.79.1-.24,0-.25-.2-.32-.3-.45,0-2-.43-1.56,0l.1,0h-.07c-1.44,0-2.81-.85-4.2-1l0-.09a15.19,15.19,0,0,0-2.45-.3c-.24-.06-.52-.32-.4-.41a3.76,3.76,0,0,1-1.59-.35c.67,0-.18-.2.67,0a3.38,3.38,0,0,0-1.86-.41c.35-.18-.54-.45-.94-.46l.53.3a7.7,7.7,0,0,1-1.19-.28l.28-.27c-1.56-.78-3.14,0-4.24-1-.49.13.86.37.41.55a11,11,0,0,1-1.68-.93c-1-.41-1.08.25-2.14-.12.11.15.18.49-.66.41s-.83-.7-.33-.68c.19,0,.27.09.25.12.26,0,.59,0,.32-.15l-.13.09c-.35-.2-1.4-.43-1.11-.56-.6,0-.29.13.12.29-.93-.39-1.52-.36-2.5-.69.15.09.26.26.1.23-1.44-.47-.7.07-1.71-.1-.53-.3.3-.37-.74-.44-.59-.26-.06-.34.2-.38a5.71,5.71,0,0,1-2.19-.68h.5a4.31,4.31,0,0,1-.78-.11l.23.29c-.28-.1-.52-.16-.49-.25-.33.09.14.43-.49.51-.35-.2-1.18-.12-1.24-.46,1.16.37-.07-.34,1-.17a2.15,2.15,0,0,1-.71-.16s0,0,.13,0c-1.08-.53-.6.23-1.78,0,.19-.14-.2-.39-.4-.39.48.11.17.34-.3.37-.73-.3-.84-.08-1.24-.18l.44.16c-.19.14-.56,0-1.1,0,0-.15.5,0,.32-.09-.65.18-1.25-.61-2.11-.58-.36-.2,0-.34-.28-.49-1,0-1-.45-2-.46.23.29.29.24-.44.33l1.62.16-1.09.13c.48.1,1,.07,1.32.16-.52.09-.46.05-.28.29-.57-.49-1.34-.07-2-.46l.14-.58c-1.08-.49-2.08-.12-3.53-.58l.46.2c-.25.19-.92-.16-1.42-.16.09-.19-.2-.32-.38-.48,0,.14-1.07-.24-1.29.11l-.61-.39c-1.17-.35-1.47.27-2.6,0,.39-.14-.11-.38.69-.37-.38-.08-.72-.19-.75-.06-.2-.17-1.12,0-1.43-.22-.18.05-.27.25-.7.14,0,0,0-.1,0-.1s-.7,0-.36.29c-1.06-.84-3.31-.62-4.24-1.34-.85-.1-1.87-.24-2.63-.38.06,0,0-.09.16,0-1-.39-.75.42-1.91,0-.54-.43.67,0,.31-.23,0-.67-1.45-.2-2.18-.73h.2c-.57-.34-1.54-.06-2.54-.3,0,0,.06-.05,0-.1a11.63,11.63,0,0,1-3,0c.35-.2.46,0,.33-.34-.44-.05,0,.43-.83.34-.26-.19-.86-.43-.89-.72l.82.14c-.35-.43-1.06-.18-1.48-.33l.09-.14c-1.26-.19-1.35.2-2.69-.08l.12.14c-.81.24-.58-.33-1.36-.19l-.15-.43c-.5,0-1.77.06-2.65,0a11.39,11.39,0,0,1,2.25-.21,5.47,5.47,0,0,0-1.92-.13,1.52,1.52,0,0,1,.64,0,4.94,4.94,0,0,1-2.4,0c.31-.72-2.46-.66-3-1.36-1.74,0-3.34-.72-5.32-1,.59.71-.58-.09-.57.54-.47,0-.64-.09-.67-.14l-1.33-.6c-.3-.24.46-.06.44-.2-1-.23-.38-.33-1-.61.1.24-.4.24-1,.06l.76.42c-1.47.07-1.13-.72-2.6-.66l.48-.11c-.75,0-2.69-.48-3.49-.11-.12-.09-.26-.29.07-.28-1.73-.36-4-.14-5.27-.66l.16-.13c-.34,0-.62.18-1,0,0-.05.16-.12,0-.15a3.42,3.42,0,0,1-1.33,0l.4-.1c-1.67-.49-2.68,0-4.12-.18.08-.43-1.24-.81-1.89-1l0-.06a40.22,40.22,0,0,0-5.29-.3c-1.07-.65-3.83-.81-5.62-1.36.27.12-.1.33-.43.32s-1.24.11-1.11-.28l.15,0c-.26-.44-1.16-.49-1.85-.6l-.19.51c-1.69-1-4.78-.43-5.66-1.26-.46.07-1,0-1.45,0l.07-.28a27.21,27.21,0,0,0-3.3-.53l.33-.15c-.84-.15-1.18.65-2,.55l-.17-.46c-1.47-.22-2.91-.78-4.42-.61a.29.29,0,0,1,.33-.15c-.69-.11-2.64-.66-2.47,0,0-.38-1.51-.25-2.33-.19l.17-.26a3.13,3.13,0,0,1-1.71.32c-.22-.07-.16-.25.12-.14-.72-.25-.61.18-1.49-.09l.36-.13a1.47,1.47,0,0,0-1.16.13c-.49,0-1.43-.28-1.51-.54a1.11,1.11,0,0,1-1,.15c0-.1.12-.14.21-.16-1.25-.36-1.94.08-2.78-.31a.23.23,0,0,0-.13-.19c1,.14,1.83.26,1.75.27,0-.25-.78-.4-.08-.67a7,7,0,0,1-2.64.16.36.36,0,0,1-.1-.11h.09a1.28,1.28,0,0,0-.51,0,5.59,5.59,0,0,0-.65-.16c-.07-.22-.92-.23-1.33-.3,0,.29-.53.17-.06.47-.06,0,.08,0,.35,0h.18l0,0,1,.11a1.44,1.44,0,0,1-1.13,0c-.23.15-.48.3-.62.37-.51-.46-1.56-.81-1.68-1.07-1.26,0-2.95-.27-3.79.15-.37,0-.39-.2-.51-.3a2.86,2.86,0,0,0,.57-.05c-.73,0-2.1-.22-2.32.13-.87-.28.54-.28-.69-.37l.18-.09c-2.34-.88-4,.46-6.62-.61.18.07.27.1.3.17-3-.69-6.32-.46-9.28-1.31a2.21,2.21,0,0,0-1.5.14l-.15-.32-.94.25c-1.29.12-2.11-1-3.77-.67l.19.22c-.58-.1-1.84-.08-1.72-.3a.37.37,0,0,1-.43.06v-.16l-1.44.11c-1.09-.23.24-.6-1.36-.81-.6,0-1.75.28-1.53.4s.6.17.6.33l-.55,0c-.15.45-.62.88.69,1.35l1-.18.27.26-.78-.07a1.11,1.11,0,0,0,1,0,.64.64,0,0,0,.36.29l1-.35c.09.2-.45.32.16.49.45-.16-.37-.45.35-.51.43.26.28.41.82.29.06.13-.06.19-.27.22.48-.09,1.24.08,1.5-.14.44.31,1.58.1,1.49.53a3.56,3.56,0,0,1,1.28-.22c-.84.44,1.6.2,1.33.74.63-.4,2.11,0,3.16-.13-.06,0-.18.1-.27.06a4.33,4.33,0,0,1,1.08.4c.12-.38,1-.36,1.54-.55.66.46-.48.41-.3.8,0-.32,1.26-.17,1-.46.51.29.45.17.69.52.15-.47.51,0,1-.27.75.34.15.48,1,.44C1107.13,899.68,1106.35,899.77,1106.35,899.77Zm20.47,1.7h0l-.42,0Zm1.72.21-.74-.1c0-.11,0-.2.2-.17C1127.9,901.46,1128.29,901.57,1128.54,901.68Zm-3.37-2.4c.28,0,.36.07.39.13l-.48,0,0,0A.4.4,0,0,1,1125.17,899.28Z" transform="translate(-1080.24 -621.52)"/><path class="cls-1" d="M1124.63,899.59h-.11l.15.09.11-.08Z" transform="translate(-1080.24 -621.52)"/><path class="cls-1" d="M1278.43,928.48l0,0,.07.06Z" transform="translate(-1080.24 -621.52)"/><polygon class="cls-1" points="71.8 284.05 71.81 283.97 71.65 284.01 71.8 284.05"/><path class="cls-1" d="M1287.43,931.67a.27.27,0,0,0,.11.1S1287.49,931.71,1287.43,931.67Z" transform="translate(-1080.24 -621.52)"/><path class="cls-1" d="M1291.4,932.73l.54.23A5.66,5.66,0,0,0,1291.4,932.73Z" transform="translate(-1080.24 -621.52)"/><path class="cls-1" d="M1294.43,933.63a.38.38,0,0,0,.09-.1h0Z" transform="translate(-1080.24 -621.52)"/><path class="cls-1" d="M1245.51,922.48l-.12,0C1245.1,922.45,1245.29,922.48,1245.51,922.48Z" transform="translate(-1080.24 -621.52)"/><path class="cls-1" d="M1260.23,925.08l-.5,0C1260,925.18,1260.19,925.23,1260.23,925.08Z" transform="translate(-1080.24 -621.52)"/><polygon class="cls-1" points="148.89 297.84 148.89 297.83 148.79 297.81 148.89 297.84"/><path class="cls-1" d="M1259.06,924.94a1.76,1.76,0,0,0,.67.16A2.62,2.62,0,0,0,1259.06,924.94Z" transform="translate(-1080.24 -621.52)"/><path class="cls-1" d="M1307.64,937.17l.15.05s0,0,0,0Z" transform="translate(-1080.24 -621.52)"/><path class="cls-1" d="M1307.82,937.18h.17C1307.91,937.17,1307.85,937.16,1307.82,937.18Z" transform="translate(-1080.24 -621.52)"/><path class="cls-1" d="M1308.35,937.21l-.36,0C1308.11,937.22,1308.25,937.27,1308.35,937.21Z" transform="translate(-1080.24 -621.52)"/><path class="cls-1" d="M1303.63,936l-.07.09A.13.13,0,0,0,1303.63,936Z" transform="translate(-1080.24 -621.52)"/><path class="cls-1" d="M1302.4,935.7a4.74,4.74,0,0,0,1.1.45l.06-.07C1303.33,936.17,1302.72,935.6,1302.4,935.7Z" transform="translate(-1080.24 -621.52)"/><path class="cls-1" d="M1297.58,933.14l1,.35c-.15-.15-.35-.36.12-.26C1297.49,932.58,1298.92,933.53,1297.58,933.14Z" transform="translate(-1080.24 -621.52)"/><path class="cls-1" d="M1294.41,932.19c.57.09,0-.15.08-.21C1294.11,932,1294,932,1294.41,932.19Z" transform="translate(-1080.24 -621.52)"/><path class="cls-1" d="M1271.23,926.52l.12-.23C1270.91,926.22,1271.32,926.38,1271.23,926.52Z" transform="translate(-1080.24 -621.52)"/><polygon class="cls-1" points="186.25 305.26 186.63 305.51 186.88 305.33 186.25 305.26"/><polygon class="cls-1" points="184.03 302.88 184.23 302.89 183.49 302.81 184.03 302.88"/><path class="cls-1" d="M1225.07,916l.07.34C1225.44,916.36,1225.58,916,1225.07,916Z" transform="translate(-1080.24 -621.52)"/><path class="cls-1" d="M1208,913a1,1,0,0,0-.94-.28A8.33,8.33,0,0,0,1208,913Z" transform="translate(-1080.24 -621.52)"/><polygon class="cls-1" points="76.72 282.22 77.08 282.17 76.42 282.16 76.72 282.22"/></svg>