<svg id="Layer_1" data-name="Layer 1" xmlns="http://www.w3.org/2000/svg" viewBox="0 0 206.75 225.36"><defs><style>.cls-1{fill:#202020;}</style></defs><title>3</title><path class="cls-1" d="M913.57,542.82a30.12,30.12,0,0,0-2,3.35l2.8-4.5Z" transform="translate(-856.42 -527.09)"/><path class="cls-1" d="M909,551.49c1.41-2.15,3.84-6,6.31-10.14-2.72,4.3-1.64,2.47-4.86,7.6-.39.49.76-1.52,1.78-3.18-.73,1.14.49-1.07-1.27,1.75-2,3.57-2,3.78-.13,1C910.2,549.49,909.46,550.65,909,551.49Z" transform="translate(-856.42 -527.09)"/><path class="cls-1" d="M917,549.25l-.1.1Z" transform="translate(-856.42 -527.09)"/><path class="cls-1" d="M918,548.57h0Z" transform="translate(-856.42 -527.09)"/><path class="cls-1" d="M917.8,548.59h0Z" transform="translate(-856.42 -527.09)"/><path class="cls-1" d="M917,549.25l0,0Z" transform="translate(-856.42 -527.09)"/><path class="cls-1" d="M916.51,541.13c-.16.2-.44.62-.79,1.16l.35-.45Z" transform="translate(-856.42 -527.09)"/><path class="cls-1" d="M907.37,565.21l0,0L906.19,567Z" transform="translate(-856.42 -527.09)"/><path class="cls-1" d="M905.53,565c-.07.19,2.27-3.65,3.3-5.32-1,1.57-1.46,2.31-1.67,2.59Z" transform="translate(-856.42 -527.09)"/><path class="cls-1" d="M907.37,556.91l-.36.5Z" transform="translate(-856.42 -527.09)"/><path class="cls-1" d="M916.76,549.54h0Z" transform="translate(-856.42 -527.09)"/><path class="cls-1" d="M886,551.34l.8-.07A6.84,6.84,0,0,0,886,551.34Z" transform="translate(-856.42 -527.09)"/><path class="cls-1" d="M908,547.41h.24l2.51-.22Z" transform="translate(-856.42 -527.09)"/><path class="cls-1" d="M917.2,548.57Z" transform="translate(-856.42 -527.09)"/><path class="cls-1" d="M907.89,550.47s0-.05,0,0Z" transform="translate(-856.42 -527.09)"/><path class="cls-1" d="M916.24,541.66s.08-.06.08,0C916.37,541.51,916.34,541.51,916.24,541.66Z" transform="translate(-856.42 -527.09)"/><path class="cls-1" d="M907.89,550.47Z" transform="translate(-856.42 -527.09)"/><path class="cls-1" d="M908.1,547.75h0Z" transform="translate(-856.42 -527.09)"/><path class="cls-1" d="M916.81,548.49h0Z" transform="translate(-856.42 -527.09)"/><path class="cls-1" d="M907.53,548l-.06,0h0Z" transform="translate(-856.42 -527.09)"/><polygon class="cls-1" points="50.05 21.04 50.07 21.04 50.1 21.04 50.05 21.04"/><path class="cls-1" d="M888.5,555.45l4-.43C889.33,555.33,888.18,555.23,888.5,555.45Z" transform="translate(-856.42 -527.09)"/><path class="cls-1" d="M915.2,543.29c.59-1,.89-1.44,1-1.63a1.59,1.59,0,0,0-.17.18C915.72,542.41,915.42,542.93,915.2,543.29Z" transform="translate(-856.42 -527.09)"/><path class="cls-1" d="M933.72,540.79c-.09.5-.19,1-.31,1.47A1.66,1.66,0,0,0,933.72,540.79Z" transform="translate(-856.42 -527.09)"/><path class="cls-1" d="M922.2,537.48l.54-.14C922.79,537.22,922.65,537.24,922.2,537.48Z" transform="translate(-856.42 -527.09)"/><path class="cls-1" d="M934.6,545.77a20.87,20.87,0,0,0-3,.87c.35,0,.64.06,1.16.06A20.49,20.49,0,0,0,934.6,545.77Z" transform="translate(-856.42 -527.09)"/><path class="cls-1" d="M892.56,555h0Z" transform="translate(-856.42 -527.09)"/><path class="cls-1" d="M881.79,554.5c-.11.22,5.77-.42,9.15-.68,1.7.1-4.32.51-7.32.87,1.57,0,7-.35,6.77-.21-1,.1-1.32.15-2.54.24,4.7-.26.28.48,6.17.14l-1.46.16,8.08-.76c.11.09,3.73-.16-.11.22.11-.06-1.45.07-2.65.15l1.68,0c-5.52.59-1.93,0-6,.41,1.82,0,6.42-.15,4.87.14-5.41.52-1.86-.19-6.65.45l2-.42c-8.52,1,.58-.2-8.54.79-1.54.45,2.79.1,1.24.55,3-.21,4.44-.43,7.46-.63,5.44-.06-13.58,1.57-6.34,1.24,3-.21,8.39-.66,7.84-.46l-32.29,11.7,55.31-7.64a3.56,3.56,0,0,1,1,.19c1.84.91,3.66,1.84,5.48,2.79,1-.77-7.86-4-3.7-3.3,2.19,1,1.61,1.45,2.34,1.59,4.76,1.19-3-1.76-2.89-2.14l5.13,1.8a7.38,7.38,0,0,0-2.17-2.46,18,18,0,0,1-2.46-2.21,27,27,0,0,0,4.86,1.09c-1.15-1-.88-1.65.13-2.29a41,41,0,0,1,4.38-1.94c-1.55-.29-3.11-.54-4.67-.76a10.89,10.89,0,0,1,3,0c1.79-.52-3-.11-4.81-.4-.33-.27,2.7-.35,4.11-.13a37.47,37.47,0,0,1-5.19-1.63c-1-.52-1-1,1.46-1.76h1.41c.9-.48-1.52-.4-3.62-.26s-3.88.29-1.77-.35l.84,0c.88-.84.18-1.46.07-2.12s.39-1.44,3.51-3.21c-3.23,1-2.64.44-2.38-.06s.19-.87-4.15,1c2-1.27,3.37-2.09,4.55-2.87a11.64,11.64,0,0,0,3.2-2.94c.18-.58-5.47,2.27-6.5,2.45l4.27-2.47q-2.4,1-4.75,2.13,2.44-1.65,4.86-3.36l-1.32.3a13.1,13.1,0,0,1-2.88,2.22c-1.11.35-.56-.39.46-1.47a33.54,33.54,0,0,1,3.55-3.24,37.84,37.84,0,0,0-4.33,1.22,15.43,15.43,0,0,1,3.4-2.05c-4.5,2.44,3.92-3.43-.23-1.19-.77.81-2.28,1.85-3,2.49,1.91-2.12,1.36-3,.11-2.72l-63.36,13.16,30.1,2.43h.18l-2.78.23,37.73-17.68.44-.4v0l-.75-2.79-38,21c-.79.43,1.7.59,1.68,1,1.56-.3,7.43-.82,8-.76l-5.19.54c3.22-.23,2-.31,5.89-.52-.58.2-5.89.66-7.59.73h1.82c-1.55.16-2.37.19-4.35.37,3.24-.23-5.17.81.43.39l-1.54.15c0,.41,1.8.42,2.09.72,4.48-.42,3.5-.2,7.13-.45-1.41.38-4.91,1-4.5,1.23,2.25,0,3.8-.3,6.47-.46-4.08.4-3.67.65-6.61.78.69.28.86.37,4.21.49,1.66-.21,2.39-.33,3.78-.43.68,0-1.69.34-3.65.51l-.43,0c6.17-.09-11.78,2.27-3.24,1.85l-.42,0,4.46,0-.14,0,9,12.38c.17.53-.3,1.18-.87,2l-10.28-14.17c-.93.06-2,.13-3.2.3L898.41,572a.07.07,0,0,0,0,.05c1.39-1.27,2.22-1.81,2.86-1.92a1.78,1.78,0,0,1,1.51.62,3.17,3.17,0,0,0,1.39.92c.57.07,1.24-.21,2-1.29.4,6.09,2.95,6,4.92,5a12.71,12.71,0,0,1,3-1.41c1-.18,1.91.17,3.31,1.71l-1.14-2.62c-.35-2.85,1.36,1.22,2.17,1.59-1-2-1.7-2.06-1.9-3.65a7,7,0,0,1,1.51-1.59,5.7,5.7,0,0,1,1.59-.88,11,11,0,0,1,1.9-.47l1.06-.14,1-.06c1.42-.07,3.1-.19,4.63-.41a12.6,12.6,0,0,0,4.2-1.15c.82-.52-2.2-2.69-4.55-4.43s-4.15-3-.83-2c1.47,1,2.93,2,4.36,3-2-2.86-1.47-3.87-.81-5s1.33-2.43-1-4.2c1.15.42,2.69.8,2.61,1,1.93.2,2.12-.33,1.4-1a9.07,9.07,0,0,0-3.87-1.56c.41-.31,2.8.39,4.42.39,1.16-.12,0-.7-1-1.14s-1.78-.79.14-.76a3.55,3.55,0,0,1,1.5.42c-1.78-.52.61-1.87-3.83-1.72,1.07-.45.59-1,.16-1.42s-.8-.84.49-1.32c-2.49-.12-1.94-.58-1.65-1s.32-.84-3.15-.4c7.19-.89,5.45-3,1.91-2.81,2.19-.3,2-1.24,5-1.76-.38-1-1.95-1.38-5.4,0,3.83-2.19,1.82-2.52.19-2.57s-2.86,0,1.67-3.2a46.73,46.73,0,0,0-5.08-.49c-1.51-.06-2.81,0-3.94,0l-23.66.58.91,2.22c.23.57.43,1.08.64,1.58-3.85-2.15-2.9-2.4-3.08-3.09l-2.21-8.59,29.4,5.25c.55.1,1.4-.18,3.51-2.24a6.37,6.37,0,0,0-1.55.22l-31.55,3.88a39.31,39.31,0,0,0,3.34,3.91c.95,1.07,1.43,1.77.52,2-1-.07-2.8-1.43-3.86-2.08,1,1.33.64,1.91.35,2.58s-.39,1.35,1.36,2.43a8.43,8.43,0,0,1-1.82-.75c.16.3-1.19.33,2,1.07l-.8-.44a48,48,0,0,1,6.8,2,47.73,47.73,0,0,0,5.18,1.53c-9.16-2.18-2.46.33-14.06-2.29a17.76,17.76,0,0,0,4.24,1.06,12.58,12.58,0,0,1-4.36-.66c1.63,1.17,5.12,1.31,5,2-1.58-.17-2.18-.37-4-.67,3,.77,6.1,1.29,4.73,1.7-1-.09-2.2-.1-2.17-.27.21.52,2.24,1,3.88,1.35s2.84.58,1.36,1.06c-6.9.14-2.25.43-8.2,1,.61.17,1.22.31,1.84.45l2.86-.52c0,.51,4.31.28,2.42.88-.83,0-1.65,0-2.48.05.41.23.82.44,1.25.63.71-.28,1.43-.55,2.16-.8,3.09-.15,7.44-1.26,5.87-.63-.61.06,0,.22-3.43,1.15h0c1.89-.24,3.86-.62,2.47-.06-1.83.55-6.4,1.63-7.62,2,2.44-.53,2.83-.41,3.27-.3s.92.2,3.47-.55c-1.21.34-4.19,1.3-4.79,1.53l3.9-1.14a31,31,0,0,1-4.13,1.6c-.52.77,7.08-2.7,4.2-1.06-.33.08-.89.32-1.5.44-.68.58,0,.64.7.65s1.27,0,.5.66c-5.3,2.84-1.56.16-6,2.55.73.26,2.6-.07,4.12-.41s2.72-.64,2.35.08l.47-.49c3.56-2.31,2.73-1.66,1.51-.6s-2.84,2.55-1.11,1.5c-.56.31-3.85,2.72-3.07,2.18-.65,1.38,2.54-.14,5-1.48l-1.64,1.45c-1.14,1.62-.09,1.48-.44,2.5a24.19,24.19,0,0,0,3.42-3.64c-1.82,2.52-2.25,3.63-2.07,3.92s1-.24,1.73-.88,1.54-1.39,1.81-1.38.07.75-.89,3.17a5.19,5.19,0,0,0-1.12,1.58l.45-.29,11.14-19.65-1,1.17c-1.89,3.18-1.12,1.94-2.54,4.44a21.38,21.38,0,0,1-2.24,3.2c1.42-2,3.08-5.08,4.09-6.88l-1.84,3c3.23-5.73-3.89,6.35-1.83,2.41l1-1.65c-.6.8-2,2.94-1.82,2.41,2.18-3.68,1.13-1.65,3-4.66-.26.13-4.47,6.77-2.38,3,.68-1,.77-.95,1.44-1.93,2.47-4.37,1.79-3.29,2.11-4l-.05.1,1-2.08-.65,1.2c-6,9.43-1.4,1.54-5.41,7.64,3.8-5.77,2.11-3.39,4.64-7.53.64-1.18,1.33-2.53,2.07-3.68-2.14,3.28,1.41-2.74-1.7,2.06.8-1.34,0-.2,2-3.54-.78,1-1.38,2.34-2.4,4-3,4.43,2.85-5.83-1.25.23-1.83,2.42-4.61,6.89-6.22,9,1.22-2.19,3-4.82,3-4.82,1.06-2,.74-1.75-.32-.29.73-1.15,1.31-2.15,2.18-3.68-.32.29-3,4.82-2,2.77.93-1.47,2.4-3.83,3.35-5.29-.86,1.15-2.49,3.57-3.34,4.7,1.37-2.35,2.21-3.49,3.17-5a42.52,42.52,0,0,0-3.91,5.54l-.71,1.37c-.15.15,1.89-3.17,2.34-3.82,1.87-2.82-.6,1.38-1.41,2.72l-.61.8c-4.65,7.88,1.12-1,1-.48l-3.52,5.65,3-4.61c-.86,1.51-2.76,4.7-3.36,5.5-1.58,2.89,1.34-2-.45,1.24-.29.5-.46.77-.61,1l1.16-1.62a33.64,33.64,0,0,1-2,3.16c-1.77,3.42,3-4.05.42.31l-.23.34c1.48-1.73,2.56-4.16,5.77-8.92l-6.09,10.4,2.56-4.16a13,13,0,0,1-1.21,2.19c1.85-2.79,1.08-1.83,2.79-4.49-2.16,3.9,1.5-1.52-2.5,5.15,2-3.14,1.34-2.53,2.84-4.64-4.29,7.18.93-1.11-.92,2.26a52.34,52.34,0,0,0-3.08,5c3.87-6.19-.56,1.53.28.41,3-5,1.52-1.92,2.72-3.46a45.73,45.73,0,0,0-2.19,4.87l-.51.84c3.09-5,2.7-3.94,3.47-4.9-1.83,3-2.57,4.18-3.46,5.48l.14.05a29.64,29.64,0,0,1,2-2.93L907,566a4.3,4.3,0,0,0,.65-.75l9-15.49a.75.75,0,0,1,.07-.12l-2,3.14a45.76,45.76,0,0,1-3.65,5.47c1.19-1.87,3.28-5,3.79-5.78-.16.24-1,1.51-.55.71.71-1,1.4-2.06,2.08-3.1.89-1.37-1.72,2.6-1.57,2.29l1.88-2.77,0,0,0-.07,0,0,0,0,0-.05,0,0,.08-.09,0,0h0l-.16.17-.23.24-.14.15h0c-1.65,1.66-1.29,1.11-.56.41s1.78-1.54,1-.92l.46-.35h0s.07-.05,0,0l-.54.37c-.38.26-.94.62-2.38,1.52l.39-.28,1-.66c.71-.46,2.18-1.38,1.76-1.11l0,0-.55.33c-.11.06-.13.07,0,0l.62-.36-.05,0,.14-.08.06,0,0,0,.07,0h0l.15-.06h0l-.77.16c-1.69.33-3.38.65-4.27.75.33-.13,2.3-.48,4.36-.8l.64-.1h-.79l-.2,0,0,0c.06,0,0,0,0,0l-.12,0h0l-.11,0h0l-.2-.07h0a.59.59,0,0,1-.16-.07h0l.12,0-.1,0,.12,0h0l-.14-.06h0l-.12-.07-8.13-.49h0l-.06,0,0,0-.26.11.09,0-.11.05-.22.07h-.17l.58-.13-.77.17-.23,0-.41,0c-.16,0-.35,0-.45,0h-.13l1.15.17c.61.1.74.15-.07,0l-1.21-.22h.05l-.21,0h0l-.1,0h0l.07,0,.37.17c.41.19.76.37,1.09.55l-1.39-.68h0l1.27.63a16.16,16.16,0,0,1,1.43.76l-1.48-.75-.77-.41-.32-.17h0l.05,0-.11-.06.21.11h0l.43.29,0,0,.63.49-.51-.39.13.1,0,0a4.81,4.81,0,0,1,.47.46,2.48,2.48,0,0,0-.4-.39,2.4,2.4,0,0,1,.36.34L907,549c.11.08.26.32.4.46a2.49,2.49,0,0,1,.17.24l.13.24.07.11a2.17,2.17,0,0,1,.16.48v-.07c0-.05,0,0,0-.1s0,.1,0,.06a1.05,1.05,0,0,1,0-.21.61.61,0,0,1,0-.17s0,.1,0,.15a1.21,1.21,0,0,1,.15-.37l20.34,1.37a6.32,6.32,0,0,0-1.2,0l3.08-.18c-1.83,0,0-.67-7.84-.1,1.12-.14,3.78-.44,4.49-.42,1.13-.55-8.42-.17-3.63-1l2.38-.19c-.7,0-4.49.29-2.1,0,1-.09,2.38-.2,2.52-.25-.83,0-4.2.19-2.82,0l2.69-.17c3.08-.71-6.59,0-8.25-.22a67.55,67.55,0,0,0,10.37-1.48l1-.09c.82-.58-5.89-.28-8.69-.47,7.59-1,3.1-1.26,7.32-2.12-1.27.19-5.46.51-6.17.5.28,0,.25-.08.08-.08l-21,6.69-.05.05h0l-.11.09h0a2.93,2.93,0,0,1-.41.29l-.11,0h0l-.22.1h0l-.1,0h0l-.12,0h.3l.51,0H900l.23,0h0l-.15,0h0l.22,0h0l.06,0,.11,0h0l-.09,0,.09,0,2.84.92c-1.38-.43-3.34-1.09-2.75-.89l0,0,.06,0,.15.06,22.08,1.74a67.29,67.29,0,0,0-7.31.24c-1.09,0,2.41-.31,3.73-.47.85,0,.72.05,1.94,0-2.18,0-.89-.44-6.77.05,2.63-.46,5.42-.37,4.43-.58l1.8-.13c9.34-1.44-15.09.4-3.09-1.35-.73.11-1.08.16-2.06.26,5.25-1.23-5.13-1.09,3.24-2.6,1.68-.36-2.08,0-4.94.09l4.8-.48-5.57.28c-4.09.06,11.76-1.61,4-1.31l-3.24.35c.6-.2-2-.28,1.78-.59-.59,0-3.38.26-1.69.05l2.52-.23-4.35,0c1.8-.43,10-.86,10.45-1.3-1-.06-7.36.25-9,.45a30.35,30.35,0,0,1-4.08.53l-1.33,0c-7.42.65-15,1.24-20.18,2l4.56-.18-3.59.4-.24-.17c-3.38.42-.38.21,1.68.11-1.91.19-3.24.34-3.95.45l7.1-.42c-2.9.29-5.76.42-7.35.72,3.3-.19,6.5-.69,8.67-.71-3.36.41-6.11.63-3.22.5-1.91.19-3.13.27-4,.3a45.09,45.09,0,0,0,4.95-.09c-4.16.49,1.11.29-5.91.92,1.68-.12,5.53-.3,5.83-.22-8.42.57-.46.43-9.48,1.2,7.58-.54,3.41.21,7.63.08a12.16,12.16,0,0,1-1.44.07c-.62.19-2.89.44-4.31.66,6.24-.55,7.69-.45,11.55-.68-6,.71-7.34.55-13.12,1.13,5.06-.46,5.08-.15,9.29-.59-3.72.47-1.8.27-7,.81,7.81-.68,1.34,0,6.14-.32-3.83.54-7.31.71-4.92.71C884.57,554.44,881.79,554.5,881.79,554.5Zm38,2.13.09,0,.19.32A2.84,2.84,0,0,0,919.75,556.63Zm.14-1a.41.41,0,0,0-.25.41,15.44,15.44,0,0,1-3-.68A17.25,17.25,0,0,0,919.89,555.59Zm-19.41-3.31h0Z" transform="translate(-856.42 -527.09)"/><path class="cls-1" d="M900.52,552.29h0Z" transform="translate(-856.42 -527.09)"/><path class="cls-1" d="M916.84,549.43l.07-.08-.44.47Z" transform="translate(-856.42 -527.09)"/><polygon class="cls-1" points="68.52 10.61 67.53 11.18 68.46 10.8 68.52 10.61"/><path class="cls-1" d="M917.79,547.6l.57-1C918.22,546.83,918,547.18,917.79,547.6Z" transform="translate(-856.42 -527.09)"/><path class="cls-1" d="M917.45,546.21l.71-1.44C917.74,545.58,917.55,546,917.45,546.21Z" transform="translate(-856.42 -527.09)"/><path class="cls-1" d="M917.94,543.9l-1,1.64v0Z" transform="translate(-856.42 -527.09)"/><path class="cls-1" d="M893.41,542.28a.44.44,0,0,0-.17-.16C892.46,541.65,892.75,541.91,893.41,542.28Z" transform="translate(-856.42 -527.09)"/><path class="cls-1" d="M903.45,551.8c-.82.11-1.62.2-2.13.22C901,552.22,901,552.36,903.45,551.8Z" transform="translate(-856.42 -527.09)"/><path class="cls-1" d="M933.75,540.63l-.08,0a.58.58,0,0,1,.05.14Z" transform="translate(-856.42 -527.09)"/><path class="cls-1" d="M901.32,551.66c-.85.3-.63.39,0,.36C901.59,551.85,902,551.64,901.32,551.66Z" transform="translate(-856.42 -527.09)"/><path class="cls-1" d="M916.13,540.42l.07-.18-.38.61Z" transform="translate(-856.42 -527.09)"/><path class="cls-1" d="M915.82,540.85l-.31.44S915.55,541.28,915.82,540.85Z" transform="translate(-856.42 -527.09)"/><path class="cls-1" d="M914.84,542.21l.67-.92S915.53,541.12,914.84,542.21Z" transform="translate(-856.42 -527.09)"/><path class="cls-1" d="M915.93,542.73l.86-1.39C916.6,541.63,916.33,542.08,915.93,542.73Z" transform="translate(-856.42 -527.09)"/><path class="cls-1" d="M916.44,542.48c.13-.35,1.64-3.07,1-2.25l-.68,1.11C918.08,539.29,915,544.8,916.44,542.48Z" transform="translate(-856.42 -527.09)"/><path class="cls-1" d="M907.1,560.4l.45-1.25a37.62,37.62,0,0,1-2.34,3.83C902.8,567.58,907.17,559.62,907.1,560.4Z" transform="translate(-856.42 -527.09)"/><path class="cls-1" d="M906.48,563a32.33,32.33,0,0,0-1.82,3A20.25,20.25,0,0,0,906.48,563Z" transform="translate(-856.42 -527.09)"/><path class="cls-1" d="M917.61,548.78h0S917.61,548.78,917.61,548.78Z" transform="translate(-856.42 -527.09)"/><path class="cls-1" d="M900.58,556.21l-2.22,1.28,3.46-1.45C901.41,556.11,901,556.16,900.58,556.21Z" transform="translate(-856.42 -527.09)"/><polygon class="cls-1" points="61.61 21.48 61.61 21.48 61.62 21.48 61.61 21.48"/><path class="cls-1" d="M906.66,548.12h0Z" transform="translate(-856.42 -527.09)"/><path class="cls-1" d="M906.35,548.48a1,1,0,0,1,.18.14A1.29,1.29,0,0,0,906.35,548.48Z" transform="translate(-856.42 -527.09)"/><polygon class="cls-1" points="44.06 24.65 44.09 24.63 44.04 24.66 44.06 24.65"/><path class="cls-1" d="M965.23,623.07c.52,1.27,1.7,4.16,1.73,3.49q-.9-2.49-1.7-5Q965.22,622.3,965.23,623.07Z" transform="translate(-856.42 -527.09)"/><path class="cls-1" d="M969.8,631.86c-.23-1.27-.49-3-.78-5.06a63.11,63.11,0,0,0-1.21-6.73c.21,2.45.28,3.24.35,4.16a36.27,36.27,0,0,0,.81,4.83c0,.64-.8-1.53-1.34-3.4.33,1.31-.82-1,.17,2.21,1.7,3.76,1.65,3.94,1.21.55C969.34,629.54,969.58,630.9,969.8,631.86Z" transform="translate(-856.42 -527.09)"/><path class="cls-1" d="M971.91,637.56h0Z" transform="translate(-856.42 -527.09)"/><path class="cls-1" d="M971.61,636v0Z" transform="translate(-856.42 -527.09)"/><path class="cls-1" d="M971.65,635.48v0Z" transform="translate(-856.42 -527.09)"/><path class="cls-1" d="M971.91,637.56l.07,0Z" transform="translate(-856.42 -527.09)"/><path class="cls-1" d="M972.74,619.09a4.51,4.51,0,0,0-.5,1.35,2.7,2.7,0,0,1,.39-.53Z" transform="translate(-856.42 -527.09)"/><polygon class="cls-1" points="113.93 110.77 113.9 110.78 113.88 110.79 113.93 110.77"/><path class="cls-1" d="M969.91,638.1h0Z" transform="translate(-856.42 -527.09)"/><path class="cls-1" d="M970.74,636.59v0Z" transform="translate(-856.42 -527.09)"/><path class="cls-1" d="M971.27,637.58h0Z" transform="translate(-856.42 -527.09)"/><path class="cls-1" d="M944.53,637.66l.79-.14A3.41,3.41,0,0,0,944.53,637.66Z" transform="translate(-856.42 -527.09)"/><path class="cls-1" d="M966.28,631.86l.24,0,2.52-.08Z" transform="translate(-856.42 -527.09)"/><path class="cls-1" d="M971.57,635.64h0S971.57,635.63,971.57,635.64Z" transform="translate(-856.42 -527.09)"/><path class="cls-1" d="M973,636.91c0,.07,0-.12,0,0S973,637,973,636.91Z" transform="translate(-856.42 -527.09)"/><path class="cls-1" d="M972.89,619.7a.43.43,0,0,1,.35,0C973.11,619.53,973,619.53,972.89,619.7Z" transform="translate(-856.42 -527.09)"/><path class="cls-1" d="M973,636.9h0Z" transform="translate(-856.42 -527.09)"/><path class="cls-1" d="M970.18,637h0Z" transform="translate(-856.42 -527.09)"/><path class="cls-1" d="M971.22,636.17l0,0Z" transform="translate(-856.42 -527.09)"/><path class="cls-1" d="M971.59,637.08l.06,0h-.06Z" transform="translate(-856.42 -527.09)"/><path class="cls-1" d="M972.46,637.41h0Z" transform="translate(-856.42 -527.09)"/><path class="cls-1" d="M951.33,649.09c1-.8,2.12-1.62,3.25-2.42C952,648.51,950.6,648.53,951.33,649.09Z" transform="translate(-856.42 -527.09)"/><path class="cls-1" d="M972.46,621.6a6.64,6.64,0,0,1,.43-1.9,1.14,1.14,0,0,0-.26.21A12.92,12.92,0,0,0,972.46,621.6Z" transform="translate(-856.42 -527.09)"/><path class="cls-1" d="M944.75,630.93c.32-.41.64-.8,1-1.16A1.69,1.69,0,0,0,944.75,630.93Z" transform="translate(-856.42 -527.09)"/><path class="cls-1" d="M989.42,653.82l.16.59C989.73,654.41,989.72,654.24,989.42,653.82Z" transform="translate(-856.42 -527.09)"/><path class="cls-1" d="M946.42,625.9a17.63,17.63,0,0,0,3.11.67c-.31-.19-.54-.36-1-.61C947.84,625.92,947.13,625.9,946.42,625.9Z" transform="translate(-856.42 -527.09)"/><path class="cls-1" d="M954.61,646.65l0,0Z" transform="translate(-856.42 -527.09)"/><path class="cls-1" d="M942.88,647.38c.21.78,5.41-2.08,8.55-3.36,1.82-.07-3.78,2.18-6.37,3.77,1.69-.13,6.67-2.31,6.62-1.91a20.67,20.67,0,0,1-2.23,1.23c2.2-.88,2.43-.59,2.81-.35s.91.41,3.54-1c-.41.32-.82.61-1.19.87,2.42-1.71,4.94-3.36,6.74-4.53.2.12,3.27-1.83.13.42a15.08,15.08,0,0,0-2.3,1.34l1.51-.76c-4.44,3.34-1.76.83-5.17,3.12,1.83-.51,5.82-2.85,4.77-1.64-4.22,3.42-2,.36-5.53,3.72.4-.61.82-1.2,1.27-1.78-6.67,5.42.21-.73-7,5-.3.94.5.83,1.24.66s1.47-.34,1.24.62c2.47-1.76,3.37-2.94,5.82-4.73,2.45-1.31,0,1.1-2.1,3.5s-4.06,4.65-1,2.53c1.38-1.18,3.27-3,4.55-4.15s1.94-1.64,1-.06q-2.13,2.22-4.3,4.39c.49,1.25,6.21-6.29,4.33-2.48-1.63,1.78-1.9,1.07-2.24,1.74-2.48,4.24,2.61-2.37,3-2.1l-3.19,4.41a7,7,0,0,0,3.39-1.11,17,17,0,0,1,3.13-1.61,20.59,20.59,0,0,0-2.23,4.45c1.44-.8,2.16-.3,2.75.88a44.46,44.46,0,0,1,1.6,4.85c.62-1.46,1.21-2.93,1.75-4.41a8.29,8.29,0,0,1-.53,3c.35,1.9.66-2.91,1.33-4.65.39-.25,0,2.74-.54,4.08a33.83,33.83,0,0,1,2.9-4.78c.84-1,1.43-.8,2,1.72l-.26,1.39c.49,1,.78-1.46.94-3.56s.25-3.89.73-1.72l-.09.84a1.51,1.51,0,0,0,1.42.48c.46-.06.9-.25,1.38-.32.94-.11,1.88.36,3.88,3.43-.9-3.27-.22-2.69.46-2.52s1.23,0-.71-4.28c1.47,1.9,2.44,3.19,3.38,4.27a8.62,8.62,0,0,0,3.77,2.63c.39,0-.2-1.37-.93-2.87a21.11,21.11,0,0,1-1.66-3.69l3,3.94q-1.11-2.38-2.43-4.65c1.36,1.43,2.75,2.84,4.17,4.2-.08-.49-.17-1-.27-1.45a8.24,8.24,0,0,1-2.81-2.36c-.37-1.16.58-.88,2-.22a22.37,22.37,0,0,1,4.14,2.57,26.55,26.55,0,0,0-1.5-4.77,9.69,9.69,0,0,1,2.61,3c-3.12-4.22,4.4,2.85,1.52-1.1a23.81,23.81,0,0,1-3.2-2.3c2.85,1.12,3.84-.48,3.16-2.06l3,1.67a3.27,3.27,0,0,0,.85-1.65,7.34,7.34,0,0,0,.06-1.94,14.36,14.36,0,0,1-.18-3.76c-1.72.56-7.44-.91-7.91-1.43,1.72.23,3.45.45,5.18.66a7.47,7.47,0,0,0-2.66-.38,9.85,9.85,0,0,1-3.16-.71c.67-.45,5.94.36,7.55,1.11-.55-.42-1.11-.81-1.67-1.19,1.55.12,2.34.44,4.3.76-1.58-.42-.24-.7.82-1.13s1.78-1-1-1.37h1.55c.1-2.45-1.81-3.34-2.3-5-4.45.64-3.56-.14-7.21.16.62-.6,1.71-1.38,2.54-2.22s1.38-1.72,1-2.31a7.07,7.07,0,0,0-3.07.58,26.43,26.43,0,0,1-3.22,1.11c3.82-1.5,2.95-2.57,5.93-3.11a4.73,4.73,0,0,0-1.8-1.28,9.56,9.56,0,0,0-3.71-.27,16.45,16.45,0,0,1-3.06,2.28c-.7.14,1.1-1.47,2.74-2.55l.41-.16c-1.58.42-1.87,0-1.67-.83s.86-2.26,1.38-3.68c1.09-2.8,1.2-5.87-2.29-3.15l.35-.26a28.41,28.41,0,0,0-4.24,2.45c-.16-.51.33-1.11,1-1.87a7.72,7.72,0,0,0,1.87-3c-1.42,1.14-2.22,1.6-2.76,1.64s-.8-.3-1-.71c-.47-.8-1-1.92-2.53,0,.7-2.95.63-4.51.19-5.27s-1.18-.69-1.94-.47c-1.58.44-2.9,1.61-3.62-2.31l-.09,2.84c-.66,2.75-.46-1.66-.84-2.33,0,2.21.4,2.58,0,4.11-1.95,1.62-3.54.69-5.8-.76s-5-3.31-7.68-3.61c-.94,0,.31,3.46,1.31,6.21s1.79,4.79-.47,2.13q-1-2.44-1.94-4.94c0,3.53-1.13,4.17-2.5,4.94s-2.81,1.66-1.88,4.58c-.76-1-1.89-2.08-1.66-2.28-1.59-1.13-2.13-.64-1.86.3a8.12,8.12,0,0,0,2.5,3.36c-.54.1-2.24-1.73-3.66-2.51-1.1-.44-.41.67.2,1.57s1.12,1.63-.54.68a3.17,3.17,0,0,1-1.09-1.14c1.27,1.41-1.54,1.48,2.43,3.49-1.18-.1-1,.63-.9,1.27s.27,1.19-1.1,1c2.11,1.33,1.4,1.46.92,1.73s-.69.61,2.56,1.89c-3.37-1.31-4.92-1.31-5.25-.72s.62,1.68,2.2,2.43c-2.07-.78-2.36.14-5.25-.82-.13,1.06,1.06,2.21,4.77,2.58-4.41.18-2.79,1.5-1.39,2.29s2.54,1.29-3,2.26a37.17,37.17,0,0,0,5.66,4.3c.86.53,1.67,1,2.41,1.41s1.45.71,2.09,1c-3.2,1.67-3.73,1-4.24.46s-1-1.26-4.57.05c2,1.15,4.57,1.13,6.53,1.18a9.12,9.12,0,0,1,2.39.23,1,1,0,0,1,.86,1.15c-.43,1.06-2.66,1.69-3.81,2.2a4.39,4.39,0,0,1,3.31,1.85c.7.74,1.64,1.46,3.47.34a6.39,6.39,0,0,1-1.47,1.35c.42,0,.06,1.36,1.93-1.35l-.79.54a35.92,35.92,0,0,1,4.45-5.52,35.4,35.4,0,0,0,3.41-4.2c-2.66,3.88-2.8,4.5-3,5.42a9.2,9.2,0,0,1-.8,2,44.48,44.48,0,0,1-3.11,5,12.66,12.66,0,0,0,2.53-3.58c-.08.68-.56,1.88-2.06,3.9,1.94-1,3.09-4.33,3.86-3.87-.66,1.45-1.08,1.93-2,3.57,1.83-2.55,3.32-5.3,3.47-3.81-.37.88-.72,2.08-.93,2,.73,0,1.89-1.77,2.76-3.23s1.47-2.54,1.72-1c-1.54,6.73,0,2.31-.73,8.23.39-.55.76-1.11,1.1-1.67,0-1,0-1.94,0-2.92.32.09.73-.94,1-1.75s.54-1.39.78-.42c-.15.82-.34,1.65-.54,2.45a15,15,0,0,0,1.25-1.13c-.25-.75-.47-1.5-.65-2.25a27,27,0,0,0,.23-4.73c0-1.3,0-2,.23-1.18,0,.62.27.07.84,3.56h0c.08-1.92-.07-3.92.44-2.51.42,1.87,1,6.53,1.32,7.76-.24-2.49,0-2.89.29-3.34s.54-1-.12-3.57c.28,1.22,1.17,4.22,1.41,4.82-.31-1.32-.64-2.64-1-3.94a19,19,0,0,1,1.71,4.09c.62.17-.15-1.57-.76-3s-1.09-2.63-.09-1.26a12.32,12.32,0,0,1,.42,1.5c.78.63,1.06-.26,1.17-1s.15-1.43,1.12-.93c3.87,4.61,0,1.79,3.24,5.73.62-1.09.34-3.22-.09-4.88s-1-2.94,0-3.11l-.7-.17c-3.4-2.54-2.47-2-1-1.38s3.63,1.26,2,0a28.69,28.69,0,0,0,3.26,1.89c.89-.25.75-1.12,0-2.12a16.49,16.49,0,0,0-3.2-3l2.1.59c2-.25,1.34-1.47,2.36-2.14-2.16-.29-1.82-.57-5-.38,3.1-.37,4.2-1,4.27-1.51s-.88-.87-1.91-1a7.35,7.35,0,0,1-2.32-.51c-.21-.28.41-.73,2.7-2a4,4,0,0,0,1.9-.38,18.4,18.4,0,0,0-2.36-.5c-3.34,1.62-2,1.08-4.55,2.39a23.42,23.42,0,0,1-3.71,1.22,32.31,32.31,0,0,0,3.78-1.72c1.27-.68,2.44-1.43,3.3-2-1,.55-2.14,1.06-3.15,1.59,2.81-1.71,1.13-.9-.75.09s-4,2.14-2.17.86l1.68-1c-1,.32-3.18,1.58-2.8,1.17,3.49-2.46,1.76-1,4.73-2.85a14.17,14.17,0,0,0-3.27,1.63c-1.27.73-2,1.23-.4-.16,1-.64,1.13-.51,2.18-1.08a21.66,21.66,0,0,0,2.88-2.59c.26-.34.11-.34.31-.72l-.06.09c.43-.68.84-1.38,1.2-2.1l-.88,1c-4.44,3.4-4.88,3.68-5.07,3.53s0-.68-2.66,1.89c2.47-2.43,3.22-3.07,3.69-3.66a32.85,32.85,0,0,1,2.38-2.77A23.51,23.51,0,0,1,983.1,623c-1.47,1.32-1.1.62-.93.05s.12-1-1.84,1.09c.91-1.27-.29-.4,2.06-3.53-1.29.6-1.41,2.32-2.64,3.85-1.9,1.93-1.29.39-1.12-1.1.09-.74.13-1.45-.21-1.61s-1,.25-2,1.8a18.25,18.25,0,0,0-2.93,4.85c-.85,1.86-1.54,3.71-2,5,.24-1.22.57-2.61.89-3.67s.64-1.8.64-1.8c.19-2.32-.38-2-1-.3a22.44,22.44,0,0,0,.42-4.25c-.54.35-.85,5.62-1.11,3.29a50.52,50.52,0,0,1,.91-6.21c-.83,1.37-1.44,4.24-1.83,5.69a18.73,18.73,0,0,1,.47-5.92c-.83,1.21-1.94,2.61-1.4,6.88.17.49.33,1,.47,1.49a21,21,0,0,1-.45-4.46c.1-1.71.39-1.36.57-.38a27.74,27.74,0,0,1,.36,3.37c-.09.34-.16.68-.22,1,.47,4.56.43,4.16.65,2.73s.72-3.93,1-3.63c-.34,2.2-.63,4.4-.85,6.61a42.49,42.49,0,0,1,1-5.45c-.15,1.73-.83,5.38-1,6.37-.23,1.62-.15,1,0,.51s.25-1-.13.78l-.12.55h0v0l.1-.4.27-1c-.1.36-.22.8-.34,1.27l0,.17h0v-.05c-.05.19-.1.29-.13.39v0l-.05.14.72-1.63a55.43,55.43,0,0,1,2.92-5.94c-.81,1.84-1.67,3.65-2.57,5.45l-1.2,2.35v0h0l.15-.26.58-1.07a5.5,5.5,0,0,1-.26.52l-.51.89c.64-1.09.76-1.27.93-1.57s.48-.87,1.31-2.21c-1.07,2-.77,1.53-.64,1.49s.06,0-.25.49c-.16.23-.39.56-.73,1l-.86,1.14.72-.94.64-.88a18,18,0,0,1,1.42-1.81c-2.52,3.34-2.33,3-1.72,2.34s1.64-1.78.4-.32L970,638l-.1.1h0l.05,0,.57-.44-.55.43-.06,0h0l0,0,.14-.09h0l.25-.13-.1,0,.09,0,.12-.06h0a4.55,4.55,0,0,1,.52-.17h0l1.86-.5a35.81,35.81,0,0,1,6.4-1.44c-2.15.53-5.84,1.36-6.73,1.56.28-.08,1.8-.38.89-.14l-1.83.38-.52.12.07,0,.83-.18.51-.09-1.27.26h0l-.1,0,.23,0h.06l.14,0h.22s.25,0,.18,0h0l.13,0h0l.05,0-.06,0h0c-.06,0-.09-.07,0,0l0,0,.07.05h0s0,0,0,0l0,0v0l-.07-.1,0,0a2,2,0,0,1-.14-.29,1.6,1.6,0,0,1-.11-.36c0-.08,0,.16,0,.09s-.09-.33-.09-.37c0-.21,0-.19,0-.42,0,.4,0,1.16,0,2a14.86,14.86,0,0,1,0-1.56v-.65s0,0,0,0v-.1a1.65,1.65,0,0,1,0-.34h0l0-.1v0h0s0,.05,0,.07v0l0,0h0v0l0,0a.71.71,0,0,1-.07.15l.05-.1,0,.08h0l-.13.23s0,0-.05.07,0,0,0,0a1.38,1.38,0,0,1-.15.19l.06-.07a.77.77,0,0,0-.13.17l0,0a1.83,1.83,0,0,1-.31.34l0,.05a1.56,1.56,0,0,1-.3.23c.06,0,.05,0,0,0a1.77,1.77,0,0,0,.24-.17l-.16.12a1.37,1.37,0,0,0,.2-.16l0,0c-.07.07-.25.17-.29.21h0a.67.67,0,0,1-.19.1c-.07,0,0,0-.09,0h1.07l.17,0h0l.22,0,.11,0h.07l-.94-.27,1,.29.09,0,.18.07a2.71,2.71,0,0,1,.29.14l.24.15h0l.05,0h0l-.9-.72c-.48-.38-.57-.5.07,0l.85.72h0s0,0,0,0h0l-.38-.34h0l0,0,.05.05,0,0a2.32,2.32,0,0,1,.18.21h0l.09.12,0,0v0s0,0,0,0l-.1-.15c-.24-.38-.43-.72-.61-1l.65,1.09.11.18h0s0,0,0,0l-.09-.13-.61-1c-.37-.64-.66-1.16-.78-1.43l.84,1.44.69,1.25v0l0-.06.06.1h0l0,.11h0c-.2-.58-.34-1-.45-1.29s-.15-.46-.15-.48.16.43.33.94l.28.85h0a1.54,1.54,0,0,1-.05-.15l-.2-.67.25.82h0l-.08-.39c-.13-.61-.2-1.11-.24-1.41l.31,1.79v0l-.11-.65-.07-.55c0-.29,0-.43,0-.4q.07.57.12,1.08c0,.15,0,.3,0,.45h0v-.28a2.63,2.63,0,0,1,.1-.63c0,.07,0-.06,0,0l0-.07.05-.13v0l0-.09,0-.06,0,.05,0-.08.25-.38v0h0l-.23.36h0l.23-.36h0l0,0,0,.07a.92.92,0,0,1-.13.14s0,0,0,0a2.27,2.27,0,0,1-.47.37h0l-.08,0h0l-.08,0h0l-.09,0,.07,0h0a2.2,2.2,0,0,1,.53,0,2.08,2.08,0,0,1,.68.15s0,0,0,0l.09,0h0l.08,0h0l-.22-.16h0s0,0,0,0a1.41,1.41,0,0,1-.14-.17l-.09-.14h0a1.36,1.36,0,0,1-.11-.2,2,2,0,0,1-.12-.28l0,0a2.83,2.83,0,0,1-.11-.31v0a3.54,3.54,0,0,1-.14-.71v0c0-.11,0-.33,0-.3v-.18h0v-.06h0v0l0,.07,0,.08v0c0,.1-.06.17-.11.27v0c.06-.12.08-.2.08-.19s0,.08,0,0-.09.19-.13.29h0l0,.06,0,.08-.11.17s0,.06,0,0,0,0,0,0v0h0l.08-.13-.09.14-.83,1.24.64-1,.14-.2h0l0,0-.06.07,1.08-1.41.1-.12.14-.14,0,0,.06-.06,0,0-.06.06.15-.15.08-.06-1,.86,1.18-1,0,0a2.07,2.07,0,0,1,.27-.2,2.73,2.73,0,0,1,.3-.21l.07-.05-.74.46c-.58.35-1,.61-1.23.7s-.15,0,.28-.23l1-.55,1.44-.79-1.63.88c1.16-.67,1.48-.8,1.39-.78s-.58.21-1,.32c-.83.25-1.37.09,2.69-1.11,1.65-.46-2,.52-4.8,1.13l4.7-1.15q-2.71.63-5.45,1.17c-2,.33.85-.39,3.32-.89s4.49-.79.66-.28l-3.21.49c.6-.15-1.94,0,1.78-.46-.59.07-3.37.36-1.69.14l2.52-.28c-1.44.11-2.89.18-4.33.22.9-.17,3.4-.34,5.74-.51l4.31-.31h-.16l-1,0-2.66.09c-1.93,0-4,.07-4.8.11-.12,0-1.57.16-4.1.27l-1.32-.08-11,.29a58.59,58.59,0,0,0-9.27.85c1.52.12,3.05.21,4.57.28l-3.59.4-.25-.45c-3.38.46-.37.48,1.7.5a34.92,34.92,0,0,0-4,.54q3.57,0,7.13-.09c-2.89.35-5.77.29-7.34.84,3.31-.09,6.48-.87,8.67-.72-3.34.58-6.08.86-3.17.81a22.66,22.66,0,0,1-4,.32c2.32,0,1.07.65,5,.22-4.11.89,1.21.68-5.75,1.85a43.75,43.75,0,0,1,5.87-.32c-8.38,1.19-.29,1-9.14,2.91,3.75-.64,4.64-.51,5.15-.23s.62.69,2.73.4c-.58.14-1.78.41-1.43.24-.49.55-2.64,1.34-3.92,2,6-1.83,7.53-1.75,11.26-2.81a46.55,46.55,0,0,1-6.27,2.29c-1.74.51-3.49.93-6.2,2,4.8-1.68,5.09-.85,9-2.51-3.37,1.66-1.59.92-6.35,3,7.3-2.85,1.38-.13,6-1.69-3.34,2-6.68,3.06-4.24,2.7a13.73,13.73,0,0,1-3.18,1.42A12.84,12.84,0,0,1,942.88,647.38Zm21.62,4.43,0,.08L964,652A2.25,2.25,0,0,0,964.5,651.81Zm1.22.49a.6.6,0,0,0-.44-.39,12.29,12.29,0,0,1,1.37-2.75A13.81,13.81,0,0,0,965.72,652.3Zm7-16.84,0-.05,0,.06h0Z" transform="translate(-856.42 -527.09)"/><polygon class="cls-1" points="116.26 108.43 116.25 108.45 116.27 108.43 116.27 108.42 116.26 108.43"/><polygon class="cls-1" points="115.46 110.47 115.46 110.47 115.45 110.47 115.46 110.47"/><polygon class="cls-1" points="132.38 130.14 131.7 129.22 132.12 130.15 132.38 130.14"/><path class="cls-1" d="M982.82,631.5a8.21,8.21,0,0,0,1-.6C983.54,631,983.2,631.26,982.82,631.5Z" transform="translate(-856.42 -527.09)"/><path class="cls-1" d="M982.06,628.47c.33-.45.66-.9,1-1.37A12.71,12.71,0,0,0,982.06,628.47Z" transform="translate(-856.42 -527.09)"/><path class="cls-1" d="M982,625.12c-.56.56-1,1-1.35,1.38v0Z" transform="translate(-856.42 -527.09)"/><path class="cls-1" d="M957.76,653.76a.31.31,0,0,0-.25.07C956.7,654.3,957.1,654.18,957.76,653.76Z" transform="translate(-856.42 -527.09)"/><path class="cls-1" d="M972.75,647.88a16.35,16.35,0,0,1-.16,2.14C972.82,650.35,973,650.43,972.75,647.88Z" transform="translate(-856.42 -527.09)"/><path class="cls-1" d="M944.64,631.06l.07,0a.66.66,0,0,1,0-.15Z" transform="translate(-856.42 -527.09)"/><path class="cls-1" d="M972.07,650c.23.89.42.68.52,0C972.41,649.73,972.21,649.28,972.07,650Z" transform="translate(-856.42 -527.09)"/><path class="cls-1" d="M969,618.65l-.23-.16c0,.29.05.54.05.72Z" transform="translate(-856.42 -527.09)"/><path class="cls-1" d="M968.85,619.21l-.15.55C968.8,619.75,968.88,619.71,968.85,619.21Z" transform="translate(-856.42 -527.09)"/><path class="cls-1" d="M968.42,620.94c.08-.39.17-.78.28-1.18C968.54,619.77,968.31,619.66,968.42,620.94Z" transform="translate(-856.42 -527.09)"/><path class="cls-1" d="M974.07,621l.39-1.58C974.36,619.72,974.23,620.24,974.07,621Z" transform="translate(-856.42 -527.09)"/><path class="cls-1" d="M975.53,620.87c-.18-.43,0-3.6-.74-2.73l-.33,1.26c.38-1.16.46-.14.49.84S975,622.15,975.53,620.87Z" transform="translate(-856.42 -527.09)"/><path class="cls-1" d="M970.22,637.73l.11-.16s0,.07,0,0Z" transform="translate(-856.42 -527.09)"/><path class="cls-1" d="M970,638.06h0S969.93,638.08,970,638.06Z" transform="translate(-856.42 -527.09)"/><path class="cls-1" d="M972,637.57h0S972,637.57,972,637.57Z" transform="translate(-856.42 -527.09)"/><path class="cls-1" d="M979.2,650.06c.55.66,1.13,1.3,1.73,1.93-.58-1.11-1.18-2.21-1.79-3.3C979.17,649.14,979.2,649.59,979.2,650.06Z" transform="translate(-856.42 -527.09)"/><polygon class="cls-1" points="115.36 109.95 115.37 109.98 115.33 109.85 115.36 109.95"/><path class="cls-1" d="M972.33,637.34h0Z" transform="translate(-856.42 -527.09)"/><path class="cls-1" d="M972.93,638.05v0Z" transform="translate(-856.42 -527.09)"/><polygon class="cls-1" points="117.36 109.94 117.36 109.94 117.36 109.94 117.36 109.94"/><path class="cls-1" d="M1034.89,713.15c.52,1.27,1.74,4.14,1.8,3.45q-.92-2.49-1.71-5A13.6,13.6,0,0,0,1034.89,713.15Z" transform="translate(-856.42 -527.09)"/><path class="cls-1" d="M1039.69,721.84c-.21-1.27-.44-3-.7-5.06a57.22,57.22,0,0,0-1.14-6.74c.19,2.55.23,3.3.27,4.17a33.14,33.14,0,0,0,.74,4.84c0,.64-.85-1.53-1.39-3.41.33,1.32-.87-.94.11,2.25,1.76,3.72,1.71,3.91,1.35.51C1039.26,719.52,1039.48,720.89,1039.69,721.84Z" transform="translate(-856.42 -527.09)"/><path class="cls-1" d="M1041.32,722.31v0Z" transform="translate(-856.42 -527.09)"/><path class="cls-1" d="M1040.18,726.6v0Z" transform="translate(-856.42 -527.09)"/><path class="cls-1" d="M1040.68,725.84l0,0Z" transform="translate(-856.42 -527.09)"/><path class="cls-1" d="M1041.32,722.31l0,.09Z" transform="translate(-856.42 -527.09)"/><path class="cls-1" d="M1043,709.09a4.34,4.34,0,0,0-.52,1.34,2.53,2.53,0,0,1,.4-.52C1043,709.63,1043,709.39,1043,709.09Z" transform="translate(-856.42 -527.09)"/><polygon class="cls-1" points="185.09 195.39 185.1 195.42 185.11 195.44 185.09 195.39"/><path class="cls-1" d="M1041.37,726.53h0l.6-3.36h0l-.6,3.36h0Z" transform="translate(-856.42 -527.09)"/><path class="cls-1" d="M1040.76,727.17h0Z" transform="translate(-856.42 -527.09)"/><path class="cls-1" d="M1041.38,722Z" transform="translate(-856.42 -527.09)"/><path class="cls-1" d="M1019.82,743.12c.25-.19.4-.34.61-.51C1020,742.81,1019.74,743,1019.82,743.12Z" transform="translate(-856.42 -527.09)"/><path class="cls-1" d="M1036.71,728l.19.16.18.14h0l-.11-.09Z" transform="translate(-856.42 -527.09)"/><path class="cls-1" d="M1040.37,725.56Z" transform="translate(-856.42 -527.09)"/><path class="cls-1" d="M1033.92,724Z" transform="translate(-856.42 -527.09)"/><path class="cls-1" d="M1043.18,709.7a.49.49,0,0,1,.36,0C1043.41,709.54,1043.29,709.54,1043.18,709.7Z" transform="translate(-856.42 -527.09)"/><path class="cls-1" d="M1033.92,724Z" transform="translate(-856.42 -527.09)"/><path class="cls-1" d="M1039.17,724.38v0Z" transform="translate(-856.42 -527.09)"/><path class="cls-1" d="M1040,725.37l0,0Z" transform="translate(-856.42 -527.09)"/><path class="cls-1" d="M1039,725.33l0,.06h0Z" transform="translate(-856.42 -527.09)"/><polygon class="cls-1" points="186.83 198.69 186.82 198.69 186.8 198.69 186.83 198.69"/><path class="cls-1" d="M1057.62,722.4a19.46,19.46,0,0,1-3.73,1.69,7.55,7.55,0,0,1,3.37-.23C1057.92,723.92,1058.15,723.76,1057.62,722.4Z" transform="translate(-856.42 -527.09)"/><path class="cls-1" d="M1042.72,711.6a6.67,6.67,0,0,1,.46-1.9,1,1,0,0,0-.27.21A13.53,13.53,0,0,0,1042.72,711.6Z" transform="translate(-856.42 -527.09)"/><path class="cls-1" d="M1027.55,748.62l-.31-.28L1017,739.1v-1.46c0-.45,0-.9,0-1.34a2,2,0,0,0-.11,1.38l1.42,4.94,8.85,5.8Z" transform="translate(-856.42 -527.09)"/><path class="cls-1" d="M1054,712.87l.71.18C1054.69,712.82,1054.49,712.72,1054,712.87Z" transform="translate(-856.42 -527.09)"/><path class="cls-1" d="M1015.1,732.41A15.79,15.79,0,0,0,1018,731c-.36,0-.65,0-1.17.08C1016.23,731.5,1015.66,731.94,1015.1,732.41Z" transform="translate(-856.42 -527.09)"/><path class="cls-1" d="M1053.85,724.11l0,0Z" transform="translate(-856.42 -527.09)"/><path class="cls-1" d="M1061,742.78c1-1.52-.19-2.56-1.85-3.44a54.52,54.52,0,0,1-5.24-2.72c-.06-.83.12-1.15.57-1.25a4.27,4.27,0,0,1,1.93.29c1.61.49,3.66,1.47,5.3,1.38-.33-1.38-1.8-2.72-3.11-3.82s-2.51-1.86-2.32-2.44a5.66,5.66,0,0,1,2.54.27c-2.21-1.23-2.2-2.37-2.47-3.65s-.84-2.59-3.9-2.73a9.91,9.91,0,0,1,1.37-.56,66.6,66.6,0,0,1-7.84,2.08c-.11-.23-1.07-.19-1.53-.21s-.43-.12,1.35-.85c0,.31,1.48-.15,2.68-.32-.59,0-1.18-.06-1.77-.06,2.5-1.22,3-1.2,3.43-1s.62.61,2.6.07a12.73,12.73,0,0,0-4.28-1c-1.4-.18-2.29-.22-2-1.1,2.16-1.66,3-1.28,3.6-1a1.16,1.16,0,0,0,1,.18,4.29,4.29,0,0,0,1.77-1.6,12.41,12.41,0,0,1-.9,3,26.07,26.07,0,0,1,3.18-1.91c.46-.17.49,0,.53.25s.11.41.65.26a13.1,13.1,0,0,0,3.5-2,4.16,4.16,0,0,0-.27-1.45,3.48,3.48,0,0,0-.63-1.07,5.68,5.68,0,0,0-1.75-1.28,6.65,6.65,0,0,1-3.56-3.44,8.4,8.4,0,0,0-2.85,2.44,11.76,11.76,0,0,1-2.77,2.53c-1.76.23-2.16-.26-2.17-1.37a27.45,27.45,0,0,1,.78-4.38,9.08,9.08,0,0,0,.25-4.13c-.31-.89-1.3-1.12-2.94.26-1.09,1.57-2.12,4-3,5.57s-1.4,2.27-2.23.36c.43-2,.94-4,1.55-6-1.92-.54-2.48,1.72-2.92,3.47a5.2,5.2,0,0,1-.73,2c-.32.31-.7.14-1.53-.79.17-2.49,2.13-2.21,1.63-2.91-1.22-2.38-1.66-1.44-1.77.06s-.07,3.59-.68,3.71c-.43-1.77-.88-3.53-1.37-5.28a9.28,9.28,0,0,0-3.9,4.3c-1,1.82-1.53,3.67-2.35,5.06-1-1.3-1.52-3.07-3.32-3.71a13.31,13.31,0,0,1-1.28,2.56,24.78,24.78,0,0,1-1.74,2.34c-1.29,1.55-2.86,3.29-4.34,5.35h0l17.83,24.12a44.55,44.55,0,0,0,4.81,2.65,35.81,35.81,0,0,0,.91-5c.35,0,1.21,1.89,1,2.89,1.14.64,1-.11.56-1.23a10,10,0,0,1-.9-3.66c.67-.54,2,2.21,1.79,3.75.92-2.37,1.79-5.12,2.53-6.8a3.06,3.06,0,0,1,1.54-1.74,4,4,0,0,1,2.8.33c.22.43.44.87.64,1.31,1.36,0,0-2.09-1.31-3.74s-2.56-3-.45-2.14l.51.69a3.45,3.45,0,0,0,2-2.06,8.06,8.06,0,0,1,1.27-2.39c.71-.81,2-1.34,4.73-1.78-3.25-1-2.38-1.5-1.86-2.23s.63-1.62-4.08-1.84c2.36-.73,4-1.14,5.31-1.73a7.3,7.3,0,0,0,3.78-3.51c.1-.6-1.44-.72-3.14-.7s-3.55.15-4.17-.17l4.69-1.55a46.34,46.34,0,0,0-5.41.28c1.71-1,3.38-2.07,5-3.23-.57-.23-1.14-.43-1.72-.6,0,.6-1.49,1.94-2.81,2.48-.68-.13-.93-.48-.93-1a5.25,5.25,0,0,1,.55-2,14.16,14.16,0,0,1,2.71-4.33,21.23,21.23,0,0,0-6-.54l-.48,0a4.57,4.57,0,0,1,1.36-1.15,12.15,12.15,0,0,1,2.38-.85c-1.35.46-1.82.49-1.88.23-.13-.48,1.12-1.88,1.36-2.63l-21.3-3.21c-.31-.41-.67-.25-.86,1.36.74.9,1,2.77,1.35,3.7a3.16,3.16,0,0,0-3.39-1,3.88,3.88,0,0,0-2.26,2.42c-.61-1-1.2-1.94-1.77-2.92a6.24,6.24,0,0,0-1.32.83,7.74,7.74,0,0,0-1.06,1.08,12.23,12.23,0,0,0-1.62,2.65c-.39.9-.72,1.84-1.06,2.75a21.31,21.31,0,0,1-1,2.48c2-.4,7,2.82,7.19,3.62q-2.4-1-4.83-2a5,5,0,0,0,2.46,1.07,7,7,0,0,1,2.8,1.64c-.89.49-5.74-1.69-7-3.08a15.2,15.2,0,0,0,1.13,2,37.18,37.18,0,0,1-3.94-1.91c1.39.89,0,1-1.23,1.37s-2.11,1,.52,2.1l-1.52-.29a5.69,5.69,0,0,0-.1,2.69c.31,1.81,1.05,3,1.26,4.67,4.5,0,3.53.88,7.2,1.15-.66.72-1.79,1.64-2.62,2.7s-1.31,2.31-.8,3.27a4.75,4.75,0,0,0,3.19-.25,16.42,16.42,0,0,1,3.25-1,6.8,6.8,0,0,0-3.12,2.28,2.94,2.94,0,0,1-2.59,1.3,8.93,8.93,0,0,0,2.48,2.38,7.35,7.35,0,0,0,1.76.73,12.29,12.29,0,0,0,2.74.47.78.78,0,0,1,.39,0l.53-.83a6.52,6.52,0,0,1,1.89-2.15c.14,0,.22,0,.24.13.09.45-.9,2.15-2,3.29l-.42.19c1.81-.42,2.51.13,3,1.33s.82,3,1.47,4.76l17.23-1.5a7,7,0,0,0,4.06.67c1-.3,1.32-1.3.26-3.26l.2.4a24.72,24.72,0,0,0-1.69-4.82c.59-.18,1.12.39,1.79,1.16a6.21,6.21,0,0,0,2.75,2.15c-1.82-3.25-1.19-3.81-.23-4.44.48-.3,1-.57,1.19-1s.08-1.07-.79-2c3,.77,4.55.66,5.37.12s.81-1.46.64-2.39a7.47,7.47,0,0,1-.37-2.67c.16-.8.85-1.47,2.81-2.06h-2.85c-2.75-.73,1.66-.7,2.32-1.24-2.21.08-2.57.68-4.11.26a5.83,5.83,0,0,1-1-3.68,14.06,14.06,0,0,1,.35-2.44c.2-.94.4-1.89.61-2.85s.37-2.12.49-3.25a24.56,24.56,0,0,0,0-3.54l-.9-12.55-36.77,8.71a13.52,13.52,0,0,0-3.63,1.38c-1,.68,1.83,3.08,4.09,5a15.46,15.46,0,0,1,2.38,2.25c.28.46-.13.54-1.86.12-1.42-1.05-2.82-2.15-4.2-3.27,1.67,3.34.95,4.74.17,6.38s-1.51,3.36.9,5.34c-1.18-.38-2.74-.65-2.66-1-2,0-2.12.76-1.37,1.45a7.26,7.26,0,0,0,4,1.45c-.39.45-2.83-.11-4.45.12-1.15.32,0,.89,1.07,1.32s1.87.77,0,1a2.81,2.81,0,0,1-1.54-.34c1.83.47-.38,2.4,4,1.63-1,.69-.46,1.27.05,1.77s.95.92-.23,1.68c2.49-.18,2,.41,1.81,1s-.15,1,3.22.06c-3.48,1-4.7,2-4.58,2.73s1.59,1.08,3.29.72a4.94,4.94,0,0,0-1.38.66l8.57,9c-.22,1,.15,1.89-1.12,3.64a2.56,2.56,0,0,0,2.51-.26,6,6,0,0,0,1.94-3.48c-.13,2.24.39,3.07,1,3.16s1.44-.56,2.08-1.19c1.33-1.24,2.07-2.3,2.45,3.27a32.77,32.77,0,0,0,4.92-5.2c1.22-1.59,2.13-3,3-4.22,1.3,3.37.58,3.85-.09,4.28s-1.33.88-.42,4.55c1.27-1.84,1.65-4.4,1.95-6.38s.55-3.35,2.07-3.27a2.59,2.59,0,0,1,1.16,1.74c.24.82.37,1.73.56,2.33.59-2.09,1.81-2.79,3-3.88a5.45,5.45,0,0,0,1.5-1.95,3.71,3.71,0,0,0,.28-1.33,4.65,4.65,0,0,0-.26-1.66,3.63,3.63,0,0,1,1.24,1.67c.19-.68,1.78-.82-1.1-2.41.16.32.3.65.44,1-2.27-.86-4-2.78-5.68-4.26a18.66,18.66,0,0,0-4.42-3.21,24.85,24.85,0,0,0,4.14,1.82,3.64,3.64,0,0,0,1.79,0,5.57,5.57,0,0,1,2.23.08,20.46,20.46,0,0,1,5.51,2.2,6.33,6.33,0,0,0-3.89-2.19c.76-.37,2.08-.38,4.3,1a4.67,4.67,0,0,0-2.77-2.72c-1-.51-1.82-.89-1.72-1.8,1.59.09,2.17.54,4,1-1.48-.74-3-1.33-4-1.87s-1.49-1.34-1-2.4c1,0,2.15-.51,2.23.16a3.82,3.82,0,0,0-2-2.23,10.7,10.7,0,0,0-3.11-1,11.29,11.29,0,0,1-2.47-.5c-.59-.29-.81-.62-.72-1.6,5.51-4.25.92-2.32,4.63-6.94a19.55,19.55,0,0,0-2.59.28c-.35.93-.72,1.85-1.14,2.75-.51-.45-1.63.09-2.43.6s-1.43.86-1.42-.21a22.53,22.53,0,0,1,1.8-1.86,11.12,11.12,0,0,0-2.37.21,19,19,0,0,1,.14,2.48,16.74,16.74,0,0,0-2.14,4.24c-.49,1.2-.74,1.85-.75,1,.16-.27.06-.33,0-.75a12.31,12.31,0,0,1,.09-3h0c-.79,1.77-1.24,3.72-1.47,2.21,0-1,.19-2.6.38-4.16s.39-3,.38-3.67c-.52,2.46-1,2.75-1.61,3.15s-1.14.87-1,3.55a39.21,39.21,0,0,0-.51-5c0,1.36.06,2.73.16,4.08a11.73,11.73,0,0,1-1.29-4.26c-1-.16-.32,1.64.15,3.15a10.12,10.12,0,0,1,.45,1.75c0,.32-.13.24-.78-.39a6.67,6.67,0,0,1-.12-1.59c-1.21-.51-1.94.49-2.49,1.61s-.78,2.11-2.22,2.34c-2.65-1.46-2.63-2.14-2.38-2.82s.64-1.25-1.59-2.59a7.92,7.92,0,0,0-1,5.25,8.3,8.3,0,0,0,.71,2.38,20.24,20.24,0,0,0,1,1.92l1.27,5.89c1.17.2,1.91.42,2,1.25.08-.23.18-.46.27-.68,3.33-2.65,2.6-1.88,1.71-.5s-1.89,3.43-.27,2.14a24.82,24.82,0,0,0-2.57,2.77c.18,1,1.23,1.15,2.43.64a13.76,13.76,0,0,0,3.73-2.53c-.31.66-.62,1.32-.95,2,0,2.09,1.43,1.64,2,2.73.62-2.1.9-1.7,1.16-4.87,0,3.14.51,4.33,1,4.47s1.12-.78,1.51-1.77.67-2.07,1-2.27.84.44,2.07,2.77c-.21.09-.08,2,.13,2a17.74,17.74,0,0,0,1.16-2.51c-1.52-3.38-1.08-2-2.33-4.58a20.91,20.91,0,0,1-.94-3.82,23.14,23.14,0,0,0,3.68,7.11c-.55-1-1-2.16-1.56-3.17,1.82,2.75,1,1.06,0-.81s-2.2-4-.79-2.22l1,1.65c-.25-1-1.66-3.19-1.18-2.86,2.84,3.21,1.06,1.7,3.17,4.52.19-.3-.87-2-1.73-3.25s-1.46-1.87.24-.56c.76.93.57,1.15,1.2,2.18a11.85,11.85,0,0,0,3.18,2.27c.44.14.47-.07,1,0l-.13,0a14,14,0,0,0,2.76.13q-.69-.21-1.35-.45a43.71,43.71,0,0,1-4.3-4l.1-4.69c-.53.06-.36-.27-.62-.37s-.93,0-2.92,1.37c2.91-1.89,3.83-2.32,4.37-2.83a22.09,22.09,0,0,1,2.81-2.33c.91-1.05,1.7-2.47,2.86-3.2-1.75.93-1.33.26-1.17-.38s.07-1.19-2.24.57c1-1.17-.41-.58,2.3-3.41-.79.12-1.17.69-1.55,1.38a9.22,9.22,0,0,1-1.46,2.2c-2.21,1.59-1.55,0-1.45-1.55.07-.78,0-1.54-.37-1.76s-1.11.13-2.25,1.6a15.64,15.64,0,0,0-3.23,4.71c-.91,1.81-1.66,3.66-2.15,4.88a36,36,0,0,1,1-3.66c.35-1.05.69-1.79.69-1.79.19-2.34-.47-2-1.15-.34a20.51,20.51,0,0,0,.46-4.24c-.57.34-.93,5.61-1.2,3.27a48.85,48.85,0,0,1,1-6.2,26.64,26.64,0,0,0-2,5.67,18,18,0,0,1,.56-5.9c-.87,1.19-2.06,2.56-1.59,6.85.18.49.34,1,.49,1.49a19.17,19.17,0,0,1-.4-4.46c.13-1.71.43-1.35.61-.37a27.31,27.31,0,0,1,.33,3.37c-.1.34-.18.68-.26,1,.44,4.55.43,4.18.69,2.75s.83-3.93,1.13-3.63q-.55,3.28-1,6.6a44,44,0,0,1,1.13-5.43c-.15,1.74-.87,5.39-1.09,6.36-.23,1.63-.14,1,0,.52s.28-1-.12.78c-.13.58-.18.77-.27,1.12.16-.65.34-1.27.55-1.9-.16.53-.38,1.31-.55,1.93h0s0,0,0,0h0l.8-1.62a45.34,45.34,0,0,1,3.18-5.81q-1.32,2.72-2.79,5.35l-1.13,2h0l.6-1c-.05.08-.11.2-.3.5l-.17.26-.1.15h0c.52-.75.58-.86.72-1,.29-.42.53-.84,1.46-2.12-1.2,1.89-.87,1.47-.74,1.45s0,.05-.31.47c-.18.2-.45.5-.85.91l-.1.11h0l.68-.71a16,16,0,0,1,1.63-1.62l-2.28,2.3.25-.23c.67-.64,1.89-1.51.4-.29l-.54.42,0,0,0,0,.09-.07.08-.05h0l.6-3.36,0,0,0,0-.06-.07a1,1,0,0,1-.16-.22h0a2,2,0,0,1-.15-.28l0,.09,0-.11,0-.13v0a1.63,1.63,0,0,1-.09-.37c.07.44.16,1.06.25,1.63.42,2.65.88,5.13.68,6.54-.28-2.2-.67-6-.76-6.88,0,.3.16,1.84,0,.9,0-.62-.09-1.24-.15-1.85l0-.37h0v0h0s0,0,0,.13,0,.43,0,.63c0,.37,0,.6,0,.51-.06-.81,0-.64-.1-1.29v0h0v.11s-.06.27,0,.2v0h0a2.24,2.24,0,0,1-.32.68h0l-.11.13-.07.06h0l-.68,1.87a.83.83,0,0,1-.26,0c.18,0-.06,0,.19,0a.81.81,0,0,1-.27-.07l-.1,0,0,0,0,.05s0,0,0-.05a.55.55,0,0,1,.1.11l0,0a2.46,2.46,0,0,1,.43,1.3c0,.15,0-.29,0-.16a1.39,1.39,0,0,1,0,.34v.15l0,.12s0,0,0,0h0v0l.13-.34-.1.27v0l0,0s0,0,0,0v0s0,.07,0,0h0l.09-.21,0,0a2.61,2.61,0,0,1,.41-.61s-.05.07,0,0c.26-.29.18-.16.3-.28l.14-.08s0,0,0,0a.08.08,0,0,1,.07,0,.26.26,0,0,1-.12,0h-.63l-.09,0s0,0,0,0,0,0,0,0a.81.81,0,0,1-.2-.12l.06,0-.18-.14,0,0a2.7,2.7,0,0,1-.38-.38c-.06-.08,0,0-.06-.07a2.36,2.36,0,0,1-.24-.38s0,.06,0-.06a1.81,1.81,0,0,0,.17.29l-.12-.19.15.25c-.06-.1,0-.09,0,0a3,3,0,0,1-.21-.36h0c-.06-.14-.08-.24-.06-.15v.44a1.86,1.86,0,0,1-.09.48l0-.12,0,.14a1.65,1.65,0,0,1-.09.21h0l3.69.55.07,0h0l-1.51.59,1.61-.63.13,0,.24,0,.24,0h-.29l-1.23-.07c-.61,0-.74-.09.07,0l1.54.14h0s0,0,0,0h0l-.07,0h0l-.09,0-.35-.15c-.41-.19-.76-.37-1.08-.55l1.32.65h0l-1.19-.59c-.65-.33-1.18-.62-1.42-.78l1.48.76,1,.55,0,0,.09,0-.15-.08h0l-.24-.18h0l-.65-.58c-.17-.16-.08-.08.14.11l.38.35c.11.1.07.07.07.07h0l-7.81-1.62,0,0h0a1.51,1.51,0,0,1-.26.11,1.57,1.57,0,0,0,.23-.09l-.2.08.07,0-.3.09-.18,0a1.22,1.22,0,0,1-.23,0c-.18,0-.27,0-.18,0h0l0,0,.13.06,0,0,.11.06s0,0,.11.06l-.09-.06a2.73,2.73,0,0,1,.3.21l0,0a3,3,0,0,1,.31.3h0a.33.33,0,0,0,.06.08l3.63.83,0,0,.11-.12,0-.05v0a.62.62,0,0,1,.12-.09s0,0,0,0a1.53,1.53,0,0,1,.24-.14l-.07,0a2.68,2.68,0,0,1,.8-.3.93.93,0,0,1,.24,0h0c.09,0,0,0,0,0a2,2,0,0,1-.35-.09,2.68,2.68,0,0,1-1-.6l0,0,0-.06h0c0-.07,0,0,0,0h0l-2.84-.55h0l.08-.09-.07,0a2.11,2.11,0,0,1-.38.17c-.1,0-.19,0-.32.06h0a2.76,2.76,0,0,1-.76,0h0a1.19,1.19,0,0,1-.27,0h0l-.06,0,.08,0,.2.12,0,0a2.78,2.78,0,0,1,.41.32,3,3,0,0,1,.38.42l0,0c.08.12.1.18.17.28s0,0,0,0a.87.87,0,0,1,.07.17h0a.11.11,0,0,1,0,0v-.1l1.72,3.39h0a.75.75,0,0,1,.28.17l0,0a1.52,1.52,0,0,0-.22-.16h0a1,1,0,0,1,.31.27h0l0,.06,0,.07,0,.07h0s0,0,0,0h0l0-.08,0,.08s0,0,0,0a1.23,1.23,0,0,1,0-.13,1.1,1.1,0,0,1,.06-.56l0,0,0,0c0-.08,0,0,0,0l-.06.06,0,0c-.27.26-.8.25-.49.26h0a1.3,1.3,0,0,1,.6.29c.47.6.17.48.3.06a1.71,1.71,0,0,1,.14-.41l0,0a1.17,1.17,0,0,1,.12-.2c.15-.23.24-.22-.08,0l0,0a1.86,1.86,0,0,1-.43.19l-.12,0h0a1.17,1.17,0,0,1-.35,0H1037s0,0,0,0l.08,0,0,0h0l4.64,3.83-4.64-3.83s-.07-.06-.07-.06l0,0s.1.09-.15-.11q-2.2-1.74-4.31-3.56l-4.15-3.46a13.74,13.74,0,0,0-4.31-2.56,7.53,7.53,0,0,0-5.13,0,19.32,19.32,0,0,0,2.77,5.21,37.28,37.28,0,0,0-3.79.25,19.7,19.7,0,0,1,.82-3.35c-1.95.28-2.35,1.19-2,2.09a8.09,8.09,0,0,0,2.4,2.56c-1.94,0-3.36.38-4.15,1.21.56.4,1.14.78,1.72,1.12a16.24,16.24,0,0,0,1.78.87,23.73,23.73,0,0,0,3.64,1.25,15.64,15.64,0,0,1-4.19.12c-1.29,0-2.43.11-3.06,1.52,1.77.64,3.31-.11,4.75-.54a7.73,7.73,0,0,1,2.08-.41,4.28,4.28,0,0,1,1.91.42c-3.08,1.7-5.77,2.39-2.57,2.93-1.74.83-3,.95-4,.49a8.46,8.46,0,0,1,2.6,1.71c.72.54,1.64.87,3.49.11-1.58,1.46-.82,2.19-.45,2.85s.42,1.4-2.31,3.63a35.92,35.92,0,0,1,3.45-1.29,6.37,6.37,0,0,1,2.82-.59c-1.71,1.3-2.48,2.06-2.66,2.69s.17,1.05.63,1.53c.88,1,2,2-.54,5.71a9.65,9.65,0,0,1,3.62-2.32,5.1,5.1,0,0,1,1.44-.24,11,11,0,0,1,1.5.13,13.94,13.94,0,0,0,3.18.22,5,5,0,0,0,3.28-1.52c-.25.6-.75,1.79-1.06,1.37a7.66,7.66,0,0,1,1.45.81,11.54,11.54,0,0,1,1.22,1.1,11.83,11.83,0,0,0,2.57,2.24,15.84,15.84,0,0,1,1.14-7.09,21.93,21.93,0,0,0,.8-2.73,8.7,8.7,0,0,0,0-2.84,14.72,14.72,0,0,1,2.45,3,7.41,7.41,0,0,1,.9,2.8c.29,1.91,0,4,1.69,6.42-1.12-2.28-.3-4.07.11-5.71a4.41,4.41,0,0,0,.2-2.3,4.6,4.6,0,0,0-1.36-2.13,18.92,18.92,0,0,0,3,1.4,33.1,33.1,0,0,1,3.47,2.33c-2.58-3-2.55-3.45-2.15-3.82s1.23-.66-.31-2.63a17.82,17.82,0,0,1,4.84,1.5c1,.41,1.43.28,1.07-1.54a3.49,3.49,0,0,1,3,1.72A6,6,0,0,1,1061,742.78Zm-33.36-25.11-.06-.07.48-.73A7,7,0,0,0,1027.67,717.67Zm-2.28,2.7a5.66,5.66,0,0,0,1.09-1.14c1.25.93,2.38,2.07,2.15,2.22C1027.93,720.66,1026.8,720.61,1025.39,720.37Zm12,8.31,0,0,0,0h0Z" transform="translate(-856.42 -527.09)"/><polygon class="cls-1" points="180.96 201.61 180.97 201.62 180.96 201.61 180.96 201.61 180.96 201.61"/><polygon class="cls-1" points="184.91 195.19 184.91 195.19 184.91 195.18 184.91 195.19"/><polygon class="cls-1" points="201.47 189.16 200.39 189.52 201.44 189.55 201.47 189.16"/><path class="cls-1" d="M1047.17,733.84a5.21,5.21,0,0,0,.65,1C1047.68,734.54,1047.43,734.21,1047.17,733.84Z" transform="translate(-856.42 -527.09)"/><path class="cls-1" d="M1051.73,731.55a14.43,14.43,0,0,0,1.76.36A11.15,11.15,0,0,0,1051.73,731.55Z" transform="translate(-856.42 -527.09)"/><path class="cls-1" d="M1054.06,717.27c-.67.42-1.16.77-1.61,1.08v0Z" transform="translate(-856.42 -527.09)"/><path class="cls-1" d="M1056.7,736.91a.47.47,0,0,0,0,.35C1057,738.32,1057,737.74,1056.7,736.91Z" transform="translate(-856.42 -527.09)"/><path class="cls-1" d="M1042.33,716.76a10.55,10.55,0,0,1,1-2C1043.12,714.4,1042.87,714.26,1042.33,716.76Z" transform="translate(-856.42 -527.09)"/><path class="cls-1" d="M1027.75,748.8l0-.07a1,1,0,0,1-.23-.11Z" transform="translate(-856.42 -527.09)"/><path class="cls-1" d="M1044.1,715.13c0-1-.38-.87-.77-.32C1043.51,715.16,1043.63,715.69,1044.1,715.13Z" transform="translate(-856.42 -527.09)"/><path class="cls-1" d="M1039.16,708.6l-.23-.16c0,.3,0,.54,0,.72Z" transform="translate(-856.42 -527.09)"/><path class="cls-1" d="M1039,709.16l-.18.55C1038.91,709.7,1039,709.66,1039,709.16Z" transform="translate(-856.42 -527.09)"/><path class="cls-1" d="M1038.48,710.9c.1-.39.2-.79.32-1.19C1038.64,709.72,1038.4,709.62,1038.48,710.9Z" transform="translate(-856.42 -527.09)"/><path class="cls-1" d="M1044.43,711l.42-1.58C1044.75,709.76,1044.61,710.28,1044.43,711Z" transform="translate(-856.42 -527.09)"/><path class="cls-1" d="M1046,711c-.19-.45,0-3.63-.82-2.78l-.35,1.25c.41-1.15.51-.12.55.87S1045.44,712.23,1046,711Z" transform="translate(-856.42 -527.09)"/><path class="cls-1" d="M1041,726.87l-.09.11h0Z" transform="translate(-856.42 -527.09)"/><path class="cls-1" d="M1041.29,726.58c-.07,0,0,0,0,0S1041.31,726.56,1041.29,726.58Z" transform="translate(-856.42 -527.09)"/><path class="cls-1" d="M1040.82,723.15Z" transform="translate(-856.42 -527.09)"/><path class="cls-1" d="M1032.57,714.76a19.93,19.93,0,0,0-2.45-1.35c.64,1.11,1.31,2.18,2,3.21A15.73,15.73,0,0,1,1032.57,714.76Z" transform="translate(-856.42 -527.09)"/><path class="cls-1" d="M1040.12,725.89l0-.07c0,.09,0,.18,0,.26S1040.13,726,1040.12,725.89Z" transform="translate(-856.42 -527.09)"/><path class="cls-1" d="M1043.14,725.79h0S1043.08,725.81,1043.14,725.79Z" transform="translate(-856.42 -527.09)"/><path class="cls-1" d="M1042.85,725.37l0,0,0,0h0l-7.81-1.62h0l7.81,1.62h0l0,0Z" transform="translate(-856.42 -527.09)"/><polygon class="cls-1" points="179.2 196.35 179.19 196.37 179.22 196.33 179.2 196.35"/></svg>