<svg id="Layer_1" data-name="Layer 1" xmlns="http://www.w3.org/2000/svg" viewBox="0 0 179.91 191.88"><defs><style>.cls-1{fill:#202020;}.cls-2{fill:none;stroke:#000;stroke-miterlimit:10;stroke-width:16px;}</style></defs><title>4</title><path class="cls-1" d="M791.66,570.94c1.38-.05,4.5-.17,3.88-.34-1.77,0-3.53,0-5.3,0C790.71,570.72,791.19,570.84,791.66,570.94Z" transform="translate(-780.27 -545.58)"/><path class="cls-1" d="M801.48,569.94c-1.28-.13-3-.36-5.08-.63s-4.37-.57-6.8-.71l4.11.7c.85.14,1.83.31,4.85.56.61.14-1.71.17-3.66.11,1.36.08-1.17.31,2.16.38,4.1-.26,4.27-.19.9-.67C799.12,569.72,800.5,569.87,801.48,569.94Z" transform="translate(-780.27 -545.58)"/><path class="cls-1" d="M807.61,572.36Z" transform="translate(-780.27 -545.58)"/><polygon class="cls-1" points="26.49 27.02 26.49 27.02 27.69 24.98 27.69 24.98 27.69 24.98 27.68 24.99 27.68 24.99 27.68 24.99 27.69 24.98 27.69 24.98 27.69 24.98 27.69 24.98 27.69 24.98 26.49 27.02 26.49 27.02 26.49 27.02"/><path class="cls-1" d="M806.73,572.64h0Z" transform="translate(-780.27 -545.58)"/><path class="cls-1" d="M807.61,572.36v0Z" transform="translate(-780.27 -545.58)"/><path class="cls-1" d="M789.51,565a5.82,5.82,0,0,0,1.26.67,3.54,3.54,0,0,1-.47-.4Z" transform="translate(-780.27 -545.58)"/><path class="cls-1" d="M807.47,572v0Z" transform="translate(-780.27 -545.58)"/><path class="cls-1" d="M807,571.15l0,0,0,0Z" transform="translate(-780.27 -545.58)"/><path class="cls-1" d="M805.91,570.27h0Z" transform="translate(-780.27 -545.58)"/><path class="cls-1" d="M807.6,572.32Z" transform="translate(-780.27 -545.58)"/><path class="cls-1" d="M782.49,586.08c.28-.15.46-.25.71-.37A6.11,6.11,0,0,0,782.49,586.08Z" transform="translate(-780.27 -545.58)"/><path class="cls-1" d="M801.6,574.51l.23-.09,2.26-1.11Z" transform="translate(-780.27 -545.58)"/><path class="cls-1" d="M806.4,573h0S806.4,573,806.4,573Z" transform="translate(-780.27 -545.58)"/><path class="cls-1" d="M804.32,576.68h.08l1.17.18-1.36-.2Z" transform="translate(-780.27 -545.58)"/><path class="cls-1" d="M790.12,565c0-.09,0-.18,0-.24C790,564.81,790,564.89,790.12,565Z" transform="translate(-780.27 -545.58)"/><path class="cls-1" d="M805.57,576.87h0l.42.06Z" transform="translate(-780.27 -545.58)"/><path class="cls-1" d="M804.05,574.57l0,0Z" transform="translate(-780.27 -545.58)"/><path class="cls-1" d="M806,573.36l0,0Z" transform="translate(-780.27 -545.58)"/><path class="cls-1" d="M802.64,575.17l-.1,0h0Z" transform="translate(-780.27 -545.58)"/><path class="cls-1" d="M801.65,575.51l.87-.24-.23.06Z" transform="translate(-780.27 -545.58)"/><path class="cls-1" d="M787.62,590.39c1-.79,2.11-1.63,3.22-2.45C788.27,589.83,787.12,590.19,787.62,590.39Z" transform="translate(-780.27 -545.58)"/><path class="cls-1" d="M791.91,565.74a8.86,8.86,0,0,1-1.79-.74.88.88,0,0,0,.18.24C790.93,565.46,791.53,565.65,791.91,565.74Z" transform="translate(-780.27 -545.58)"/><path class="cls-1" d="M835,563.37l-.45.7C834.87,563.8,835,563.54,835,563.37Z" transform="translate(-780.27 -545.58)"/><path class="cls-1" d="M810.39,601.35l-.15.55C810.31,602,810.37,601.87,810.39,601.35Z" transform="translate(-780.27 -545.58)"/><path class="cls-1" d="M835.58,565.25c-1.49.55-2.35.89-2.9,1.15l1.13-.28Z" transform="translate(-780.27 -545.58)"/><path class="cls-1" d="M790.87,587.91l0,0Z" transform="translate(-780.27 -545.58)"/><path class="cls-1" d="M780.58,591.71c.1.4,5-2.91,7.92-4.65,1.62-.58-3.58,2.48-6.06,4.23,1.48-.6,6.13-3.4,6-3.12-.8.55-1.08.78-2.12,1.41,2-1.18,2.19-1.05,2.48-1s.72,0,3.2-1.56l-1.17.89c2.38-1.77,4.83-3.52,6.58-4.76.15,0,3.13-2,0,.28a22.27,22.27,0,0,0-2.2,1.47l1.42-.89c-4.4,3.38-1.65,1-5,3.4,1.65-.8,5.5-3.34,4.36-2.24-4.26,3.37-1.77.7-5.42,3.87.47-.52.94-1,1.43-1.54-6.72,5.33.33-.56-6.87,5.12-.87,1.46,2.62-1.12,1.75.33,2.43-1.78,3.46-2.82,5.89-4.62,2.33-1.44-.24.82-2.58,3s-4.5,4.21-1.54,2.1,8-6.82,5.55-4.09l-4.63,4c0,.9,6.66-5.79,4.08-2.53-1.81,1.62-1.79,1.08-2.25,1.66-3.2,3.67,2.72-2.2,2.9-2l-3.8,3.88c1.12-.08,4.36-2.45,5.47-2.79a37.09,37.09,0,0,0-3.22,3.8c1.29-.7,1.53-.29,1.48.81a41.79,41.79,0,0,1-.65,4.63q1.49-1.85,2.9-3.73a12,12,0,0,1-1.5,2.63c-.48,1.79,1.56-2.54,2.69-4,.36-.16-1.07,2.51-1.93,3.64a43.72,43.72,0,0,1,3.79-3.81c.91-.67,1.24-.41.61,2.06l-.7,1.22c-.07,1,1-1.14,2-3s1.67-3.51,1.11-1.38l-.38.74c.2,1.16,1,.84,1.55,1.06s.88,1,.73,4.6c.78-3.29.93-2.49,1.19-2s.58.6,1.25-4.07c0,2.36,0,4,0,5.37a12.21,12.21,0,0,0,.78,4.26c.39.45.86-5.86,1.22-6.83l-.1,4.92c.24-1.71.44-3.44.6-5.16.09,2,.21,3.93.36,5.9l.41-1.28a13.35,13.35,0,0,1-.41-3.62c.26-1.13.6-.28,1,1.15a34.68,34.68,0,0,1,.94,4.71,37.87,37.87,0,0,0,1.18-4.35,15,15,0,0,1,0,4c.2-5.11,1,5.11,1.16.41-.31-1.08-.44-2.9-.61-3.89.9,2.88,2.07,2.65,2.45,1.24l.75,3.32c.84.23,1.6-.45,2.23-1.22a6.69,6.69,0,0,1,2-2c-1.28-1.15-3.56-6.59-3.52-7.24l2.47,4.6c-1.22-3-1.25-1.58-2.57-5.33.66.34,3.09,5.08,3.52,6.77,0-.66-.11-1.3-.18-2,.79,1.34,1,2.15,1.92,3.92-.61-1.51.32-.54,1.2.12s1.66,1,.36-1.5l.88,1.27c1.74-1.1,1.37-3.14,2.31-4.31-3-3.34-2-3-4.26-5.8.79.23,2,.77,3.08,1.07s2.08.35,2.27-.21c-1.33-2-2.91-2.47-4.89-4.3,3.32,2.42,3.62,1.32,5.73,3.45a3.39,3.39,0,0,0-.09-1.85,9.26,9.26,0,0,0-1.93-2.83,23.18,23.18,0,0,1-3.47-1.58c-.51-.47,1.73.39,3.49,1.28l.35.24c-1.2-1-1.1-1.3-.31-1.35a36,36,0,0,1,3.64.23c2.79.22,5.36,0,1.41-1.71l.39.18a44.54,44.54,0,0,0-4-2.14c.79-.26,2.92,1,5.47,1.28-3.18-1.39-2.88-1.64-2.28-1.93s1.46-.52-.73-1.24c6,.59,5.9-.12,5.21-.78s-2-1.3,1.91-1.48l-2.84-.11c-2.78-.35,1.64-.15,2.3-.28a40.76,40.76,0,0,1-4.11-.1c-1.67-.87-.63-1.49,1.15-2.27a30.67,30.67,0,0,0,5.5-2.6c.71-.7-14.7.92-8-.32l5.28-.32c-3.21-.28-3.22-.79-3.12-1.38s.28-1.23-2.47-1.26a16.44,16.44,0,0,1,2.78-.34c3.72-1,0-1-3.07-.28.32-.24,2.77-.63,4.3-1.08,2.15-.76-4.91.48-1.23-.52a8.32,8.32,0,0,1,1.53-.23c-1.84.26.26-.91-4,.34,1.93-1-2.1-.26.32-1.31-2.41.58-1.89.25-1.62,0s.31-.43-3,.61c6.91-2.16,5.28-2.62,2-1.73,2.09-.64,2-1,4.92-2-.23-.33-1.6-.16-5,1.25,3.92-1.87,2.16-1.57.72-1.27s-2.56.57,2.41-1.91l-5.13.72c-1.44.19-2.57.35-3.53.41,3.1-1.84,3.41-1.68,3.73-1.57s.67.2,4-1.62a38.05,38.05,0,0,0-5.39,1.62c-1.65.57-2.74.92-2.24.08a19.06,19.06,0,0,1,3.75-2.23c-1.5.4-1.66-.08-1.91-.49s-.6-.75-2.41.16a12.64,12.64,0,0,1,1.63-1.1c-.29,0,.53-1-2,1.12l.79-.44a62.37,62.37,0,0,1-5.54,4.4c-1.77,1.32-3.3,2.49-4.24,3.33,7.17-6.09,1.35-2,10.34-9.8a23.28,23.28,0,0,0-3.35,2.8,17,17,0,0,1,3.18-3.06c-1.78.73-4.08,3.36-4.4,2.95,1.11-1.14,1.61-1.5,3-2.79-2.4,2-4.68,4.1-4.07,2.83.66-.7,1.45-1.66,1.54-1.55-.45-.1-2.08,1.25-3.32,2.33s-2.15,1.9-1.53.49c4.24-5.45,1.13-2,4.51-6.9-.49.38-1,.77-1.45,1.17l-1.46,2.51c-.3-.33-2.87,3.2-2.08,1.38.5-.65,1-1.31,1.52-2-.41.19-.79.39-1.26.57a20.82,20.82,0,0,1-.76,2.18c-1.84,2.48-3.81,6.51-3.27,4.92.34-.51-.13-.15,1.28-3.38v0c-1,1.63-1.93,3.41-1.51,2,.7-1.78,2.67-6,3.14-7.22-1.11,2.23-1.46,2.46-1.82,2.74s-.74.6-1.67,3.1c.46-1.17,1.48-4.13,1.66-4.75-.49,1.26-1,2.53-1.43,3.8a30.17,30.17,0,0,1,1.18-4.27c-.19-.45-.68,1.39-1.1,2.91s-.76,2.74-.56,1.09c.13-.3.27-.9.53-1.46-.07-.91-.54-.35-.93.18s-.71,1.06-.8,0c.74-6,.76-1.36,1.41-6.39-.66.43-1.44,2.14-2,3.6s-1,2.6-1.3,1.88l.12.67c-.14,4.23-.18,3.18-.33,1.58s-.42-3.77-.52-1.76c.05-.63,0-4.71,0-3.77-.67-1.34-1.16,2.15-1.36,4.9l-.24-2.17c-.59-1.88-1-1-1.52-1.88a30.34,30.34,0,0,0,.94,4.91c-.89-3-1.46-4-1.74-4s-.27.87-.18,1.86a10,10,0,0,1,.13,2.22c-.13.2-.55-.44-1.78-2.73a6.7,6.7,0,0,0-.58-1.84c0,.73,0,1.46.05,2.18,1.63,3.32,1,2,2.36,4.54l1,2.57a4.54,4.54,0,0,1,.36,1.08,51.69,51.69,0,0,0-3.69-7.1c.53,1,1.06,2.13,1.6,3.15-3.35-5.67,3.42,6.61,1.07,2.84l-.94-1.7c.35.93,1.59,3.18,1.22,2.76-2.31-3.6-.94-1.76-2.74-4.79a19.25,19.25,0,0,0,1.62,3.25c.71,1.29,1.18,2-.1.34-.61-1-.51-1.11-1.06-2.16-3-4.07-2.35-2.94-3-3.47l.09.08q-.9-.76-1.86-1.47l1,1c3.15,4.59,3.41,5,3.29,5.18s-.58,0,1.79,2.72c-2.24-2.63-2.84-3.43-3.37-4s-.91-.83-2.53-2.63a28.25,28.25,0,0,1-3.16-2.83c1.21,1.55.59,1.07.06.83s-.92-.27,1,1.86c-1.17-1-.38.19-3.25-2.47.55,1.24,2.13,1.69,3.54,3,1.77,2,.36,1.19-1,.74s-2.72-.45.12,1.92c2.13,2.28,6.8,4.79,9.12,6-1.16-.46-2.47-1-3.47-1.5s-1.69-.89-1.69-.89c-2.22-.67-2-.13-.38.71a32.13,32.13,0,0,0-4.08-1.28c.28.47,5.36,1.9,3.07,1.55-1.66-.52-4.31-1.37-5.92-2.07a34.34,34.34,0,0,0,5.27,2.6,25.87,25.87,0,0,1-5.67-1.67c1,.86,2.13,1.9,6.4,2.51.51,0,1,0,1.55,0a29.77,29.77,0,0,1-4.42-.7c-1.64-.46-1.24-.57-.25-.47s2.58.37,3.35.52l.94.38c4.53.71,4.17.65,2.79.17s-3.74-1.41-3.41-1.54c2.08.74,4.19,1.45,6.31,2.11-1.76-.58-3.47-1.23-5.16-2,1.66.5,5.14,1.82,6.06,2.18,1.56.53,1,.35.5.14s-1-.41.74.28l.14.07h0l-.91-.41.93.42h0l.06,0,.09,0h0l.07,0h0l-.9-.55c-1.4-.89-3.23-1.92-5.53-3.65q2.56,1.59,5.06,3.27l1.46,1h0l0,0-.5-.36.57.42s.06,0,0,0l-.73-.55c-.4-.31-.8-.59-2-1.57,1.8,1.32,1.4,1,1.35.89s0,0,.45.32c.24.23.6.55,1.26,1.15h0l-.16-.15-.8-.74c-.42-.39-.76-.66-1.67-1.59,3.06,2.86,2.77,2.64,2.12,2s-1.64-1.77-.3-.39l.91,1,.06.07h0l0,0,0,0a2.36,2.36,0,0,1,.2.23l.06.09.07.09,0,0v0l-.17-.25.21.31.06.09.12.21h0l0,.08,0,.06-.25-.53.28.57s0,0,0,0h0l0,0,0,.07,0,.08v0a1.28,1.28,0,0,1,.09.22L806.38,569a59.76,59.76,0,0,1-2.1-6.23c.74,2.09,2,5.68,2.25,6.54-.1-.28-.57-1.75-.24-.87.38,1.19.77,2.37,1.18,3.54.53,1.55-1-2.95-.86-2.63.64,2,.48,1.45,1,3v0h0v0h0s0,0,0,0,0,0,0,0l0-.2c-.4-2.31-.18-1.67-.06-.68l.09.77c0,.09,0,0,0,0v-.08h0v-.38c0-.56,0-1.14.06-1.88,0,0,0,.73,0,1.68l0,.33h0a1.62,1.62,0,0,1,0-.18v.07l0-.21s0-.07,0-.12v.07l0-.14v0a4.73,4.73,0,0,1,.13-.49s0,.1,0,.06l.08-.19a.71.71,0,0,1,.07-.16h0l.35-.64.41-.7c-.07.16-.36.66-.76,1.36l-1.16,2h0l1.2-2h0s0,0,0,0h0l-1.19,2h0l0,0h0l-.06.07,0,0h0l-.12.14,0,0-.05.06,0,0,0,0,0,0-.09.09.06-.06-.05,0h0l-.17.16-.06.05c.06-.05,0,0,0,0l-.14.11,0,0-.13.1,0,0-.32.25-.06,0-.34.22c.06,0,.07,0-.06.05l.29-.2-.19.13.24-.16-.06,0,1.21-.83-1.27.87,0,0,.54-.34c.89-.58,2-1.24.37-.21l-1,.62-.16.09h0c-.21.12-.39.23-.73.41l.11,0-.31.15-.11,0-.3.15-.16.07-.32.13,2.47-1c.77-.3,1.21-.46,1-.34L803,575l.12-.06-.2.09-.38.14h0l.16-.06L803,575l1.43-.51c.91-.33,1.63-.57,1.51-.52l-1.47.52c1.47-.53,2-.66,5.32-1.83-4.64,1.68-4.47,1.62-4.12,1.57s.89-.12-3.19,1a18.46,18.46,0,0,1,2.26-.46l-1.21.28c-2.86.68,8.85-2,5.68-1.1-5,1.1-2.71.51-4.6,1-5.08,1.09-4.74,1-3.86.83s2.3-.41-.68.15l-.6.11-.26.05h-.08l.88-.15c1.31-.22,3-.46,2.62-.38l-1.56.24a61.14,61.14,0,0,1,8.49-.89c-4.05.43-2.15.2-6.25.71.59,0,6.59-.81,7.75-.82-2.2.3-4.13.57-8.52,1h-.24c-5.68.61.2,0-.79.15l-2.48.22c.81-.06,7.07-.53,6.64-.36l1.88-.13c6.22-.28-3.49.26,1.13.1l-6.3.32c1.52-.06,6.1-.1,7.29,0-4.68,0-7.08,0-9.86.1a2.63,2.63,0,0,0,.61,0l3,0c-.61,0-2.16,0-1.19,0,5-.11,7.41,0,7.3.11-6.12,0-6.89.05-7.32.06-.22,0-.35,0-1,0l-.52,0c.54,0,1.07.06,1.57.09s1,.09,1.53.16c-.19,0-.11,0,0,0l2,.27c.62.1.46.09-.17,0l-.72-.1-.36-.06h0l.17,0,.34.06-.19,0,.49.08.41.09-.36-.08c.63.14.54.11,1.1.25l-.18-.05c.32.08,1,.27,1.22.36h0a8.92,8.92,0,0,1,1.32.56h0l.18.1h0l.2.12-.05,0a2.69,2.69,0,0,1,.41.3l.08.07h0l0,0h0l.13.15h0s0,0,0-.06a2.33,2.33,0,0,1-.18-.46s0,0,0,0l0-.15v0l0-.26h0a4.79,4.79,0,0,1-.05-.88v-.21h0a3.56,3.56,0,0,1,.06-.44v0a1,1,0,0,1,0-.2v0a2.17,2.17,0,0,1,.07-.28h0s0,0,0,0l0,0h0l0,.06h0l-.05.09v0l0,.08-.08.13-.07.09,0,0-.06.09h0l1.35-1.78,0,0,.12-.17h0l-.18.23,0,0c.07-.09.17-.22.27-.33l0,0h0l.08-.08.09-.11.21-.22h0l-.06.06,0,0h0l-.15.16.17-.18,0,0c-.48.52-1,1-1.4,1.48l-2.13,2.21c2-2.14,4.49-4.67,3.85-4l.15-.15.5-.47.25-.22.06,0h0l-.1.09L812,573l-2.09,1.79c-.84.68,1.83-1.59,2.84-2.45l.12-.09h0l0,0,0,0-.09.07.21-.18.12-.1-.3.25-3.74,3c2.06-1.71,4.27-3.37,3.49-2.81l1.24-1c.25-.2.48-.37.71-.53l.18-.14-.71.51c-.65.46-1.34,1-2,1.44-2.8,2-5.5,3.52-.51.09l-1.72,1.16c2.15-1.58,1-1,.2-.72s-1.37.3,2.26-1.9c1.45-.91-1.87.89-4.43,2.18l4.24-2.31-5,2.51c-3.73,1.68,10.36-5.77,3.39-2.45L807.38,573c.5-.36-1.86.59,1.49-1.08-.53.26-3,1.49-1.54.69l2.26-1.14-4,1.72c1.55-1,9-4.45,9.31-4.92-.92.34-6.73,3-8.23,3.78a39.93,39.93,0,0,1-3.63,1.93l-1.22.49c-6.69,3.29-13.57,6.59-18.1,9.16l4.17-1.85-3.21,1.66-.28,0c-3,1.6-.28.32,1.6-.54-1.72.87-2.91,1.49-3.53,1.85l6.46-3c-2.59,1.33-5.21,2.5-6.58,3.35,3-1.39,5.79-3,7.8-3.84-3,1.61-5.45,2.83-2.81,1.63-1.71.88-2.81,1.41-3.59,1.75a43.8,43.8,0,0,0,4.57-1.91c-3.67,2,1.14-.16-5.13,3.07,1.52-.74,5-2.35,5.33-2.39-7.58,3.73-.24.61-8.26,4.81,6.78-3.41,3.29-1,7.13-2.76a8,8,0,0,1-1.29.63c-.46.46-2.43,1.63-3.61,2.45,5.47-3.06,6.85-3.52,10.26-5.35-5.12,3.23-6.44,3.58-11.43,6.54,4.39-2.55,4.61-2.16,8.21-4.39-3.13,2.06-1.49,1.06-5.9,3.81,6.74-4,1.24-.52,5.44-2.89-3.16,2.25-6.22,3.91-4,2.94A32.11,32.11,0,0,1,780.58,591.71ZM797,590.43l-.06.07-.31.07A2.48,2.48,0,0,0,797,590.43Zm.64.43c0-.2,0-.29-.15-.34a21.42,21.42,0,0,1,2-2.34A23.7,23.7,0,0,0,797.68,590.86Zm13.47-17-.06.07.07-.08h0Z" transform="translate(-780.27 -545.58)"/><polygon class="cls-1" points="30.95 28.2 30.97 28.18 30.95 28.2 30.93 28.22 30.95 28.2"/><path class="cls-1" d="M807.61,572.36h0s0,0,0,0l0-.19,0,.22Z" transform="translate(-780.27 -545.58)"/><polygon class="cls-1" points="28.58 58.01 28.6 56.87 28.46 57.86 28.58 58.01"/><path class="cls-1" d="M800.79,558.87c-.19-.35-.39-.71-.58-1C800.35,558.13,800.56,558.48,800.79,558.87Z" transform="translate(-780.27 -545.58)"/><path class="cls-1" d="M798.47,559.09c-.39-.38-.8-.75-1.21-1.11A14.36,14.36,0,0,0,798.47,559.09Z" transform="translate(-780.27 -545.58)"/><path class="cls-1" d="M795.57,558.55l1.27,1.46,0,0Z" transform="translate(-780.27 -545.58)"/><path class="cls-1" d="M825.51,557.36a.33.33,0,0,0,.21-.07C826.51,556.88,826.17,557,825.51,557.36Z" transform="translate(-780.27 -545.58)"/><path class="cls-1" d="M813,560.45a21.1,21.1,0,0,1,1.18-1.78C814.17,558.3,814.09,558.16,813,560.45Z" transform="translate(-780.27 -545.58)"/><path class="cls-1" d="M835,563.28l-.08,0s0,0,0,.06Z" transform="translate(-780.27 -545.58)"/><path class="cls-1" d="M814.45,558.92c.3-.86.08-.75-.31-.25C814.11,559,814,559.46,814.45,558.92Z" transform="translate(-780.27 -545.58)"/><path class="cls-1" d="M788.49,567.48l-.21.12.71.12Z" transform="translate(-780.27 -545.58)"/><path class="cls-1" d="M789,567.72l.5.23C789.5,567.88,789.48,567.82,789,567.72Z" transform="translate(-780.27 -545.58)"/><path class="cls-1" d="M790.58,568.4c-.37-.14-.73-.29-1.09-.45C789.46,568.06,789.31,568.18,790.58,568.4Z" transform="translate(-780.27 -545.58)"/><path class="cls-1" d="M791.49,564.42l-1.49-.65C790.3,563.91,790.78,564.13,791.49,564.42Z" transform="translate(-780.27 -545.58)"/><path class="cls-1" d="M791.49,563.25c-.43,0-3.45-.82-2.68,0l1.19.53c-1.09-.55-.1-.4.85-.21S792.68,564,791.49,563.25Z" transform="translate(-780.27 -545.58)"/><path class="cls-1" d="M806.49,570.66l-.13-.1s.06,0,0,0Z" transform="translate(-780.27 -545.58)"/><path class="cls-1" d="M806.85,571h0S806.89,571.07,806.85,571Z" transform="translate(-780.27 -545.58)"/><path class="cls-1" d="M807.59,571.88h0S807.59,571.89,807.59,571.88Z" transform="translate(-780.27 -545.58)"/><path class="cls-1" d="M811.05,555.47c.09-.84.17-1.69.25-2.54l-.84,3.66C810.65,556.21,810.84,555.84,811.05,555.47Z" transform="translate(-780.27 -545.58)"/><polygon class="cls-1" points="27.47 25.48 27.46 25.5 27.48 25.42 27.47 25.48"/><path class="cls-1" d="M801.33,575.59l1.34-.39Z" transform="translate(-780.27 -545.58)"/><path class="cls-1" d="M802.88,576c-2.52.17-4.13.26-1.66.15C801.57,576.08,803.52,575.94,802.88,576Z" transform="translate(-780.27 -545.58)"/><polygon class="cls-1" points="29.18 32.02 29.19 32.07 29.18 31.98 29.18 32.02"/><path class="cls-2" d="M925.34,576.24" transform="translate(-780.27 -545.58)"/><path class="cls-2" d="M925.34,576.24" transform="translate(-780.27 -545.58)"/><path class="cls-2" d="M925.34,576.24" transform="translate(-780.27 -545.58)"/><path class="cls-1" d="M917.11,590c-.79-1.13-2.56-3.69-2.53-3,.92,1.5,1.8,3,2.63,4.6A14.41,14.41,0,0,0,917.11,590Z" transform="translate(-780.27 -545.58)"/><path class="cls-1" d="M910.58,582.42c.39,1.22.81,3,1.24,5a42.83,42.83,0,0,0,1.83,6.59l-.53-4.18a21.56,21.56,0,0,0-1.28-4.72c-.06-.66,1.12,1.33,2,3.09-.24-.64,0-.44.17-.48s.21-.3-.58-1.76c-2.51-3.31-2.33-3.53-1.6-.19C911.31,584.66,910.93,583.33,910.58,582.42Z" transform="translate(-780.27 -545.58)"/><path class="cls-1" d="M911.38,578.7h0Z" transform="translate(-780.27 -545.58)"/><path class="cls-1" d="M914.44,582.61c0,.13.12.65.23,1.11C914.6,583.38,914.55,583.06,914.44,582.61Z" transform="translate(-780.27 -545.58)"/><path class="cls-1" d="M915.94,588.27l-.09-.35C916,588.4,916,588.66,915.94,588.27Z" transform="translate(-780.27 -545.58)"/><path class="cls-1" d="M911.38,578.7l.07.07Z" transform="translate(-780.27 -545.58)"/><path class="cls-1" d="M905.89,595a3.26,3.26,0,0,0,.83-1.25,2.39,2.39,0,0,1-.61.45C906,594.42,906,594.66,905.89,595Z" transform="translate(-780.27 -545.58)"/><polygon class="cls-1" points="129.49 32.06 129.53 32.06 129.56 32.06 129.49 32.06"/><path class="cls-1" d="M911,577.42h0l0,0Z" transform="translate(-780.27 -545.58)"/><path class="cls-1" d="M909.72,579l0,0Z" transform="translate(-780.27 -545.58)"/><polygon class="cls-1" points="128.89 31.93 128.89 31.93 128.89 31.93 128.89 31.93 131.01 33.04 131 33.04 131 33.04 131 33.04 131.01 33.04 128.89 31.93 128.89 31.93 128.89 31.93"/><path class="cls-1" d="M928.93,607.39l-.35-.83C928.77,607,928.91,607.36,928.93,607.39Z" transform="translate(-780.27 -545.58)"/><path class="cls-1" d="M918.79,582.49l-.07-.13-.77-1.71Z" transform="translate(-780.27 -545.58)"/><path class="cls-1" d="M917.52,593.87l0-.09C917.53,594.29,917.53,594.2,917.52,593.87Z" transform="translate(-780.27 -545.58)"/><path class="cls-1" d="M930.15,590.25c.12-4,.61-5.13.69-9.6C930.73,582.41,930.14,587.63,930.15,590.25Z" transform="translate(-780.27 -545.58)"/><path class="cls-1" d="M905.7,594.3a.87.87,0,0,1-.51-.09C905.36,594.41,905.54,594.44,905.7,594.3Z" transform="translate(-780.27 -545.58)"/><path class="cls-1" d="M930.84,580.65v0Z" transform="translate(-780.27 -545.58)"/><path class="cls-1" d="M920.42,590.87l-.17-2C920.29,589.35,920.33,589.87,920.42,590.87Z" transform="translate(-780.27 -545.58)"/><path class="cls-1" d="M917.34,584.72l.12.6A3.21,3.21,0,0,0,917.34,584.72Z" transform="translate(-780.27 -545.58)"/><path class="cls-1" d="M921.34,584.45c0,.35.1,1,.11.36l0-.55C921.43,584.88,921.42,585.17,921.34,584.45Z" transform="translate(-780.27 -545.58)"/><path class="cls-1" d="M922.77,584.37c0-.33,0-.6-.06-.91l0,.25Z" transform="translate(-780.27 -545.58)"/><path class="cls-1" d="M933.84,604c-.71-1.08-1.46-2.29-2.19-3.49C933.33,603.24,933.55,604.41,933.84,604Z" transform="translate(-780.27 -545.58)"/><path class="cls-1" d="M906.47,592.49a4.33,4.33,0,0,1-.77,1.81,1.27,1.27,0,0,0,.41-.15A9,9,0,0,0,906.47,592.49Z" transform="translate(-780.27 -545.58)"/><path class="cls-1" d="M919.54,549l.37.65C919.79,549.23,919.66,549,919.54,549Z" transform="translate(-780.27 -545.58)"/><path class="cls-1" d="M948.59,589.46l.4.39C949.1,589.87,949,589.76,948.59,589.46Z" transform="translate(-780.27 -545.58)"/><path class="cls-1" d="M920.86,549c.13,1.58.23,2.5.31,3.1V550.9Z" transform="translate(-780.27 -545.58)"/><path class="cls-1" d="M931.63,600.42l0,0Z" transform="translate(-780.27 -545.58)"/><path class="cls-1" d="M934.33,611c.43,0-2.58-5.41-4.11-8.57-.41-1.62,2.26,4,3.86,6.68-.46-1.55-2.91-6.51-2.6-6.37.5.88.71,1.18,1.26,2.3-1-2.17-.84-2.28-.72-2.54s.16-.66-1.19-3.31l.8,1.27c-1.58-2.58-3.13-5.22-4.21-7.1.08-.14-1.69-3.33.36,0A20.1,20.1,0,0,0,929,595.7l-.72-1.51c3,4.79.79,1.74,2.91,5.33-.6-1.7-2.69-5.79-1.65-4.51,3,4.63.43,1.79,3.31,5.82l-1.48-1.64c4.79,7.32-.56-.41,4.52,7.43,1.42,1.07-.83-2.68.58-1.62-1.52-2.63-2.47-3.78-4-6.39-1.15-2.45.85.36,2.77,2.95s3.69,5,1.92,1.82-5.81-8.76-3.37-6l3.43,5.11c.88.16-4.88-7.36-2-4.32,1.35,2,.83,1.89,1.34,2.43,3.2,3.71-1.83-3-1.6-3.12l3.31,4.33c0-1.07-1.84-4.56-2-5.7a43.9,43.9,0,0,0,3.17,3.84c-1-2.63,1.84-.66,4.75,1l-3-3.66a16.14,16.14,0,0,1,2.14,2.15c1.49,1-2-2.17-3.2-3.61-.1-.36,2.06,1.76,2.95,2.86a45.07,45.07,0,0,1-2.86-4.42c-.48-1-.17-1.13,1.86.38l.93,1c1.73,1-6.69-6.92-3.22-4.22l.56.61c1.07.34,1-.42,1.33-.73s1.17-.22,4.21,1.67c-2.6-2.17-1.86-1.9-1.37-1.85s.72-.1-3.05-2.94l4.62,2.72a17.42,17.42,0,0,0,3.89,1.71c.53,0-4.64-3.64-5.3-4.42l4.11,2.72c-1.35-1.09-2.71-2.15-4.09-3.2l5.09,3-.89-.95a18.06,18.06,0,0,1-3.21-1.72c-.83-.79,0-.55,1.4,0a41.79,41.79,0,0,1,4.33,2q-1.46-1.63-3-3.14a21.2,21.2,0,0,1,3.26,2.23c-4.09-3,4.64,2.35.89-.42-1-.44-2.58-1.41-3.46-1.88,2.79,1.1,3.19.35,2.28-.69l3,1.52c.64-.31.53-1.13.3-1.91a4,4,0,0,1-.32-2.32c-1.66,0-7.19-2.06-7.64-2.5l5,1.46c-3-1.19-2-.27-5.61-1.88.69-.18,5.76,1.44,7.29,2.24-.51-.38-1-.75-1.55-1.1,1.5.4,2.25.76,4.14,1.37-1.52-.59-.18-.48.88-.56s1.85-.29-.83-1.16l1.51.32c.44-1.62-1.21-2.81-1.3-4.19-4.47-.51-3.42-.91-7-1.55,1.48-.69,5.09-1.72,4.61-3.06-2.29-.73-3.82,0-6.51-.15,4.09-.34,3.59-1.53,6.58-1.22a4.34,4.34,0,0,0-1.33-1.64,9.57,9.57,0,0,0-3.41-1.24,17.12,17.12,0,0,1-3.61,1.2c-.72-.06,1.49-1,3.39-1.53l.44,0c-2.17-.05-1.7-.79-.57-2l-13-9.93c-.19-2.95-.19-9-1.08-3.43l.07-.42-1,4.39c-.2-.73.42-3.06.44-5.61-1.18,6.77-.92-1.06-1.78,3.44.23-6-.17-5.85-.59-5.12s-.89,2-1-1.85l-.12,2.85c-.28,2.77-.08-1.64-.16-2.3-.09,2.21,0,2.57-.14,4.11-1.31,3.37-2.26-4.26-3.54-6.85-.47-.77-.46,14.72-.93,7.92l.21-5.28c-.95,6.32-1.91-.23-2.74,5.16a27.13,27.13,0,0,1,.1-2.78c-.24-3.84-.71-.18-.63,3-.15-.35-.1-2.83-.22-4.42-.24-2.26-.35,4.91-.55,1.1a11.15,11.15,0,0,1,0-1.55c-.07,1.86-.6-.45-.34,4-.4-2.1-.56,2-.92-.62,0,5-.66-2.36-.41,4.64-.29-7.23-.86-5.8-.88-2.39,0-2.19-.3-2.26-.38-5.29-.24.12-.38,1.47-.13,5.18-1-8.62-.42,7-1.38-4.05a68.41,68.41,0,0,1-1.33,8.34c-.59-7.19.61-.77,0-8.32-.39,3-.17,9.22-.89,7.53a32.48,32.48,0,0,1-.27-4.36c-.3,3-1.22-.53-1.32,3.43-.07-.67-.1-1.41-.1-2-.08.24-.36-1,0,2.23v-.89c.67,4.71.7,9.93,1,12.43-.89-9.36-.74-2.3-1.84-14.13a42.61,42.61,0,0,0,.37,4.35,28,28,0,0,1-.54-4.38c-.16,1.82.38,5.27.06,5.23-.2-1.58-.21-2.19-.4-4,.22,3.09.41,6.19-.08,4.9a11.14,11.14,0,0,1-.21-2.17c-.26.27-.22,2.35-.22,4s0,2.86-.58,1.44c-1-6.83-.61-2.2-1.74-8.07l-.07,1.83.7,2.82c-.37,0,.25,4.28-.42,2.42l-.28-2.45-.39,1.25c.3.7.58,1.41.85,2.12.38,3.08,1.69,7.37,1,5.83a28.59,28.59,0,0,1-1.27-3.39v0c.32,1.88.73,3.85.14,2.47-.58-1.82-1.75-6.36-2.14-7.57.59,2.42.5,2.81.42,3.24s-.18.91.57,3.46c-.33-1.2-1.3-4.18-1.53-4.79l1.15,3.9a29.72,29.72,0,0,1-1.59-4.14c-.74-.52,2.67,7.09,1,4.21-.07-.32-.3-.88-.42-1.49-.58-.7-.65,0-.67.68s0,1.31-.73.52c-2.76-5.34-.1-1.57-2.43-6.08-.29.72,0,2.63.22,4.18s.49,2.81-.29,2.47l.52.45c2.29,3.57,1.64,2.74.54,1.55s-2.66-2.73-1.63-1c-.3-.56-2.75-3.82-2.21-3-.74-.29-.81.46-.48,1.54a26.83,26.83,0,0,0,1.69,3.81l-1.53-1.56c-1.78-.95-1.7.28-2.84.17a18.36,18.36,0,0,0,4,3.06c-2.75-1.47-4-1.64-4.29-1.34a.33.33,0,0,0-.08.32,3.84,3.84,0,0,0,.16.52,5.54,5.54,0,0,0,.8,1.32c.68.88,1.48,1.63,1.53,2.06s-.77.6-3.41.77c0-.24-1.77-.95-1.82-.73a10.39,10.39,0,0,0,1.8,2.07c3.7,0,2.25-.14,5.13-.16a27.42,27.42,0,0,1,3.87.67,29.18,29.18,0,0,0-4.15-.14,27.93,27.93,0,0,0-3.85.47c1.13-.08,2.38,0,3.53-.08-3.28.43-1.41.42.72.3s4.51-.28,2.34.18l-1.94.2c1,.15,3.56-.13,3.06.11-4.17,1-2,.2-5.47.77.16.24,2.2,0,3.66-.17s2.33-.38.32.36a21.9,21.9,0,0,1-2.44.13,16.59,16.59,0,0,0-3.61,1.43c-.36.24-.21.32-.53.65l.1-.08a22.33,22.33,0,0,0-1.8,1.71l1.18-.73c5.35-1.6,5.86-1.71,6-1.47s-.11.72,3.18-.88c-3.12,1.51-4.06,1.86-4.68,2.28a31.07,31.07,0,0,1-3.13,1.88,19.39,19.39,0,0,1-3.38,2.58c1.82-.75,1.26-.19,1,.34s-.37,1,2.16-.39c-1.24.95.21.54-3,2.82,1.45-.13,2-1.82,3.66-2.92,2.38-1.24,1.41.1.9,1.56-.27.72-.45,1.43-.11,1.72s1.11.11,2.53-1.09c2.91-1.58,5.86-6,7.21-8.28a34.23,34.23,0,0,1-1.57,3.43,15,15,0,0,1-1,1.63c-.52,2.29.33,2.18,1.29.6a15.33,15.33,0,0,0-.92,4.17c.83-.24,1.6-5.46,1.83-3.09a30.94,30.94,0,0,1-1.72,6.06c1.33-1.2,2.42-4,3-5.47a9.57,9.57,0,0,1-.15,3.3c-.21.92-.56,1.71-.81,2.59a7.08,7.08,0,0,0,2-2.28,7.48,7.48,0,0,0,.35-4.65,13.33,13.33,0,0,1-.68-1.43c.16-.24.79,3.63.62,4.44-.18,1.73-.64,1.39-.89.41a17.24,17.24,0,0,1-.44-3.37,8.71,8.71,0,0,0,.34-1c-.6-4.54-.46-4.18-.82-2.73a14.78,14.78,0,0,1-.75,2.41c-.31.74-.67,1.24-.84,1.07.64-2.13,1.19-4.29,1.64-6.46a27,27,0,0,1-1.76,5.25c.36-1.71,1.62-5.21,1.92-6.15l.14-.46s0-.07,0,0a2.48,2.48,0,0,1-.18.46l.11-.29.14-.33h0l0-.07s.1-.18-.12.26l.16-.32h0l0,0a2.16,2.16,0,0,1,.34-.57l0,0,.13-.17v0l-.6.76a49.6,49.6,0,0,1-4.35,5q1.88-2.35,3.89-4.6l1.28-1.39,0,0h0l-.58.59s.9-.91.66-.68l0,0h0l-.2.19-.67.63c-.37.35-.7.7-1.87,1.76,1.57-1.59,1.17-1.24,1-1.24s0-.06.39-.4l1-.75.63-.46-.43.31-.88.65a22.26,22.26,0,0,1-1.9,1.3c3.41-2.43,3.14-2.18,2.35-1.7s-2.11,1.19-.46.19l1.43-.81s0,0,0,0a.86.86,0,0,1-.26.1,2.55,2.55,0,0,1-.53.11h0l-.38,0h-.15l-.21,0a.83.83,0,0,1-.2-.05h0l-.11,0-.24-.07c-2.56-.79-5-1.43-6.15-2.25,2.09.72,5.64,2.07,6.49,2.35-.28-.07-1.72-.64-.82-.32l.8.32h0l-.08,0,2.12,1.11h0a.84.84,0,0,1,.09.07h0l-.07-.06-.37-.32a1.37,1.37,0,0,1-.25-.25,4.34,4.34,0,0,1,.68.6l.36.36.1.11.18.22h0l.15.19.08.09s.09.14,0,0c-.28-.39-.64-.94-1.53-2.39,0,0,.12.15.29.4l.65,1,.83,1.31.23.37h0l.09.15-.34-.57c-.14-.23,0-.07.63,1.07l-.15-.26a8,8,0,0,1,.48.92c-.09-.17.19.37.29.6l-.16-.34c.13.26.23.49.33.72l-.05-.12.32.79q.17.4.3.78c.1.3.2.56.28.79l.15.45.12.4c0,.09,0,.09,0,0s-.11-.34-.17-.53c-.34-1.05-.54-1.65-1.16-3.54.15.33.79,2.31,1.37,4.23.15.5.28.92.31,1l.17.61,0,.22,0,.09-.17-.61c-.52-2-1-4.11-.73-3.15-.45-1.84-1.72-6.74-1.94-8.53.36.63,1.9,7.73,2.19,9.23a8.41,8.41,0,0,1-.26-1.06c.13.68.3,1.48.79,3.48l-.43-1.85c.45,1.88.48,1.67,1.11,4.72-.36-1.77-.62-3.05-.87-4,.64,2.68.13.06.58,1.86-.11-.58-.25-1.36-.37-2l-.16-.86c0-.22-.06-.35-.06-.35.6,2.29-.54-3.56-.47-4.41.56,2.84,1.05,6.83.83,4.41.38,1.92.75,5,1,6.51-.46-3.64.52,2.36.63,3l.16,1.52c-.1-.9-.08-.88,0-.87l-.52-3.77c.12.66.15.66.35,2.24-.27-2.48-.84-6.27-1.13-9.66.33,1.91.05-2.09.68,2.91-.49-1.66.63,5,.49,5.86,0-.6,0-.59.17.07s.12,1,.14,1.33c.77,4.44-.56-5.68-.26-5.59a37.67,37.67,0,0,0,.64,4.73,22.32,22.32,0,0,1-.35-2.64c-.15-1.44-.3-3.15-.37-4.23.43,2.17,0-1.66.16-1.42l-.23-1a11.36,11.36,0,0,1-.08-3.37c.24,2.2,0,1.53.18,2.49-.36-5,.87,5.11.73,1.74.28,1.9.53,5.31.74,6.6-.14-3.69.59,3.85.52.8a62.12,62.12,0,0,1-.51-6.58l-.14,2.71-.26-5.55c-.13,0,0,2.41-.17,1.77a50.94,50.94,0,0,0-.45-5.31c.7,5.68,0-3.36.6.48l.82,9.41c.62,4.18.07-4.88.64-2.53l-.25-1.63c-.24-3.75.19-.54.2-2.07.22,3.16.38,4.3.57,6.25-.17-2.34.27.2-.13-6.1l.44,4.14c.39,1.68-.22-9,.16-8,.11,3.44.36,5.66.32,8.13.1,0,.21.59.09-1.59.16,2,0-4.27.28-1.28a43.85,43.85,0,0,1-.06-4.43c0,.67.08,1.55.08,1.55-.08-1.55.07-2.12-.2-5.61.78,9.83.89-.76,1.48,7.69a8,8,0,0,1,.6-2.32c0,.94,0,1.57,0,1.24.34,2.93,0-9.07.36-5.79.26,5.1-.11,2.76,0,4.69.25,10.39.34-1.42.64,4.64l0,.61c.18,3.53.31-3.94.58-3.2v1.57a46.11,46.11,0,0,1,.77-8.53c-.1,4.07-.13,2.16-.09,6.29.11-.59,0-6.64.23-7.79.07,2.22.22,4.17.2,8.58l-.21.24c.07,5.71.27-.2.37.8l0,2.49c.31-.81.41-7.09.76-6.64v-1.89c.33-6.21.09,3.51.39-1.11l-.09,6.31c.15-1.52.6-6.09.88-7.27-.29,4.68-.62,7.07-.84,9.84.11,0,.4-.45.57-3.57-.07.61-.18,2.16-.2,1.18.3-5,.6-7.39.86-7.27-.51,12.24.55,3.11.27,12.62.64-4.5.69,2,1.17,1.27.46-9.51.15-.26.78-10,.17-.62.2-.45.17.18l-.07,5.85c-.14,2.85-.27,2.15-.42,4.34.18.76-.21,4.14-.26,6.74.23-3.49.46-5,.48-3.64l.17-4.52c.75-5.16-.38,8.21.35,3.1l-.36,3c.32-1.79.55.12,1.47-7.69-.08,1.13-.3,3.79-.44,4.49.11.48.4-.73.71-2.06L928,574.39l.14,0h-.08l-.23,0h-.33s-.32,0-.46,0h0a4.84,4.84,0,0,1-.84-.12,6.51,6.51,0,0,1-1-.23c-.21-.07-.72-.18-1.18-.37a15.39,15.39,0,0,1-1.56-.63,1.35,1.35,0,1,1-.2-.09l-.64-.28.09,0-1.05-.54,0,0h0l.93.5-1.41-.74-.47-.27-1-.57-.12-.08h0l0,0,.09.06.35.22.23.16-.84-.53-1.27-.84-.1-.07-.06,0s-.09-.06,0,0l.7.48,1.71,1.22-3.12-2.19-.93-.67-.48-.35,0,0,.25.21-.64-.5-.16-.12s0,0,0,0l0,0,.09.07-.32-.25,3.54,2.78c2.62,2.06,5.27,4.21,5.33,4.34l-5.29-4.22c0,.2-4.53-3.66,0,.49l-2.38-2.16c-.17-.07-3.47-3,3.31,3.34-4.41-4.13-.5-.32,1.27,1.68L916.79,571c4,4.06,5.09,5.18,6.08,6.41-.43-.38-2.53-2.51-1.69-1.73-1.73-1.59,2.88,3.09,1.11,1.49l-1.94-2.08c-.32-.18.76.91,3,3.38,1.16,1.37-1-.63-3.69-3.61,1.65,1.82,3.79,4.32,3,3.51-1-1.13-1.63-1.85-1.93-2.21-1.09-1.07-.27,0,.41.85s1.24,1.68-.23.05l-1.72-2a.84.84,0,0,1,.63.36c-2.72-3.09-3.22-3.61-6.91-7.92,2,2.33,6.27,7.57,4.94,6.15l-.9-1.1-.29-.36c-.27-.31,0,0,.38.55-.44-.51-.77-.9-.82-.93-2.13-2.65-1.19-1.4-1.32-1.51,2.75,3.54,2.25,3,4.57,5.91a2.67,2.67,0,0,1-.4-.6c-.08-.11-.11-.17-.27-.38l.24.31a.84.84,0,0,1-.07-.32c1.39,1.81,2.52,3.36.92,1.44,1.75,2.29,3.52,4.66,4.34,5.78-3.93-4.88-6.06-7.52-8.36-10.61,1.38,2.09.77,1.45,5.32,8.42a32.52,32.52,0,0,1-2.15-3c-.44-.71-.33-.61-1-1.61a63.4,63.4,0,0,0,3.29,5.68c-1.57-2.16-2.8-4.52-2.48-3.66l-.92-1.51c-2.61-3.87-.72-.73.77,2.16s2.64,5.49-.35.4c.36.63.54.91,1,1.74-1.49-2.27-1.16-1.26-1.11-.67s-.09.8-1.81-2.75c-.71-1.43.63,1.56,1.53,3.74l-1.69-3.83,1.78,4.25c.59,1.49-.5-.92-1.36-2.92s-1.57-3.61-.42-.85l1,2.47a13.37,13.37,0,0,1-.7-1.67c.18.43,1,2.44.49,1.15l-.77-1.83,1.26,2.82c-.57-1.52-3-7.09-3.19-7.63.29.64,2.24,4.8,2.75,6,0,.13.46,1.2,1.23,2.94l.41.76c1.75,3.93,3.53,7.9,5.18,11.58,1.74,3.89,3.29,7.52,4.38,10.49-.82-1.63-1.63-3.25-2.38-4.87l1.67,4a1.86,1.86,0,0,0,.25.14c1.52,3.81,0,.51-1-1.69.89,2.11,1.5,3.6,1.8,4.4-1.18-2.55-2.26-5.1-3.36-7.62,1.32,3.16,2.68,6.22,3.36,8-1.53-3.52-3-7.12-4-9.35,1.51,3.71,2.76,6.64,1.47,3.6l1.79,4.24c-1-2.43-.44-.94-2.15-5.11,1.89,4.44-.33-1,2.79,6.36-.72-1.76-2.31-5.7-2.37-6,3.55,8.64.55.58,4.49,9.75-1.6-3.85-1.84-4.7-1.88-5.12s.16-.44-.64-2.51a8.55,8.55,0,0,1,.56,1.42c.45.61,1.54,2.83,2.31,4.2-2.8-6.11-3.17-7.5-4.78-11.2,3,5.78,3.22,7.06,5.93,12.65-2.32-4.89-1.88-4.94-3.91-8.95,1.91,3.53,1,1.7,3.51,6.59-3.61-7.4-.43-1.3-2.52-5.84,2.1,3.55,3.53,6.83,2.74,4.52A33.82,33.82,0,0,1,934.33,611Zm1-16,0,.07,0,.3A2.9,2.9,0,0,0,935.37,595Zm.52-.51c-.19-.08-.29,0-.36.06a19.43,19.43,0,0,1-1.92-2.39A25.68,25.68,0,0,0,935.89,594.46Zm-20.48-23.52c-.38-.51.17.18.75.9l.3.45.34.43Z" transform="translate(-780.27 -545.58)"/><path class="cls-1" d="M919,575.61c0,.08.17.23.18.26l.64.79c-.28-.38-.57-.76-.85-1.12Z" transform="translate(-780.27 -545.58)"/><polygon class="cls-1" points="131.09 33.11 131.09 33.12 131.09 33.11 131.09 33.11"/><polygon class="cls-1" points="169.56 46.06 168.61 45.44 169.39 46.06 169.56 46.06"/><path class="cls-1" d="M897.42,578a6.64,6.64,0,0,0-1.15.16C896.56,578.11,897,578,897.42,578Z" transform="translate(-780.27 -545.58)"/><path class="cls-1" d="M897.06,581.85c-.46.33-.9.66-1.34,1A10.49,10.49,0,0,0,897.06,581.85Z" transform="translate(-780.27 -545.58)"/><path class="cls-1" d="M896.18,585.43c.71-.34,1.24-.62,1.72-.87l0,0Z" transform="translate(-780.27 -545.58)"/><path class="cls-1" d="M914.06,554.81a.67.67,0,0,0,0-.21C914.08,553.73,914.05,554.08,914.06,554.81Z" transform="translate(-780.27 -545.58)"/><path class="cls-1" d="M910,566.11c-.15-.8-.28-1.6-.33-2.1C909.45,563.7,909.34,563.64,910,566.11Z" transform="translate(-780.27 -545.58)"/><path class="cls-1" d="M919.5,548.94V549h0Z" transform="translate(-780.27 -545.58)"/><path class="cls-1" d="M910,564c-.32-.85-.37-.63-.31,0C909.82,564.27,910,564.7,910,564Z" transform="translate(-780.27 -545.58)"/><path class="cls-1" d="M911.73,595.66l.36.13a4.31,4.31,0,0,1-.07-.72Z" transform="translate(-780.27 -545.58)"/><path class="cls-1" d="M912,595.07l.25-.58C912.11,594.52,912,594.58,912,595.07Z" transform="translate(-780.27 -545.58)"/><path class="cls-1" d="M912.72,593.23q-.19.63-.45,1.26C912.51,594.45,912.86,594.51,912.72,593.23Z" transform="translate(-780.27 -545.58)"/><path class="cls-1" d="M904.19,592.67l-.69,1.48C903.67,593.85,903.89,593.37,904.19,592.67Z" transform="translate(-780.27 -545.58)"/><path class="cls-1" d="M902.28,592.28a19,19,0,0,1-.1,1.93c0,.78.2,1.43.76,1.11l.56-1.17c-.62,1.06-.65,0-.6-1S903.13,591.18,902.28,592.28Z" transform="translate(-780.27 -545.58)"/><path class="cls-1" d="M910.83,577.54l-.18.15h0C910.87,577.5,910.59,577.72,910.83,577.54Z" transform="translate(-780.27 -545.58)"/><path class="cls-1" d="M911,577.4Z" transform="translate(-780.27 -545.58)"/><path class="cls-1" d="M912.73,580.4v0C912.82,580.55,912.72,580.38,912.73,580.4Z" transform="translate(-780.27 -545.58)"/><path class="cls-1" d="M905.67,563.22q-.61-1.11-1.26-2.22l1.4,3.49Z" transform="translate(-780.27 -545.58)"/><polygon class="cls-1" points="134.37 39.13 134.32 38.98 134.53 39.58 134.37 39.13"/><path class="cls-1" d="M922.66,588.35l-.22-5C922.4,584.22,922.61,589.88,922.66,588.35Z" transform="translate(-780.27 -545.58)"/><path class="cls-1" d="M926.78,583.18c0,2.52.08,4.14.21,1.67C926.91,584.5,926.85,582.53,926.78,583.18Z" transform="translate(-780.27 -545.58)"/><polygon class="cls-1" points="139.81 26.25 140.01 26.36 139.63 26.15 139.81 26.25"/><path class="cls-1" d="M917.57,702.71l.51-2.43h0v0l0,.07,0,.14-.07.3-.14.67c-.09.47-.19,1-.28,1.39a9.75,9.75,0,0,0-.22,1.17l.44-2.18Z" transform="translate(-780.27 -545.58)"/><path class="cls-1" d="M916.48,709.94c.49-2.52,1.19-7,1.91-11.79-.8,5-.45,2.93-1.48,8.9a34,34,0,0,1,.58-3.6c-.25,1.33.2-1.15-.44,2.11-.74,4-.61,4.23,0,.89C916.85,707.66,916.63,709,916.48,709.94Z" transform="translate(-780.27 -545.58)"/><path class="cls-1" d="M922.58,718.49l0-.63A4.55,4.55,0,0,0,922.58,718.49Z" transform="translate(-780.27 -545.58)"/><path class="cls-1" d="M926.6,721.36a11.37,11.37,0,0,0,0,1.14A10.29,10.29,0,0,0,926.6,721.36Z" transform="translate(-780.27 -545.58)"/><path class="cls-1" d="M927.32,727.19l0-.36C927.3,727.32,927.32,727.59,927.32,727.19Z" transform="translate(-780.27 -545.58)"/><path class="cls-1" d="M922.58,718.49l.11,1.67C922.7,718.43,922.63,718.88,922.58,718.49Z" transform="translate(-780.27 -545.58)"/><path class="cls-1" d="M918.64,697.34c0,.36-.09.8-.17,1.38l.08-.56C918.59,697.88,918.61,697.63,918.64,697.34Z" transform="translate(-780.27 -545.58)"/><path class="cls-1" d="M920.68,722.77h0c0,.61,0,1.34-.07,2.15Z" transform="translate(-780.27 -545.58)"/><path class="cls-1" d="M919.12,723.54c0,.2.2-4.29.28-6.25-.09,1.84-.14,2.73-.19,3.07C919.19,721.22,919.16,722.23,919.12,723.54Z" transform="translate(-780.27 -545.58)"/><path class="cls-1" d="M917.06,715.5l-.1.61Z" transform="translate(-780.27 -545.58)"/><path class="cls-1" d="M921.73,723.76v0Z" transform="translate(-780.27 -545.58)"/><path class="cls-1" d="M912.12,732.71c0-.32.07-.52.11-.8C912.16,732.36,912.11,732.68,912.12,732.71Z" transform="translate(-780.27 -545.58)"/><path class="cls-1" d="M913.7,710.42l.06-.24.42-2.48Z" transform="translate(-780.27 -545.58)"/><path class="cls-1" d="M928.35,732.94v-.08C928.32,733.37,928.33,733.28,928.35,732.94Z" transform="translate(-780.27 -545.58)"/><path class="cls-1" d="M932.27,693.91c.44,4,.35,5.15.88,9.59C933,701.74,932.58,696.5,932.27,693.91Z" transform="translate(-780.27 -545.58)"/><path class="cls-1" d="M918.59,697.93s0-.09,0,0C918.62,697.74,918.62,697.75,918.59,697.93Z" transform="translate(-780.27 -545.58)"/><path class="cls-1" d="M933.15,703.5v0l.06.42Z" transform="translate(-780.27 -545.58)"/><path class="cls-1" d="M930.56,730.27c0-.78,0-1.38,0-2C930.59,728.75,930.58,729.29,930.56,730.27Z" transform="translate(-780.27 -545.58)"/><path class="cls-1" d="M929,723.84l0,.61A4.45,4.45,0,0,0,929,723.84Z" transform="translate(-780.27 -545.58)"/><path class="cls-1" d="M931.63,724c0,.34,0,1,0,.36l0-.55C931.65,724.38,931.62,724.67,931.63,724Z" transform="translate(-780.27 -545.58)"/><path class="cls-1" d="M932.47,724c0-.34,0-.61,0-.91l0,.24Z" transform="translate(-780.27 -545.58)"/><path class="cls-1" d="M916.65,731.05c.1-1.3.21-2.67.31-4C916.69,730.2,916.38,731.32,916.65,731.05Z" transform="translate(-780.27 -545.58)"/><path class="cls-1" d="M918.38,699.85c.12-1.09.17-1.57.21-1.92l0,.23Z" transform="translate(-780.27 -545.58)"/><path class="cls-1" d="M933.25,688.51l.21.68C933.42,688.75,933.33,688.52,933.25,688.51Z" transform="translate(-780.27 -545.58)"/><path class="cls-1" d="M926,730.93l-.06.54C926,731.57,926,731.44,926,730.93Z" transform="translate(-780.27 -545.58)"/><path class="cls-1" d="M934.24,688.56c0,1.59,0,2.51,0,3.12,0-.36,0-.66.1-1.16Z" transform="translate(-780.27 -545.58)"/><path class="cls-1" d="M917,727v0Z" transform="translate(-780.27 -545.58)"/><path class="cls-1" d="M914.47,737.46c.2.15.71-5.75,1.11-9.11.41-1.65-.34,4.33-.57,7.35.33-1.54,1-6.93,1.08-6.69-.09,1-.1,1.33-.25,2.54.62-4.66.51-.18,1.24-6L917,727c.26-3,.53-6,.72-8.08.1-.09.5-3.7.17.15,0-.12-.18,1.43-.32,2.63l.24-1.66c-.42,5.53-.29,1.9-.67,6,.35-1.78.95-6.34.94-4.77-.44,5.42-.47,1.8-.72,6.63l0-2.09c-.62,8.55-.08-.61-.76,8.54.16,1.59.58-2.73.73-1.13.32-3,.36-4.45.68-7.45.83-5.38-.82,13.64.08,6.45.37-3.6.93-10.45.85-6.81l-.55,6.12c.23.63.83-8.8.8-4.66-.23,2.41-.37,2-.38,2.75-.18,4.85.39-3.46.53-3.45l-.37,5.42c.36-.83,1-4.73,1.32-5.69-.12,1.61-.29,3.3-.33,5,.59-2.69.81.71,1,4l.42-4.68s-.06,2.12-.14,3c0,1.79.17-3,.34-4.81a31.11,31.11,0,0,1-.16,4.1c.49-4,1.18-8.52,1.21-3.49l-.12,1.4c.13,1.91.69-9.61.68-5.23l-.07.83c.37,2.06,1-2.22,1.13,4.88.3-6.76.36,3,.7-6.4.11,4.68,0,6.37.27,9.52.09.43.32-5.89.47-6.87l-.13,4.93.3-5.16-.06,5.89.15-1.26c0-.29,0-2.21,0-3.63.23-2.23.35,3.44.31,6l.52-4.16c0,2-.14,2.66-.22,3.92.34-5-.08,5.2.26.59,0-1.12.07-2.94.1-3.93.06,3,.35,3,.56,1.76l-.07,3.39c.37.87.8-1.62,1.2-1.56-.15-1.58-.11-7.47,0-8l.06,5.21c.07-3.22-.12-2,0-5.91.14.6.12,5.93,0,7.63l.18-1.81c0,1.55,0,2.37,0,4.36.06-3.24.37,5.22.43-.4l0,1.55c.42,0,.58-1.75.9-2-.07-4.5.07-3.5.09-7.14.25,1.43.6,5,.88,4.57.14-2.25,0-3.81,0-6.49.14,4.1.41,3.71.36,6.65.33-.68.43-.83.72-4.18-.12-1.67-.2-2.4-.23-3.79,0-.68.24,1.71.32,3.67v.43c.11-3.08.51-.11.94,2.56s.87,5,.81.75v.43l.14-4.47c.25.69.09,3.08.42,5.6,0-6.86.89.92.94-3.66.73,6,1.06,5.76,1.37,5,.15-.39.28-.93.5-.89s.47.64.93,2.52l-.43-2.81c-.22-2.79.44,1.58.68,2.21-.35-2.19-.57-2.51-.68-4,.25-.91.59-1.13,1.18-1s1.36.73,2.76,1.26l1.31.32a1.85,1.85,0,0,0,.45,0h.53l1.08,0,.27,0,.15,0,.24-.06c.33-.08.65-.17,1-.27.65-.2,1.29-.43,1.93-.69a7.18,7.18,0,0,0,.8-.43q.48-.29,1-.6a19.71,19.71,0,0,0,1.84-1.35c.3-.24.59-.48.87-.74l.43-.38.23-.23.43-.47a23.45,23.45,0,0,0,3-4.26,22.67,22.67,0,0,0,1.14-2.39c.17-.4.32-.8.46-1.21s.26-.74.43-1.38a23.51,23.51,0,0,0,.77-7.42,23.89,23.89,0,0,0-.5-3.74c-.13-.6-.28-1.18-.44-1.75-.12-.4-.22-.72-.34-1.09a24.11,24.11,0,0,0-1.85-4.18,24.58,24.58,0,0,0-2.6-3.76c-.31-.41-.62-.82-.95-1.22a22.8,22.8,0,0,0-2.2-2.31,25.48,25.48,0,0,0-2.5-2l-.66-.45-.33-.22a1.61,1.61,0,0,1-.26-.17l-.4-.36a17.79,17.79,0,0,0-1.68-1.29,1.3,1.3,0,0,0-1.32,0,2.21,2.21,0,0,0-.63.46,2.38,2.38,0,0,0-.46.74c-.55,1.13-1.12,2.68-1.64,4.06-1.07,2.75-1.73,4.81-1.76,1.32q.79-2.53,1.7-5c-.29.34-.57.63-.82.88s-.37.5-.54.69a3.06,3.06,0,0,1-.83.76,1.3,1.3,0,0,1-.67.17,1.53,1.53,0,0,1-.45-.13c-.63-.27-1.09-.61-1.8,2a23.1,23.1,0,0,1,.43-2.76c.1-1.92-.1-2-.33-1.18a30.12,30.12,0,0,0-.62,4c-.08-.36.22-2.82.29-4.42,0-2.27-.83,4.85-.62,1a10.69,10.69,0,0,1,.2-1.53c-.27,1.84-.46-.51-.68,3.91-.13-2.12-.63,1.94-.67-.69-.42,4.93-.3-2.41-.72,4.58.41-7.22-.14-5.85-.44-2.45.15-2.19,0-2.28.17-5.3-.18.1-.39,1.43-.52,5.15,0-8.67-.85,6.94-.64-4.16-.62,3.88-1.1,6.5-1.54,8.18.16-7.21.47-.71.62-8.28-.48,3-.81,9.15-1.15,7.41-.09-1,.09-3.14.15-4.36-.43,3-.76-.67-1.13,3.26,0-.67,0-1.41.08-2-.07.23-.15-1.06-.16,2.22l.07-.89c.08,4.76-.3,9.95-.31,12.46.13-9.4-.31-2.36-.12-14.24,0,.62-.1,2.17-.09,4.36a39.34,39.34,0,0,1,0-4.41c-.24,1.78-.15,5.27-.36,5.2,0-1.59,0-2.2,0-4.07-.1,3.09-.19,6.19-.38,4.85,0-1,0-2.2,0-2.18-.31.48-.45,8.25-.8,5.27,0-6.91-.14-2.28-.25-8.25l-.14,1.79.11,2.89c-.15-.1-.21,4.26-.36,2.3l.07-2.46-.25,1.14.19,2.26c-.1,3.08.12,7.56-.09,5.9,0-.62-.15-.08-.27-3.59v0c0,1.9-.08,3.9-.21,2.43,0-2-.09-6.58-.1-7.88,0,5-.31,1.39-.33,6.71,0-1.25,0-4.38,0-5v4.06c-.09-1.3-.1-1.92-.13-4.42-.2-.74.16,7.57-.11,4.31,0-.33,0-.94,0-1.55-.25-1.7-.42,2.58-.65.58-.12-6,.17-1.47,0-6.54-.27,1.09-.54,7.21-.84,5.8l.05.66c0,8.49-.24-4.19-.36-.19,0-.63,0-4.71,0-3.76-.2-1.37-.38,2.08-.68,4.75l0-2.18c-.12-1.94-.3-1.12-.42-2.11,0,2.18-.11,1.82-.08,5-.3-12.41-.79,6.65-1-3.69a8.34,8.34,0,0,0,.07-1c0-.25,0-.48,0-.65v-.3l-.3,2c0,3.7,0,2.23,0,5.11,0,1.1-.08,2.07-.13,2.77a4.15,4.15,0,0,1-.13,1.12c.18-2.45.1-5.94.09-8,0,1.14-.05,2.38-.07,3.53,0-6.57-.17,7.44-.29,3l0-1.94c-.1,1-.23,3.55-.31,3,.07-4.27.14-2,.23-5.51-.12.25-.45,8.1-.44,3.83.09-1.19.16-1.2.24-2.39,0-5,0-3.74-.07-4.54v.11l-.1-2.28v1.37c-.51,11.13-.34,2-.82,9.31.48-6.9.2-4,.42-8.83,0-1.35,0-2.86.09-4.22-.25,3.9,0-3.08-.34,2.62.07-1.56-.07-.15.15-4.06-.15,1.22-.12,2.71-.23,4.66-.22,2.66-.22,1-.22-.33s0-2.49-.36,1.15c-.38,3-.85,8.23-1.31,10.82.15-2.49.56-5.66.56-5.66.1-2.29,0-1.88-.25-.11.16-1.35.25-2.5.42-4.25-.09.41-.65,5.65-.49,3.35.21-1.71.53-4.4.75-6.22-.19,1.42-.6,4.31-.84,5.7.34-2.57.54-4.09.77-5.85-.26,1.69-.56,3.6-1,6.69l-.16,1.52c-.07.2.51-3.66.63-4.43.49-3.34-.14,1.48-.33,3l-.18,1c-.58,4.54-.43,4.19-.18,2.77s.62-3.93.64-3.66L917,712.1l.73-5.48c-.15,1.73-.48,5.43-.67,6.41-.19,3.29.34-2.34.11,1.32,0,.57-.08.89-.12,1.15l.31-2a37.36,37.36,0,0,1-.39,3.72c-.06,3.85.81-4.94.5.09l-.05.41c.5-2.22.4-4.87,1-10.57l-.64,12,.34-4.87a12.76,12.76,0,0,1-.06,2.5c.32-3.34.11-2.13.36-5.27-.1,4.45.51-2.06.15,5.71.24-3.7,0-2.86.29-5.44-.36,8.37.25-1.42.2,2.42-.22,4.32-.27,2-.28,5.88.39-7.29.22,1.62.41.22.22-5.81.36-2.41.62-4.34a45.94,45.94,0,0,0,.44,5.31l0,1c.16-5.87.33-4.76.49-6-.06,3.52-.11,4.9-.22,6.47l.14,0c.06-1.88.12-2.87.21-3.54l-.1,4.38c.19-.23.43-5.16.63-2.23,0-4.09,0-11.41.18-14.14,0,2.22,0,6-.1,6.91,0-.29.08-1.84.11-.89l-.12,3.72c.09,1.64.08-3.11.15-2.76,0,3.16,0,2.25,0,4.76,0,.31,0-1.3-.1-.07a48.26,48.26,0,0,1,.21,4.84c0-1.8,0-4.26.1-4.67.17-.23,0,3.8.13,5.43,0-2.2.16.08.18-4.64,0,0,0,.56,0,1.28s0,1.58,0,2.22c.09-2.08.42-.59.32-5.62l0-.33v-.2h0c.28-4.7.6,2.67.87.64v1.59a27,27,0,0,0,.46-4.47,2,2,0,0,1,0,.48c0,.33,0,.74,0,1.2,0,1,0,2.14,0,3.08.11-1.18.11-3,.32-.35-.1,2.75.07,2.44-.11,2,.17,1.36.24,3.89.37-.43,0,4,.19,5.09.25,3.88l-.15-2.89c.09-.59.17-.23.25.11l0,5.32c.42,6.47.48-11,.87-.19,0-3.72-.22-2.62-.2-7,.09.36.19,2.44.29,4.45,0,1,.09,2,.12,2.7l0,.88c0,.21,0,.34,0,.34.25,2.94.09-7.78.34-5.77-.06-1.89-.16-7,0-8.75.16.7.3,8,.23,9.48,0,.16-.06-.44-.07-1.08a29.78,29.78,0,0,0,0,3.56v-1.9a41.68,41.68,0,0,1,.3,4.84,26.22,26.22,0,0,0-.09-4.09c.22,2.75.32.07.5,1.92,0-.56,0-1.36-.06-2,0-.34,0-.65,0-.87a2,2,0,0,1,0-.36c.28,2.35.06-3.6.24-4.43.13,2.89,0,6.91.18,4.48.12,2,.06,5,0,6.59.12-3.67.29,2.4.37,3.07l-.06,1.53c0-.91.07-.88.11-.87l-.06-3.8a17.9,17.9,0,0,1,.09,2.26c0-2.49-.06-6.32,0-9.72.07,1.93.2-2.07.23,3-.21-1.71,0,5.06-.14,5.87,0-.6.07-.58.11.09s0,1,0,1.33c.17,4.51.08-5.69.27-5.58a44.75,44.75,0,0,0,.07,4.78,5,5,0,0,1,0-.79c0-.5,0-1.14,0-1.87,0-1.45,0-3.16.08-4.25.12,2.21.15-1.64.22-1.39l-.07-1a17.22,17.22,0,0,1,.21-3.37c0,2.21-.1,1.53-.07,2.5.14-5,.19,5.17.35,1.81,0,1.92,0,5.33,0,6.64.19-3.68.1,3.89.3.85,0-3.82,0-2.89.16-6.6l-.3,2.68.25-5.55c-.09,0-.21,2.4-.25,1.75.12-3.11.1-2.17.1-5.33,0,5.72.29-3.34.37.53l-.17,9.45c.1,4.22.42-4.84.62-2.46l0-1.64c.13-3.75.17-.52.29-2-.1,3.16-.08,4.31-.1,6.27.06-2.34.16.22.38-6.08l0,4.16c.12,1.71.53-9,.7-7.91-.19,3.43-.2,5.67-.41,8.12,0,0,.08.61.17-1.57,0,2,.35-4.25.28-1.25.09-1.38.25-4.69.31-4.42,0,.65-.08,1.55-.08,1.55.07-1.55.22-2.11.32-5.6-.3,9.85.64-.69.27,7.77a13.64,13.64,0,0,1,.54-2.27,6.55,6.55,0,0,1-.12,1.24c-.11,2.94.83-9,.75-5.75-.36,5.09-.34,2.75-.45,4.67-.91,10.36.32-1.39-.22,4.65l-.08.61c-.16,1.76,0,.78.13-.54s.43-3,.39-2.61l-.2,1.55a81.89,81.89,0,0,1,1.42-8.4c-.5,2.77-.28,1.51-.78,4.29l.31-1.74c.31-1.7.63-3.47.8-4-.17.89-.34,1.81-.54,2.9.12-.48.13-.71.16-.81-.06.43-.24,1.09-.35,1.68l.16-.77.1-.42.06-.35c.08-.46.19-.93.28-1.3l0,.09c.27-1.06.51-1.67.57-2a6.6,6.6,0,0,1,.23-.66c.09-.23.32-.61.37-.8l0,.1a1,1,0,0,1,.29-.43l.11-.09s.1,0,.08,0h0a.08.08,0,0,1,0,0,.4.4,0,0,1-.13-.13,2.52,2.52,0,0,1-.29-.52,5.15,5.15,0,0,1-.35-.86,11.23,11.23,0,0,1-.36-1.07c.09.36.34,1,.49,1.46l.29.64a1.14,1.14,0,0,0,.15.23.66.66,0,0,0,.09.15l-.07-.11-.14-.21a2.72,2.72,0,0,1-.11-.25l-.16-.34a6,6,0,0,1-.24-.67l-.18-.51.31.91-.09-.29-.14-.38a8.59,8.59,0,0,1-.25-.85c-.1-.34-.22-.73-.31-1.13l-.15-.62s0,.08,0,.06l-.34-1.49c-.15-.78-.27-1.4-.42-2.13-.3-1.66-.69-3.95-.81-4.83-.09-.65-.18-1.21-.26-1.75l-.1-.71v.11s-.07-.31-.13-.79c-.15-.94-.34-2.37-.38-2,1,9.48,0,.28.94,10,0,.63,0,.48-.11-.16l-.7-5.8c-.27-2.84-.13-2.16-.33-4.34-.15-.74-.39-4.13-.65-6.72.3,3.49.37,5,.21,3.67l.44,4.49c.23,5.21-.74-8.17-.51-3l-.17-3.07a58.43,58.43,0,0,0,.09,7.8c-.08-1.12-.25-3.79-.25-4.5-.25-1.17-.12,8.38-.54,3.55l-.08-2.39c0,.69.1,4.5-.06,2.09,0-1-.07-2.38-.1-2.52,0,.82,0,4.19-.08,2.8l0-2.69c-.34-3.13-.17,6.56-.37,8.21-.19-7-.43-9.33-.54-10.47l0-1c-.28-.87-.37,5.84-.65,8.61-.22-7.64-.6-3.2-.82-7.49,0,1.28-.06,5.49-.12,6.19,0-1.42-.24,4.89-.14-1.57l0,.12c0-6.33-.09-4.65-.18-4.82l-.18,8.44c0-12.29-.93,4.5-.82-6.51-.13,2.11-.22,2.08-.36,4.19l.14-4.53c-.16-1.16-.24-1.73-.52-.66l.16-3.23c-.12-.3-.64,13-.79,13.3l.21-6.76c-.26.1-.25-5.84-.76.28.05-1,.14-3,.19-3.22-.11-.18-.22-4.59-.61,4.68.28-6-.23-.6-.5,2.05l.24-4.45c-.4,5.69-.48,7.24-.73,8.81a14.41,14.41,0,0,1,.14-2.43c0-2.34-.33,4.22-.36,1.84l.22-2.84c-.12-.36-.19,1.17-.45,4.48-.19,1.78-.2-1.14,0-5.16-.16,2.45-.43,5.73-.45,4.56.09-1.52.17-2.46.21-2.92,0-3-.65,5.15-.53.77.08-1.45.12-2.16.14-2.66a.75.75,0,0,1,.26.7c.25-4.1.17-4.83.63-10.49-.29,3.09-.92,9.79-.93,7.85,0-.4,0-.79.08-1.42l0-.45c0-.42,0,0-.12.65a8.11,8.11,0,0,0,0-1.24c.22-3.39,0-1.84-.08-2-.31,4.49-.35,3.76-.53,7.47a3,3,0,0,1,.11-.72c0-.13,0-.19.07-.46l0,.39a.92.92,0,0,1,.2-.28c-.21,2.27-.41,4.19-.31,1.69-.24,2.87-.5,5.83-.62,7.23.34-6.26.41-9.66.68-13.52a69.09,69.09,0,0,0-1.42,10c-.15,1.08.13-2.42.21-3.75.11-.84.14-.71.26-1.92a41.86,41.86,0,0,0-1,6.69c.07-2.66.55-5.4.26-4.46l.18-1.8c.21-4.71-.26-1-.76,2.43s-1,6.46-.63.41c0,.75-.06,1.09-.15,2.07,0-2.68-.39-1.46-.75-.63s-.71,1.26-.43-3c.07-1.71-.41,2-.86,4.86l.58-4.79-.87,5.51c-.78,4,1.23-11.8-.07-4.19l-.42,3.23c0-.62-.59,1.85,0-1.85-.09.59-.53,3.35-.31,1.66l.37-2.5-.89,4.25c.11-1.84,1.57-9.91,1.44-10.44-.22,1-1.44,7.23-1.69,8.9,0,.13-.16,1.57-.56,4.07l-.32,1.28c-1.24,7.35-2.64,14.85-3.13,20l1-4.45-.49,3.58-.25.19c-.42,3.37.14.41.54-1.61-.28,1.9-.45,3.23-.51,4l1.32-7c-.41,2.88-1,5.69-1.06,7.31.6-3.25.88-6.48,1.37-8.59-.4,3.36-.83,6.08-.28,3.24-.26,1.9-.46,3.1-.64,3.93a37.17,37.17,0,0,0,1.08-4.83c-.47,4.16.53-1-.45,6,.27-1.66,1-5.45,1.09-5.73-1.31,8.34.32.54-.89,9.51,1.12-7.5,1-3.28,1.71-7.42a10.15,10.15,0,0,1-.23,1.41c.06.65-.17,2.92-.24,4.36.76-6.22,1.13-7.62,1.68-11.45-.53,6-.94,7.3-1.55,13.08.57-5,.87-5,1.29-9.22-.3,3.73-.1,1.82-.61,7,.89-7.79.27-1.31.9-6.08-.23,3.86-.73,7.31-.28,5C915,734.71,914.47,737.46,914.47,737.46Zm5.87-13.11v.09l-.1.25Zm.37,0c0-.18-.08-.21-.15-.19.09-1.55.21-3.14.24-3.06C920.71,722.1,920.74,723,920.71,724.31Zm1.39-31.15c.09-.63,0,.25,0,1.17,0,.08-.06.23-.11.54l-.05.54C922,694.56,922.05,693.77,922.1,693.16Z" transform="translate(-780.27 -545.58)"/><path class="cls-1" d="M921.6,699c0,.1,0,.29,0,.33l0,1c0-.48.08-1,.11-1.41Z" transform="translate(-780.27 -545.58)"/><path class="cls-1" d="M922.53,717.76v.1l0-.63Z" transform="translate(-780.27 -545.58)"/><polygon class="cls-1" points="145.24 187.56 145.27 186.42 145.21 187.42 145.24 187.56"/><path class="cls-1" d="M920.86,702.31v0Z" transform="translate(-780.27 -545.58)"/><path class="cls-1" d="M920.2,701.29l-.05-1.61C920.16,700.59,920.18,701,920.2,701.29Z" transform="translate(-780.27 -545.58)"/><path class="cls-1" d="M919.78,699c0,.79-.06,1.38-.08,1.93v0Z" transform="translate(-780.27 -545.58)"/><path class="cls-1" d="M929.09,693.75a.8.8,0,0,0,0-.2C929.19,692.68,929.15,693,929.09,693.75Z" transform="translate(-780.27 -545.58)"/><path class="cls-1" d="M926,704.28c0-.78,0-1.54.06-2.13C926,701.81,926,701.72,926,704.28Z" transform="translate(-780.27 -545.58)"/><path class="cls-1" d="M933.22,688.43v.08h0Z" transform="translate(-780.27 -545.58)"/><path class="cls-1" d="M926.21,702.23c-.07-.9-.11-.7-.14-.08C926.12,702.45,926.18,702.91,926.21,702.23Z" transform="translate(-780.27 -545.58)"/><path class="cls-1" d="M918.59,696.91l0-.18-.1.71Z" transform="translate(-780.27 -545.58)"/><path class="cls-1" d="M918.51,697.44l-.08.53Z" transform="translate(-780.27 -545.58)"/><path class="cls-1" d="M918.26,699.09l.17-1.12S918.45,697.82,918.26,699.09Z" transform="translate(-780.27 -545.58)"/><path class="cls-1" d="M918.58,699l.15-1.62C918.7,697.72,918.65,698.25,918.58,699Z" transform="translate(-780.27 -545.58)"/><path class="cls-1" d="M918.75,698.55c0-.38.23-3.48.11-2.46l-.13,1.29C919,695,918.48,701.28,918.75,698.55Z" transform="translate(-780.27 -545.58)"/><path class="cls-1" d="M918.32,718.72l-.18-1.32a40.21,40.21,0,0,1-.27,4.49C917.91,727.08,918,718,918.32,718.72Z" transform="translate(-780.27 -545.58)"/><path class="cls-1" d="M919,721.27a29.82,29.82,0,0,0-.14,3.5A21.76,21.76,0,0,0,919,721.27Z" transform="translate(-780.27 -545.58)"/><path class="cls-1" d="M924.06,721.34l0,4.1C924.16,724.85,924.07,723.85,924.06,721.34Z" transform="translate(-780.27 -545.58)"/><polygon class="cls-1" points="144.46 154.6 144.35 152.06 144.35 155.81 144.46 154.6"/><polygon class="cls-1" points="145.34 183.75 145.31 184.33 145.44 182.85 145.34 183.75"/><path class="cls-1" d="M932.09,727.93l.29-5C932.28,723.8,931.94,729.46,932.09,727.93Z" transform="translate(-780.27 -545.58)"/><path class="cls-1" d="M936,712.4a1,1,0,0,1,.16-.29c.08-.11.24-.22.25-.25s-.21.17-.26.26A1.31,1.31,0,0,0,936,712.4Z" transform="translate(-780.27 -545.58)"/><polygon class="cls-1" points="147.1 147.17 147.19 145.48 147.05 146.89 147.1 147.17"/><path class="cls-1" d="M841,716c-1.18-.7-3.9-2.24-3.45-1.79l4.52,2.76Z" transform="translate(-780.27 -545.58)"/><path class="cls-1" d="M832.07,711.83c2.1,1.47,5.71,4.21,9.82,6.8-4.11-3-2.3-1.9-7.31-5.32-.46-.44,1.57.7,3.22,1.73-1.14-.75,1.13.38-1.69-1.39-3.63-1.91-3.81-1.94-1.09.1C834,713.16,832.88,712.36,832.07,711.83Z" transform="translate(-780.27 -545.58)"/><path class="cls-1" d="M822.58,709l.12.62Z" transform="translate(-780.27 -545.58)"/><path class="cls-1" d="M822.34,707.7l0,0Z" transform="translate(-780.27 -545.58)"/><path class="cls-1" d="M822.54,707.38v0Z" transform="translate(-780.27 -545.58)"/><path class="cls-1" d="M822.58,709c-.09-.54-.18-1.09-.26-1.64A11.18,11.18,0,0,0,822.58,709Z" transform="translate(-780.27 -545.58)"/><path class="cls-1" d="M841.06,721.12a8.21,8.21,0,0,0-1-1,3.83,3.83,0,0,1,.33.49Z" transform="translate(-780.27 -545.58)"/><path class="cls-1" d="M821.9,705.4v0h0Z" transform="translate(-780.27 -545.58)"/><path class="cls-1" d="M821.69,705c.32.52,2,3.15,2.84,4.52-.88-1.41-1.29-2.08-1.62-2.62l-.77-1.2-.45-.7Z" transform="translate(-780.27 -545.58)"/><path class="cls-1" d="M826.87,709.67l-.44-.44Z" transform="translate(-780.27 -545.58)"/><path class="cls-1" d="M822.09,705.93h0Z" transform="translate(-780.27 -545.58)"/><path class="cls-1" d="M794.94,707.87l.8,0C795.29,707.79,795,707.78,794.94,707.87Z" transform="translate(-780.27 -545.58)"/><path class="cls-1" d="M817.57,705.42l.2.14,2.21,1.22Z" transform="translate(-780.27 -545.58)"/><path class="cls-1" d="M822.79,707.09Z" transform="translate(-780.27 -545.58)"/><path class="cls-1" d="M821,708.11c0,.09,0-.15,0,0S821.07,708.22,821,708.11Z" transform="translate(-780.27 -545.58)"/><path class="cls-1" d="M840.54,720.82c0,.08,0,.15-.09.17C840.62,721,840.65,721,840.54,720.82Z" transform="translate(-780.27 -545.58)"/><path class="cls-1" d="M821,708.09v0Z" transform="translate(-780.27 -545.58)"/><path class="cls-1" d="M821.79,707.58h0Z" transform="translate(-780.27 -545.58)"/><path class="cls-1" d="M822.76,707.11h0Z" transform="translate(-780.27 -545.58)"/><path class="cls-1" d="M821,707.74h0Z" transform="translate(-780.27 -545.58)"/><polygon class="cls-1" points="40.18 162.16 40.18 162.16 40.19 162.16 40.18 162.16"/><path class="cls-1" d="M806.89,726.39c.66-1.08,1.46-2.23,2.27-3.34C807.27,725.62,805.8,725.92,806.89,726.39Z" transform="translate(-780.27 -545.58)"/><path class="cls-1" d="M839.12,719.5a15,15,0,0,1,1.42,1.32,1.56,1.56,0,0,0-.11-.24C839.92,720.14,839.43,719.74,839.12,719.5Z" transform="translate(-780.27 -545.58)"/><path class="cls-1" d="M790.85,710.49c.19-.38.39-.75.59-1.11A1.29,1.29,0,0,0,790.85,710.49Z" transform="translate(-780.27 -545.58)"/><path class="cls-1" d="M845.21,707.4l.53.23C845.85,707.55,845.72,707.47,845.21,707.4Z" transform="translate(-780.27 -545.58)"/><path class="cls-1" d="M790.77,706.17a19.73,19.73,0,0,0,3.14-.39c-.35-.07-.63-.14-1.15-.21C792.1,705.76,791.43,706,790.77,706.17Z" transform="translate(-780.27 -545.58)"/><path class="cls-1" d="M809.19,723l0,0Z" transform="translate(-780.27 -545.58)"/><path class="cls-1" d="M796.72,725.38c.65,1,4.91-3.11,7.72-5,2-.26-3.05,3.13-5.09,5.42,1.79-.33,6.13-3.62,6.28-3.13a13.35,13.35,0,0,1-1.81,1.79c1.95-1.37,2.35-1.07,2.89-.86s1.19.31,3.32-1.78c-.29.44-.57.85-.84,1.21,1.74-2.4,3.63-4.74,5-6.41.27.08,2.58-2.73.34.42,0-.18-1,1.06-1.79,2,.41-.39.82-.78,1.22-1.18-3.07,4.63-1.46,1.31-4,4.55a24.43,24.43,0,0,0,3-2.36c.93-.8,1.52-1.3,1.29-.52-2.78,4.68-2,.88-4,5.32.12-.75.28-1.49.45-2.22-4.39,7.4-.16-.85-4.93,7,.2,1.1,1,.79,1.7.43s1.46-.72,1.76.35c1.74-2.49,2.07-4,3.76-6.48,1.95-2,.63,1.12-.34,4.18S810.87,734,813,731c.85-1.61,1.89-4,2.64-5.58s1.18-2.26,1.06-.39q-1,2.89-2.15,5.76c.64.54,1.53-1.54,2.16-3.2s1.1-2.91,1.34-.74c-.72,2.32-1.55,1.73-1.5,2.5-.06,2.48.38,1.68.82.26s1-3.44,1.29-3.37l-.77,5.39a7.78,7.78,0,0,0,3.05-2.53,19.87,19.87,0,0,1,2.57-3c.07,1.62-.18,3.35.46,5,1.24-1.5,2.48-1.5,4.13-1s3.74,1.47,5.67,2.27c-.36-1.57-.79-3.11-1.27-4.63a6,6,0,0,1,1.61,2.58c1.79,1-1.41-2.63-1.94-4.45.23-.51,2,2,2.41,3.35a37.63,37.63,0,0,1-.43-6c.18-1.43.8-1.91,3.17-.77l.8,1.19c1.14.18-.38-1.74-1.79-3.31s-2.65-2.85-.68-1.85l.56.64c1.44-.24,1.7-1.6,2.2-2.44s1.55-1.41,5.15-1c-3.11-1.34-2.24-1.53-1.68-1.9s.79-.85-3.77-2.09c2.37.13,4,.25,5.4.28a9.79,9.79,0,0,0,4.41-.83c.5-.48-5.74-1.55-6.68-2.1l4.91.48c-1.69-.45-3.38-.84-5.09-1.18q3,0,5.92,0l-1.24-.62a10.71,10.71,0,0,1-3.65.26c-1.08-.43-.23-.79,1.22-1.18a26.46,26.46,0,0,1,4.75-.82,33.13,33.13,0,0,0-4.3-1.75,13.29,13.29,0,0,1,4,.28c-5.13-.64,5.15-.76.43-1.35a32.86,32.86,0,0,1-3.92.41c2.9-.85,2.74-2.15,1.29-2.72l3.35-.58c.22-1-.42-1.81-1.19-2.57a8.23,8.23,0,0,1-2.1-2.41c-1.16,1.3-6.68,3.38-7.35,3.26l4.67-2.33c-3,1.08-1.6,1.25-5.42,2.37.31-.72,5.14-3,6.88-3.29-.68,0-1.35,0-2,0,1.36-.76,2.18-.94,4-1.78-1.54.55-.56-.4.09-1.31s1-1.74-1.56-.53l1.29-.86a4.53,4.53,0,0,0-2.36-1.87,8.78,8.78,0,0,1-2.47-1.23c-3.35,3-3.11,1.81-6,4.07.12-.88.55-2.21.66-3.43s0-2.33-.83-2.64a6.12,6.12,0,0,0-2.22,2.22,22.08,22.08,0,0,1-2,2.79c2.17-3.51.73-3.89,2.85-6.07a5.09,5.09,0,0,0-2.33,0,8.84,8.84,0,0,0-3.2,2,16.39,16.39,0,0,1-1.07,3.66c-.48.54,0-1.83.64-3.69l.22-.37c-1,1.28-1.46,1.15-1.83.33s-.61-2.31-1-3.75a7.24,7.24,0,0,0-1.48-3.25c-.57-.46-1.23,0-1.77,2.09l.12-.42a30.13,30.13,0,0,0-1.76,4.42c-.35-.34-.29-1.11-.18-2.11a9.25,9.25,0,0,0-.08-3.5c-.88,3.46-1.5,3.26-2.25,2.81s-1.54-1.13-1.8,1.24c-1.77-5.83-3-5.29-3.87-4.23s-1.38,2.68-3.71-.54l1.21,2.58c.74,2.71-1.1-1.3-1.69-1.75,1,2,1.47,2.14,1.88,3.65-.74,2.24-2.48,2-5,1.56s-5.65-1.16-8.12-.46c-.84.32,1.7,3,3.73,5.12s3.54,3.68.44,2.11q-1.9-1.85-3.75-3.77a6.22,6.22,0,0,1,.77,3.43,4.33,4.33,0,0,1-1,2,4.33,4.33,0,0,0-1.05,2,3.52,3.52,0,0,0,1.1,2.87c-1.07-.6-2.53-1.21-2.4-1.48-1.89-.45-2.2.14-1.6,1a7.77,7.77,0,0,0,3.57,2.22c-.47.32-2.73-.75-4.35-.93-1.18,0-.14.81.77,1.43s1.64,1.11-.26.85a3.4,3.4,0,0,1-1.44-.64c1.72.82-.84,1.84,3.59,2.25-1.13.31-.72.9-.36,1.4s.71.93-.63,1.23c2.45.44,1.84.77,1.48,1.13s-.44.7,3.06.78c-7.27-.16-5.79,1.9-2.34,2.14-2.2,0-2.22.73-5.25.77.16.81,1.61,1.27,5.27.62-4.2,1.21-2.35,1.7-.84,1.91s2.71.29-2.57,2c2.15.53,4,.9,5.53,1.16s2.81.5,3.87.71c-3.26,1.55-3.61,1.24-4,1s-.77-.57-4.27.87a21.72,21.72,0,0,0,5.82-.4c1.78-.26,3-.37,2.52.59-.69.78-2.81,1.41-4,1.89,1.66-.1,1.86.54,2.2,1.13s.8,1.07,2.7.33a8.88,8.88,0,0,1-1.7,1c.33.05-.48,1.12,2.07-.95l-.84.37a48,48,0,0,1,5.72-4.17c1.84-1.21,3.44-2.32,4.41-3.12-7.38,5.85-1.25,2.15-10.5,9.63a17.53,17.53,0,0,0,3.46-2.68,12.53,12.53,0,0,1-3.22,3c1.91-.56,4.2-3.2,4.62-2.68-1.12,1.12-1.65,1.46-3,2.72,2.49-1.89,4.83-3.94,4.31-2.6-.67.69-1.45,1.66-1.57,1.52.54.17,2.22-1.1,3.54-2.14s2.27-1.8,1.74-.33c-4.24,5.45-1,2-4.35,7,.52-.36,1-.73,1.54-1.12l1.38-2.56c.19.18,1-.59,1.56-1.19s1.06-1,.75-.07c-.51.66-1,1.3-1.55,1.94.46-.15.94-.34,1.38-.53.2-.74.42-1.48.66-2.21,1.86-2.5,3.66-6.62,3.22-5-.34.51.19.19-1.16,3.44v0c1-1.63,1.93-3.39,1.56-2-.68,1.78-2.66,6-3.11,7.23,1.1-2.24,1.47-2.47,1.86-2.73s.79-.57,1.76-3c-.47,1.16-1.52,4.11-1.7,4.73.51-1.25,1-2.51,1.48-3.78a25.24,25.24,0,0,1-1.19,4.27c.24.45.73-1.38,1.16-2.9s.77-2.73.62-1.08c-.14.3-.29.9-.57,1.45.11.92.65.4,1.09-.11s.82-1.05,1,0c-.8,6-.85,1.35-1.53,6.37.7-.43,1.58-2.09,2.23-3.54s1.16-2.57,1.56-1.84l-.14-.67c.22-4.24.27-3.19.43-1.58s.43,3.78.61,1.77c-.08.63-.07,4.71,0,3.76.76,1.37,1.4-2.15,1.81-4.88l.18,2.17c.62,1.9,1.1,1,1.68,1.87a26.58,26.58,0,0,0-.8-4.93c1.8,6,2.19,4.14,2.1,2.17s-.49-4.16,1.8.52a5.86,5.86,0,0,0,.48,1.87c.07-.74.11-1.47.11-2.21-1.48-3.39-1-2-2.17-4.63a21,21,0,0,1-1.16-3.74,45.82,45.82,0,0,0,3.33,7.27c-.48-1-.94-2.19-1.42-3.23,3.06,5.83-3-6.8-.81-2.93l.82,1.75c-.27-1-1.32-3.32-.94-2.89,2,3.76.78,1.85,2.35,5a19.24,19.24,0,0,0-1.32-3.38c-.59-1.35-1-2.16.18-.36.5,1.09.37,1.18.83,2.27,2.64,4.29,2.11,3.12,2.7,3.7l-.07-.08c.54.56,1.1,1.1,1.68,1.64l-.84-1.08c-2.69-4.89-2.87-5.39-2.73-5.51s.59.13-1.35-3c3.6,5.91,2.2,3.34,5,7.33a30,30,0,0,1,2.69,3.26c-1-1.69-.45-1.13,0-.79s.8.49-.78-1.91c1,1.23.35-.07,2.72,3-.41-1.23-1.77-2.07-2.93-3.64-1.42-2.26-.21-1.18,1-.4s2.32,1.29.1-1.66c-1.6-2.65-5.31-6.38-7-8.39,1,.79,2,1.76,2.79,2.55s1.32,1.38,1.32,1.38c1.87,1.36,1.74.85.54-.49a40.57,40.57,0,0,0,3.33,2.68c-.15-.47-4.29-3.74-2.32-2.5,1.33,1.12,3.46,2.92,4.71,4.13-.88-1.18-3-3.22-4-4.28a37.89,37.89,0,0,1,4.52,3.81c-.72-1.08-1.37-2.31-4.86-4.81l-1.37-.73a33.53,33.53,0,0,1,3.65,2.61c2.55,2.22-1.47-.53-2.72-1.47l-.7-.74c-3.76-2.61-3.51-2.33-2.46-1.32s2.87,2.77,2.54,2.75c-1.67-1.47-3.35-2.91-5-4.34,1.37,1.23,2.72,2.48,4,3.77-1.37-1.07-4.18-3.5-4.87-4.22-2.57-2,1.69,1.67-1.13-.68-.43-.37-.67-.59-.86-.77.47.46.94.94,1.39,1.42-1-1-3.45-3.18-2.72-2.57-1.45-1.25-.56-.39.19.42s1.37,1.52-.42-.26l-.27-.3c.72.87,1.54,1.77,2.69,3s2.61,2.7,4.41,4.94q-4.2-4.34-8.23-8.82l3.22,3.67a14.92,14.92,0,0,1-1.69-1.83c2.1,2.6,1.41,1.59,3.41,4-1.52-1.63-1.26-1.17-1.28-1s-.29,0-2.65-3.13c2.2,3,1.87,2.17,3.28,4.34-2.56-3.32-2.35-3-1.85-2.24s1.29,2.05.13.52c-2.44-3.57-1.09-1.72-3.37-4.83,2.1,3,1.81,2.71,1.14,1.78s-1.71-2.48-1.34-1.89c3.11,4.9,1.18,2.14,2,3.87-1-1.71-1.75-2.68-2.66-4.58l-.42-.88c2.53,5.3,1.93,4.35,2.33,5.5-1.15-2.71-1.57-3.69-2.32-5.47l0,.06c.25.6.44,1.07.64,1.54s.35.92.46,1.23l-1.07-2.71,0,.06.27.72c.3.84.41,1.33-.05-.05.62,2,1.5,4.66,2.36,7.2a47.5,47.5,0,0,1,1.84,6.3c-.68-2.11-1.8-5.72-2-6.61.07.29.47,1.78.15.89-.33-1.2-.67-2.39-1-3.58-.54-1.55.88,3,.7,2.67-.89-3-.67-2.15-1.36-4.56-.08-.3.39,1.24,0,0-.1-.27-.28-.85-.52-1.65l-.18-.65-.09-.33h0v0h0l.18.71c.23.86.41,1.55.45,1.75a19.68,19.68,0,0,1-.51-1.94c0-.14-.06-.27-.1-.41h0v0c.13.6.08.39.34,1.58-.08-.39-.16-.74-.27-1.26,0-.06-.05-.24,0-.19h0l0,.15c.19,1.21.26,1.62.54,3.39l.06.32,0,.21h0c.27,2.35,0,1.68-.18.7s-.29-2.31-.31-1.31l0-1.58c0,1.79-.06,1.08-.29,4.46a3.7,3.7,0,0,1,0-.48c0-.35,0-.76,0-1.2.06-1,.12-2.14.18-3.08-.07,1.18-.3,2.94-.06.35.07-.65,0-.1.08-.76v.15s0,0,0,.07v0l0,.08h0l-.22,1v-.08l0-.12.07-.22c0-.06,0,.11,0,.06a1.59,1.59,0,0,1,.08-.21l.12-.24-.6,1.16c-.79,1.54-1.59,3.06-2.08,3.81a41.35,41.35,0,0,1,2.07-3.92l.68-1.19h0v0l0,0v0h0l.07-.12c0-.06,0,0,0,0a1.66,1.66,0,0,1,.16-.24h0l.06-.08h0l-.4.51-.32.41.78-1s0,0,0,0l.09-.11,0,0,0,0h0v0l0,0h0l0,0h0l-.16.12c-.29.22-.4.3-.77.55l.91-.65h0l-.1.07,0,0-.16.09,0,0,.13-.08-.08,0,.11-.06-1.9,1.12c2.46-1.47,1.75-1,.81-.52s-2.11,1.06-.4.16l1.29-.65-.41.18.07,0-.2.07-.06,0-.16,0-.1,0-.18.05h-.07l-.46.07c-.18,0-.23,0-.1,0l.54-.08-.1,0-.19,0h-.08l-3.37.17c1.23-.08,2.14-.13,2.81-.15l.45,0h-.16a.72.72,0,0,1-.17,0h-.05l-.83-.19h0l.78.18h0l-.78-.18h0l-1.18-.35c-.6-.18-.72-.25.07,0l1.22.4h0l.21.08h0c.08,0,.14.07.28.14h0s.11.06.17.11c.25.16-.48-.31-.8-.55s-.66-.5-.94-.74l1.89,1.39,0,0-1.83-1.35c-.59-.44-1.05-.81-1.26-1,.9.65,1.74,1.28,2.77,2.1l.5.4-.09-.08a1,1,0,0,1,.15.14h0a1.32,1.32,0,0,1,.24.23l-.66-.7c-2.13-2.28-1.49-1.68-.77-.88s1.57,1.76.07,0l1.46,1.7.07.08-.54-.71-.59-.82c-.35-.51-.62-.94-.77-1.19.66,1,1.24,1.81,1.78,2.56l.15.21h0v0l-.06-.07.08.11,0,0,0,0h0l-.26-.37-.58-.85a5.59,5.59,0,0,1-.87-1.52l1.75,2.8s0,0,0,0v0a2.35,2.35,0,0,1-.17-.47c0,.09,0-.08,0-.06l0-.1a1.12,1.12,0,0,1,0-.21s0,.07,0,.07l0-.18s0-.06,0-.15l0,.13a2,2,0,0,1,0-.44v.08a3.38,3.38,0,0,1,0-.55h0a1.63,1.63,0,0,1,.06-.34,1.27,1.27,0,0,1,.06-.18v0s0-.06,0-.05h0v0h0l.34-.55h0v0l0,0a1,1,0,0,1-.13.14h0s-.17.16-.27.23l-.15.09-.21.13a4.59,4.59,0,0,1-.84.33h0l-.13,0h0l-.15,0h0c-.15,0,0,0,.1,0l.15,0h0a4.21,4.21,0,0,1,.49.12l-.05,0a1.52,1.52,0,0,1,.32.12l0,0a3.39,3.39,0,0,1,.71.37l0,0,.22.17.08.06.08.08.07.08,0,0h0l.06.07s0,0,0,0,0,.06,0,0h0l0,0v0h0l.2.46h0a.08.08,0,0,1,0,.05s0-.06,0-.08h0a.84.84,0,0,1,0,.1v0h0s0,0,0-.05a.38.38,0,0,1,0-.1h0V708s0-.15,0-.21h0s0,0,0,0v0h0a.48.48,0,0,0,0,.17.54.54,0,0,1,0-.18v-.07h0s0,0,0,.1l0-.28,0-.15a4,4,0,0,1,.23-.71l0-.09,0,.09c.06-.12.16-.36.18-.38l.06-.1v0c.11-.16.14-.23.21-.31s.05-.06,0,0h0a3.73,3.73,0,0,1-1.28.73,1.86,1.86,0,0,1-.33.1h0l-.17,0a1.87,1.87,0,0,1-.35,0,1,1,0,0,1-.25,0h0l-.14,0h0l-.06,0,.12,0,.09.05h0l-1.36-.69c-.39-.21-.76-.44-1.14-.69l-9.55-5.42c-3.05-1.69-6-3.06-8.79-3.21a37.66,37.66,0,0,0,3.62,3.09c-1.17-.33-2.35-.63-3.53-.91.08-.41.16-.82.26-1.23-3.41-.68-.84,1,1,2.09a12.25,12.25,0,0,0-4-.7,57.89,57.89,0,0,0,6.46,3.31,37.81,37.81,0,0,1-4-1.16,5.12,5.12,0,0,0-3.23-.3,16.92,16.92,0,0,0,4.64,1.17,9.92,9.92,0,0,1,3.75,1.18c-3.41-.18-6.12-.72-3.39.47a9,9,0,0,1-3.87-1c2.11,1.12.69,2.13,4.64,2.73-2.11.16-1.86.76-2,1.22s-.52.84-4,1c.85.08,2.23.38,3.47.59a7.07,7.07,0,0,1,2.48.7c-4.25,0-4.32.49-4.41,1.24s-.21,1.57-4.67,2.35c3.81-.24,4.79.19,5.42.82a2.86,2.86,0,0,0,3.09,1.26c-.58.17-1.77.47-1.45.22-.33.91-2.35,2-3.45,3,5.77-2.44,7.49-2.17,11.08-3.67a29.5,29.5,0,0,1-5.83,3.25,38.44,38.44,0,0,0-5.9,2.74,16.13,16.13,0,0,1,4.72-1.7,10.53,10.53,0,0,0,4-1.78,56.56,56.56,0,0,1-5.54,4.37c3.34-2,3.69-2.13,3.75-2s-.14.63,2-.56c-2.69,2.89-5.83,4.51-3.32,3.87a9.28,9.28,0,0,1-2.78,2.11A9.62,9.62,0,0,1,796.72,725.38Zm26.66-.79v.09l-.45.29A3.15,3.15,0,0,0,823.38,724.59Zm1.84-.33a1.1,1.1,0,0,0-.82,0,9.49,9.49,0,0,1-.32-3.06A9.94,9.94,0,0,0,825.22,724.26Zm-3.3-16.3v0h0Z" transform="translate(-780.27 -545.58)"/><polygon class="cls-1" points="41.66 162.3 41.66 162.29 41.66 162.31 41.66 162.32 41.66 162.3"/><path class="cls-1" d="M822.72,709.76l0-.1.11.63Z" transform="translate(-780.27 -545.58)"/><polygon class="cls-1" points="67.01 163.99 65.88 163.88 66.85 164.14 67.01 163.99"/><path class="cls-1" d="M830,723.57c.17.36.35.73.53,1C830.36,724.33,830.16,724,830,723.57Z" transform="translate(-780.27 -545.58)"/><path class="cls-1" d="M832.34,723.49l1.09,1.22A14.49,14.49,0,0,0,832.34,723.49Z" transform="translate(-780.27 -545.58)"/><path class="cls-1" d="M835,724.43,834,722.82l0,0Z" transform="translate(-780.27 -545.58)"/><path class="cls-1" d="M801.45,723.4a.37.37,0,0,0-.22.05C800.39,723.78,800.76,723.71,801.45,723.4Z" transform="translate(-780.27 -545.58)"/><path class="cls-1" d="M815.57,721.75c-.43.7-.86,1.38-1.17,1.78C814.38,723.91,814.46,724.05,815.57,721.75Z" transform="translate(-780.27 -545.58)"/><path class="cls-1" d="M790.78,710.61h.08a.21.21,0,0,1,0-.11Z" transform="translate(-780.27 -545.58)"/><path class="cls-1" d="M814.07,723.28c-.28.87-.06.76.33.25C814.41,723.21,814.5,722.73,814.07,723.28Z" transform="translate(-780.27 -545.58)"/><path class="cls-1" d="M842.52,719.9l.21,0-.58-.43Z" transform="translate(-780.27 -545.58)"/><path class="cls-1" d="M842.15,719.5l-.37-.39S841.75,719.2,842.15,719.5Z" transform="translate(-780.27 -545.58)"/><path class="cls-1" d="M841,718.28l.81.83C841.83,719.05,842,719.05,841,718.28Z" transform="translate(-780.27 -545.58)"/><path class="cls-1" d="M839.24,720.68l1.2,1.11C840.2,721.55,839.81,721.19,839.24,720.68Z" transform="translate(-780.27 -545.58)"/><path class="cls-1" d="M839.07,721.56c.39.14,2.88,2,2.32,1.11l-.95-.88c.86.85,0,.32-.76-.2S838.14,720.55,839.07,721.56Z" transform="translate(-780.27 -545.58)"/><path class="cls-1" d="M824.11,708c.3.31.6.62.92.92-1.15-1.31-2.64-3.1-2.9-3.43l-.45-.52h0l.39.47A29.14,29.14,0,0,1,824.11,708Z" transform="translate(-780.27 -545.58)"/><path class="cls-1" d="M822.44,706.09c-.46-.67-.53-.78-.77-1.14h0Z" transform="translate(-780.27 -545.58)"/><path class="cls-1" d="M822.24,707.32h0Z" transform="translate(-780.27 -545.58)"/><path class="cls-1" d="M817.93,726.9c-.09.84-.17,1.69-.24,2.54l.88-3.65C818.36,726.16,818.15,726.53,817.93,726.9Z" transform="translate(-780.27 -545.58)"/><polygon class="cls-1" points="41.78 162.76 41.77 162.78 41.8 162.7 41.78 162.76"/><path class="cls-1" d="M820.52,707.75h0Z" transform="translate(-780.27 -545.58)"/><path class="cls-1" d="M821,708.43l.07.07Z" transform="translate(-780.27 -545.58)"/><polygon class="cls-1" points="39.16 161.19 39.18 161.19 39.16 161.19 39.16 161.19"/></svg>