<svg id="Layer_1" data-name="Layer 1" xmlns="http://www.w3.org/2000/svg" viewBox="0 0 219.39 211.51"><defs><style>.cls-1{fill:#202020;}</style></defs><title>5</title><path d="M873.3,561.14c-3.22,6,.94,14.81,7.7,15.24s11.78-9.28,7-14c-3.3-3.27-8.63-2.92-13.24-2.34,1,4.83,7,8.24,11.29,5.83s3.66-10.35-1.17-11.35-7.89,7.57-3.29,9.33" transform="translate(-850.09 -534.01)"/><path class="cls-1" d="M877.74,573.75c.53-1.27,1.71-4.15,1.09-3.76-.77,1.59-1.59,3.16-2.44,4.71A16.31,16.31,0,0,0,877.74,573.75Z" transform="translate(-850.09 -534.01)"/><path class="cls-1" d="M880.25,564.05c-.82,1-2,2.26-3.48,3.74a39.79,39.79,0,0,0-4.46,5.17c1.93-1.69,2.52-2.17,3.19-2.74a20.91,20.91,0,0,0,3.26-3.66c.55-.39-.44,1.71-1.45,3.38.4-.55.39-.23.52-.11s.39,0,1.2-1.43c1.37-3.92,1.56-3.95-.87-1.51C878.77,565.88,879.68,564.84,880.25,564.05Z" transform="translate(-850.09 -534.01)"/><path class="cls-1" d="M884,558.86s0,0,0,0Z" transform="translate(-850.09 -534.01)"/><path class="cls-1" d="M881.65,560.41h0Z" transform="translate(-850.09 -534.01)"/><path class="cls-1" d="M882.48,560.68l-.05,0Z" transform="translate(-850.09 -534.01)"/><path class="cls-1" d="M884,558.86v0Z" transform="translate(-850.09 -534.01)"/><path class="cls-1" d="M867,567.08a3.33,3.33,0,0,0,1.49-.05,2.69,2.69,0,0,1-.71-.24Z" transform="translate(-850.09 -534.01)"/><path class="cls-1" d="M884.34,558.74l0,0,0,0Z" transform="translate(-850.09 -534.01)"/><path class="cls-1" d="M886,560.31l-.32-.19.33.2Z" transform="translate(-850.09 -534.01)"/><path class="cls-1" d="M883.62,560.32l-.08,0Z" transform="translate(-850.09 -534.01)"/><path class="cls-1" d="M884.08,558.14v0Z" transform="translate(-850.09 -534.01)"/><path class="cls-1" d="M865.52,544.27l.26.76A3.46,3.46,0,0,0,865.52,544.27Z" transform="translate(-850.09 -534.01)"/><path class="cls-1" d="M873.58,562.23l0,.27.6,2.38Z" transform="translate(-850.09 -534.01)"/><path class="cls-1" d="M883.54,561.42Z" transform="translate(-850.09 -534.01)"/><path class="cls-1" d="M880.61,578.33c.26-2,.48-3.26.73-4.58a48.36,48.36,0,0,0,.75-4.91C881.81,570.57,880.88,575.73,880.61,578.33Z" transform="translate(-850.09 -534.01)"/><path class="cls-1" d="M867.46,566.55a.85.85,0,0,1-.22-.47C867.18,566.35,867.25,566.5,867.46,566.55Z" transform="translate(-850.09 -534.01)"/><path class="cls-1" d="M882.09,568.84v0l0-.43Z" transform="translate(-850.09 -534.01)"/><path class="cls-1" d="M883.09,558.48v0Z" transform="translate(-850.09 -534.01)"/><path class="cls-1" d="M883,560.48h0Z" transform="translate(-850.09 -534.01)"/><path class="cls-1" d="M883.46,557.55l0,0h0Z" transform="translate(-850.09 -534.01)"/><polygon class="cls-1" points="33.28 23.61 33.29 23.6 33.3 23.59 33.28 23.61"/><path class="cls-1" d="M866.54,553.86,868,557.5C866.82,554.58,866.16,553.23,866.54,553.86Z" transform="translate(-850.09 -534.01)"/><path class="cls-1" d="M869.37,566.12a4.5,4.5,0,0,1-1.91.43,1.09,1.09,0,0,0,.35.24A9,9,0,0,0,869.37,566.12Z" transform="translate(-850.09 -534.01)"/><path class="cls-1" d="M867,584.71c-.26-.42-.52-.84-.76-1.26A1.62,1.62,0,0,0,867,584.71Z" transform="translate(-850.09 -534.01)"/><path class="cls-1" d="M901.18,552.67l.37-.58C901.63,552,901.55,552.12,901.18,552.67Z" transform="translate(-850.09 -534.01)"/><path class="cls-1" d="M862.72,581.61a15.71,15.71,0,0,0,1.52-2.81,11.41,11.41,0,0,0-.88.77C863.13,580.24,862.92,580.92,862.72,581.61Z" transform="translate(-850.09 -534.01)"/><path class="cls-1" d="M868,557.55v0Z" transform="translate(-850.09 -534.01)"/><path class="cls-1" d="M863,545.33c0,.25,2.24,5.52,3.55,8.73.74,2-1.62-3.81-2.75-6.46.31.87,1,2.59,1.67,4.1.47,1.12.85,2,1.17,2.79-.37-.88-.45-1.08-1-2.34.41,1,.79,1.89,1.24,2.94.16.4.48.9,1.69,3.78l-.54-1.32c1.16,2.81,2.26,5.5,3.06,7.46.13.23,1.57,3.72.15.19,0,0-.16-.35-.37-.85l-.72-1.74.73,1.7c-2-5-.86-2-2.42-5.78.89,2,2.82,6.55,2.45,5.28-2-5-1.15-2.15-2.67-6.38.13.56.34,1.07.51,1.61-3-7.69.07.35-3.2-7.91-.15-.51.28.22.67,1s.78,1.48.73.92c1.19,2.9,1.58,4.14,2.76,7,2.5,5.62-4.14-12.45-1-5.34.69,1.83,1.55,4.09,2.25,5.93.65,1.67,1,2.52.68.88l-2.12-5.89c.64-.39,3.11,8.53,2.63,4.83-.82-2.36-1.17-2.12-1.27-2.79-.88-4.5,1.38,3.44,1.72,3.57l-1.4-5.21a15.5,15.5,0,0,1,2.3,3c.38.62.77,1.24,1.16,1.86a8.2,8.2,0,0,0,1.12,1.29,22.08,22.08,0,0,1-.77-4.93c1.14,1.42,1.91,1.4,3,.54a13.23,13.23,0,0,0,1.66-1.68l.44-.51a1.38,1.38,0,0,0,.24-.32l.36-1c.52-1.47,1-2.91,1.52-4.33A12.7,12.7,0,0,1,883,553a15.25,15.25,0,0,0,.7-4.49c.86-2.68.75-1.7.45.14a33.6,33.6,0,0,0-.61,5.15,11.53,11.53,0,0,0,.93-3.3,15.31,15.31,0,0,0,.38-3.61c.2.11.41.23.62.33l.16.08.08,0a1.13,1.13,0,0,1,.07.28c.08.41.17.83.26,1.26a24.57,24.57,0,0,0,1.13,4c.42,1,.9,1.44,1.55,1.24s1.3-1,2.34-2.79l.4-2.24c1.13-1.18.25,2.61-.62,5.82s-1.69,5.9.08,2.86l.31-1.27a3.05,3.05,0,0,1,1-.45,1.38,1.38,0,0,1,.74.12,11.67,11.67,0,0,0,1.23.68c.64.15,1.68-.6,4.77-4.78-2.42,4.28-1.66,3.38-1.15,2.95s.76-.45-2.72,5.2l2.5-3.54,1.83-2.72c1.1-1.63,2.08-3,3.44-4.73.41-.43-4.17,6.8-4.8,7.83l3.63-5.52-3.69,5.7,4.35-6.55-.86,1.37c-.24.33-1.66,2.46-2.68,4-.76,1.19,0,.18,1-1.42l3.41-5.22-2.87,4.16,2.7-4c-3.47,5.16,3.59-5.45.39-.74-.76,1.19-2,3-2.69,4.08,2-3.21,1.91-3.42,1-2.31l2.24-3.43c.23-.55-.24-.36-.68,0a7.07,7.07,0,0,1-.66.45c-.23.09-.41.11-.49,0a87,87,0,0,1-4.78,7.92l3.06-5.2c-2,3.07-1.1,2.1-3.51,5.78a85,85,0,0,1,4.48-7.53l-1.21,1.55c.89-1.53,1.4-2.29,2.56-4.22-1,1.54-.28.18.18-.92s.72-1.9-.91.76l.85-1.52c-.52-.56-1.79.9-2.44.68-2.25,4.31-1.93,3.16-3.83,6.49.34-1.75,1.57-5.54.78-5.61-1.37,1.83-1.76,3.54-3.06,6,1.72-3.93,1-4,2.5-6.59-1,.11-1.38.13-3.5,2.69a28.07,28.07,0,0,1-1.22,3.75c-.38.54.28-1.9,1-3.77l.19-.38c-1.62,2.64-1.16-.59-1.1-3.5s-.11-5.51-1.73-1.55l.17-.39q-1.14,2-2.16,4c-.33-.85,1-2.91,1.19-5.52-1.39,3.17-1.77,2.8-2.14,2.16s-.69-1.53-1.55.62c.54-6-.35-6-1.25-5.32s-1.8,1.88-2.16-2l-.12,2.85c-.47,2.76-.24-1.65-.48-2.32-.07,2.21.21,2.58-.07,4.11-1.45,1.65-2.67.6-4-1.14s-2.7-4.18-4-5.36c-.89-.67,1.1,14.7-.51,8l-.34-5.28c-.26,2.16-.59,2.88-1,3.11L850.09,551l4.79,13.17c.47,1.29.5,2.77,1,4a3.86,3.86,0,0,0,3.65,2.44c-1.18.4-2.59,1.13-2.74.79-1.53,1.23-1.17,2-.13,2.13a6.63,6.63,0,0,0,4.07-1.17c0,.62-2.31,1.64-3.44,2.82-.71,1,.61.71,1.7.45s2-.49.59.86a2.78,2.78,0,0,1-1.44.65c1.76-.7,1.17,2.14,4.2-1.12-.38,1.17.41,1.3,1.1,1.39s1.29.14.77,1.44c1.9-1.62,1.84-.87,2-.32s.42.86,2.61-1.87c-4.55,5.65-1.65,6,.74,3.46-1.37,1.73-.61,2.28-2.43,4.72.91.44,2.32-.34,3.9-3.71-1.29,4.2.4,3.07,1.59,2s2.11-1.94.77,3.47c4.07-2.7,6.81-5,9-6.6-.11,3.61-.86,3.78-1.54,3.93s-1.38.35-1.85,4.1c1.62-1.29,2.76-3.5,3.73-5.22s1.64-2.82,2.88-2.12c.75.89.08,3.15-.07,4.41,1.21-1.65,2.39-1.67,3.67-2A3.06,3.06,0,0,0,892,580a5,5,0,0,1,.34,2c.34-.4,1.49.49,0-2.44l0,1a26.08,26.08,0,0,1-2.57-6.61,27.67,27.67,0,0,0-1.91-5.07c2.13,4.21,2.71,4.55,3.55,5.07a6,6,0,0,1,1.6,1.5,27.43,27.43,0,0,1,3,5.08,8.18,8.18,0,0,0-1.88-4c.72.27,1.67,1.17,2.68,3.52a5.29,5.29,0,0,0-.78-3.54c-.5-1-.9-1.78-.37-2.23a29.91,29.91,0,0,1,2.41,3.32c-.71-1.45-1.51-2.84-1.93-3.82s-.44-1.58.41-1.57c.69.66,1.74,1.35,1.49,1.62.49-1-.66-2.93-1.65-4.38s-1.84-2.47-.14-2.54c6.06,3.33,2.33.39,7.88,2.52-.4-.6-.82-1.18-1.26-1.73-1-.17-1.92-.36-2.87-.57.19-.4-.68-1.12-1.38-1.69s-1.21-1-.19-1.07c.76.36,1.52.75,2.26,1.16-.24-.6-.5-1.18-.78-1.73-.8.14-1.59.24-2.38.31a22.11,22.11,0,0,0-4.55-1.3c-1.27-.27-2-.42-1.08-.55.58.2.15-.36,3.66-.26h0c-1.86-.52-3.84-.84-2.34-1.11,1.92,0,6.59.37,7.87.35-2.48-.3-2.82-.69-3.22-1.09s-.84-.8-3.51-.76c1.26,0,4.38-.17,5-.27-1.35,0-2.71,0-4.06,0a17.33,17.33,0,0,1,4.38-.72c.3-.57-1.57-.23-3.13,0s-2.81.44-1.26-.25a12.5,12.5,0,0,1,1.56,0c.76-.66.06-1.1-.68-1.44s-1.38-.59-.58-1.38c5.56-2.34,1.69.47,6.39-1.47a4.4,4.4,0,0,0-2-.92,17.24,17.24,0,0,0-2.66-.39c-1.77-.19-3.16-.18-3.06-1.25a5.58,5.58,0,0,1-.35.63c-3.51,2.37-2.75,1.66-1.72.38s2.28-3.14.55-2.07a25.66,25.66,0,0,0,2.86-2.44c0-1-1.07-1.24-2.35-.95a16,16,0,0,0-4.25,1.89q.57-.91,1.2-1.83a1.94,1.94,0,0,0-.8-1.93,3.78,3.78,0,0,1-1.38-1.18c-.85,2-1.17,1.57-1.64,4.73.24-3.17-.58-4.41-1.33-4.59s-1.6.7-2.19,1.76-1,2.14-1.46,2.39-1.12-.27-2.77-2.39c.27-.14.06-2.07-.21-2a15.48,15.48,0,0,0-.78,1.42,9.31,9.31,0,0,0-.49,1.43c2,3.11,1.37,1.78,3,4.17.85,2,1.52,3.63,1.37,3.72a21.05,21.05,0,0,0-2.1-3.58,23.69,23.69,0,0,0-2.6-2.9c.7.89,1.31,2,2,2.91-2.25-2.45-1.24-.88,0,.82s2.75,3.6,1.08,2.12l-1.24-1.49c.39,1,2,3,1.49,2.71-3.21-2.84-1.24-1.57-3.69-4.1-.15.31,1.12,1.91,2.11,3s1.61,1.75-.18.58c-.83-.87-.67-1.09-1.43-2a15,15,0,0,0-3.32-2c-.42-.12-.42.07-.89,0l.12,0a22.46,22.46,0,0,0-2.57-.29c.44.15.88.31,1.31.48,4.4,3.45,4.76,3.86,4.62,4.16s-.73.45,2.49,2.22c-3-1.68-3.88-2.24-4.58-2.49a22.1,22.1,0,0,1-3.38-1.36,17.24,17.24,0,0,1-4.13-1.11c1.68,1.06.88,1,.26,1.07s-1.05.36,1.55,1.63c-1.5-.43-.32.57-4-.65.94,1.2,2.67.52,4.52,1.18,2.42,1.28.7,1.3-.77,1.88s-2.74,1.51.92,2.59a14.12,14.12,0,0,0,5.61,1.19,50.26,50.26,0,0,0,5.36,0,26.76,26.76,0,0,1-3.7.76,14,14,0,0,1-1.91.12c-2.17,1-1.59,1.6.32,1.56a14.93,14.93,0,0,0-3.91,1.71c.66.54,5.37-1.86,3.56-.27a32.87,32.87,0,0,1-5.93,2.1,11.67,11.67,0,0,0,3.22,0c1.17-.15,2.3-.41,3.07-.53a9.59,9.59,0,0,1-2.8,1.75c-.88.35-1.72.51-2.59.81a7.48,7.48,0,0,0,3,.37,7.62,7.62,0,0,0,4.09-2.29c.24-.48.5-.94.78-1.39.3,0-2.55,2.68-3.34,3-1.56.82-1.51.24-.86-.52a19.79,19.79,0,0,1,2.52-2.29c.36-.07.71-.16,1-.26,3.41-3.08,3.15-2.83,1.74-2.34s-3.9,1.14-3.83.6c2.1-.72,4.18-1.52,6.21-2.39a29.22,29.22,0,0,1-5.32,1.53,56.53,56.53,0,0,1,6.11-2c1.54-.57,1-.35.45-.23s-1,.2.76-.26l.83-.19h0l-.21.05-.49.09c-.32.06-.65.11-1,.15l1.29-.23.59-.1h0l-.09,0a2.36,2.36,0,0,1,.53-.06h0l-2.2-.08a39.7,39.7,0,0,1-6.6-.59c2,.06,4,.18,6,.34,1,.09,2,.18,3,.29l.84.1h0l-.29,0-2.42-.33a14,14,0,0,1,2.47.33c-1.65-.29-2.17-.41-2.67-.48s-1-.13-2.53-.46c2.2.27,1.72.09,1.66-.07s.27-.19,4,1c-1.76-.59-2.44-.8-3-.94a11.87,11.87,0,0,1-2.16-.78c4,1.28,3.62,1.19,2.79.81s-2.17-1.06-.38-.37c2,.9,2.43,1.1,2.84,1.28l.33.13.13.06h0l-.52-.25c-.1,0-.06,0,.06,0l.43.2-.16-.08-.15-.09a6.69,6.69,0,0,1-.65-.42c-.09-.11.21.12-.54-.49l.55.44.26.2,0,0-.19-.17a3.82,3.82,0,0,1-.45-.45h0l-.17-.22a2,2,0,0,1-.21-.28l.1.14-.12-.17s-.06-.11-.12-.24l0,0a1.93,1.93,0,0,1-.13-.24c0-.05,0-.1,0-.17s0,0,0,0h0l-.21-1c-.58-2.62-1.23-5-1-6.48.39,2.18.91,5.93,1.06,6.83-.07-.29-.24-1.83-.07-.9l.1.93.08.58h0v0c0-.37-.06-.6-.05-.52l.05.54h0v0s0-.08,0,0v.07a1.38,1.38,0,0,1,0,.14l0,.06v0h0l-.15.7h0v0a1.24,1.24,0,0,1,.06-.21v0h0v0h0a1,1,0,0,1-.22.26h0a1.64,1.64,0,0,1-.27.26l-.13.08,0,0,.33-.23.9-.6-.39.29-1,.66-.08.05a4.47,4.47,0,0,1-.46.24l.2-.1a2.94,2.94,0,0,1-.57.26l-.27.1.15-.06-.32.11.06,0c-.23.06-.37.08-.47.1l-.17,0h0l.24,0h0a36.62,36.62,0,0,1,4.25.81,9,9,0,0,1-1.56-.22l-1.31-.28-1.17-.27h-.14l.25.06h0a3.32,3.32,0,0,1,.65.22h0a1.84,1.84,0,0,1,.42.2l.18.11h0a1.32,1.32,0,0,1,.25.16l.15.13s0,0-.06,0l.08.07,0,0,0,0,0,0,.08.09s0,0,0,0h0l0,0,0,0h0l0,0h0l-.55-1h0s0,0,0,0v0s0,0,0,0h0a.75.75,0,0,1,0-.16v-.06a1.32,1.32,0,0,1,0-.34c0,.07,0,.08,0-.09l0,.3c0-.06,0-.11,0-.16a1.25,1.25,0,0,0,0,.21c0-.09,0-.08,0,0a.88.88,0,0,1,0-.16s0-.08,0-.11v-.14h0a4.57,4.57,0,0,1,.09-.88s0,.09,0,.13,0-.26.06-.37l0-.11.08-.29.05-.14.1-.23v-.06h0l-.06.13-.14.29c-.36.75-.59,1.16-.49.91.37-.7.89-1.74.74-1.43h0l0,.07.06-.11.07-.12v0l0,0-.29.45c-.16.25-.25.38-.22.32l.55-.83h0l-.27.4-.58.86c-.43.64-1,1.46-2,2.93,2.67-4.16,2.68-3.93,2.4-3.68-.11.12-.27.27,0,0l.25-.28.13-.13,0,0a3,3,0,0,1-.31.28l0,0-.09.07-.57.4c-1.81,1.29-3.66,2.45-2.36,1.47,1.07-.71,1.76-1.13,2.21-1.41l.51-.32s.07-.05,0,0-.24.16-.43.24l.05,0a2.44,2.44,0,0,1-.49.2h0l-.13,0-.09,0-.46.1-.54.1-5.24,7.33c0-.47.11-.88.16-1.26.37,4,.09,2.15.67,6.25.09-.61-.87-6.59-.66-7.78.38,2.2.85,4.1,1.37,8.48l-.26.27c.82,5.65.34-.23.6.74l.25,2.48c.29-.85-.32-7.1.19-6.7l-.21-1.88c-.25-6.22.5,3.47.39-1.16l.53,6.3a62.37,62.37,0,0,1,.41-7.33c0,4.69-.14,7.09-.13,9.88.14,0,.36-.49.29-3.6,0,.61,0,2.16-.1,1.19-.11-5,.11-7.42.45-7.32.08,6.13.23,6.9.37,7.32s.3.53.11,5.28c.16-2.27.36-1.75.39-.8s0,2.4.13,2.07c1.17-9.45.12-.25,1.48-9.92.22-.59.25-.42.16.2-.17,2-.39,3.9-.64,5.83-.45,2.8-.45,2.09-.81,4.25,0,.76-.67,4.08-1.14,6.62.64-3.42,1-4.89.74-3.57.29-1.47.55-2.94.8-4.42.59-2.51.26-.49-.15,1.52s-.84,4-.21,1.54l-.72,2.95c.46-1.72,0,.06,2.22-7.27-.29,1.08-1,3.59-1.23,4.24s.55-1.32,1.16-2.72,1.13-2.33.38-.1l-.82,2.1c.25-.59,1.58-3.9.79-1.74-.35.86-.83,2.07-.87,2.21.28-.72,1.54-3.56,1.08-2.3l-1,2.27c-.51,1.42.09,0,1-1.73s2-4,2.37-4.48c-1.52,3.24-3,6.37-4,8.52l-.4.77a18.5,18.5,0,0,0,1.19-2c.77-1.32,1.71-2.88,2.26-3.65-1.53,2.73-1.87,3.35-2,3.7a13.86,13.86,0,0,1-1,1.8c.7-1.08,1.63-2.54,2.34-3.63-.56.88,1.73-2.62-.66,1.07l0-.09c-2.37,3.68-1.75,2.74-1.84,2.89l3-4.6c-2.28,3.49-1.89,2.91-1.56,2.41s.65-1-1.07,1.58c.4-.62.74-1.17,1.13-1.79l-1.31,2c-.42.6-.57.84-.39.46l-.8,1.34,1.54-2.62,1.06-1.84a5,5,0,0,0,.42-.85l-1.58,2.73a7.57,7.57,0,0,0-.67.95c-.21.3-.22.29.19-.81-.16.37-.47,1.08-.5,1.18s-.79,1.69.4-1.63c-.77,2.16-.22.26-.18-.68l-.39,1.57c.42-2,.51-2.56.38-3.11-.1.21-.28,1.26-.14.86-.3.83.11-1.49-.25-.68l-.06,1c-.17.1-.08-.44-.09-1.64-.1-.66-.45.35-.47,1.78,0-.88-.11-2.11-.23-1.73a8.38,8.38,0,0,0,.07,1.09c-.13.51-.23,0-.37-.44s-.27-.87-.27-.08c.07.55.1.83.11,1,.17.06.32,0,.3-.12.08,1.52,0,1.77.25,3.89-.05-.58-.17-1.51-.31-2.23s-.3-1.22-.29-.87l.07.54.05.19c0,.14,0,0-.11-.29a2.2,2.2,0,0,1,0,.44c.27,1.34.09.68.06.72-.44-1.83-.45-1.59-.75-3.06a1,1,0,0,0,.13.34,2,2,0,0,1,.07.2l0-.16a2.2,2.2,0,0,0,.2.23c-.23-.93-.5-1.76-.35-.81-.31-1.2-.67-2.45-.85-3a51.31,51.31,0,0,0,1.21,5.42c-.47-1.21-.48-.94-2-5.07-.26-.59.34,1.06.55,1.67.18.44.19.41.41,1-.48-1.13-.42-.71-1.58-3.7.38,1.13,1.13,2.81.76,2.09l.38.94c.82,2.22,0,.22-.9-1.92s-1.84-4.31-.48-1l-.48-1.16c.49,1.21.1.12-.25-.9a4.45,4.45,0,0,1-.26-1,6.79,6.79,0,0,1,.89,1.85c.47,1.08-.59-1.76-1.4-4.12l1.37,3.66L874,570c-.57-1.82.26.32,1,2.22s1.3,3.51.27.06l-.9-2.69c.17.36-.37-2.2.62,1.07-.16-.52-.89-3-.42-1.58l.68,2.2c-.35-1.38-.7-2.8-1-4.24.31.65.94,2.94,1.55,5.06s1.16,4.06,1.28,4.18c-.23-.95-1.66-7.18-2.08-8.74a32.75,32.75,0,0,1-1.08-3.65l-.23-1.42c-1.84-7.16-3.52-14.81-5.33-19.25q.42,2.4.87,4.8l-1.07-3.35.22-.56c-1-3.09-.38-.06.08,2.06-.55-1.82-1-3.05-1.23-3.66.53,2.42,1.13,4.83,1.72,7.24-.86-2.74-1.52-5.73-2.17-7,.84,3.36,2,6.08,2.43,8.47-1.08-3-1.88-5.73-1.16-2.74a35.25,35.25,0,0,1-1.11-3.91c.55,2.41-.09,1.49,1.11,5.37-1.4-3.76,0,1.75-2.2-5,.51,1.67,1.61,5.62,1.66,6.09-2.7-8.33-.37.27-3.42-8.34a27.86,27.86,0,0,1,1.53,5.41,12.89,12.89,0,0,0,.78,3.14c-.21-.58-.64-1.77-.5-1.45-.26-.33-1.1-2.39-1.65-3.55,2.25,5.88,2.78,7.61,4.24,11.41-2.22-5.31-2.74-7-4.88-12.33,1.88,4.71,1.89,5.26,3.47,9.08-1.39-3.24-.67-1.48-2.62-6.18,3,7.31.49,1.46,2.37,6.1-1.4-3.25-2.78-6.71-1.8-4.14C864.08,548.22,863,545.33,863,545.33Zm13,18.34v-.09l-.38-.3Zm1.38.29a.53.53,0,0,1-.57.07,12.41,12.41,0,0,0,.5,3.08A12.5,12.5,0,0,1,877.38,564Zm1.53,18.88c.08.27,0-.08-.06-.44a2.39,2.39,0,0,1-.1-.25l0-.23Z" transform="translate(-850.09 -534.01)"/><path class="cls-1" d="M878.3,580.42l0-.15-.07-.39.15.58Z" transform="translate(-850.09 -534.01)"/><path class="cls-1" d="M884,558.89h0v0Z" transform="translate(-850.09 -534.01)"/><polygon class="cls-1" points="52.49 16.28 51.65 17.55 52.37 16.44 52.49 16.28"/><path class="cls-1" d="M876.84,548a5,5,0,0,0-.79-.85A10.61,10.61,0,0,0,876.84,548Z" transform="translate(-850.09 -534.01)"/><path class="cls-1" d="M872.81,550.51c-.56-.15-1.13-.28-1.7-.4A10.23,10.23,0,0,0,872.81,550.51Z" transform="translate(-850.09 -534.01)"/><path class="cls-1" d="M869.1,552.38c.69.37,1.23.63,1.72.88h0Z" transform="translate(-850.09 -534.01)"/><path class="cls-1" d="M892.29,582a.43.43,0,0,0-.1.27C892.09,583.22,892.26,582.77,892.29,582Z" transform="translate(-850.09 -534.01)"/><path class="cls-1" d="M895.56,562a14.28,14.28,0,0,1,2.06.67C898,562.43,898.1,562.24,895.56,562Z" transform="translate(-850.09 -534.01)"/><path class="cls-1" d="M867.09,584.86l0-.07s-.08,0-.13-.08Z" transform="translate(-850.09 -534.01)"/><path class="cls-1" d="M897.44,563.25c.93-.09.78-.35.18-.62C897.3,562.79,896.8,562.93,897.44,563.25Z" transform="translate(-850.09 -534.01)"/><path class="cls-1" d="M869.79,572.29l.1.37a5.56,5.56,0,0,1,.56-.47Z" transform="translate(-850.09 -534.01)"/><path class="cls-1" d="M870.45,572.19l.63-.11C871,572,870.85,571.89,870.45,572.19Z" transform="translate(-850.09 -534.01)"/><path class="cls-1" d="M872.39,571.76c-.42.12-.86.23-1.31.32C871.25,572.26,871.4,572.6,872.39,571.76Z" transform="translate(-850.09 -534.01)"/><path class="cls-1" d="M867.84,564.25l-1.6.32A15,15,0,0,0,867.84,564.25Z" transform="translate(-850.09 -534.01)"/><path class="cls-1" d="M867,562.4a12.54,12.54,0,0,1-1.59,1.16c-.62.47-1,1-.47,1.24l1.28-.23c-1.22.12-.36-.53.49-1.08S868.42,562.45,867,562.4Z" transform="translate(-850.09 -534.01)"/><path class="cls-1" d="M886,560.36l-.23-.06s.13,0,0,0Z" transform="translate(-850.09 -534.01)"/><path class="cls-1" d="M886.12,560.4Z" transform="translate(-850.09 -534.01)"/><path class="cls-1" d="M883,559.74h0C882.89,559.8,883,559.73,883,559.74Z" transform="translate(-850.09 -534.01)"/><path class="cls-1" d="M899.2,555.82c.78-.35,1.56-.73,2.33-1.13-1.23.26-2.45.54-3.67.82C898.3,555.6,898.75,555.71,899.2,555.82Z" transform="translate(-850.09 -534.01)"/><polygon class="cls-1" points="31.16 26.33 31.19 26.33 31.14 26.33 31.16 26.33"/><path class="cls-1" d="M883.45,557.55h0Z" transform="translate(-850.09 -534.01)"/><path class="cls-1" d="M878,571.4c.28,2.51.54,4.11.42,1.63C878.31,572.7,878,570.75,878,571.4Z" transform="translate(-850.09 -534.01)"/><polygon class="cls-1" points="31.51 48.3 30.93 49.18 31.4 48.47 31.51 48.3"/><path d="M1032,570.94c1,3.86,7.83,3.76,8.72-.12s-5.21-7-7.79-3.91c3.13,3.44,10.09.79,10.14-3.86a6.56,6.56,0,0,0-8.36,3.83,4.64,4.64,0,0,0,6.44,3.28,3.39,3.39,0,0,0-4.72-2.78" transform="translate(-850.09 -534.01)"/><path class="cls-1" d="M1031.41,558c.63,1.23,2,4,2,3.32-.71-1.62-1.39-3.25-2-4.9C1031.41,556.91,1031.4,557.44,1031.41,558Z" transform="translate(-850.09 -534.01)"/><path class="cls-1" d="M1036.71,566.36c-.27-1.25-.56-3-.88-5a54.82,54.82,0,0,0-1.35-6.7c.24,2.55.3,3.3.37,4.17a28.79,28.79,0,0,0,.92,4.81c0,.63-.92-1.5-1.55-3.34.18.66,0,.43-.18.44s-.2.25.4,1.8c2,3.62,1.87,3.82,1.37.45C1036.19,564.06,1036.46,565.42,1036.71,566.36Z" transform="translate(-850.09 -534.01)"/><path class="cls-1" d="M1039.32,565.81v0Z" transform="translate(-850.09 -534.01)"/><path class="cls-1" d="M1038.32,566.35h0Z" transform="translate(-850.09 -534.01)"/><path class="cls-1" d="M1040,568.68h0Z" transform="translate(-850.09 -534.01)"/><path class="cls-1" d="M1039.32,565.81v0Z" transform="translate(-850.09 -534.01)"/><path class="cls-1" d="M1040,553.62a4.18,4.18,0,0,0-.56,1.34,2.36,2.36,0,0,1,.42-.52C1039.89,554.16,1039.93,553.91,1040,553.62Z" transform="translate(-850.09 -534.01)"/><polygon class="cls-1" points="189.27 32.84 189.27 32.84 189.27 32.84 189.27 32.84"/><path class="cls-1" d="M1038.05,570.36h0l0,0Z" transform="translate(-850.09 -534.01)"/><path class="cls-1" d="M1037.62,570.59v0Z" transform="translate(-850.09 -534.01)"/><path class="cls-1" d="M1039.27,566.33h0Z" transform="translate(-850.09 -534.01)"/><path class="cls-1" d="M1019.31,588.72l.52-.61C1019.48,588.41,1019.25,588.64,1019.31,588.72Z" transform="translate(-850.09 -534.01)"/><path class="cls-1" d="M1033.08,570.65l.24,0,2.1-.57Z" transform="translate(-850.09 -534.01)"/><path class="cls-1" d="M1040.53,569.08h0S1040.53,569.07,1040.53,569.08Z" transform="translate(-850.09 -534.01)"/><path class="cls-1" d="M1036.56,561.37c0-.06,0,.1,0,0S1036.55,561.31,1036.56,561.37Z" transform="translate(-850.09 -534.01)"/><path class="cls-1" d="M1040.12,554.24a.52.52,0,0,1,.37,0C1040.35,554.08,1040.24,554.07,1040.12,554.24Z" transform="translate(-850.09 -534.01)"/><path class="cls-1" d="M1036.56,561.38h0Z" transform="translate(-850.09 -534.01)"/><path class="cls-1" d="M1040.93,569.48h0Z" transform="translate(-850.09 -534.01)"/><path class="cls-1" d="M1040.8,569.37l0,0Z" transform="translate(-850.09 -534.01)"/><path class="cls-1" d="M1040.85,568.93v0h0Z" transform="translate(-850.09 -534.01)"/><polygon class="cls-1" points="190.81 34.27 190.81 34.28 190.8 34.3 190.81 34.27"/><path class="cls-1" d="M1041.64,592.13c-.42-1.2-.79-2.55-1.14-3.89C1041.28,591.34,1040.51,592.67,1041.64,592.13Z" transform="translate(-850.09 -534.01)"/><path class="cls-1" d="M1039.63,556.12a6.37,6.37,0,0,1,.49-1.88,1,1,0,0,0-.28.2A14.32,14.32,0,0,0,1039.63,556.12Z" transform="translate(-850.09 -534.01)"/><path class="cls-1" d="M1040.23,540c.39.21.76.43,1.13.66A1.36,1.36,0,0,0,1040.23,540Z" transform="translate(-850.09 -534.01)"/><path class="cls-1" d="M1042.32,548.35l.39-.45C1042.65,547.78,1042.52,547.88,1042.32,548.35Z" transform="translate(-850.09 -534.01)"/><path class="cls-1" d="M1044.86,540.31a19.32,19.32,0,0,0,.15,3.17c.11-.35.21-.62.33-1.12C1045.19,541.67,1045,541,1044.86,540.31Z" transform="translate(-850.09 -534.01)"/><path class="cls-1" d="M1040.49,588.2v0Z" transform="translate(-850.09 -534.01)"/><path class="cls-1" d="M1033.88,599.22c1.26.21.91-5.74,1.31-9.11,1.12-1.64.38,4.37.79,7.4,1-1.54,1.31-7,1.79-6.81a12.82,12.82,0,0,1,.19,2.54c.24-2.37.75-2.47,1.27-2.74s1.09-.76.87-3.72c.16.5.29,1,.39,1.42-.73-2.88-1.32-5.83-1.73-7.93.24-.15-.46-3.72.54,0a11.35,11.35,0,0,0,.37,2.63c0-.57-.06-1.13-.11-1.69,1.62,5.32.06,1.95.94,6a24.36,24.36,0,0,0,.14-3.82c0-1.23,0-2,.46-1.36,1.94,5.09-.65,2.14,1.57,6.5a17.37,17.37,0,0,1-1.51-1.72c3,8.09-.8-.42,2.28,8.26,1,.54,1.39-.32,1.62-1.12s.42-1.61,1.52-1.2c-.86-2.91-1.83-4.07-2.74-7-.12-1.43.19-1.4.83-.7s1.57,2.08,2.5,3.39c1.83,2.63,3.77,4.95,2.7,1.35-.75-1.67-2.06-3.95-2.85-5.5s-1.08-2.33.45-1.21q1.76,2.53,3.4,5.14c1-.35-.24-2.24-1.21-3.73s-1.74-2.55.29-1.67a3.15,3.15,0,0,1,.84,2c0,.4-.09.59.25.78,2.08,1.41,1.73.51.81-.66s-2.27-2.75-2-3.05q2,1.82,4.11,3.58a7.58,7.58,0,0,0-.17-4.34,30.25,30.25,0,0,1-1-4.13c1.44.75,2.81,1.86,4.55,2-.64-2,0-3.25,1.2-4.64s3-2.91,4.62-4.71c-1.58-.43-3.17-.78-4.75-1.05,0-.25,2.07-.67,3-.43.83-.73.08-.69-1.11-.49a14.33,14.33,0,0,1-3.75.3c-.39-.52,2.57-1.18,4-.92-1.06-.42-2.16-.91-3.2-1.3a17,17,0,0,1-2.61-1.22,1.82,1.82,0,0,1-1.06-1.42c0-.53.4-1.22,1.32-2.18l1.4-.31c.53-1.09-1.81-.35-3.78.43s-3.6,1.52-2,0l.8-.3c.21-1.51-1.06-2.26-1.72-3a2.17,2.17,0,0,1-.53-1.7,11.83,11.83,0,0,1,1.1-3.57c-2.22,2.55-2.15,1.66-2.35,1s-.6-1-3.13,3c.8-2.25,1.37-3.75,1.8-5.12a9.12,9.12,0,0,0,.38-4.49c-.37-.65-3.17,5-4,5.76l1.8-4.58c-.91,1.49-1.77,3-2.57,4.55.55-1.9,1-3.8,1.51-5.72-.34.33-.68.67-1,1a9.44,9.44,0,0,1-.66,3.6c-.74.94-.92,0-1-1.53a24.85,24.85,0,0,1,.29-4.84,30.93,30.93,0,0,0-3.14,3.7,10.54,10.54,0,0,1,1.31-3.78c-2,4.8.36-5.21-1.51-.78a27.74,27.74,0,0,1-.46,3.91c-.29-3-2.13-3.11-3.18-1.79l.07-3.4c-1.14-.41-2.62.19-3.87,1-.65.39-1.21.78-1.89,1.21a10.46,10.46,0,0,1-2,1.05c1.59,1.1,3.16,6.8,2.86,7.52q-1.05-2.38-2.18-4.74a5.92,5.92,0,0,0,1.08,2.46,7.76,7.76,0,0,1,1,3.08c-.89-.28-3-5.18-3-7a21,21,0,0,0-.41,2.16,36.9,36.9,0,0,1-1.6-4.07c.43,1.58-.69.69-1.81.16s-2.22-.69-1.07,1.91l-.92-1.24a6.89,6.89,0,0,0-2.68,3.15,23.32,23.32,0,0,1-1.57,3.22h0l-12.28,19,12.75,9.7.1.08c3.34-3,3.12-1.81,6-4.08-.11.89-.48,2.23-.58,3.47s.07,2.34.87,2.63a6,6,0,0,0,2.18-2.25,22.53,22.53,0,0,1,1.92-2.82c-2.14,3.51-.6,3.95-2.73,6.13a4.73,4.73,0,0,0,2.45,0,9.37,9.37,0,0,0,3.23-2,14.89,14.89,0,0,1,.93-3.71c.47-.54.1,1.85-.49,3.72l-.21.38c1-1.32,1.4-1.23,1.79-.43a35.9,35.9,0,0,1,1.16,3.73,6.88,6.88,0,0,0,1.54,3.17c.58.44,1.22,0,1.66-2.14l-.1.42a36.46,36.46,0,0,0,1.49-4.5c.36.33.33,1.1.26,2.11a9.23,9.23,0,0,0,.21,3.49c.74-3.48,1.31-3.3,2-2.89s1.54,1.1,1.69-1.27c1.21,3.61,2.13,4.73,2.85,4.81s1.2-.89,1.71-1.52c.61-.79,1.27-1.1,3.11,1.24l-1.3-2.54c-.84-2.68,1.15,1.26,1.76,1.69-1-2-1.55-2.09-2-3.58a2.49,2.49,0,0,1,1.83-1.9,11.86,11.86,0,0,1,3.3,0c2.57.29,6.07.45,8.71-.76.92-.56-1.87-3-4.09-4.92s-3.9-3.31-.55-2.23c1.4,1.08,2.77,2.2,4.13,3.35-1.79-3.42-.76-4.87.14-6.62.72-1.55,1.33-3.39-.94-5.33,1.17.39,2.74.65,2.66,1,2-.05,2.12-.87,1.37-1.61a6.75,6.75,0,0,0-4-1.46c.38-.5,2.83,0,4.45-.25.71-.23.52-.56,0-.86l-13.9-20.89c-1,.81-2.34,3.07-1.71.51a3.19,3.19,0,0,1,.83-1.35c-1,1.59-2-1.13-2.79,3.25-.24-1.18-.91-.83-1.48-.52s-1.07.59-1.29-.78c-.68,2.39-1,1.76-1.33,1.37s-.7-.5-1.07,3c.36-3.6,0-5.11-.57-5.26s-1.25,1-1.51,2.75c.19-2.19-.61-2.26-.43-5.29-.87.11-1.47,1.53-1,5.22-1-4.26-1.62-2.44-1.94-.94s-.49,2.7-2-2.66c-1.41,4.27-1.94,7.31-2.55,9.42-1.47-3.29-1.12-3.65-.78-4s.64-.78-.69-4.33a20.86,20.86,0,0,0,.08,5.9c.18,1.8.27,3-.76,2.58-.82-.67-1.38-2.82-1.83-4a2.15,2.15,0,0,1-1.36,2.35c-.65.38-1.24.95-.51,2.88a7.39,7.39,0,0,1-1-1.7c-.07.36-1.21-.38,1,2.09l-.37-.84a43.51,43.51,0,0,1,4.33,5.59,45.59,45.59,0,0,0,3.28,4.31c-3.09-3.54-3.64-3.85-4.43-4.33s-1.85-1.15-5.76-5.64a14.73,14.73,0,0,0,2.83,3.35,10.91,10.91,0,0,1-3.21-3c.54,2,3.4,4.08,2.82,4.63-1.22-1-1.57-1.55-2.92-2.85,2,2.43,4.22,4.57,2.77,4.29-.74-.6-1.79-1.28-1.64-1.44-.2.67,1.2,2.28,2.34,3.51s2,2.12.46,1.91c-6-3.41-2.22-.67-7.67-3.09.42.53.85,1,1.29,1.52q1.4.4,2.79.84c-.31.5,2.46,2,2.1,2.28l-.4,4.39c0,.1-.17.21-.44.35l-1.33-.1.47-5.21-1-.58.13.28-.51,5.65a13.89,13.89,0,0,0,1.14,1,22.51,22.51,0,0,1,2.06-1.2,21.63,21.63,0,0,0,4.7-.59c1.28-.23,2-.37,1.21,0-.61.06,0,.3-3.28,1.63h0c1.9-.3,3.82-.89,2.55-.06-1.71.85-6.11,2.5-7.25,3.06,2.37-.78,2.84-.6,3.36-.43s1.09.3,3.43-1c-1.11.57-3.82,2.14-4.35,2.52,1.21-.61,2.41-1.24,3.59-1.9a19.64,19.64,0,0,1-3.58,2.6c0,.61,1.48-.54,2.76-1.46s2.29-1.67,1.19-.4a12.61,12.61,0,0,1-1.36.76c-.41.9.41.89,1.14.79s1.36-.25,1,.73c-3.89,4.59-1.6.52-4.91,4.36,1,.2,2.83-.57,4.26-1.38s2.5-1.49,2.61-.61l.16-.68c2.22-3.61,1.77-2.67,1.19-1.14s-1.21,3.62-.11,1.92a36.21,36.21,0,0,0-1.73,3.35c.13.81.83.55,1.67-.24a21.77,21.77,0,0,0,2.62-3.26l-.66,2.08c0,1,.28,1.36.6,1.58s.68.32.93.85a17,17,0,0,0,.81-4.93c0,3.12.5,4.29,1,4.41s.91-.8,1.22-1.79.52-2.07.82-2.26.74.46,1.87,2.83a3.54,3.54,0,0,0,.16,2,15.52,15.52,0,0,0,.93-2.41c-1.42-3.42-1-2-2.14-4.66a26.8,26.8,0,0,1-1-3.81,32.47,32.47,0,0,0,1.5,3.87,30.52,30.52,0,0,0,1.9,3.37c-.5-1-.94-2.18-1.44-3.22,2.65,4.51-.84-2.36-1.29-3.51l.79-1.35c-.32,0-.2-.08.71-.25l1.94-.1c-1-.27-3.58,0-3.06-.29,4.18-.92,2-.14,5.49-.61-.16-.3-2.22-.2-3.68,0s-2.33.4-.35-.41a12.61,12.61,0,0,1,2.46-.07,12.86,12.86,0,0,0,3.56-1.62c.34-.3.18-.41.46-.79l-.09.09a16.38,16.38,0,0,0,1.57-2.14c-.36.31-.72.61-1.09.9-5.28,1.83-5.78,2-6,1.74s0-.84-3.09,1.19c2.9-1.91,3.81-2.34,4.37-2.84a24.27,24.27,0,0,1,2.83-2.3,17.44,17.44,0,0,1,2.91-3.14c-1.74.95-1.29.28-1.11-.32s.14-1.12-2.17.62c1.06-1.15-.36-.55,2.39-3.34-.76.14-1.15.71-1.56,1.37a10.2,10.2,0,0,1-1.51,2.15c-2.19,1.61-1.47.1-1.28-1.45.12-.76.12-1.5-.23-1.71s-1.07.12-2.22,1.58a16.16,16.16,0,0,0-3.29,4.65c-.94,1.81-1.71,3.61-2.2,4.85.3-1.21.67-2.59,1-3.63a16.66,16.66,0,0,1,.72-1.78c.26-2.31-.38-2.05-1.08-.35a21.51,21.51,0,0,0,.52-4.23c-.58.33-1,5.59-1.23,3.25a46.43,46.43,0,0,1,1.07-6.18,13.48,13.48,0,0,0-1.22,2.79c-.35,1.08-.62,2.16-.84,2.86a17.23,17.23,0,0,1,.56-5.9c-.9,1.18-2.18,2.6-1.59,6.87.19.49.36,1,.52,1.48a18.66,18.66,0,0,1-.48-4.45c.12-1.72.45-1.37.65-.39a27.59,27.59,0,0,1,.35,3.37q-.13.51-.24,1c.48,4.55.42,4.19.66,2.75s.83-3.93,1.12-3.62q-.6,3.28-1,6.58a38.91,38.91,0,0,1,1.16-5.41c-.19,1.73-1,5.36-1.2,6.34-.28,1.61-.19,1-.06.5s.29-1-.17.78v.06h0v0l.12-.41.15-.47c-.08.25-.18.57-.28.91h0v0a1.47,1.47,0,0,1-.07.17h0v0h0c.14-.26.28-.54.44-.83a49.49,49.49,0,0,1,3.31-5.74q-1.41,2.67-3,5.26l-.78,1.29,0,0h0l.22-.33-.21.32h0l.35-.48c.3-.41.56-.82,1.51-2.08-1.25,1.83-1,1.42-.83,1.38s0,0-.34.44l-.35.37-.22.23h0l.3-.3a21.77,21.77,0,0,1,1.64-1.6l-1.67,1.65-.24.23h0l0,0,.35-.3.45-.37c.19-.15.13-.06-.63.53l-.11.09,0,0,.23-.15a1.08,1.08,0,0,1,.26-.12l.14,0h0l.93-3.31,0-.06v0h0a1.41,1.41,0,0,1-.06-.27c.06.34.13.83.21,1.28a35.94,35.94,0,0,1,.76,6.52c-.3-2.19-.73-6-.84-6.86,0,.29.19,1.83.06.9-.06-.62-.12-1.24-.19-1.86h0v0h0l0,.14,0,.3a3.41,3.41,0,0,1,0,.52c-.06-.65,0-.5-.09-1V566c0-.06,0-.25,0-.19h0l0-.06h0l0,.07,0,.11,0,.09s0-.1.07-.27l0-.14,0-.11h0s0,0,0,0c-.2.34-.38.64-.61,1,0,0,.08-.16.24-.41l.28-.45.07-.12h0a.63.63,0,0,1-.07.1l0,0-.11.14s0,.06-.08.09l0-.05-.11.11,0,0a2.82,2.82,0,0,1-.47.35s.09-.06,0,0a.88.88,0,0,1-.19.1l-.15.06h0l-.65.14.62-.13h0l1.49,2.25h0l.17.07h0l.15.08.07,0c.07,0,0,0,0,0a1.16,1.16,0,0,1,.21.15l0,0,.07.05,0,0,.06,0,0,0,.12.1-.08-.07.06.06h0l.15.14,0,0s0,0,0,0l.08.09,0,0,.06.08,0,0,.1.14v0l0,.07h0l0,0,0,0,0,0h0v0h0l-.1-.19c0-.1,0-.11,0,0l.09.19h0s0,0,0-.06v0l0-.07v0l0-.09v-.06c0-.12,0-.13,0-.27v-.26h0c0-.5,0-.74.05-2,0,.59,0,1.12,0,1.62v.29h0v-.08s0-.09,0-.14l0-.21a1.81,1.81,0,0,1,.06-.2h0l0-.06-2.64-5h.1s-.1,0-.12,0h0l-.13-.05-.07,0,0,0h0l.09,0-.1,0h0l0,0h0c.65.35,1.17.64,1.41.8l-1.59-.91.12.07s-.17-.09-.22-.13h0a3.82,3.82,0,0,1-.36-.29l0,0,0,0,.35.32.37.34s-.34-.3-.74-.67l-.1-.09,0,0,0,0h0l.13.12-.16-.16-.13-.15,0,0,0,0h0l.07.08c.39.47.7.88.87,1.12l-1-1.27,0,0,.06.08a1,1,0,0,1,.14.15c-.05-.07-.2-.22-.22-.25l.07.08-.11-.13h0l.12.16.22.29.33.46c.17.24.23.36.21.35l-1.08-1.56a.88.88,0,0,1-.1-.18l-.06-.12a.34.34,0,0,1,0,.08s0,0,0,0a.11.11,0,0,1,0,0,.57.57,0,0,1,0,.14v0l0,.12,0,.12,0-.1a3.34,3.34,0,0,1,.05.4v-.08c0,.12,0,.47,0,.61s0,.05,0,0c0,.16-.05.33-.07.5s-.1.33-.11.38h0l0,.11h0a.59.59,0,0,1-.08.17l0-.05-.06.13,0,.05,0-.05h0l-.73,5.46a.54.54,0,0,1-.14-.13c0-.05,0,0,0,0a0,0,0,0,1,0,0,1.76,1.76,0,0,1,.19.78s0,0,0,.09a1.76,1.76,0,0,1,0,.25v0c0,.08,0,.25,0,.4v0a3.47,3.47,0,0,1-.11.56,1.25,1.25,0,0,1-.06.18l0,.06,0,.06h0l.1-.16,0,0a1.49,1.49,0,0,1,.15-.2l0,0a3.68,3.68,0,0,1,.63-.61l0,0a2.72,2.72,0,0,1,.3-.19l.12-.09.15-.07.15-.06.07,0h0l.2-.06h0c-.14,0,0,0,0,0h0a.23.23,0,0,0-.13,0h0a.53.53,0,0,1,.2.07h0l0,0h0s0,0,0,0a.66.66,0,0,1-.17-.16,1.82,1.82,0,0,1-.23-.27l-.18-.28-.06-.11.06.11a3.09,3.09,0,0,1-.21-.43l-.06-.15v0c-.09-.24-.12-.41-.16-.54a1.93,1.93,0,0,1,0-.29h0a2.69,2.69,0,0,1-.26,1,1.69,1.69,0,0,1-.13.29l0,0a1,1,0,0,0-.1.16,2.61,2.61,0,0,1-.38.49l0,0a.42.42,0,0,1-.12.1s0,0,0,0h0l0,0,.1,0a.3.3,0,0,1,.1,0h0l-.78.24c-.42.12-.85.23-1.29.32l-10.64,2.73c-3.37.89-6.43,1.95-8.52,3.88a32.78,32.78,0,0,0,4.77-.25c-1.06.6-2.1,1.22-3.13,1.87-.25-.37-.48-.75-.71-1.14-1.45,1-1.41,1.34-.75,1.38a14.18,14.18,0,0,0,2.94-.47A11,11,0,0,0,1014,581a50.89,50.89,0,0,0,6.94-2.19,32.48,32.48,0,0,1-3.65,2.05,4.79,4.79,0,0,0-2.46,2.13,15.48,15.48,0,0,0,4.08-2.5,9.32,9.32,0,0,1,3.49-1.84c-2.5,2.35-4.77,3.93-2,2.83a8.33,8.33,0,0,1-3.42,2.06,4.88,4.88,0,0,1,2.31,0c.63,0,1.39-.1,3-1.32-1.32,1.65-.68,1.91-.39,2.3s.29,1-2,3.66c.64-.56,1.78-1.41,2.8-2.15a6.78,6.78,0,0,1,2.23-1.32c-2.92,3.09-2.56,3.52-2,4.11s1.08,1.26-1.35,5.07c2.35-3,3.36-3.43,4.28-3.46a2.74,2.74,0,0,0,3-1.46c-.26.55-.82,1.65-.79,1.25.43.82-.1,3.05,0,4.59,2-5.94,3.39-7,4.63-10.72a31.64,31.64,0,0,1-1.43,6.52,40.13,40.13,0,0,0-1.85,6.24c1.21-4.92,2.63-4.62,3.14-8.84a55.11,55.11,0,0,1-.37,7.06c.67-3.87.85-4.18,1-4.1s.39.53.88-1.84c.4,3.91-.46,7.34.74,5a9.19,9.19,0,0,1-.24,3.48A9.8,9.8,0,0,1,1033.88,599.22Zm17.5-22.83.08,0c0,.24,0,.44,0,.58A3,3,0,0,0,1051.38,576.39Zm.64-2a1.45,1.45,0,0,0-.45.79,8.78,8.78,0,0,1-2.83-1.21A8.75,8.75,0,0,0,1052,574.43Zm-14.68-4.38h0Z" transform="translate(-850.09 -534.01)"/><polygon class="cls-1" points="187.24 36.03 187.24 36.03 187.24 36.03 187.24 36.03 187.24 36.03"/><polygon class="cls-1" points="189.22 31.82 189.22 31.82 189.22 31.83 189.22 31.82"/><polygon class="cls-1" points="195.1 12.99 194.68 14.05 195.22 13.19 195.1 12.99"/><path class="cls-1" d="M1044.52,578.21a6.76,6.76,0,0,0,.59,1C1045,579,1044.76,578.6,1044.52,578.21Z" transform="translate(-850.09 -534.01)"/><path class="cls-1" d="M1050.11,566c.42-.4.83-.82,1.22-1.26A9.89,9.89,0,0,0,1050.11,566Z" transform="translate(-850.09 -534.01)"/><path class="cls-1" d="M1050.26,561.54c-.67.43-1.16.77-1.61,1.08l0,0Z" transform="translate(-850.09 -534.01)"/><path class="cls-1" d="M1025.7,550.76a.38.38,0,0,0,0-.23C1025.34,549.68,1025.4,550.07,1025.7,550.76Z" transform="translate(-850.09 -534.01)"/><path class="cls-1" d="M1028.37,569.56a14.76,14.76,0,0,1-2.16.25C1026,570.13,1025.93,570.35,1028.37,569.56Z" transform="translate(-850.09 -534.01)"/><path class="cls-1" d="M1040.1,540V540c.05,0,.08,0,.13,0Z" transform="translate(-850.09 -534.01)"/><path class="cls-1" d="M1026.14,569.18c-.82.44-.57.62.07.63C1026.45,569.53,1026.85,569.21,1026.14,569.18Z" transform="translate(-850.09 -534.01)"/><path class="cls-1" d="M1035.88,553.14l-.26-.16c0,.3.05.54.06.72Z" transform="translate(-850.09 -534.01)"/><path class="cls-1" d="M1035.68,553.7l-.18.56C1035.61,554.25,1035.7,554.2,1035.68,553.7Z" transform="translate(-850.09 -534.01)"/><path class="cls-1" d="M1035.17,555.46q.15-.6.33-1.2C1035.32,554.28,1035.06,554.17,1035.17,555.46Z" transform="translate(-850.09 -534.01)"/><path class="cls-1" d="M1041.36,555.58l.46-1.57C1041.7,554.33,1041.55,554.84,1041.36,555.58Z" transform="translate(-850.09 -534.01)"/><path class="cls-1" d="M1042.94,555.56a14.61,14.61,0,0,1-.1-1.88c-.06-.74-.23-1.33-.65-.91l-.37,1.24c.42-1.14.5-.11.52.87S1042.32,556.8,1042.94,555.56Z" transform="translate(-850.09 -534.01)"/><path class="cls-1" d="M1037.6,570.73l0,.06s0,0,0,0Z" transform="translate(-850.09 -534.01)"/><path class="cls-1" d="M1037.93,570.44c-.08,0,0,0,0,0S1038,570.41,1037.93,570.44Z" transform="translate(-850.09 -534.01)"/><path class="cls-1" d="M1039.38,565.56Z" transform="translate(-850.09 -534.01)"/><path class="cls-1" d="M1027.58,576.24c-.54.66-1.07,1.34-1.58,2,1-.8,1.9-1.62,2.84-2.45Q1028.23,576,1027.58,576.24Z" transform="translate(-850.09 -534.01)"/><polygon class="cls-1" points="188.68 32.13 188.71 32.11 188.62 32.17 188.68 32.13"/><path class="cls-1" d="M1040.88,568.38h0Z" transform="translate(-850.09 -534.01)"/><path class="cls-1" d="M1037.42,562.4l-.14-.12Z" transform="translate(-850.09 -534.01)"/><polygon class="cls-1" points="185.55 36.81 185.56 36.74 185.54 36.87 185.55 36.81"/><path d="M873.83,716.52,870,721.89c2.77,2,6.9,2.44,9.42.17s1.7-7.44-1.64-8-5,5.69-1.66,6.27c.59-3.16-5.59-4.09-5.94-.88,2.4,2.35,7.24.83,7.86-2.48" transform="translate(-850.09 -534.01)"/><path class="cls-1" d="M888.49,718.93c-1.35-.28-4.42-.89-3.86-.54q2.58.61,5.13,1.3C889.34,719.42,888.92,719.17,888.49,718.93Z" transform="translate(-850.09 -534.01)"/><path class="cls-1" d="M878.67,717.74c1.21.46,2.85,1.15,4.74,1.94s4.06,1.71,6.38,2.45c-2.31-1.07-3-1.4-3.77-1.78a40.32,40.32,0,0,0-4.54-1.81c-.55-.32,1.71.2,3.58.74-1.29-.42,1.23-.08-2-1-4.06-.69-4.19-.8-1.07.56C880.89,718.56,879.6,718.06,878.67,717.74Z" transform="translate(-850.09 -534.01)"/><path class="cls-1" d="M873,716.4v0Z" transform="translate(-850.09 -534.01)"/><path class="cls-1" d="M872.82,721.18v0Z" transform="translate(-850.09 -534.01)"/><path class="cls-1" d="M872.85,721.72h0Z" transform="translate(-850.09 -534.01)"/><path class="cls-1" d="M873,716.4l0,.06Z" transform="translate(-850.09 -534.01)"/><path class="cls-1" d="M888.68,726.05a5.46,5.46,0,0,0-1-1,2.76,2.76,0,0,1,.33.53Z" transform="translate(-850.09 -534.01)"/><polygon class="cls-1" points="23.03 181.25 23.03 181.23 23.03 181.22 23.03 181.25"/><path class="cls-1" d="M873.09,715h0Z" transform="translate(-850.09 -534.01)"/><path class="cls-1" d="M873.83,716l0,0Z" transform="translate(-850.09 -534.01)"/><path class="cls-1" d="M873.11,715.89h0Z" transform="translate(-850.09 -534.01)"/><path class="cls-1" d="M855.58,705.75l.65.46C855.86,705.94,855.6,705.75,855.58,705.75Z" transform="translate(-850.09 -534.01)"/><path class="cls-1" d="M874.77,717.19l.19.17,2,1.47Z" transform="translate(-850.09 -534.01)"/><path class="cls-1" d="M873,721.23h0S873,721.25,873,721.23Z" transform="translate(-850.09 -534.01)"/><path class="cls-1" d="M877.2,717.32c0-.05-.05.09,0,0S877.24,717.25,877.2,717.32Z" transform="translate(-850.09 -534.01)"/><path class="cls-1" d="M888.09,725.86a.3.3,0,0,1-.12.26C888.16,726.1,888.2,726,888.09,725.86Z" transform="translate(-850.09 -534.01)"/><path class="cls-1" d="M877.2,717.33h0Z" transform="translate(-850.09 -534.01)"/><path class="cls-1" d="M876.52,717.92v0Z" transform="translate(-850.09 -534.01)"/><path class="cls-1" d="M873.51,720.43l0,0Z" transform="translate(-850.09 -534.01)"/><path class="cls-1" d="M876.42,718.29h0Z" transform="translate(-850.09 -534.01)"/><polygon class="cls-1" points="27.58 183.87 27.55 183.87 27.5 183.88 27.58 183.87"/><path class="cls-1" d="M854.89,710.42l3.32,2.3C855.6,710.88,854.79,710.05,854.89,710.42Z" transform="translate(-850.09 -534.01)"/><path class="cls-1" d="M886.58,724.63a8.17,8.17,0,0,1,1.51,1.23,1,1,0,0,0-.09-.29C887.45,725.18,886.93,724.83,886.58,724.63Z" transform="translate(-850.09 -534.01)"/><path class="cls-1" d="M856.29,732.57a24.77,24.77,0,0,1-.72-2.38A3.75,3.75,0,0,0,856.29,732.57Z" transform="translate(-850.09 -534.01)"/><path class="cls-1" d="M889.11,737.65l.12.56C889.36,738.25,889.35,738.1,889.11,737.65Z" transform="translate(-850.09 -534.01)"/><path class="cls-1" d="M852.53,724.48a13.39,13.39,0,0,0,2.77-1.76,10.26,10.26,0,0,0-1.18,0C853.57,723.3,853,723.87,852.53,724.48Z" transform="translate(-850.09 -534.01)"/><path class="cls-1" d="M858.25,712.75l0,0Z" transform="translate(-850.09 -534.01)"/><path class="cls-1" d="M850.41,705.35c-.23.1,4.64,3.45,7.38,5.46,1.22,1.18-3.61-2.43-6.12-4.13,1.19,1,5.53,4.3,5.27,4.26-.79-.56-1.1-.75-2.07-1.48,3.72,2.87-.1.53,4.59,4.12l-1.21-.83,6.61,4.7c0,.13,2.94,2.31-.22.09.12,0-1.14-.89-2.11-1.61l1.31,1.05c-4.57-3.16-1.48-1.22-4.83-3.62,1.31,1.17,4.72,3.88,3.73,3.34l2.1,12.47-.05.13c-.51.73-.89,1.26-1.2,1.63L861,715.44c-1.94-1.47-.31-.59-3.68-2.8l1.82,1c-7.07-4.85.56.23-7-5-.78-.37-.12.21.42.71l5.06,30c.58-.36,1.09-.65,1.07.21,1.83-2.41,2.41-3.76,4.21-6.19,1.9-2,.23,1-1.21,3.83s-2.73,5.53-.52,2.62c2-3,5.26-9.08,4-5.62q-1.47,2.7-3,5.37c.55,1,4.32-7.71,3.24-3.65-1.13,2.14-1.42,1.58-1.62,2.3-1.54,4.63,1.84-3,2.15-2.85l-2.11,5a8,8,0,0,0,2.36-2.1,17.68,17.68,0,0,1,2.21-2.35,31.06,31.06,0,0,0-1.51,4.76c1-1.11,1.55-.78,2,.26s.81,2.81,1.28,4.51q.66-2.26,1.23-4.56a11.08,11.08,0,0,1-.34,3c.29,1.84.44-3,.92-4.74.28-.29,0,2.72-.34,4.1a36.67,36.67,0,0,1,2.16-5c.63-1,1.14-.87,1.62,1.64l-.17,1.4c.4,1,.58-1.46.68-3.56s.14-3.9.57-1.74l-.06.84c.78,1,1.54.32,2.29.25s1.57.46,3.23,3.69c-.77-3.3-.2-2.67.36-2.42s1,.18-.61-4.25c1.23,2,2,3.43,2.81,4.62a9.73,9.73,0,0,0,3.13,3.14c.68.15-2.05-5.56-2.15-6.63l2.44,4.28c-.61-1.64-1.28-3.25-2-4.83,1.12,1.62,2.27,3.21,3.46,4.79-.07-.46-.14-.91-.22-1.37a10.5,10.5,0,0,1-2.33-2.82c-.3-1.13.51-.63,1.68.31a28.49,28.49,0,0,1,3.46,3.36c-.13-.78-.29-1.55-.47-2.31-.09-.37-.19-.75-.29-1.12l-.16-.55-.13-.59a8.18,8.18,0,0,1,1.29,1.86c.28.51.48,1,.79,1.56-1.24-2.26-.29-1.38.66-.42s2,1.94.89-.24a26.42,26.42,0,0,1-2.67-2.89c2.51,1.71,3.79.4,3.37-1.21l2.57,2.24a3.92,3.92,0,0,0,1.51-3.09,10.56,10.56,0,0,1,.51-3.43c-1.77.09-7-2.6-7.38-3.18l4.88,1.83c-2.87-1.5-2-.32-5.42-2.36.73-.24,5.67,1.75,7.09,2.8-.45-.5-.92-1-1.39-1.44,1.48.48,2.18,1,4,1.7-1.45-.75-.09-.66,1-.79s1.95-.43-.68-1.47l1.51.37c.57-2.07-1-3.37-1.1-4.89-4.47-.52-3.42-1-7-1.59.76-.36,2-.78,3-1.3s1.79-1.15,1.56-1.76c-2.29-.66-3.81.05-6.51,0,4.09-.39,3.56-1.52,6.56-1.27a4.09,4.09,0,0,0-1.32-1.54,9.84,9.84,0,0,0-3.43-1.14,18,18,0,0,1-3.6,1.25c-.71,0,1.5-1,3.39-1.56l.43,0c-3.22,0-.66-1.73,1.19-4.12a6.88,6.88,0,0,0,1.7-3.21c0-.77-.81-1.17-2.87-.39l.42-.14a28.16,28.16,0,0,0-4.78,1c0-.57.63-1,1.51-1.5a6.91,6.91,0,0,0,2.68-2.25c-3.5,1.21-3.88.51-4.25-.55s-.79-2.36-2.94-1c2.62-5.55.48-6.49-1.58-6.5a10.88,10.88,0,0,1-3-.1c-.84-.29-1.48-1.08-1.88-3.12l-.33,2.84c-1.17,2.62-.75-1.76-1.41-2.5-.11,2.21.67,2.65,0,4.13a13.7,13.7,0,0,1-5.24.76c-.9,0-1.85-.09-2.84-.17l-1.52-.12-1.5-.11c-1-.07-2.11-.1-3.23-.08s-2.1,0-3.18.18a19,19,0,0,0-3.14.62,14.26,14.26,0,0,0-2.67,1c-1.16.69,1.39,3.39,3.44,5.5a18,18,0,0,1,2.14,2.48c.24.49-.17.52-1.85,0-1.33-1.18-2.63-2.38-3.9-3.63a7.49,7.49,0,0,1,.65,3.94,6,6,0,0,1-1,2.38,4.82,4.82,0,0,0-.87,2.33,3.61,3.61,0,0,0,1.46,2.83c-1.15-.45-2.69-.83-2.59-1.14-1.95-.13-2.16.59-1.45,1.32a7.2,7.2,0,0,0,3.86,1.67c-.43.42-2.83-.29-4.45-.17-1.17.27,0,1,1,1.47s1.82.91-.1,1.05a2.67,2.67,0,0,1-1.52-.43c.91.31.77.91,1,1.4a1,1,0,0,0,.72.58,5.78,5.78,0,0,0,2.23,0c-1,.77-.47,1.5,0,2.09s.94,1.05-.17,2.06c2.52-.08,2.09.67,2,1.4s0,1.33,3.31.18a10.1,10.1,0,0,0-3.49,1.83,1.74,1.74,0,0,0-.58,1.84c.4,1.12,2.16,1.7,3.89,1.22a3.29,3.29,0,0,0-1.72,1.61,4.1,4.1,0,0,1-2.2,2,3.06,3.06,0,0,0,2.58,1.21,5.26,5.26,0,0,0,3.38-2.15c-1,2-.81,3.15-.15,3.59a3.86,3.86,0,0,0,2.78.06c2-.43,3.24-1.06,1.8,4.37a26.48,26.48,0,0,0,6.27-2.51l20.8-12-.82-1.82A29,29,0,0,0,891.2,720c-.33-.52-.64-1-1-1.44s-.67-.95-1-1.39c3.55-.63,4,.56,4.24,1.61s.49,2,4.28,2.08A10.36,10.36,0,0,0,895,718a24.64,24.64,0,0,0-3.17-2,13.54,13.54,0,0,1-2.43-1.54,2.38,2.38,0,0,1-.91-2c.24-.6,1-.89,1.83-1s1.84,0,2.47-.13a9.07,9.07,0,0,1-2.49-2c-.59-.64-1-1.29-1.53-1.93a8.42,8.42,0,0,0-.81-.87,2.92,2.92,0,0,0-1-.62,3.4,3.4,0,0,0-2.53.16,4.72,4.72,0,0,1,1.61-1.22c-.52-.12-.31-1.58-2.18,1.13.29-.16.59-.31.89-.45-1.16,2.11-3.07,3.78-4.61,5.39a25,25,0,0,0-3.44,4.18c2.61-3.92,2.72-4.54,2.88-5.49a8.15,8.15,0,0,1,.69-2.05,35,35,0,0,1,3-5.1,10.26,10.26,0,0,0-2.52,3.6c0-.71.41-1.94,1.91-4a5.75,5.75,0,0,0-2.44,2.49c-.6.92-1.06,1.65-1.49,1.45a39.23,39.23,0,0,1,1.79-3.67c-1.75,2.64-3.1,5.44-3.41,4,.3-.91.54-2.14.78-2-.78,0-1.84,1.91-2.6,3.42s-1.25,2.67-1.68,1.13c.85-6.86-.28-2.3-.18-8.27-.33.58-.68,1.18-1,1.78.15,1,.27,1.92.37,2.89-.36,0-.67,1-.9,1.87s-.41,1.46-.77.51q.07-1.24.24-2.49-.32.32-.6.63c-.21.22-.42.44-.61.67a19.85,19.85,0,0,1,1,2.13,25.64,25.64,0,0,0,.38,4.72c.17,1.28.28,2-.07,1.2-.05-.62-.27,0-1.41-3.37v0c.21,1.9.69,3.86-.09,2.57-.78-1.75-2.21-6.23-2.72-7.39.65,2.42.4,2.89.16,3.42s-.51,1.21.74,3.56c-.55-1.13-2.11-3.85-2.5-4.37.58,1.23,1.2,2.44,1.85,3.63a15.13,15.13,0,0,1-2.76-3.48c-.79.1.46,1.54,1.45,2.77s1.78,2.21.34,1.26a12.14,12.14,0,0,1-.78-1.36c-1.07-.25-1.24.85-1.19,1.71s.24,1.65-1,1.72c-5.54-2.43-.56-2-5.16-4.12a6.09,6.09,0,0,0,1.18,4.46,26.07,26.07,0,0,1,2.23,3.13l2.26,6.74.15,0c.27,0,.41.18.4.51l.28-.64c2.93-3.07,2.28-2.25,1.43-.86s-1.86,3.35-.45,1.91a36.32,36.32,0,0,0-2.34,2.95c.07,1.72,3-.51,5-2.62l-1,1.94c-.31,2,.85,1.56,1.07,2.63a18.77,18.77,0,0,0,1.57-4.75c-.5,3.08-.28,4.3.09,4.49s.88-.66,1.3-1.58a8,8,0,0,1,1-2.06c.27-.13.47.61.87,3.19a4.72,4.72,0,0,0-.21,1.92,16.66,16.66,0,0,0,1.05-2.06c-.4-3.68-.33-2.21-.7-5.08a26.88,26.88,0,0,1,0-3.91,37.46,37.46,0,0,0,.36,4.13c.2,1.42.5,2.79.72,3.8-.17-1.12-.26-2.37-.43-3.51,1.34,6.45-1-7.37,0-3.05l.32,1.92c0-1-.42-3.55-.18-3,1.06,4.15.31,2,1,5.43a16.72,16.72,0,0,0-.43-3.62c-.25-1.44-.46-2.32.25-.3.25,1.17.1,1.23.28,2.4,1.59,4.78,1.38,3.51,1.87,4.2l-.06-.1c.45.65.93,1.29,1.44,1.91l-.65-1.22c-1.58-5.35-1.69-5.86-1.5-6s.59.21-.84-3.16c1.35,3.19,1.68,4.14,2,4.79s.65,1,1.67,3.24a25.74,25.74,0,0,1,2.24,3.6c-.69-1.85-.2-1.23.24-.85s.83.54-.39-2.07c.82,1.33.45-.1,2.43,3.28-.13-1.37-1.57-2.22-2.52-3.93-1.09-2.46,0-1.28,1.29-.48s2.52,1.17.51-1.92c-1.35-2.83-5.1-6.61-6.94-8.47,1,.77,2.08,1.67,2.9,2.43s1.36,1.34,1.36,1.34c2,1.25,1.9.66.62-.65a27.13,27.13,0,0,0,3.56,2.35c-.11-.56-4.61-3.33-2.47-2.4,1.45,1,3.76,2.53,5.09,3.67A34.11,34.11,0,0,0,883.4,721a22.85,22.85,0,0,1,5,3.21c-.74-1.19-1.48-2.61-5.42-4.33-.51-.12-1-.25-1.51-.39a24.77,24.77,0,0,1,4.08,1.86c1.45.9,1,.93.09.58s-2.39-1-3.09-1.39c-.26-.23-.52-.44-.79-.65-4.18-1.89-3.84-1.72-2.66-.86s3.15,2.43,2.79,2.49c-1.79-1.31-3.62-2.57-5.46-3.81a54.9,54.9,0,0,1,4.38,3.38c-1.46-.94-4.41-3.19-5.2-3.81-1.35-.94-.86-.6-.44-.25s.8.67-.64-.47l-.68-.55h0l.17.14.38.32.74.65-1-.85-.35-.31,0,0a2.18,2.18,0,0,1-.21-.2h0l-.07-.07,1.28,1.44a61.92,61.92,0,0,1,4.24,5.08q-2-2.25-3.93-4.57l-1.69-2.08v0h0s0,0,0,.05l.19.24.75,1a4.39,4.39,0,0,1-.37-.45l-.44-.58c-.28-.38-.18-.24-.2-.26l1.09,1.49c.3.41.61.79,1.51,2.08-1.36-1.76-1.09-1.32-1.09-1.19s0,0-.35-.43l-.65-1.06c-.17-.3-.39-.66-.67-1.14h0l.11.18c.17.29.31.53.43.75.23.37.41.67.56.94a19.38,19.38,0,0,1,1.13,2c-2.11-3.62-1.91-3.32-1.49-2.5s1,2.18.16.48c-.64-1.29-.3-.6-1-2l0-.11v0h0c0-.07,0,.14.17.58l-.17-.58h0v.08h0v0l0,.16v-.06a.28.28,0,0,0,0,.08h0a1.91,1.91,0,0,1,0,.34h0s0-.07,0,.17c0,.68-.07,1.36-.1,2a42,42,0,0,1-.56,6.53c.15-2.21.47-6,.55-6.88,0,.29-.18,1.82-.13.88l.18-1.85.07-.84v.05l-.11,1.17a3.43,3.43,0,0,1-.06.51c.07-.74.12-1.25.16-1.63h0v-.06a1.37,1.37,0,0,0,0,.16v.05l0,.1,0,.1v.05a1.13,1.13,0,0,0-.06.19h0a1.45,1.45,0,0,1-.09.22.62.62,0,0,1-.08.12h0s0,0,0,0h0l-.18,3h0a.79.79,0,0,1-.3-.05c.12,0,0,0,.13,0a1.68,1.68,0,0,1-.25-.08h0l0,0h0a.55.55,0,0,1,.17.17,1.06,1.06,0,0,1,.22.35c0,.08-.08-.17,0-.09a3.33,3.33,0,0,1,.19.41c.06.25.07.24.14.52,0,0,0,0,0,0V721c0,.16,0-.32-.08-.49l.09.53v.19s0,0,0,0v-.06c0-.06,0-.15,0-.07v0c0,.12,0,.31,0,.27s0,0,0,0a3,3,0,0,1,0,.4h0a.8.8,0,0,1,0,.11v0s0,0,0,0,0-.08.06-.21l0,.09,0-.14v.05l0-.09,0-.06c0-.07.1-.21.11-.25l-.08.17a.64.64,0,0,0,.06-.14s0,0,0,0a2.07,2.07,0,0,1,.2-.39l.08-.11c-.09.11,0,0,0,0a1.73,1.73,0,0,1,.18-.26l-.07.09a1.24,1.24,0,0,1,.19-.21s-.09.09-.06.05.17-.21.34-.32l.08,0a.35.35,0,0,1,.17-.1h0L874,720l.1,0a.22.22,0,0,0-.12.06h0l.08-.05.06,0h-.08a.93.93,0,0,1-.37,0h.08a.41.41,0,0,1-.16,0l2.9-2.17v.09l0,.1a1.25,1.25,0,0,1-.1.29l0,.07v0a.2.2,0,0,1,0,.08s-.06.07,0,0l0,0,.05,0a.24.24,0,0,1,.08-.06l.11-.08h0l.05,0,.18-.07a2.24,2.24,0,0,1,.29-.11,1.17,1.17,0,0,1,.3,0l.27-.06c.25,0,.51,0,.68,0h0a3.43,3.43,0,0,1,.38,0h0a1.06,1.06,0,0,1,.29.06h0c.05,0,0,0,0,0h0a1.11,1.11,0,0,1-.32-.16c.06,0,.06,0,0,0h0l-.21-.13-.54-.34.66.41h0l-.05,0-.08,0,.15.1a1.57,1.57,0,0,1-.26-.19h0a2,2,0,0,1-.46-.43l0,0c-.1-.12-.08-.08-.18-.21l0,0s-.09-.15-.12-.2a1.14,1.14,0,0,1-.09-.16l.06.12,0,.05.06.11c-.07-.14-.12-.19-.14-.25l0,.07,0-.12,0-.08h0s0,0,0,0,0,.05,0,.08,0,.08,0,.1v.09h0l-.14.78h0a.38.38,0,0,1,0-.1c0-.12,0-.06,0-.07h0l0,0a.86.86,0,0,1-.07.1l0,0-.06.06-.1.11.09-.09a2,2,0,0,1-.3.28l.07-.06a2.75,2.75,0,0,1-.53.36h0a4.32,4.32,0,0,1-.82.33h0l-.12,0h0l-.12,0h0c-.13,0-.17,0-.14,0h.08a2.82,2.82,0,0,1,.56.11c.08,0,.22.09.35.14a1.13,1.13,0,0,1,.21.12l.15.09s0,0,0,0l.08.06h0l.1.08h0l0,0-1.07-1.19h0s0,0,0,0a.49.49,0,0,1-.08-.12l-.06-.12h0a4.15,4.15,0,0,1-.15-.39v0l-.08-.28v0l-.08-.39,0-.4v.06a3.76,3.76,0,0,1,0-.47s0-.29,0-.43v0l0-.28h0l0-.24v-.08h0s0-.22-.06.37c-.13.89-.12.6.06-.39l0-.21v-.05s0-.13,0,.2c0,.18,0,.17,0-.12l0-.14h0v0a2.33,2.33,0,0,1,.06-.25h0l0,.14s0-.08,0,0l0-.17h0v0h0l-.59,1.51-1.15,2.84c.56-1.46,1.08-2.75,1.56-3.91l.18-.43s0,0,0,0h0v0l0,.1,0,.08-.52.89c-.28.48,0-.1.46-.8v0l0-.05-.08.13-1,1.56.93-1.42,0,.06,0,0-.06.07,7.31,15.91c3.2,1.68-12.31-9.86-3-3.91-.63-.4-.92-.58-1.73-1.15,4.77,2.51-3.19-4.14,4.11.2,1.51.83-1.54-1.38-3.8-3.15l4,2.77-4.41-3.42c-3.14-2.62,10,6.48,3.9,1.67l-2.68-1.85c.58.24-1.3-1.47,1.73.72-.48-.35-2.73-2-1.32-1.06L881.1,723l-3.33-2.8c1.64.85,8.14,5.88,8.76,5.85-.71-.68-5.75-4.61-7.15-5.55a32.35,32.35,0,0,1-3.43-2.27l-1-.87c-6.05-4.36-12.19-8.88-16.61-11.65l3.57,2.83-3-2-.08-.29c-2.83-1.89-.42-.08,1.21,1.18-1.57-1.11-2.68-1.86-3.29-2.24l5.66,4.31c-2.38-1.67-4.64-3.44-6-4.26,2.63,2,5.37,3.73,7,5.13-2.82-1.89-5-3.52-2.76-1.73-1.57-1.1-2.55-1.84-3.21-2.37a44.34,44.34,0,0,0,3.81,3.16c-3.46-2.34.66.94-5.06-3.18,1.35,1,4.38,3.39,4.56,3.64-6.75-5.07-.62,0-8-5.29,6.1,4.53,2.45,2.37,5.74,5a10.21,10.21,0,0,1-1.14-.89c-.59-.25-2.47-1.55-3.69-2.31,5.09,3.66,6.13,4.67,9.2,7-5-3.39-5.92-4.37-10.68-7.71,4.14,2.95,4,3.19,7.43,5.61-3.12-2.08-1.54-1-5.81-3.94,6.37,4.58,1,.87,4.87,3.76-3.25-2.1-6-4.24-4.18-2.68C852.56,707.12,850.41,705.35,850.41,705.35Zm18.48,29.21,0,.09-.3.17A3.31,3.31,0,0,0,868.89,734.56Zm.91.2a.35.35,0,0,0-.34-.28,17.9,17.9,0,0,1,.94-2.92A19.91,19.91,0,0,0,869.8,734.76Zm5.58-20.62h0Z" transform="translate(-850.09 -534.01)"/><polygon class="cls-1" points="25.29 180.13 25.29 180.13 25.29 180.13 25.29 180.13 25.29 180.13"/><polygon class="cls-1" points="22.89 182.37 22.89 182.37 22.9 182.36 22.89 182.37"/><polygon class="cls-1" points="38.45 206.6 37.89 205.61 38.24 206.56 38.45 206.6"/><path class="cls-1" d="M874.88,729.21a10.51,10.51,0,0,0,.23,1.12C875.07,730,875,729.65,874.88,729.21Z" transform="translate(-850.09 -534.01)"/><path class="cls-1" d="M877.65,729.64c.28.47.57.93.88,1.39A14.51,14.51,0,0,0,877.65,729.64Z" transform="translate(-850.09 -534.01)"/><path class="cls-1" d="M880.53,730.91c-.31-.73-.56-1.27-.78-1.77l0,0Z" transform="translate(-850.09 -534.01)"/><path class="cls-1" d="M886.13,704.81a.38.38,0,0,0,.29,0C887.36,704.43,886.87,704.47,886.13,704.81Z" transform="translate(-850.09 -534.01)"/><path class="cls-1" d="M870.2,711a13.76,13.76,0,0,1-.14-2.15C869.76,708.59,869.55,708.55,870.2,711Z" transform="translate(-850.09 -534.01)"/><path class="cls-1" d="M856.4,732.86l.07,0a2.27,2.27,0,0,1-.18-.25Z" transform="translate(-850.09 -534.01)"/><path class="cls-1" d="M870.65,708.83c-.38-.84-.56-.6-.59,0C870.31,709.13,870.59,709.54,870.65,708.83Z" transform="translate(-850.09 -534.01)"/><path class="cls-1" d="M890.5,723.65l.24-.08c-.28-.12-.49-.22-.66-.31Z" transform="translate(-850.09 -534.01)"/><path class="cls-1" d="M890.08,723.26l-.41-.37C889.64,723,889.64,723,890.08,723.26Z" transform="translate(-850.09 -534.01)"/><path class="cls-1" d="M888.76,722.12c.31.25.61.5.91.77C889.73,722.78,889.92,722.68,888.76,722.12Z" transform="translate(-850.09 -534.01)"/><path class="cls-1" d="M886.56,726.13l1.25,1C887.56,727,887.16,726.61,886.56,726.13Z" transform="translate(-850.09 -534.01)"/><path class="cls-1" d="M886.18,727.29c.44.08,3.11,1.74,2.61.73l-1-.84c.88.83,0,.41-.9,0S885.25,726.27,886.18,727.29Z" transform="translate(-850.09 -534.01)"/><path class="cls-1" d="M873.25,715.33l.08.11h0Z" transform="translate(-850.09 -534.01)"/><path class="cls-1" d="M873.11,715.06Z" transform="translate(-850.09 -534.01)"/><path class="cls-1" d="M872.56,719.71h0Z" transform="translate(-850.09 -534.01)"/><path class="cls-1" d="M862.18,711.48c-.79-.37-1.61-.7-2.45-1,.93.84,1.89,1.66,2.86,2.45A12,12,0,0,1,862.18,711.48Z" transform="translate(-850.09 -534.01)"/><path class="cls-1" d="M872.4,719.89l0,0,.08.13Z" transform="translate(-850.09 -534.01)"/><path class="cls-1" d="M877.38,717.93h0C877.27,718,877.26,718,877.38,717.93Z" transform="translate(-850.09 -534.01)"/><path class="cls-1" d="M877.81,717.15l-.14-.14Z" transform="translate(-850.09 -534.01)"/><polygon class="cls-1" points="25.6 183.93 25.6 183.93 25.59 183.93 25.6 183.93"/><path d="M1035.44,709.34c1,2.65,2.44,5.39,5,6.56s6.37-.34,6.42-3.16c0-2.59-3.12-4.31-5.63-3.67s-4.32,2.83-5.63,5.06c3.85,5,13.55-1.18,10.74-6.78-2.81,1.19-5.58,3.25-6.19,6.24s2.31,6.51,5.17,5.46,1.07-6.74-1.63-5.33" transform="translate(-850.09 -534.01)"/><path class="cls-1" d="M1038.79,704.27c.62,1.24,2,4.05,2.16,3.28q-1-2.47-1.73-5A12.62,12.62,0,0,0,1038.79,704.27Z" transform="translate(-850.09 -534.01)"/><path class="cls-1" d="M1044.34,712.68a39.49,39.49,0,0,1,.4-5.12,29.59,29.59,0,0,0,.33-6.83c-.64,2.53-.84,3.29-1.07,4.16a14.64,14.64,0,0,0-.25,4.92c-.12.33-.36-.07-.62-.77a18,18,0,0,1-.81-2.66c.08.68-.17.45-.38.47s-.37.29.12,1.88c2,3.66,1.61,3.88,2,.43A33.18,33.18,0,0,1,1044.34,712.68Z" transform="translate(-850.09 -534.01)"/><path class="cls-1" d="M1044.85,714.87l0,0Z" transform="translate(-850.09 -534.01)"/><path class="cls-1" d="M1046.3,714.85h0Z" transform="translate(-850.09 -534.01)"/><path class="cls-1" d="M1047,715.21l0,0Z" transform="translate(-850.09 -534.01)"/><path class="cls-1" d="M1044.85,714.87l.09-.11Z" transform="translate(-850.09 -534.01)"/><path class="cls-1" d="M1055.05,704.08a3.1,3.1,0,0,0-1.41.61,2.88,2.88,0,0,1,.82,0Z" transform="translate(-850.09 -534.01)"/><polygon class="cls-1" points="194.18 182.14 194.18 182.12 194.17 182.1 194.18 182.14"/><path class="cls-1" d="M1044.18,716.84l.08,0-.1,0Z" transform="translate(-850.09 -534.01)"/><path class="cls-1" d="M1043.62,716.2l.06-.05Z" transform="translate(-850.09 -534.01)"/><path class="cls-1" d="M1044.36,715.79h0Z" transform="translate(-850.09 -534.01)"/><path class="cls-1" d="M1017.79,721.51l.7-.37A3,3,0,0,0,1017.79,721.51Z" transform="translate(-850.09 -534.01)"/><path class="cls-1" d="M1036.53,708.93l.23,0,2.36-.89Z" transform="translate(-850.09 -534.01)"/><path class="cls-1" d="M1049,716.88h0Z" transform="translate(-850.09 -534.01)"/><path class="cls-1" d="M1039.35,711c0-.11,0,.18,0,0C1039.35,711.06,1039.38,710.9,1039.35,711Z" transform="translate(-850.09 -534.01)"/><path class="cls-1" d="M1054.94,704.78a1.22,1.22,0,0,1,.46.41C1055.32,704.89,1055.17,704.76,1054.94,704.78Z" transform="translate(-850.09 -534.01)"/><path class="cls-1" d="M1039.35,711h0Z" transform="translate(-850.09 -534.01)"/><path class="cls-1" d="M1053.09,723.23l0-.05Z" transform="translate(-850.09 -534.01)"/><path class="cls-1" d="M1050.3,718.42l.09.12Z" transform="translate(-850.09 -534.01)"/><path class="cls-1" d="M1042.38,709.43h0Z" transform="translate(-850.09 -534.01)"/><polygon class="cls-1" points="191.43 175.25 191.45 175.26 191.49 175.28 191.43 175.25"/><path class="cls-1" d="M1032.64,733.16c.37-1.23.87-2.53,1.4-3.81C1032.8,732.3,1031.28,732.83,1032.64,733.16Z" transform="translate(-850.09 -534.01)"/><path class="cls-1" d="M1053.33,705.93c.82-.78,1.29-1.11,1.61-1.15a1.88,1.88,0,0,0-.48-.12A7.75,7.75,0,0,0,1053.33,705.93Z" transform="translate(-850.09 -534.01)"/><path class="cls-1" d="M1069.42,707.89c-.19.63-.39,1.25-.61,1.84A2.56,2.56,0,0,0,1069.42,707.89Z" transform="translate(-850.09 -534.01)"/><path class="cls-1" d="M1047.06,691.12l.43-.46C1047.39,690.53,1047.25,690.63,1047.06,691.12Z" transform="translate(-850.09 -534.01)"/><path class="cls-1" d="M1068.9,715a16.66,16.66,0,0,0-3.23.2c.33.14.58.28,1.08.45A17.58,17.58,0,0,0,1068.9,715Z" transform="translate(-850.09 -534.01)"/><path class="cls-1" d="M1034.05,729.31v0Z" transform="translate(-850.09 -534.01)"/><path class="cls-1" d="M1021.54,733.64c.88,1,4.25-4,6.65-6.37,1.93-.57-2.37,3.69-3.9,6.35a15.89,15.89,0,0,0,3.42-2.49c1.18-1,2.15-1.94,2.31-1.68a12.4,12.4,0,0,1-1.4,2.12c1.68-1.7,2.21-1.44,2.86-1.3s1.45.14,3.1-2.34c-.17.5-.35,1-.53,1.38,1.14-2.75,2.44-5.46,3.38-7.38.31,0,2-3.22.58.39-.15-.18-.78,1.25-1.38,2.3.37-.45.71-.91,1-1.38-1.68,5.3-1.31,1.54-3,5.28a17.2,17.2,0,0,0,2.83-2.83c.84-1,1.34-1.61,1.45-.77-.59,2.65-1.12,3-1.56,3.26s-.83.46-1,3a21.85,21.85,0,0,1-.65-2.43c-1,4.2-1.11,4-1.35,3.83s-.53-.28-1.55,4.24a1.69,1.69,0,0,0,1.43.77,3.11,3.11,0,0,0,1.27-.53c.83-.51,1.59-1,2.54,0a18.47,18.47,0,0,0,.75-3.68,25,25,0,0,1,.7-3.68c.75-1.26,1-1.05,1.25-.11a39.05,39.05,0,0,1,.44,4.19,16.66,16.66,0,0,0,.58,3.84c.28.69.71.53,1.19-1.28.22-1.82.27-4.45.41-6.18s.29-2.55,1-.79q.16,3.06.21,6.15c1,.21.94-2,.89-3.81s-.11-3.11,1-1.23c.25,2.42-.83,2.22-.46,2.9,1,2.29,1.09,1.38.94-.1s-.47-3.53-.12-3.62l1.49,5.23a7.58,7.58,0,0,0,1.92-3.59,20.66,20.66,0,0,1,1.28-3.86c.73,1.45,1.21,3.13,2.48,4.33.61-1.93,1.86-2.57,3.81-3.1l3.3-.77c.61-.15,1.22-.27,1.86-.47s1.31-.44,2-.68a38.75,38.75,0,0,0-3.18-3.78c.2-.25,2.18.42,2.78,1.23,1.2-.36.54-.73-.57-1.19a10.68,10.68,0,0,1-3.32-1.79c0-.81,2.93.11,4,1.24-1.15-2.2-2.6-4.66-3.3-6.48s-.56-3.16,1.84-4.68c.47.14,1,.29,1.42.46.89-1.21-1.59-1.63-3.74-1.77s-4-.08-2-1.37l.88.09a4.43,4.43,0,0,0-.38-3,24.71,24.71,0,0,0-1.42-2.39,4.92,4.92,0,0,1-.83-2.47,11,11,0,0,1,.89-4c-2.48,2.32-2.52,1.27-2.9.45s-1-1.29-3.57,2.63c.66-2.37,1.16-3.88,1.48-5.31a8,8,0,0,0-.28-4.78c-.59-.72-3.24,5-4.17,5.76l1.56-4.68q-1.39,2.26-2.55,4.62c.37-1.94.7-3.89,1-5.84-.38.34-.75.68-1.1,1,.26.36.14,2.3-.26,3.67-.78,1-1.16,0-1.5-1.53a19.32,19.32,0,0,1-.46-4.87,26.84,26.84,0,0,0-3.37,4,8.7,8.7,0,0,1,1-3.92c-1.79,5-.39-5.23-2.1-.55a20.13,20.13,0,0,1,.08,3.94c-.48-1.46-1.24-2.16-2.06-2.27a2.58,2.58,0,0,0-2.27,1.17c-.18-1.12-.35-2.24-.5-3.37-2.77-.22-4.15,3-6.11,4,1.46,1,3.84,6.43,3.73,7.13-.86-1.51-1.75-3-2.64-4.5,1.25,3,1.38,1.49,2.71,5.26-.78-.26-3.34-4.92-3.75-6.64,0,.68,0,1.36.1,2-.85-1.3-1.08-2.11-2-3.86.63,1.51-.38.59-1.32,0s-1.78-.88-.41,1.59l-.93-1.24c-1.79,1.24-1.33,3.22-2.17,4.36,3.06,3.3,2,2.94,4.33,5.74-.77-.24-2-.79-3-1.14s-2-.49-2.14,0c1.3,1.94,2.82,2.57,4.73,4.46-3.22-2.55-3.45-1.62-5.5-3.79a3,3,0,0,0,.11,1.65,11.7,11.7,0,0,0,1.79,2.81,28.28,28.28,0,0,1,3.26,2c.46.52-1.66-.61-3.3-1.7l-.33-.28c2.12,2.06-.27,1.18-2.79.45l1.28,19.8a8.57,8.57,0,0,0-.72,4.33c.32,1.06,1.35,1.45,3.33.17l-.38.22a25.54,25.54,0,0,0,4.76-2c.27.6-.26,1.17-1,1.89a5.81,5.81,0,0,0-1.91,2.93c1.62-1,2.57-1.38,3.25-1.36a2,2,0,0,1,1.49.88c.77.91,1.63,2.06,3.3.14-.68,6.1,1.5,6.32,3.28,5.7s3.28-2,4.76,1.8l-.35-2.83c.31-2.83.8,1.56,1.34,2.16-.32-2.19-.88-2.48-.71-4,2-1.94,3.88-1.34,6.44-.34s5.61,2.37,8.23,2.27c.93-.11-.87-3.35-2.29-5.92s-2.51-4.45.12-2.16c.92,1.52,1.81,3,2.68,4.58a6.15,6.15,0,0,1,.15-3.53,4.23,4.23,0,0,1,1.51-1.65c1.19-.9,2.55-2,1.29-4.83.88.86,2.14,1.82,1.93,2.07,1.73.89,2.2.33,1.85-.61a7.34,7.34,0,0,0-2.85-3.11c.56-.23,2.46,1.4,4,1.93,1.18.24.38-.79-.32-1.69s-1.28-1.59.53-.93a2.76,2.76,0,0,1,1.21,1c-.71-.66-.33-1.16-.31-1.69s-.33-1.09-2.47-1.71c1.24-.24,1-1.07.82-1.81s-.4-1.41,1-1.67c-2.31-.94-1.62-1.38-1.19-1.89s.59-1-2.88-1.54c3.59.52,5.12,0,5.3-.93s-1-1.94-2.75-2.34c2.2.27,2.22-1,5.26-.8-.18-1.39-1.73-2.38-5.36-1.57,2.06-.83,2.58-1.56,2.4-2.08s-1.11-.83-1.93-1.08c-1.65-.52-2.9-.65,2-3.27a23.26,23.26,0,0,0-3-.95l-24.67-9.07c0,2.87,0,5-.14,6.56-1.69-3.19-1.46-3.52-1.26-3.87s.37-.73-1.3-4.13a32.29,32.29,0,0,0,1.06,5.61c.41,1.71.61,2.89-.32,2.43-.78-.69-1.49-2.77-2-3.88.21,1.6-.39,1.79-.94,2.11s-1,.77-.31,2.7a8.88,8.88,0,0,1-1-1.7c-.05.33-1.13-.47.95,2.08l-.37-.84a44.72,44.72,0,0,1,4.18,5.71,52,52,0,0,0,3.1,4.42c-5.84-7.38-2.22-1.19-9.69-10.44a16.29,16.29,0,0,0,2.67,3.46,11.55,11.55,0,0,1-3-3.2c.49,2,3.19,4.24,2.6,4.73-1.14-1.11-1.47-1.65-2.73-3,1.87,2.5,3.91,4.86,2.49,4.44-.7-.65-1.69-1.41-1.53-1.55-.24.61,1,2.38,2,3.7s1.8,2.34.23,2c-5.68-4-2.16-.82-7.39-3.7.36.58.73,1.13,1.11,1.67.92.34,1.83.69,2.73,1.06-.22.28.58,1.06,1.21,1.68s1.08,1.07.07.94c-.69-.46-1.38-.93-2.06-1.43.16.56.35,1.1.56,1.64.79,0,1.58.09,2.35.18a25.42,25.42,0,0,0,4.3,2c1.21.48,1.86.73,1,.67-.55-.28-.18.27-3.63-.46h0c1.75.8,3.66,1.42,2.15,1.38-1.89-.3-6.44-1.47-7.7-1.67,2.4.66,2.66,1.21,3,1.72s.7,1.05,3.36,1.33c-1.24-.17-4.37-.37-5-.34,1.35.18,2.7.33,4,.46a16.63,16.63,0,0,1-4.42.26c-.37.61,1.52.44,3.1.35s2.84-.17,1.22.4A10.77,10.77,0,0,1,1032,715c-.84.64-.1,1.15.56,1.54s1.34.63.5,1.35c-5.69,2-1.66-.54-6.47,1.1.77.89,2.81,1.23,4.48,1.38s3,.13,2.73,1l.45-.54c3.7-2.07,2.86-1.45,1.65-.35s-2.76,2.69-.94,1.76a32.27,32.27,0,0,0-3.13,2.11c-.39,1.75,3.19.59,5.87-.68-.5.52-1,1.05-1.53,1.56-.75,1.91.68,1.95.9,3.2,1.3-1.76,1.43-1.28,2.74-4.19-1.09,3-.84,4.3-.3,4.64s1.55-.32,2.3-1.14,1.43-1.78,1.91-1.87.89.63,1.78,3.15c-.29.05-.68,2-.4,2a11.48,11.48,0,0,0,2.08-2.31c-1-3.58-.77-2.12-1.58-4.89a24.27,24.27,0,0,1-.24-3.94,23.14,23.14,0,0,0,1,4,21.59,21.59,0,0,0,1.63,3.54c-.4-1.06-.68-2.28-1.06-3.37,1.42,3,1,1.17.21-.82-.36-1-.75-2.06-.93-2.63s-.16-.63.53.27l.87,1.73a7.88,7.88,0,0,0-.62-2c-.26-.65-.51-1.12-.24-1,2.84,3.2,1,1.78,3,4.68.32-.38-.62-2.25-1.46-3.47s-1.48-1.83.31-.68c.82.92.57,1.21,1.15,2.28,2,1.54,3,1.88,3.47,2s.54-.2,1.11-.31h-.14a14.62,14.62,0,0,0,3.05-.62l-1.46-.16c-2.23-1.7-3.54-2.54-4.2-3.09s-.73-.75-.67-.95.24-.37-.06-.64a7,7,0,0,0-2.8-1.1c1.67.42,2.73.79,3.48,1a8.21,8.21,0,0,0,1.54.37,18.18,18.18,0,0,1,3.62.49c1.4-.09,3-.61,4.32-.22-1.86-.75-1.09-.9-.52-1.26s.91-.85-2-1.36c1.57-.07.14-.76,4-.78a2.13,2.13,0,0,0-2.08-.16,8.88,8.88,0,0,1-2.58.51c-1.35-.26-1.63-.52-1.43-.88a10.37,10.37,0,0,1,1.5-1.36c.59-.52,1.09-1.11,1-1.57s-.89-.78-2.76-.55c-3.33-.29-8.21,2-10.54,3.15a29.3,29.3,0,0,1,3.13-2.12,15.32,15.32,0,0,1,1.71-.86c1.64-1.71.78-2.12-.89-1.28a13.21,13.21,0,0,0,2.86-3.17c-.44-.15-1.5.82-2.31,1.55s-1.35,1.24-.94.1a26.93,26.93,0,0,1,4.53-4.39c-1.81.3-4.47,2.1-5.81,3a7.65,7.65,0,0,1,1.63-2.89c.65-.7,1.4-1.2,2.09-1.83a13,13,0,0,0-1.68.23,6.57,6.57,0,0,0-1.77.67,5.58,5.58,0,0,0-2.55,4.06,10.21,10.21,0,0,1,.29,1.62c-.31.14.52-3.67,1.13-4.34,1-1.49,1.52-.93,1.39.09a14.37,14.37,0,0,1-1,3.27c-.31.23-.58.47-.87.73-1.23,4.41-1.29,4-.25,2.93a15,15,0,0,1,1.9-1.72c.66-.47,1.25-.7,1.34-.44-1.63,1.51-3.18,3.11-4.65,4.77a23.88,23.88,0,0,1,4.2-3.62c-1.17,1.31-4,3.68-4.78,4.33l-.44.41,0,0h0l.12-.1.39-.3-.24.2-.46.34s0,0,0,0l-.11.06,0,0h0l.09,0,.42-.26-.51.32,0,0h0s0,0,.07-.05a3.56,3.56,0,0,1-.62.34h0l-.13.06h0l1.1-.39a40.1,40.1,0,0,1,6.35-1.91q-2.85,1-5.75,1.83l-1.84.51h0l.15,0,.59-.14c-.08,0-.21.06-.56.13l-.18,0h0l1-.17c.5-.09,1-.21,2.53-.46-2.18.48-1.67.4-1.56.48s0,.07-.54.1l-1,0h.6a17.52,17.52,0,0,1,2.29.05l-2.35,0h-.29l.48.05.58.08c.12,0,.15,0,0,0l-.29,0-.48-.07c-.07,0-.28,0-.06,0a3.29,3.29,0,0,1,.6.15,1,1,0,0,1,.22.09.91.91,0,0,1,.23.15l0,0h0c0-.06-.06-.11-.08-.14h0s0-.06,0-.11h0l-.31-.84h0v0l0,.07,0-.06,0,.07,0,.08h0s0,0,0,0a.28.28,0,0,1,0-.12l0,.4c-.27,2.67-.42,5.19-1.06,6.49.31-2.2,1-5.93,1.1-6.83,0,.29-.32,1.82-.18.88l.18-.91c0-.11,0-.08,0-.08h0v0a.08.08,0,0,0,0,0v0h0c0,.09,0,.13,0,.08l0-.16,0,.1a1.23,1.23,0,0,1,0-.22l0,0a.78.78,0,0,1,.06-.19s.09-.17.09-.17l0-.09a3.35,3.35,0,0,1,.23-.36l0,0v0h0l.09-.12,0-.06,0,.06.26-.31a3.42,3.42,0,0,1,.29-.25h0l.1-.08h0l-.06,0-.37.22-1,.53.41-.25,1-.53h0l-.1.05.06,0a1.17,1.17,0,0,1-.21.08.91.91,0,0,1-.17.05l.1,0a.79.79,0,0,1-.22.05h0a3.34,3.34,0,0,1-.85.06h.08l-.17,0H1044l2,.41.12,0h0l-1.13-.39c-.72-.25-1.33-.48-1.73-.67a12.28,12.28,0,0,1,1.47.5l1.57.63,0,0h0l.18.08c.1.05,0,0,0,0l.23.12.3.17,0,0,.46.29.24.18c.21.16.05,0,0,0a5.08,5.08,0,0,1,.4.32c.13.11.26.21.35.3l-.18-.15.27.24-.09-.09.17.16.13.12c.15.14.42.43.46.48-.42-.45.05,0-.31-.33l.26.27,0,0c.39.44.2.2.62.69-.06-.06.09.12.16.2-.16-.2-.09-.1.08.09s.3.38.44.56l-.16-.21-.74-1-.49-.66c-.22-.3-.29-.42-.53-.79,1.31,1.78.88,1.24,1.47,2-1.48-2-.67-1,.2.22.3.43.62.88.89,1.28l.1.15,0,.07c.06.09-.07-.1-.17-.27l.35.53.59,1-.44-.78.33.59.07.12,0-.05,0-.1-.25-.39.08.13,0,.06v0l-.09-.15-.17-.29-1.4-2.4c-.08,0,1.18,2.08.85,1.53-1.64-2.65-1.11-1.86-2.82-4.53,1.55,2.4,1.13,1.69.63.74s-1.07-2.11-.07-.45l3.52,6.31c.15.27.28.51.4.77l0,.09v0l-.06-.12-.11-.23c-.13-.26-.25-.52-.38-.79s-.22-.53,0,0l-.72-1.48c-1.59-3.4-.14-.51-.73-1.91,1.15,2.6,1.69,3.82,2.5,5.68-.16-.38-.24-.58-.43-1l-10.89-12.5.2-.1.15-.06.26-.08h-.16l-.2,0a2.66,2.66,0,0,1-.45-.13,5,5,0,0,1-.72-.3l0,0-.23-.13h0l.09.06,1.06.63c.53.32.62.42-.08,0l-1.34-.86h0l0,0c.05,0,.11.07.06,0s-.39-.25-.58-.41l0,0a6.4,6.4,0,0,1-.54-.47h0l-.11-.1-.06-.07,0,0,.34.37a17.78,17.78,0,0,1,1.76,2.22l-2-2.42-.32-.38v0h0l.65.8a39,39,0,0,1,2.52,3.24c-.71-.85-1.37-1.66-2.17-2.7l-1.11-1.49.05.08-.07-.1h0s0,0,0,0l.86,1.54c1.48,2.74,1,2,.49,1s-1.08-2.09-.08,0l-1.2-2.46h0l.08.18a26,26,0,0,1,1.19,3.3c-.38-1.11-.72-2.08-1.05-2.94l-.11-.29-.08-.19c0,.07.11.27.14.34l0-.13c.06.2-.14-.43.5,1.41a4.8,4.8,0,0,1,.43,1.7l-.74-2.55,0,.07c0,.07,0,.17.07.28s.09.49.11.59a5.48,5.48,0,0,1,0,1.57c0-.17,0,.14,0,.11l0,.13a1.63,1.63,0,0,1-.07.23s0,0,0,0a.31.31,0,0,1,0,.12l0,.07,0,0,0,.07s0,0,0,0v0s0,0,.07-.09a1.7,1.7,0,0,1,.19-.2h0a1.92,1.92,0,0,1,.23-.19l13.08,13.24c-.81-.49-2.19-1.39-3-1.92s-.94-.71.58.32l.33.22-.92-.63s.12.08,0,0l-1.1-.81.3.22a33.6,33.6,0,0,1-2.9-2.35l.07.06h0l0,0-.09-.09-.3-.28c-.22-.2-.47-.46-.63-.63h0a13.58,13.58,0,0,1-1.76-2.14c-.07-.12-.13-.23-.21-.35l-.2-.38c0-.1-.09-.2-.13-.31l-.06-.17v0h0l-.46-1.83h0v0l0,.08v0s0,.25,0,.38v0a2.23,2.23,0,0,1,0,.49c0,.1,0,.08,0,.06s0-.07,0-.11h0a2.12,2.12,0,0,1,.33-.54l0,.06a2.6,2.6,0,0,1,.3-.36l0,0a2.32,2.32,0,0,1,.75-.51h0l.12,0h0s-.19,0,0,0h0l-.1,0,0,0-.12-.07a1.6,1.6,0,0,1-.26-.19,1,1,0,0,1-.18-.16l0,0a3.64,3.64,0,0,1-.48-.58l0,0a4.35,4.35,0,0,0,.28.39s-.13-.17,0,0a3.92,3.92,0,0,1-.39-.58v0l-.06-.11-.06-.13s-.07-.16-.09-.22h0s0,0,0,0v0h0l.07.17c0-.06,0-.12-.08-.19V711h0q.11.3.18.54l-.21-.64v0s0,.11,0,.26v0a2.3,2.3,0,0,1,0,.42c0,.18,0-.1,0,.15v0a2.53,2.53,0,0,1-.09.35.84.84,0,0,1-.06.14l0,.08.91-2a2.41,2.41,0,0,1,.28-.45l0,.07a7.94,7.94,0,0,1,1.13-1.28l.11-.11,0,0,0,0-.16.14c-.08.06-.1,0,0-.06s.34-.32.76-.65c.21-.17.47-.36.79-.59l.84-.59.36-.25.07,0-.19.12-.58.38c-.91.59-2.32,1.48-3.55,2.21l4.09-2.58c-1.59,1-3.19,1.91-4.82,2.8-1.83.93.67-.69,2.86-1.92s4-2.17.5-.57l-2.91,1.46c.51-.36-1.91.45,1.5-1.08-.54.24-3.1,1.36-1.57.61l2.31-1c-1.36.5-2.73,1-4.11,1.43,1.59-.94,9.27-3.86,9.64-4.25-.93.31-7,2.37-8.54,3a34.43,34.43,0,0,1-3.78,1.63l-1.29.32c-7,2.65-14.2,5.08-18.79,7.63l4.42-1.22-3.29,1.51-.37-.32c-3.07,1.49-.2.54,1.76-.09a33,33,0,0,0-3.58,1.74q3.38-1.12,6.75-2.31c-2.65,1.23-5.41,2.06-6.73,3.07,3.13-1.1,5.89-2.83,8-3.36-3,1.59-5.53,2.68-2.77,1.76a21.81,21.81,0,0,1-3.69,1.52c2.22-.68,1.23.33,4.86-1.27-3.62,2.11,1.4.38-4.87,3.6a35.14,35.14,0,0,1,5.55-2c-7.65,3.62.12,1.22-7.7,5.75,3.39-1.73,4.31-1.83,4.95-1.64s.94.66,2.91-.22c-.51.32-1.56,1-1.3.66-.21.78-1.95,2.28-2.86,3.46,5-3.74,6.66-4,9.82-6.27a34.55,34.55,0,0,1-5,4.39,47.31,47.31,0,0,0-5.14,4c3.86-3.28,4.71-2.3,7.68-5.34a57.44,57.44,0,0,1-4.61,5.34c2.87-2.67,3.18-2.82,3.28-2.66s0,.64,1.81-.94c-2.08,3.35-4.88,5.51-2.5,4.44a8.84,8.84,0,0,1-2.33,2.6A10.35,10.35,0,0,1,1021.54,733.64Zm29.38-7.6,0,.08-.31.46A4.29,4.29,0,0,0,1050.92,726Zm1.7-1.2a1.43,1.43,0,0,0-.84.38c-.92-1.26-1.74-2.63-1.56-2.66A9,9,0,0,0,1052.62,724.84Zm-10.15-13.73,0,.07,0-.08h0Z" transform="translate(-850.09 -534.01)"/><polygon class="cls-1" points="192.35 177.02 192.34 177.01 192.35 177.03 192.35 177.05 192.35 177.02"/><polygon class="cls-1" points="194.72 180.92 194.72 180.91 194.71 180.93 194.72 180.92"/><polygon class="cls-1" points="200.43 155.75 200.07 156.83 200.62 155.97 200.43 155.75"/><path class="cls-1" d="M1047.92,727.4a5.05,5.05,0,0,0,.52,1A10,10,0,0,0,1047.92,727.4Z" transform="translate(-850.09 -534.01)"/><path class="cls-1" d="M1054.22,724a14.44,14.44,0,0,0,2-.07A10.44,10.44,0,0,0,1054.22,724Z" transform="translate(-850.09 -534.01)"/><path class="cls-1" d="M1058.45,719.82c-.76-.22-1.34-.36-1.87-.48h0Z" transform="translate(-850.09 -534.01)"/><path class="cls-1" d="M1032.65,695.49a.48.48,0,0,0,0-.23C1032.27,694.42,1032.35,694.8,1032.65,695.49Z" transform="translate(-850.09 -534.01)"/><path class="cls-1" d="M1033.8,711.22a15.68,15.68,0,0,1-1.93-1C1031.47,710.36,1031.34,710.51,1033.8,711.22Z" transform="translate(-850.09 -534.01)"/><path class="cls-1" d="M1069.49,707.68h-.08a.74.74,0,0,1,0,.21Z" transform="translate(-850.09 -534.01)"/><path class="cls-1" d="M1032.13,709.75c-.92-.1-.8.16-.26.51C1032.22,710.18,1032.71,710.14,1032.13,709.75Z" transform="translate(-850.09 -534.01)"/><path class="cls-1" d="M1048.55,700l-.45-.3a3.12,3.12,0,0,1-.22.69Z" transform="translate(-850.09 -534.01)"/><path class="cls-1" d="M1047.88,700.39l-.63.41C1047.49,700.85,1047.7,700.86,1047.88,700.39Z" transform="translate(-850.09 -534.01)"/><path class="cls-1" d="M1046.05,701.76a11.47,11.47,0,0,1,1.2-1C1046.89,700.72,1046.42,700.51,1046.05,701.76Z" transform="translate(-850.09 -534.01)"/><path class="cls-1" d="M1055.58,707.14l1.35-.91A12.67,12.67,0,0,0,1055.58,707.14Z" transform="translate(-850.09 -534.01)"/><path class="cls-1" d="M1057.08,708.57a12.66,12.66,0,0,1,1.06-1.65c.43-.64.54-1.37-.12-1.4l-1.09.71c1.08-.58.6.41,0,1.26S1055.78,709.07,1057.08,708.57Z" transform="translate(-850.09 -534.01)"/><path class="cls-1" d="M1042.86,716.67l-.19,0s.07,0,0,0C1042.89,716.65,1042.61,716.69,1042.86,716.67Z" transform="translate(-850.09 -534.01)"/><path class="cls-1" d="M1043.87,716.75c-.2,0,0,0,0,0S1044,716.8,1043.87,716.75Z" transform="translate(-850.09 -534.01)"/><path class="cls-1" d="M1045.56,714.18h0S1045.56,714.18,1045.56,714.18Z" transform="translate(-850.09 -534.01)"/><path class="cls-1" d="M1029.47,717.19c-.81.31-1.6.63-2.39,1,1.24-.18,2.47-.37,3.71-.59A13.1,13.1,0,0,1,1029.47,717.19Z" transform="translate(-850.09 -534.01)"/><path class="cls-1" d="M1044.43,714.41h0Z" transform="translate(-850.09 -534.01)"/><path class="cls-1" d="M1041.75,709.34h0C1041.85,709.36,1041.87,709.37,1041.75,709.34Z" transform="translate(-850.09 -534.01)"/><path class="cls-1" d="M1038.82,707.31l0,.08Z" transform="translate(-850.09 -534.01)"/><polygon class="cls-1" points="192.26 179.81 192.26 179.74 192.25 179.86 192.26 179.81"/><path d="M955,640.64c-3.57,1.55-.38,8.36,3.1,6.62s-.05-8.37-3.44-6.45c.88,3.58,7.52,2.2,7.29-1.48s-6.16-4.91-8.24-1.87.32,7.78,3.95,8.46a3.76,3.76,0,0,0,1.83-5.66c-3.59,1.47.33,7.89,3.78,6.12s2.87-7.41-.25-9.71" transform="translate(-850.09 -534.01)"/><path class="cls-1" d="M969.34,628.1c-.85,1.09-2.72,3.58-2.14,3.26,1.12-1.36,2.27-2.71,3.43-4Q970,627.7,969.34,628.1Z" transform="translate(-850.09 -534.01)"/><path class="cls-1" d="M964.2,636.59l3.85-3.37c1.54-1.35,3.31-2.9,5-4.67-2,1.6-2.58,2.05-3.27,2.58a40.8,40.8,0,0,0-3.64,3.25c-.56.34.87-1.49,2.18-2.93-.95,1,.41-1.18-1.79,1.3-2.35,3.39-2.45,3.5.18,1.33C965.91,635,964.89,635.9,964.2,636.59Z" transform="translate(-850.09 -534.01)"/><path class="cls-1" d="M962,644h0Z" transform="translate(-850.09 -534.01)"/><path class="cls-1" d="M960.59,642.36h0Z" transform="translate(-850.09 -534.01)"/><path class="cls-1" d="M960.16,642.26l0,0Z" transform="translate(-850.09 -534.01)"/><path class="cls-1" d="M962,644v0Z" transform="translate(-850.09 -534.01)"/><path class="cls-1" d="M976.25,631.42a5.24,5.24,0,0,0-1.34.47,3.89,3.89,0,0,1,.62-.06Z" transform="translate(-850.09 -534.01)"/><polygon class="cls-1" points="111.1 108.6 111.07 108.58 111.05 108.56 111.1 108.6"/><path class="cls-1" d="M959.45,642.1h0Z" transform="translate(-850.09 -534.01)"/><path class="cls-1" d="M960.72,641l-.56.26Z" transform="translate(-850.09 -534.01)"/><path class="cls-1" d="M961.39,642.73h0Z" transform="translate(-850.09 -534.01)"/><path class="cls-1" d="M932.48,640.52c.31.05.52.05.79.08C932.83,640.46,932.52,640.39,932.48,640.52Z" transform="translate(-850.09 -534.01)"/><path class="cls-1" d="M955.46,641.7l.08.24.52,1.15.13.29h0C956.37,643.77,955.77,642.46,955.46,641.7Z" transform="translate(-850.09 -534.01)"/><path class="cls-1" d="M956.87,642.22Z" transform="translate(-850.09 -534.01)"/><path class="cls-1" d="M957.3,641.15v0S957.3,641,957.3,641.15Z" transform="translate(-850.09 -534.01)"/><path class="cls-1" d="M975.84,631.88c.09.06.17.12.18.23C976.08,631.92,976,631.85,975.84,631.88Z" transform="translate(-850.09 -534.01)"/><path class="cls-1" d="M957.3,641.17v0Z" transform="translate(-850.09 -534.01)"/><path class="cls-1" d="M956.8,643h0Z" transform="translate(-850.09 -534.01)"/><path class="cls-1" d="M956.21,642.29h0Z" transform="translate(-850.09 -534.01)"/><path class="cls-1" d="M958.7,640.68l0-.08h0Z" transform="translate(-850.09 -534.01)"/><polygon class="cls-1" points="109.2 105.85 109.19 105.86 109.17 105.87 109.2 105.85"/><path class="cls-1" d="M955.16,666.41a18.56,18.56,0,0,1-.33-4.11C954.77,665.51,952,666.3,955.16,666.41Z" transform="translate(-850.09 -534.01)"/><path class="cls-1" d="M974.09,632.73a7.34,7.34,0,0,1,1.75-.85,1.25,1.25,0,0,0-.31,0A15.43,15.43,0,0,0,974.09,632.73Z" transform="translate(-850.09 -534.01)"/><path class="cls-1" d="M946,665.57c-.39-.45-.77-.91-1.13-1.38A2.24,2.24,0,0,0,946,665.57Z" transform="translate(-850.09 -534.01)"/><path class="cls-1" d="M952.1,660.49l-.61.39C951.65,661,951.85,661,952.1,660.49Z" transform="translate(-850.09 -534.01)"/><path class="cls-1" d="M940.62,662a16.47,16.47,0,0,0,1.43-2.89c-.28.23-.52.4-.9.76C941,660.57,940.77,661.29,940.62,662Z" transform="translate(-850.09 -534.01)"/><path class="cls-1" d="M954.83,662.26v0Z" transform="translate(-850.09 -534.01)"/><path class="cls-1" d="M936.29,664.1c.73.85,1.93,0,3.25-1.37s2.84-3.11,4.13-4.22c1.23,0,.66.93-.36,2.27s-2.59,3-3.18,4.44c1.22,0,2.88-1,4.26-1.89s2.47-1.75,2.86-1.39a5.68,5.68,0,0,1-1.22,2.24c2-1.59,3.08-1.13,4.39-.87a4.52,4.52,0,0,0,1,.1,3.17,3.17,0,0,0,1.15-.22,4.49,4.49,0,0,0,2.2-2.42,8.59,8.59,0,0,1,.06,1.49,59.74,59.74,0,0,1,.83-8.08c.27,0,.6-.91.79-1.33s.29-.38.37,1.56c-.32-.12-.42,1.44-.69,2.63.27-.53.52-1.1.74-1.66.3,2.77.09,3.26-.32,3.56s-.87.36-1.06,2.41a12.15,12.15,0,0,0,2.65-3.69c.66-1.25,1.06-2.08,1.69-1.45.79,2.59.3,3.23-.27,3.7a1.11,1.11,0,0,0-.52.87A4.16,4.16,0,0,0,960,663a16.27,16.27,0,0,1-2.62-1.83,23.16,23.16,0,0,1,.76,3.64c0,.49-.22.44-.45.42s-.46-.05-.51.52a12.5,12.5,0,0,0,.75,4,4.23,4.23,0,0,0,4.61-1.22,4.63,4.63,0,0,1,3.8-1.9,9.84,9.84,0,0,0-1.26-3.53,14.06,14.06,0,0,1-1.35-3.5c.28-1.61.78-1.75,1.71-1.24a28.14,28.14,0,0,1,3.42,2.7,10.41,10.41,0,0,0,3.4,2.2c.84.21,1.42-.54.89-2.59-.91-1.67-2.63-3.69-3.64-5.15s-1.36-2.27.71-2.15c1.61,1.3,3.17,2.67,4.64,4.11,1.35-1.44-.38-3.05-1.74-4.24s-2.39-2.05,0-2.7c2.17,1.25.92,3.08,1.81,2.88,2.71-.09,2.1-1,.81-1.74s-3.21-1.63-3-2.25q2.65.6,5.34,1.12a7.34,7.34,0,0,0-.58-2.82,11.41,11.41,0,0,0-1.54-2.34,17.3,17.3,0,0,0-1.78-2,9.48,9.48,0,0,1-1.4-1.51c1.61-.17,3.37.05,4.91-.85a5.17,5.17,0,0,1-1.51-2.17,5.75,5.75,0,0,1-.09-2.46c.28-1.74,1-3.93,1.48-6.19q-2.31.74-4.52,1.67c-.09-.22,1.42-1.64,2.35-1.93.66-2.07-2.44,1.71-4.25,2.38-.6-.24,1.59-2.33,3-2.87-1.12.19-2.32.38-3.41.53a14.89,14.89,0,0,1-3.06.12c-1.64-.12-2.78-1-2.69-3.81.36-.33.74-.65,1.12-1-.44-1.36-2.27.46-3.59,2.19s-2.25,3.27-2.43.93l.56-.7a4.41,4.41,0,0,0-.66-.5,5,5,0,0,0-.82-.37,7.71,7.71,0,0,0-1.79-.38,14.66,14.66,0,0,0-3.67.2c-.6.08-1.2.17-1.79.22a10.37,10.37,0,0,1-1.67.06,11.33,11.33,0,0,1-4-1h0L938,644.88a13.7,13.7,0,0,1-.89,1.08c3.37-.53,3,.78,3.15,2.12a2.34,2.34,0,0,0,.23.9,1.15,1.15,0,0,0,.75.58c.71.18,1.88-.16,3.88-1.4a46.3,46.3,0,0,0-2.53,5.4c-.47,1.5-.72,3.12.64,6.11.47.6,1.71-.37,3-1.52s2.56-2.53,3.31-2.7l-2.17,4.42a23.3,23.3,0,0,0,3.71-4q-.72,2.88-1.2,5.84c.54-.26,1.07-.54,1.58-.83-.41-.42-.31-2.42.21-3.74,1.09-.81,1.75.26,2.17,1.8a16.05,16.05,0,0,1,.68,4.92,17,17,0,0,0,3.89-4,7.9,7.9,0,0,1-1.11,3.93c1-2.51,1.06-1.22,1.2.13s.27,2.76,1.1.4a20.26,20.26,0,0,1-.14-3.94c1,2.91,3.16,2.68,4.15,1.08l.54,3.37a5.88,5.88,0,0,0,4.05-1.83c.63-.55,1.18-1.09,1.82-1.67a13.38,13.38,0,0,1,2-1.57c-1.88-.68-4.58-5.95-4.38-6.74q1.54,2.1,3.16,4.16a5.16,5.16,0,0,0-1.59-2.17,7,7,0,0,1-1.59-2.82c1,0,4.14,4.31,4.46,6.19q.13-1.21.15-2.4a32.1,32.1,0,0,1,2.41,3.65c-.71-1.49.66-.92,2-.75.66.08,1.25.14,1.56-.25s.2-1-.64-2.21l1.23,1a10.33,10.33,0,0,0,1.75-2.58,14.24,14.24,0,0,0,1-2.67c.44-1.77.63-3.36,1.13-5.46a7.2,7.2,0,0,1-3.48-2,7.09,7.09,0,0,0-2.83-2.15,30.38,30.38,0,0,0,3.22-3.42,10.57,10.57,0,0,0,.67-1.08,5.11,5.11,0,0,0,.45-1,3.25,3.25,0,0,0,0-2.09,3.88,3.88,0,0,0-3.23-.34,13.2,13.2,0,0,1-3.35.64,5.7,5.7,0,0,0,3.25-2.17A2.44,2.44,0,0,1,980,632a8,8,0,0,0-7.4-4.61,9.16,9.16,0,0,1-2.59,2.82c-.41,0-.25-.43.17-1.1a10.94,10.94,0,0,1,1.86-2.16l.42-.18a2.67,2.67,0,0,1-1.86-.09,1.57,1.57,0,0,1-.71-1.15,13.51,13.51,0,0,1-.2-2c0-.78,0-1.58-.09-2.41a7.51,7.51,0,0,0-1.11-4c-.65-.74-1.68-.64-3,1.14l.28-.34a25.89,25.89,0,0,0-3.61,3.56c-.4-.47-.1-1.18.32-2.11a6.23,6.23,0,0,0,.83-3.39c-1.29,1.73-2,2.38-2.68,2.45s-1.37-.61-2.08-.93-1.46-.29-2.18,1.37c-.55-3-1.39-4.41-2.3-4.92s-1.92-.09-2.85.52c-.47.3-.92.64-1.36.94a5.56,5.56,0,0,1-1.45.75c-1,.32-2.09.06-3.78-1.25l1.43,2.47c.49,2.88-1.67-1-2.65-1.17,1.2,1.85,2.09,1.76,2.37,3.37a11.74,11.74,0,0,1-.9,1.15,14.73,14.73,0,0,1-1.81,1.71,22.39,22.39,0,0,1-2.14,1.47c-.75.49-1.56,1-2.41,1.49l-1.29.79-1.2.71c-3.28,1.9-6.8,4.79-8.6,8.4-.6,1.41,3.06,2.2,5.94,2.82s5,1,1.62,2.23c-1.76-.23-3.54-.48-5.28-.83a9.27,9.27,0,0,1,2.87,3.42,9.83,9.83,0,0,1,.75,3.1,7.31,7.31,0,0,0,.89,2.85,4.09,4.09,0,0,0,3.06,1.65c-1.18.34-2.62,1-2.76.66-1.59,1.18-1.26,1.93-.22,2.12a6.77,6.77,0,0,0,4.11-1c0,.64-2.36,1.56-3.54,2.71-.74.95.6.75,1.7.53s2-.41.59.9a2.76,2.76,0,0,1-1.46.61c1.77-.66,1.21,2.3,4.29-.93-.38,1.18.43,1.36,1.15,1.49s1.39.24.92,1.58c1.91-1.61,1.89-.83,2.11-.23s.55.94,2.67-1.84c-2.17,2.89-2.52,4.45-1.91,5s2.08,0,3.24-1.32c-1.3,1.79-.31,2.4-2,4.93a1.94,1.94,0,0,0,2-.42,7.85,7.85,0,0,0,2-3.45c-.59,3.7.67,3.45,1.79,2.55s2.15-2.35,2.42-.62l8.25-.39a14.6,14.6,0,0,1,2,3,26.23,26.23,0,0,0,2.67-4.08,24.77,24.77,0,0,0,1.61-3.72,26.59,26.59,0,0,0,.86-3.23c.19-1,.3-1.9.41-2.74,2.9,2.15,2.42,3.09,1.93,4s-1.07,1.78,1.57,4.51a8.87,8.87,0,0,0,0-3.87,21.31,21.31,0,0,0-.95-3.38c-.68-2-1.2-3.36.14-4.23a2.49,2.49,0,0,1,1.93.8c.66.53,1.25,1.25,1.74,1.65-.63-2.14,0-3.42.37-4.89a3.69,3.69,0,0,0-1.44-4.45,4.2,4.2,0,0,1,1.93.66c-.2-.57,1.09-1.37-2.19-1.26l.88.52c-2.39.38-4.85-.25-7.07-.61a21.58,21.58,0,0,0-5.42-.44c4.69-.24,5.27-.62,6.08-1.24a5.51,5.51,0,0,1,2-.94,24.35,24.35,0,0,1,5.87-.78,7.22,7.22,0,0,0-4.43.08c.52-.62,1.7-1.19,4.27-1.14a5.08,5.08,0,0,0-3.67-.88c-1.14,0-2,.1-2.3-.71,1.46-.64,2.19-.52,4-1-1.64,0-3.27.22-4.39.2s-1.74-.24-1.59-1.22c.85-.45,1.79-1.3,2-.87a2.77,2.77,0,0,0-2-.73l-14.87-3.89A15.75,15.75,0,0,0,954,633a6.22,6.22,0,0,1-.1.85,1.94,1.94,0,0,1-.31.7,1.81,1.81,0,0,1-1.54.61,18.84,18.84,0,0,0-2.36-2.4,1.45,1.45,0,0,0-1.19-.33c-.69.1-1.38.45-3.91-1.13a18.62,18.62,0,0,0,.18,3.2,26.3,26.3,0,0,1,3,.55c-.5.79.08,2.06.64,3s1,1.52,0,1.9a19.52,19.52,0,0,1-2.12-1.68,13.88,13.88,0,0,0,.21,1.61,6.35,6.35,0,0,0,.38,1.42c.77-.35,1.61-.8,2.44-1.08a11.65,11.65,0,0,0,4.57,1.24c1.29.19,2,.29,1.12.57-.6-.15-.09.4-3.58,1.08h0c1.92.32,3.95.14,2.57.82-.93.25-2.55.57-4.1.84s-3,.5-3.63.69c2.5-.24,2.94.25,3.46.56s1.09.66,3.62-.16a49.41,49.41,0,0,0-4.71,1.75c1.3-.38,2.6-.8,3.87-1.24a15.19,15.19,0,0,1-3.92,2.08c-.09.68,1.58-.24,3-1s2.51-1.32,1.28-.15a13,13,0,0,1-1.48.52c-.49.89.36,1.12,1.15,1.18s1.47.07,1,1.07c-2.18,2.07-2.62,2.13-3,2.07s-.62-.19-2.49,1.55c1.1.51,3.16.07,4.82-.42s2.92-1,3.31,0l.08-.73c2.38-3.51,1.92-2.57,1.44-1a10.45,10.45,0,0,0-.51,2.27c0,.55.26.7.86-.14a21.39,21.39,0,0,0-1.71,3.37c.54.95,1.6.79,2.79,0a9.27,9.27,0,0,0,1.82-1.56,17.64,17.64,0,0,0,1.6-2c-.06.73-.13,1.46-.22,2.19a2.22,2.22,0,0,0,2,1.22,7.27,7.27,0,0,1,2.19.16c-.35-2.18.23-2-1.22-4.87a8.48,8.48,0,0,0,2.32,2.59c.58.47,1,.58,1.32.46.61-.23.66-1.32.48-2.42s-.52-2.18-.3-2.58,1-.2,3.39.94c-.13.21,1.07,1.72,1.22,1.55a11.3,11.3,0,0,0-.47-2.8c-3.21-1.83-2-1-4.57-2.33a20.53,20.53,0,0,1-3-2.55,24.06,24.06,0,0,0,3.54,2.16,25.92,25.92,0,0,0,3.61,1.44c-1-.48-2.09-1.15-3.12-1.66,3.09,1.19,1.46.27-.45-.66s-4.08-2-1.94-1.34l1.78.77c-.8-.67-3.17-1.67-2.58-1.66,4.13,1.14,1.83.82,5.14,2,0-.31-1.88-1.15-3.26-1.69s-2.22-.83-.1-.53a19.74,19.74,0,0,1,2.19,1.13,15.92,15.92,0,0,0,3.86.42c.44-.06.35-.21.79-.36l-.12,0c.82-.21,1.61-.43,2.41-.72l-1.39.1c-5.46-1.17-6-1.35-6-1.65s.44-.62-3.21-.85c3.46.22,4.46.36,5.2.29a26.37,26.37,0,0,1,3.65-.15,19.68,19.68,0,0,1,4.21-.64c-2-.22-1.19-.46-.67-.75s.81-.64-2.07-.68c1.55-.21.09-.54,4-.94-1.31-.57-2.67.55-4.62.7-2.69-.11-1.17-.74,0-1.64s2.07-2-1.62-1.49c-3.18-.06-8.16,1.84-10.67,2.61a33.87,33.87,0,0,1,3.41-1.64c1-.42,1.79-.66,1.79-.66,1.94-1.33,1.32-1.55-.41-1a25.73,25.73,0,0,0,3.62-2.27c-.57-.16-5,2.75-3.25,1.17,1.5-.9,3.9-2.32,5.5-3a36.67,36.67,0,0,0-5.58,2,22.05,22.05,0,0,1,5-3.11c-1.39.15-3,.13-6.32,2.92-.32.41-.64.82-1,1.21a22,22,0,0,1,3.45-2.86c1.46-.9,1.3-.49.59.21s-2,1.72-2.58,2.21c-.32.12-.63.26-.94.4-3.49,3-3.17,2.79-1.86,2.13s3.61-1.75,3.52-1.36q-2.91,1.61-5.76,3.32c1.6-.9,3.25-1.72,4.94-2.48a61.59,61.59,0,0,1-5.64,3.13c-1.39.87-.87.58-.38.36s1-.42-.65.44c-.51.27-.8.4-1,.52.6-.27,1.21-.53,1.83-.77-1.28.58-4.26,2-3.4,1.56l-.73.35h0l.1,0,.3-.12.75-.3c1-.39,1.95-.65-.43.21l-.39.14,3.82-1.2A50.45,50.45,0,0,1,969,639q-2.85.94-5.75,1.78l-2.9.81-1.46.39-.36.09-.17,0h0l3.81-.94a16.1,16.1,0,0,1-2.42.62c3.28-.64,2.07-.49,5.17-1.09-2.16.58-1.62.55-1.51.66s-.18.24-4.05.62c3.7-.3,2.83-.45,5.42-.52-4.16.44-3.81.39-2.88.38s2.42,0,.5.14c-2.16,0-2.67,0-3.11,0l-.35,0h.61l.18,0,.21,0c.12,0-.22,0,.71.16l-.35-.08-.17,0h.07l.21.06a4.18,4.18,0,0,1,.43.15h0l.16.07.19.1-.09-.05.11.06.12.08h0a.52.52,0,0,1,.12.07l.05.06h0l.88.92c1.85,1.94,3.65,3.7,4.25,5-1.48-1.65-3.92-4.55-4.52-5.23.21.21,1.17,1.42.54.72-.37-.47-.81-1-1.15-1.41h0l.22.27c.23.28.37.47.31.41l-.52-.67h0l-.05-.06s0,0,0,0,0,0,0-.08h0l.57,1.12h0v0l0,0,0,.05a.8.8,0,0,1,.06.2s0,0,0,0h0c0-.06,0,0,0-.2a.65.65,0,0,1,.05-.2,1.13,1.13,0,0,1,.1-.34h0c.05-.11.12-.24.19-.4a1.8,1.8,0,0,1,.11-.2l.06-.08,0,0s0,0,0,0l-.17.25.25-.36,0-.05,0,0A2.14,2.14,0,0,1,963,642l-.14.14c.19-.19.18-.2.3-.31,0,0,.13-.1.09-.07l0,0,0,0h0l0,0a2.25,2.25,0,0,1-.21.12,4.61,4.61,0,0,1-.61.25l.19-.06a2.44,2.44,0,0,1-.42.12l-.31.09a1.62,1.62,0,0,1-.48.06,1.42,1.42,0,0,1-.43,0s.12,0-.25,0-.27,0-.14,0h.13a1.58,1.58,0,0,1-.34,0c-.18-.07-.08,0,0,0l-.19-.07h0l-.06,0,0,0,0,0,0,0c.21.19,0,0,.2.23s0-.08.2.29,0,0,0,0a1.65,1.65,0,0,1,.14.36l-3.47-1,0,0h0l0,0,0,0-.06,0,0,0a1.36,1.36,0,0,1-.2.06c.19-.05,0,0,.14,0l-.11,0h0a1,1,0,0,1-.32.06l-.09,0h-.17l-.16,0h0l-.17,0h0a.44.44,0,0,1,.13,0s0,0,0,0a.42.42,0,0,0-.13-.07l.07,0-.08,0h0l.19.09h0a2,2,0,0,1,.48.43l0-.06a1.22,1.22,0,0,1,.13.19l0,0,0,.08v0l1.69-1.92h0a1.1,1.1,0,0,1,.09-.3l0,.1,0-.12a1.77,1.77,0,0,1,.1-.22l.06-.11h0l0,0v0c-.19.31-.4.65-.73,1.22l.74-1.24,0,0,.06-.1a1.15,1.15,0,0,1,.14-.17,1.49,1.49,0,0,1,.23-.25.82.82,0,0,1,.17-.15h0l-.29.18-1,.66c-.54.32-.67.36,0-.08l1.29-.76h0l-.14.07h0a2.52,2.52,0,0,1-.35.13h0l-.27.07-.18,0-.73.07.63-.06h-.06l-.46,0a15.81,15.81,0,0,1-1.61.1l1.65-.11h-.05l-.26,0-.2,0h0l-.14,0h0l-.07,0,0,0h0l0,0c-.09,0,0,0,0,0h0l-.59-.4h0l0,0c.07.08.06.1.15.21v0a1.13,1.13,0,0,1,.11.22,1.88,1.88,0,0,1,.12.3,3.5,3.5,0,0,1,.15.64c0-.15,0,.12,0,.09v.3s0,0,0,0a1,1,0,0,1,0,.11h0l0-.12v.06a1.64,1.64,0,0,1,.07-.23,1.44,1.44,0,0,1,.16-.35s0-.07,0,0a3.1,3.1,0,0,1,.86-1.09l0,0c.09-.05.07-.06.13-.09s0,0,0,0l.14-.07h0s.07,0,0,0l-.12,0h-.07l.46,0h.26l0,0a.68.68,0,0,1-.21-.11s-.18-.12-.26-.19l-.28-.28a3.65,3.65,0,0,1-.47-.67c-.07-.15-.13-.24-.17-.33l-.05-.17s0,0,0,0h0v0a2.57,2.57,0,0,1,0,.3v0a1.73,1.73,0,0,1,0,.45,3.75,3.75,0,0,1-.23,1.09c-.08.16-.08.21-.12.28s-.17.26-.17.27h0s-.17.16-.09.1l0,0h0l.13-.07-.08,0a1,1,0,0,1,.39-.13l-1.43,3.35h0l0,0,0,0a1.52,1.52,0,0,1-.16-.42s0-.07,0-.06a.9.9,0,0,1,0,.18v0l-.09.34a.92.92,0,0,1-.11.22s-.05.13-.15.3a3.88,3.88,0,0,1-.33.44l0,0a2.06,2.06,0,0,1-.41.45c-.05,0-.05,0,0,0a2.12,2.12,0,0,1-.31.28l.07-.05-.21.15-.13.08.06,0h0a2.32,2.32,0,0,1,.53-.17h0a1.71,1.71,0,0,0-.45.14s.19-.08,0,0a4,4,0,0,1,.76-.2h0l.19,0a2.11,2.11,0,0,0,.26,0,1.77,1.77,0,0,1,.51,0h0l-.14,0H956a1.7,1.7,0,0,0-.38,0,2.56,2.56,0,0,1,.42,0l.22,0a1.59,1.59,0,0,1,.55.11l.14,0,.07,0,0,0c-.06,0,0,0-.07-.08l-.11-.13a.5.5,0,0,0,.11.13,1,1,0,0,1-.22-.32c-.08-.18,0,0,0,0a1.23,1.23,0,0,1,.08.18l0,0c.2.59-.11.29.44-.55l-.06.12a3.76,3.76,0,0,1,.54-.72,2.07,2.07,0,0,1,.32-.28,1.69,1.69,0,0,1,.26-.22l.31-.19s-.09,0-.18.06a1.57,1.57,0,0,1-.39.11h-.05c-.08,0-.2,0-.31.06s-.46,0-.67,0a4.71,4.71,0,0,1-.7-.1h.06a1,1,0,0,1-.33-.12l-.07,0-.06,0h0l-.09-.07,0,0s0,0,0,0h0l.08.11a1,1,0,0,1,.18.36l0-.1v0h0l-.06-.11a9.37,9.37,0,0,1-.55-1.21c-1.54-3.4-2.94-6.91-4.37-10.09s-3.09-6-6.07-7.3a23.42,23.42,0,0,0,.57,5.09,33.89,33.89,0,0,0-2.89-2.3,18.7,18.7,0,0,1,1.63-1.51c-3-2.11-2,1-1.25,3.1a6.7,6.7,0,0,0-3.64-2,28.93,28.93,0,0,0,3.69,6.59,20.66,20.66,0,0,1-3.21-2.69c-1-.86-1.88-1.53-3.12-1.15,1,1.52,2.54,2.11,3.86,2.82a5.8,5.8,0,0,1,3,2.67c-3.36-1-5.77-2.35-3.79.15-1.82-.64-2.81-1.42-3.25-2.4a7.86,7.86,0,0,1,.7,2.92c.17.82.61,1.63,2.44,2.43-2.14-.11-2.14,1-2.34,1.64s-.68,1.12-4.18.7a36.12,36.12,0,0,1,3.33,1.46A7.22,7.22,0,0,1,939,643.5c-4.23-.65-4.36.06-4.5,1s-.28,2.06-4.78,2.48c3.84.22,4.83.87,5.48,1.78a7,7,0,0,0,1,1.31,3.26,3.26,0,0,0,2.22.6c-.59.14-1.8.4-1.49.13-.27,1.06-2.27,2.19-3.31,3.42,5.77-2.39,7.67-1.85,11.28-3.34a22.12,22.12,0,0,1-5.72,3.44,28.59,28.59,0,0,0-5.89,2.78,12.35,12.35,0,0,1,4.81-1.61,7.65,7.65,0,0,0,4-1.77,30.21,30.21,0,0,0-2,2.26c-.44.48-1.07,1-3,2.76,3.22-2.24,3.6-2.29,3.73-2s0,.82,2.1-.47a27.4,27.4,0,0,1-3,3.87c-.69.8-.77,1.14.72.94a5.4,5.4,0,0,1-2.5,2.44A6.62,6.62,0,0,1,936.29,664.1Zm35-22h.09l.34.54A4.93,4.93,0,0,0,971.27,642.14Zm-.58-2.12a1.38,1.38,0,0,0,.08.93c-1.49.44-3.06.75-3,.57A8.58,8.58,0,0,0,970.69,640Zm-14.8,4.79h0Z" transform="translate(-850.09 -534.01)"/><path class="cls-1" d="M956.07,644.81h0Z" transform="translate(-850.09 -534.01)"/><polygon class="cls-1" points="111.92 109.99 111.92 109.98 111.92 109.99 111.92 109.99"/><polygon class="cls-1" points="96.8 126.89 97.3 125.86 96.47 126.56 96.8 126.89"/><path class="cls-1" d="M972.77,648.68a6.25,6.25,0,0,0,1.08.41A10.57,10.57,0,0,0,972.77,648.68Z" transform="translate(-850.09 -534.01)"/><path class="cls-1" d="M975.08,645.09l1.68-.3A8.42,8.42,0,0,0,975.08,645.09Z" transform="translate(-850.09 -534.01)"/><path class="cls-1" d="M977.59,642.2c-.79-.05-1.38-.06-1.93-.07h0Z" transform="translate(-850.09 -534.01)"/><path class="cls-1" d="M977.39,643.34a.43.43,0,0,0,.19.25C978.41,644.22,978.1,643.8,977.39,643.34Z" transform="translate(-850.09 -534.01)"/><path class="cls-1" d="M951.32,643.09a9.35,9.35,0,0,1-2.14-.54C948.84,642.94,948.77,643.27,951.32,643.09Z" transform="translate(-850.09 -534.01)"/><path class="cls-1" d="M946.12,665.73l0-.07a.91.91,0,0,1-.17-.09Z" transform="translate(-850.09 -534.01)"/><path class="cls-1" d="M949.28,641.56c-.92.32-.73.71-.1,1C949.48,642.22,950,641.91,949.28,641.56Z" transform="translate(-850.09 -534.01)"/><path class="cls-1" d="M974.78,628.63l0-.26a6.46,6.46,0,0,1-.56.45Z" transform="translate(-850.09 -534.01)"/><path class="cls-1" d="M974.24,628.82l-.53.2C973.77,629.09,973.84,629.12,974.24,628.82Z" transform="translate(-850.09 -534.01)"/><path class="cls-1" d="M972.6,629.49c.37-.16.73-.32,1.11-.47C973.63,628.91,973.61,628.69,972.6,629.49Z" transform="translate(-850.09 -534.01)"/><path class="cls-1" d="M975.47,633.44l1.48-.7C976.64,632.87,976.16,633.1,975.47,633.44Z" transform="translate(-850.09 -534.01)"/><path class="cls-1" d="M976.42,634.35c.23-.39,2.85-2.16,1.71-2.15l-1.18.54c1.14-.45.37.23-.38.84S975.1,634.77,976.42,634.35Z" transform="translate(-850.09 -534.01)"/><path class="cls-1" d="M958.49,642.12h0l.63-.14-.77.16Z" transform="translate(-850.09 -534.01)"/><path class="cls-1" d="M959.18,642.08h0Z" transform="translate(-850.09 -534.01)"/><path class="cls-1" d="M962.72,642.31v0C962.8,642.21,962.71,642.33,962.72,642.31Z" transform="translate(-850.09 -534.01)"/><path class="cls-1" d="M949.89,650.86c-.61.61-1.21,1.23-1.79,1.88q1.59-1,3.15-2C950.81,650.77,950.35,650.83,949.89,650.86Z" transform="translate(-850.09 -534.01)"/><path class="cls-1" d="M962.83,642l0,0-.24.11Z" transform="translate(-850.09 -534.01)"/><path class="cls-1" d="M959.19,640l0,0S959.14,640,959.19,640Z" transform="translate(-850.09 -534.01)"/><path class="cls-1" d="M957.5,640l-.13,0Z" transform="translate(-850.09 -534.01)"/><path class="cls-1" d="M957.72,638.33v-.1a1.28,1.28,0,0,1,0,.19Z" transform="translate(-850.09 -534.01)"/></svg>