<svg id="Layer_1" data-name="Layer 1" xmlns="http://www.w3.org/2000/svg" viewBox="0 0 174.12 222.3"><defs><style>.cls-1{fill:#202020;}</style></defs><title>6</title><path class="cls-1" d="M939.75,859.83c.42-1.31,1.41-4.27,1-3.75q-.91,2.49-1.91,4.94C939.18,860.63,939.47,860.24,939.75,859.83Z" transform="translate(-918.45 -822.12)"/><path class="cls-1" d="M942.41,850.36c-.6,1.13-1.48,2.67-2.53,4.44s-2.26,3.78-3.32,6l2.27-3.49A42.8,42.8,0,0,0,941.2,853c.35-.52-.49,1.64-1.27,3.43.58-1.23-.11,1.21,1.15-1.87,1.24-3.92,1.46-4-.26-1.06C941.31,852.44,942,851.23,942.41,850.36Z" transform="translate(-918.45 -822.12)"/><path class="cls-1" d="M944.34,848.15h0Z" transform="translate(-918.45 -822.12)"/><path class="cls-1" d="M944.75,849.26v0Z" transform="translate(-918.45 -822.12)"/><path class="cls-1" d="M944.85,849.68v0Z" transform="translate(-918.45 -822.12)"/><path class="cls-1" d="M944.34,848.15l0,0Z" transform="translate(-918.45 -822.12)"/><path class="cls-1" d="M932.76,858.91a5.2,5.2,0,0,0,1.2-.77,2.8,2.8,0,0,1-.6.2Z" transform="translate(-918.45 -822.12)"/><polygon class="cls-1" points="26.07 26.11 26.06 26.11 26.06 26.11 26.07 26.11"/><path class="cls-1" d="M944.16,848.21h0Z" transform="translate(-918.45 -822.12)"/><path class="cls-1" d="M943.38,848.47h0Z" transform="translate(-918.45 -822.12)"/><path class="cls-1" d="M944.5,848.22Z" transform="translate(-918.45 -822.12)"/><path class="cls-1" d="M920.36,856.79l.74-.31A3,3,0,0,0,920.36,856.79Z" transform="translate(-918.45 -822.12)"/><path class="cls-1" d="M940.77,847.74l.24,0,1.88-.36Z" transform="translate(-918.45 -822.12)"/><path class="cls-1" d="M945,850.84h0S945,850.81,945,850.84Z" transform="translate(-918.45 -822.12)"/><path class="cls-1" d="M943,847Z" transform="translate(-918.45 -822.12)"/><path class="cls-1" d="M933.05,858.37c-.11,0-.2-.08-.23-.19C932.8,858.38,932.87,858.44,933.05,858.37Z" transform="translate(-918.45 -822.12)"/><path class="cls-1" d="M943,847Z" transform="translate(-918.45 -822.12)"/><path class="cls-1" d="M944.57,857v0Z" transform="translate(-918.45 -822.12)"/><path class="cls-1" d="M945,851.82v0Z" transform="translate(-918.45 -822.12)"/><path class="cls-1" d="M944.38,858.65c0,.34-.16,1,0,.36l.09-.54C944.31,859.07,944.27,859.36,944.38,858.65Z" transform="translate(-918.45 -822.12)"/><path class="cls-1" d="M944.63,858.67c.06-.34.11-.59.17-.89l-.06.23Z" transform="translate(-918.45 -822.12)"/><path class="cls-1" d="M927.75,863.73c.82-1,1.75-2,2.69-3C928.27,863.06,927.16,863.58,927.75,863.73Z" transform="translate(-918.45 -822.12)"/><path class="cls-1" d="M934.56,857.14a7.65,7.65,0,0,1-1.51,1.23.9.9,0,0,0,.31,0A16.74,16.74,0,0,0,934.56,857.14Z" transform="translate(-918.45 -822.12)"/><path class="cls-1" d="M950.29,823.67c0,.23.07.46.08.68C950.4,823.91,950.36,823.68,950.29,823.67Z" transform="translate(-918.45 -822.12)"/><path class="cls-1" d="M948.08,868.91v.56C948.14,869.56,948.16,869.42,948.08,868.91Z" transform="translate(-918.45 -822.12)"/><path class="cls-1" d="M951,823.79c-.27,1.56-.41,2.47-.49,3.07l.22-1.14Z" transform="translate(-918.45 -822.12)"/><path class="cls-1" d="M930.47,860.68l0,0Z" transform="translate(-918.45 -822.12)"/><path class="cls-1" d="M920.37,865.42c.28.55,4.67-3.44,7.36-5.49,1.6-.7-3.19,3-5.36,5.08,1.48-.68,5.69-4.11,5.66-3.8-.7.67-.93.95-1.87,1.73,1.85-1.46,2.05-1.33,2.37-1.3s.77,0,2.93-2l-1,1.09c2-2.18,4.1-4.35,5.58-5.89.15,0,2.67-2.62.07.24,0-.12-1,1-1.88,1.87l1.22-1.15c-3.67,4.16-1.42,1.3-4.25,4.28,1.5-1.07,4.74-4.35,3.83-3.06-3.49,4.17-1.58,1-4.53,4.89.36-.61.72-1.21,1.1-1.8-5.53,6.56.19-.63-5.75,6.36-.49,1.67,2.41-1.57,1.9.07,2-2.26,2.78-3.49,4.77-5.77,1.94-1.92-.08.83-1.88,3.47s-3.42,5.12-1,2.38,6.18-8.48,4.4-5.29l-3.54,5c.19.86,5.09-7.21,3.29-3.46-1.34,2-1.43,1.51-1.75,2.17-2.26,4.31,2.09-2.81,2.28-2.69L931.55,867c1-.39,3.46-3.52,4.36-4.2a46.41,46.41,0,0,0-2.18,4.48c1-1,1.29-.71,1.38.31s0,2.74-.08,4.43c.63-1.44,1.24-2.88,1.83-4.34a16.18,16.18,0,0,1-.88,2.9c-.18,1.82.93-2.83,1.64-4.54.25-.26-.56,2.66-1.1,4,.9-1.81,1.88-3.76,2.48-4.66s.88-.73.69,1.8l-.39,1.34c.07,1,.67-1.35,1.14-3.4s.83-3.8.68-1.61l-.2.82c.3,1.07.85.57,1.31.67s.82.8,1.26,4.35c.09-3.38.31-2.62.6-2.21s.55.48.3-4.23c.39,2.32.64,3.89.9,5.28a14.87,14.87,0,0,0,1.32,4.06c.37.39-.35-5.9-.26-6.91l.79,4.87c-.12-1.73-.27-3.45-.46-5.17q.63,2.88,1.31,5.75l.08-1.3a17.6,17.6,0,0,1-1-3.52c0-1.13.38-.34.93,1a47.86,47.86,0,0,1,1.55,4.53,42.1,42.1,0,0,0,0-4.35,20.62,20.62,0,0,1,.77,3.87c-.82-5,1.67,4.93.91.33-.43-1-.87-2.8-1.18-3.75,1.19,2.75,2,2.51,1.92,1.16l1.17,3.19c1.29.41,1.3-2.33,2.16-2.74a38.45,38.45,0,0,1-3.86-7.06l2.6,4.52c-1.44-2.89-1.15-1.61-2.82-5.2a41.38,41.38,0,0,1,3.76,6.64c-.17-.6-.35-1.2-.54-1.79.81,1.33,1.14,2.09,2.11,3.82-.73-1.45.1-.42.82.32s1.34,1.21-.06-1.24l.86,1.29c1-.58.3-2.32.78-3-2.75-3.56-1.9-3-4-5.9,1.21.87,4,3.15,4.2,2.42-1.24-1.91-2.55-2.84-4.29-4.87,2.87,2.93,3,2.24,4.89,4.54,0-1,.1-1.3-1.9-4.07a35.92,35.92,0,0,1-3-2.39c-.45-.51,1.48.92,3,2.19l.3.3c-2.09-2.29.45-.7,3,.42s4.87,1.88,1.47-.75l.34.26c-1.11-1-2.24-2-3.41-3,.78.07,2.55,1.74,4.88,2.79-2.72-2.11-2.39-2.22-1.77-2.27s1.51,0-.41-1.25c5.59,2.32,5.68,1.6,5.19.77s-1.53-1.78,2.28-1l-2.73-.83c-2.58-1.07,1.63.25,2.31.26a35.38,35.38,0,0,1-3.95-1.12c-1.39-1.34-.19-1.76,1.75-2.41,1-.31,2.12-.65,3.21-1.07a10.57,10.57,0,0,0,2.77-1.52c.41-.44-3.26-.75-6.18-1s-5.09-.38-1.69-.76c1.76.1,3.52.22,5.28.35-3.16-.9-3.12-1.58-3-2.39s.27-1.74-2.5-2a13.68,13.68,0,0,1,2.79-.25c1.86-.49,1.85-.84,1-1a13.41,13.41,0,0,0-4.11.37c.3-.3,2.75-.68,4.27-1.2,1.06-.44-.19-.39-1.24-.32s-1.9.13-.08-.48a5.45,5.45,0,0,1,1.53-.24c-1.85.26.14-1.23-4,.3a2.44,2.44,0,0,0,.35-.26l-14.71-13.06c.08-1.07-.62,2.07-.27-.3-1,4.86.17-2.39-1.1,4.49,1.3-7.12.75-5.79.07-2.45.4-2.15.27-2.26.82-5.24-.16.08-.51,1.38-1.07,5.06.57-4.29.15-2.6-.19-1.19s-.58,2.51.1-3c-1,3.78-1.76,6.35-2.34,8,.66-7.19.56-.67,1.33-8.2-.89,2.9-1.56,9-1.89,7.29a35.6,35.6,0,0,1,.38-4.35c-.37,1.47-.57,1.29-.86,1.24s-.56,0-.8,2c0-.67.05-1.4.1-2-.09.23-.27-1.06-.22,2.22l.1-.89c.09,2.38,0,4.87-.08,7.07s-.09,4.14-.06,5.39c-.1-9.4-.41-2.35-.62-14.23a37.11,37.11,0,0,0,0,4.37,27,27,0,0,1-.23-4.41c-.34,1.8,0,5.28-.31,5.23-.12-1.59-.09-2.2-.18-4.07,0,3.1.15,6.2-.24,4.89a13.73,13.73,0,0,1-.15-2.18c-.25.27-.24,2.35-.19,4s.11,2.83-.4,1.41c-1.13-6.81-.6-2.2-1.84-8,0,.61,0,1.22,0,1.82l.77,2.8c-.33,0,.51,4.25-.18,2.41-.16-.81-.3-1.62-.43-2.43-.09.41-.17.82-.24,1.24.32.69.61,1.39.9,2.1.62,3,2,7.27,1.41,5.72-.15-.59-.11,0-1.33-3.34v0c.49,1.84,1.12,3.74.51,2.39-.72-1.77-2.3-6.2-2.77-7.37a9.5,9.5,0,0,1,.8,3.15c0,.42,0,.88,1.05,3.33-.48-1.15-1.74-4-2-4.6l1.57,3.74c-.63-1.14-.93-1.69-2-4-.68-.5,3.37,6.79,1.6,4-.12-.31-.41-.84-.62-1.42-.57-.68-.48,0-.34.63s.3,1.19-.4.44c-3.34-5-.44-1.45-3.23-5.69a2.26,2.26,0,0,0,0,.7,6,6,0,0,0,.13,1,17.54,17.54,0,0,0,.65,2.33c.49,1.51,1.06,2.59.3,2.35l.56.38c2.91,3.08,2.16,2.35.9,1.34s-3-2.28-1.66-.83c-.42-.47-3.46-3.19-2.77-2.54-1.46-.39.72,2.43,2.71,4.3l-1.8-1.23c-1.81-.78-1.37.11-2.41,0a32.19,32.19,0,0,0,4.4,2.37c-2.86-1.22-4-1.42-4.22-1.25s.53.75,1.38,1.25a11.87,11.87,0,0,1,1.85,1.18c.09.2-.67.11-3.23-.31a6.78,6.78,0,0,0-1.82-.63c.59.43,1.18.83,1.8,1.2,3.63.67,2.21.34,5,.85l2.69.66a10.2,10.2,0,0,1,1.09.29,65.89,65.89,0,0,0-7.9-1.28l3.49.59c-6.55-.74,7.34,1.16,2.93.71l-1.92-.24c1,.24,3.52.52,3,.53-4.26-.26-2-.23-5.48-.55a22.33,22.33,0,0,0,3.58.51c1.45.15,2.35.18.22.2-1.19-.08-1.21-.19-2.38-.32-5,0-3.76.13-4.56.32l.12,0c-.76.17-1.52.37-2.27.61l1.36-.19c5.58.05,6.09.05,6.12.19s-.38.38,3.25,0c-3.44.4-4.44.42-5.17.56s-1.2.27-3.6.57a32.5,32.5,0,0,1-4.12,1c2-.13,1.22.12.72.4s-.76.59,2.08.19c-1.51.38,0,.41-3.86,1.32,1.34.25,2.58-.84,4.5-1.25,2.66-.36,1.18.33,0,1.24s-1.82,2.12,1.69,1c3.09-.59,7.65-3.32,9.77-4.84-1,.77-2.1,1.65-3,2.28s-1.6,1-1.6,1c-1.7,1.58-1.08,1.67.43.65a28.57,28.57,0,0,0-3,3c.58,0,4.16-3.88,2.81-2a54.52,54.52,0,0,1-4.55,4.31,25.87,25.87,0,0,0,4.76-3.48,22,22,0,0,1-4,4.37c1.31-.51,2.83-1,5.09-4.68.21-.47.42-.94.65-1.4a28.51,28.51,0,0,1-2.46,3.74c-1.11,1.29-1.07.86-.57,0s1.42-2.18,1.89-2.81c.25-.22.5-.46.74-.69,2.54-3.81,2.4-3.46,1.39-2.41s-2.9,2.72-2.88,2.36q2.45-2.25,4.77-4.64a44.89,44.89,0,0,1-4.1,3.7c.61-.61,1.62-1.52,2.58-2.36l1.32-1.16.22-.2h0l0,0h0l0,0h0a.29.29,0,0,1,.1-.06h0l0,0-1.35.66c-1,.48-2.1,1-3.44,1.54l2.73-1.28,2.12-.95h.07s0,0,0,0l-1,.35,1-.37.06,0h.06l-1,.21,1.1-.24h.52l-3.36-1.06c-1.08-.35-2-.67-2.62-.95l6,2-.29-.1c-.29-.09-.43-.15,0,0l.27.09h-.06l0,0h0l-.07,0h0a1,1,0,0,1-.22-.15h0l-.11-.1,0,0,0-.06,0,0-.06-.07s0,0,0,0l.64,1h0v0h0l.06.13s0,0,0,0l0,.11.05.16s0,0,0,0v0h0l-.09-.3.12.39v0s0-.06,0,0h0l0,.12c0,.06,0,0,0,0l.07.33s0,0,0,0l0,.25,0,.14c0,.11,0,0,0,0l.05.42,0-.11,0,.17v.13c0,.13,0,0,0,.29v-.06l0,.44s0,.07,0,.12v.52c0,.2,0,.43,0,.71v.15c0,.38,0,.41-.05.81,0-.12,0-.14,0,.14l.05-.65,0,.42,0-.53v0l0,.49v0l0-.37,0-.55a6.94,6.94,0,0,0-.07.91l0,.42h0c0,.5,0,.49-.07.85s-.08.68-.13,1.13l0-.33c-.11,1-.06.54-.11,1l0,.32-.05.38,0,.38,0,.16v.06l.13-.88-.22,1.57-.11.73,0,.15s0,.09,0,0l.06-.38c.08-.52.17-1.09.25-1.66.35-2.31.75-4.68.69-4.14-.49,3.09-.79,4.9-1.18,7.31l-.11.75c0-.22.09-.56.26-1.6-.32,1.95.71-4.19.23-1.23.23-1.37.79-4.63.77-4.37-.11.64-.27,1.54-.27,1.54.27-1.54.41-2.09,1-5.53-.8,4.86-.74,4.69-.62,4.35s.27-.85-.48,3.32c.09-.38.19-.77.28-1.14L944,847.07h-.73l-.1,0-.11,0h0a.35.35,0,0,0,.09.07h0l0,0h0l0,0h0l.1.1,0,.07h0a.88.88,0,0,1,.12.17,1,1,0,0,1,.1.18s0,0,0,0,0,0,0,0h0l0,0h0c0,.1,0,0,0,0v0h0s0-.07,0-.11h0v-.07h0a1.24,1.24,0,0,1,0-.18h0s0,0,0-.09l0-.1h0l0-.06s0,0,0,0l0,0h0v-.11h0l0-.06h0l0,0s0,0,0,0l0,0h0s0,0,0,0h0l0,0h0a.64.64,0,0,1-.12.13h0a1.44,1.44,0,0,1-.3.21l0,0h0l-.13.06h0l-.06,0h-.09l-.59.12-1.3.24-10.8,2a55.5,55.5,0,0,0-9,2.27c1.52-.13,3-.3,4.55-.51l-3.47,1-.32-.39c-3.25,1-.28.54,1.76.18a31.29,31.29,0,0,0-3.79,1.24q3.51-.64,7-1.45c-2.77.9-5.62,1.39-7,2.23a46.86,46.86,0,0,0,4.58-1.36,27,27,0,0,1,3.79-1c-3.17,1.19-5.81,2-3,1.36a23.47,23.47,0,0,1-3.82,1.13c2.27-.47,1.16.38,4.92-.88-1.92.83-1.59.94-1.61,1.13s-.38.48-3.63,1.84c1.6-.55,5.27-1.75,5.61-1.72-3.93,1.57-4,1.8-4,2.14s-.17.73-4.24,2.71c3.48-1.52,4.36-1.65,4.89-1.56s.7.41,2.64-.46c-.53.28-1.61.86-1.3.62A40.53,40.53,0,0,1,921.3,861c5.34-3.29,6.78-3.71,10.07-5.74a66.7,66.7,0,0,1-5.5,3.78c-1.54,1-3.1,1.83-5.47,3.51,4.22-2.83,4.59-2.28,8-4.83-2.9,2.38-1.36,1.22-5.47,4.41,6.34-4.61,1.25-.56,5.21-3.3-2.83,2.66-5.72,4.61-3.56,3.49a18.81,18.81,0,0,1-2.72,2.18A17.07,17.07,0,0,1,920.37,865.42Zm16.2-4,0,.08-.25.16A2.24,2.24,0,0,0,936.57,861.46Zm.58.19c0-.19-.07-.26-.17-.27a28,28,0,0,1,1.33-2.77A30.24,30.24,0,0,0,937.15,861.65Zm6.54-14.82h0Z" transform="translate(-918.45 -822.12)"/><polygon class="cls-1" points="25.24 24.71 25.24 24.71 25.24 24.71 25.24 24.71 25.24 24.71"/><polygon class="cls-1" points="25.91 26.03 25.9 26.03 25.91 26.03 25.91 26.03"/><polygon class="cls-1" points="28.87 49.19 28.69 48.07 28.75 49.07 28.87 49.19"/><path class="cls-1" d="M933.44,846.38c-.39-.06-.8-.11-1.14-.13Z" transform="translate(-918.45 -822.12)"/><path class="cls-1" d="M932.28,848.13c-.53.09-1.06.2-1.6.32C931.59,848.29,932,848.2,932.28,848.13Z" transform="translate(-918.45 -822.12)"/><path class="cls-1" d="M930.17,850l1.92-.22h0Z" transform="translate(-918.45 -822.12)"/><path class="cls-1" d="M945,828.54a.68.68,0,0,0,.05-.21C945.18,827.46,945.11,827.81,945,828.54Z" transform="translate(-918.45 -822.12)"/><path class="cls-1" d="M941.52,839.59c-.22-.79-.42-1.57-.52-2.07C940.81,837.22,940.7,837.16,941.52,839.59Z" transform="translate(-918.45 -822.12)"/><path class="cls-1" d="M950.29,823.59l0,.07s0,0,0,0Z" transform="translate(-918.45 -822.12)"/><path class="cls-1" d="M941.24,837.53c-.34-.84-.37-.62-.24,0C941.16,837.79,941.37,838.21,941.24,837.53Z" transform="translate(-918.45 -822.12)"/><path class="cls-1" d="M934.92,861.23l.05.26c.16-.26.3-.45.41-.6Z" transform="translate(-918.45 -822.12)"/><path class="cls-1" d="M935.38,860.89l.43-.35C935.74,860.49,935.67,860.49,935.38,860.89Z" transform="translate(-918.45 -822.12)"/><path class="cls-1" d="M936.71,859.76c-.29.27-.59.52-.9.78C935.92,860.62,936,860.83,936.71,859.76Z" transform="translate(-918.45 -822.12)"/><path class="cls-1" d="M933.06,856.76l-1.3,1C932,857.56,932.46,857.24,933.06,856.76Z" transform="translate(-918.45 -822.12)"/><path class="cls-1" d="M932,856.1c-.17.41-2.39,2.66-1.27,2.42l1-.77c-1,.67-.41-.14.21-.89S933.21,855.44,932,856.1Z" transform="translate(-918.45 -822.12)"/><path class="cls-1" d="M943.8,848.27l-.1,0h0Z" transform="translate(-918.45 -822.12)"/><path class="cls-1" d="M944.08,848.22Z" transform="translate(-918.45 -822.12)"/><path class="cls-1" d="M944,847.87Z" transform="translate(-918.45 -822.12)"/><path class="cls-1" d="M937.74,836.79c-.47-.7-1-1.4-1.45-2.1l1.83,3.28C938,837.58,937.86,837.19,937.74,836.79Z" transform="translate(-918.45 -822.12)"/><polygon class="cls-1" points="26.16 26.74 26.16 26.73 26.17 26.76 26.16 26.74"/><path class="cls-1" d="M943.84,862.57l.92-5C944.58,858.5,943.54,864.06,943.84,862.57Z" transform="translate(-918.45 -822.12)"/><path class="cls-1" d="M943.45,847.11h0Z" transform="translate(-918.45 -822.12)"/><polygon class="cls-1" points="25.11 25.62 25.1 25.61 25.11 25.63 25.11 25.62"/><path class="cls-1" d="M946.68,938.49c0-1.38,0-4.5-.34-3.88-.08,1.76-.21,3.52-.4,5.28A14.49,14.49,0,0,0,946.68,938.49Z" transform="translate(-918.45 -822.12)"/><path class="cls-1" d="M946,928.64a41.41,41.41,0,0,1-1.74,4.81,39.77,39.77,0,0,0-2.29,6.43l2-3.72a20.72,20.72,0,0,0,1.51-4.65c.25-.58,0,1.73-.24,3.65.15-.66.22-.36.34-.3s.29-.13.45-1.79c-.08-4.12.26-4.23-.87-1C945.4,930.91,945.82,929.59,946,928.64Z" transform="translate(-918.45 -822.12)"/><path class="cls-1" d="M946.92,926.8h0Z" transform="translate(-918.45 -822.12)"/><path class="cls-1" d="M945.15,929l.06,0Z" transform="translate(-918.45 -822.12)"/><path class="cls-1" d="M944.15,929.61l.07,0Z" transform="translate(-918.45 -822.12)"/><polygon class="cls-1" points="28.47 104.68 28.47 104.68 28.47 104.68 28.47 104.69 28.47 104.69 28.47 104.69 28.3 105.5 28.3 105.5 28.3 105.5 28.3 105.5 28.3 105.5 28.3 105.5 28.3 105.5 28.47 104.69 28.47 104.69 28.47 104.68 28.47 104.68"/><path class="cls-1" d="M934.38,934.79a2.94,2.94,0,0,0,1.52-.22,2.87,2.87,0,0,1-.79-.18Z" transform="translate(-918.45 -822.12)"/><polygon class="cls-1" points="28.65 104.94 28.66 104.95 28.67 104.96 28.65 104.94"/><path class="cls-1" d="M947.43,927.35h0Z" transform="translate(-918.45 -822.12)"/><path class="cls-1" d="M946.49,927.29h0Z" transform="translate(-918.45 -822.12)"/><path class="cls-1" d="M946.93,926.77Z" transform="translate(-918.45 -822.12)"/><path class="cls-1" d="M923.93,935.06l.77-.21A2.63,2.63,0,0,0,923.93,935.06Z" transform="translate(-918.45 -822.12)"/><path class="cls-1" d="M945.35,928.79h.24l1.68-.08h0l-.54,0Z" transform="translate(-918.45 -822.12)"/><path class="cls-1" d="M940.94,931.17h0Z" transform="translate(-918.45 -822.12)"/><path class="cls-1" d="M948.85,929.13s0,0,0,0S948.84,929.11,948.85,929.13Z" transform="translate(-918.45 -822.12)"/><path class="cls-1" d="M934.68,934.15a1.27,1.27,0,0,1-.34-.52C934.34,934,934.45,934.11,934.68,934.15Z" transform="translate(-918.45 -822.12)"/><path class="cls-1" d="M948.86,929.13h0Z" transform="translate(-918.45 -822.12)"/><path class="cls-1" d="M931.67,936.68l1.78-.85C933,936,932.52,936.26,931.67,936.68Z" transform="translate(-918.45 -822.12)"/><path class="cls-1" d="M937,932.85l-.55.23Z" transform="translate(-918.45 -822.12)"/><path class="cls-1" d="M938.2,935.54c-.28.21-.81.53-.25.29l.46-.29C937.87,935.82,937.6,935.94,938.2,935.54Z" transform="translate(-918.45 -822.12)"/><path class="cls-1" d="M939.27,937.16l.71-.56-.23.09Z" transform="translate(-918.45 -822.12)"/><path class="cls-1" d="M931,943.55c.89-.9,1.89-1.87,2.9-2.81C931.6,942.92,930.43,943.33,931,943.55Z" transform="translate(-918.45 -822.12)"/><path class="cls-1" d="M936.52,933.46a3.75,3.75,0,0,1-1.84.69,1.49,1.49,0,0,0,.43.24A8.57,8.57,0,0,0,936.52,933.46Z" transform="translate(-918.45 -822.12)"/><path class="cls-1" d="M953.59,926.86l-.12.07Z" transform="translate(-918.45 -822.12)"/><path class="cls-1" d="M947.27,950.45l-.11.53C947.19,951.08,947.23,951,947.27,950.45Z" transform="translate(-918.45 -822.12)"/><path class="cls-1" d="M953.08,927.18l-.08.05h0Z" transform="translate(-918.45 -822.12)"/><path class="cls-1" d="M934,940.71l0,0Z" transform="translate(-918.45 -822.12)"/><path class="cls-1" d="M923.34,944.38c.27.64,5-3,7.84-4.77,1.69-.51-3.42,2.7-5.75,4.65,1.57-.5,6.05-3.59,6-3.27-.76.61-1,.87-2,1.57,2-1.29,2.17-1.14,2.5-1.07s.79,0,3.1-1.8l-1.07,1c2.17-2,4.41-4,6-5.46.15,0,2.86-2.41,0,.25,0-.12-1.1.94-2,1.73l1.31-1.05c-4,3.89-1.53,1.18-4.56,3.94,1.59-.93,5-4,4.06-2.73-3.76,3.93-1.67.91-4.86,4.56.39-.6.79-1.18,1.2-1.75-6,6.17.22-.64-6.18,5.93-.3.84.36.52,1,.17s1.23-.73.94.08c2.16-2.12,3-3.29,5.15-5.43,2.06-1.8-.14.81-2.11,3.33s-3.76,4.87-1.19,2.3,6.74-8,4.75-5l-3.87,4.77c.13.88,5.56-6.85,3.51-3.23-1.48,1.91-1.53,1.4-1.89,2-2.55,4.16,2.27-2.65,2.44-2.54l-3.08,4.49c1-.35,3.62-3.34,4.52-4a48,48,0,0,0-2.51,4.31c2-2,1,1.32.5,4.63.75-1.38,1.47-2.77,2.18-4.17a18.19,18.19,0,0,1-1.17,2.8c-.42,1.76,1.21-2.73,2.06-4.37a18.08,18.08,0,0,1-1.52,3.83c1-1.73,2.13-3.6,2.76-4.44s.82-.68.25,1.78l-.53,1.3c-.11,1,.74-1.29,1.45-3.27s1.3-3.67.8-1.53l-.29.78c0,1.08.55.63.86.78s.45.88.1,4.42c.69-3.31.72-2.54.83-2.1s.29.56,1-4.1l-.38,5.33a20.93,20.93,0,0,0,.12,4.22c.18.46.89-5.83,1.15-6.8l-.4,4.91c.25-1.71.48-3.42.68-5.13l-.22,5.89.3-1.25a24.84,24.84,0,0,1,0-3.63c.21-1.11.32-.25.43,1.21s.18,3.51.16,4.77c.33-1.38.62-2.77.85-4.16a31.23,31.23,0,0,1-.23,3.93c.42-5,.14,5.2.54.58-.09-1.12,0-2.93-.05-3.93.27,3,.85,3,1.13,1.69l.15,3.4c.86.8,1.44-1.77,2.21-1.82a47.88,47.88,0,0,1-1.25-7.94l.91,5.13c-.4-3.21-.51-1.91-.91-5.84a48.68,48.68,0,0,1,1.29,7.51c0-.62,0-1.23,0-1.85.31,1.53.37,2.35.7,4.31-.21-1.61.19-.36.59.59s.77,1.6.29-1.17l.36,1.51c1-.18.93-2,1.55-2.48-1.31-4.31-.76-3.42-1.72-6.94.83,1.23,2.63,4.34,3.11,3.72-.47-2.23-1.37-3.55-2.28-6.07,1.64,3.75,2,3.15,3,6a2.71,2.71,0,0,0,.35-1.35,13.85,13.85,0,0,0-.56-3.2,34.9,34.9,0,0,1-2-3.24c-.23-.65,1.11,1.34,2.1,3l.18.39c-1.15-2.9.78-.58,2.89,1.23a9.32,9.32,0,0,0,2.58,1.85c.51.1.49-.49-.69-2.29l.22.36c-.68-1.37-1.42-2.69-2.21-4,.79.23,1.89,2.45,3.85,4.09-1.9-2.91-1.5-3-.82-2.89s1.56.32.1-1.49c4.82,3.66,5.2,2.85,5,1.8s-.9-2.32,2.7-.8l-2.47-1.43c-2.25-1.66,1.56.57,2.24.7a30.17,30.17,0,0,1-3.61-2,3.34,3.34,0,0,1-.27-.67h0l-16.48-10.47c0,.19,0,.14.08-.11a1.22,1.22,0,0,1,.1-.2l0,0A3.87,3.87,0,0,1,952,928l0,.05.25-.24,0,0,.22-.19,0,0,.18-.14.38-.27.26-.17.31-.19s.06,0,0,0l.16-.08.31-.17.13-.05h0l8.11-3.13h0l-.08,0-.66.18c1.68-.65,2.57-1,3.06-1.15l.5-.16h.11l-11,4.24h0l12.75-4.92h-.05l-.09,0-2.67.92c-1.61.54-2.67.91-1.9.47s2.93-1.11,4.08-1.53c-1.43.41-1.31.26-1.33.12s-.14-.27-2,.36c.62-.26,1.31-.51,1.83-.7-.24,0,.92-.54-2.1.74l.84-.29c-4.37,1.9-9.25,3.66-11.55,4.67,8.67-3.63,2.08-1.15,13-5.77-.58.21-2,.78-4,1.68.56-.31,1.72-.85,4-1.8-1.74.47-4.88,2-4.91,1.77,1.45-.67,2-.88,3.73-1.64-2.87,1.16-5.7,2.42-4.58,1.67a17,17,0,0,1,2-.9,18.36,18.36,0,0,0-3.73,1.32c-1.51.62-2.63,1.07-1.4.2,6.1-3.24,1.92-1.22,7.1-4.2l-1.7.62L959.08,921c-.05-.3-3.86,1.83-2.28.65l2.17-1.16-1.21.21c-.57.5-1.16,1-1.76,1.44-2.69,1.51-6.35,4.1-5,3,.52-.32,0-.11,2.83-2.22h0c-1.62,1-3.25,2.17-2.13,1.2,1.5-1.19,5.29-4,6.28-4.75-2,1.44-2.4,1.54-2.8,1.66s-.83.27-2.88,2c1-.79,3.36-2.82,3.84-3.25L953,922.32a43,43,0,0,1,3.23-3c.11-.43-1.25.89-2.4,2s-2.06,2-1,.7c.26-.2.69-.63,1.19-1,.46-.75-.17-.47-.75-.19s-1.09.6-.62-.3c3.68-4.76,1.3-.83,4.44-4.81a10.07,10.07,0,0,0-3.54,2.1c-1.22,1-2.13,1.8-2.12,1l-.19.65c-2.08,3.7-1.6,2.76-1,1.26s1.24-3.59.26-1.84c.32-.54,2-4.26,1.59-3.41-.07-.77-.66-.44-1.35.41a20.75,20.75,0,0,0-2.12,3.44l.57-2.1a1.35,1.35,0,0,0-.83-1.58,3.2,3.2,0,0,1-1.4-.79c-.25,2.18-.58,1.84-.25,5-.51-3.09-1.39-4.14-2-4.13-.31,0-.56.26-.74.65a4.65,4.65,0,0,0-.29,1.44,9.27,9.27,0,0,1-.22,2.42c-.22.28-.76-.27-2.57-2.17.13-.12-.63-1.86-.79-1.78a10.35,10.35,0,0,0,0,2.49c2.43,2.79,1.56,1.61,3.48,3.77l1.62,2.25a9.88,9.88,0,0,1,.66.91c-.78-.94-1.72-2.09-2.71-3.13a36,36,0,0,0-2.81-2.66c.8.81,1.61,1.76,2.42,2.58-2.42-2.23-1.18-.85.33.65s3.24,3.16,1.53,1.75l-1.44-1.31c.63.79,2.59,2.46,2.12,2.16-3.42-2.57-1.51-1.31-4.23-3.55a15.66,15.66,0,0,0,2.65,2.48c1.13.93,1.87,1.43.05.32a21.11,21.11,0,0,1-1.8-1.61,22.86,22.86,0,0,0-3.34-2c-.39-.15-.34,0-.75-.11l.12,0a20.07,20.07,0,0,0-2.32-.55l1.28.51c4.7,3,5.15,3.25,5.1,3.41s-.54.17,2.81,1.62c-3.17-1.38-4.05-1.87-4.75-2.12s-1.18-.36-3.41-1.3a28.67,28.67,0,0,1-4.07-1.17c1.75.89,1,.75.4.77s-1,.21,1.7,1.26c-1.51-.39-.26.38-4-.69,1,.91,2.67.51,4.55,1.09,2.49,1,.85.86-.59,1.29s-2.64,1.1,1,2a14,14,0,0,0,5.64.61,21.81,21.81,0,0,0,5.22-.71c-1.12.35-2.51.83-3.58,1.08a15.51,15.51,0,0,1-1.88.34c-1.06.51-1.42.93-1.3,1.14s.79.34,1.71.15a13.62,13.62,0,0,0-3.61,2.29c.38.24,1.64-.43,2.6-.94s1.59-.89.9.08a26.13,26.13,0,0,1-5.46,3.15,6.42,6.42,0,0,0,1.54-.1,11,11,0,0,0,1.75-.4,25.52,25.52,0,0,0,2.93-1.2,8.44,8.44,0,0,1-2.23,2.45c-.77.54-1.6.88-2.4,1.34a6.18,6.18,0,0,0,3.3-.25,7,7,0,0,0,3.09-3.5,12.9,12.9,0,0,1,.33-1.55,13.94,13.94,0,0,1-2.18,3.92c-1.2,1.27-1.39.71-1-.25a15.41,15.41,0,0,1,1.72-2.92,5.73,5.73,0,0,0,.92-.58c2.3-4,2.32-3.5,1.14-2.61s-3.49,2-3.5,1.49c1-.52,1.94-1.08,2.89-1.66l1.4-.89.7-.46.08,0h0l-.55.34c-.39.24-.79.47-1.2.68a19.67,19.67,0,0,1-2.54,1.1c1.33-.84,5.53-2.67,4.33-2.15a.23.23,0,0,0,.09,0h0l.07,0h0a1.86,1.86,0,0,1,.26,0h-1a33.44,33.44,0,0,1-3.76-.21c1,0,2,.06,3,.12l1.92.11h.13l-.67-.1.71.11h.1l.07,0h0l-.18,0-.42-.13.63.2h0s.05,0,0,0l0,0a.6.6,0,0,1-.16-.12h0l-.11-.11,0,0,0,0,0,0h0s-.08-.15-.11-.18h0l-.07-.14-.78-1.63a13.9,13.9,0,0,1-1-2.6c.6,1.39,1.59,3.73,1.85,4.35v0l0,0h0v0l0-.06h0v0h0s0,.06,0,0h0l-.18.81h0v0s0,0,0,0l0,.06v0l-.06.09,0,0-.09.12-.08.09,0,0-.1.11,0,0-.23.23-.26.23.08-.07a3.34,3.34,0,0,1-.29.23c-.18.13-.19.15-.41.3l0,0,0,0,0,0h0l.17-.11.31-.21-.7.46s0,0,.06,0l.07,0,.06,0h0l-.31.2,0,0c-.28.18-.39.23-.77.45l.06,0-.6.32-.36.19.06,0c-.46.24-.8.39-1.13.55l.28-.13-.47.22.19-.09-.36.17-.25.12-.89.4.61-.27-.5.22.08,0-1.69.74-.52.23c.53-.23.26-.11-.23.09l-1.49.62,1-.4c2.62-1.09,2.28-.93,3.12-1.26l-2.32.94c4.64-1.86-4.78,2-1.65.72L931,935.31c3.44-1.33-3.62,1.42-.77.35,3.55-1.4,2.68-1.07,6.16-2.37-.85.28-1.69.59-2.53.91l5.19-2s-2.25.83-1.65.59c2.9-1.12,2-.77,5-1.95-5.32,2.12,3.14-1.14-.44.33l-8.81,3.41c-1.95.81-.82.37.55-.07s3-.82,2-.15l1.46-.76c3.49-1.39.58,0,2-.45-2.9,1.25-3.91,1.8-5.67,2.67,2.13-1,0,.45,5.69-2.2-1.23.64-2.45,1.3-3.67,2-1.33,1.16,8.24-3.66,7.37-3-3.07,1.53-5,2.73-7.26,3.65,0,.13-.41.52,1.51-.52-1.69,1,3.89-1.77,1.32-.21,1.23-.64,4.11-2.29,3.93-2.07l-1.35.79c1.35-.79,1.91-1,4.87-2.81-4.18,2.61-3.88,2.76-3.48,2.72s.94-.18-2.4,2.43a9.31,9.31,0,0,1,2.37-.7c-.74.59-1.22,1-1,.75-2,2.2,7.07-5.67,4.75-3.34-3.67,3.55-2.19,1.69-3.55,3.07-3.88,3.46-3.47,3.38-2.68,2.93s2-1.33,0,1l-.51.36c-1.12,1.37-.24.86.84,0s2.36-1.93,2.32-1.47c0,0-.62.68-1,1.19,3.76-3.76,5.1-4.95,6.18-6-2.33,3.33-1.35,1.68-3.58,5.16a24.72,24.72,0,0,0,2.14-3c1-1.44,2-2.92,2.37-3.36-1.14,1.92-1.92,3.72-4,7.59l-.57-.06c-1.38,2.5-1.15,2.59-.67,2.13s1.27-1.44,1.17-.93l-1.2,2.19c.7-.1,1.71-1.59,2.57-3s1.58-2.66,1.88-2.32l.57-1.81c1.21-2.87.92-2,.67-1s-.53,2.3.26.12c-.53,2-1,4.08-1.51,6.13a28.1,28.1,0,0,0,1.64-3.5c.57-1.4,1-2.8,1.21-3.38a25.85,25.85,0,0,1-3.08,9.47c.46.16,1.77-.15,2.28-3.24-.21.59-.64,2.09-.67,1.11,1.27-4.83,1.67-7.26,2-7.15-.1,5.63.33,6.75.92,7.18s1.19.2,2.21,3.17l-5.57-16.9h0a.22.22,0,0,1,.1.06s0,0,0,0l0,0h0l0,0h0l0,0s0,0,0,0a.92.92,0,0,1-.12-.18h0v0h0l0-.07v0l-.1-.22,0-.11h0a1.62,1.62,0,0,1-.1-.34c0-.06,0-.24,0-.35s0,0,0,0v-.07h0v-.1h0a.93.93,0,0,1,0-.25v0h0v-.06h0v0h0s0,0,0,0h0l0,0v0h0l0,.05h0l0,0h0l0,0,0,.06,0,0h0l-.06.12h0l0-.09s0,0,0,0l-.06.13h0l0,0,0,0,0,.07h0v0h0l0,0,0,.06,0,0-.07.09a1.56,1.56,0,0,1-.14.19l0,0,0,0-.11.11,0,0h0a1.24,1.24,0,0,1-.29.26h0c-.1.06-.09.08-.16.12s-.16.07-.13.07h0s-.07,0,0,0h.13l-.36,0-1.32,0-11,.49a54.6,54.6,0,0,0-9.24,1c1.53.08,3.06.13,4.58.13l-3.57.53-.28-.44c-3.36.57-.34.51,1.73.43a29.85,29.85,0,0,0-3.92.71c2.37-.09,4.75-.25,7.11-.46-2.87.51-5.75.6-7.28,1.24a43.32,43.32,0,0,0,4.72-.72,27.08,27.08,0,0,1,3.89-.51c-3.3.75-6,1.23-3.13,1a22.92,22.92,0,0,1-3.94.6c2.31-.15,1.1.57,5-.18-2,.58-1.7.74-1.74.93s-.43.45-3.83,1.37a54.88,54.88,0,0,1,5.8-.94c-4.09,1-4.15,1.29-4.24,1.64s-.24.77-4.53,2.23c3.65-1.06,4.55-1.07,5.08-.88s.68.56,2.71-.06c-.56.22-1.7.67-1.37.46a34,34,0,0,1-3.63,2.51c5.66-2.7,7.16-2.93,10.65-4.62a63.08,63.08,0,0,1-5.86,3.21c-1.63.79-3.28,1.49-5.81,2.92,4.49-2.38,4.84-1.74,8.45-4-3.11,2.1-1.47,1.1-5.86,3.89,6.76-4,1.32-.4,5.54-2.73-3,2.42-6.12,4.07-3.84,3.21a17.16,17.16,0,0,1-2.9,1.93A14.2,14.2,0,0,1,923.34,944.38Zm16.56-2.52,0,.08-.24.15S939.74,942,939.9,941.86Zm.5.21c0-.18,0-.25-.12-.27.75-1.36,1.55-2.74,1.54-2.65A30.93,30.93,0,0,0,940.4,942.07Zm7.73-14.28v0l0,0h0Z" transform="translate(-918.45 -822.12)"/><polygon class="cls-1" points="29.66 105.69 29.66 105.7 29.66 105.69 29.67 105.68 29.66 105.69"/><polygon class="cls-1" points="28.47 104.67 28.47 104.67 28.47 104.67 28.47 104.67"/><polygon class="cls-1" points="27.86 130.49 27.95 129.35 27.8 130.34 27.86 130.49"/><path class="cls-1" d="M940.3,919.86a9.7,9.7,0,0,0-.85-.77C939.65,919.3,940,919.57,940.3,919.86Z" transform="translate(-918.45 -822.12)"/><path class="cls-1" d="M937.84,921.27c-.51-.19-1-.36-1.56-.52A15.25,15.25,0,0,0,937.84,921.27Z" transform="translate(-918.45 -822.12)"/><path class="cls-1" d="M934.91,922.1c.71.33,1.26.56,1.76.78h0Z" transform="translate(-918.45 -822.12)"/><path class="cls-1" d="M964.81,921.32l.19-.05C965.83,921,965.5,921.08,964.81,921.32Z" transform="translate(-918.45 -822.12)"/><path class="cls-1" d="M953.8,922.92c.68-.44,1.37-.86,1.81-1.1C955.85,921.55,955.88,921.45,953.8,922.92Z" transform="translate(-918.45 -822.12)"/><polygon class="cls-1" points="35.16 104.73 35.16 104.73 35.14 104.73 35.16 104.73"/><path class="cls-1" d="M955.67,922c.7-.56.49-.52-.06-.21C955.4,922,955.06,922.36,955.67,922Z" transform="translate(-918.45 -822.12)"/><path class="cls-1" d="M939.23,940l.24.34a5.46,5.46,0,0,1,.38-.62Z" transform="translate(-918.45 -822.12)"/><path class="cls-1" d="M939.85,939.72l.59-.3C940.28,939.35,940.13,939.31,939.85,939.72Z" transform="translate(-918.45 -822.12)"/><path class="cls-1" d="M941.61,938.71a11.37,11.37,0,0,1-1.17.71C940.68,939.56,941,939.83,941.61,938.71Z" transform="translate(-918.45 -822.12)"/><path class="cls-1" d="M934.64,931.54l-1.56.48A12.77,12.77,0,0,0,934.64,931.54Z" transform="translate(-918.45 -822.12)"/><path class="cls-1" d="M933.66,929.73a14,14,0,0,1-1.5,1.3c-.58.54-.94,1.13-.33,1.35l1.25-.36c-1.2.23-.42-.52.38-1.16S935.06,929.7,933.66,929.73Z" transform="translate(-918.45 -822.12)"/><path class="cls-1" d="M947.26,927.29l-.11,0h0Z" transform="translate(-918.45 -822.12)"/><path class="cls-1" d="M947.43,927.34h0Z" transform="translate(-918.45 -822.12)"/><path class="cls-1" d="M946.7,927.67Z" transform="translate(-918.45 -822.12)"/><path class="cls-1" d="M955.32,918.44q.78-1,1.53-2l-2.57,2.73C954.62,918.89,955,918.66,955.32,918.44Z" transform="translate(-918.45 -822.12)"/><polygon class="cls-1" points="27.71 106.16 27.73 106.14 27.64 106.21 27.71 106.16"/><path class="cls-1" d="M935.79,939.12l4.12-2.9C939.11,936.65,934.39,939.79,935.79,939.12Z" transform="translate(-918.45 -822.12)"/><path class="cls-1" d="M946.7,941.47c-.76,2.41-.76,4.12.22,1.83C946.69,942.86,947.05,940.91,946.7,941.47Z" transform="translate(-918.45 -822.12)"/><polygon class="cls-1" points="29.92 105.43 29.92 105.44 29.92 105.42 29.92 105.43"/><path class="cls-1" d="M936.56,1014.38c1.24.61,4,2,3.58,1.55q-2.31-1.3-4.55-2.72C935.9,1013.62,936.22,1014,936.56,1014.38Z" transform="translate(-918.45 -822.12)"/><path class="cls-1" d="M945.53,1018.47c-1-.82-2.3-2-3.79-3.44s-3.17-3.07-5.09-4.57l2.86,3a31.33,31.33,0,0,0,3.65,3.24c.44.45-1.54-.76-3.15-1.85.54.41.25.32.16.39s0,.26,1.43,1.14c3.68,1.84,3.67,2.16,1.17-.17C943.72,1017,944.76,1017.86,945.53,1018.47Z" transform="translate(-918.45 -822.12)"/><path class="cls-1" d="M946.91,1019.77h0Z" transform="translate(-918.45 -822.12)"/><path class="cls-1" d="M947.25,1019h0Z" transform="translate(-918.45 -822.12)"/><path class="cls-1" d="M947.34,1018.89h0Z" transform="translate(-918.45 -822.12)"/><path class="cls-1" d="M946.91,1019.77h0Z" transform="translate(-918.45 -822.12)"/><path class="cls-1" d="M942.51,1005.8a3,3,0,0,0-.16,1.51,2.77,2.77,0,0,1,.36-.71Z" transform="translate(-918.45 -822.12)"/><polygon class="cls-1" points="27.75 197.83 27.74 197.84 27.73 197.84 27.75 197.83"/><path class="cls-1" d="M946.12,1020h0Z" transform="translate(-918.45 -822.12)"/><path class="cls-1" d="M946.49,1019.23h0Z" transform="translate(-918.45 -822.12)"/><path class="cls-1" d="M946.6,1019.8Z" transform="translate(-918.45 -822.12)"/><path class="cls-1" d="M950.93,1040.35l-.23-.76C950.83,1040,950.92,1040.3,950.93,1040.35Z" transform="translate(-918.45 -822.12)"/><path class="cls-1" d="M944.14,1019.13l-.06-.23c-.24-.81-.48-1.62-.72-2.41Z" transform="translate(-918.45 -822.12)"/><path class="cls-1" d="M947.52,1018.77h0Z" transform="translate(-918.45 -822.12)"/><path class="cls-1" d="M947,1019.17s0,0,0,0Z" transform="translate(-918.45 -822.12)"/><path class="cls-1" d="M943,1006.26a1.12,1.12,0,0,1,.56-.18C943.3,1006,943.12,1006.05,943,1006.26Z" transform="translate(-918.45 -822.12)"/><path class="cls-1" d="M947,1019.17Z" transform="translate(-918.45 -822.12)"/><path class="cls-1" d="M947.46,1018.74h0Z" transform="translate(-918.45 -822.12)"/><path class="cls-1" d="M947.58,1018.74h0Z" transform="translate(-918.45 -822.12)"/><path class="cls-1" d="M947.26,1018.71h0Z" transform="translate(-918.45 -822.12)"/><polygon class="cls-1" points="28.64 196.53 28.64 196.53 28.64 196.53 28.64 196.53"/><path class="cls-1" d="M951.27,1038l-1.17-3.87C951,1037.19,951.3,1038.3,951.27,1038Z" transform="translate(-918.45 -822.12)"/><path class="cls-1" d="M943.23,1008.22a4,4,0,0,1-.2-2,1.48,1.48,0,0,0-.32.34A8.6,8.6,0,0,0,943.23,1008.22Z" transform="translate(-918.45 -822.12)"/><path class="cls-1" d="M924.12,1012.59c.3-.26.6-.51.91-.75A1.16,1.16,0,0,0,924.12,1012.59Z" transform="translate(-918.45 -822.12)"/><path class="cls-1" d="M953.33,1036.71l.15.52A2.8,2.8,0,0,0,953.33,1036.71Z" transform="translate(-918.45 -822.12)"/><path class="cls-1" d="M925.44,1008.88a20.81,20.81,0,0,0,3.06.8c-.31-.19-.54-.35-1-.61C926.82,1009,926.13,1008.92,925.44,1008.88Z" transform="translate(-918.45 -822.12)"/><path class="cls-1" d="M950.08,1034.08l0,.05Z" transform="translate(-918.45 -822.12)"/><path class="cls-1" d="M952.81,1044.42s-.37-1.34-.9-3.15-1.21-4-1.69-5.66,1.27,4.16,2.15,7.06c-.41-1.52-1.93-6.72-1.84-6.51l.73,2.44c-1.31-4.51,0-.25-1.6-5.92l.42,1.4c-.84-2.84-1.71-5.72-2.32-7.77,0-.1-1-3.59.08.11,0-.1.4,1.39.74,2.55l-.46-1.61c1.61,5.31.52,1.84,1.7,5.78-.48-1.74-1.74-6.16-1.26-4.67,1.56,5.21.45,1.78,1.87,6.39l-.64-2,2.45,8.21c.52,1.49-.71-2.67-.19-1.17-.86-2.91-1.27-4.28-2.13-7.18-1.46-5.23,4,13.07,2,6.11-1-3.47-3-10.06-1.88-6.59l1.74,5.89c.24.56-2.49-8.48-1.24-4.54.63,2.23.55,2,.75,2.67.71,2.31.47,1.48.06.06l-.66-2.24c-.2-.68-.33-1.18-.33-1.18l1.56,5.21c-.17-.84-1.22-4.63-1.43-5.6.47,1.55.94,3.15,1.43,4.77-.68-2.63.4.58,1.41,3.64l-1.3-4.51.87,2.9c.55,1.7-.85-2.85-1.36-4.62-.07-.33.8,2.57,1.19,3.93-1.07-3.84-2.27-8.28-.76-3.48l.38,1.34c.6,1.82-2.69-9.24-1.39-5.06l.23.8c.7,1.92-.4-2.24,1.71,4.53-1.92-6.49,1,2.86-1.71-6.19,1.4,4.46,1.86,6.09,2.86,9.07.14.41-1.65-5.66-1.9-6.61l1.41,4.72-1.44-5,1.71,5.64-.33-1.22c-.11-.33-.65-2.13-1.07-3.47-.59-2.16,1.1,3.25,1.82,5.67l-1.09-4c.55,1.88.74,2.55,1.09,3.77-1.38-4.84,1.5,5,.23.54l-1.12-3.77c.88,2.85.95,2.86.63,1.64l1,3.26c.14.32.11.12,0-.23l15.84-18.26c-.36-1.21-1.14-2.41-1.1-3.53-1.59.69-7.48.31-8.05,0,1.74-.06,3.48-.13,5.22-.22-3.23-.22-2,.43-5.92,0,.59-.43,5.92-.6,7.63-.23-.61-.26-1.23-.49-1.85-.7,1.55-.15,2.38,0,4.37-.06-1.63-.1-.35-.53.62-1.06s1.6-1.13-1.22-1l1.53-.27c-.3-2.17-2.29-2.5-3-3.83-4.27,1.44-3.5.6-7,1.64.54-.59,1.52-1.44,2.24-2.3s1.17-1.7.73-2.07a9.09,9.09,0,0,0-2.84,1.24c-.87.52-1.76,1.09-3,1.69,3.5-2.14,2.67-2.72,5.4-3.92a3.17,3.17,0,0,0-1.66-.51,9.11,9.11,0,0,0-3.24.87,26,26,0,0,1-2.78,2.61c-.6.33,1-1.41,2.53-2.71l.35-.24c-2.69,1.59-.89-.83.29-3.38s1.85-5.06-1.12-1.92l.3-.3a41.17,41.17,0,0,0-3.37,3.08,4.49,4.49,0,0,1,1.07-1.83,14.07,14.07,0,0,0,1.89-2.94c-2.38,2.54-2.56,2.16-2.71,1.47s-.22-1.63-1.59.25c2.12-5.67,1.09-5.87,0-5.43-.53.22-1.11.58-1.51.41s-.62-.88-.55-2.84l-.55,2.79c-.91,2.65,0-1.68-.2-2.37-.38,2.18-.14,2.58-.65,4a1.76,1.76,0,0,1-2.14.45,11.22,11.22,0,0,1-2.2-2,29.62,29.62,0,0,0-2.95-2.79,11.13,11.13,0,0,0-3.74-1.93c-.92-.15-.13,3.48.56,6.33a21.17,21.17,0,0,1,.62,3.19c0,.52-.3.3-1.29-1.14-.51-1.69-1-3.4-1.42-5.11a6.77,6.77,0,0,1-1.05,3.4,4.41,4.41,0,0,1-1.82,1.26,4,4,0,0,0-1.76,1.27,3.29,3.29,0,0,0-.12,3c-.73-1-1.8-2.16-1.58-2.33-1.52-1.22-2-.8-1.8.14a8.18,8.18,0,0,0,2.41,3.42c-.53.06-2.18-1.81-3.57-2.65-1.07-.49-.41.64.19,1.55s1.11,1.62-.53.63a3.35,3.35,0,0,1-1.07-1.15c1.24,1.42-1.52,1.36,2.41,3.45-1.14-.18-1,.49-.79,1.06s.33,1.07-1,.83c2.12,1.29,1.44,1.35,1,1.52s-.62.4,2.63,1.71c-6.72-2.75-6-.44-2.85.89-2.07-.75-2.31-.14-5.19-1.11-.07.69,1.13,1.54,4.8,2.18-4.35-.38-2.75.62-1.38,1.22s2.48,1-3.08.83a64.81,64.81,0,0,0,8.26,3.69c-3.58.45-3.8.13-4.05-.17s-.54-.59-4.32-.35a23,23,0,0,0,5.6,1c1.75.18,2.89.28,2.13.9a17.06,17.06,0,0,1-4.32.64c1.57.28,1.52.78,1.63,1.3s.34,1,2.34.73a11.19,11.19,0,0,1-1.9.5c.28.09-.84.8,2.22-.41l-.9.16c2.19-1,4.57-1.67,6.67-2.36s3.92-1.35,5.07-1.84c-8.72,3.52-2,1.42-12.9,6a21.47,21.47,0,0,0,4.06-1.63,16.15,16.15,0,0,1-4,1.95c1.92-.13,4.89-2,5.07-1.5-1.39.77-2,1-3.66,1.8,2.9-1.16,5.67-2.57,4.73-1.53-.82.49-1.85,1.2-1.91,1.06.43.24,2.33-.63,3.81-1.37s2.54-1.32,1.6-.12c-5.39,4.32-1.56,1.67-6,5.72.58-.24,1.14-.5,1.72-.77.63-.73,1.28-1.45,1.94-2.16.11.2,1-.4,1.72-.88s1.21-.83.67,0c-.61.55-1.24,1.09-1.88,1.61.47-.08.92-.19,1.36-.31.36-.68.75-1.34,1.16-2a41.31,41.31,0,0,0,3.2-3.48c.84-1,1.29-1.53.83-.82-.4.46,0,.11-1.93,3h0c1.25-1.44,2.4-3.08,1.71-1.76-1,1.64-3.59,5.54-4.24,6.63,1.44-2,1.8-2.22,2.18-2.45s.8-.49,2.05-2.84c-.6,1.09-2,3.88-2.29,4.47.66-1.18,1.31-2.37,1.93-3.57a34.14,34.14,0,0,1-1.74,4.07c.15.47.85-1.29,1.46-2.75s1.1-2.62.68-1c-.16.29-.37.86-.7,1.39-.05.9.49.42.92-.09s.78-1,.8,0c-1.11,5.92-.89,1.3-1.88,6.28a6.64,6.64,0,0,0,2-2.71l4.39-.26c.29-1,.44-2,.61-2.69s.39-1,.93-.88l-.54-.46a18,18,0,0,1-1.31-2.68c0-.09.43.44,1,1a7.78,7.78,0,0,0,1.83,1.44c.5.23.77.05.25-.84a23.17,23.17,0,0,0,2.33,3,1.31,1.31,0,0,0,1.15-.86,3.54,3.54,0,0,0,.08-1.84,9,9,0,0,0-2.24-4.29c.68.25,1.36.52,2,.81a1.78,1.78,0,0,0,1.7-1.13,4.39,4.39,0,0,1,.83-1.62,13.76,13.76,0,0,0-5-.24c3.09-.43,4.16-1.16,4.2-1.66,0-.25-.23-.46-.6-.61a5.93,5.93,0,0,0-1.36-.14c-2-.09-4.11.61.38-2a5.78,5.78,0,0,0,1.82-.63,16.14,16.14,0,0,0-2.21.09c-3.2,1.84-1.9,1.18-4.39,2.63l-2.48,1.22-.74.38-.27.12c1.07-.59,2.37-1.3,3.6-2.05s2.37-1.55,3.2-2.15c-.95.61-2,1.22-3,1.83,5.41-3.74-6.3,4-2.67,1.42l1.6-1.09c-.88.46-3,2-2.55,1.59,3.36-2.64,1.63-1.15,4.46-3.24a20.93,20.93,0,0,0-3,2c-1.18.86-1.86,1.45-.28,0,.93-.74,1-.69,2-1.37,3.77-3.33,2.71-2.6,3.18-3.27l-.07.09c.45-.63.88-1.28,1.28-2l-.88,1.05c-4.17,3.7-4.54,4-4.65,4s0-.53-2.35,2.24c2.27-2.62,3-3.31,3.44-3.9s.71-1,2.28-2.85a32.16,32.16,0,0,1,2.38-3.5c-1.36,1.41-1,.73-.8.19s.19-.94-1.68,1.26c.85-1.32-.28-.37,1.89-3.63-1.21.69-1.29,2.39-2.43,4-1.73,2.06-1.14.53-1-.94s-.59-3-2.31.35a9.64,9.64,0,0,0-1.28,2.37,18.51,18.51,0,0,0-1,2.86,25.28,25.28,0,0,0-.55,2.87q-.09.69-.12,1.29l0,.57v.25h0c0-.54,0-1.1-.07-1.66s0-1.28,0-1.83a13.69,13.69,0,0,1,.16-1.91c-.21-1.15-.51-1.61-.75-1.55s-.51.68-.56,1.61a14.25,14.25,0,0,0-1.25-4.09c-.31.3,0,1.69.25,2.75s.44,1.77-.28.83a26.82,26.82,0,0,1-1.62-6.09,8.14,8.14,0,0,0-.23,3.22c.14,1.15.41,2.25.56,3a11.23,11.23,0,0,1-1.66-2.86c-.33-.87-.48-1.71-.74-2.58a6.32,6.32,0,0,0-.33,2.9,7.81,7.81,0,0,0,2.32,4c.44.28.87.58,1.28.9a16.39,16.39,0,0,1-2.92-3.4c-.82-1.52-.27-1.47.44-.76a19.81,19.81,0,0,1,2.14,2.63c.09.34.2.68.32,1,2.92,3.54,2.52,3.37,2,2a11.28,11.28,0,0,1-.73-2.41c-.13-.78-.08-1.39.14-1.32.25,1.08.54,2.16.85,3.22l.49,1.59.25.76h0l0-.16-.1-.33c-.13-.44-.25-.89-.35-1.34a19.48,19.48,0,0,1-.41-2.74c.24.84.5,2.17.71,3.43.05.31.11.62.16.91l0,.22s0,0,0,0h0s0,0,0,0h0v0c0,.08,0,.08,0,.14h0v.07h0l.19-.62a30.82,30.82,0,0,1,1.28-3.54c-.32,1-.64,1.9-1,2.85l-.51,1.38,0,0h0l0,0v0l.1-.19-.12.25,0,.06-.05.07h0s0,.05.09-.14l-.13.19,0,.06s0,0,0,0-.07.08-.08.1l0,0,0,0h0l.07,0,0,0,0,0,0,0h0l.21-.09h0l.16-.06,1.7-.61a20,20,0,0,1,2.67-.8l-4.49,1.46,0,0h0l.11,0h0l.06,0h.2l.07,0h0l0,0h0l-.08-.12s0-.06,0,0a.54.54,0,0,1,0-.15c0,.06,0,0,0,.06a.25.25,0,0,1,0-.08l.35-.33h0v0h0l0,0,0,0,0,0v0h0l0,0h0l.07-.07s0,0,0,0l0,0,0,0h0l.06,0h.06l0,0h-.25l-.06,0h0l-.12-.05-.05,0h0l0,0h0s0,0,0,0h0v0h0v.05h0v0h0a.22.22,0,0,1,0,.09v0s0,.1,0,.12a.5.5,0,0,1,0,.16s0,0,0,0h0v0h0l0,0h0l.11-.11h0l0,0h0l0,0h0l.13-.08.07,0h0l.1,0h0l-4.72-19.25c-.11-.31-.28-.79-.53-1.57.38,1.23,1.57,5.26,1.75,5.94-.43-1.35,1.33,4.71-.51-1.49l0,.12c-1.83-6.07-1.39-4.43-1.48-4.59l2.41,8.1c-3.61-11.75,1,4.4-2.17-6.13l1.13,4-1.3-4.35c-.39-1.08-.59-1.62-.36-.56l-.91-3.11c-.13-.26,3.67,12.54,3.71,12.8l-1.95-6.47c-.05.12-1.83-5.54-.15.36l-.91-3.09c-.08-.16-1.45-4.34,1.22,4.55-1.73-5.8-.25-.55.46,2l-1.26-4.27c1.59,5.47,2,7,2.43,8.49-.18-.56-1-3.42-.69-2.33-.7-2.23,1.18,4,.45,1.79l-.79-2.73c-.14-.32.3,1.14,1.22,4.33.49,1.72-.4-1-1.56-4.91.7,2.35,1.62,5.51,1.26,4.4l-.83-2.81c-.93-2.89,1.38,5,.08.82-.42-1.41-.64-2.12-.77-2.55a1.61,1.61,0,0,1,.29.62c-1.17-3.94-1.42-4.62-3-10.07.85,3,2.71,9.45,2.12,7.61-.12-.38-.23-.75-.41-1.36l-.13-.44c-.13-.39,0,0,.16.65-.21-.65-.36-1.13-.39-1.18-1-3.26-.57-1.74-.64-1.89,1.28,4.31,1.07,3.59,2.14,7.17a6.51,6.51,0,0,1-.19-.7l-.12-.45.11.38a.88.88,0,0,1,0-.3c.63,2.19,1.16,4,.42,1.66.82,2.77,1.65,5.62,2.05,7-1.83-6-2.84-9.26-4-12.94.66,2.44.32,1.64,2.69,9.75.29,1.05-.71-2.31-1.1-3.58l-.52-1.86c.58,2.09.13.84,1.8,6.5-.81-2.54-1.52-5.22-1.31-4.27l-.51-1.73c-2.83-9,4.09,14.5.49,2.94l.61,2c-1.7-5.07,1.09,4.9-1.5-3.16-.53-1.63.54,2,1.33,4.74l-1.39-4.62,1.55,5.35c1.09,3.93-3.51-11.32-1.39-3.9l.94,3.11c-.21-.57.45,1.87-.62-1.72.17.57,1,3.25.46,1.63l-.72-2.42,1.16,4.17c-.58-1.73-2.86-9.62-3.08-10.06.24.94,2,7.08,2.5,8.69.05.12.49,1.51,1.21,3.93l.35,1.27c2.12,7.14,4.28,14.46,5.84,19.42l-1.25-4.38,1.05,3.46,0,.23c1,3.25.15.36-.42-1.62.56,1.83.95,3.11,1.16,3.81l-2-6.83c.84,2.79,1.63,5.54,2.13,7.08-.92-3.18-1.89-6.26-2.47-8.35,1,3.24,1.77,5.89,1,3.1.54,1.84.88,3,1.13,3.83-.64-2.22-.21-1-1.33-4.76,1.22,4-.23-1.06,1.78,5.7-.47-1.62-1.53-5.32-1.59-5.61,2.37,8.1.22.45,2.8,9.13-2.14-7.29-.85-3.27-2-7.32l.4,1.38c.21.6.87,2.79,1.3,4.15-1.78-6-2.15-7.39-3.23-11.11,1.77,5.79,2.09,7.07,3.76,12.63-1.41-4.84-1.43-4.9-2.61-8.93,1.1,3.59.54,1.75,2.05,6.71-2.24-7.52-.35-1.29-1.71-5.91,1.15,3.69,2.11,7,1.48,4.74C952.06,1041.74,952.81,1044.42,952.81,1044.42ZM950,1031.1l0,.08,0,.25Zm.08-.1c-.07-.16-.09-.19-.09-.16-.45-1.48-.91-3-.87-2.94C949.46,1028.88,949.73,1029.74,950.12,1031ZM941,1001.19c-.17-.61.09.23.35,1.11l.13.53.16.53C941.41,1002.53,941.18,1001.76,941,1001.19Z" transform="translate(-918.45 -822.12)"/><path class="cls-1" d="M942.67,1006.85l.09.32.29,1c-.13-.46-.26-.92-.39-1.36Z" transform="translate(-918.45 -822.12)"/><polygon class="cls-1" points="28.44 197.65 28.45 197.65 28.44 197.65 28.44 197.65"/><polygon class="cls-1" points="35.42 216.75 35.09 215.65 35.37 216.61 35.42 216.75"/><path class="cls-1" d="M954.66,1014.77c.34-.22.68-.45,1-.66C955.36,1014.27,955,1014.5,954.66,1014.77Z" transform="translate(-918.45 -822.12)"/><path class="cls-1" d="M954.36,1012.67c.34-.42.67-.85,1-1.29C954.77,1012.1,954.51,1012.45,954.36,1012.67Z" transform="translate(-918.45 -822.12)"/><path class="cls-1" d="M954.68,1009.88l-1.27,1.45v0Z" transform="translate(-918.45 -822.12)"/><path class="cls-1" d="M929.8,1025.21a.35.35,0,0,0-.22,0C928.69,1025.32,929.06,1025.32,929.8,1025.21Z" transform="translate(-918.45 -822.12)"/><path class="cls-1" d="M942.53,1025.44c-.53.63-1.07,1.23-1.44,1.58C941,1027.37,941,1027.51,942.53,1025.44Z" transform="translate(-918.45 -822.12)"/><path class="cls-1" d="M924,1012.67l.07,0s0-.06,0-.1Z" transform="translate(-918.45 -822.12)"/><path class="cls-1" d="M940.89,1026.76c-.48.77-.26.69.2.26C941.18,1026.71,941.39,1026.29,940.89,1026.76Z" transform="translate(-918.45 -822.12)"/><path class="cls-1" d="M937.16,1008.23l-.36.07a5.2,5.2,0,0,1,.45.57Z" transform="translate(-918.45 -822.12)"/><path class="cls-1" d="M937.25,1008.87l.12.61C937.47,1009.38,937.54,1009.27,937.25,1008.87Z" transform="translate(-918.45 -822.12)"/><path class="cls-1" d="M937.7,1010.73a12,12,0,0,1-.33-1.25C937.19,1009.63,936.87,1009.74,937.7,1010.73Z" transform="translate(-918.45 -822.12)"/><path class="cls-1" d="M945.5,1006.92l0-1.64A12.42,12.42,0,0,0,945.5,1006.92Z" transform="translate(-918.45 -822.12)"/><path class="cls-1" d="M947.53,1006.45a13.74,13.74,0,0,1-.87-1.79c-.37-.7-.85-1.21-1.23-.68l0,1.3c.08-1.22.61-.27,1,.67S947.19,1007.8,947.53,1006.45Z" transform="translate(-918.45 -822.12)"/><path class="cls-1" d="M946.32,1019.73a.41.41,0,0,0,0-.09h0Z" transform="translate(-918.45 -822.12)"/><path class="cls-1" d="M946.16,1019.94Z" transform="translate(-918.45 -822.12)"/><path class="cls-1" d="M946.84,1019.58Z" transform="translate(-918.45 -822.12)"/><path class="cls-1" d="M943.62,1030.53c-.16.84-.31,1.68-.44,2.52q.6-1.79,1.14-3.57C944.1,1029.83,943.87,1030.18,943.62,1030.53Z" transform="translate(-918.45 -822.12)"/><polygon class="cls-1" points="28.72 196.97 28.72 196.97 28.72 196.97 28.72 196.97"/><path class="cls-1" d="M947.11,1018.66Z" transform="translate(-918.45 -822.12)"/><path class="cls-1" d="M947.05,1018.69v0Z" transform="translate(-918.45 -822.12)"/><polygon class="cls-1" points="24.11 177.93 23.64 176.31 24.01 177.67 24.11 177.93"/><path class="cls-1" d="M1050.78,858.63c1-1,3.08-3.29,2.63-2.86l-3.63,3.86Z" transform="translate(-918.45 -822.12)"/><path class="cls-1" d="M1057.32,851.32c-1.77,1.85-4.88,5.12-8.18,8.69l6.21-6.54c.45-.43-1.12,1.28-2.45,2.7a16.57,16.57,0,0,0,1.52-1.54c2.77-3,2.85-3.18.5-.74Z" transform="translate(-918.45 -822.12)"/><path class="cls-1" d="M1060.76,843.22l-.42.48C1060.58,843.44,1060.7,843.29,1060.76,843.22Z" transform="translate(-918.45 -822.12)"/><path class="cls-1" d="M1059.79,853.41h0Z" transform="translate(-918.45 -822.12)"/><path class="cls-1" d="M1059.82,853.48Z" transform="translate(-918.45 -822.12)"/><path class="cls-1" d="M1060.76,843.22l1.1-1.25A9,9,0,0,0,1060.76,843.22Z" transform="translate(-918.45 -822.12)"/><path class="cls-1" d="M1048.3,860.37l1-1-.41.39Z" transform="translate(-918.45 -822.12)"/><path class="cls-1" d="M1064.29,840.65h0l1.48-1.56Z" transform="translate(-918.45 -822.12)"/><path class="cls-1" d="M1065.3,840.48l-4.29,4.57c1.26-1.33,1.85-1.95,2.13-2.23Z" transform="translate(-918.45 -822.12)"/><path class="cls-1" d="M1060.64,847l.43-.44Z" transform="translate(-918.45 -822.12)"/><path class="cls-1" d="M1064.62,839.63l1.09-1.18Z" transform="translate(-918.45 -822.12)"/><path class="cls-1" d="M1035.51,850.21l.8-.05A2.13,2.13,0,0,0,1035.51,850.21Z" transform="translate(-918.45 -822.12)"/><path class="cls-1" d="M1057.77,848.44l.24.06.92.22Z" transform="translate(-918.45 -822.12)"/><path class="cls-1" d="M1059.86,853.58Z" transform="translate(-918.45 -822.12)"/><path class="cls-1" d="M1059.4,848.67Z" transform="translate(-918.45 -822.12)"/><path class="cls-1" d="M1048.69,859.93s-.07.05,0,0C1048.55,860.06,1048.57,860.05,1048.69,859.93Z" transform="translate(-918.45 -822.12)"/><path class="cls-1" d="M1059.4,848.67Z" transform="translate(-918.45 -822.12)"/><path class="cls-1" d="M1059.87,853.6Z" transform="translate(-918.45 -822.12)"/><path class="cls-1" d="M1059.87,853.62Z" transform="translate(-918.45 -822.12)"/><path class="cls-1" d="M1059.86,853.52h0Z" transform="translate(-918.45 -822.12)"/><polygon class="cls-1" points="141.41 31.27 141.41 31.28 141.41 31.28 141.41 31.27"/><path class="cls-1" d="M1041.85,861.57c1-.81,2.08-1.66,3.18-2.49C1042.48,861,1041.23,861.21,1041.85,861.57Z" transform="translate(-918.45 -822.12)"/><path class="cls-1" d="M1050,858.52l-1.34,1.41.18-.17C1049.33,859.27,1049.76,858.82,1050,858.52Z" transform="translate(-918.45 -822.12)"/><path class="cls-1" d="M1058.72,824.32l.39.65C1059,824.54,1058.85,824.32,1058.72,824.32Z" transform="translate(-918.45 -822.12)"/><path class="cls-1" d="M1068.75,867.81l.09.56C1068.94,868.43,1068.94,868.29,1068.75,867.81Z" transform="translate(-918.45 -822.12)"/><path class="cls-1" d="M1060.23,824.3c0,1.59.1,2.51.15,3.11,0-.35,0-.64.07-1.16Z" transform="translate(-918.45 -822.12)"/><path class="cls-1" d="M1045.07,859.05l0,0Z" transform="translate(-918.45 -822.12)"/><path class="cls-1" d="M1033.79,860.87c.22.74,5.34-2.24,8.44-3.63,1.77-.22-3.73,2.25-6.29,3.89,1.65-.24,6.52-2.65,6.46-2.3a21.8,21.8,0,0,1-2.19,1.31c2.14-1,2.33-.8,2.68-.65s.83.21,3.34-1.34c-.41.33-.8.63-1.16.9,2.37-1.78,4.82-3.53,6.57-4.76.16.05,3.11-2.07,0,.28a26,26,0,0,0-2.2,1.48l1.43-.88c-4.35,3.45-1.66,1-5,3.4,1.72-.7,5.51-3.34,4.41-2.2-4.12,3.54-1.8.68-5.32,4,.43-.57.88-1.12,1.33-1.66-6.54,5.54.26-.64-6.77,5.25-.34.84.37.62,1.06.36s1.35-.53,1,.31c2.37-1.88,3.3-3,5.64-4.92,2.27-1.53-.14.89-2.28,3.26s-4.08,4.62-1.25,2.31c2.67-2.45,7.33-7.5,5.2-4.53q-2.09,2.26-4.2,4.48c.2,1,6-6.44,3.89-2.86-1.6,1.82-1.7,1.25-2.08,1.88-2.69,4.07,2.48-2.48,2.7-2.3l-3.28,4.34c1.22-.13,4.13-2.91,5.21-3.43a35.09,35.09,0,0,0-2.54,4.29c1.2-.87,1.57-.47,1.77.63s.14,2.88.24,4.64q1.1-2.1,2.09-4.24a11.45,11.45,0,0,1-.91,2.9c-.06,1.85,1-2.81,1.8-4.49.32-.24-.5,2.68-1.11,4a51,51,0,0,1,2.92-4.52c.77-.87,1.17-.69,1.24,1.87l-.39,1.35c.23,1,.78-1.36,1.18-3.42s.69-3.83.76-1.63l-.18.82c.58,1.07,1.35.53,2,.57s1.31.67,2.48,4.09c-.38-3.37.07-2.67.52-2.33s.85.33-.24-4.26c.9,2.18,1.5,3.67,2.09,4.95a10.92,10.92,0,0,0,2.48,3.59c.56.26-1.48-5.73-1.54-6.77l1.88,4.56c-.46-1.68-1-3.34-1.52-5q1.32,2.64,2.73,5.24c0-.45-.09-.89-.14-1.33a13.61,13.61,0,0,1-1.86-3.14c-.22-1.13.43-.49,1.36.66a36.5,36.5,0,0,1,2.78,3.9,32.64,32.64,0,0,0-.86-4.36A16.63,16.63,0,0,1,1072,869c-2-4.68,3,4.25,1.15-.06-.72-.86-1.62-2.44-2.18-3.27,2,2.26,2.76,1.71,2.42.35l2.06,2.71c.76-.06,1-.84,1.13-1.64s.1-1.67.54-2.11a32.35,32.35,0,0,1-6-5.39l4,3.38c-2.29-2.27-1.66-1.1-4.38-4,.64.18,4.66,3.68,5.76,5-.33-.53-.69-1-1-1.56,1.21,1,1.77,1.6,3.26,2.91-1.17-1.14,0-.47.94-.05s1.71.61-.43-1.23l1.26.91c.84-1.05-.35-2.52-.09-3.45-3.85-2.33-2.81-2.12-5.88-4.09,1.49.3,5,1.29,4.93.41-1.84-1.36-3.43-1.67-5.8-2.9,3.77,1.61,3.69.81,6.28,2.25a2.88,2.88,0,0,0-.65-1.35,12.06,12.06,0,0,0-2.58-2,31.1,31.1,0,0,1-3.69-1c-.6-.31,1.74.19,3.64.73l.39.16c-2.82-1.32.18-1,3-1.24s5.26-.83,1.06-1.78l.41.1c-1.44-.52-2.89-1-4.36-1.34a4.54,4.54,0,0,1,2.13,0,14.38,14.38,0,0,0,3.49.16c-3.4-.79-3.15-1.14-2.63-1.61s1.32-1-1-1.29c6-1,5.64-2,4.74-2.69s-2.4-1.28,1.1-3.06l-2.71.89c-2.76.49,1.45-.86,2-1.34-2.09.73-2.33,1.14-3.86,1.41-1.56-.57-1.65-1.56-1.22-3s1.27-3.39,1.75-5.4h0l-12.07-8.79a11.64,11.64,0,0,0-.43-2.68c-.44-.91-4,14.17-2.92,7.44l1.41-5.1c-1.29,3-1.72,2.81-2.21,2.54s-1-.63-1.77,2a18.84,18.84,0,0,1,.5-2.74c.26-3.84-.8-.29-1.07,2.84-.11-.37.24-2.82.3-4.42,0-2.28-.94,4.84-.75,1a9,9,0,0,1,.22-1.53c-.28,1.84-.65-.52-.77,3.91-.26-2.13-.72,1.94-.91-.69-.14,2.48-.25,1.88-.38,1.54s-.24-.42-.25,3.08c0-7.24-.71-5.83-.77-2.42,0-2.19-.27-2.26-.31-5.29-.28.12-.45,1.47-.19,5.18-.47-4.31-.64-2.55-.7-1.1s-.1,2.59-.8-2.92c-.3,3.5-.53,6.13-.73,8.4-1.26-7.11.46-.81-.74-8.29-.25,3.06.69,9.18-.12,7.57a33.24,33.24,0,0,1-.8-4.29c0,1.52-.26,1.42-.54,1.44s-.52.16-.21,2.12c-.18-.65-.33-1.37-.43-1.91,0,.25-.52-1,.4,2.2l-.16-.89c.73,2.27,1.31,4.69,1.86,6.83s1,4,1.39,5.21c-2.62-9-1-2.17-4.37-13.56a42,42,0,0,0,1.21,4.2,30.71,30.71,0,0,1-1.38-4.2c.21,1.81,1.44,5.08,1.17,5.09-.52-1.5-.67-2.1-1.25-3.87.85,3,1.79,5.94,1.14,4.75a18.44,18.44,0,0,1-.71-2.07,18.53,18.53,0,0,0,.94,3.85c.46,1.57.83,2.71.09,1.4-2.64-6.38-1-2-3.47-7.48l.48,1.74,1.29,2.59c-.24,0,1.49,4,.52,2.29l-.94-2.27.17,1.17,1.17,2c1.23,2.83,3.35,6.78,2.48,5.35-.26-.56-.11,0-1.81-3.11h0c.82,1.72,1.74,3.5,1,2.24l-3.79-6.91c2.34,4.41.28,1.42,2.9,6.06-.62-1.09-2.2-3.79-2.54-4.34l2,3.53c-.71-1.09-1.05-1.61-2.33-3.76-.59-.51,4,6.44,2.08,3.78-.16-.29-.49-.8-.77-1.35-1.15-1.28,1,2.42-.3.88-3.47-4.9-.63-1.35-3.55-5.49a19.25,19.25,0,0,0,1.64,3.53c.71,1.33,1.29,2.35.73,1.9l.45.48c2.6,3.36,1.93,2.56.87,1.34s-2.52-2.82-1.31-1.23c-.37-.5-3-3.67-2.36-2.93-.69-.54-.18.4.7,1.7l-.2,14.6,2.16-2.09-1.5,1.58a13.14,13.14,0,0,0-1.29,1.7c1.5-1.58,1.29-1.3,3.43-3.63-8.32,9.21,4.82-4.61-2.11,3.07a1.41,1.41,0,0,0-.22.21l-.46.47-.66.7,1.49-1.37,3.45-3.78,1.92-2,.58-.59.23-.2c-1.72,1.75-4.06,4.35-5.44,5.87l2.41-2.58c-4.43,4.86,5.09-5.43,2.14-2.12l-1.33,1.42c.71-.7,2.49-2.55,2.14-2.12-2.91,3.14-1.39,1.43-3.8,4,.21-.14,5.62-5.84,2.75-2.69l-1.7,1.7a43.63,43.63,0,0,0-3,3.39l.07-.09-1.47,1.74.91-1c7.66-8.1,1.5-1.38,6.56-6.65-4.79,5-2.75,2.91-6.06,6.44-.9,1-1.9,2.14-2.84,3.13,2.71-2.83-2,2.3,1.91-1.83-1.06,1.14-.07.14-2.75,3,.88-.85,1.84-2,3.18-3.42,3.71-3.83-4.24,4.88.85-.37,2.14-2.13,5.74-6,7.61-7.8-1.67,1.85-3.9,4.14-3.9,4.14-1.52,1.72-1.2,1.44.06.17l-2.9,3.13c.31-.27,3.9-4.13,2.37-2.41l-4.3,4.55,4-4.1c-1.84,2-2.84,3-4.07,4.28.89-.85,1.81-1.69,4.75-4.82l1-1.15c.16-.14-2.51,2.71-3.06,3.27-2.34,2.43,1-1.15,2-2.29l.71-.71c6.22-6.71-1.12,1-.81.53l4.56-4.85-3.82,4c1.17-1.28,3.69-4,4.4-4.71,2.21-2.44-1.65,1.7.82-1l.79-.84-1.4,1.41c1-1,3.2-3.44,2.57-2.71,2.55-2.88-3.52,3.54-.11-.17l.29-.3c-1.64,1.55-3.35,3.56-7.33,7.69l8.17-8.86-3.34,3.56c.11-.14.34-.43,1.67-1.85-2.32,2.41-1.44,1.56-3.62,3.85,3-3.3-1.56,1.39,3.74-4.31-2.55,2.7-1.9,2.14-3.72,4,5.7-6.13-1,1,1.54-1.85,3-3.15,1.44-1.44,4-4.3-5,5.31,1-1.25,0-.26-4,4.24-1.74,1.69-3.13,3,1.34-1.43,2.06-2.45,3.43-4l.67-.71a42.27,42.27,0,0,1-4.2,4.26c2.4-2.56,3.36-3.57,4.46-4.7l-.07,0c-1.29,1.37-2,2.08-2.47,2.55l3-3.2c-.22.12-3.64,3.67-1.71,1.46-2.8,3-7.73,8.39-9.67,10.32,1.5-1.62,4.09-4.39,4.73-5-.21.21-1.28,1.33-.65.62l2.57-2.69c1.09-1.23-2.14,2.26-1.93,2l3.23-3.5c.22-.21-.86,1,0,.08.36-.44,1.6-1.84,3.22-3.6-1.22,1.31-2.9,3.11-3.2,3.39-.22.11,2.57-2.8,3.65-4-1.51,1.59,0-.1-3.22,3.35a2.83,2.83,0,0,1,.24-.29l.61-.66,1.51-1.64c-1.45,1.5-.54.31-3.94,4l-.21.25-.15.15h0c-1.92,1.94-1.06.9-.29,0l-.13,8.85,0,0h0l0,0h0l-.18-.23-1.15-1.48c.11.13.48.61,1,1.32l.32.41h0l0,0h0l0,0,0,0h0l0,0h0l.07.11h0l0,0,0,0h0s0,0,0,0l-.15-.28c-.18-.37-.37-.73-.54-1.07l-.82-1.67c.09.15.35.67.71,1.39l.83,1.69h0v0h0l0,.05h0v0h0l0,0h0v0h0v0h0v0h0v0h0v0c0-.66,0-.91-.06-2.4,0,1,0,1.8.06,2.39h0v-.15h0v0l.13-1.37c.06-.62.08-.75,0,.06s-.12,1.14-.13,1.28h0v-.06h0l0-.08h0v0c.11-.52.2-.92.28-1.28-.18.81-.22,1-.27,1.25h0c.07-.29.47-2.11.6-2.71l-.59,2.67h0v0s0,0,0,0h0l0-.07h0c.23-.8.31-1.07.34-1.15l-.28.94-.06.19h0l0-.14,0,.13h0l-.12-4.33h0l-.09,0a1.44,1.44,0,0,1-.24,0H1059l-.14,0h0l0,0h0l.15.11a1.14,1.14,0,0,1,.2.19l0,0,0,0h0l.05.07h0a.42.42,0,0,1,.07.12l0,.06v0h0s0,0,0,0h0v-.09h0v-.08a.84.84,0,0,1,0-.1h0a.2.2,0,0,0,0-.07h0l0-.07v0l0-.07,0,0h0l.06-.12h0l0,.07s0,0,0,0l.06-.1h0v0l0,0h0l0,0,0,0v0l0,0,0,0h0l-.13.09h0a1.67,1.67,0,0,1-.41.16l-.08,0h-.3l-.92-.22-10.67-2.64a40.29,40.29,0,0,0-9.19-1.47c1.43.57,2.88,1.08,4.34,1.54-1.19-.14-2.39-.26-3.6-.37l-.11-.66c-3.41-.25-.5.57,1.51,1.08a21.88,21.88,0,0,0-4-.23q3.48.87,7,1.49c-2.91-.17-5.72-.9-7.38-.51a32.42,32.42,0,0,0,4.76.44,20.43,20.43,0,0,1,3.9.48c-3.39,0-6.14-.17-3.27.32a17,17,0,0,1-4-.37c2.28.48.94,1.06,4.9,1.21-2.09.16-1.81.46-1.89.7s-.51.43-4,.65a46.11,46.11,0,0,1,5.89.41c-4.23.17-4.32.46-4.48.86s-.35.87-4.83,1.51c3.79-.32,4.68-.09,5.18.24s.62.8,2.74.57c-.59.13-1.79.37-1.43.21-.51.55-2.67,1.3-4,2,6-1.73,7.55-1.65,11.27-2.77a52.76,52.76,0,0,1-6.27,2.3c-1.74.52-3.48.93-6.19,2,4.79-1.66,5.08-.87,9-2.56-3.37,1.67-1.6.91-6.33,3.07,3.63-1.46,4-1.52,4-1.4s-.33.43,1.92-.44c-3.32,2-6.61,3.21-4.2,2.72a15.67,15.67,0,0,1-4.78,2Zm18.21.72,0,.08-.3.11A1.89,1.89,0,0,0,1052,861.59Zm.71.32c0-.2-.08-.28-.21-.31a24.32,24.32,0,0,1,1.55-2.66A24.22,24.22,0,0,0,1052.71,861.91Zm7-13.36h0Z" transform="translate(-918.45 -822.12)"/><polygon class="cls-1" points="141.32 26.41 141.32 26.41 141.31 26.42 141.31 26.42 141.32 26.41"/><path class="cls-1" d="M1060.27,843.77l.07-.07-.43.47Z" transform="translate(-918.45 -822.12)"/><polygon class="cls-1" points="149.75 48.37 149.32 47.32 149.57 48.29 149.75 48.37"/><path class="cls-1" d="M1050.39,855.66l-.78.85Z" transform="translate(-918.45 -822.12)"/><path class="cls-1" d="M1050,856.66l-1,1.21C1049.5,857.21,1049.78,856.88,1050,856.66Z" transform="translate(-918.45 -822.12)"/><path class="cls-1" d="M1048.67,858.49l1.32-1.41,0,0Z" transform="translate(-918.45 -822.12)"/><path class="cls-1" d="M1053.41,830.52a.63.63,0,0,0,0-.21C1053.26,829.45,1053.28,829.79,1053.41,830.52Z" transform="translate(-918.45 -822.12)"/><path class="cls-1" d="M1053.62,841.68c-.35-.74-.69-1.47-.89-1.93C1052.52,839.47,1052.44,839.41,1053.62,841.68Z" transform="translate(-918.45 -822.12)"/><path class="cls-1" d="M1058.67,824.24v.08s0,0,0,0Z" transform="translate(-918.45 -822.12)"/><path class="cls-1" d="M1052.9,839.75c-.45-.78-.42-.58-.17,0C1052.91,840,1053.17,840.38,1052.9,839.75Z" transform="translate(-918.45 -822.12)"/><path class="cls-1" d="M1048.21,860.85l-.11.15.49-.53Z" transform="translate(-918.45 -822.12)"/><path class="cls-1" d="M1048.59,860.47l.37-.38S1048.93,860.11,1048.59,860.47Z" transform="translate(-918.45 -822.12)"/><path class="cls-1" d="M1049.76,859.29l-.8.8s0,0,.07,0Z" transform="translate(-918.45 -822.12)"/><path class="cls-1" d="M1049.35,859.07l-1.12,1.19C1048.46,860,1048.82,859.62,1049.35,859.07Z" transform="translate(-918.45 -822.12)"/><path class="cls-1" d="M1048.94,859.33c-.23.29-2.33,2.59-1.6,1.87l.89-.94C1046.56,862,1050.83,857.34,1048.94,859.33Z" transform="translate(-918.45 -822.12)"/><path class="cls-1" d="M1062.33,844.26l-.81,1c1.17-1.28,2.75-3,3.06-3.28C1068,838.12,1062,844.86,1062.33,844.26Z" transform="translate(-918.45 -822.12)"/><path class="cls-1" d="M1063.83,842.21c.59-.56,1.72-1.85,2.39-2.56C1065.12,840.78,1064.84,841.07,1063.83,842.21Z" transform="translate(-918.45 -822.12)"/><path class="cls-1" d="M1059.59,853.1Z" transform="translate(-918.45 -822.12)"/><polygon class="cls-1" points="131.85 16.74 130.36 14.68 132.39 17.83 131.85 16.74"/><polygon class="cls-1" points="141.27 31.16 141.26 31.16 141.27 31.17 141.27 31.16"/><path class="cls-1" d="M1059.86,853.42Z" transform="translate(-918.45 -822.12)"/><path class="cls-1" d="M1059.93,852.93v0Z" transform="translate(-918.45 -822.12)"/><polygon class="cls-1" points="140.96 27 140.95 26.98 140.97 27.01 140.96 27"/><path class="cls-1" d="M1072.59,925.42c-1,.91-3.37,3-2.88,2.61l4-3.5Z" transform="translate(-918.45 -822.12)"/><path class="cls-1" d="M1065.44,932.14c2-1.67,5.36-4.62,9-7.88l-6.82,5.92a34.17,34.17,0,0,1,2.68-2.47c-1,.89.83-.82-1.67,1.37-3,2.76-3.11,2.92-.53.72Z" transform="translate(-918.45 -822.12)"/><path class="cls-1" d="M1064.42,934.17l0,0Z" transform="translate(-918.45 -822.12)"/><path class="cls-1" d="M1063.92,933.45v0Z" transform="translate(-918.45 -822.12)"/><path class="cls-1" d="M1063.81,933.84v0Z" transform="translate(-918.45 -822.12)"/><path class="cls-1" d="M1064.42,934.17l-.05,0Z" transform="translate(-918.45 -822.12)"/><path class="cls-1" d="M1075.35,924.07l-1.06.9.44-.35Z" transform="translate(-918.45 -822.12)"/><polygon class="cls-1" points="146.31 112.4 146.31 112.4 146.31 112.4 146.31 112.4"/><path class="cls-1" d="M1056.81,942.55c-.13.14,3.23-2.84,4.71-4.14-1.39,1.22-2.06,1.8-2.33,2Z" transform="translate(-918.45 -822.12)"/><path class="cls-1" d="M1061.85,936.31l-.48.39C1061.52,936.59,1061.67,936.46,1061.85,936.31Z" transform="translate(-918.45 -822.12)"/><path class="cls-1" d="M1064.67,934.45Z" transform="translate(-918.45 -822.12)"/><path class="cls-1" d="M1039.19,936.64l.8-.11A2.31,2.31,0,0,0,1039.19,936.64Z" transform="translate(-918.45 -822.12)"/><path class="cls-1" d="M1061.27,933.07l.24.06,1.38.27Z" transform="translate(-918.45 -822.12)"/><path class="cls-1" d="M1063.45,934.46h0Z" transform="translate(-918.45 -822.12)"/><path class="cls-1" d="M1063.93,933.19Z" transform="translate(-918.45 -822.12)"/><path class="cls-1" d="M1074.93,924.47s.08,0,0,0C1075.08,924.36,1075.07,924.36,1074.93,924.47Z" transform="translate(-918.45 -822.12)"/><path class="cls-1" d="M1063.93,933.19Z" transform="translate(-918.45 -822.12)"/><path class="cls-1" d="M1068.18,939.33h0Z" transform="translate(-918.45 -822.12)"/><path class="cls-1" d="M1063.29,934.61h0Z" transform="translate(-918.45 -822.12)"/><path class="cls-1" d="M1068.29,939.43h0Z" transform="translate(-918.45 -822.12)"/><polygon class="cls-1" points="149.92 117.39 149.92 117.39 149.92 117.39 149.92 117.39"/><path class="cls-1" d="M1047.13,948.57c.87-.93,1.86-1.9,2.86-2.86C1047.68,947.92,1046.41,948.22,1047.13,948.57Z" transform="translate(-918.45 -822.12)"/><path class="cls-1" d="M1073.46,925.75l1.47-1.28-.2.15Z" transform="translate(-918.45 -822.12)"/><path class="cls-1" d="M1046.38,917.91l.76.17C1046.75,917.85,1046.48,917.8,1046.38,917.91Z" transform="translate(-918.45 -822.12)"/><path class="cls-1" d="M1078.06,949.48l.24.51C1078.42,950,1078.38,949.89,1078.06,949.48Z" transform="translate(-918.45 -822.12)"/><path class="cls-1" d="M1047.59,916.74c1.13,1.12,1.8,1.75,2.26,2.15l-.75-.9Z" transform="translate(-918.45 -822.12)"/><path class="cls-1" d="M1050,945.68l0,0Z" transform="translate(-918.45 -822.12)"/><path class="cls-1" d="M1038.73,948.33c.34.79,5.11-2.74,8.06-4.42,1.77-.34-3.47,2.65-5.82,4.57,1.64-.37,6.25-3.26,6.24-2.88a20.05,20.05,0,0,1-2,1.54c2-1.21,2.27-1,2.65-.85s.9.17,3.24-1.64c-.36.37-.72.72-1,1,2.15-2,4.39-4.06,6-5.49.18,0,2.88-2.39.1.31a19.63,19.63,0,0,0-2,1.71l1.33-1c-3.91,4-1.55,1.15-4.57,3.93a35.2,35.2,0,0,0,3.08-2.09c1-.7,1.58-1.16,1.14-.51-3.66,4-1.79.83-4.83,4.61q.51-.95,1.08-1.86c-5.82,6.31.15-.71-6.11,6-.21.93.51.64,1.18.33s1.33-.65,1.17.26c2.13-2.15,2.89-3.4,5-5.58,2.1-1.77,0,1-1.75,3.6s-3.39,5.15-.84,2.53c2.35-2.77,6.27-8.41,4.63-5.13q-1.75,2.52-3.56,5c.44,1,5.12-7.2,3.61-3.29-1.33,2-1.58,1.43-1.85,2.12-2,4.46,2.14-2.77,2.43-2.61l-2.57,4.79a7.78,7.78,0,0,0,2.59-1.85,20.14,20.14,0,0,1,2.41-2.17,29.28,29.28,0,0,0-1.77,4.66c1.11-1,1.73-.66,2.23.42s1,2.87,1.61,4.6c.47-1.51.89-3,1.27-4.56a10,10,0,0,1-.27,3c.43,1.85.38-3,.85-4.75.31-.3.16,2.73-.19,4.11a40.67,40.67,0,0,1,2.21-5c.65-1,1.16-.94,2,1.5l-.08,1.42c.54.9.54-1.53.44-3.63s-.24-3.89.43-1.78l0,.84c.94.89,1.65.1,2.39-.06s1.57.24,3.72,3.16c-1.29-3.13-.64-2.6-.07-2.42s.94,0-1.41-4c1.5,1.83,2.5,3.08,3.44,4.14a10.75,10.75,0,0,0,3.45,2.7c.62.08-3-5.08-3.4-6.06l3.1,3.83q-1.36-2.22-2.85-4.35,2,2.16,4.1,4.26c-.16-.42-.33-.84-.51-1.25a13,13,0,0,1-2.67-2.48c-.52-1,.27-.59,1.49.24a39.33,39.33,0,0,1,3.77,3,34.18,34.18,0,0,0-2-4,15.71,15.71,0,0,1,2.64,3c-3.24-3.94,4.09,3.23,1.08-.37-.93-.63-2.24-1.9-3-2.54,2.52,1.63,3.14.87,2.45-.35l2.72,2c1.46-.58,0-3,.61-4.11a31,31,0,0,1-7.2-3.58l4.74,2.19c-2.83-1.57-1.9-.6-5.29-2.65.67,0,5.47,2.28,6.89,3.27-.47-.43-.94-.85-1.42-1.25,1.43.61,2.13,1.06,3.92,1.92-1.43-.78-.13-.46.91-.33s1.83.08-.72-1.11l1.46.53c.54-1.33-1-2.47-1-3.55-4.34-1.17-3.28-1.3-6.77-2.36.77-.12,2-.18,3.12-.36s1.91-.5,1.78-1c-2.16-.86-3.77-.62-6.4-1.13,4.08.42,3.77-.47,6.67.21-.58-1.07-.73-1.58-4.09-2.68a24.4,24.4,0,0,1-3.79.32c-.68-.13,1.7-.47,3.67-.57l.42,0c-3.1-.47-.19-1.34,2.31-2.73s4.49-3.18.19-2.65l.42-.05a42.46,42.46,0,0,0-4.65.11c.23-.39,1-.59,2-.84a10.65,10.65,0,0,0,3.28-1.21c-3.5.41-3.47-.11-3.25-.9s.61-1.73-1.68-1.12c3.09-2.22,3.88-3.47,3.72-4.18h0l-24-8.82c-.38-.21-.47.81-.67,1.26s-.55.32-1.62-2.11l.93,2.69c.71,2.7-.72-1.48-1.07-2,.74,2.09,1,2.36,1.41,3.86-.11,1.85-1,1.09-2.44-.25a25.91,25.91,0,0,0-4.64-4c-1-.35,6.74,13.1,2.91,7.45l-2.44-4.69c.8,2.36.73,3,.39,3.26s-1,.1-1,.73a4.56,4.56,0,0,0,.65,2.13,19.23,19.23,0,0,1-1.5-2.36c-2.44-3-.82.38,1.1,2.85-.33-.19-1.74-2.23-2.79-3.43-1.6-1.63,2.57,4.21.1,1.29a9.07,9.07,0,0,1-.88-1.27c1,1.54-.87.1,2.08,3.41-1.67-1.35.74,1.95-1.21.19,1.58,1.91,1.07,1.56.74,1.41s-.49-.12,1.9,2.44c-4.94-5.3-4.56-3.71-2.29-1.17-1.49-1.6-1.76-1.44-3.86-3.63-.15.3.63,1.43,3.38,3.94-3.33-2.79-2.26-1.36-1.33-.25s1.67,2-2.64-1.51c2.24,3,3.88,5.12,4.92,6.57l-2.55,8.89.31.3a9.09,9.09,0,0,1-3.17-.11l3.08-10.76c-1.34-1.24.92-.09-3.73-3.6a30.76,30.76,0,0,0,2.73,2.88L1044,935.85c2.58,1.1,4.82,1.44,4,2.88-.81.78-3.1.55-4.35.59a3.67,3.67,0,0,1,1.65,1.38,10.16,10.16,0,0,1,.74,1.66,2.68,2.68,0,0,0,3.33,1.87,5.1,5.1,0,0,1-1.87.73c.42.22-.28,1.45,2.34-.54l-1,.21a34,34,0,0,1,6-3.78,29.38,29.38,0,0,0,4.51-3c-3.68,2.93-4,3.47-4.46,4.31a8.44,8.44,0,0,1-1.3,1.73,36.52,36.52,0,0,1-4.41,4,10.42,10.42,0,0,0,3.48-2.68c-.23.68-1,1.73-3,3.22a6.18,6.18,0,0,0,3-1.7c.85-.71,1.5-1.27,1.84-1a40.75,40.75,0,0,1-2.8,3c2.46-2,4.54-4.31,4.38-2.8-.55.78-1.14,1.88-1.34,1.72.76.22,2.19-1.37,3.31-2.62s1.85-2.23,1.69-.7c-2.72,6.36-.51,2.24-2.4,7.9q.64-.72,1.23-1.47.3-1.43.63-2.85c.23.13.76-.82,1.16-1.57s.7-1.29.66-.3c-.27.78-.58,1.55-.9,2.32a9,9,0,0,0,1.08-.93c0-.77,0-1.54,0-2.3,1-3,1.55-7.39,1.49-5.72-.15.6.12.1-.22,3.61h0c.41-1.86.69-3.84.71-2.35-.11,1.91-.62,6.58-.69,7.85.33-2.48.54-2.81.76-3.19s.45-.81.53-3.46c0,1.24-.1,4.38-.07,5,.06-1.35.11-2.7.14-4.06a36.73,36.73,0,0,1,.19,4.43c.29.37.18-1.53.11-3.1s-.13-2.84.15-1.22c0,.33,0,.94,0,1.55.3.85.55.17.71-.45s.28-1.22.67-.27c1.18,5.9-.24,1.52.72,6.51.44-.61.64-2.5.7-4s0-2.75.62-2.22l-.36-.58c-1.33-4-.94-3-.23-1.6s1.79,3.35,1.17,1.44c.18.6,1.76,4.36,1.41,3.48,1.2,1,.57-2.59-.32-5.23l1.14,1.86c.7.7,1.11.76,1.44.71a1.86,1.86,0,0,1,1.2-.1,19,19,0,0,0-3.22-3.83c4.76,4.08,4.47,1.89,3.25.21-.58-.86-1.3-1.64-1.29-2s.79-.21,3.34.38c0,.18,1.56,1.22,1.64,1.06a12.73,12.73,0,0,0-1.37-2.13c-3.57-1-2.2-.46-5-1.19l-2.58-1a5.74,5.74,0,0,1-1-.43c1.17.37,2.58.82,4,1.13a32.38,32.38,0,0,0,3.83.58c-1.11-.21-2.32-.56-3.44-.79,3.26.47,1.45,0-.64-.38s-4.46-.81-2.25-.63l1.92.28c-1-.34-3.51-.62-3-.66,4.28.12,2,.23,5.49.52a9.51,9.51,0,0,0-2.88-.53c-1.33-.14-2.53-.16-2.1-.23l-.41-1,.85-.8.62-.5.91,2.27c.5.07.75.17,1.59.27a16.9,16.9,0,0,0,3.91-.46l-2.29-5.74c.24-.25.16-.2.43-.47l-.08.08,1.61-1.61-1,.93c-8.4,7.33-1.65,1.2-7.2,6,5.26-4.5,3-2.64,6.63-5.85,1-.92,2.08-2,3.11-2.86-3,2.55,2.24-2.12-2.1,1.61,1.17-1,.07-.15,3-2.74-1,.75-2,1.81-3.48,3.11-4.07,3.44,4.63-4.52-.95.21-2.36,1.88-6.31,5.35-8.36,7,1.83-1.7,4.27-3.75,4.27-3.75,1.67-1.58,1.31-1.35-.08-.21,1-.9,1.88-1.67,3.18-2.85-.35.22-4.27,3.74-2.61,2.15l4.73-4.11-4.44,3.66c2-1.82,3.11-2.71,4.45-3.87-1,.76-2,1.48-5.21,4.32l-1.12,1.06c-.17.12,2.76-2.47,3.36-3,2.57-2.19-1,1.07-2.22,2.11l-.78.62c-6.81,6.12,1.23-.82.91-.39l-5,4.39,4.2-3.59c-1.28,1.17-4,3.65-4.83,4.27-2.41,2.25,1.82-1.52-.88,1-.42.38-.67.59-.87.76l1.53-1.26c-1.05.92-3.5,3.13-2.81,2.46-2.79,2.64,3.87-3.16.13.22l-.31.27c1.8-1.36,3.66-3.23,8-6.94l-9,8.07,3.66-3.23c-.12.13-.37.4-1.83,1.7,2.54-2.17,1.58-1.42,4-3.49-3.27,3,1.72-1.2-4.09,4,2.8-2.44,2.09-2,4.08-3.61-6.24,5.59,1.15-.86-1.67,1.75-3.25,2.85-1.59,1.27-4.41,3.89,5.49-4.81-1.1,1.18,0,.31,4.34-3.86,1.91-1.5,3.43-2.7l-.73.67,2.57-3.9a.44.44,0,0,1,.2,0h0l.1,0h0s.07,0,0,0h0l2.27,1.31a16.12,16.12,0,0,1,2.31,1.57l-3.34-2.1-1.27-.79h0l0,0h0l0,0,0,0h0l-.06,0-.06-.06,0,0s-.12-.16-.09-.12h0a1.83,1.83,0,0,1-.28-.46h0a1.2,1.2,0,0,1-.1-.28l0,0a1.27,1.27,0,0,1,0-.14v.05c0-.07,0-.08,0-.16s0,0,0,0v0h0v0h0v.07a.58.58,0,0,1,0,.18s0,0,0,0,0,.09,0,0v0s0-.06,0,0h0s0,.15,0,.12,0,0,0,0a1.34,1.34,0,0,1-.09.31s0,0,0,0l-.08.19,0,.1c0,.07,0,0,0,0l-.13.24,0,0,0,.06v0l0,0,0,0-.1.1.07-.07-.06.06h0c-.08.08,0,0-.07.08l0,0h0l-.06,0,0,0h0l.15,0h0l-.14,0,.09,0-.12,0h0l.18,0h.08l4.45,4.71.07,0h0l0,0h0l0,0h0l0,0h0l-.14-.13-.28-.26-.07-.07.46.43,0,0h0l0,0h0l-.09-.09-.2-.2-2.48-2.52c2.12,2.16,1,1,2.83,2.87l0,0h0l-.24-.31c-1.38-1.76-2.69-3.5-1.67-2.21l1.58,2.08.34.45h0l-.29-.46c-.68-1.09-1.08-1.79-1.44-2.43,1,1.73,1.32,2.2,1.6,2.67l.12.21h0l-.39-.65c-.89-1.49-1.81-3-2.08-3.55.56.94,1.11,1.86,1.77,3l.7,1.2h0v0h0l0,0h0s0,0,0,0l-.11-.21-.43-.84c-2.76-5.58,1.57,3.13-.46-1l.68,1.42.33.68h0v0l-.75-1.7c-.22-.52-.41-1-.55-1.32l1.31,3,0,0h0c-.24-.54-.41-.95-.54-1.25a13.25,13.25,0,0,1-.63-1.63c.48,1.18.85,2.1,1.14,2.83h0v0l0-.05,0-.16-4.28-6h0l0,0,0,0-.1,0h0l-.17,0h0l-.34,0h-.12l-.22,0-.07,0h0l-.07,0,.14.08h0l0,0h0l.09.07h0a2.27,2.27,0,0,1,.27.27l0,.07h0a.74.74,0,0,1,.1.16h0l0,0h0l0,.09h0V934h0V934h0s0,0,0-.06v0l0-.08v-.06h0a.71.71,0,0,1,.05-.17h0c0,.05,0,.11,0,.1s0,0,0,0l0-.16h0v-.07l0-.08h0a0,0,0,0,1,0,0h0l0,.06,0-.06,0,0,0-.09.09-.13h0l0,0h0l-.07.05h0a1.76,1.76,0,0,1-.46.23l-.1,0h0l-.06,0a.66.66,0,0,1-.21,0h-.14l-.09,0c-.44-.07-.87-.16-1.3-.25L1050.74,931a35.79,35.79,0,0,0-9.26-1c1.45.53,2.92,1,4.4,1.4-1.2-.06-2.41-.11-3.62-.15l-.14-.73c-3.42,0-.47.67,1.56,1.1a18.91,18.91,0,0,0-4,0q3.51.74,7,1.17c-2.91,0-5.76-.6-7.39-.06a30,30,0,0,0,4.78.16,17.26,17.26,0,0,1,3.92.27c-3.38.24-6.15.23-3.25.59a15.57,15.57,0,0,1-4-.14c2.3.38,1,1.12,5,1-2.07.33-1.77.64-1.83.89s-.47.52-4,1a40.36,40.36,0,0,1,5.91.09c-4.2.46-4.27.79-4.39,1.25s-.27,1-4.68,2c3.76-.62,4.68-.43,5.22-.08s.71.86,2.82.47c-.58.17-1.76.52-1.42.32-.44.62-2.52,1.57-3.73,2.42,5.84-2.28,7.41-2.27,11-3.69a49.6,49.6,0,0,1-6,2.88,58.05,58.05,0,0,0-6,2.51c4.62-2.1,5-1.23,8.72-3.31-3.18,2-1.49,1.08-6,3.7,3.48-1.81,3.81-1.9,3.83-1.77s-.27.48,1.89-.59c-3.08,2.39-6.26,3.86-3.87,3.2a13.49,13.49,0,0,1-3,1.82A12.65,12.65,0,0,1,1038.73,948.33Zm19.45-.45,0,.08-.31.15A2,2,0,0,0,1058.18,947.88Zm.93.25a.37.37,0,0,0-.34-.3,17,17,0,0,1,1.07-2.88A17.65,17.65,0,0,0,1059.11,948.13Zm4.63-14.77v0h0Z" transform="translate(-918.45 -822.12)"/><polygon class="cls-1" points="145.31 111.21 145.31 111.21 145.3 111.22 145.3 111.22 145.31 111.21"/><polygon class="cls-1" points="145.99 112.08 145.99 112.07 146 112.08 145.99 112.08"/><polygon class="cls-1" points="159.83 130.1 159.11 129.21 159.63 130.07 159.83 130.1"/><path class="cls-1" d="M1074.85,936.8a7,7,0,0,0,1.15.15C1075.71,936.89,1075.3,936.85,1074.85,936.8Z" transform="translate(-918.45 -822.12)"/><path class="cls-1" d="M1073.61,927.91l1.15-1.12C1074.1,927.42,1073.79,927.73,1073.61,927.91Z" transform="translate(-918.45 -822.12)"/><path class="cls-1" d="M1075,926.14l-1.45,1.28h0Z" transform="translate(-918.45 -822.12)"/><path class="cls-1" d="M1047.56,945a.39.39,0,0,0-.26,0C1046.33,945,1046.78,945.11,1047.56,945Z" transform="translate(-918.45 -822.12)"/><path class="cls-1" d="M1062.62,943c-.17.8-.36,1.59-.52,2.08C1062.18,945.45,1062.27,945.56,1062.62,943Z" transform="translate(-918.45 -822.12)"/><path class="cls-1" d="M1046.29,917.89l0,.05s0,0,0,0Z" transform="translate(-918.45 -822.12)"/><path class="cls-1" d="M1061.79,945c0,.91.12.74.31.14C1062,944.78,1062,944.31,1061.79,945Z" transform="translate(-918.45 -822.12)"/><path class="cls-1" d="M1075.44,923.53l.12-.13-.54.47Z" transform="translate(-918.45 -822.12)"/><path class="cls-1" d="M1075,923.87l-.41.34A2.73,2.73,0,0,0,1075,923.87Z" transform="translate(-918.45 -822.12)"/><path class="cls-1" d="M1073.73,924.93l.88-.72s0,0-.08,0Z" transform="translate(-918.45 -822.12)"/><path class="cls-1" d="M1074.22,925.3l1.22-1.08Z" transform="translate(-918.45 -822.12)"/><path class="cls-1" d="M1074.68,925.1c.25-.28,2.54-2.38,1.74-1.74l-1,.86C1077.27,922.62,1072.6,926.9,1074.68,925.1Z" transform="translate(-918.45 -822.12)"/><path class="cls-1" d="M1060,939l.88-1c-1.28,1.17-3,2.75-3.36,3C1053.8,944.55,1060.45,938.38,1060,939Z" transform="translate(-918.45 -822.12)"/><path class="cls-1" d="M1058.42,941c-.65.48-1.88,1.68-2.62,2.32C1057,942.26,1057.32,942,1058.42,941Z" transform="translate(-918.45 -822.12)"/><path class="cls-1" d="M1064,933.4h0S1064,933.4,1064,933.4Z" transform="translate(-918.45 -822.12)"/><path class="cls-1" d="M1065.53,947.14c.17.84.35,1.67.55,2.5l-.38-3.74C1065.66,946.32,1065.6,946.73,1065.53,947.14Z" transform="translate(-918.45 -822.12)"/><polygon class="cls-1" points="145.52 110.97 145.52 110.96 145.52 110.98 145.52 110.97"/><path class="cls-1" d="M1068.36,939.5Z" transform="translate(-918.45 -822.12)"/><path class="cls-1" d="M1068.36,939.49v0Z" transform="translate(-918.45 -822.12)"/><polygon class="cls-1" points="144.71 111.36 144.69 111.35 144.72 111.37 144.71 111.36"/><path class="cls-1" d="M1058.12,1019.86c1.31-.41,4.29-1.36,3.65-1.32q-2.54.74-5.1,1.42C1057.16,1019.94,1057.64,1019.91,1058.12,1019.86Z" transform="translate(-918.45 -822.12)"/><path class="cls-1" d="M1067.35,1016.42c-2.52.52-7,1.08-11.76,2.12l4.12-.54c.86-.12,1.84-.25,4.81-.86.62-.06-1.61.59-3.5,1.07,1.33-.31-1,.56,2.16-.28,3.89-1.32,4.07-1.3.72-.77C1065,1016.88,1066.39,1016.63,1067.35,1016.42Z" transform="translate(-918.45 -822.12)"/><path class="cls-1" d="M1072.55,1015.78h0Z" transform="translate(-918.45 -822.12)"/><path class="cls-1" d="M1072.16,1014.63Z" transform="translate(-918.45 -822.12)"/><path class="cls-1" d="M1069.69,1012.09h0Z" transform="translate(-918.45 -822.12)"/><path class="cls-1" d="M1072.55,1015.78l0,0Z" transform="translate(-918.45 -822.12)"/><path class="cls-1" d="M1054.47,1015.8a7.26,7.26,0,0,0,1.4.18,3.52,3.52,0,0,1-.57-.18Z" transform="translate(-918.45 -822.12)"/><polygon class="cls-1" points="154.22 193.81 154.22 193.81 154.22 193.81 154.22 193.81"/><path class="cls-1" d="M1072.4,1015.76h0Z" transform="translate(-918.45 -822.12)"/><path class="cls-1" d="M1071.58,1015.54h0Z" transform="translate(-918.45 -822.12)"/><path class="cls-1" d="M1072.66,1015.92Z" transform="translate(-918.45 -822.12)"/><path class="cls-1" d="M1047.78,1025.94l.71-.38C1048.06,1025.73,1047.77,1025.87,1047.78,1025.94Z" transform="translate(-918.45 -822.12)"/><path class="cls-1" d="M1067.31,1014.94h.25l1,0Z" transform="translate(-918.45 -822.12)"/><path class="cls-1" d="M1069.69,1012.07h0S1069.69,1012.08,1069.69,1012.07Z" transform="translate(-918.45 -822.12)"/><path class="cls-1" d="M1068,1012.93s0,0,0,0S1068,1013,1068,1012.93Z" transform="translate(-918.45 -822.12)"/><path class="cls-1" d="M1055.06,1015.67c0-.07-.09-.13,0-.2C1054.87,1015.56,1054.88,1015.62,1055.06,1015.67Z" transform="translate(-918.45 -822.12)"/><path class="cls-1" d="M1068,1012.92h0Z" transform="translate(-918.45 -822.12)"/><path class="cls-1" d="M1068.48,1011.35h0Z" transform="translate(-918.45 -822.12)"/><path class="cls-1" d="M1069.44,1012h0Z" transform="translate(-918.45 -822.12)"/><path class="cls-1" d="M1068.15,1011v0h0Z" transform="translate(-918.45 -822.12)"/><polygon class="cls-1" points="149.59 188.66 149.59 188.66 149.59 188.66 149.59 188.66"/><path class="cls-1" d="M1062.83,1035.77c.26-1.24.62-2.59,1-3.92C1063,1034.92,1061.81,1035.75,1062.83,1035.77Z" transform="translate(-918.45 -822.12)"/><path class="cls-1" d="M1057,1015.76a11,11,0,0,1-1.94-.09,1,1,0,0,0,.24.13C1056,1015.8,1056.61,1015.79,1057,1015.76Z" transform="translate(-918.45 -822.12)"/><path class="cls-1" d="M1084.31,1033.51l-1-.12C1083.75,1033.64,1084.1,1033.67,1084.31,1033.51Z" transform="translate(-918.45 -822.12)"/><path class="cls-1" d="M1083.27,1002l.55-.19C1083.85,1001.68,1083.7,1001.71,1083.27,1002Z" transform="translate(-918.45 -822.12)"/><path class="cls-1" d="M1081.91,1035.05c-.9-1.31-1.45-2-1.85-2.52.15.32.26.59.49,1C1081,1034.08,1081.45,1034.57,1081.91,1035.05Z" transform="translate(-918.45 -822.12)"/><path class="cls-1" d="M1063.84,1031.81v0Z" transform="translate(-918.45 -822.12)"/><path class="cls-1" d="M1053.89,1038.84c.84.67,3.43-4.68,5.34-7.48,1.59-1-1.81,4-3,6.8,1.45-1,4.29-5.65,4.53-5.28a15.53,15.53,0,0,1-1.06,2.31c1.29-2,1.68-1.87,2.19-1.9s1.1-.19,2.3-2.91c-.12.51-.25,1-.38,1.43.81-2.86,1.76-5.71,2.43-7.75.22,0,1.34-3.48.33.24a16.69,16.69,0,0,0-.93,2.49c.24-.51.46-1,.68-1.54-1.31,5.4-.83,1.75-2,5.67a27.68,27.68,0,0,0,1.81-3.31c.53-1.09.86-1.79.88-1-1,5.35-1.35,1.57-1.82,6.42-.11-.74-.19-1.47-.24-2.2-1.6,8.44-.38-.72-2.16,8.3.5.94,1.08.36,1.59-.24s1-1.2,1.57-.32c.71-2.95.55-4.43,1.21-7.39.53-1.3.7-1.11.81-.18s.12,2.58.16,4.18a24,24,0,0,0,.3,3.84c.18.7.5.54.9-1.27.2-1.81.29-4.44.42-6.16s.25-2.53.74-.74q.09,3.08.07,6.15c.72.27.73-2,.72-3.73s0-3.11.84-1.15c.17,2.42-.69,2.15-.4,2.85.75,2.35.86,1.45.75,0s-.34-3.55-.07-3.6l1.16,5.32a7.13,7.13,0,0,0,1.58-3.33,21.58,21.58,0,0,1,1-3.52,18.36,18.36,0,0,0,2.1,4.52,2.29,2.29,0,0,1,1.44-1.83l8.32-17.94a5.47,5.47,0,0,1,1.61-.73c.85-.33,1.93-.71,3-1.09l-4.65.67a28,28,0,0,1,3-.61c1.7-.57-2.93.56-4.75.82a22.72,22.72,0,0,1,4-.89c-4,.36-8.6.83-3.84-.87l1.38-.25c.87-.44-1.5,0-3.54.5s-3.79.88-1.73.12l.81-.17c.86-.7.18-1,.07-1.47s.37-1.17,3.41-3.07c-3.13,1.29-2.57.7-2.34.22s.16-.81-4,1.36c1.91-1.4,3.2-2.33,4.32-3.2a10.26,10.26,0,0,0,2.89-3.27c.1-.63-5.23,2.77-6.26,3l4-2.91q-2.31,1.23-4.53,2.58c1.49-1.28,3-2.6,4.4-3.94l-1.31.4a11.07,11.07,0,0,1-2.56,2.6c-1.06.47-.67-.38.16-1.64a30.29,30.29,0,0,1,2.95-3.81,29.46,29.46,0,0,0-4.36,1.64,12,12,0,0,1,3.08-2.52c-4.18,3,3.2-4.12-.66-1.33a33.9,33.9,0,0,1-2.53,3c.73-1.32.83-2.2.55-2.67a.87.87,0,0,0-.27-.27,2.56,2.56,0,0,0-.54-.23,3.05,3.05,0,0,0-1.35,0c.64-.93,1.3-1.86,2-2.79-2.38-2.41-6.18-1-8.62-1.51.68,1.74-.84,7.45-1.38,7.93.22-1.73.42-3.46.59-5.19a6.52,6.52,0,0,0-.34,2.67,9.16,9.16,0,0,1-.7,3.15c-.47-.66.24-5.94,1-7.56-.44.55-.84,1.12-1.23,1.69.08-1.56.4-2.35.69-4.32-.41,1.59-.75.24-1.26-.8s-1.15-1.76-1.45,1.06l-.07-1.55a4.6,4.6,0,0,0-2.94,1.08,9,9,0,0,1-2.25,1.53c1,4.4.1,3.58.69,7.19-1.23-1.15-3.8-4-5.13-2.89a6,6,0,0,0,.89,3,22.74,22.74,0,0,1,1.52,3.05c-2-3.59-3.13-2.46-4-5.38a5.82,5.82,0,0,0-1.4,2.29,9.79,9.79,0,0,0-.07,4.23,11.77,11.77,0,0,1,3,2.35c.12.36-.32.2-1-.19a12.5,12.5,0,0,1-2.33-1.64l-.23-.38c.62,1.63.22,2.21-.85,2.57s-2.86.75-4.56,1.36a7.74,7.74,0,0,0-4,3c-.64,1.26-.28,2.73,1.84,3.75l-.42-.23a15.38,15.38,0,0,0,4.66,3.22c-.23.74-1,.71-2,.6a4.46,4.46,0,0,0-3.45.57,15.62,15.62,0,0,1,2.43,1.2l4,7.45c1.47-.4,1.37.37,1.46,1.1s.32,1.37,2,.25c-3.44,5-2.16,5.73-.71,5.73s3.07-.59,2.28,3.28l1.1-2.63c1.52-2.38-.21,1.69-.12,2.43.8-2.06.57-2.53,1.42-3.86,2.18-1,3.27.5,4.55,2.54.65,1,1.41,2.23,2.23,3.32a10.52,10.52,0,0,0,2.55,2.7c.69.37.75-3.32.79-6.25s0-5.1.86-1.77c0,1.77.08,3.54.08,5.3.85-3.25,1.73-3.32,2.79-3.34s2.05,0,2.06-2.83c.27,1.19.74,2.71.56,2.74.75,1.78,1.17,1.7,1.21.82a12.36,12.36,0,0,0-.86-4c.37.24,1,2.63,1.77,4.06.59,1,.4-.26.21-1.29s-.35-1.88.5-.17a4.94,4.94,0,0,1,.43,1.5c-.49-1.81,1.33-.07-.76-4,.74.83.82.25.87-.27s.1-1,1,.07c-1.06-2.25-.56-1.84-.19-1.67s.61.13-1.2-2.87c3.72,6.22,4.14,4.29,2.46,1.29,1.15,1.87,1.61,1.63,3.25,4.19.39-.41-.05-1.77-2.41-4.65,3,3.16,2.34,1.45,1.67.13s-1.21-2.37,2.79,1.48c-.73-2-1.42-3.62-2-5s-1.05-2.56-1.41-3.51c2.92,2.13,2.83,2.55,2.79,3s-.06.88,2.86,3.29a22.88,22.88,0,0,0-3.25-4.77c-1.1-1.4-1.83-2.27-.78-2.35,1,.21,2.6,1.75,3.57,2.53-.88-1.42-.44-1.9-.09-2.49s.55-1.25-1.07-2.56a8.11,8.11,0,0,1,1.73,1c-.12-.33,1.22-.24-1.89-1.31l.76.53a49.65,49.65,0,0,1-6.56-2.67,46.54,46.54,0,0,0-5-2c4.46,1.49,5.07,1.52,6,1.57s2.16.12,7.8,2a15.72,15.72,0,0,0-4.13-1.45,11.91,11.91,0,0,1,4.3,1c-1.5-1.38-5-1.74-4.79-2.44,1.56.27,2.14.53,4,1-3-1-6-1.75-4.6-2.15,1,.13,2.2.18,2.16.37-.18-.6-2.21-1.22-3.82-1.62s-2.83-.62-1.37-1.14c6.91-.2,2.24-.49,8.17-1.18-.62-.19-1.23-.37-1.85-.52-1,.23-1.9.45-2.84.65,0-.44-2.6-.36-2.9-.56l-7.3-7.42c-.1.06-.15-.07-.15-.52q.32-.92.66-1.83l9.16,9.29.54,0-.11-.07-9.5-9.63c-.36.28-.71.57-1,.87,0,.77.07,1.54.07,2.31a36.71,36.71,0,0,0-1,4.62c-.23,1.27-.35,2-.36,1.12.14-.6-.14-.09,0-3.61v0c-.37,1.88-.58,3.86-.68,2.37,0-1.91.34-6.59.35-7.86-.24,2.49-.47,2.83-.71,3.22s-.48.82-.43,3.48c0-1.25-.14-4.38-.2-5,0,1.35,0,2.71.07,4.06a29.94,29.94,0,0,1-.48-4.41c-.36-.34-.12,1.54.05,3.11s.31,2.82-.11,1.23c0-.33-.08-.94,0-1.56-.4-.81-.64-.12-.79.52s-.25,1.25-.73.34c-1.66-5.79.17-1.55-1.19-6.44-.46.66-.5,2.56-.45,4.11s.16,2.76-.43,2.25l.38.56c1.61,3.92,1.16,3,.36,1.57s-1.94-3.26-1.2-1.4c-.21-.59-2-4.26-1.61-3.4-1.2-.94-.13,2.46.88,5l-1.14-1.86c-1.35-1.45-1.28-.47-2.14-1a31.34,31.34,0,0,0,3,4c-2.09-2.3-3-3-3.3-2.92s.17.9.7,1.73a10.08,10.08,0,0,1,1.12,1.88c0,.22-.66-.18-2.75-1.7a6.81,6.81,0,0,0-1.34-1.39c.33.65.68,1.27,1,1.88,2.93,2.26,1.82,1.32,4.11,3.06l2.08,1.82a7.27,7.27,0,0,1,.82.78,62.46,62.46,0,0,0-6.43-4.77l2.82,2.14c-5.46-3.68,6,4.42,2.25,2l-1.59-1.12c.74.67,2.85,2.14,2.34,1.91-3.64-2.25-1.63-1.16-4.56-3.1a21.34,21.34,0,0,0,2.89,2.17c1.2.84,2,1.31.08.3-1-.65-1-.75-1.92-1.44-4.41-2.42-3.36-1.69-4.15-1.92l.11,0c-.74-.23-1.49-.42-2.26-.6l1.28.51c4.83,2.78,5.27,3.05,5.23,3.2s-.52.12,2.79,1.64c-3.13-1.45-4-1.91-4.72-2.17s-1.16-.39-3.38-1.36a35,35,0,0,1-4-1.32c1.75.88,1,.7.43.66s-.93,0,1.7,1.17c-1.48-.49-.24.25-4-1,1,.8,2.62.71,4.47,1.38,2.45,1.08.83.8-.59.86s-2.64.37.89,1.41c2.85,1.15,8.11,1.84,10.71,2.14-1.25,0-2.67-.12-3.77-.22s-1.9-.23-1.9-.23c-2.31.07-1.9.4-.11.61-1.36,0-2.52,0-4.27.1.42.28,5.68,0,3.4.37-1.74,0-4.53.09-6.28,0a41.28,41.28,0,0,0,5.81.58,31.64,31.64,0,0,1-5.91.23c1.26.37,2.58.87,6.84.22.49-.14,1-.27,1.49-.39a38.82,38.82,0,0,1-4.44.62c-1.69.09-1.33-.11-.36-.29s2.58-.39,3.36-.48l1,0c4.54-.65,4.18-.59,2.73-.59s-4-.09-3.73-.27q3.33,0,6.66,0c-1.84,0-3.69,0-5.52-.13,1.73-.06,5.45,0,6.44.06,1.65,0,1.06,0,.51,0s-1-.06.8,0h0l-.88-.06.6,0,.3,0h0l.15,0h.06l-.88-.16c-1.63-.3-3.71-.6-6.49-1.3,2,.35,4,.74,5.91,1.15l1.56.33h0l-.45-.1.48.11h0l-.71-.19-2.48-.64c2.15.52,1.66.39,1.57.32s0,0,.54.14l1.26.42h0l-.88-.3c-.54-.19-1-.31-2.17-.77,4.08,1.42,3.21,1.14,2.74.95-.87-.31-2.24-.92-.46-.2l.88.37.13,0,.13.07.11.07h0l0,0h0l-1.4-1.34c-1.93-1.86-3.76-3.58-4.63-4.65l4.9,4.88c-.21-.2-1.29-1.31-.61-.66l1.74,1.77h0c-.25-.24-.51-.51-.7-.7l-.36-.38,1.05,1.08h0v0l0,0v0l0-.06h0a1.14,1.14,0,0,1-.17-.27h0a1.08,1.08,0,0,1-.1-.23c0,.07,0,0,0,0l0-.12,0,.06c0-.07,0-.08,0-.16s0-.06,0-.08a.06.06,0,0,1,0,0l0-.08v0a1,1,0,0,1,0-.17v-.08s0,0,0,0a.17.17,0,0,1,0-.08s0,0,0,0h0l0-.19,0,.18h0l-2.57-2.51h0l2.57,2.51h0l-2.57-2.51.09,0h0a.28.28,0,0,1-.13,0h0l-.07,0h0l-.07,0h0l-.22-.1h0l-.17-.11s0,0,0,0l.14.1-.08-.06.11.07h0l-.19-.12h0a1.83,1.83,0,0,1-.32-.26s0,0,0,0a1.56,1.56,0,0,0-.12-.11l0,0-.09-.09-.05-.06c-.07-.1-.08-.09-.14-.17l0,0,0-.05-.06-.08,0,0h0l0,0h0l.58.86-.62-.93,0,0s0,0,0,0h0v0l.1.25c.22.57.25.71,0-.06l-.06-.16h0l0,.12h0s0,.1.05.19h0c0,.05,0,.18,0,.28v0c0,.18.11.92.15,1.29,0-.27-.06-.54-.1-.82l0-.37h0v.16h0a1,1,0,0,1,0,.3v.18c0,.05,0,.16,0,.26a.82.82,0,0,0,0-.22,1.09,1.09,0,0,1,0,.19v-.06a1.73,1.73,0,0,1,0,.24s0,.16-.07.22l0,.09v0a.09.09,0,0,1,0,.05s0,0,0,0l0,0,0,0,0,0,0,0,0,0h0l0,0-1.11,1.82-.12,0h-.09s0,0,0,0a1.3,1.3,0,0,1,.45.31l0,0,.1.11s0,0,0,0,.09.1.12.15l0,0a2.44,2.44,0,0,1,.23.41l0,.08h0a1.68,1.68,0,0,1,0-.25,1.47,1.47,0,0,1,.13-.53v0l0,0h0l-.72,1.06h0l.72-1.06h0l-.72,1.06h0l-.19.19a3.83,3.83,0,0,1-.31.24,1.92,1.92,0,0,1-.26.17h0l-.35.2-.48.25.09,0-.61.28-.09,0-.42.17-.52.2c-.32.1-.78.27-1.21.4l.18-.06c-.29.1-1.9.56-1.68.48s-1.41.38-2.22.55l.13,0-.74.18c1.26-.29,2-.45,2.81-.6l-2.38.51c-2.28.48,4.14-.86,1.82-.32l-2.79.55c-.34.09,1.16-.22,4.43-.82,1.76-.3-1.09.34-5,1.05a43.69,43.69,0,0,1,4.52-.73l-2.89.49c-2,.43,1,0,1.91-.12l8.58-3.76h0l-12.13,4.35a1.4,1.4,0,0,1,.5-.16c-4,.7-4.76.87-10.36,1.78l3.07-.49,18.92-5.48v0h0v0l0-.06h0v0l0-.11a.9.9,0,0,1,0-.28v0a.87.87,0,0,1,0-.19v-.06h0a1.36,1.36,0,0,1,.09-.31h0a.91.91,0,0,1-.23.26l-.09.08h0l-.06,0a1.28,1.28,0,0,1-.25.15h0l-.11,0h0l-.07,0h0l-.4,0-.66,0-11,.36c-3.48.12-6.7.41-9.22,1.49a43.26,43.26,0,0,0,4.65.53c-1.18.28-2.35.57-3.52.89l-.36-.93c-3.3,1-.25,1,1.83,1a15,15,0,0,0-3.81,1.23,65.62,65.62,0,0,0,7.16-.6c-1.39.42-2.82.69-4.07,1a6.63,6.63,0,0,0-3,1.17,21.56,21.56,0,0,0,4.62-1.21,13.36,13.36,0,0,1,3.85-.84c-3.14,1.33-5.78,2.15-2.86,1.75a11.73,11.73,0,0,1-3.87,1,4.87,4.87,0,0,1,2.07.29c.53.13,1.25.14,3.12-.53-1.84,1-1.41,1.31-1.35,1.65s-.2.8-3.32,2.42c.79-.31,2.12-.76,3.29-1.14a8.9,8.9,0,0,1,2.42-.61c-3.81,1.86-3.72,2.26-3.59,2.83s.25,1.21-3.5,3.75c3.31-1.9,4.3-2,5-1.78s1.16.72,3-.42c-.47.38-1.43,1.15-1.21.82-.08.82-1.58,2.56-2.27,3.89,4.43-4.44,6-5,8.69-7.74a40.46,40.46,0,0,1-4.25,5.14,48.71,48.71,0,0,0-4.43,4.77c3.31-3.84,4.21-3.1,6.65-6.58-2,3.23-.83,1.66-3.71,6,2.37-3.13,2.65-3.34,2.74-3.21s0,.59,1.53-1.3c-1.6,3.57-3.88,6.25-1.89,4.68a11.34,11.34,0,0,1-3.08,4.18Zm21.58-10.38,0,.08-.23.39A3.53,3.53,0,0,0,1075.47,1028.46Zm1.29-.75a.74.74,0,0,0-.64.16,12.3,12.3,0,0,1-1.35-2.77A12.06,12.06,0,0,0,1076.76,1027.71Zm-7.36-12.43v0Z" transform="translate(-918.45 -822.12)"/><polygon class="cls-1" points="150.95 193.14 150.95 193.14 150.95 193.14 150.95 193.15 150.95 193.14"/><polygon class="cls-1" points="154.11 193.67 154.11 193.66 154.11 193.67 154.11 193.67"/><polygon class="cls-1" points="167.73 179.98 166.81 180.65 167.71 180.19 167.73 179.98"/><path class="cls-1" d="M1062,1007.86c-.32-.23-.65-.46-1-.64Z" transform="translate(-918.45 -822.12)"/><path class="cls-1" d="M1060.11,1008.83c-.51-.18-1-.35-1.54-.51C1059.43,1008.63,1059.85,1008.77,1060.11,1008.83Z" transform="translate(-918.45 -822.12)"/><path class="cls-1" d="M1057.4,1009.3l1.76.79h0Z" transform="translate(-918.45 -822.12)"/><path class="cls-1" d="M1088.77,1019.52a.4.4,0,0,0,.15.18C1089.63,1020.27,1089.38,1020,1088.77,1019.52Z" transform="translate(-918.45 -822.12)"/><path class="cls-1" d="M1073.16,1004.68c.15-.8.32-1.59.47-2.08C1073.53,1002.24,1073.41,1002.13,1073.16,1004.68Z" transform="translate(-918.45 -822.12)"/><path class="cls-1" d="M1084.43,1033.53l0-.06s0,0-.07,0Z" transform="translate(-918.45 -822.12)"/><path class="cls-1" d="M1074,1002.73c0-.91-.18-.74-.37-.13C1073.72,1002.91,1073.78,1003.38,1074,1002.73Z" transform="translate(-918.45 -822.12)"/><path class="cls-1" d="M1054.22,1018l-.16.15.71-.1Z" transform="translate(-918.45 -822.12)"/><path class="cls-1" d="M1054.77,1018l.55,0C1055.31,1018,1055.27,1018,1054.77,1018Z" transform="translate(-918.45 -822.12)"/><path class="cls-1" d="M1056.48,1018.12l-1.16-.06C1055.32,1018.14,1055.2,1018.28,1056.48,1018.12Z" transform="translate(-918.45 -822.12)"/><path class="cls-1" d="M1056.15,1014.89l-1.63-.1Z" transform="translate(-918.45 -822.12)"/><path class="cls-1" d="M1055.74,1014c-.39.14-3.51.28-2.51.68l1.29.09c-1.2-.13-.22-.27.73-.37S1057.1,1014.25,1055.74,1014Z" transform="translate(-918.45 -822.12)"/><path class="cls-1" d="M1072.07,1015.64l-.09,0h0Z" transform="translate(-918.45 -822.12)"/><path class="cls-1" d="M1072.33,1015.73Z" transform="translate(-918.45 -822.12)"/><path class="cls-1" d="M1072.28,1015.28Z" transform="translate(-918.45 -822.12)"/><path class="cls-1" d="M1069.55,1000.76c-.24-.82-.49-1.63-.76-2.45l.64,3.7C1069.46,1001.59,1069.5,1001.18,1069.55,1000.76Z" transform="translate(-918.45 -822.12)"/><polygon class="cls-1" points="153.71 192.65 153.71 192.65 153.71 192.63 153.71 192.65"/><path class="cls-1" d="M1068,1010.8h0Z" transform="translate(-918.45 -822.12)"/><path class="cls-1" d="M1068.24,1012v0Z" transform="translate(-918.45 -822.12)"/><polygon class="cls-1" points="148.65 193.81 148.67 193.8 148.64 193.83 148.65 193.81"/></svg>