<svg id="Layer_1" data-name="Layer 1" xmlns="http://www.w3.org/2000/svg" viewBox="0 0 38.69 35.89"><defs><style>.cls-1{fill:#202020;}</style></defs><title>1</title><path class="cls-1" d="M998.8,917.77c.06-.11,0-.28-.26-.16l0,.38Z" transform="translate(-986.8 -915.37)"/><path class="cls-1" d="M997.09,917.79c-.21.24-.36.65-.07.84.11-.4.23-.3.35-.76.21-.12.43,0,.44.08.05-.11.37-.07.42-.31a1,1,0,0,0-1.07.36C997.05,918,997.1,917.85,997.09,917.79Z" transform="translate(-986.8 -915.37)"/><path class="cls-1" d="M987.76,938.15V938A.43.43,0,0,0,987.76,938.15Z" transform="translate(-986.8 -915.37)"/><path class="cls-1" d="M997.82,949c-.11,0-.16,0-.18,0S997.84,949,997.82,949Z" transform="translate(-986.8 -915.37)"/><path class="cls-1" d="M1000.21,950.16l-.14-.06S1000.17,950.18,1000.21,950.16Z" transform="translate(-986.8 -915.37)"/><path class="cls-1" d="M987.76,938.15v.43C987.87,938.57,987.78,938.35,987.76,938.15Z" transform="translate(-986.8 -915.37)"/><path class="cls-1" d="M994.77,920.13a.5.5,0,0,0,.11-.2l-.13.15Z" transform="translate(-986.8 -915.37)"/><path class="cls-1" d="M987,931.46v-.12a.68.68,0,0,0-.12-.12Z" transform="translate(-986.8 -915.37)"/><path class="cls-1" d="M988.2,926.39c-.05.11.19.25.3.33a.35.35,0,0,1-.1-.31A.41.41,0,0,0,988.2,926.39Z" transform="translate(-986.8 -915.37)"/><path class="cls-1" d="M993.18,919.94l.08-.13Z" transform="translate(-986.8 -915.37)"/><path class="cls-1" d="M986.9,935.2a.17.17,0,0,0-.1.06A.21.21,0,0,0,986.9,935.2Z" transform="translate(-986.8 -915.37)"/><path class="cls-1" d="M1009.25,926.94s0,0,0-.05S1009.22,926.93,1009.25,926.94Z" transform="translate(-986.8 -915.37)"/><path class="cls-1" d="M1004,927l.06-.06-.09-.13Z" transform="translate(-986.8 -915.37)"/><path class="cls-1" d="M1005,951.19h0C1004.88,951.21,1005,951.21,1005,951.19Z" transform="translate(-986.8 -915.37)"/><path class="cls-1" d="M1020.11,919.57c.19.54-.82-.35-.46.39C1019.67,919.83,1020.45,920.13,1020.11,919.57Z" transform="translate(-986.8 -915.37)"/><path class="cls-1" d="M994.65,920.17a.61.61,0,0,1-.15.12A.39.39,0,0,0,994.65,920.17Z" transform="translate(-986.8 -915.37)"/><path class="cls-1" d="M1019.65,920h0l0,.07Z" transform="translate(-986.8 -915.37)"/><path class="cls-1" d="M1015.9,948.37a.38.38,0,0,0-.16,0S1015.8,948.37,1015.9,948.37Z" transform="translate(-986.8 -915.37)"/><path class="cls-1" d="M1007.87,950.47h.21A.79.79,0,0,0,1007.87,950.47Z" transform="translate(-986.8 -915.37)"/><path class="cls-1" d="M1019.26,945.6a.56.56,0,0,0,.24-.18h-.06C1019.43,945.49,1019.38,945.55,1019.26,945.6Z" transform="translate(-986.8 -915.37)"/><path class="cls-1" d="M1022.31,942.31l-.09,0-.08.12Z" transform="translate(-986.8 -915.37)"/><path class="cls-1" d="M1014.29,934.94a.75.75,0,0,1,.29-.09C1014.37,934.84,1014.47,934.31,1014.29,934.94Z" transform="translate(-986.8 -915.37)"/><path class="cls-1" d="M994.68,920a.17.17,0,0,1,0,.17l.1-.09S994.71,920,994.68,920Z" transform="translate(-986.8 -915.37)"/><path class="cls-1" d="M1017.94,943.8l.51-.38C1018.3,943.52,1018.11,943.66,1017.94,943.8Z" transform="translate(-986.8 -915.37)"/><path class="cls-1" d="M997.62,927.91v.14A.17.17,0,0,0,997.62,927.91Z" transform="translate(-986.8 -915.37)"/><path class="cls-1" d="M1019.7,942a.83.83,0,0,0,.37-.16.17.17,0,0,0,0-.1Z" transform="translate(-986.8 -915.37)"/><path class="cls-1" d="M1014.58,934.85Z" transform="translate(-986.8 -915.37)"/><path class="cls-1" d="M1014.07,931.18c.14.46.41.14.65.19.21.64-.22.35-.37.59.14.36.49.66.47,1-.07,0-.09.08-.16,0,.26.46-.12,1.28,0,1.88l-.11,0a1,1,0,0,1,.51.08c-.08.27,0,.58-.22.58.08-.15,0-.2,0-.3,0,.1,0,.2,0,.3-.42.1.05-.4-.21-.49a3.16,3.16,0,0,1-.42,1.58c-.34-.11.39-.91-.15-.57a6.41,6.41,0,0,0,.39-.52c-.69.22.18-.33-.52-.16a4.61,4.61,0,0,0-.35.76,1.53,1.53,0,0,1-.43.72c0,.27.26.12.31.38-.52,1.18-1.23.14-1.51,1,0,.3.17.7-.47.9a3.18,3.18,0,0,0-.06-.43c-.67.39-.06.75-.94.93.07-.19.49-.42.36-.4-.61,0-.23.37-.61.57l-.22-.26a7.64,7.64,0,0,1-2.51,1c0-.11.2-.22,0-.31a5.05,5.05,0,0,1-3.49-.81l-.51.1c-.09,0-.12-.2,0-.21-.36-.29-.1.16-.35.17s-.23-.29-.05-.3a4,4,0,0,1-2.66-1.64l.19,0c-.4-.52-1-.13-1.19-.78l.11.06c-.85-1.17-1.85-2.55-1.75-3.74-.48-.08-.11-1.41-.72-1.39a8.84,8.84,0,0,0,.48-1.77c.06-.29-.32-.46-.34-.86l.3,0-.27-.56a4.11,4.11,0,0,1,.42-.21v-.36c0,.14-.21.27-.29.23,0-.59.52-1.29.7-1.24l.25-1.32c.1.08.06.3.07.49,0-.77.31,0,.34-.68-.1,0-.14-.13-.19-.17.35-.19.63-.86.91-1.34l.12.2a18,18,0,0,1,2-2.5c-.37.2-.56-.12-.34-.38l.33.15c0-.29-.35.15-.19-.33.35-.26.46.08.36.32l.3-.42c.09.05,0,.17.09.28,0-.14.23-.23.44-.33s.44-.19.45-.42l.08.06a19.29,19.29,0,0,1,2.06-1.42c-.12-.27.24-.34.4-.66.33-.08.69-.17,1.06-.23a5.78,5.78,0,0,0,1.13-.22c.51-.29.11-.29.32-.5.1.25.88.11.5.35l1.1-.22c.33,0,.7-.09,1.31-.2-.13-.1-.28-.15-.2-.24s.51.12.47.25l-.06,0a3.41,3.41,0,0,1,2.14.56,4.46,4.46,0,0,0,1.85.75H1015a6.43,6.43,0,0,1,1.13.28c.42.31-.37,0-.12.34a3.55,3.55,0,0,1,.8.28,5.24,5.24,0,0,1,.56.45,7,7,0,0,0,1.1.87c0,.55.53,1,1,1.54a3.43,3.43,0,0,1,1.08,1.68l.12-.15c.29.14.1.32.16.52.11-.1,0-.33.16-.24,1.39,1.92,1.75,4.54,1.81,6.84,0,.84,1,.42.57,1.54l-.32-.3c.46,1.76-.26,3.52-.53,5.19,0-.12-.13-.16-.07-.31a1.47,1.47,0,0,0-.32,1.31c-.14.23-.19,0-.35.08-.29.25-.12,1-.43,1,0,0,0-.13,0-.2,0,.27-.61.91-.25.87-.44.48-.6,1.09-1.06,1.39,0,.23-.18.43-.36.61s-.35.31-.23.5c-.3-.34-1,.58-1.23,1,0-.19-.36.13-.36-.12-.35.3-.62.65-.42.78-1,.06-1.17,1.4-2,1l-.8.66c-.28.2-.57.38-.85.56a12.66,12.66,0,0,1-1.73.94c-.11-.45,1.31-.54,1.07-1-.51.31-.91.6-1.32.87a4.12,4.12,0,0,1-1.46.56c-.31,0,.13-.24.2-.34a27.9,27.9,0,0,1-3.31.81s.11-.1.22-.14c-.21,0-.49,0-.45.19l.2-.08c.37.27-.8.71-.84.84.34-.6-1.1-.11-.53-.87-.14,0-.31.14-.28.28-.21,0-.28-.11-.07-.28-.75.14-.49.32-1.18.3,0-.1.15-.13.22-.25a1.7,1.7,0,0,1-1.3.22c0-.06,0-.14.15-.12-1-.11-1.79.28-2.84-.2.43-.34-.33-.22-.28-.59l-.59-.07.17.24c-.5-.16-1-.06-1.41-.34h.42l-.93-.3.46.34c-.57,0-.12.47-.74.09.14,0-.5-.22-.65-.54h0a1.21,1.21,0,0,1-.89-.29c0-.15.27-.32.25-.42-.39.16-1.1-.54-1.56-.44a.29.29,0,0,0,.24-.22l-.32.09c-.15-.21-.16-.26,0-.37-.57-.45-.09.54-.67-.15.06,0,.06,0,.2,0a14.68,14.68,0,0,1-1.93-1.58c.09-.43.57.41.59,0-.43-.36-.93-.7-1.37-1.1a7.22,7.22,0,0,1-1.13-1.3l.09.19c-.58.18-.19-.86-.69-1.21.1.1.35,0,.28,0-.33-.67-.77-1.32-1.35-2.36l.18.09c0-.46-.21-1.16-.28-1.64-.16-.11-.21-.39-.36-.19a3.54,3.54,0,0,0-.1-2.17,3,3,0,0,1,.09-2c0,.16.1.39.1.26,0-.38,0-.75,0-1.13-.24.06-.15.13-.36.35a1.28,1.28,0,0,1-.16-.79c.1.55.37,0,.52-.15-.07,0-.14-.06-.21-.06.48-.53-.47-.17,0-.94l.11.07a3,3,0,0,1,0-.95c.29-.07,0,.35.26.42.08-.45-.3-1,.11-1.36a5.36,5.36,0,0,0-.06.69,1.5,1.5,0,0,0,.53-.73l0,0,.38-.68-.14.15a1,1,0,0,1-.06-1,1.89,1.89,0,0,0,.27-1.06c.07.88.17.22.42.41.16-.15.37-.38.41-.26-.07-.45.42-.46.38-1.06.1,0,.21-.33.38-.13.17-.44-.21,0-.29-.09a2,2,0,0,1,.68-1.06,2.54,2.54,0,0,0,.86-1.23,20,20,0,0,1,.85-1.87c.31-.1.07.42.07.42a3,3,0,0,0,1-.81c0,.12.1.12.27.13.26-.24,0-.43.42-.6a1.43,1.43,0,0,1,0,.53,5.85,5.85,0,0,1,.81-1c.18.09-.09.35-.15.51.36-.29,1-.73,1-1.05l-.31.07c.15-.1.19.16.1.27a.4.4,0,0,1-.63.14l.24-.21c-.28-.17-.55,0-.8.26a4.88,4.88,0,0,1-.69.82l0-.49-.29.67c-.17,0-.4-.12-.19-.36-.49.12-.23.34-.67.43-.06,0-.06,0,0-.06l-.23.41c0-.13-.25-.16,0-.32-.74.41-.69,1.14-1.13,1.15l0-.07c-.61.95.15.28-.08,1.15h-.94l.18.26c-.08.09-.24.25-.31.15-.09.46.15,0,.16.33-.53.3-.67,1.35-1.15,1.21.1.28.42-.36.26.22-.56-.12-.25.63-.67,1-.17-.26.16-.64-.27-.28.28.47-.51.86-.61,1.29.33.16-.16.94-.27,1.66-.15-.09-.54,1.25-.81,1.89l-.06,0c.17.1.19.32.19.57s0,.55,0,.8c-.21,0-.29-.14-.35-.43l-.06.48a.85.85,0,0,1,.16.59l-.26-.15c-.09.64.25,1.3.06,2.11.25,0,.71-.63.88.19-.14,0-.38.08-.43-.14a.61.61,0,0,1,.05.4l-.23-.33c-.1.37.2.18.17.47-.2,0-.12.23-.28.2s.07-.27,0-.38a2.13,2.13,0,0,1-.23.9c.11,0,.26,0,.32.22.08.62-.22.24-.27.62.15.14.06.57.35.53,0,.18-.09.24-.15.33.2.3.39,1.5.61,1.06v-.09l0,0h0a8.87,8.87,0,0,1,.54,1.55,4.07,4.07,0,0,0,.59,1.53l-.09,0c.42.5.7,1.24,1.19,1.46.11.15.12.45,0,.46a2.23,2.23,0,0,1,.77,1c-.43-.29,0,.23-.4-.33.31.57.31.79,1,1.09-.35,0,.11.58.4.73l-.21-.44a6.2,6.2,0,0,1,.69.64l-.34.14c.76,1.21,2.26.93,2.73,2,.42,0-.51-.52-.11-.59.47.36.79,1.08,1,1.18.66.55.91-.07,1.63.4-.05-.16,0-.47.6-.33s.49.73.1.68c-.13,0-.18-.11-.16-.14-.2,0-.45-.09-.28.12l.12-.08c.22.24,1,.52.76.63.47.05.24-.11,0-.29a9,9,0,0,0,1.88.72c-.11-.09-.18-.25-.06-.22,1.1.42.55-.1,1.32,0,.4.26-.25.41.57.39.46.19.05.32-.16.39.76-.13,1.34.37,1.76.43-.13,0-.26,0-.4.06a4.52,4.52,0,0,1,.63,0l-.2-.25c.22.06.42.07.4.17.25-.14-.14-.41.33-.59.29.13.9-.07,1,.23-.94-.14.1.33-.71.34a1.48,1.48,0,0,1,.58,0s0,.07-.1.08c.93.27.43-.36,1.36-.38-.11.18.24.33.39.29-.38,0-.19-.29.14-.44.61.07.64-.17,1-.19l-.36,0c.1-.19.39-.2.79-.3.06.13-.35.14-.2.18.41-.34,1.08.17,1.67-.16.32.05.1.32.38.34.66-.35.83,0,1.52-.34-.28-.17-.29-.1.15-.47l-1.15.5.68-.55a9.77,9.77,0,0,1-1,.38c.32-.28.29-.22.08-.36.57.2.9-.48,1.53-.41l.16.57a2.31,2.31,0,0,0,1.2-.47,7,7,0,0,1,1.32-.7l-.38.07c0-.28.63-.34.93-.58.06.19.3.15.5.18-.08-.11.76-.42.65-.81l.58,0c.86-.42.57-1.08,1.33-1.52-.09.32.34.2-.07.67.25-.17.5-.3.41-.41.22,0,.47-.75.8-.79,0-.15-.06-.33.2-.53.06,0,.07.07.07.07s.28-.46-.07-.41a2.9,2.9,0,0,0,1.38-1,3.06,3.06,0,0,1,1.2-1.16c.31-.58.68-1.28,1-1.81,0,.07.08.05,0,.14.53-.65-.27-.71.32-1.44.5-.29-.07.51.18.3.68.16.36-1.08.92-1.55l0,.16c.41-.39.13-1.21.34-2,0,0,0,.05.09,0a10.2,10.2,0,0,1-.2-2.35c.22.25.09.35.37.23,0-.34-.4.06-.47-.6.14-.21.27-.69.55-.76v.64c.36-.32,0-.83,0-1.17l.16,0c-.12-1-.52-1-.6-2l-.1.13c-.49-.49.12-.51-.27-1l.35-.25c-.14-.36-.69-1.19-1-1.8a5.38,5.38,0,0,1,1,1.43,2.86,2.86,0,0,0-.61-1.36c.08.13.22.29.21.45a4,4,0,0,1-1-1.55c.38-.08.24-.55.05-1.1s-.54-1.1-.41-1.5a9.52,9.52,0,0,1-1.14-1.7,10.54,10.54,0,0,0-1.32-1.79c0,.8-.34-.32-.71.18-.29-.22-.38-.33-.37-.38a7.65,7.65,0,0,0-.58-1c-.09-.31.37.11.43,0-.62-.54-.1-.41-.44-.88,0,.25-.42.08-.74-.28l.35.63c-1.07-.44-.53-1-1.69-1.34l.42,0c-.54-.27-2-1-2.73-.76-.08-.1-.16-.3.11-.26-1.37-.54-3.19-.28-4.26-.54l.11-.15c-.27,0-.46.28-.8.14,0-.07.1-.15,0-.16a3.63,3.63,0,0,1-.45.14,1.49,1.49,0,0,1-.6.12l.28-.21a3.63,3.63,0,0,0-1.69.41,8.65,8.65,0,0,1-1.37.77c-.15-.45-1.2-.14-1.74,0v-.07a6.75,6.75,0,0,0-1.82,1.19c-.49.47-.92,1-1.45,1.47a4.52,4.52,0,0,0-1.72,1.18c-.59.61-1.2,1.29-1.72,1.85.2-.14.26.23.15.46a1.6,1.6,0,0,0-.29.53c-.06.18-.13.3-.29.17l.07-.1c-.46,0-.73.72-1,1.21l.43.31a3.68,3.68,0,0,0-1.07,2.32c-.07.43-.14.85-.2,1.2a1.38,1.38,0,0,1-.33.83,5.61,5.61,0,0,0,.2,1.17l-.29,0a7,7,0,0,0,.3,2.75l-.25-.2c.13.71,1,.67,1.19,1.23l-.34.33c.42,1.11.73,2.41,1.76,3.14a.26.26,0,0,1-.32-.08c.31.48,1.23,1.9,1.51,1.33-.26.28.87.9,1.48,1.13l-.24.16a2.5,2.5,0,0,1,1.38.29c.14.12,0,.27-.15.09.45.41.53,0,1.08.46l-.32,0a1,1,0,0,0,.93.12c.38,0,1,.47,1.05.73a.78.78,0,0,1,.82-.08c0,.1-.11.13-.18.14a2.42,2.42,0,0,0,1.22.16,1.77,1.77,0,0,1,1,.07.2.2,0,0,0,.12.17,5.63,5.63,0,0,1-1.42-.15c0,.26.64.39,0,.67.29-.05.69-.19,1.08-.28a2.8,2.8,0,0,1,1.11-.15.23.23,0,0,1,.09.08l-.06,0a.86.86,0,0,0,.42-.09,2.61,2.61,0,0,0,.56,0c.13.21.81-.09,1.15-.16-.11-.26.31-.38-.15-.45.06,0,0,.05-.26.12l-.13.06,0,0a4.94,4.94,0,0,1-.81.21,1.08,1.08,0,0,1,.86-.31l.29-.56a3.21,3.21,0,0,0,.95.14,1.7,1.7,0,0,1,.71.06c.85-.61,2-1.43,2.06-2.27.15-.24.34-.11.48-.13-.08.15-.23.28-.24.4.33-.47,1.1-1.31.86-1.64.55-.48.05.53.56-.31l0,.17a3.07,3.07,0,0,0,1-2.38,8.8,8.8,0,0,1,.41-2.71c0,.15-.06.22-.12.25a5.39,5.39,0,0,0-.83-3.62,17.38,17.38,0,0,0-2.38-2.86c-.51-.5-.74-.29-1.17-.34v-.34c-.27,0-.54,0-.79,0a3.14,3.14,0,0,1-1.27-.62,1.86,1.86,0,0,0-1.61-.24l.15.21c-.45-.1-1.42.18-1.38-.07,0,.05-.11.24-.31.17l0-.15-.53.25-.49.31c-.86.22-.11-.7-1.35-.08-.44.32-.88,1.23-.66,1.18s.45-.23.55-.11l-.27.32c.23.41.39.88,1.22.65a2.93,2.93,0,0,1,.33-.53l.27.11-.41.24c.34.06.38-.18.5-.4a.49.49,0,0,0,.32.16,4.56,4.56,0,0,1,.4-.61c.11.17-.15.4.23.43.22-.26-.35-.35.07-.57.33.16.25.31.56.11.06.12,0,.2-.12.26.27-.15.75-.13.92-.34.14.14.39.13.61.15s.37.1.32.32a1.25,1.25,0,0,1,.86-.17c-.31.18-.06.26.22.35s.59.28.42.51c.54-.32,1.26.41,1.92.61,0,0-.15,0-.18,0,.25.27.23.46.34.67.32-.27.75.11,1.16.21,0,.6-.52.05-.73.41.25-.24.67.42.82.16,0,.4.06.31-.15.61.46-.17.22.23.6.37-.08.54-.4.26-.1.7C1014.37,931.54,1014.07,931.17,1014.07,931.18Zm-6.61,9.49h0a1.12,1.12,0,0,0,.29,0A2.2,2.2,0,0,1,1007.46,940.67Zm-1.17,0,.51.05c0,.1,0,.2-.13.18C1006.74,940.83,1006.46,940.76,1006.29,940.66Zm2.91,1.71c-.21.1-.3.06-.34,0l.38-.13,0,0A.31.31,0,0,1,1009.2,942.37Z" transform="translate(-986.8 -915.37)"/><path class="cls-1" d="M1009.5,941.91l.08,0-.14,0-.05.1Z" transform="translate(-986.8 -915.37)"/><path class="cls-1" d="M987.76,938v0s0,0,0-.07Z" transform="translate(-986.8 -915.37)"/><polygon class="cls-1" points="10.73 13.82 10.66 13.81 10.71 13.91 10.73 13.82"/><path class="cls-1" d="M988.35,931a.16.16,0,0,0,.09-.08S988.39,930.9,988.35,931Z" transform="translate(-986.8 -915.37)"/><path class="cls-1" d="M989.09,928.09l.23-.36A2.23,2.23,0,0,0,989.09,928.09Z" transform="translate(-986.8 -915.37)"/><path class="cls-1" d="M990,926.05a.25.25,0,0,0-.09-.09h0Z" transform="translate(-986.8 -915.37)"/><path class="cls-1" d="M1007.5,948.62l.08,0C1007.78,948.52,1007.64,948.55,1007.5,948.62Z" transform="translate(-986.8 -915.37)"/><path class="cls-1" d="M997,947.48c.13,0,.25,0,.37,0C997.24,947.41,997.11,947.34,997,947.48Z" transform="translate(-986.8 -915.37)"/><polygon class="cls-1" points="31.08 28.48 31.08 28.48 31.14 28.43 31.08 28.48"/><path class="cls-1" d="M997.86,947.72a.87.87,0,0,0-.46-.21A1.37,1.37,0,0,0,997.86,947.72Z" transform="translate(-986.8 -915.37)"/><path class="cls-1" d="M996.42,919.07l.09-.05a.06.06,0,0,1,0,0Z" transform="translate(-986.8 -915.37)"/><path class="cls-1" d="M996.5,919l.09-.09C996.54,918.92,996.5,918.94,996.5,919Z" transform="translate(-986.8 -915.37)"/><path class="cls-1" d="M996.77,918.7l-.18.19C996.66,918.85,996.76,918.8,996.77,918.7Z" transform="translate(-986.8 -915.37)"/><path class="cls-1" d="M994,920.63l0,.1A.16.16,0,0,0,994,920.63Z" transform="translate(-986.8 -915.37)"/><path class="cls-1" d="M993.34,921.29c.17-.14.53-.22.69-.48l0-.08C994,920.94,993.37,921,993.34,921.29Z" transform="translate(-986.8 -915.37)"/><path class="cls-1" d="M990,923.57l.49-.65c-.16.06-.38.14-.21-.19C989.43,923.43,990.55,922.68,990,923.57Z" transform="translate(-986.8 -915.37)"/><path class="cls-1" d="M988.65,925.72c.14-.42-.14-.06-.19-.11C988.43,925.91,988.43,926,988.65,925.72Z" transform="translate(-986.8 -915.37)"/><path class="cls-1" d="M990,943.17l-.23.11C990,943.54,989.88,943.23,990,943.17Z" transform="translate(-986.8 -915.37)"/><path class="cls-1" d="M993.28,944.73l-.13-.31-.26.07C993,944.58,993.15,944.65,993.28,944.73Z" transform="translate(-986.8 -915.37)"/><path class="cls-1" d="M993.78,947.41l-.15-.06c.18.08.35.17.53.24Z" transform="translate(-986.8 -915.37)"/><path class="cls-1" d="M1022,943.09l-.31-.11C1021.6,943.19,1021.84,943.45,1022,943.09Z" transform="translate(-986.8 -915.37)"/><path class="cls-1" d="M1025.09,930.31a.63.63,0,0,0,0-.76A6.79,6.79,0,0,0,1025.09,930.31Z" transform="translate(-986.8 -915.37)"/><polygon class="cls-1" points="9.16 9.92 9.17 9.62 9.05 10.15 9.16 9.92"/></svg>