<svg id="Layer_1" data-name="Layer 1" xmlns="http://www.w3.org/2000/svg" viewBox="0 0 106.18 100.78"><defs><style>.cls-1{fill:#202020;}</style></defs><title>2</title><path class="cls-1" d="M935.05,762.73c-.13,0-.25.15-.06.31l.37-.08Z" transform="translate(-928.27 -723.77)"/><path class="cls-1" d="M935.73,764.37c.33.1.76.12.82-.24-.41,0-.37-.1-.86,0-.21-.15-.24-.38-.12-.43-.12,0-.19-.34-.44-.31a1,1,0,0,0,.77.89C935.91,764.34,935.79,764.34,935.73,764.37Z" transform="translate(-928.27 -723.77)"/><path class="cls-1" d="M959,764.42l-.15.07A.51.51,0,0,0,959,764.42Z" transform="translate(-928.27 -723.77)"/><path class="cls-1" d="M966,750.65c0,.12,0,.17.07.18S966,750.62,966,750.65Z" transform="translate(-928.27 -723.77)"/><path class="cls-1" d="M966.3,747.9v.16C966.32,748,966.33,747.93,966.3,747.9Z" transform="translate(-928.27 -723.77)"/><path class="cls-1" d="M959,764.42l.4-.19C959.37,764.13,959.19,764.31,959,764.42Z" transform="translate(-928.27 -723.77)"/><path class="cls-1" d="M938.87,765.71l-.22,0,.19.07Z" transform="translate(-928.27 -723.77)"/><path class="cls-1" d="M953,768l-.12,0a.77.77,0,0,0-.07.16Z" transform="translate(-928.27 -723.77)"/><path class="cls-1" d="M947.68,769.1c.12,0,.14-.28.18-.4a.39.39,0,0,1-.25.21A.37.37,0,0,0,947.68,769.1Z" transform="translate(-928.27 -723.77)"/><path class="cls-1" d="M939.39,767.25l-.15,0Z" transform="translate(-928.27 -723.77)"/><path class="cls-1" d="M956.55,766.45l.09.06S956.59,766.46,956.55,766.45Z" transform="translate(-928.27 -723.77)"/><path class="cls-1" d="M940.71,739.53l0,0S940.7,739.56,940.71,739.53Z" transform="translate(-928.27 -723.77)"/><path class="cls-1" d="M938.51,744.62l0-.08-.15,0Z" transform="translate(-928.27 -723.77)"/><path class="cls-1" d="M965.71,742.84v0C965.78,743,965.75,742.92,965.71,742.84Z" transform="translate(-928.27 -723.77)"/><path class="cls-1" d="M930.56,731.67c.47-.35-.12.91.5.34C930.92,732,931,731.16,930.56,731.67Z" transform="translate(-928.27 -723.77)"/><path class="cls-1" d="M939,765.81l.18.09Z" transform="translate(-928.27 -723.77)"/><path class="cls-1" d="M931.06,732h0l.06-.06Z" transform="translate(-928.27 -723.77)"/><path class="cls-1" d="M960,732.73a.47.47,0,0,0,0,.17S960.05,732.83,960,732.73Z" transform="translate(-928.27 -723.77)"/><path class="cls-1" d="M964.19,740.24l0-.21A1,1,0,0,0,964.19,740.24Z" transform="translate(-928.27 -723.77)"/><path class="cls-1" d="M956.63,729.82c-.07-.09-.07-.15-.22-.22s0,0,0,0A.3.3,0,0,1,956.63,729.82Z" transform="translate(-928.27 -723.77)"/><path class="cls-1" d="M952.9,727.09l0,.1.14.06Z" transform="translate(-928.27 -723.77)"/><path class="cls-1" d="M951.13,735.92a.82.82,0,0,1-.07-.3C951,735.83,950.49,735.7,951.13,735.92Z" transform="translate(-928.27 -723.77)"/><path class="cls-1" d="M938.8,765.85a.14.14,0,0,1,.16,0l-.12-.06S938.78,765.82,938.8,765.85Z" transform="translate(-928.27 -723.77)"/><path class="cls-1" d="M955.05,731.38l-.49-.48A4.49,4.49,0,0,0,955.05,731.38Z" transform="translate(-928.27 -723.77)"/><path class="cls-1" d="M942.55,754.39h.16A.22.22,0,0,0,942.55,754.39Z" transform="translate(-928.27 -723.77)"/><path class="cls-1" d="M952.93,729.74a.9.9,0,0,0-.2-.39s-.07,0-.11,0A2.76,2.76,0,0,1,952.93,729.74Z" transform="translate(-928.27 -723.77)"/><path class="cls-1" d="M951.06,735.62Z" transform="translate(-928.27 -723.77)"/><path class="cls-1" d="M947.06,735.86c.57-.05.22-.39.32-.61.71-.19.35.23.6.39.41-.09.77-.41,1.1-.39,0,.06.08.09,0,.16.5-.22,1.33.2,1.95.1a.3.3,0,0,1,0,.11.93.93,0,0,1,.11-.5c.26.1.61,0,.59.26-.15-.11-.22,0-.32,0a1.55,1.55,0,0,1,.31,0c0,.23-.07.2-.18.15s-.29-.08-.34,0a4.59,4.59,0,0,1,.87.21c.28.1.57.17.7.37-.12.28-.91-.44-.6.09l-.48-.44c.14.72-.31-.24-.21.5a2.35,2.35,0,0,0,.73.4,2.79,2.79,0,0,1,.67.55c.28,0,.15-.24.43-.25a.87.87,0,0,1,.5,1c0,.27-.1.49.31.75.29.08.78-.07.83.64l-.43,0c.27.77.73.21.77,1.15-.17-.12-.34-.58-.34-.45-.07.62.33.31.47.74l-.31.18a10.53,10.53,0,0,1,.72,2.85c-.1-.06-.22-.23-.31,0a6.79,6.79,0,0,1-.95,3.78l.1.54c-.05.1-.2.13-.21,0-.28.4.16.1.18.36s-.29.26-.31.07a5.68,5.68,0,0,1-.5,1.58,2.9,2.9,0,0,1-1.11,1.26l0-.19c-.53.42-.08,1-.78,1.24l.06-.12a14.07,14.07,0,0,1-1.91,1.27,7.67,7.67,0,0,1-1,.4,3.72,3.72,0,0,1-1,.1c-.1.5-1.48.15-1.48.74a4.83,4.83,0,0,1-.83-.25,9,9,0,0,0-1.06-.22c-.31,0-.49.38-.9.39v-.3l-.58.27-.25-.4c-.13,0-.25,0-.38,0,.14,0,.29.19.26.28-.62,0-1.4-.48-1.37-.66a11.64,11.64,0,0,1-1.42-.16c.08-.11.31-.05.51-.08-.81.05,0-.35-.76-.31.06.1-.11.15-.15.2a4.48,4.48,0,0,0-1.52-.79l.2-.14a18,18,0,0,1-2.84-1.76c.26.35,0,.58-.33.38l.1-.34c-.31,0,.2.33-.32.22-.32-.32,0-.47.28-.39l-.48-.26c0-.1.17,0,.28-.12-.3,0-.41-.87-.88-.84l.05-.08c-.38-.44-.66-.74-.93-1s-.48-.59-.75-1c-.25.13-.36-.23-.69-.37-.13-.34-.23-.7-.35-1.07a7.45,7.45,0,0,0-.3-1.17c-.33-.51-.29-.09-.53-.3.19-.1,0-.93.28-.54-.21-1-.37-1.23-.63-2.52-.09.15-.13.32-.22.24-.06-.24.07-.55.19-.52l0,.06a4.08,4.08,0,0,1,.21-2.37,4,4,0,0,0,.41-2.1V737l.06-1.24c.19-.52.09.38.35,0a3.08,3.08,0,0,1,.42-1.59,9.42,9.42,0,0,0,.58-1.36c.52-.19.83-.83,1.26-1.46a3.39,3.39,0,0,1,1.38-1.54l-.17-.07c.06-.33.3-.19.46-.31-.12-.08-.32.12-.27-.08a9.88,9.88,0,0,1,1.33-1.25c.5-.34,1.06-.61,1.59-.9s1.15-.4,1.73-.53,1.16-.22,1.74-.23c.83,0,.4-1,1.54-.62-.11.11-.21.23-.31.35a5.74,5.74,0,0,1,2.7.06c.91.2,1.79.48,2.7.65-.13,0-.17.12-.33.06.27.35,1.31.53,1.4.37.25.14,0,.19.1.35.29.28,1,.15,1.09.46,0,0-.13,0-.2,0,.28,0,1,.59.94.23.52.47,1.2.58,1.58,1,.47-.05.87.82,1.22.53-.3.34.76,1,1.21,1.16-.2,0,.2.36-.06.39.38.32.78.55.87.33.3,1,1.63,1,1.49,1.86.58.48,1.1,1,1.62,1.46s.92,1,1.36,1.57c-.41.21-.9-1.2-1.25-.87.44.46.85.79,1.22,1.15a5.1,5.1,0,0,1,.94,1.35c.11.31-.27-.07-.39-.12a6.61,6.61,0,0,1,.93,1.59,16.17,16.17,0,0,0,.82,1.55s-.12-.09-.19-.18c.09.2.12.51.3.41l-.13-.18c.15-.45.9.61,1.06.6-.68-.16.26,1.12-.65.78.09.13.22.28.34.2,0,.23,0,.32-.24.15.32.74.46.4.65,1.11-.1,0-.17-.11-.31-.15a1.71,1.71,0,0,1,.62,1.24c-.07,0-.13.06-.16-.12.22,1,.87,1.69.75,2.89-.46-.31-.1.41-.47.49.05.2.12.41.15.61a1.84,1.84,0,0,0,.17-.25c0,.54.26,1,.14,1.5l-.15-.41.06,1,.14-.57c.19.56.48-.05.36.69,0-.15-.07.56-.32.83h0a1.5,1.5,0,0,1,0,1c-.13.08-.39-.15-.48-.1.32.33-.19,1.27.07,1.68a.28.28,0,0,0-.28-.16l.19.28c-.13.23-.18.26-.32.18-.23.73.54-.1.08.71,0-.07,0,0,0-.2-.43.81-.4,1.74-.89,2.45-.44.06.23-.69-.18-.57a9.7,9.7,0,0,1-1.52,3.29l.17-.14c.32.45-.72.54-.93,1.13.07-.14-.1-.34-.08-.27-.57.55-1,1.27-1.82,2.2l0-.2c-.44.2-1,.72-1.47.95,0,.19-.3.34,0,.41a4.14,4.14,0,0,0-2.05,1,3.06,3.06,0,0,1-2,.82c.15-.07.32-.27.2-.22-.34.2-.71.36-1.07.53.17.19.19.08.49.17a1.27,1.27,0,0,1-.67.49c.47-.32-.12-.35-.38-.41.06,0,0,.15,0,.22-.72-.23,0,.48-.88.44v-.13a3.05,3.05,0,0,1-.9.4c-.2-.23.31-.2.28-.42-.46.14-.85.68-1.33.5.19-.11.49-.16.68-.27a1.51,1.51,0,0,0-.92-.14h0l-.82-.05.21.06c-.53.76-1.2.25-2,.7.79-.44.12-.25.18-.55-.2-.08-.51-.18-.42-.26-.39.25-.62-.22-1.17.11,0-.09-.4-.05-.29-.28-.49,0,.09.18,0,.3-.81.26-1.69-.62-2.83-.46a15.18,15.18,0,0,1-2.14,0c-.22-.26.37-.24.37-.24a2.61,2.61,0,0,0-1.18-.55c.12,0,.07-.14,0-.3-.32-.16-.38.18-.72-.18a1.53,1.53,0,0,1,.51-.16,8.8,8.8,0,0,1-1.27-.39c0-.2.37-.06.55-.06-.45-.2-1.1-.62-1.39-.52l.19.27c-.15-.1.07-.23.21-.19.44.11.43.44.39.54l-.3-.13c-.07.65,1.11.67,1.64,1l-.44.22a4.73,4.73,0,0,0,.75,0c.08.16.06.41-.26.32.34.4.44.06.71.44,0,0,0,.06,0,.06.15,0,.32,0,.48.07-.12,0,0,.3-.29.13.7.56,1.38.19,1.58.58h-.08c1.16.19.2-.25,1.12-.38.12.28.26.58.4.87l.17-.28c.12,0,.35.09.28.2.48-.12,0-.14.24-.29.52.39,1.57.07,1.66.56.22-.22-.54-.21.08-.34.15.52.71,0,1.22.19-.16.27-.66.13-.13.37.32-.45,1,.1,1.49,0,0-.36,1-.23,1.68-.46a9.34,9.34,0,0,0,2.13-.11v.07c0-.39.75-.52,1.22-.75.05.21,0,.33-.26.5a4.42,4.42,0,0,0,.48-.15.92.92,0,0,1,.48-.41l0,.3a13.26,13.26,0,0,1,2-1c-.07-.24-.89-.36-.18-.89.09.11.22.31,0,.46.06,0,.19-.22.35-.23l-.21.36c.39-.07.09-.25.37-.37.09.18.27,0,.3.17s-.27.06-.34.18a1.82,1.82,0,0,1,.94-.16c-.08-.09-.13-.24.08-.38.56-.35.32.09.7,0,.07-.2.5-.3.35-.55.16-.11.27,0,.37,0,.22-.3,1.29-1,.78-1l-.08,0,0,0h0c.7-.88,1.87-1.36,2.53-2.28l.07.07a6.33,6.33,0,0,0,1-1.68c.11-.16.41-.28.46-.14a2.73,2.73,0,0,1,.67-1.12c-.11.53.22-.08-.16.52.4-.54.64-.59.71-1.36.12.34.51-.32.57-.64l-.36.35c.13-.34.26-.62.38-.91l.25.29a3.5,3.5,0,0,0,.53-1.82,2.06,2.06,0,0,1,.48-1.57c-.15-.4-.33.69-.52.32.18-.59.81-1.14.81-1.35.29-.84-.38-.87-.15-1.74-.14.11-.44.18-.52-.47s.51-.74.6-.35c0,.16,0,.23-.07.22,0,.2.09.47.22.23l-.12-.09c.13-.3.13-1.17.32-1-.11-.48-.19-.2-.26.15a9.11,9.11,0,0,0,.06-2.09c0,.14-.18.27-.19.14,0-1.22-.27-.52-.4-1.31.13-.49.47.1.18-.69,0-.51.29-.16.42,0a4,4,0,0,1-.15-1.87l.17.38a5.27,5.27,0,0,1-.19-.62l-.17.28c0-.24-.07-.43,0-.45-.22-.2-.34.27-.67-.14,0-.33-.38-.86-.11-1.06.16,1,.27-.19.55.6a1.67,1.67,0,0,1-.16-.58s.08,0,.11.07c0-1-.43-.32-.76-1.23.21.06.23-.32.14-.46.14.37-.21.27-.46,0-.09-.63-.34-.59-.44-.9l.07.37c-.22-.05-.27-.35-.52-.71.11-.09.26.31.25.15-.49-.3-.17-1.1-.65-1.62,0-.33.28-.17.24-.46-.56-.56-.19-.83-.75-1.43-.09.32,0,.32-.5,0l.79,1-.72-.54c.2.33.55.63.63.85-.37-.25-.3-.24-.38,0,.05-.63-.7-.79-.8-1.44l.51-.29c-.27-.94-1.17-1.21-1.75-2.26a2,2,0,0,1,.15.37c-.27,0-.49-.56-.8-.81.17-.09.07-.32.06-.53-.1.11-.55-.7-.92-.52-.05-.19-.11-.37-.17-.56-.61-.77-1.17-.41-1.78-1.09.35,0,.15-.38.7,0-.21-.23-.41-.43-.51-.34-.05-.21-.82-.37-.91-.7-.16,0-.32.11-.57-.13,0,0,.06-.07.06-.07s-.49-.25-.4.12c-.38-1.06-2.13-1.55-2.58-2.38-.61-.3-1.34-.67-1.9-.92.07,0,.05-.09.15,0-.68-.55-.71.27-1.49-.31-.32-.49.53,0,.3-.19.14-.65-1.1-.38-1.58-1l.16,0c-.41-.38-1.25-.17-2-.41,0,0,.06,0,0-.09a12.83,12.83,0,0,1-2.46.12c.27-.23.37-.1.25-.37-.36,0,.06.41-.64.44-.21-.17-.72-.29-.79-.57h.68c-.33-.39-.88,0-1.24,0l0-.16a3.11,3.11,0,0,0-1,.32,5.55,5.55,0,0,1-1.06.37l.14.09c-.49.53-.55-.09-1.05.34l-.3-.33c-.37.2-1.15.91-1.75,1.24a6.73,6.73,0,0,1,1.36-1.28c-.37.16-1.26.59-1.36.85.13-.1.28-.27.45-.28a3.42,3.42,0,0,1-.61.66,4.38,4.38,0,0,1-.83.66c-.14-.35-.63-.14-1.12.21s-1,.82-1.43.8a10.44,10.44,0,0,1-1.42,1.63,12.31,12.31,0,0,0-1.42,1.83c.79-.2-.22.43.36.65-.14.35-.22.47-.27.48-.28.28-.59.55-.85.85s0-.39-.11-.41c-.39.75-.37.21-.74.67.24,0,.18.39-.08.81l.51-.52c-.12,1.2-.89.76-.9,2l-.08-.42c0,.32-.19.87-.3,1.42a2.62,2.62,0,0,0,.14,1.47c-.09.09-.28.21-.28-.06-.33,1.46.26,3.25.07,4.37l-.15-.09c.06.27.31.44.19.8-.07,0-.16-.09-.15,0a2.58,2.58,0,0,1,.38,1l-.23-.27c0,1.48,1,2,1.43,3.09-.41.16,0,1.24.19,1.79H930a9.59,9.59,0,0,0,3.11,3.13,4.44,4.44,0,0,0,1.42,1.65l1.08.8a11,11,0,0,1,1,.75c-.17-.19.2-.28.45-.19s1,.15.8.49l-.12-.06a.88.88,0,0,0,.5.56,9,9,0,0,0,.86.33l.27-.46a2.34,2.34,0,0,0,1.11.66,5.2,5.2,0,0,0,1.35.26c.9.12,1.72.05,2.11.45.37-.11.83-.13,1.19-.25V757a7.14,7.14,0,0,0,1.32,0,6.22,6.22,0,0,0,1.49-.28l-.21.25c.73-.13.7-1,1.29-1.2l.33.34c.6-.18,1.19-.4,1.79-.62a4.06,4.06,0,0,0,1.54-1.15.24.24,0,0,1-.09.32c.25-.16.73-.51,1.11-.82s.54-.68.26-.79c.29.26.93-.93,1.13-1.59l.17.24a3.18,3.18,0,0,1,.25-1.44c.12-.14.28,0,.1.15.41-.48,0-.53.45-1.13l0,.32a1,1,0,0,0,.1-1c.07-.39.44-1.08.71-1.11a.84.84,0,0,1-.06-.84c.1,0,.13.12.14.19.39-1,0-1.57.29-2.25a.2.2,0,0,0,.17-.11,5.32,5.32,0,0,1-.21,1.43c.26,0,.43-.63.68,0,0-.29-.15-.69-.24-1.09a3.47,3.47,0,0,1-.07-1.14.32.32,0,0,1,.08-.09l0,.07a.84.84,0,0,0,0-.42,3.81,3.81,0,0,0,.06-.57c.23-.09,0-.81,0-1.16-.27.08-.29-.37-.46.08,0-.06.05.06.09.28a1.09,1.09,0,0,0,.05.14l0,0a5.39,5.39,0,0,1,.11.84,1.19,1.19,0,0,1-.21-.91l-.51-.38c.36-.52.26-1.44.47-1.64a14.52,14.52,0,0,0-.81-1.56,2.59,2.59,0,0,0-1.11-1c-.22-.2-.09-.35-.09-.49a4.67,4.67,0,0,0,.39.3c-.47-.4-1.16-1.37-1.56-1.16-.44-.61.55,0-.26-.6H954a2.55,2.55,0,0,0-.49-.58,4.24,4.24,0,0,0-.61-.36,5.5,5.5,0,0,0-.63-.25c-.22-.06-.45-.07-.67-.11-.44,0-.86-.14-1.32-.17a7.59,7.59,0,0,1-1.46-.41c.15.05.22.08.25.14a7.23,7.23,0,0,0-3.79.38c-1.2.46-2.33,1-3.49,1.51-.65.31-.56.55-.76,1l-.31-.13-.3.74a2.72,2.72,0,0,1-1.1,1,2.06,2.06,0,0,0-.89,1.44l.25-.07c-.23.42-.46,1.42-.62,1.29,0,.06.17.21,0,.37l-.15,0a3.94,3.94,0,0,0,.09,1.19c-.12.91-.67-.18-.65,1.24.15.53.71,1.36.78,1.14s0-.53.16-.57l.15.41c.47,0,1,.06,1.14-.85a5.65,5.65,0,0,1-.38-.57l.23-.21a1.4,1.4,0,0,0,0,.5c.14-.3,0-.45-.13-.66a.41.41,0,0,0,.25-.25,2.58,2.58,0,0,1-.38-.64c.19,0,.29.32.48-.05-.14-.31-.46.2-.49-.3.28-.25.42-.11.32-.5.13,0,.17.08.2.23-.07-.34.25-.77.07-1,.32-.19.5-1,.83-.71a1.2,1.2,0,0,1,0-.42,1.32,1.32,0,0,1,.21-.48c.05.74.74-.83,1.08-.3a1.27,1.27,0,0,1,.49-.86,4.42,4.42,0,0,0,.9-.82s0,.16-.1.18c.36-.19.55-.09.81-.14-.14-.37.37-.77.62-1.09.61.17-.11.53.18.81-.15-.28.67-.6.43-.79.43.08.35,0,.63.26-.07-.49.31-.16.54-.53.58.11.22.4.78.18C947.53,735.63,947.06,735.86,947.06,735.86Zm8.89,8h0l0-.31Zm-.08,1.25c0-.15,0-.34,0-.54a.12.12,0,0,1,.18.14C956.05,744.63,956,744.92,955.87,745.1Zm2-2.86c.07.23,0,.31,0,.35a2,2,0,0,0-.08-.4l0,0A.46.46,0,0,1,957.83,742.24Z" transform="translate(-928.27 -723.77)"/><path class="cls-1" d="M957.4,741.88a.94.94,0,0,1,0-.09,1.21,1.21,0,0,0,0,.14l.1.07Z" transform="translate(-928.27 -723.77)"/><path class="cls-1" d="M958.83,764.5h0Z" transform="translate(-928.27 -723.77)"/><polygon class="cls-1" points="15.66 30.66 15.65 30.73 15.76 30.67 15.66 30.66"/><path class="cls-1" d="M951.91,767a.14.14,0,0,0-.11,0Z" transform="translate(-928.27 -723.77)"/><path class="cls-1" d="M948.89,767.57l-.45,0A3,3,0,0,0,948.89,767.57Z" transform="translate(-928.27 -723.77)"/><path class="cls-1" d="M946.53,767.62a.38.38,0,0,0,0,.12h0Z" transform="translate(-928.27 -723.77)"/><path class="cls-1" d="M962.52,741.12a.56.56,0,0,0,0-.08C962.35,740.86,962.42,741,962.52,741.12Z" transform="translate(-928.27 -723.77)"/><path class="cls-1" d="M964.83,752a2.22,2.22,0,0,1-.09-.37C964.69,751.78,964.67,751.93,964.83,752Z" transform="translate(-928.27 -723.77)"/><polygon class="cls-1" points="26.83 7.66 26.84 7.66 26.78 7.61 26.83 7.66"/><path class="cls-1" d="M964.8,751.06a1.09,1.09,0,0,0-.06.52A1.31,1.31,0,0,0,964.8,751.06Z" transform="translate(-928.27 -723.77)"/><path class="cls-1" d="M937.2,764.56l-.08-.08a.05.05,0,0,1,0,0Z" transform="translate(-928.27 -723.77)"/><path class="cls-1" d="M937.08,764.51l-.12,0S937.05,764.52,937.08,764.51Z" transform="translate(-928.27 -723.77)"/><path class="cls-1" d="M936.72,764.35l.24.11C936.9,764.4,936.82,764.32,936.72,764.35Z" transform="translate(-928.27 -723.77)"/><path class="cls-1" d="M939.71,766.26l.08-.08A.13.13,0,0,0,939.71,766.26Z" transform="translate(-928.27 -723.77)"/><path class="cls-1" d="M940.58,766.59c-.2-.11-.44-.4-.74-.47l-.05.06C940,766.12,940.32,766.67,940.58,766.59Z" transform="translate(-928.27 -723.77)"/><path class="cls-1" d="M944.22,768.74a8.09,8.09,0,0,1-.82-.19c.13.13.3.31-.09.27C944.33,769.3,943.13,768.57,944.22,768.74Z" transform="translate(-928.27 -723.77)"/><path class="cls-1" d="M946.84,769c-.45,0,0,.15,0,.21C947.12,769.12,947.19,769.09,946.84,769Z" transform="translate(-928.27 -723.77)"/><path class="cls-1" d="M963,760.35l.18.18C963.39,760.21,963.14,760.47,963,760.35Z" transform="translate(-928.27 -723.77)"/><polygon class="cls-1" points="35.18 32.85 34.93 33.09 35.09 33.32 35.18 32.85"/><polygon class="cls-1" points="37.56 31.4 37.56 31.57 37.61 30.96 37.56 31.4"/><path class="cls-1" d="M953.74,727.31l-.08.32C953.89,727.71,954.13,727.44,953.74,727.31Z" transform="translate(-928.27 -723.77)"/><path class="cls-1" d="M940.4,724.26a.74.74,0,0,0-.81.1A5.34,5.34,0,0,0,940.4,724.26Z" transform="translate(-928.27 -723.77)"/><path class="cls-1" d="M940,756.22l-.31,0,.55.07Z" transform="translate(-928.27 -723.77)"/><path class="cls-1" d="M997.76,794.28c0-.12-.23-.18-.3.08l.2.32Z" transform="translate(-928.27 -723.77)"/><path class="cls-1" d="M996.44,795.57c0,.35.11.77.48.71-.16-.39,0-.4-.21-.85.09-.26.3-.37.39-.27,0-.12.24-.33.12-.55a1.15,1.15,0,0,0-.59,1.07C996.52,795.73,996.48,795.62,996.44,795.57Z" transform="translate(-928.27 -723.77)"/><path class="cls-1" d="M1002.16,819.47l-.11-.15A.48.48,0,0,0,1002.16,819.47Z" transform="translate(-928.27 -723.77)"/><path class="cls-1" d="M1017.62,823.56c-.13,0-.17.08-.17.11S1017.65,823.58,1017.62,823.56Z" transform="translate(-928.27 -723.77)"/><path class="cls-1" d="M1020.46,823l-.17,0A.25.25,0,0,0,1020.46,823Z" transform="translate(-928.27 -723.77)"/><path class="cls-1" d="M1002.16,819.47l.26.37C1002.51,819.78,1002.3,819.63,1002.16,819.47Z" transform="translate(-928.27 -723.77)"/><path class="cls-1" d="M996.11,799.12a.59.59,0,0,0-.05-.23v.21Z" transform="translate(-928.27 -723.77)"/><path class="cls-1" d="M997.31,814.05l-.07-.12a.86.86,0,0,0-.17,0Z" transform="translate(-928.27 -723.77)"/><path class="cls-1" d="M995,808.92c0,.12.31.08.44.09a.37.37,0,0,1-.26-.21A.51.51,0,0,0,995,808.92Z" transform="translate(-928.27 -723.77)"/><path class="cls-1" d="M994.78,800.11v0Z" transform="translate(-928.27 -723.77)"/><path class="cls-1" d="M999.6,817.37a.14.14,0,0,0,0,.1A.23.23,0,0,0,999.6,817.37Z" transform="translate(-928.27 -723.77)"/><path class="cls-1" d="M1013.24,792.73s0,0,0-.05S1013.21,792.73,1013.24,792.73Z" transform="translate(-928.27 -723.77)"/><path class="cls-1" d="M1007.47,794l.06-.07-.1-.12Z" transform="translate(-928.27 -723.77)"/><path class="cls-1" d="M1025.28,820.76h0C1025.16,820.87,1025.22,820.82,1025.28,820.76Z" transform="translate(-928.27 -723.77)"/><path class="cls-1" d="M1016.74,784.21c.55.25-.91.32-.09.6C1016.57,784.69,1017.43,784.39,1016.74,784.21Z" transform="translate(-928.27 -723.77)"/><path class="cls-1" d="M996.05,799.25l0,.21A1,1,0,0,0,996.05,799.25Z" transform="translate(-928.27 -723.77)"/><path class="cls-1" d="M1016.65,784.81h0l.09,0Z" transform="translate(-928.27 -723.77)"/><path class="cls-1" d="M1032.76,811.21a.28.28,0,0,0-.16.07A.3.3,0,0,0,1032.76,811.21Z" transform="translate(-928.27 -723.77)"/><path class="cls-1" d="M1027.3,818.34l.18-.13Z" transform="translate(-928.27 -723.77)"/><path class="cls-1" d="M1033.81,806.61a.54.54,0,0,0,.08-.31l0,0A.28.28,0,0,1,1033.81,806.61Z" transform="translate(-928.27 -723.77)"/><path class="cls-1" d="M1034.11,801.76l0,.09,0,.16Z" transform="translate(-928.27 -723.77)"/><path class="cls-1" d="M1023.44,798.44a.86.86,0,0,1,.18-.26C1023.45,798.3,1023.19,797.78,1023.44,798.44Z" transform="translate(-928.27 -723.77)"/><path class="cls-1" d="M996,799.09a.18.18,0,0,1,.09.16v-.15S996,799.07,996,799.09Z" transform="translate(-928.27 -723.77)"/><path class="cls-1" d="M1031.67,806l.17-.67A4.66,4.66,0,0,0,1031.67,806Z" transform="translate(-928.27 -723.77)"/><path class="cls-1" d="M1004.27,806.39l.12.11A.21.21,0,0,0,1004.27,806.39Z" transform="translate(-928.27 -723.77)"/><path class="cls-1" d="M1032,803.32a1,1,0,0,0,.21-.38.2.2,0,0,0-.08-.08A2.42,2.42,0,0,1,1032,803.32Z" transform="translate(-928.27 -723.77)"/><path class="cls-1" d="M1023.62,798.17h0Z" transform="translate(-928.27 -723.77)"/><path class="cls-1" d="M1020.59,795.21c.47.37.46-.1.71-.18.6.46.06.44.1.76.4.23.87.29,1.07.59,0,.06,0,.13-.12.11a1.48,1.48,0,0,1,.67.72,3.22,3.22,0,0,0,.66.86.29.29,0,0,1-.06.1.92.92,0,0,1,.44-.27c.1.28.41.45.22.63-.06-.17-.16-.16-.26-.21l.21.26c-.24.36-.26-.36-.5-.27a3.43,3.43,0,0,1,.72,1.61c-.31.14-.31-1-.49-.38,0-.23,0-.47,0-.7-.19.32-.21.22-.23.11s-.07-.2-.26.09c0,.86.4.91.32,1.8.2.19.28-.08.48.12a.9.9,0,0,1-.29,1.09.68.68,0,0,0-.29.81c.16.27.61.49.17,1.09l-.29-.33c-.34.81.39.67-.22,1.45-.05-.21.14-.7,0-.59-.48.45,0,.47-.16.91l-.35-.06a11.3,11.3,0,0,1-1.39,2.75c0-.11,0-.31-.24-.2a6.58,6.58,0,0,1-3.3,2.34l-.29.49c-.1.06-.24,0-.16-.12-.49.1.06.18-.11.38s-.41,0-.28-.16a4.29,4.29,0,0,1-3.21,1,1,1,0,0,0,.17-.1c-.69-.12-.8.63-1.47.31l.13,0c-1.54-.2-3.35-.58-4.18-1.6-.21.15-.52-.1-.81-.34s-.6-.42-.81-.24a15.1,15.1,0,0,0-1-1.72c-.22-.25-.62-.11-.93-.41l.23-.2-.62-.25c0-.15.07-.3.11-.46l-.28-.28c.07.14.07.36,0,.39a2,2,0,0,1-.5-.87c-.07-.31-.06-.57,0-.61l-.46-.58-.41-.61c.13,0,.26.19.41.33-.59-.58.24-.26-.3-.79,0,.11-.19,0-.26,0a5.11,5.11,0,0,0-.39-1.71l.23.06a13.72,13.72,0,0,1-.41-3.35c-.11.42-.48.32-.5,0l.34-.11c-.17-.25-.16.36-.35-.13.09-.46.4-.26.48,0l-.06-.54c.1,0,.14.11.26.16-.2-.26.47-.83.21-1.21h.1a13.1,13.1,0,0,1,.81-2.54c-.25-.15,0-.45,0-.82a5.67,5.67,0,0,1,.78-.87c.28-.3.56-.6.85-.93.3-.56-.06-.3,0-.62.21.12.83-.51.63-.06.72-.77.92-1,1.88-1.95-.18,0-.34.06-.32-.06.18-.18.53-.24.56-.11l0,.06a2.45,2.45,0,0,1,1-.7,5.11,5.11,0,0,1,1.22-.39l1.17-.3a2.69,2.69,0,0,0,.91-.46l-.06,0c.37-.19.75-.41,1.14-.58.57-.06-.3.25.15.33a3.16,3.16,0,0,1,1.64-.41,7.13,7.13,0,0,0,1.5-.1,1.83,1.83,0,0,0,.82.37c.33.07.71.08,1.1.15a4,4,0,0,1,2.06.62v-.19c.33-.06.3.22.49.34,0-.14-.25-.27,0-.29a9.26,9.26,0,0,1,3.43,1.79,18.88,18.88,0,0,1,2.75,2.76c.62.7,1-.21,1.52,1l-.48-.05c1.54,1.24,2.2,3.2,3.13,4.83-.11-.08-.2,0-.26-.22-.1.45.47,1.37.63,1.34,0,.29-.16.11-.22.31,0,.41.51.89.33,1.14,0,0-.11-.09-.14-.16a2.89,2.89,0,0,1,.21.63c0,.23.07.4.2.26-.08.71.22,1.34.1,1.9.3.37-.22,1.19.21,1.34-.23,0-.34.26-.37.62a3.93,3.93,0,0,0,0,1c-.11-.17-.22.36-.37.15-.09.5-.1,1,.15.94-.74.76-.16,2-1,2.24-.18.74-.41,1.44-.63,2.14s-.6,1.31-.9,1.94c-.36-.29.75-1.35.31-1.53-.26.6-.4,1.12-.57,1.62a5,5,0,0,1-.92,1.43c-.25.24,0-.27,0-.41a9.54,9.54,0,0,1-.52.82c-.21.25-.43.47-.64.69-.44.44-.79.92-1.17,1.38,0,0,0-.15.1-.25-.16.16-.45.3-.29.43l.13-.19c.49,0-.29,1.07-.22,1.23-.08-.71-1,.66-1-.34-.09.13-.17.33-.06.42-.21.11-.32.07-.23-.18-.61.56-.24.57-.86,1-.06-.08,0-.2,0-.34a1.91,1.91,0,0,1-1,1c0-.07-.1-.1.07-.19a8.08,8.08,0,0,0-1.2.92,5.79,5.79,0,0,1-.62.45,3.41,3.41,0,0,1-.8.27c.17-.52-.43,0-.62-.31l-.56.33.3.08a4.08,4.08,0,0,1-1.45.58l.37-.25-1,.31h.62c-.52.32.17.45-.61.53.15-.09-.56.16-.9-.06h0a1.52,1.52,0,0,1-1,.25c-.12-.11,0-.42,0-.5a1.39,1.39,0,0,1-.8.29c-.34.06-.69,0-.87.2a.26.26,0,0,0,.09-.31l-.24.24c-.26-.09-.3-.13-.25-.29-.78-.08.23.49-.7.24.07,0,0-.06.2-.09a4.2,4.2,0,0,0-.7-.05l-.67-.09a6.1,6.1,0,0,1-1.3-.24c-.16-.41.76,0,.55-.31-.31,0-.63,0-.94-.11l-.94-.18a4.48,4.48,0,0,1-1.79-.61l.18.14c-.38.4-.69-.65-1.34-.71.15,0,.32-.16.25-.13-.36-.2-.7-.44-1.13-.66s-.94-.42-1.48-.76h.2a17.13,17.13,0,0,0-1.26-1.31c-.22,0-.43-.22-.43,0a4,4,0,0,0-1.46-1.87,3.72,3.72,0,0,1-1.24-1.85c.1.14.34.27.26.16a8.88,8.88,0,0,1-.75-1c-.15.2,0,.21-.07.53a1.34,1.34,0,0,1-.61-.6c.41.42.32-.19.31-.46,0,.07-.15,0-.2.09,0-.77-.48.12-.65-.8h.12a3.58,3.58,0,0,1-.56-.85c.18-.25.25.28.46.21-.21-.46-.86-.73-.8-1.26.16.18.28.46.44.63a1.52,1.52,0,0,0-.1-.95v0c0-.29-.08-.57-.12-.86l0,.24c-.83-.4-.53-1.18-1.15-1.9.59.71.27.07.58.07,0-.24.07-.57.17-.5-.31-.34.07-.68-.39-1.17.09,0-.07-.41.19-.36-.16-.49-.15.14-.27.12a2.21,2.21,0,0,1-.11-1.37,4,4,0,0,0-.13-1.63c-.12-1-.5-1.2-.54-2.16.21-.29.31.3.31.3a2.58,2.58,0,0,0,.25-1.35c.06.12.15,0,.28-.09,0-.37-.3-.32-.07-.79a1.47,1.47,0,0,1,.31.47,8.1,8.1,0,0,1,0-1.39c.2-.06.16.35.22.53.09-.51.27-1.31.07-1.56l-.2.29c.05-.19.25,0,.25.13.06.49-.28.58-.39.58l.05-.34c-.64.16-.39,1.3-.48,1.94l-.36-.36.22.75c-.13.12-.38.19-.38-.16-.29.45.07.45-.24.84,0,0-.06,0-.06,0l0,.49c-.07-.1-.3,0-.19-.24-.35.85.22,1.43-.12,1.73l0-.07c.08,1.21.29.13.62,1l-.71.62.31.11c0,.12,0,.37-.13.33.24.45.13-.09.34.17a2.51,2.51,0,0,0,0,1.06c.06.35.1.64-.13.74.27.18.07-.58.35,0-.48.27.23.71.09,1.29-.29-.11-.25-.65-.38-.06.48.23.15,1.07.38,1.49.37-.08.41.94.81,1.61a13.65,13.65,0,0,0,.57,2.15h-.06c.39,0,.69.64,1,1.07-.21.09-.33.05-.56-.16l.25.45a1,1,0,0,1,.5.42l-.3,0c.34.6,1,1,1.39,1.79.23-.12.18-1,.84-.35-.09.12-.26.29-.44.13.06,0,.25.16.29.32l-.39-.16c.15.39.27.06.44.32-.16.12,0,.26-.1.33s-.13-.26-.25-.31a2.16,2.16,0,0,1,.38.91c.06-.1.2-.18.4,0,.46.51,0,.34.17.71.21,0,.4.46.62.26.13.15.07.26.07.37.36.15,1.27,1.09,1.18.59l-.06-.08,0,0h0a10.34,10.34,0,0,1,1.41,1.08,7,7,0,0,0,1.41,1.06l-.05.09a10.68,10.68,0,0,0,1.92.68c.17.1.36.36.23.44a2.57,2.57,0,0,1,1.29.43c-.56,0,.12.21-.56-.06.62.3.73.52,1.51.49-.32.19.44.41.78.4l-.44-.27a6,6,0,0,1,1,.21l-.24.29a2.78,2.78,0,0,0,2,.17,2.19,2.19,0,0,1,1.72.17c.37-.21-.78-.2-.44-.45a2.11,2.11,0,0,1,.48.12l.46.14a2.88,2.88,0,0,0,.62.18c.94.07.8-.52,1.73-.58-.14-.09-.3-.38.34-.64s.89.29.51.48c-.16.05-.24,0-.24,0-.19.09-.46.21-.18.27l.06-.13c.34,0,1.23-.19,1.07.05.46-.23.15-.24-.22-.21a8.36,8.36,0,0,0,2.11-.57c-.15,0-.32-.1-.19-.15,1.23-.33.45-.38,1.19-.78.51-.07,0,.47.73-.07.52-.14.24.23.1.41.59-.58,1.41-.54,1.81-.78-.11.11-.2.22-.31.31a3.62,3.62,0,0,1,.53-.41l-.32-.07c.22-.1.4-.22.45-.13.12-.28-.38-.23-.09-.68.34-.09.73-.66,1-.47-.9.49.29.18-.4.72a1.67,1.67,0,0,1,.51-.35s0,.08,0,.13c1-.34.16-.55.94-1.19,0,.22.4.1.5,0-.32.27-.34-.1-.15-.44.59-.32.47-.54.73-.75l-.33.21c0-.21.23-.4.49-.78.12.07-.21.37-.06.29.12-.57,1-.59,1.33-1.25.31-.16.27.2.53,0,.31-.76.71-.53,1.07-1.31-.34.05-.32.11-.16-.49l-.68,1.19.25-.91c-.25.32-.4.78-.58.95.1-.45.12-.38-.15-.35.61-.22.49-1,1.06-1.36l.48.36c.76-.68.67-1.63,1.41-2.65a2,2,0,0,1-.28.31c-.1-.25.31-.72.4-1.12.16.12.33-.09.52-.19-.14,0,.4-.85.08-1.1.15-.14.28-.29.43-.44.41-1-.16-1.27.16-2.18.14.34.41,0,.36.62.12-.31.19-.6.06-.64.16-.16-.08-.94.16-1.2-.06-.15-.25-.23-.17-.58a.08.08,0,0,1,.1,0c-.1,0,0-.57-.3-.29.7-.93.2-2.75.58-3.63l-.17-1.12c-.05-.38-.2-.74-.26-1.06.07,0,.1,0,.1.11,0-.92-.67-.41-.69-1.43.2-.59.29.48.33.13.63-.33-.43-1.15-.31-1.92l.1.15c0-.57-.7-1.11-1.08-1.87,0,0,.07,0,.09,0a13.61,13.61,0,0,1-1.74-1.85c.35.06.33.22.45-.05-.25-.28-.28.32-.76-.22,0-.27-.23-.77-.07-1,.15.17.28.37.43.55.08-.51-.56-.71-.75-1l.15-.07c-.73-.79-1.05-.51-1.82-1.34V790c-.72-.13-.24-.51-.89-.7l.12-.42-2-.92a5.49,5.49,0,0,1,1.83.56c-.33-.25-1.13-.84-1.43-.77.16.06.39.09.49.24a4.4,4.4,0,0,1-1.9-.67c.26-.29-.18-.61-.72-.92a3.34,3.34,0,0,1-1.38-1c-1.45-.28-2.76-1-4.51-1.15.55.65-.51,0-.45.58-.38,0-.53,0-.57,0l-1.2-.36c-.29-.17.38-.15.34-.28-.89,0-.38-.24-1-.36.14.21-.28.34-.8.31l.75.21a1.67,1.67,0,0,1-1.16,0,1.42,1.42,0,0,0-1.17.13l.35-.27-1.44.48a2.71,2.71,0,0,0-1.27.87c-.13,0-.34-.13-.09-.27-1.48.52-2.76,2-3.86,2.44v-.19c-.21.21-.22.53-.59.64,0-.06,0-.19-.11-.11a3.24,3.24,0,0,1-.73.87l.11-.34a3.68,3.68,0,0,0-1.19,1.42c-.25.5-.44,1-.74,1.53-.18-.13-.46,0-.76.27a7.61,7.61,0,0,0-.73.86l0-.05a9.65,9.65,0,0,0-1.07,4.49,2.56,2.56,0,0,0-.37.94q-.06.3-.12.63c0,.22,0,.45,0,.68a9.86,9.86,0,0,0,0,1.44l.07,1.34c0-.26.35,0,.45.25a1.9,1.9,0,0,0,.21.62c.09.18.14.32-.07.35l0-.13c-.28.38,0,1.13.26,1.68l.53-.1a4.09,4.09,0,0,0,1.06,2.53c.58.76,1.18,1.35,1.2,1.9a12.05,12.05,0,0,0,1,.72l-.21.19a8.06,8.06,0,0,0,1,1,6.59,6.59,0,0,0,1.29.9l-.34,0c.63.45,1.23-.17,1.82.11v.48c.57.31,1.18.59,1.78.87a4.1,4.1,0,0,0,2,.28.29.29,0,0,1-.3.16,13,13,0,0,0,1.41.23c.51,0,.91-.09.79-.37,0,.17.36.23.78.09a9.13,9.13,0,0,0,1.23-.45l0,.3a2.64,2.64,0,0,1,1.24-.9c.19,0,.23.16,0,.17.66-.08.37-.43,1.14-.57l-.2.27c.63-.22.54-.3.76-.66a1.73,1.73,0,0,1,1.31-.38.86.86,0,0,1,.52-.7c.1,0,0,.17,0,.23a2.45,2.45,0,0,0,1-.86,2.66,2.66,0,0,1,.77-.72.21.21,0,0,0,.21,0,6.26,6.26,0,0,1-1.14,1c.17.2.75-.24.54.4a8.93,8.93,0,0,1,1.27-2,.28.28,0,0,1,.13,0l0,.07a.94.94,0,0,0,.24-.37,3.28,3.28,0,0,0,.42-.41c.24.07.57-.62.76-.93-.25-.12,0-.49-.4-.24.05,0,0,.07-.12.28a.48.48,0,0,0-.05.14v0a4.39,4.39,0,0,1-.49.72,1.22,1.22,0,0,1,.46-.84c-.06-.25-.11-.51-.13-.65.61-.17,1.16-1,1.45-1,.18-.52.32-1.17.46-1.74a2.77,2.77,0,0,0-.15-1.52c0-.31.18-.33.28-.44a2.14,2.14,0,0,0,.07.5c0-.32,0-.78,0-1.17s-.14-.74-.31-.8c.12-.78.36.41.24-.65l.12.14a3.45,3.45,0,0,0-.79-2.69c-.23-.39-.57-.71-.81-1.11a8,8,0,0,1-.71-1.41c.06.16.09.24.06.3a6.16,6.16,0,0,0-1.27-1.52,10.94,10.94,0,0,0-1.65-1.13c-1.16-.67-2.38-1.1-3.56-1.68a1.51,1.51,0,0,0-1.29.06l-.11-.31-.79.27a3.39,3.39,0,0,1-1.5-.22,2.2,2.2,0,0,0-1.72.21l.21.15c-.48.1-1.44.53-1.44.31,0,0-.07.26-.29.24l-.07-.14a7.26,7.26,0,0,0-1,.78c-.84.42-.21-.64-1.4.16-.38.42-.8,1.36-.57,1.29s.45-.28.57-.18l-.27.36c.27.39.43.88,1.34.49a3.82,3.82,0,0,1,.32-.64l.31.06a2.38,2.38,0,0,0-.43.34c.35-.06.42-.27.53-.51a.45.45,0,0,0,.36.06,3.27,3.27,0,0,1,.35-.7c.15.13-.1.44.33.36.19-.31-.44-.25,0-.58.39.06.34.24.64-.05.09.1,0,.19-.08.29.26-.24.81-.3.92-.59.38.17,1.14-.25,1.15.19a1.51,1.51,0,0,1,.88-.41c-.28.27,0,.27.35.28s.73.09.63.36c.46-.46,1.52,0,2.3,0-.06,0-.16.07-.21,0a2.35,2.35,0,0,1,.68.51c.19-.37.83-.17,1.27-.23.31.55-.49.28-.49.68.05-.15.29-.13.51-.11s.4.08.39-.09c.23.41.24.28.24.66.32-.37.37.09.79.06.31.55-.16.46.42.72C1021.12,795.4,1020.59,795.21,1020.59,795.21Zm1,12.93h0a2.31,2.31,0,0,0,.2-.26A2.16,2.16,0,0,1,1021.55,808.14Zm-.91.94a2.88,2.88,0,0,0,.41-.39.13.13,0,0,1,0,.23C1021.09,808.82,1020.85,809,1020.64,809.08Zm3.41-1c-.09.23-.2.25-.26.25a2.66,2.66,0,0,0,.21-.36v-.05A.31.31,0,0,1,1024.05,808.09Z" transform="translate(-928.27 -723.77)"/><path class="cls-1" d="M1024,807.53s0-.06,0-.09a.57.57,0,0,0-.13.08l0,.12Z" transform="translate(-928.27 -723.77)"/><path class="cls-1" d="M1002,819.3v0a.19.19,0,0,1,0-.07S1002,819.28,1002,819.3Z" transform="translate(-928.27 -723.77)"/><polygon class="cls-1" points="76.96 83.67 76.91 83.72 77.03 83.76 76.96 83.67"/><path class="cls-1" d="M998.06,812.77a.14.14,0,0,0,0-.12S998.06,812.71,998.06,812.77Z" transform="translate(-928.27 -723.77)"/><path class="cls-1" d="M996.77,809.83c0-.15,0-.31,0-.47A2.39,2.39,0,0,0,996.77,809.83Z" transform="translate(-928.27 -723.77)"/><path class="cls-1" d="M996.18,807.43h0Z" transform="translate(-928.27 -723.77)"/><path class="cls-1" d="M1025.87,817.1a.19.19,0,0,0,.06-.07C1026.05,816.84,1026,817,1025.87,817.1Z" transform="translate(-928.27 -723.77)"/><path class="cls-1" d="M1016,822.81l.36-.18C1016.14,822.65,1016,822.64,1016,822.81Z" transform="translate(-928.27 -723.77)"/><polygon class="cls-1" points="103.38 82.32 103.38 82.32 103.4 82.25 103.38 82.32"/><path class="cls-1" d="M1016.87,822.51a.93.93,0,0,0-.52.12A1.63,1.63,0,0,0,1016.87,822.51Z" transform="translate(-928.27 -723.77)"/><path class="cls-1" d="M996.72,797.07l0-.11s0,0,0,0Z" transform="translate(-928.27 -723.77)"/><path class="cls-1" d="M996.73,796.93v-.13C996.72,796.86,996.71,796.91,996.73,796.93Z" transform="translate(-928.27 -723.77)"/><path class="cls-1" d="M996.76,796.51l0,.29C996.77,796.71,996.82,796.6,996.76,796.51Z" transform="translate(-928.27 -723.77)"/><path class="cls-1" d="M995.82,800.14l.1.05S995.87,800.15,995.82,800.14Z" transform="translate(-928.27 -723.77)"/><path class="cls-1" d="M995.73,801.11c0-.24.26-.56.26-.88l-.07,0C996,800.35,995.54,800.86,995.73,801.11Z" transform="translate(-928.27 -723.77)"/><path class="cls-1" d="M994.54,805.35l0-.88c-.1.16-.23.38-.28,0C994,805.6,994.5,804.2,994.54,805.35Z" transform="translate(-928.27 -723.77)"/><path class="cls-1" d="M994.91,808.06c-.19-.44-.15,0-.22,0C994.88,808.36,994.92,808.42,994.91,808.06Z" transform="translate(-928.27 -723.77)"/><path class="cls-1" d="M1007.1,822.76l-.14.22C1007.33,823.07,1007,822.89,1007.1,822.76Z" transform="translate(-928.27 -723.77)"/><polygon class="cls-1" points="82.72 98.72 82.42 98.5 82.22 98.7 82.72 98.72"/><polygon class="cls-1" points="84.71 100.75 84.54 100.78 85.18 100.72 84.71 100.75"/><path class="cls-1" d="M1034.42,802.62l-.3.12C1034.19,803,1034.55,803,1034.42,802.62Z" transform="translate(-928.27 -723.77)"/><path class="cls-1" d="M1028.28,789.77a.75.75,0,0,0-.54-.62C1028,789.39,1028.13,789.69,1028.28,789.77Z" transform="translate(-928.27 -723.77)"/><path class="cls-1" d="M1001.14,805.69l-.22-.23c.1.16.2.33.31.49A2,2,0,0,1,1001.14,805.69Z" transform="translate(-928.27 -723.77)"/></svg>