<svg id="Layer_1" data-name="Layer 1" xmlns="http://www.w3.org/2000/svg" viewBox="0 0 120.88 136.99"><defs><style>.cls-1{fill:#202020;}</style></defs><title>3</title><path class="cls-1" d="M924.15,716.67c0-.13-.26-.14-.29.13l.25.29Z" transform="translate(-921.96 -707.45)"/><path class="cls-1" d="M923,718.22c.05.35.27.76.6.63-.24-.37-.08-.4-.35-.83,0-.27.24-.42.34-.34,0-.12.19-.38,0-.58a1.19,1.19,0,0,0-.42,1.19C923.15,718.37,923.09,718.26,923,718.22Z" transform="translate(-921.96 -707.45)"/><path class="cls-1" d="M932.33,741.91l-.13-.13A.8.8,0,0,0,932.33,741.91Z" transform="translate(-921.96 -707.45)"/><path class="cls-1" d="M948.77,743.23c-.11.06-.15.11-.15.14S948.81,743.24,948.77,743.23Z" transform="translate(-921.96 -707.45)"/><path class="cls-1" d="M951.58,742.22l-.17.07C951.48,742.28,951.55,742.27,951.58,742.22Z" transform="translate(-921.96 -707.45)"/><path class="cls-1" d="M932.33,741.91a3.28,3.28,0,0,0,.34.31C932.76,742.14,932.5,742.05,932.33,741.91Z" transform="translate(-921.96 -707.45)"/><path class="cls-1" d="M923.29,721.91a.62.62,0,0,0-.08-.24l0,.22Z" transform="translate(-921.96 -707.45)"/><path class="cls-1" d="M926.6,737.05l-.08-.11a.55.55,0,0,0-.18,0Z" transform="translate(-921.96 -707.45)"/><path class="cls-1" d="M923.57,732.1c0,.12.33,0,.46,0a.43.43,0,0,1-.3-.17A.35.35,0,0,0,923.57,732.1Z" transform="translate(-921.96 -707.45)"/><path class="cls-1" d="M922.1,723.12l-.05-.16Z" transform="translate(-921.96 -707.45)"/><path class="cls-1" d="M929.41,740.12a.26.26,0,0,0,0,.11S929.41,740.17,929.41,740.12Z" transform="translate(-921.96 -707.45)"/><path class="cls-1" d="M943.24,717.55l0,0S943.2,717.57,943.24,717.55Z" transform="translate(-921.96 -707.45)"/><path class="cls-1" d="M938.36,721l0-.09-.15-.07Z" transform="translate(-921.96 -707.45)"/><path class="cls-1" d="M956.12,739.15h0C956,739.29,956.07,739.22,956.12,739.15Z" transform="translate(-921.96 -707.45)"/><path class="cls-1" d="M936.52,708.41c.33,0,.12.17,0,.31s-.26.31.18.27C936.55,708.91,937.27,708.35,936.52,708.41Z" transform="translate(-921.96 -707.45)"/><path class="cls-1" d="M923.24,722v.23A.62.62,0,0,0,923.24,722Z" transform="translate(-921.96 -707.45)"/><path class="cls-1" d="M936.67,709Z" transform="translate(-921.96 -707.45)"/><path class="cls-1" d="M961.88,728a.36.36,0,0,0-.14.11S961.81,728.06,961.88,728Z" transform="translate(-921.96 -707.45)"/><path class="cls-1" d="M957.79,736.35l.17-.17A.9.9,0,0,0,957.79,736.35Z" transform="translate(-921.96 -707.45)"/><path class="cls-1" d="M961.57,723.06a.6.6,0,0,0,0-.35l0,.06C961.58,722.82,961.6,722.91,961.57,723.06Z" transform="translate(-921.96 -707.45)"/><path class="cls-1" d="M960.1,718.21a.37.37,0,0,0,0,.11l.07.14Z" transform="translate(-921.96 -707.45)"/><path class="cls-1" d="M953.52,722.06a.83.83,0,0,1,.16-.28C953.52,721.91,953.22,721.35,953.52,722.06Z" transform="translate(-921.96 -707.45)"/><path class="cls-1" d="M923.13,721.9a.16.16,0,0,1,.11.14v-.15A.09.09,0,0,0,923.13,721.9Z" transform="translate(-921.96 -707.45)"/><path class="cls-1" d="M959.36,723.17a2.71,2.71,0,0,0-.08-.69A6,6,0,0,1,959.36,723.17Z" transform="translate(-921.96 -707.45)"/><path class="cls-1" d="M933.65,735.4l.15.06A.19.19,0,0,0,933.65,735.4Z" transform="translate(-921.96 -707.45)"/><path class="cls-1" d="M958.68,720.52a1,1,0,0,0,0-.43l-.1-.05Z" transform="translate(-921.96 -707.45)"/><path class="cls-1" d="M953.68,721.77h0Z" transform="translate(-921.96 -707.45)"/><path class="cls-1" d="M950.57,718.64c.47.39.46-.09.7-.16.64.45.08.43.12.75.37.27.88.33,1.08.65,0,0,0,.12-.12.1.57.24.82,1.27,1.39,1.68a.15.15,0,0,1-.06.11.86.86,0,0,1,.43-.28c.13.28.45.46.26.65-.06-.18-.16-.16-.27-.22a2.61,2.61,0,0,1,.22.27c-.22.39-.27-.38-.51-.28a4.08,4.08,0,0,1,.83,1.67c-.3.17-.38-1.06-.52-.37,0-.24-.06-.48-.09-.73-.34.69-.09-.43-.48.23a4.83,4.83,0,0,0,.3.93,2.36,2.36,0,0,1,.21,1c.23.19.27-.11.49.08a1,1,0,0,1-.16,1.19.68.68,0,0,0-.17.88c.2.26.65.42.31,1.11l-.34-.3c-.17.89.46.63,0,1.51-.07-.2,0-.73,0-.6-.43.53.11.47,0,.94h-.36a13.08,13.08,0,0,1-.41,1.47,5.66,5.66,0,0,1-.68,1.48c0-.11,0-.32-.26-.17a6.81,6.81,0,0,1-3.16,2.75l-.27.52c-.1.06-.25,0-.17-.11-.5.18.07.17-.08.41s-.42.06-.3-.12a8.25,8.25,0,0,1-1.46,1.1,4.36,4.36,0,0,1-1.78.51l.17-.13c-.77.06-.7.79-1.47.69l.13-.08c-1.66.19-3.55.5-4.76-.12-.31.43-1.54-.5-1.79.07a14,14,0,0,0-1.66-1.23c-.29-.18-.62.1-1,0l.14-.27a3.73,3.73,0,0,1-.67,0l-.05-.49-.37-.16c.12.1.2.31.13.37a1.9,1.9,0,0,1-.78-.65c-.17-.28-.25-.54-.2-.6a7,7,0,0,1-1.22-.88c.11-.05.3.11.48.21-.73-.4.16-.32-.52-.69,0,.12-.17.08-.23.1a6,6,0,0,0-.94-1.55h.25c-.29-.46-.5-1-.81-1.51a15.22,15.22,0,0,1-.68-1.71c0,.45-.35.47-.49.12l.28-.24c-.25-.18,0,.42-.38,0-.07-.49.29-.4.45-.17l-.24-.53c.09-.05.17.06.3.07-.26-.19.1-1-.26-1.28l.09,0c-.08-.61-.17-1.06-.19-1.48a11,11,0,0,1-.08-1.34c-.27,0-.18-.43-.39-.76a7.26,7.26,0,0,1,.33-1.18c.15-.4.23-.83.35-1.27,0-.66-.18-.24-.26-.57.26,0,.48-.87.53-.36a11.85,11.85,0,0,1,.37-1.23,13.08,13.08,0,0,1,.45-1.45c-.16.09-.29.22-.32.1s.36-.47.45-.37v.07a2,2,0,0,1,.21-.58,4.6,4.6,0,0,1,.38-.52,5.46,5.46,0,0,1,.93-.93,9.44,9.44,0,0,0,.92-.8,2.1,2.1,0,0,0,.67-.8l0,.07.37-.54.45-.46c.51-.3-.18.35.27.23.87-1.18,1.87-1,2.76-1.77a3,3,0,0,0,2-.28,4.59,4.59,0,0,1,2.22-.18l-.08-.18c.3-.18.38.09.6.13,0-.14-.34-.15-.15-.25,2.63-.34,5.41.71,7.73,1.91.85.46.92-.63,1.83.34l-.46.11c1.94.63,3.39,2.19,4.94,3.36-.14,0-.22,0-.35-.1.15.42,1,1.14,1.13,1,.17.25-.09.17-.06.37a1.3,1.3,0,0,0,.49.5c.19.14.32.3.28.46s-.12-.06-.17-.11c.23.16.6,1.06.71.71a7.56,7.56,0,0,1,.81,1.76c.22.11.31.41.4.67s.1.51.33.51c-.47.09,0,1.29.24,1.72-.15-.13-.1.41-.3.26,0,.51.18,1,.4.86a1.31,1.31,0,0,0-.09.72,3.63,3.63,0,0,0,.06.67c.07.43.13.83-.23,1.06a21.37,21.37,0,0,1-.06,2.27c-.14.72-.28,1.44-.47,2.13-.38-.2.44-1.51,0-1.59-.13.65-.09,1.21-.23,1.73a6.16,6.16,0,0,1-.6,1.63c-.23.28-.08-.26-.12-.41a26,26,0,0,1-1.88,3.31s0-.16.06-.28c-.13.2-.38.4-.21.51l.1-.22c.47-.13-.09,1.16,0,1.27-.16-.68-.94.8-1-.18-.08.14-.15.35,0,.42-.19.14-.3.14-.25-.14-.51.69-.12.66-.71,1.16-.07-.07,0-.2,0-.34a2.2,2.2,0,0,1-.89,1.18c0-.08-.11-.09,0-.21-.41.4-.73.76-1.08,1.13a3.61,3.61,0,0,1-1.33,1c.1-.55-.45.08-.69-.21l-.52.42.32,0a3.85,3.85,0,0,0-.68.5,1.77,1.77,0,0,1-.71.33l.34-.31-1,.49.63-.11c-.48.41.24.41-.53.62.13-.11-.55.26-.93.11h0a1.59,1.59,0,0,1-1,.43c-.15-.08,0-.42-.12-.48-.09.19-.42.31-.76.43a1.67,1.67,0,0,0-.85.35.27.27,0,0,0,0-.32l-.2.29c-.29,0-.33-.07-.31-.23-.81.09.32.43-.67.38.07,0,0-.06.19-.13-.49,0-1,0-1.42.11a3.51,3.51,0,0,1-1.37,0c-.24-.39.78,0,.49-.37-.63,0-1.29,0-2,0a7.49,7.49,0,0,1-1.92-.31l.21.09c-.15.24-.37.12-.62-.05a1.49,1.49,0,0,0-.87-.44c.16,0,.29-.21.23-.17a6,6,0,0,0-1.28-.43l-1.61-.58.21,0c-.4-.31-1.09-.76-1.51-1.12-.21,0-.45-.18-.41.09a5,5,0,0,0-.81-1,7.22,7.22,0,0,0-1-.7,3.74,3.74,0,0,1-1.54-1.71c.13.13.38.23.29.13a8.59,8.59,0,0,1-.9-.91c-.12.22,0,.22,0,.55a1.6,1.6,0,0,1-.71-.54c.48.38.29-.23.25-.5,0,.08-.15.05-.19.11-.06-.78-.49.2-.75-.75l.13,0a3.58,3.58,0,0,1-.71-.79c.15-.27.3.25.5.15-.27-.43-1-.61-1-1.18a7.22,7.22,0,0,0,.5.6,1.94,1.94,0,0,0-.2-1v0l-.26-.85,0,.24a1.25,1.25,0,0,1-.79-.76,2.39,2.39,0,0,0-.61-1.05c.71.66.29,0,.59,0,0-.24,0-.59.09-.52-.37-.31-.08-.69-.55-1.15.09,0-.1-.42.16-.4-.21-.49-.13.16-.26.16a2.63,2.63,0,0,1-.34-1.39,3.15,3.15,0,0,0-.34-1.66c-.32-1-.6-1.16-.84-2.14.14-.33.37.26.37.26a3.94,3.94,0,0,0,0-1.41c.08.11.15,0,.27-.14,0-.39-.34-.28-.16-.79a1.54,1.54,0,0,1,.36.42,8.24,8.24,0,0,1-.21-1.42c.19-.1.2.32.28.5,0-.53.09-1.38-.15-1.6l-.15.33c0-.2.24-.06.27.09.13.49-.21.64-.31.65v-.35c-.31.13-.35.48-.33.88a4.71,4.71,0,0,1,.16,1.19l-.4-.32.31.74c-.12.14-.36.25-.4-.11-.22.51.1.45-.11.89,0,.05,0,0-.07,0l.15.5c-.09-.1-.29.09-.25-.22-.19.92.39,1.43.1,1.79l0-.07c.31,1.22.31.09.81,1l-.64.74.31.06c0,.13,0,.39-.1.36.29.43.12-.1.36.13-.11.66.56,1.59.12,1.86.28.15,0-.62.35,0-.47.34.31.69.28,1.29-.31-.07-.36-.62-.39,0,.55.16.28,1.08.56,1.5.34-.13.59.87,1,1.53-.17,0,.6,1.4.88,2.12h-.06c.36-.06.78.58,1.17,1-.18.12-.31.09-.58-.1l.33.43a1,1,0,0,1,.55.37l-.29.06c.43.58,1.2.86,1.67,1.66.21-.15,0-1,.78-.45-.07.12-.21.32-.42.17a1,1,0,0,1,.35.29c-.15,0-.28-.07-.43-.1.21.37.28,0,.51.25-.14.14.09.26,0,.34s-.16-.25-.31-.27a2.07,2.07,0,0,1,.53.86c.05-.1.18-.2.4,0,.54.46,0,.34.28.7.21,0,.49.39.68.16.17.12.12.25.14.36.38.11,1.45,1,1.27.45l-.06-.07,0,0h0a7.42,7.42,0,0,1,1.62.86,4.84,4.84,0,0,0,1.64.81l0,.1c.36.07.73.2,1.08.3a3.49,3.49,0,0,0,1,.06c.2,0,.43.29.32.38.27,0,.43,0,.61,0a7.46,7.46,0,0,1,.76.2c-.57.11.17.18-.58,0a2.53,2.53,0,0,0,1.64.16c-.28.22.52.39.87.31a3.11,3.11,0,0,1-.5-.21l1.06,0-.19.34a3.63,3.63,0,0,0,2-.2,2.26,2.26,0,0,1,1.76-.19c.34-.29-.83,0-.53-.36.67,0,1.46.22,1.67.16,1-.11.71-.67,1.64-.9-.16-.06-.36-.32.24-.69.62-.21,1,.14.59.39-.14.07-.23.07-.24,0-.18.12-.43.28-.13.3l0-.15c.36,0,1.22-.39,1.1-.13.42-.3.11-.26-.26-.17.89-.16,1.2-.62,2-.93-.16,0-.34,0-.22-.11,1.22-.51.38-.48,1.08-1,.51-.14.1.46.74-.18.51-.21.28.19.15.4a2.58,2.58,0,0,1,.92-.67c.3-.17.6-.28.79-.42l-.27.36a2.59,2.59,0,0,1,.49-.5l-.34,0c.21-.13.38-.27.44-.2.09-.28-.41-.16-.17-.65.35-.12.65-.79.94-.66-.8.69.32.15-.29.82a2.82,2.82,0,0,1,.46-.45s0,.07,0,.14c.9-.56.07-.6.79-1.36,0,.22.42,0,.51-.11-.3.31-.35,0-.22-.42.52-.45.36-.65.59-.91l-.3.27c0-.21.16-.46.4-.86.13,0-.18.39,0,.29,0-.3.27-.47.53-.68a1.73,1.73,0,0,0,.6-.82c.28-.23.31.14.53-.08.23-.81.68-.64.87-1.53-.32.13-.29.18-.25-.46a13.25,13.25,0,0,1-.46,1.34,7.61,7.61,0,0,0,.09-1,4.85,4.85,0,0,1-.42,1.06c0-.46.08-.39-.2-.31.61-.33.3-1.11.8-1.6l.53.25a2.05,2.05,0,0,0,.36-.64,4.17,4.17,0,0,0,.14-.72,5.56,5.56,0,0,1,.38-1.64l-.22.38c-.15-.22.16-.79.14-1.23.19.08.3-.17.46-.33-.16,0,.19-1-.2-1.13l.29-.56a1.89,1.89,0,0,0-.19-1.14,3,3,0,0,1-.3-1.08c.24.29.34-.18.56.5,0-.35,0-.66-.16-.65.1-.22-.36-.92-.21-1.25-.11-.13-.28-.15-.36-.52,0,0,.09,0,.09,0s-.27-.55-.41-.19a3.26,3.26,0,0,0-.23-1.93,3.77,3.77,0,0,1-.53-1.8c-.38-.64-.94-1.34-1.28-1.91.07,0,.08-.06.13.06-.35-.88-.79-.12-1.25-1.06-.09-.61.48.32.37,0,.4-.52-.83-1-1.09-1.68l.15.1c-.26-.52-1.09-.8-1.76-1.35,0,0,.07,0,.07-.08a14.27,14.27,0,0,1-2.4-1c.36-.09.4.08.4-.22-.34-.17-.13.4-.8.08-.14-.24-.54-.62-.47-.9l.62.35c-.14-.49-.79-.49-1.11-.68l.11-.12c-1-.4-1.19-.09-2.25-.55l.07.15c-.73.17-.43-.37-1.13-.3l-.06-.44c-.42-.08-1.52,0-2.26-.11a5.88,5.88,0,0,1,2-.16,3.3,3.3,0,0,0-1.66-.17,1,1,0,0,1,.56,0,5,5,0,0,1-2.07.08c.24-.74-2.12-.45-2.74-.94a6.21,6.21,0,0,1-1.13.13l-1.15.11-1.22.09a12.17,12.17,0,0,0-1.25.33c.77.39-.5.17-.2.72-.37.15-.52.19-.57.16-.42,0-.83.12-1.26.19s.3-.29.21-.4c-.86.35-.46-.07-1.1.05.22.16-.17.37-.64.62a3.34,3.34,0,0,1,.78-.12,1.89,1.89,0,0,1-1.07.54,1.57,1.57,0,0,0-1.06.61l.23-.39a6.33,6.33,0,0,1-.53.43c-.21.18-.43.41-.64.63a2.44,2.44,0,0,0-.83,1.36c-.13,0-.36,0-.2-.2a8.54,8.54,0,0,0-.77,1,12.31,12.31,0,0,0-.61,1.13,11.4,11.4,0,0,1-1.07,1.94l-.08-.17c-.1.28,0,.56-.25.85,0,0-.09-.17-.15,0a2.72,2.72,0,0,1-.26,1.15l0-.37a3.58,3.58,0,0,0-.43,1.86c0,.57.07,1.12,0,1.74-.21,0-.41.23-.57.59a6.84,6.84,0,0,0-.27,1.11l-.07,0a11.42,11.42,0,0,0,.8,4.61c-.29,1.1.64,3.41,1.25,5,0-.28.3-.12.5.1.13.38.83.74.46.91l-.07-.12a1,1,0,0,0,.15.79c.18.27.44.53.63.79l.48-.26a4.14,4.14,0,0,0,1.87,2.16,5.4,5.4,0,0,1,1.88,1.4c.43.06.86.3,1.27.33l-.13.26a9.41,9.41,0,0,0,2.91.88l-.32.14c.77.19,1.09-.6,1.77-.57l.16.44c.33,0,.66.09,1,.12l1,.06a3.88,3.88,0,0,0,2-.33c0,.06,0,.19-.25.23.63,0,2.45-.2,2.08-.71.05.18.4.13.78-.06a13.1,13.1,0,0,0,1.12-.69v.29c.44-.52.4-.65,1.1-1.09.18-.05.25.13,0,.18.65-.17.35-.42,1.09-.7l-.16.31c.58-.34.48-.4.68-.77a2,2,0,0,1,.68-.41.87.87,0,0,1,.62-.12.93.93,0,0,1,.47-.76c.11,0,0,.18,0,.25a2.5,2.5,0,0,0,.93-1,2.49,2.49,0,0,1,.74-.81.18.18,0,0,0,.21,0,7.6,7.6,0,0,1-1.08,1.13c.18.19.73-.33.58.35.13-.28.32-.67.5-1.07a3.3,3.3,0,0,1,.62-1.06.5.5,0,0,1,.13,0l0,.08a.93.93,0,0,0,.23-.39,2.67,2.67,0,0,0,.36-.49c.23,0,.51-.72.69-1-.26-.08,0-.51-.43-.19,0,0,0,.08-.1.3l-.05.15v0c-.1.21-.25.49-.41.81a1.19,1.19,0,0,1,.37-.93l-.18-.63c.51-.29,1-1.15,1.32-1.22.19-1.13.38-2.68-.15-3.37-.08-.31.14-.36.22-.48.06.18,0,.4.13.5-.12-.63-.14-1.87-.55-2,0-.8.41.38.17-.68l.14.13a3.81,3.81,0,0,0-1-2.68,9,9,0,0,1-1.55-2.58c.06.17.09.24.06.31a7.15,7.15,0,0,0-3-2.74,16.24,16.24,0,0,0-4-1.24c-.78-.11-.86.13-1.29.37l-.2-.29a5.74,5.74,0,0,0-.73.48,4.25,4.25,0,0,1-1.55.22,3.69,3.69,0,0,0-.84.17,2.18,2.18,0,0,0-.8.59l.26.08a6.29,6.29,0,0,0-.81.56c-.25.2-.45.36-.5.25,0,.06,0,.26-.2.32l-.12-.11a7.86,7.86,0,0,0-.64,1.12c-.32.36-.43.25-.56.18s-.32-.09-.68.6-.13,1.65,0,1.47.28-.49.43-.45l-.07.47c.41.23.79.57,1.4-.18a5.78,5.78,0,0,1,0-.71l.29-.07-.23.49c.33-.17.22-.43.26-.68a.51.51,0,0,0,.36-.08,3.52,3.52,0,0,1,.07-.79c.18.07.07.46.43.21.06-.37-.49-.06-.24-.54.4-.07.43.13.6-.25.12.05.11.17,0,.3.14-.35.67-.56.67-.88.43,0,1-.62,1.17-.18a1.6,1.6,0,0,1,.73-.66c-.2.34.09.26.42.17s.73-.12.71.17c.33-.55,1.46-.4,2.21-.53,0,0-.14.1-.2.07a1.55,1.55,0,0,1,.75.38c.06-.18.25-.27.49-.32s.5,0,.72-.09c.36.52-.46.34-.42.73,0-.15.28-.17.48-.16s.41,0,.38-.11c.25.37.26.23.27.62.31-.38.35.12.79.05.32.55-.15.45.43.71C951.09,718.85,950.58,718.63,950.57,718.64Zm2.15,13.77h0l.18-.28Zm-.83,1.06a2.39,2.39,0,0,0,.4-.43c.1,0,.15.12.06.23C952.36,733.18,952.09,733.38,951.89,733.47Zm3.34-1.43c-.08.24-.17.28-.23.29l.17-.4,0,0A.35.35,0,0,1,955.23,732Z" transform="translate(-921.96 -707.45)"/><path class="cls-1" d="M955.11,731.48a.38.38,0,0,1,0-.1l-.13.1,0,.12Z" transform="translate(-921.96 -707.45)"/><path class="cls-1" d="M932.18,741.75l0,0s0,0,0-.08A.13.13,0,0,1,932.18,741.75Z" transform="translate(-921.96 -707.45)"/><polygon class="cls-1" points="12.96 28.61 12.93 28.68 13.06 28.67 12.96 28.61"/><path class="cls-1" d="M927.16,735.67a.24.24,0,0,0,0-.12S927.15,735.61,927.16,735.67Z" transform="translate(-921.96 -707.45)"/><path class="cls-1" d="M925.47,732.81l-.12-.46A3.26,3.26,0,0,0,925.47,732.81Z" transform="translate(-921.96 -707.45)"/><path class="cls-1" d="M924.56,730.43h0Z" transform="translate(-921.96 -707.45)"/><path class="cls-1" d="M956.18,735.35a.35.35,0,0,0,.05-.08C956.32,735.06,956.24,735.19,956.18,735.35Z" transform="translate(-921.96 -707.45)"/><path class="cls-1" d="M947,742.78l.33-.25C947.12,742.59,947,742.62,947,742.78Z" transform="translate(-921.96 -707.45)"/><polygon class="cls-1" points="37.4 15.8 37.4 15.8 37.4 15.72 37.4 15.8"/><path class="cls-1" d="M947.85,742.32a1.12,1.12,0,0,0-.52.21A1.67,1.67,0,0,0,947.85,742.32Z" transform="translate(-921.96 -707.45)"/><path class="cls-1" d="M923.57,719.7l0-.12-.05,0Z" transform="translate(-921.96 -707.45)"/><path class="cls-1" d="M923.56,719.56v-.14A.21.21,0,0,0,923.56,719.56Z" transform="translate(-921.96 -707.45)"/><path class="cls-1" d="M923.53,719.13l0,.29C923.57,719.32,923.6,719.21,923.53,719.13Z" transform="translate(-921.96 -707.45)"/><path class="cls-1" d="M923.13,723l.1,0A.15.15,0,0,0,923.13,723Z" transform="translate(-921.96 -707.45)"/><path class="cls-1" d="M923.21,724c0-.24.19-.61.1-.94l-.08,0C923.39,723.18,923,723.78,923.21,724Z" transform="translate(-921.96 -707.45)"/><path class="cls-1" d="M922.65,728.51l-.15-.89c-.07.17-.16.41-.29,0C922.19,728.82,922.39,727.35,922.65,728.51Z" transform="translate(-921.96 -707.45)"/><path class="cls-1" d="M923.37,731.22c-.21-.44-.14.07-.21.06C923.36,731.54,923.41,731.6,923.37,731.22Z" transform="translate(-921.96 -707.45)"/><path class="cls-1" d="M938,744.36l-.1.24C938.24,744.65,937.88,744.5,938,744.36Z" transform="translate(-921.96 -707.45)"/><polygon class="cls-1" points="19.88 35.97 19.53 35.82 19.37 36.06 19.88 35.97"/><polygon class="cls-1" points="22.28 37.59 22.12 37.65 22.75 37.45 22.28 37.59"/><path class="cls-1" d="M960.68,718.94l-.24.24C960.59,719.39,960.94,719.31,960.68,718.94Z" transform="translate(-921.96 -707.45)"/><path class="cls-1" d="M949.72,709.18a.82.82,0,0,0-.77-.37A6.18,6.18,0,0,0,949.72,709.18Z" transform="translate(-921.96 -707.45)"/><path class="cls-1" d="M930.4,735.71l-.29-.17a3.32,3.32,0,0,0,.47.37A1.71,1.71,0,0,1,930.4,735.71Z" transform="translate(-921.96 -707.45)"/><path class="cls-1" d="M990.1,758.15c.11,0,.13-.26-.11-.29l-.27.26Z" transform="translate(-921.96 -707.45)"/><path class="cls-1" d="M988.71,757.11c-.32.09-.69.29-.58.63.34-.24.37-.1.76-.4.25,0,.38.21.31.31.11,0,.33.19.52,0a.92.92,0,0,0-1.08-.36C988.57,757.23,988.68,757.17,988.71,757.11Z" transform="translate(-921.96 -707.45)"/><path class="cls-1" d="M968.71,767.19l.09-.14A.56.56,0,0,0,968.71,767.19Z" transform="translate(-921.96 -707.45)"/><path class="cls-1" d="M969.71,782.11c-.07-.1-.12-.13-.15-.12S969.7,782.14,969.71,782.11Z" transform="translate(-921.96 -707.45)"/><path class="cls-1" d="M970.9,784.52l-.08-.14C970.84,784.45,970.86,784.51,970.9,784.52Z" transform="translate(-921.96 -707.45)"/><path class="cls-1" d="M968.71,767.19l-.23.35C968.57,767.6,968.62,767.37,968.71,767.19Z" transform="translate(-921.96 -707.45)"/><path class="cls-1" d="M985.4,757.48a.67.67,0,0,0,.21-.09l-.2,0Z" transform="translate(-921.96 -707.45)"/><path class="cls-1" d="M972.07,761.28l.09-.1a1.11,1.11,0,0,0,0-.17Z" transform="translate(-921.96 -707.45)"/><path class="cls-1" d="M976.23,758c-.11.05,0,.32,0,.45a.38.38,0,0,1,.13-.3A.52.52,0,0,0,976.23,758Z" transform="translate(-921.96 -707.45)"/><path class="cls-1" d="M984.28,756.34l.14-.05Z" transform="translate(-921.96 -707.45)"/><path class="cls-1" d="M969.75,764.27a.14.14,0,0,0-.11,0A.2.2,0,0,0,969.75,764.27Z" transform="translate(-921.96 -707.45)"/><path class="cls-1" d="M993,771.1s0,0,0-.05S993,771.1,993,771.1Z" transform="translate(-921.96 -707.45)"/><path class="cls-1" d="M988.34,772.94l0-.08-.14-.07Z" transform="translate(-921.96 -707.45)"/><path class="cls-1" d="M974.12,788.28h0C974,788.21,974,788.25,974.12,788.28Z" transform="translate(-921.96 -707.45)"/><path class="cls-1" d="M1007,773.87c-.19.54-.42-.79-.61,0C1006.48,773.79,1006.91,774.53,1007,773.87Z" transform="translate(-921.96 -707.45)"/><path class="cls-1" d="M985.28,757.44h0Z" transform="translate(-921.96 -707.45)"/><path class="cls-1" d="M1006.38,773.88h0v0Z" transform="translate(-921.96 -707.45)"/><path class="cls-1" d="M984.47,792.82a.31.31,0,0,0-.09-.14S984.4,792.75,984.47,792.82Z" transform="translate(-921.96 -707.45)"/><path class="cls-1" d="M976.8,789.49l.16.13A.83.83,0,0,0,976.8,789.49Z" transform="translate(-921.96 -707.45)"/><path class="cls-1" d="M988.85,792.78a.49.49,0,0,0,.3,0,.1.1,0,0,0,0,0A.25.25,0,0,1,988.85,792.78Z" transform="translate(-921.96 -707.45)"/><path class="cls-1" d="M993.32,792.23l-.1,0-.13,0Z" transform="translate(-921.96 -707.45)"/><path class="cls-1" d="M998.17,777.89a.87.87,0,0,1,.31,0C998.27,777.81,998.44,777.3,998.17,777.89Z" transform="translate(-921.96 -707.45)"/><path class="cls-1" d="M985.4,757.32a.16.16,0,0,1-.12.12l.13,0S985.43,757.34,985.4,757.32Z" transform="translate(-921.96 -707.45)"/><path class="cls-1" d="M989,790.56l.64,0A4.23,4.23,0,0,0,989,790.56Z" transform="translate(-921.96 -707.45)"/><path class="cls-1" d="M984.89,767.86l0,.13A.17.17,0,0,0,984.89,767.86Z" transform="translate(-921.96 -707.45)"/><path class="cls-1" d="M991.51,790.33a.86.86,0,0,0,.39.13.17.17,0,0,0,.06-.08Z" transform="translate(-921.96 -707.45)"/><path class="cls-1" d="M998.48,777.84Z" transform="translate(-921.96 -707.45)"/><path class="cls-1" d="M998.14,774.23c.09.47.4.14.63.2.25.62-.22.34-.37.56a2.5,2.5,0,0,0,.29.5.88.88,0,0,1,.14.47c-.06,0-.09.08-.16,0a1.31,1.31,0,0,1,0,.88,2.15,2.15,0,0,0-.09,1,.21.21,0,0,1-.12,0,1,1,0,0,1,.51.12c-.12.25,0,.57-.28.56.08-.15,0-.21,0-.31l0,.31c-.41.07.06-.41-.17-.52a3,3,0,0,1-.56,1.54c-.3-.12.45-.88-.1-.59l.45-.47c-.71.15.22-.3-.5-.21-.49.61-.33.85-.93,1.39,0,.26.25.15.26.41a.82.82,0,0,1-.92.53c-.27,0-.49-.09-.71.33-.05.31.1.75-.58.85v-.44c-.7.34-.17.7-1,.8.09-.19.53-.36.4-.35-.6-.08-.26.36-.68.48l-.18-.3a5.7,5.7,0,0,1-2.62.56c.06-.1.23-.19,0-.31a4.23,4.23,0,0,1-3.15-1.53,3.09,3.09,0,0,1-.53,0c-.08-.07-.06-.23.06-.2-.25-.39-.14.13-.37.07s-.13-.36,0-.31a3.85,3.85,0,0,1-2.09-2.32.62.62,0,0,0,.16.1c-.21-.64-.88-.41-.92-1.1l.1.09c-.47-1.39-1-3-.61-4.15-.21-.09-.15-.46-.13-.8s.12-.66-.18-.75c.4-.78.46-.53,1-1.54.09-.28-.17-.53-.08-.92l.28.13-.08-.61a3.43,3.43,0,0,1,.47,0l.12-.33c-.09.1-.28.17-.34.11a1.67,1.67,0,0,1,.54-.69.78.78,0,0,1,.55-.16,5.92,5.92,0,0,1,.74-1.08c.06.11-.09.28-.16.44.32-.66.3.18.6-.44-.11,0-.08-.17-.1-.23a4.18,4.18,0,0,0,1.38-.76v.24a12,12,0,0,1,2.89-1.08c-.4,0-.39-.4-.07-.5l.19.3c.18-.24-.36-.06,0-.38.43,0,.33.31.12.46a2.5,2.5,0,0,1,.48-.18c0,.09-.07.15-.09.27.19-.21.88.27,1.15-.11l0,.1c.54,0,.94,0,1.32,0s.72,0,1.17.07c.07-.27.4-.13.72-.29.66.23,1.29.68,2,1,.57.11.24-.15.55-.19-.07.25.68.57.21.56.85.44,1.1.53,2.19,1.13,0-.16-.13-.29,0-.31s.35.39.24.47l-.06,0a2.82,2.82,0,0,1,.82.73,5.48,5.48,0,0,1,.55,1c.19.32.28.7.44,1a2.53,2.53,0,0,0,.56.74l0,0a10.86,10.86,0,0,1,.71.93c.13.51-.28-.23-.3.19a2.74,2.74,0,0,1,.59,1.43c0,.23.06.45.12.67a2.68,2.68,0,0,0,.18.7,2.88,2.88,0,0,0-.21,1.83,3.59,3.59,0,0,1-.29,2l.19,0c.13.3-.15.32-.22.5.14,0,.2-.26.27-.08a8.81,8.81,0,0,1-1.1,3.41,17.2,17.2,0,0,1-1,1.53c-.39.46-.71,1-1.12,1.37-.57.63.43,1-.65,1.52l0-.45c-.89,1.57-2.64,2.35-4,3.4.06-.11,0-.2.16-.27-.43-.05-1.2.58-1.15.74-.26.08-.13-.14-.32-.17-.38,0-.75.63-1,.45,0,0,.07-.11.13-.14-.19.18-1.07.3-.77.5-.67,0-1.2.44-1.75.35-.29.36-1.13,0-1.19.47,0-.46-1.18-.23-1.6,0,.14-.14-.37-.14-.21-.33-.47,0-.9.1-.82.33a1.67,1.67,0,0,0-1.28-.14c-.4,0-.76.08-1-.29a14.7,14.7,0,0,1-4-.42c.19-.42,1.38.4,1.46-.1-.61-.06-1.1-.09-1.6-.13a4.31,4.31,0,0,1-1.5-.47c-.26-.19.24-.09.37-.13a31.33,31.33,0,0,1-3.13-1.43s.14,0,.26,0c-.19-.11-.38-.33-.48-.15l.21.07c.13.44-1.07,0-1.19.14.64-.26-.8-.76.12-1-.14-.05-.34-.08-.4,0-.14-.16-.14-.27.12-.26-.66-.39-.6,0-1.13-.5.07-.08.2,0,.33,0a1.71,1.71,0,0,1-1.16-.65c.06,0,.07-.12.19,0-.74-.67-1.6-.89-2.16-1.9.55,0-.12-.39.14-.66l-.43-.41v.3c-.3-.43-.77-.68-.91-1.13l.34.25c-.2-.26-.38-.54-.56-.81l.15.55c-.43-.37-.38.29-.64-.39.1.12-.25-.48-.17-.83h0a1.24,1.24,0,0,1-.52-.8c.07-.13.42-.08.46-.17-.4-.11-.52-1.11-.92-1.33a.27.27,0,0,0,.32,0l-.3-.13c0-.26,0-.3.2-.31-.15-.72-.4.35-.42-.55,0,.06.06,0,.13.15a13.88,13.88,0,0,1-.42-2.47c.34-.26.15.69.44.39a10.65,10.65,0,0,1-.35-3.5l-.06.21c-.53-.22.37-.81.2-1.41,0,.15.26.24.21.19.23-.74.17-1.56.4-2.73l.08.18c.26-.39.48-1.1.74-1.52-.07-.19.07-.43-.18-.36a2.53,2.53,0,0,0,.75-.87,6.08,6.08,0,0,0,.45-1,2.77,2.77,0,0,1,1.28-1.6c-.1.13-.15.37-.07.27a9.82,9.82,0,0,1,.66-.93c-.23-.09-.21,0-.51.07a1.26,1.26,0,0,1,.36-.72c-.26.49.26.25.51.19-.08,0-.08-.14-.14-.17.73-.11-.24-.41.57-.77l0,.12a2.68,2.68,0,0,1,.62-.73c.27.13-.19.3-.07.49.35-.3.43-1,.95-1-.12.18-.37.33-.48.51a1.3,1.3,0,0,0,.86-.24h0a6.67,6.67,0,0,1,.74-.29l-.22,0a1,1,0,0,1,.6-.79,1.94,1.94,0,0,0,.89-.65c-.52.73,0,.28.06.58.21,0,.52,0,.48.08.25-.36.62-.06,1-.57.06.09.38-.11.38.15.42-.22-.16-.13-.17-.26.61-.56,1.75-.1,2.69-.72.88-.31,1-.68,1.89-.88.3.14-.23.37-.23.37a2.59,2.59,0,0,0,1.27,0c-.09.08,0,.15.13.27.35,0,.25-.37.71-.19a1.61,1.61,0,0,1-.37.37c.41-.07.83-.2,1.27-.26.09.18-.29.23-.45.33.49-.06,1.24,0,1.44-.23l-.29-.14c.18,0,0,.24-.09.27a.4.4,0,0,1-.58-.29h.31c-.24-.63-1.26-.06-1.86-.1l.28-.41-.66.34c-.13-.12-.23-.35.09-.41-.46-.21-.4.14-.8-.07,0,0,0,0,0-.07l-.44.15c.08-.1-.1-.29.19-.25-.84-.21-1.27.44-1.62.15l.07,0c-1.09.32-.07.32-.82.82-.23-.22-.47-.43-.71-.63l0,.32c-.11,0-.34,0-.33-.08-.36.31.11.11-.08.37-.62-.16-1.41.57-1.69.14-.11.28.56,0,.06.34-.35-.42-.61.34-1.16.31,0-.31.55-.36,0-.39-.09.54-.95.33-1.3.62.16.34-.77.58-1.29,1.1,0-.14-1.24.62-1.83,1l0-.06c.15.37-.44.76-.72,1.2-.14-.17-.14-.3,0-.57l-.33.35a.83.83,0,0,1-.24.57l-.12-.27a12.52,12.52,0,0,1-1.22,1.76c.19.18.95-.1.61.68-.13-.06-.35-.16-.27-.38,0,.07,0,.28-.18.37v-.41c-.3.24,0,.26-.13.5-.16-.12-.23.11-.34,0s.19-.19.2-.32a1.88,1.88,0,0,1-.72.6c.11,0,.23.13.12.36-.3.56-.31.07-.58.36.05.2-.27.5,0,.64-.08.17-.22.14-.32.18,0,.36-.58,1.45-.14,1.21l0-.07V767h0c-.1,1.09-.87,2.06-1,3.16l-.09,0a5.91,5.91,0,0,0,0,1.89c0,.18-.21.43-.32.34a2.52,2.52,0,0,1,0,1.25c-.17-.49-.15.18-.12-.5-.09.63-.26.8.06,1.47-.26-.22-.3.51-.18.81,0-.15.08-.31.14-.47a8.54,8.54,0,0,1,.1.95l-.35-.12a2.88,2.88,0,0,0,.43,1.79,2,2,0,0,1,.36,1.56c.33.26-.08-.73.28-.52.15.58-.08,1.35,0,1.53.16.87.76.53,1,1.36,0-.16.28-.38.69.11.24.53-.07.89-.34.61-.08-.12-.09-.21-.05-.22-.13-.15-.3-.35-.3-.08h.15c0,.33.49,1,.22,1,.34.33.27.06.14-.26a10.73,10.73,0,0,0,1.05,1.74c0-.14,0-.32.09-.22.61,1,.49.28,1,.84.16.46-.44.17.21.66.25.44-.16.29-.37.21.67.39.86,1.1,1.15,1.43l-.35-.21a2.57,2.57,0,0,1,.49.4v-.33c.14.19.29.31.22.38.28,0,.13-.41.61-.26.15.29.78.48.67.79-.68-.68-.12.32-.78-.16a1.75,1.75,0,0,1,.45.37c0,.05-.07,0-.13,0,.55.8.55,0,1.31.56-.2.07,0,.4.13.46-.31-.23,0-.34.38-.27.43.45.6.29.86.46l-.27-.25c.2-.08.44.09.83.26,0,.13-.38-.12-.28,0,.55,0,.74.81,1.43.92.22.23-.13.31.08.5.77.09.62.58,1.42.68-.12-.3-.17-.26.42-.28-.41-.1-.83-.19-1.23-.33a8.61,8.61,0,0,0,.88,0,6.78,6.78,0,0,1-1-.31c.43,0,.36,0,.28-.24.32.56,1,.2,1.47.65l-.22.54c.78.56,1.62.25,2.71.66l-.34-.19c.21-.2.71.15,1.1.12-.08.19.14.3.28.45,0-.15.85.17,1-.21l.49.31c.94.22,1.12-.45,2-.35-.27.21.13.37-.48.49.3,0,.58.07.58-.07.18.14.84-.27,1.12-.09.13-.09.16-.29.5-.28,0,0,0,.09,0,.09s.52-.17.21-.36c1,.55,2.53-.31,3.41,0,.64-.2,1.37-.51,1.94-.7,0,.07,0,.09-.09.11.85-.09.28-.71,1.22-.85.56.11-.4.34-.07.34.39.57,1-.54,1.73-.49l-.12.1c.55,0,.93-.8,1.61-1.19,0,0,0,.07.06.08a3.61,3.61,0,0,1,.66-.92l.83-.94c0,.35-.17.33.11.43.23-.26-.35-.25.1-.74.25,0,.67-.33.92-.19l-.44.49c.49,0,.57-.63.85-.83l.09.13c.6-.81.32-1,.94-1.9l-.16,0c0-.7.45-.29.51-.92l.43,0c.09-.4.33-1.35.49-2a4.84,4.84,0,0,1-.19,1.78c.19-.34.6-1.17.47-1.44,0,.15,0,.38-.13.48a3.62,3.62,0,0,1,.28-1.85c.34.19.54-.26.74-.81s.33-1.2.7-1.41c-.05-1.38.54-2.68.38-4.31-.58.6,0-.47-.64-.32-.09-.36-.09-.5-.06-.53a9.07,9.07,0,0,0,.2-1.16c.11-.29.22.32.33.27-.12-.82.18-.39.22-1-.19.16-.36-.22-.4-.7,0,.24-.08.48-.12.72a1.5,1.5,0,0,1-.2-1.07,1.21,1.21,0,0,0-.27-1.06,2.06,2.06,0,0,1,.31.28c-.29-.54-.94-2.1-1.7-2.31,0-.13.07-.34.25-.14a3.52,3.52,0,0,0-.7-.91,8.16,8.16,0,0,0-.87-.8,10.21,10.21,0,0,1-1.53-1.35l.17,0c-.24-.13-.53-.06-.71-.38,0,0,.17-.06.07-.14a2.35,2.35,0,0,1-1-.41h.34a3,3,0,0,0-1.61-.68c-.51-.11-1-.08-1.58-.21.07-.21-.14-.45-.44-.64a6.72,6.72,0,0,0-1-.41l0-.06a9.15,9.15,0,0,0-4.28.26,4,4,0,0,0-2.14,0c-.85.2-1.75.49-2.51.72.25,0,.11.33-.11.48s-.69.76-.86.37l.12-.06c-.44-.2-1,.28-1.49.67l.26.47a2.06,2.06,0,0,0-1.13.64,4.37,4.37,0,0,0-.85,1.1c-.22.4-.45.78-.64,1.1a1.41,1.41,0,0,1-.6.7,4.25,4.25,0,0,1-.12.6,4.35,4.35,0,0,0,0,.61l-.26-.1A6.63,6.63,0,0,0,981,772l-.2-.27c0,.73.79.92.83,1.53l-.4.22c.07.6,0,1.22.14,1.82a5.33,5.33,0,0,0,.19.9,3.54,3.54,0,0,0,.46.8.24.24,0,0,1-.28-.17c.13.56.63,2.19,1.06,1.73-.37.2.59,1.11,1.08,1.53l-.28.08a2.47,2.47,0,0,1,1.27.69c.08.16-.07.27-.17,0,.28.56.51.14.92.75l-.32-.05c.45.43.47.34.86.39s.9.71.85,1a.89.89,0,0,1,.84.11c0,.11-.14.1-.22.1.87.67,1.55.25,2.15.73a.2.2,0,0,0,.08.19,11.41,11.41,0,0,1-1.39-.45c-.1.24.58.49-.09.66l1.15,0a4.68,4.68,0,0,1,1.14,0,.39.39,0,0,1,.08.1l-.07,0a.79.79,0,0,0,.43,0,1.45,1.45,0,0,0,.57.09c.08.2.84.1,1.18,0-.07-.27.38-.3-.07-.46.06,0-.06,0-.28.09l-.14,0,0,0-.85,0a1,1,0,0,1,.92-.15c.15-.21.3-.43.39-.53.5.35,1.42.26,1.63.46,1-.48,2.2-1.2,2.37-2,.18-.23.35-.09.48-.1-.09.15-.25.28-.27.39.18-.24.5-.52.75-.8s.4-.58.3-.75c.6-.42,0,.55.59-.26v.18a3.12,3.12,0,0,0,1.24-2.31,10.9,10.9,0,0,1,.58-2.73c0,.15-.08.23-.14.26a4.92,4.92,0,0,0-.84-3.69,11.06,11.06,0,0,0-2.81-2.57c-.62-.37-.78-.17-1.23-.1l-.07-.33a5.25,5.25,0,0,0-.78.2,3.46,3.46,0,0,1-1.4-.3,2,2,0,0,0-.78-.11,1.5,1.5,0,0,0-.87.3l.22.15c-.48,0-1.34.6-1.37.36,0,0,0,.24-.25.25l-.09-.13a4.19,4.19,0,0,0-.78.91c-.37.26-.46.14-.58.05s-.28-.13-.72.47c-.28.51-.22,1.56-.06,1.39s.29-.42.44-.37l-.09.42c.39.25.78.55,1.38,0a2,2,0,0,1,0-.6h.28l-.24.36c.32-.08.23-.31.26-.53a.51.51,0,0,0,.34,0,2.26,2.26,0,0,1,.12-.68c.15.12,0,.41.36.32.1-.31-.44-.21-.14-.56.34,0,.34.23.56-.06.09.1.06.19,0,.29a1.55,1.55,0,0,1,.4-.3c.15-.09.3-.15.34-.29.33.15,1-.23,1,.2a1.36,1.36,0,0,1,.79-.37c-.26.27,0,.25.29.3s.64.12.52.39a1,1,0,0,1,.9-.09c.35.11.72.24,1.06.31-.05,0-.15,0-.19,0a1.19,1.19,0,0,1,.43.58c.25-.28.78,0,1.15,0,0,.58-.52.13-.67.49.2-.25.72.3.82,0,0,.41.06.31-.13.61.23-.11.29-.06.34,0s.06.22.25.28c-.06.52-.35.24-.1.69C998.4,774.61,998.14,774.23,998.14,774.23Zm-7.4,8.39h0l.29,0Zm-1.14-.23.49.15c0,.11-.05.2-.16.16C990,782.65,989.75,782.52,989.6,782.39Zm2.57,2.23c-.24,0-.32,0-.35-.06l.41,0,0,0A.39.39,0,0,1,992.17,784.62Z" transform="translate(-921.96 -707.45)"/><path class="cls-1" d="M992.55,784.22l.09,0-.14,0-.07.1Z" transform="translate(-921.96 -707.45)"/><path class="cls-1" d="M968.82,767l0,0s0,0,.06,0Z" transform="translate(-921.96 -707.45)"/><polygon class="cls-1" points="62.43 61.55 62.37 61.52 62.38 61.63 62.43 61.55"/><path class="cls-1" d="M973.46,761.68a.17.17,0,0,0,.12,0A.27.27,0,0,0,973.46,761.68Z" transform="translate(-921.96 -707.45)"/><path class="cls-1" d="M975.81,759.9c.14,0,.27-.11.41-.15A2,2,0,0,0,975.81,759.9Z" transform="translate(-921.96 -707.45)"/><path class="cls-1" d="M977.86,758.92a.53.53,0,0,0,0-.13h0Z" transform="translate(-921.96 -707.45)"/><path class="cls-1" d="M977.66,787.81l.08,0C977.94,787.9,977.81,787.84,977.66,787.81Z" transform="translate(-921.96 -707.45)"/><path class="cls-1" d="M970,780.42a2.16,2.16,0,0,1,.27.25C970.23,780.49,970.17,780.35,970,780.42Z" transform="translate(-921.96 -707.45)"/><polygon class="cls-1" points="66.94 83.11 66.94 83.11 67.01 83.11 66.94 83.11"/><path class="cls-1" d="M970.52,781.12a1,1,0,0,0-.23-.45A1.28,1.28,0,0,0,970.52,781.12Z" transform="translate(-921.96 -707.45)"/><path class="cls-1" d="M987.38,757.69l.11,0a.08.08,0,0,1,0-.05Z" transform="translate(-921.96 -707.45)"/><path class="cls-1" d="M987.51,757.67h.12C987.57,757.65,987.53,757.65,987.51,757.67Z" transform="translate(-921.96 -707.45)"/><path class="cls-1" d="M987.89,757.63l-.26,0C987.72,757.67,987.82,757.7,987.89,757.63Z" transform="translate(-921.96 -707.45)"/><path class="cls-1" d="M984.43,757.37l0,.1A.13.13,0,0,0,984.43,757.37Z" transform="translate(-921.96 -707.45)"/><path class="cls-1" d="M983.52,757.44c.22,0,.56.19.85.11l0-.08C984.27,757.63,983.72,757.26,983.52,757.44Z" transform="translate(-921.96 -707.45)"/><path class="cls-1" d="M979.44,757a7.05,7.05,0,0,1,.8-.15c-.16-.07-.39-.17,0-.29C979.12,756.52,980.47,756.71,979.44,757Z" transform="translate(-921.96 -707.45)"/><path class="cls-1" d="M977,757.79c.38-.24-.08-.14-.08-.21C976.72,757.79,976.68,757.85,977,757.79Z" transform="translate(-921.96 -707.45)"/><path class="cls-1" d="M967.4,772.56l-.25-.06C967.16,772.85,967.25,772.51,967.4,772.56Z" transform="translate(-921.96 -707.45)"/><polygon class="cls-1" points="46.92 68.44 47.03 68.11 46.78 68 46.92 68.44"/><polygon class="cls-1" points="45.58 70.82 45.5 70.68 45.75 71.22 45.58 70.82"/><path class="cls-1" d="M992.58,792.65l-.16-.29C992.2,792.45,992.21,792.81,992.58,792.65Z" transform="translate(-921.96 -707.45)"/><path class="cls-1" d="M1003.64,785.33a.67.67,0,0,0,.5-.58C1004,785,1003.69,785.18,1003.64,785.33Z" transform="translate(-921.96 -707.45)"/><path class="cls-1" d="M984.38,764.78l.16-.26a2.51,2.51,0,0,0-.35.44Z" transform="translate(-921.96 -707.45)"/><path class="cls-1" d="M1014.33,813.92c.09-.08,0-.28-.17-.23l-.16.34Z" transform="translate(-921.96 -707.45)"/><path class="cls-1" d="M1012.8,813.38c-.25.19-.49.55-.27.81.19-.37.27-.26.51-.64.22,0,.4.09.37.21.07-.09.34.06.46-.15a.87.87,0,0,0-1.06,0C1012.72,813.53,1012.79,813.44,1012.8,813.38Z" transform="translate(-921.96 -707.45)"/><path class="cls-1" d="M1002.83,831.25v-.16A.43.43,0,0,0,1002.83,831.25Z" transform="translate(-921.96 -707.45)"/><path class="cls-1" d="M1012.6,841.46c-.11,0-.16,0-.18,0S1012.61,841.49,1012.6,841.46Z" transform="translate(-921.96 -707.45)"/><path class="cls-1" d="M1014.78,842.71l-.14-.07C1014.69,842.69,1014.74,842.72,1014.78,842.71Z" transform="translate(-921.96 -707.45)"/><path class="cls-1" d="M1002.83,831.25a1.89,1.89,0,0,0,0,.41C1003,831.64,1002.85,831.45,1002.83,831.25Z" transform="translate(-921.96 -707.45)"/><path class="cls-1" d="M1010.18,815a.5.5,0,0,0,.14-.15l-.15.1Z" transform="translate(-921.96 -707.45)"/><path class="cls-1" d="M1002,824.88v-.12l-.12-.12Z" transform="translate(-921.96 -707.45)"/><path class="cls-1" d="M1003.36,820.09c-.06.1.18.25.28.34a.35.35,0,0,1-.08-.3A.37.37,0,0,0,1003.36,820.09Z" transform="translate(-921.96 -707.45)"/><path class="cls-1" d="M1008.73,814.51l.1-.11Z" transform="translate(-921.96 -707.45)"/><path class="cls-1" d="M1001.91,828.46l-.1,0A.14.14,0,0,0,1001.91,828.46Z" transform="translate(-921.96 -707.45)"/><path class="cls-1" d="M1028.63,820.35a.11.11,0,0,0,0-.05S1028.6,820.34,1028.63,820.35Z" transform="translate(-921.96 -707.45)"/><path class="cls-1" d="M1024.16,820.77l0-.08-.13-.08Z" transform="translate(-921.96 -707.45)"/><path class="cls-1" d="M1019.15,844.15h0C1019,844.15,1019.07,844.15,1019.15,844.15Z" transform="translate(-921.96 -707.45)"/><path class="cls-1" d="M1039.67,819c.1.53-.74-.41-.51.32C1039.2,819.19,1039.92,819.56,1039.67,819Z" transform="translate(-921.96 -707.45)"/><path class="cls-1" d="M1010.06,815l-.15.09A.49.49,0,0,0,1010.06,815Z" transform="translate(-921.96 -707.45)"/><path class="cls-1" d="M1039.16,819.31h0l0,.07Z" transform="translate(-921.96 -707.45)"/><path class="cls-1" d="M1029.68,843.8a.45.45,0,0,0-.13-.1S1029.59,843.76,1029.68,843.8Z" transform="translate(-921.96 -707.45)"/><path class="cls-1" d="M1021.88,843.9l.19,0A.54.54,0,0,0,1021.88,843.9Z" transform="translate(-921.96 -707.45)"/><path class="cls-1" d="M1033.51,842.29a.46.46,0,0,0,.27-.09h0A.26.26,0,0,1,1033.51,842.29Z" transform="translate(-921.96 -707.45)"/><path class="cls-1" d="M1037.26,840.24h-.1l-.1.1Z" transform="translate(-921.96 -707.45)"/><path class="cls-1" d="M1029.89,827.91a1.32,1.32,0,0,1,.3.07C1030,827.87,1030.33,827.46,1029.89,827.91Z" transform="translate(-921.96 -707.45)"/><path class="cls-1" d="M1010.11,814.84a.18.18,0,0,1-.05.16.41.41,0,0,1,.11-.07S1010.14,814.85,1010.11,814.84Z" transform="translate(-921.96 -707.45)"/><path class="cls-1" d="M1032.84,840.17c.18-.07.38-.12.56-.2C1033.24,840,1033,840.09,1032.84,840.17Z" transform="translate(-921.96 -707.45)"/><path class="cls-1" d="M1015.48,817.14l-.05.12S1015.49,817.18,1015.48,817.14Z" transform="translate(-921.96 -707.45)"/><path class="cls-1" d="M1034.94,839.13a.73.73,0,0,0,.39,0s0-.06,0-.1Z" transform="translate(-921.96 -707.45)"/><path class="cls-1" d="M1030.19,828Z" transform="translate(-921.96 -707.45)"/><path class="cls-1" d="M1031.38,824.69c-.13.44.3.3.47.45-.07.63-.35.19-.58.31,0,.36.12.77,0,1-.06,0-.11,0-.14-.07,0,.51-.68,1-.8,1.6,0,0-.09,0-.11,0a1,1,0,0,1,.41.31c-.18.19-.2.51-.44.39.13-.1.08-.18.08-.28l-.14.25c-.41-.11.21-.32,0-.52-.29.43-.62,1-1,1.18-.25-.24.71-.63.1-.57a5.77,5.77,0,0,0,.56-.27c-.69-.12.3-.2-.38-.38-.65.38-.59.65-1.3,1-.07.25.18.22.11.47a.75.75,0,0,1-1,.19c-.25-.12-.43-.23-.75.1-.12.28-.1.73-.74.64l.11-.42c-.73.13-.33.64-1.17.49.13-.14.58-.21.46-.23-.54-.22-.33.26-.74.28l-.1-.34-.61.1-.65,0a4.87,4.87,0,0,1-1.37-.06c.08-.09.25-.15.07-.3a5.41,5.41,0,0,1-3.1-1.64l-.52,0c-.07-.07-.06-.23,0-.21-.27-.35-.12.14-.36.1s-.15-.33,0-.31a3.77,3.77,0,0,1-2.25-2l.17.07c-.27-.56-.89-.25-1-.89l.11.07c-.6-1.22-1.27-2.67-.85-3.7-.21-.08-.18-.41-.16-.72s.12-.58-.16-.68a1.73,1.73,0,0,1,.47-.59,3.44,3.44,0,0,0,.52-.74c.15-.22-.15-.52,0-.87l.28.14a5.06,5.06,0,0,1,0-.56h.44a1.14,1.14,0,0,1,.13-.3c-.11.08-.28.13-.34.06.21-.51,1-.82,1.1-.69l.35-.5.41-.47c0,.12-.09.27-.17.43.33-.63.28.19.59-.38-.11,0-.07-.18-.09-.24a1.63,1.63,0,0,0,.65-.21,5.47,5.47,0,0,0,.71-.41v.23a15.17,15.17,0,0,1,2.79-1c-.39,0-.38-.39-.08-.5l.19.3c.16-.23-.35-.07,0-.38.41,0,.32.33.12.47l.46-.19c0,.1-.06.16-.08.29.17-.24.85.23,1.1-.14l0,.09a20.33,20.33,0,0,1,2.38-.09c.05-.28.38-.18.67-.38.63.18,1.28.54,2,.71.57,0,.22-.18.51-.27,0,.26.72.46.28.52.9.26,1.15.32,2.32.62-.07-.15-.19-.26-.08-.3s.41.31.32.41h-.06a3.59,3.59,0,0,1,1.84,1.18,3.67,3.67,0,0,0,1.57,1.17l-.06,0c.35.14.68.32,1,.49.35.37-.36-.05-.18.31,1.16.49,1.28,1.33,2.09,1.9a2.63,2.63,0,0,0,.72,1.59,3,3,0,0,1,.77,1.71l.14-.12c.26.16,0,.32.06.51.12-.08,0-.32.19-.21a10.11,10.11,0,0,1,.5,6.56c-.14.77.86.59.25,1.53a4,4,0,0,0-.26-.35c.06,1.7-1,3.15-1.58,4.61,0-.12-.09-.18,0-.31-.38.14-.72,1-.59,1.1-.19.17-.18-.07-.35,0s-.34.83-.65.78c0,0,0-.13,0-.18-.07.24-.77.65-.44.72-.53.28-.84.8-1.33.93-.11.44-1,.4-.86.82-.17-.41-1.11.16-1.4.49.07-.18-.37,0-.3-.24-.4.17-.76.38-.61.58-.93-.25-1.48.91-2.11.34a15.31,15.31,0,0,1-3.71,1.1c0-.44,1.35-.17,1.24-.65-.56.17-1,.35-1.45.49a3.31,3.31,0,0,1-1.48.2c-.3,0,.16-.19.26-.27-1.16.22-2.23,0-3.28.13,0-.05.12-.08.23-.1-.2,0-.46-.12-.46.09l.2,0c.31.33-.87.54-.93.7.42-.54-1-.27-.36-.94-.14,0-.32.09-.31.23-.19-.07-.24-.16,0-.28-.74,0-.52.25-1.17.14,0-.1.16-.12.24-.22a1.54,1.54,0,0,1-1.26,0s0-.14.16-.11c-.94-.16-1.73.1-2.7-.4.43-.3-.3-.26-.22-.63l-.57-.09.15.25c-.47-.17-1-.09-1.32-.38h.4l-.89-.32.43.34c-.54,0-.14.46-.72.09.14,0-.46-.22-.59-.55h0a1.22,1.22,0,0,1-.85-.29c0-.15.27-.32.26-.42-.39.17-1-.55-1.48-.43a.32.32,0,0,0,.24-.22l-.32.1c-.15-.19-.15-.25,0-.35-.52-.46-.1.52-.64-.16.07,0,.06,0,.19,0a5.54,5.54,0,0,0-1-.72,4.53,4.53,0,0,1-.85-.78c.09-.42.54.38.57,0-.2-.18-.44-.33-.66-.5l-.66-.52a4.27,4.27,0,0,1-1.12-1.21l.08.18c-.51.18-.28-.77-.73-1.11.1.1.34,0,.27,0a4.33,4.33,0,0,0-.62-1c-.23-.34-.49-.72-.79-1.19l.18.07c-.09-.41-.25-1.08-.33-1.52-.17-.1-.22-.36-.37-.16a3.45,3.45,0,0,0-.11-2,2.39,2.39,0,0,1,.09-1.91c0,.15.09.36.1.24l0-1.07c-.24.06-.16.12-.36.33a1.05,1.05,0,0,1-.15-.75c.06.51.36.05.53-.13-.07,0-.14-.06-.21,0,.52-.48-.44-.19,0-.9l.11.07a1.82,1.82,0,0,1,0-.9c.3,0,0,.33.23.4.12-.41-.22-1,.16-1.28,0,.21-.07.47-.06.67a1.13,1.13,0,0,0,.51-.68v0c.11-.22.28-.41.41-.62l-.15.14c-.41-.77.29-1.08.28-1.92,0,.83.16.22.4.41.17-.12.39-.31.42-.2,0-.41.41-.4.41-1,.1,0,.23-.29.38-.08.2-.4-.2,0-.28-.12a1.7,1.7,0,0,1,.74-.92,2.23,2.23,0,0,0,.91-1.06c.55-.65.43-1.08,1-1.64.33,0,0,.41,0,.41a1.9,1.9,0,0,0,1-.6c0,.12.08.14.23.17.28-.15,0-.4.51-.43a1.64,1.64,0,0,1-.14.47c.3-.21.58-.52.92-.76.15.13-.14.34-.22.49.35-.28,1-.43,1.1-.74l-.3,0c.16,0,.13.2,0,.28a.39.39,0,0,1-.61-.06,2.1,2.1,0,0,1,.26-.13c-.47-.51-1.06.5-1.59.66l.05-.47a3.46,3.46,0,0,0-.39.58c-.16,0-.35-.18-.12-.39-.48,0-.26.32-.69.31-.06,0,0,0,0-.06l-.3.32c0-.12-.22-.21,0-.3-.81.22-.8,1-1.23.93l0-.06c-.72.79.1.28-.2,1.09a9.07,9.07,0,0,0-.91-.14l.15.28c-.08.07-.24.21-.31.1-.12.44.15,0,.14.34-.55.22-.75,1.22-1.23,1,.08.28.45-.3.25.24-.55-.17-.25.59-.7.88-.16-.26.19-.59-.26-.29.25.47-.57.76-.64,1.2.34.17-.26.86-.35,1.56a6.76,6.76,0,0,0-.84,1.76l-.06,0c.34.2.13.83.13,1.31-.22-.05-.3-.15-.34-.42a3.5,3.5,0,0,0-.07.45.85.85,0,0,1,.17.57l-.26-.14a16,16,0,0,1,0,2c.25,0,.7-.6.88.18-.13,0-.37.07-.43-.14,0,.07.12.24.06.39l-.24-.32c-.09.36.2.18.19.45-.2,0-.14.22-.3.19s.08-.25,0-.35a2.34,2.34,0,0,1-.24.86c.1,0,.26,0,.32.2.1.59-.21.23-.26.61.16.12.07.54.36.49,0,.17-.08.23-.14.32.21.28.43,1.42.63,1V831l0,0h0a6.34,6.34,0,0,1,.6,1.44,3.82,3.82,0,0,0,.66,1.41l-.09,0a5.17,5.17,0,0,0,1.21,1.31c.11.14.11.45,0,.46.32.33.47.27.78.88-.44-.23,0,.22-.41-.27.34.5.31.73.95,1-.34,0,.12.53.38.68l-.19-.42a3.83,3.83,0,0,1,.65.61l-.33.14a2.46,2.46,0,0,0,1.4,1c.49.23,1,.38,1.17.92.4,0-.48-.5-.08-.57.44.34.69,1.09.86,1.16.61.54.88-.07,1.53.41,0-.15,0-.47.6-.33s.43.74.06.68c-.13-.05-.17-.11-.15-.14-.18,0-.43-.09-.27.12l.11-.08c.21.22.93.53.69.64.44.07.24-.11,0-.29.6.47,1.06.41,1.72.79-.09-.1-.14-.27,0-.23,1,.5.53-.06,1.24.11.35.29-.26.37.49.43.41.25,0,.33-.19.37a3.75,3.75,0,0,1,1.6.59h-.38a2.1,2.1,0,0,1,.58.07l-.16-.27c.2.08.38.12.35.22.25-.11-.08-.42.38-.54.25.16.86,0,.91.33-.86-.25,0,.33-.71.26a1.08,1.08,0,0,1,.53.09s0,.06-.1.07c.81.4.44-.28,1.31-.17-.13.16.17.35.31.33-.35,0-.13-.31.2-.41.55.19.62,0,.91,0l-.33-.1c.13-.17.4-.11.79-.16,0,.14-.36.08-.22.15.44-.3,1,.36,1.57.17.28.11,0,.33.27.41.68-.25.75.23,1.47,0-.22-.24-.25-.16.24-.43-.39.09-.78.13-1.17.21l.74-.37c-.35,0-.74.17-1,.13.36-.2.32-.14.15-.33.49.34.93-.22,1.49,0l0,.6c.87.19,1.47-.41,2.56-.44l-.36-.05c.11-.25.66-.13,1-.29,0,.2.23.23.4.32,0-.14.8-.15.81-.56l.53.14c.9-.12.83-.8,1.64-1-.17.29.24.3-.26.62.28-.08.54-.13.5-.26.2.05.65-.52,1-.45.08-.13,0-.33.33-.44,0,0,0,.09,0,.09s.39-.33.05-.41c1.08.21,2.11-1.16,3-1.19.48-.42,1-1,1.41-1.37,0,.07.07.07,0,.13.71-.42-.07-.74.67-1.25.55-.14-.18.47.1.33.6.33.62-.89,1.25-1.19l0,.15c.44-.28.4-1.11.76-1.76,0,0,0,.06.09.05a10.25,10.25,0,0,1,.28-2.25c.18.28,0,.35.32.3.06-.32-.41,0-.32-.66.19-.16.41-.58.7-.58l-.13.6c.42-.23.18-.78.28-1.09l.15.07c.11-1-.29-1-.18-2l-.12.09c-.37-.55.23-.44,0-1l.4-.16c-.11-.37-.43-1.25-.6-1.86a4.36,4.36,0,0,1,.74,1.53c0-.37-.1-1.23-.33-1.39,0,.14.17.31.13.46a3.49,3.49,0,0,1-.71-1.63c.82,0-.26-1.83.09-2.51-.72-1.1-1-2.41-1.86-3.64-.18.78-.26-.35-.7.09-.23-.25-.32-.35-.3-.4-.12-.34-.23-.7-.38-1s.32.15.41,0c-.48-.6,0-.41-.25-.9-.09.22-.41,0-.67-.36.08.22.17.42.23.64-1-.52-.28-1-1.32-1.52l.39.08c-.48-.3-1.6-1.32-2.34-1.2,0-.12,0-.33.17-.23-1.06-.83-2.76-1-3.55-1.71l.15-.1c-.24,0-.5.1-.73-.16,0,0,.15-.1,0-.15a2.11,2.11,0,0,1-1-.18l.31-.06c-1.15-.63-2-.21-3-.34.1-.42-.89-.78-1.4-.88l0-.06a9.78,9.78,0,0,0-4,.51c-.92-.39-2.93.28-4.34.62.24,0,.1.33-.11.47s-.68.67-.82.29l.11,0c-.42-.26-1,.22-1.45.51l.23.48a3.13,3.13,0,0,0-2,1.5l-.36.51a5,5,0,0,1-.3.48,1.84,1.84,0,0,1-.65.61c0,.38-.27.75-.23,1.14l-.26-.12c-.19.47-.34.82-.46,1.21a11.14,11.14,0,0,0-.16,1.47,2.11,2.11,0,0,1-.18-.27c-.06.73.81.9.84,1.49-.15.07-.27.15-.4.22a17.14,17.14,0,0,0,.26,1.77,6,6,0,0,0,.27.85,3.71,3.71,0,0,0,.53.72.26.26,0,0,1-.29-.13c.18.53.86,2,1.22,1.49-.33.26.7,1,1.21,1.29l-.27.13a2.06,2.06,0,0,1,1.27.47c.1.14,0,.27-.15.06.32.48.5.07.92.61l-.3,0c.44.37.45.28.83.28s.86.63.81.9a.75.75,0,0,1,.78.07c0,.11-.14.11-.2.11.78.62,1.41.27,1.93.75a.22.22,0,0,0,.06.19,7.61,7.61,0,0,1-1.23-.49c-.12.24.48.5-.14.65a7,7,0,0,1,2.08.14l.06.11h-.07a.66.66,0,0,0,.39,0,1.53,1.53,0,0,0,.49.18c0,.21.73.19,1,.23,0-.29.4-.2,0-.47,0,0-.07,0-.27,0h-.14l0,0-.77-.06a.87.87,0,0,1,.86,0c.17-.16.35-.33.45-.41.38.41,1.23.57,1.37.81,1-.21,2.27-.53,2.64-1.23.21-.16.33,0,.46.07-.13.1-.3.16-.36.27.47-.31,1.45-.7,1.38-1.09.65-.19-.16.49.61,0l0,.16a2.9,2.9,0,0,0,1.83-1.61,7.15,7.15,0,0,1,1.55-2.08c-.11.1-.16.15-.23.15a5,5,0,0,0,.95-3.41,7.51,7.51,0,0,0-1.2-3.46c-.42-.55-.63-.45-1.06-.54l.06-.32a3.92,3.92,0,0,0-.76-.08,3.28,3.28,0,0,1-1.14-.75,1.66,1.66,0,0,0-1.54-.37l.14.23c-.44-.13-1.39.12-1.34-.1,0,0-.11.24-.31.17l0-.16a4.46,4.46,0,0,0-1,.64c-.38.18-.45,0-.55-.07s-.28-.23-.8.31a1.73,1.73,0,0,0-.34.9c0,.3,0,.5.09.44s.33-.37.47-.29l-.13.38c.36.3.74.6,1.33.24a2.58,2.58,0,0,1,.09-.52,1.44,1.44,0,0,1,.25.08,2,2,0,0,0-.24.26c.29,0,.21-.22.29-.4a.45.45,0,0,0,.28.12,1.52,1.52,0,0,1,.22-.59c.1.15-.06.41.23.4.15-.26-.33-.34,0-.56.3.16.24.34.5.12,0,.12,0,.18-.1.26.22-.16.64-.11.8-.32.23.26.93.09.79.52a1.15,1.15,0,0,1,.81-.11c-.63.29.85.44.43.9.53-.23,1,.51,1.56.81-.06,0-.16,0-.17-.06.18.27,0,.44.08.63.39-.17.64.25,1,.47-.31.46-.48-.13-.82.1.32-.12.4.52.65.37-.19.31-.1.28-.42.43.48.07.1.28.35.57-.31.41-.44,0-.41.54C1031.44,825.12,1031.38,824.69,1031.38,824.69Zm-9.76,5.72h0l.27,0Zm-1.08-.33a3.7,3.7,0,0,0,.46.18c0,.1-.07.18-.17.14C1020.9,830.36,1020.67,830.21,1020.54,830.08Zm2.08,2.5c-.22,0-.28-.05-.3-.11h.37l0,0A.31.31,0,0,1,1022.62,832.58Z" transform="translate(-921.96 -707.45)"/><path class="cls-1" d="M1023,832.25a.11.11,0,0,1,.08,0l-.11-.08-.09.08Z" transform="translate(-921.96 -707.45)"/><path class="cls-1" d="M1002.82,831.07v0a.14.14,0,0,1,0-.06Z" transform="translate(-921.96 -707.45)"/><polygon class="cls-1" points="92.98 110.71 92.91 110.68 92.93 110.79 92.98 110.71"/><path class="cls-1" d="M1003.38,824.43a.18.18,0,0,0,.09-.07S1003.42,824.39,1003.38,824.43Z" transform="translate(-921.96 -707.45)"/><path class="cls-1" d="M1004.15,821.76c.07-.11.17-.21.24-.32A1.64,1.64,0,0,0,1004.15,821.76Z" transform="translate(-921.96 -707.45)"/><path class="cls-1" d="M1005.16,819.9a.44.44,0,0,0-.08-.1h0Z" transform="translate(-921.96 -707.45)"/><path class="cls-1" d="M1021.86,842h.08C1022.14,842,1022,842,1021.86,842Z" transform="translate(-921.96 -707.45)"/><path class="cls-1" d="M1011.93,840a1.39,1.39,0,0,1,.35,0C1012.13,839.88,1012,839.81,1011.93,840Z" transform="translate(-921.96 -707.45)"/><polygon class="cls-1" points="110.81 132.74 110.81 132.75 110.87 132.72 110.81 132.74"/><path class="cls-1" d="M1012.7,840.2a.83.83,0,0,0-.42-.21A1.11,1.11,0,0,0,1012.7,840.2Z" transform="translate(-921.96 -707.45)"/><path class="cls-1" d="M1011.88,814.41h.1a0,0,0,0,1,0,0Z" transform="translate(-921.96 -707.45)"/><path class="cls-1" d="M1012,814.35l.1-.05C1012,814.31,1012,814.32,1012,814.35Z" transform="translate(-921.96 -707.45)"/><path class="cls-1" d="M1012.29,814.18l-.21.12C1012.15,814.28,1012.25,814.27,1012.29,814.18Z" transform="translate(-921.96 -707.45)"/><path class="cls-1" d="M1009.36,815.33l0,.11A.18.18,0,0,0,1009.36,815.33Z" transform="translate(-921.96 -707.45)"/><path class="cls-1" d="M1008.69,815.8c.15-.12.53-.09.72-.28l0-.08C1009.37,815.64,1008.72,815.52,1008.69,815.8Z" transform="translate(-921.96 -707.45)"/><path class="cls-1" d="M1005.23,817.52l.52-.57c-.16,0-.38.09-.19-.21C1004.72,817.33,1005.87,816.73,1005.23,817.52Z" transform="translate(-921.96 -707.45)"/><path class="cls-1" d="M1003.81,819.47c.16-.39-.14-.07-.19-.12C1003.58,819.63,1003.57,819.7,1003.81,819.47Z" transform="translate(-921.96 -707.45)"/><path class="cls-1" d="M1005.22,835.9l-.22.13C1005.22,836.27,1005.08,836,1005.22,835.9Z" transform="translate(-921.96 -707.45)"/><polygon class="cls-1" points="86.43 129.83 86.33 129.51 86.07 129.59 86.43 129.83"/><path class="cls-1" d="M1008.79,839.89l-.14,0,.51.22Z" transform="translate(-921.96 -707.45)"/><path class="cls-1" d="M1036.77,840.89l-.26-.21C1036.36,840.85,1036.51,841.17,1036.77,840.89Z" transform="translate(-921.96 -707.45)"/><path class="cls-1" d="M1042.64,829.85a.59.59,0,0,0,.13-.71A4.78,4.78,0,0,0,1042.64,829.85Z" transform="translate(-921.96 -707.45)"/><polygon class="cls-1" points="93.18 106.68 93.34 106.43 92.98 106.82 93.18 106.68"/></svg>