<svg id="Layer_1" data-name="Layer 1" xmlns="http://www.w3.org/2000/svg" viewBox="0 0 128.8 123.19"><defs><style>.cls-1{fill:#202020;}</style></defs><title>4</title><path class="cls-1" d="M931.41,737.32c.06.13.25.13.33-.22a3,3,0,0,1-.23-.35Z" transform="translate(-916.52 -714.18)"/><path class="cls-1" d="M933,735.65c.13-.37.33-.89-.07-1-.1.51-.27.49-.26,1.06-.18.27-.42.41-.5.29,0,.13-.33.44-.22.69a2.72,2.72,0,0,0,.91-1.25C933,735.44,933,735.59,933,735.65Z" transform="translate(-916.52 -714.18)"/><path class="cls-1" d="M938.74,730.92l-.16.1A.54.54,0,0,0,938.74,730.92Z" transform="translate(-916.52 -714.18)"/><path class="cls-1" d="M947.92,740c0-.13,0-.2,0-.21S947.88,740.06,947.92,740Z" transform="translate(-916.52 -714.18)"/><path class="cls-1" d="M946.47,742.64l.11-.13C946.52,742.55,946.47,742.59,946.47,742.64Z" transform="translate(-916.52 -714.18)"/><path class="cls-1" d="M938.74,730.92l.43-.21C939.13,730.6,938.94,730.8,938.74,730.92Z" transform="translate(-916.52 -714.18)"/><path class="cls-1" d="M936.83,733.26a.63.63,0,0,0-.31.09,1.45,1.45,0,0,1,.29,0Z" transform="translate(-916.52 -714.18)"/><path class="cls-1" d="M936,737.93v.14l.14.1Z" transform="translate(-916.52 -714.18)"/><path class="cls-1" d="M938.76,741.69c-.06,0,0,.29-.09.42.05-.1.11-.13.17-.23A.71.71,0,0,0,938.76,741.69Z" transform="translate(-916.52 -714.18)"/><path class="cls-1" d="M938.13,734.61h0Z" transform="translate(-916.52 -714.18)"/><path class="cls-1" d="M937,733.9a.2.2,0,0,0,.11,0A.14.14,0,0,0,937,733.9Z" transform="translate(-916.52 -714.18)"/><path class="cls-1" d="M916.52,731.54h.05S916.51,731.49,916.52,731.54Z" transform="translate(-916.52 -714.18)"/><path class="cls-1" d="M918.51,724.14v.1a.67.67,0,0,0,.15.06Z" transform="translate(-916.52 -714.18)"/><path class="cls-1" d="M942.45,745.54h0C942.59,745.46,942.52,745.49,942.45,745.54Z" transform="translate(-916.52 -714.18)"/><path class="cls-1" d="M943.51,717.21c-.55-.33,1-.18.15-.58C943.72,716.75,942.82,716.94,943.51,717.21Z" transform="translate(-916.52 -714.18)"/><path class="cls-1" d="M937,733.3h.3A1.65,1.65,0,0,0,937,733.3Z" transform="translate(-916.52 -714.18)"/><path class="cls-1" d="M943.66,716.63h0l-.09,0Z" transform="translate(-916.52 -714.18)"/><path class="cls-1" d="M931.23,742.8a.57.57,0,0,0,0,.18S931.26,742.9,931.23,742.8Z" transform="translate(-916.52 -714.18)"/><path class="cls-1" d="M939.53,746.65l-.23,0A1.2,1.2,0,0,0,939.53,746.65Z" transform="translate(-916.52 -714.18)"/><path class="cls-1" d="M927.92,739.21a.66.66,0,0,0-.13-.32.13.13,0,0,0,0,.06A.37.37,0,0,1,927.92,739.21Z" transform="translate(-916.52 -714.18)"/><path class="cls-1" d="M926.44,734.31s0,.07-.05.1l0,.16A2.26,2.26,0,0,1,926.44,734.31Z" transform="translate(-916.52 -714.18)"/><path class="cls-1" d="M923.34,747.2a.71.71,0,0,1,0-.36C923.26,747,922.63,746.47,923.34,747.2Z" transform="translate(-916.52 -714.18)"/><path class="cls-1" d="M936.84,733.42a.21.21,0,0,1,.19-.12h-.22S936.79,733.39,936.84,733.42Z" transform="translate(-916.52 -714.18)"/><path class="cls-1" d="M925.85,740l-.37-.88C925.57,739.4,925.71,739.72,925.85,740Z" transform="translate(-916.52 -714.18)"/><path class="cls-1" d="M958.57,743.9l-.09.19A.33.33,0,0,0,958.57,743.9Z" transform="translate(-916.52 -714.18)"/><path class="cls-1" d="M924.57,736.48a1.79,1.79,0,0,0,.07-.56s0-.07-.09-.09C924.54,736.05,924.56,736.26,924.57,736.48Z" transform="translate(-916.52 -714.18)"/><path class="cls-1" d="M923.35,746.84Z" transform="translate(-916.52 -714.18)"/><path class="cls-1" d="M919.42,742.29c.4.78.51.18.78.24.6.84,0,.55,0,1,.43.5,1,.73,1.23,1.13,0,.07,0,.16-.12.11.62.39,1.23,1.61,2,2a.32.32,0,0,1,0,.14.64.64,0,0,1,.3-.42c.26.27.65.35.57.61-.15-.17-.24-.12-.37-.15l.35.22c0,.5-.46-.31-.65-.14a14.14,14.14,0,0,1,1.8,1.42c-.16.36-1.06-.9-.72-.11l-.55-.77c.11.89-.36-.44-.32.44.77,1,1.09.87,2,1.76.33,0,.11-.28.44-.24.75.45.92.78,1,1.12a1.06,1.06,0,0,0,.87.8c.4,0,.72-.28,1.4.34l-.46.19c1,.61.86-.15,1.84.67-.27,0-.89-.34-.75-.21.58.66.6.1,1.17.33l0,.36a18.13,18.13,0,0,0,1.93.58c.69.11,1.39.22,2.07.38-.09.08-.35.12-.06.31.91.08,1.86.23,2.8.38s1.9.25,2.78.25l.64-.37c.15,0,.3.1.14.18.69,0,0-.19.32-.34s.53.11.3.23a29.08,29.08,0,0,1,4.43-1.35l-.2.16c1-.2.81-.9,1.71-1l-.13.12c.48-.19,1-.41,1.45-.64s.92-.55,1.36-.81a26,26,0,0,1,2.47-1.38c0-.46,1.7-1.22,1.4-1.74a6.57,6.57,0,0,0,2.18-1.44c.32-.33.18-.72.44-1.22l.25.17.18-.8.54-.12.24-.48c-.14.16-.37.29-.43.21a3,3,0,0,1,.36-.54,5.88,5.88,0,0,1,.4-.52c.28-.3.53-.51.61-.48l.36-.92c.1-.31.17-.64.26-1,.1.09,0,.41,0,.68.12-1.1.38,0,.48-1.05-.12.09-.15-.14-.2-.18a2.88,2.88,0,0,0,.53-.94,8.76,8.76,0,0,0,.3-1.28l.17.2c.11-.35.21-.72.3-1.1s.08-.78.12-1.18.07-.81.11-1.21,0-.83,0-1.24c-.09.59-.46.44-.5,0l.32-.19c-.2-.31-.12.49-.37-.13,0-.6.37-.43.48-.07l-.13-.75c.1,0,.15.13.28.16-.17-.28.2-1.35-.2-1.75l.08-.06a14.85,14.85,0,0,0-1.18-3.61c-.27.09-.42-.42-.79-.68a11.13,11.13,0,0,0-1.41-2.92c-.6-.59-.33-.06-.69-.25.17-.2-.59-1.1-.06-.74A12.06,12.06,0,0,0,955,720.2c.08.21.21.38.07.37-.27-.17-.48-.55-.37-.61l.08,0a18.8,18.8,0,0,1-2.52-2,5.25,5.25,0,0,0-2.57-1.42h.09c-.53-.16-1.09-.24-1.62-.36-.7-.29.49,0,0-.37-1.8-.18-2.69-.87-4.2-.81a4,4,0,0,0-2.63-.51,21.76,21.76,0,0,1-3,.14l.12.16c-.37.24-.5,0-.81,0,.07.12.47.07.24.21a24.65,24.65,0,0,0-4.93,1.81A16,16,0,0,0,928.6,720a1.22,1.22,0,0,0-.36,1.07c0,.29,0,.55-.66,1.1l0-.56c-.59,1.17-1.2,2.32-1.75,3.51a11.71,11.71,0,0,0-1,3.71c0-.16-.14-.19-.08-.43-.39.46-.36,2-.17,2-.06.38-.18.07-.31.3-.18.53.2,1.36,0,1.63,0,0-.08-.15-.09-.25.1.35,0,1.64.25,1.29a5.91,5.91,0,0,0,.11,1.35,4.64,4.64,0,0,1,.15,1.2c.41.41.22,1.63.72,1.65-.22,0-.17.46,0,.94a3.52,3.52,0,0,0,.72,1.2c-.21-.12.1.54-.17.41.33.62.75,1.11.88.89a2.63,2.63,0,0,0,1,1.53c.42.39.81.69.79,1.2a20.14,20.14,0,0,0,4.85,3c-.13.18-.59,0-1-.26s-.81-.49-.91-.27a40,40,0,0,0,4.2,1.51c.41.19-.3.12-.47.15a11.77,11.77,0,0,0,4.9.49s-.17.1-.33.14c.31,0,.73,0,.68-.18l-.3.07c-.49-.26,1.14-.68,1.14-.91-.4.68,1.48-.16.86.73.2-.08.42-.23.34-.35.29-.06.41,0,.16.23,1-.5.58-.5,1.49-.92,0,.09-.13.22-.18.38a5.54,5.54,0,0,1,1.49-1.23c0,.08.11.08-.09.24a5.39,5.39,0,0,0,1.32-1.49c.16-.28.36-.52.53-.8a6.37,6.37,0,0,1,.61-.88c.13.61.41-.37.75-.29l.27-.82-.31.23c.36-.66.23-1.38.56-1.92l0,.56a7.69,7.69,0,0,0,.27-1.35l-.29.72c0-.75-.47,0-.19-.93,0,.19.16-.67.38-1h0a2.87,2.87,0,0,1-.09-1.24c.11-.14.42.11.49,0a2.13,2.13,0,0,1-.24-1,1.93,1.93,0,0,0-.38-1.05.23.23,0,0,0,.33,0l-.3-.24c0-.34,0-.4.21-.38-.26-1-.37.42-.52-.77,0,.08.07,0,.16.2a9.29,9.29,0,0,0-1.62-3c.1-.52.65.75.68.25a6.25,6.25,0,0,0-.4-.5l-.5-.42-.51-.4a6.22,6.22,0,0,0-.56-.32,16.73,16.73,0,0,0-2.27-1,1.26,1.26,0,0,1,.26.13c-.17.2-.42.08-.76-.1a1.58,1.58,0,0,0-1.19-.21c.19,0,.27-.3.21-.24a4.9,4.9,0,0,0-3.58,1.5l.08-.22a6.81,6.81,0,0,0-1.81,1.51c0,.25-.27.54,0,.48a3.87,3.87,0,0,0-1.56,2.51,14,14,0,0,1-.69,2.73c0-.22-.06-.54-.08-.36a7.9,7.9,0,0,0,.08,1.61c.23-.14.12-.22.3-.55a2.83,2.83,0,0,1,.31,1c-.24-.66-.37,0-.45.39.06-.07.16,0,.23,0-.19.9.43,0,.53,1.13h-.13c.23.36.55.6.77,1-.11.31-.35-.29-.55-.2.37.59,1.16.65,1.42,1.18a3.89,3.89,0,0,1-.79-.5,1.6,1.6,0,0,0,.75,1l0,0a2.54,2.54,0,0,0,.46.35,4.36,4.36,0,0,0,.64.35,2.2,2.2,0,0,1-.32-.21,2.66,2.66,0,0,1,.75-.08c.11,0,.22,0,.33,0l.29-.21a2,2,0,0,0,.94-1.19c-.31,1.07.09.3.28.54.27-.17.57-.53.58-.37.08-.59.64-.78.51-1.64.11,0,.14-.57.35-.41,0-.74-.18.15-.31.06-.07-.56.1-1.16.08-1.87a2.82,2.82,0,0,0-.78-2.1,2.72,2.72,0,0,0-.63-.58,2.31,2.31,0,0,0-.56-.29,3.06,3.06,0,0,0-.56-.18c-.19-.07-.42-.12-.68-.19-.3-.31.42-.2.43-.2a2.17,2.17,0,0,0-1.66-.46c.13-.08,0-.16-.18-.28-.51,0-.33.35-1,.25a1.43,1.43,0,0,1,.47-.43,6.18,6.18,0,0,0-1.69.71c-.21-.11.26-.36.45-.53-.68.23-1.64.85-1.63,1.21a2.48,2.48,0,0,1,.41-.15c-.21.13-.23-.13-.09-.26.42-.49.81-.27.86-.2l-.36.22c.31.17.65,0,1.07-.2a3,3,0,0,1,1.36-.38,3.39,3.39,0,0,0-.33.42,4.41,4.41,0,0,1,.84-.31c.17.14.24.38-.15.38.51.29.53-.07.92.29,0,.05,0,.06,0,.06a5.07,5.07,0,0,1,.54.09c-.14,0-.06.3-.31.12a4.73,4.73,0,0,0,.5.33l.44.23c.28.13.45.3.45.52l-.07,0c.42.46.49.47.58.41s.17-.18.57.24a4.68,4.68,0,0,1-.5.88l.32.05c0,.14.06.41-.08.38.26.47.13-.11.35.16a11.09,11.09,0,0,0-.11,1.21c0,.39-.15.72-.4.72.16.29.33-.57.3.16-.55,0-.17.84-.75,1.23-.12-.31.28-.67-.23-.33.12.27-.11.49-.33.64s-.43.14-.56.27,0,.23-.09.24a1.15,1.15,0,0,1-.36-.06,11.13,11.13,0,0,1-1-.52c.07,0-.23-.3-.49-.69a3.32,3.32,0,0,1-.56-1.28h.06c-.4,0-.58-.79-.69-1.37.22,0,.32.1.46.38,0-.17-.06-.34-.07-.51a1,1,0,0,1-.24-.64l.27.14a4.26,4.26,0,0,1,.21-2.35c-.22-.14-.9.57-.76-.51.14,0,.38,0,.35.32a1,1,0,0,1,.1-.49l.09.47c.24-.39-.12-.29,0-.62.18.08.23-.19.35-.08s-.19.25-.15.4a1.61,1.61,0,0,1,.66-.81c-.12,0-.24-.11-.14-.39.34-.65.33-.1.62-.42,0-.22.34-.52.11-.7.13-.17.26-.12.38-.14.09-.4,1.13-1.28.63-1.22l-.09.06,0-.06h0a3.05,3.05,0,0,1,1.54-1.12,11.59,11.59,0,0,1,1.83-.4v.1a6.74,6.74,0,0,1,2.13.08c.21.09.41.37.28.44a1.78,1.78,0,0,1,1.22.68c-.56-.16.06.23-.54-.21.27.24.41.4.58.53a1.82,1.82,0,0,0,.68.48c-.18,0-.15.14,0,.31a3.56,3.56,0,0,0,.38.51l-.13-.52a6.36,6.36,0,0,1,.59.87l-.39,0a4.72,4.72,0,0,0,.4.91c.18.26.34.53.49.8a1.75,1.75,0,0,1,.27,1.7c.3.35,0-.81.36-.51.11.7-.4,1.43-.38,1.63a1.25,1.25,0,0,0,.12.89,1.1,1.1,0,0,1,.1.95c.14-.1.48-.18.43.6s-.67.71-.66.28c0-.17.08-.24.12-.22,0-.23,0-.52-.17-.28l.1.11c-.15.32-.44,1.19-.56.92,0,.51.11.27.29-.07a16,16,0,0,1-1,2c.13-.09.3-.15.24,0-.83,1-.1.62-.59,1.38-.48.27-.21-.41-.69.35-.44.31-.29-.14-.23-.36a1.36,1.36,0,0,1-.76.72,6.06,6.06,0,0,1-.74.3,1.2,1.2,0,0,0,.26-.29,1.15,1.15,0,0,1-.48.36l.32.1c-.23.07-.39.16-.44.07-.14.26.36.26,0,.69-.31.07-.91.48-1.11.24,1-.25-.21-.26.58-.59a1.52,1.52,0,0,1-.57.19s0-.07.06-.11c-1,.05-.29.5-1.29.71.09-.2-.29-.28-.44-.21.39-.09.25.28-.12.44-.68-.09-.72.16-1.07.17l.4,0c-.12.2-.47.2-.95.21,0-.14.43-.07.27-.14a1.12,1.12,0,0,1-.89-.06,1.93,1.93,0,0,0-1-.26c-.31-.18,0-.33-.23-.46-.83,0-.77-.42-1.6-.57.13.31.21.28-.45.27a9.6,9.6,0,0,0,1.39.31,7.88,7.88,0,0,1-1,0c.39.18.91.12,1.15.24-.48.07-.42,0-.27.27-.48-.47-1.21-.18-1.78-.67l.26-.53a3.4,3.4,0,0,0-1.3-.62,4.26,4.26,0,0,1-1.46-.84l.28.34c-.28.09-.67-.48-1.08-.67.16-.12,0-.35,0-.57-.08.12-.69-.67-1.06-.49l-.2-.62a2.68,2.68,0,0,0-.91-.74,1.75,1.75,0,0,1-.87-.78c.35.15.19-.31.72.17-.22-.27-.32-.57-.44-.5,0-.24-.75-.68-.7-1.07-.14-.09-.34-.05-.5-.41,0-.06.09,0,.09,0s-.39-.51-.44-.11a2.84,2.84,0,0,0-.09-1c-.09-.34-.21-.69-.29-1a3.28,3.28,0,0,1-.16-1.94c-.06-.38-.12-.8-.18-1.21s-.05-.82-.06-1.17c.06.05.1,0,.08.14.23-.95-.54-.63-.23-1.73.4-.52.09.6.26.27.67-.06.08-1.33.65-2v.18c.32-.48.09-1.38.46-2.23,0,0,0,.06.09,0a5.81,5.81,0,0,1,.67-2.7c.08.37-.08.42.22.4.17-.37-.42-.09-.08-.84.25-.16.69-.57,1-.48l-.4.63c.51-.12.52-.81.8-1.09l.09.13c.65-.92.36-1.19,1.23-2.08h-.17c.21-.76.56-.23.86-.91l.41.16.67-.82a7.6,7.6,0,0,1,1-.92c-.24.49-.92,1.12-1.25,1.63.18-.13.45-.37.71-.59a1.61,1.61,0,0,0,.54-.58c-.12.13-.25.33-.43.38a3.22,3.22,0,0,1,1.62-1.46c.1.39.62.17,1.25,0a2.61,2.61,0,0,1,1.73-.18c1.42-.63,3-.35,4.71-.26-.58-.65.52,0,.47-.59a1.17,1.17,0,0,1,.62.08c.41.18.8.37,1.19.58s-.41,0-.4.2c.87.23.32.32.85.61-.07-.24.38-.22.85,0l-.63-.46c1.32,0,.91.78,2.19.9l-.44,0c.66.11,2.19.91,3,.82.06.11.12.33-.16.23,1.32.78,3.24,1.47,3.95,2.54l-.19,0c.25.15.56.14.72.5-.05,0-.19,0-.1.13a2.3,2.3,0,0,1,.93.71l-.35-.12c.85,1.24,1.82,1.51,2.59,2.59-.37.22.09,1.32.24,1.88h-.06a27.31,27.31,0,0,1,1.72,4.24,8.37,8.37,0,0,0-.25,2.3c0,.47-.13.94-.19,1.4a4.54,4.54,0,0,1-.34,1.28c.14-.22.32.11.29.4s0,1.12-.35.94l0-.13c-.24.08-.34.33-.49.6s-.24.6-.36.88l.44.3a8.43,8.43,0,0,0-1.49,2.44c-.44.86-.93,1.62-1.44,1.78-.13.39-.47.74-.63,1.12l-.2-.2c-.74.78-1.18,1.1-2.12,2.05l.07-.34c-.55.51-.2,1.24-.77,1.69l-.42-.21c-.26.2-.54.38-.83.56l-.89.44a9.5,9.5,0,0,0-1.66,1.09.26.26,0,0,1,.16-.3c-.29.13-.86.32-1.3.53s-.79.38-.58.63c-.15-.37-1.28.44-2,.78l0-.3a2.55,2.55,0,0,1-1.31.87c-.21,0-.22-.18.06-.17-.69,0-.47.4-1.31.33l.28-.21a1.35,1.35,0,0,0-1,.39,2.05,2.05,0,0,1-.84.07c-.29-.06-.54-.18-.59-.3a.93.93,0,0,1-.88.27c-.06-.1.09-.15.17-.18-1.14-.16-1.75.17-2.5-.19a.23.23,0,0,0-.11-.18,13.93,13.93,0,0,1,1.56.27c0-.26-.69-.41-.09-.68a4.52,4.52,0,0,1-2.32.12l-.07-.11h.08A1,1,0,0,0,935,752a3.22,3.22,0,0,0-.55-.23c0-.24-.78-.3-1.1-.48-.06.27-.5.05-.16.44-.05,0,.08,0,.31.07a.32.32,0,0,0,.16,0h0l.89.23a1.13,1.13,0,0,1-1-.17,5.19,5.19,0,0,1-.64.23c-.34-.57-1.15-1.13-1.17-1.4-.52-.18-1.11-.49-1.68-.71a4.7,4.7,0,0,0-1.53-.47c-.31-.13-.22-.33-.27-.47.18.06.36.2.49.19a10.18,10.18,0,0,1-1.07-.6c-.34-.24-.66-.42-.83-.33-.52-.67.56,0-.32-.65h.18a3.79,3.79,0,0,0-.5-.61,5.11,5.11,0,0,0-.52-.52,12,12,0,0,0-1.15-.83,6.3,6.3,0,0,1-1.09-1,3.49,3.49,0,0,1-.81-1.49c0,.17.08.26,0,.32-.3-.64-.7-1.24-1-1.86l-1-1.9c-.3-.66-.6-1.33-.85-2a12.57,12.57,0,0,1-.42-2.08c-.09-.78-.31-.81-.6-1.25l.26-.23-.51-.74a3.12,3.12,0,0,1,0-1.66,4.82,4.82,0,0,0,.08-.86,2.6,2.6,0,0,0-.13-1l-.21.2c0-.54-.15-1.7.12-1.6a.3.3,0,0,1-.07-.39h.16l-.16-1.33c.23-1,.57.23.87-1.19,0-.52-.15-1.61-.29-1.44s-.21.54-.36.52l0-.52c-.44-.2-.81-.74-1.39.49l.09,1-.28.25.14-.77a1.11,1.11,0,0,0-.1,1,.58.58,0,0,0-.29.35l.36,1c-.19.1-.32-.44-.48.16.17.44.45-.36.52.34-.25.42-.42.29-.27.81-.11.07-.2,0-.23-.25.11.46.06,1.22.31,1.45-.27.47.09,1.54-.32,1.52a3.65,3.65,0,0,1,.5,1.19c-.63-.7.15,1.56-.39,1.45.59.48.59,2,1.19,2.88-.06,0-.16-.12-.16-.21a4.65,4.65,0,0,1,.06,1.13c.2,0,.38.17.57.4a7.11,7.11,0,0,0,.61.69c-.09.78-.59-.22-.85.11.29-.14.76,1,.91.68,0,.59.07.47-.12.86.48-.12.3.41.77.66.14.79-.31.39.21,1.08C919.93,742.88,919.42,742.29,919.42,742.29Zm15.84,11.64h0l-.4-.1Zm1.67.26-.72-.12c0-.1,0-.19.2-.16C936.31,754,936.69,754.07,936.93,754.19Zm-2.88-2.62c.25,0,.31.1.32.16l-.41-.08,0,0A.33.33,0,0,1,934.05,751.57Z" transform="translate(-916.52 -714.18)"/><path class="cls-1" d="M933.52,751.79a.18.18,0,0,1-.1,0,.65.65,0,0,0,.11.12.24.24,0,0,0,.11-.06A.28.28,0,0,1,933.52,751.79Z" transform="translate(-916.52 -714.18)"/><path class="cls-1" d="M938.56,731h0a.09.09,0,0,1-.07,0Z" transform="translate(-916.52 -714.18)"/><polygon class="cls-1" points="41.06 31.36 41.01 31.32 40.97 31.48 41.06 31.36"/><path class="cls-1" d="M934.87,738.93a.24.24,0,0,0,0,.13S934.86,739,934.87,738.93Z" transform="translate(-916.52 -714.18)"/><path class="cls-1" d="M937.1,742.49a3.27,3.27,0,0,0,.51.39C937.37,742.71,937.23,742.59,937.1,742.49Z" transform="translate(-916.52 -714.18)"/><path class="cls-1" d="M940.49,742.17a.27.27,0,0,0,0-.13h0Z" transform="translate(-916.52 -714.18)"/><path class="cls-1" d="M939.77,748.51l-.13,0C939.35,748.59,939.55,748.58,939.77,748.51Z" transform="translate(-916.52 -714.18)"/><path class="cls-1" d="M949.24,738.58a2.54,2.54,0,0,1,.09.48C949.38,738.8,949.4,738.6,949.24,738.58Z" transform="translate(-916.52 -714.18)"/><polygon class="cls-1" points="9.38 25.95 9.38 25.95 9.34 25.85 9.38 25.95"/><path class="cls-1" d="M949.2,739.73a1.56,1.56,0,0,0,.13-.67A3.05,3.05,0,0,0,949.2,739.73Z" transform="translate(-916.52 -714.18)"/><path class="cls-1" d="M933.88,734l-.15.07a0,0,0,0,1,0,.05Z" transform="translate(-916.52 -714.18)"/><path class="cls-1" d="M933.73,734.1l-.14.12C933.66,734.18,933.72,734.14,933.73,734.1Z" transform="translate(-916.52 -714.18)"/><path class="cls-1" d="M933.31,734.5l.28-.28C933.48,734.3,933.34,734.38,933.31,734.5Z" transform="translate(-916.52 -714.18)"/><path class="cls-1" d="M938.3,733.58l.09-.08A.14.14,0,0,0,938.3,733.58Z" transform="translate(-916.52 -714.18)"/><path class="cls-1" d="M939.6,734.16a2.61,2.61,0,0,0-1.15-.72l-.06.06C938.68,733.4,939.26,734.12,939.6,734.16Z" transform="translate(-916.52 -714.18)"/><path class="cls-1" d="M940.47,739.12a5.39,5.39,0,0,0,.11-.91c-.1.17-.24.37-.29,0C940,739.29,940.58,738,940.47,739.12Z" transform="translate(-916.52 -714.18)"/><path class="cls-1" d="M939.25,741.48c.22-.33-.13-.08-.14-.17C939.06,741.49,939,741.57,939.25,741.48Z" transform="translate(-916.52 -714.18)"/><path class="cls-1" d="M944.43,730.3l-.15.21C944.63,730.61,944.33,730.42,944.43,730.3Z" transform="translate(-916.52 -714.18)"/><path class="cls-1" d="M948.34,732.31a2.34,2.34,0,0,0-.09-.46l-.32,0A4,4,0,0,1,948.34,732.31Z" transform="translate(-916.52 -714.18)"/><path class="cls-1" d="M947.51,735.25a.51.51,0,0,0-.07-.15,5.84,5.84,0,0,1,.2.59Z" transform="translate(-916.52 -714.18)"/><path class="cls-1" d="M926.82,735.18l-.29.17C926.63,735.6,927,735.58,926.82,735.18Z" transform="translate(-916.52 -714.18)"/><path class="cls-1" d="M931,720.93a.93.93,0,0,0,.7-.53C931.41,720.62,931.05,720.76,931,720.93Z" transform="translate(-916.52 -714.18)"/><path class="cls-1" d="M957.68,740.57l0-.33a3.29,3.29,0,0,1-.15.56A1,1,0,0,0,957.68,740.57Z" transform="translate(-916.52 -714.18)"/><path class="cls-1" d="M1030,723.1c-.14.08-.07.27.33.28l.31-.3Z" transform="translate(-916.52 -714.18)"/><path class="cls-1" d="M1032.5,724.14c.47,0,1.09-.14.9-.51-.56.17-.63,0-1.2.24-.38-.08-.64-.27-.56-.37-.15.07-.6-.15-.84,0a2,2,0,0,0,.82.31,3.66,3.66,0,0,0,1,.1C1032.7,724.05,1032.55,724.09,1032.5,724.14Z" transform="translate(-916.52 -714.18)"/><path class="cls-1" d="M1030.78,750.89l.23,0Z" transform="translate(-916.52 -714.18)"/><path class="cls-1" d="M1012.77,741.18c.07.16.12.21.15.21S1012.79,741.13,1012.77,741.18Z" transform="translate(-916.52 -714.18)"/><path class="cls-1" d="M1012.18,737.44v.22A.32.32,0,0,0,1012.18,737.44Z" transform="translate(-916.52 -714.18)"/><path class="cls-1" d="M1030.78,750.89h-.61C1030.14,751,1030.48,750.91,1030.78,750.89Z" transform="translate(-916.52 -714.18)"/><path class="cls-1" d="M1037.52,726a1,1,0,0,0-.33-.16l.28.18Z" transform="translate(-916.52 -714.18)"/><path class="cls-1" d="M1039,745.88l.12-.13a.69.69,0,0,0,0-.2A1.6,1.6,0,0,1,1039,745.88Z" transform="translate(-916.52 -714.18)"/><path class="cls-1" d="M1041.55,739.14c0,.17.26.25.38.32a.59.59,0,0,1-.18-.38A.31.31,0,0,0,1041.55,739.14Z" transform="translate(-916.52 -714.18)"/><path class="cls-1" d="M1038,728l-.17-.14Z" transform="translate(-916.52 -714.18)"/><path class="cls-1" d="M1034.82,749.11a.24.24,0,0,0-.11-.06A.17.17,0,0,0,1034.82,749.11Z" transform="translate(-916.52 -714.18)"/><path class="cls-1" d="M1026.71,750.36s0,0,0,0S1026.65,750.38,1026.71,750.36Z" transform="translate(-916.52 -714.18)"/><path class="cls-1" d="M1017.47,748.78l.12,0a.6.6,0,0,0,.09-.13Z" transform="translate(-916.52 -714.18)"/><path class="cls-1" d="M1012.72,730.68l0,0C1012.7,730.89,1012.72,730.79,1012.72,730.68Z" transform="translate(-916.52 -714.18)"/><path class="cls-1" d="M1028,735.21c.41.63-1.09-.43-.42.44C1027.6,735.52,1028.64,735.84,1028,735.21Z" transform="translate(-916.52 -714.18)"/><path class="cls-1" d="M1037.66,726.13l.26.22Z" transform="translate(-916.52 -714.18)"/><path class="cls-1" d="M1027.61,735.65h0l.08.09Z" transform="translate(-916.52 -714.18)"/><path class="cls-1" d="M1021.54,718.6a.4.4,0,0,0-.2,0S1021.41,718.61,1021.54,718.6Z" transform="translate(-916.52 -714.18)"/><path class="cls-1" d="M1013.37,726.69a2.26,2.26,0,0,1,.16-.26A1.08,1.08,0,0,0,1013.37,726.69Z" transform="translate(-916.52 -714.18)"/><path class="cls-1" d="M1027.22,716.46a1.05,1.05,0,0,0,.43,0l-.07,0A.54.54,0,0,1,1027.22,716.46Z" transform="translate(-916.52 -714.18)"/><path class="cls-1" d="M1033.47,717.08a.73.73,0,0,0-.09-.08l-.2,0Z" transform="translate(-916.52 -714.18)"/><path class="cls-1" d="M1037.18,733.08a.74.74,0,0,1-.14.39C1037.2,733.31,1037.55,734.36,1037.18,733.08Z" transform="translate(-916.52 -714.18)"/><path class="cls-1" d="M1037.42,726.09a.27.27,0,0,1,.24,0l-.19-.14S1037.4,726,1037.42,726.09Z" transform="translate(-916.52 -714.18)"/><path class="cls-1" d="M1027.25,714.23c.39,0,.77-.05,1.16,0A7.88,7.88,0,0,0,1027.25,714.23Z" transform="translate(-916.52 -714.18)"/><path class="cls-1" d="M1020.79,747.74l-.27,0A.56.56,0,0,0,1020.79,747.74Z" transform="translate(-916.52 -714.18)"/><path class="cls-1" d="M1031.85,714.39a2.89,2.89,0,0,0,.6.32.53.53,0,0,0,.15-.05Z" transform="translate(-916.52 -714.18)"/><path class="cls-1" d="M1037,733.48h0Z" transform="translate(-916.52 -714.18)"/><path class="cls-1" d="M1037.13,741.18c.43-1.06-.14-.62-.26-.91.27-1.29.42-.51.73-.91a5.56,5.56,0,0,0,0-1.16,3.88,3.88,0,0,1-.09-1c.06,0,.09-.16.16,0a3.18,3.18,0,0,1-.08-.8c0-.3-.07-.63-.1-1s-.08-.67-.14-1a3.19,3.19,0,0,0-.36-.81.37.37,0,0,1,.06-.15.55.55,0,0,1-.46.27c-.12-.46-.48-.76-.3-1,.08.28.18.27.3.38l-.26-.45c.17-.55.34.62.58.55-.39-1-1.17-1.85-1.48-2.53.23-.34,1,1.51.74.46a9,9,0,0,1,.39,1.14c.14-1.06.26.7.46-.31a5.42,5.42,0,0,0-.82-1.54c-.28-.36-.56-.72-1-1.38-.38-.15-.14.26-.52.12a6.46,6.46,0,0,1-.85-.88,3.21,3.21,0,0,1-.32-.65,1.48,1.48,0,0,0-1.07-1,1.94,1.94,0,0,1-1.7-.55l.53-.15a1.81,1.81,0,0,0-1.17-.35c-.25,0-.48,0-1.16-.42.32,0,1.14.33.95.2-.83-.68-.75-.09-1.48-.35l0-.37a15.82,15.82,0,0,0-5.1-.48c.1-.1.41-.2,0-.32a18.37,18.37,0,0,0-6.91,1.62,7.74,7.74,0,0,0-.55.73c-.16.11-.38.11-.24-.06-.78.45.08.17-.19.52s-.6.31-.42,0a15.79,15.79,0,0,0-1.69,2.46c-.55,1-1,2-1.3,2.73v-.34a2,2,0,0,0-.08,1.35,2.19,2.19,0,0,1,0,1.24l0-.22a10.81,10.81,0,0,0,.41,4c.36,1.26.82,2.39,1.14,3.37.28.07.57.65.91,1.17s.73,1,1,.87c.38.66.49.93.68,1.23a6.49,6.49,0,0,0,1.23,1.42c.45.38.91.22,1.54.54l-.15.27c.34.08.68.13,1,.18a6,6,0,0,0,.31.55c.22.07.43.15.66.2-.25-.11-.47-.36-.4-.42a9.38,9.38,0,0,1,2.41,1.11,10.12,10.12,0,0,0,2.58-.14c0,.14-.48.19-.82.28,1.37-.37.28.34,1.53-.09-.18,0,.06-.19.08-.26a5.62,5.62,0,0,0,3-.91,1.31,1.31,0,0,1-.09.28,8.59,8.59,0,0,0,2.48-1.86A12,12,0,0,0,1033,743c-.44.64-.66.3-.44-.25l.4-.09c0-.43-.38.53-.27-.3.32-.69.54-.35.47.12.09-.31.16-.63.23-.94.12,0,.09.21.18.3,0-.41.79-1.53.53-2.16l.11,0a14,14,0,0,0-.14-4.72c-.28,0-.33-.64-.67-1.07a10.53,10.53,0,0,0-1.25-3.86c-.66-.83-.36-.14-.75-.44.2-.22-.76-1.39-.13-.89a10.14,10.14,0,0,0-.8-.86,5,5,0,0,0-.75-.64,7.46,7.46,0,0,0-2.23-1.18c.19.18.41.36.24.37-.38-.14-.81-.47-.72-.56h.11c-.31-.09-.65-.13-1-.23a4.7,4.7,0,0,0-.51-.12c-.16,0-.47-.11-.69-.13-.49,0-1-.14-1.54-.18-.23.44-.52.88-.72,1.37-.11.23-.25.51-.32.71l-.18.54a5.62,5.62,0,0,0-.19,1.06,3.66,3.66,0,0,0,.28,1.86l0-.12a8.7,8.7,0,0,0,.92,2c.39.91-.43-.46-.26.27.71,1,1.23,1.69,1.76,2.37a6.13,6.13,0,0,0,1.92,1.71,5,5,0,0,0,2.77,1.94,34.09,34.09,0,0,0,3.78.92l-.11-.19c.53-.14.64.1,1,.13-.07-.13-.59-.13-.26-.24,4.61-.26,8.58-4.27,9.45-8.73a1.65,1.65,0,0,0-.23-1.37,2.19,2.19,0,0,1-.07-1.61l.34.57a22.5,22.5,0,0,0-1-4.82,10.1,10.1,0,0,0-2.4-4.18c.17.1.26,0,.45.29a3.25,3.25,0,0,0-.91-1.21c-.43-.36-.83-.6-.9-.53-.34-.36,0-.22-.13-.49-.48-.55-1.56-.8-1.76-1.14,0-.06.21,0,.32.07a9.2,9.2,0,0,1-1-.5c-.37-.19-.66-.25-.52,0a17.09,17.09,0,0,0-3-1,3.38,3.38,0,0,1-1.25-.14c-.44-.06-.84-.11-1,.1.13-.47-2-.47-2.74-.13.23-.16-.65-.08-.38-.3-.85.08-1.59.35-1.4.54a3.74,3.74,0,0,0-2.17.46,2.55,2.55,0,0,1-1.69.41,23,23,0,0,0-5.56,4.13c-.12-.19.31-.63.76-1s.91-.72.73-.88a34.7,34.7,0,0,0-3.56,4.07c-.38.39,0-.36.09-.55a16.69,16.69,0,0,0-2.81,5.18,1,1,0,0,1,0-.42c-.13.35-.38.77-.17.81l.08-.35c.48-.42,0,1.54.23,1.66-.39-.76-.65,1.66-1.09.54,0,.24,0,.55.13.53-.12.34-.22.44-.3,0-.14,1.31.14.89-.06,2.05-.09,0-.11-.26-.2-.4a5.53,5.53,0,0,1,.07,2.2c-.06-.06-.14,0-.13-.25,0,1.72.42,2.89.53,4.72-.5-.48,0,.64-.4.81l.35,1,.08-.44a9.22,9.22,0,0,0,.4,1.19,3.72,3.72,0,0,1,.4,1.08l-.35-.57a15.66,15.66,0,0,0,.63,1.52,7,7,0,0,1-.2-.91c.49.75.37-.24.73.84a8,8,0,0,1,.34,1.29h0a3.24,3.24,0,0,1,.89,1.22c0,.2-.41.1-.42.24a4,4,0,0,1,.89.91,2.4,2.4,0,0,0,1,.9c-.18-.08-.34,0-.32.11l.43.09c.21.35.23.42.07.48.82.92,0-.58.94.55-.1,0-.08,0-.29-.12a16.13,16.13,0,0,0,3.39,2.35c.09.25-.18.14-.45,0s-.49-.28-.39,0a23.4,23.4,0,0,0,5.64,1.67,1.8,1.8,0,0,1-.33-.1c.34-.48,1.31.5,2.29.31-.24,0-.33.28-.26.23a11.87,11.87,0,0,0,4.5-.48l-.22.17a13.63,13.63,0,0,0,2.76-.47c.19-.2.63-.35.3-.44a5.66,5.66,0,0,0,3.31-1.36,20.33,20.33,0,0,1,2.73-2c-.16.21-.39.51-.22.38.44-.46.82-1,1.22-1.48-.28,0-.27.09-.68.27a5,5,0,0,1,.59-1.09c-.36.77.29.22.61,0-.09,0-.08-.14-.16-.15.45-.29.38-.39.32-.53s-.1-.31.3-.84l.07.12c.16-.48.26-.93.46-1.42.16,0,.15.08.12.25s-.11.34,0,.4a2.69,2.69,0,0,0,.18-1.12,1.75,1.75,0,0,1,.31-1c0,.32-.17.76-.19,1.09a2.29,2.29,0,0,0,.66-1.27l0,0,.37-1.27-.14.32a3.15,3.15,0,0,1-.25-1.52,7.36,7.36,0,0,0,0-.82,3.09,3.09,0,0,0-.25-.88c.53,1.2.27.19.57.26.06-.34.12-.85.21-.72-.26-.59,0-1.06-.47-1.85.1-.07-.12-.65.14-.58-.31-.75-.1.23-.25.19a7.82,7.82,0,0,1-.64-2,7,7,0,0,0-2.34-3.42c-.37-.26-.66-.56-1.2-1-.2-.45.52,0,.52,0a4.2,4.2,0,0,0-1.41-1.46c.16,0,.1-.12,0-.34-.46-.36-.52,0-1-.58a1.75,1.75,0,0,1,.68.07,12.78,12.78,0,0,0-1.91-.89c-.08-.25.49,0,.77.05a4.31,4.31,0,0,0-2.25-.71l.42.3c-.27-.1,0-.27.18-.23.72.09.85.51.82.63a1.76,1.76,0,0,0-.47-.18,1.74,1.74,0,0,0,1,.81,4.75,4.75,0,0,1,1.47.82l-.58.06,1,.39c.09.22,0,.48-.37.22.37.6.53.33.78.91,0,.08,0,.07-.07,0l.56.41c-.16,0-.15.27-.39-.07a5.93,5.93,0,0,0,.93,1.14c.29.28.52.48.49.77l-.07-.07c1,1.38.33,0,1.29.91a10.86,10.86,0,0,1-.33,1.11l.35,0c.06.17.18.49,0,.48.45.51.08-.15.41.12,0,.88.83,2.19.35,2.49.28.25,0-.82.35,0-.47.35.32,1,.11,1.81-.29-.21-.2-.93-.38-.16a1.08,1.08,0,0,1,.2,1,6.21,6.21,0,0,0-.18,1.11c.18,0,.23.37.18.84s-.2,1.06-.25,1.6c0,0-.25.42-.49,1l-.19.45c-.08.15-.17.29-.26.43l-.46.74,0,0c.29.37-.39,1.16-.74,1.82-.16-.16-.15-.32,0-.7l-.39.55a1.43,1.43,0,0,1-.38.75l-.09-.31a6.59,6.59,0,0,1-2.14,2.09c.08.26,1.24,0,.23.9a.28.28,0,0,1,0-.49,1.49,1.49,0,0,1-.49.39l.3-.48c-.51.22-.13.32-.51.55-.1-.18-.35.05-.37-.12s.36-.13.45-.29a2.25,2.25,0,0,1-1.24.37c.09.08.12.23-.19.42-.82.42-.37-.06-.9.05-.16.21-.75.28-.67.56-.25.09-.34,0-.47-.06-.4.29-2.13.61-1.54.79h.13l-.07,0h0c-1.52.61-3.3.36-4.85.34v-.1a6.71,6.71,0,0,1-1.48,0c-.49,0-.95-.05-1.3-.05s-.59-.33-.45-.42a3.14,3.14,0,0,1-1.74-.53c.73.09-.18-.23.73.13a6.18,6.18,0,0,0-2-.77c.41-.09-.48-.57-.87-.73a4.09,4.09,0,0,0,.47.46,5,5,0,0,1-1.15-.7l.37-.15a10.3,10.3,0,0,0-2-1.43,5.25,5.25,0,0,1-.87-.73,1.68,1.68,0,0,1-.52-1c-.49-.24.49.89,0,.72a8.18,8.18,0,0,1-.77-1.92c-.4-1.09-1-.66-1.41-1.86,0,.19-.26.47-.76-.35-.28-.86.11-1.19.37-.71.07.19.07.3,0,.31.15.24.35.55.33.19l-.16-.06c-.05-.44-.42-1.55-.15-1.34-.32-.57-.28-.21-.18.27-.11-.54-.21-1-.31-1.38a5.92,5.92,0,0,1-.26-1.41c0,.19-.15.38-.17.2-.08-1.68-.38-.69-.51-1.84.15-.66.45.21.23-.93.1-.7.3-.15.42.12a2.8,2.8,0,0,1,0-1.41c.08-.42.2-.78.27-1.06a4.9,4.9,0,0,0,0,.54,3.91,3.91,0,0,1,0-.85l-.27.28c.08-.31.11-.57.21-.55-.12-.35-.42.2-.56-.48.16-.41.12-1.32.45-1.4-.37,1.3.34-.07.17,1a2.58,2.58,0,0,1,.16-.77s.06.05.06.14c.52-1.16-.24-.64.13-1.92.12.21.4-.19.43-.4-.15.5-.37.15-.33-.36.44-.74.24-.9.42-1.31l-.24.45c-.1-.23.06-.64.3-1.19.14,0-.17.53,0,.36,0-.74.93-1.21,1.27-2.07.33-.29.3.15.56-.12.39-1,.84-.73,1.35-1.66-.39.06-.39.15,0-.56a16.36,16.36,0,0,0-1,1.46l.43-1.11c-.33.42-.58,1-.81,1.22.18-.55.2-.47-.12-.38a1.83,1.83,0,0,0,.74-.86,2.39,2.39,0,0,1,.8-.91l.41.43c1.06-.69,1.43-1.78,2.92-2.56l-.5.21c.06-.31.83-.61,1.27-.93,0,.19.39.1.64.1,0-.06.22-.21.5-.37s.58-.34.57-.56c.27,0,.52,0,.79,0,1.28-.34,1.28-1,2.58-1.26-.34.29.26.28-.54.65.41-.12.8-.14.78-.27.26.07,1.13-.48,1.56-.3.17-.1.21-.32.7-.34.06,0,0,.1,0,.1s.76-.14.32-.36a3.92,3.92,0,0,0,1.18.27c.43.08.89.1,1.35.14s.89.16,1.29.25a2.94,2.94,0,0,1,1,.52,12.16,12.16,0,0,1,1.41.46c.47.19.89.45,1.27.64-.08,0,0,.08-.18,0a1.23,1.23,0,0,0,.89.39,1.1,1.1,0,0,1,1,.57c.27.71-.62-.38-.4,0-.15.31.13.57.51.86a2.52,2.52,0,0,1,.91,1.17l-.17-.14c.21.64,1.12,1.22,1.52,2.28,0,0-.08,0-.09,0a4.56,4.56,0,0,1,.85,1.32,13.79,13.79,0,0,1,.55,1.73c-.28-.31-.23-.47-.43-.23.1.48.4-.21.58.77,0,.17-.09.43-.15.66s-.18.44-.31.49a5.29,5.29,0,0,0-.07-.9c-.27.48,0,1.15,0,1.63l-.15-.06c-.05,1.35.34,1.44,0,2.9l.15-.12c.12.91-.42.58-.44,1.46l-.47.05a6.9,6.9,0,0,1-1.23,2.58,2.49,2.49,0,0,1,.21-.49q.12-.28.24-.6l.27-.59a5.41,5.41,0,0,0,.15-.57c0,.12-.13.27-.22.44l-.32.51a4.51,4.51,0,0,0-.42.83c.13-.16.2-.44.37-.57a2.37,2.37,0,0,1-.48,1.07,4.13,4.13,0,0,1-.43.55c-.18.15-.39.31-.61.47-.15-.37-.7,0-1.41.32a2.51,2.51,0,0,1-2,.21,4.57,4.57,0,0,1-2.61-.11,13.44,13.44,0,0,1-2.65-1.2c.35.9-.54-.29-.75.28-.45-.25-.6-.38-.61-.44a10,10,0,0,1-.92-1.27c-.12-.38.43.23.49.09-.72-.77-.14-.49-.47-1.09-.07.25-.49-.06-.75-.59.07.28.18.55.28.83a1.65,1.65,0,0,1-.72-1.16,2.36,2.36,0,0,0-.49-1.23,3.51,3.51,0,0,0,.34.33,5.06,5.06,0,0,1-.58-1.51,9.22,9.22,0,0,0-.42-1.61c.09-.12.27-.25.28.06,0-.21.09-.41.11-.62a1.75,1.75,0,0,0,0-.25s0-.19.06-.22a1,1,0,0,1,.22-.06h.13l.35,0,.64.15a2.77,2.77,0,0,1,1,.55l-.19.07c.3.1.64,0,.9.4-.06,0-.2.05-.08.14a2.38,2.38,0,0,1,1.1.74l-.38-.15c1,1.33,2,1.85,2.74,3.28-.38.16-.07,1.55,0,2.26h-.07a16.61,16.61,0,0,1,.43,5.5c-.38.53-.76,1.46-1.33,2.36a5.52,5.52,0,0,1-2.23,2.06c.28-.07.15.31-.11.52-.41.15-1,.81-1.08.4l.15,0a1.22,1.22,0,0,0-.87,0c-.33,0-.7.18-1,.2l-.05.54c-1-.28-2.13-.29-3.24-.56s-2.09-.71-2.33-1.29a10.78,10.78,0,0,1-1.36-.68l.21-.2a22.4,22.4,0,0,1-2.32-2.61l.35.14c-.49-.71-1.32-.49-1.75-1.25l.26-.41a10.06,10.06,0,0,1-.71-2.24c-.16-.77-.28-1.5-.51-2.25.06,0,.19.06.22.3a10.66,10.66,0,0,1,.1-1.58c.06-.55.08-1-.23-.93.18,0,.28-.33.37-.82s.23-1.06.35-1.47l.19.25a2.41,2.41,0,0,1,.51-1.73c.2-.16.3,0,0,.18.64-.49.2-.67,1-1.21l-.14.37a2.09,2.09,0,0,0,.76-1c.37-.41,1.42-.75,1.63-.56a1.14,1.14,0,0,1,.87-.64c.1.07,0,.18-.13.23,1.35-.24,1.94-.85,3-.67a.22.22,0,0,0,.17.15c-1.1.07-2,.28-1.88.24.06.24.91.13.31.6a4.81,4.81,0,0,1,2.65-.74l.12.1-.09,0a1.61,1.61,0,0,0,.54,0,6.19,6.19,0,0,0,.7.14c.08.22,1,.24,1.4.36,0-.28.58-.12.1-.46.07,0-.09,0-.38,0a.7.7,0,0,0-.2,0l0,0c-.29,0-.67-.1-1.11-.13a1.52,1.52,0,0,1,1.23.06,7.06,7.06,0,0,1,.72-.31c.53.53,1.58,1.09,1.63,1.39,1.34.32,2.86,1.3,3.84,1.45.35.21.25.41.31.57a2.84,2.84,0,0,0-.55-.3c.72.35,1.68,1.52,2.07,1.44.46.89-.59-.22.26.81l-.2-.08c.5,1.21,1.1,2,1.6,3a6.2,6.2,0,0,1,.32.79,7.62,7.62,0,0,1,.17.88,3.86,3.86,0,0,1-.24,2c.06-.2.09-.3.16-.34a14.83,14.83,0,0,1-1.65,4.85,9.35,9.35,0,0,1-3.52,3.72,3.32,3.32,0,0,0-1.16,1.21l-.34-.15a5.9,5.9,0,0,1-.7.8,2.85,2.85,0,0,1-.9.46,8.31,8.31,0,0,1-1,.15,6.23,6.23,0,0,0-2.17.58l.26.15a10.76,10.76,0,0,1-1.23.21c-.42.05-.74.07-.69-.06a.38.38,0,0,1-.46.13l0-.16c-.52.06-1.05.17-1.59.2-1.18-.34.26-.59-1.41-.93-.59-.15-1.88-.17-1.7,0s.61.32.58.47l-.62-.13c-.27.4-1,.64.49,1.52a5.45,5.45,0,0,0,1.21,0l.32.29a6.82,6.82,0,0,1-1-.2,1.49,1.49,0,0,0,1.32.17.86.86,0,0,0,.46.34,8,8,0,0,0,1.18-.36c.14.18-.54.34.25.47.54-.19-.51-.43.38-.54.55.23.4.4,1,.15.1.11,0,.2-.29.28.57-.21,1.55-.2,1.79-.54.62.12,1.87-.51,1.94-.11a5,5,0,0,1,1.32-.89c-.35.4.13.28.65,0s1.14-.56,1.17-.25c.41-.75,2.11-1.59,2.87-2.66a.46.46,0,0,1-.18.27c.58-.42.8-.49,1.19-.77-.22-.34.51-1.18.63-1.83.82-.47.05.7.5.71-.27-.16.67-1.43.27-1.34.57-.42.39-.43.85-.56-.37-.35.25-.6.25-1.23.58-.81.51,0,.78-1.13C1037.33,740.2,1037.13,741.18,1037.13,741.18Zm-13.89-16.95h0Zm-2.09.16c.25,0,.57,0,.9-.09.08.09,0,.19-.19.21C1022,724.44,1021.47,724.42,1021.15,724.39Zm4.12,2c-.29,0-.38-.07-.41-.13l.51,0,0,0A.32.32,0,0,1,1025.27,726.34Z" transform="translate(-916.52 -714.18)"/><path class="cls-1" d="M1025.86,726.07a.47.47,0,0,1,.12,0l-.16-.1-.12.07Z" transform="translate(-916.52 -714.18)"/><path class="cls-1" d="M1031.05,750.87h0l.1,0Z" transform="translate(-916.52 -714.18)"/><polygon class="cls-1" points="101.99 32.64 102.02 32.58 101.83 32.53 101.99 32.64"/><path class="cls-1" d="M1040.61,745.81s.08,0,.15-.08S1040.68,745.76,1040.61,745.81Z" transform="translate(-916.52 -714.18)"/><path class="cls-1" d="M1042.66,741.33l.22-.68C1042.77,740.94,1042.71,741.16,1042.66,741.33Z" transform="translate(-916.52 -714.18)"/><path class="cls-1" d="M1043.09,737.54a.24.24,0,0,0-.13-.07h0Z" transform="translate(-916.52 -714.18)"/><path class="cls-1" d="M1011.56,726.17s0-.09,0-.14C1011.68,725.69,1011.61,725.92,1011.56,726.17Z" transform="translate(-916.52 -714.18)"/><path class="cls-1" d="M1012.63,743.5a5.19,5.19,0,0,1-.36-.46C1012.39,743.33,1012.48,743.56,1012.63,743.5Z" transform="translate(-916.52 -714.18)"/><path class="cls-1" d="M1027.13,714.24Z" transform="translate(-916.52 -714.18)"/><path class="cls-1" d="M1011.93,742.28a2.68,2.68,0,0,0,.34.76A3.46,3.46,0,0,0,1011.93,742.28Z" transform="translate(-916.52 -714.18)"/><path class="cls-1" d="M1034.63,724.07l-.16-.09,0,0Z" transform="translate(-916.52 -714.18)"/><path class="cls-1" d="M1034.43,724l-.21-.06A.45.45,0,0,0,1034.43,724Z" transform="translate(-916.52 -714.18)"/><path class="cls-1" d="M1033.8,723.84l.42.11C1034.09,723.89,1033.92,723.8,1033.8,723.84Z" transform="translate(-916.52 -714.18)"/><path class="cls-1" d="M1038.66,727.19l.11,0A.12.12,0,0,0,1038.66,727.19Z" transform="translate(-916.52 -714.18)"/><path class="cls-1" d="M1039.68,728.34a3.84,3.84,0,0,0-.82-1.2l-.09,0C1039.05,727.24,1039.37,728.14,1039.68,728.34Z" transform="translate(-916.52 -714.18)"/><path class="cls-1" d="M1041.33,734.38l-.28-1.17c0,.24-.1.54-.29,0C1040.9,734.77,1040.9,732.88,1041.33,734.38Z" transform="translate(-916.52 -714.18)"/><path class="cls-1" d="M1041.73,738c-.1-.62-.15,0-.22,0C1041.62,738.38,1041.63,738.49,1041.73,738Z" transform="translate(-916.52 -714.18)"/><path class="cls-1" d="M1022.81,750.45l.13-.23C1022.46,750.14,1022.91,750.31,1022.81,750.45Z" transform="translate(-916.52 -714.18)"/><polygon class="cls-1" points="100.98 35.26 101.33 35.68 101.66 35.61 100.98 35.26"/><polygon class="cls-1" points="99.86 31.89 100.02 32.02 99.42 31.5 99.86 31.89"/><path class="cls-1" d="M1032.34,717l-.07-.34C1031.94,716.66,1031.8,717,1032.34,717Z" transform="translate(-916.52 -714.18)"/><path class="cls-1" d="M1040.71,731.35a1.33,1.33,0,0,0-.43,1C1040.43,731.92,1040.71,731.58,1040.71,731.35Z" transform="translate(-916.52 -714.18)"/><path class="cls-1" d="M1024.19,746l.34-.12a4.69,4.69,0,0,1-.64.09Z" transform="translate(-916.52 -714.18)"/><path class="cls-1" d="M926.56,808c0,.17.2.2.42-.17l-.1-.42Z" transform="translate(-916.52 -714.18)"/><path class="cls-1" d="M928.78,806.14c.22-.45.44-1.07,0-1.06-.13.58-.31.58-.4,1.21-.25.33-.52.52-.59.38,0,.17-.44.49-.41.8a3.71,3.71,0,0,0,1.27-1.51C928.8,805.9,928.76,806.07,928.78,806.14Z" transform="translate(-916.52 -714.18)"/><path class="cls-1" d="M957.94,816.9l.06-.25A.83.83,0,0,0,957.94,816.9Z" transform="translate(-916.52 -714.18)"/><path class="cls-1" d="M943,833.53c.18,0,.25-.08.26-.12C943,833.46,942.91,833.51,943,833.53Z" transform="translate(-916.52 -714.18)"/><path class="cls-1" d="M939,833a1.89,1.89,0,0,0,.23.05A.44.44,0,0,0,939,833Z" transform="translate(-916.52 -714.18)"/><path class="cls-1" d="M957.94,816.9l-.13.64C957.91,817.59,957.9,817.22,957.94,816.9Z" transform="translate(-916.52 -714.18)"/><path class="cls-1" d="M932.88,802.12a1.31,1.31,0,0,0-.3.26l.3-.21S932.87,802.14,932.88,802.12Z" transform="translate(-916.52 -714.18)"/><path class="cls-1" d="M954.5,807.22l-.12-.14-.21,0Z" transform="translate(-916.52 -714.18)"/><path class="cls-1" d="M947.87,802.85c.16.07.32-.18.43-.27a.63.63,0,0,1-.45,0A.3.3,0,0,0,947.87,802.85Z" transform="translate(-916.52 -714.18)"/><path class="cls-1" d="M935.09,802.42l-.2.12Z" transform="translate(-916.52 -714.18)"/><path class="cls-1" d="M957.13,812.24a.23.23,0,0,0-.08.09S957.11,812.29,957.13,812.24Z" transform="translate(-916.52 -714.18)"/><path class="cls-1" d="M934.66,828.2l0,0C934.64,828.15,934.62,828.16,934.66,828.2Z" transform="translate(-916.52 -714.18)"/><path class="cls-1" d="M928.69,820.32l.11.08a.51.51,0,0,0,.13-.09Z" transform="translate(-916.52 -714.18)"/><path class="cls-1" d="M932.62,829.67l0,0C932.82,829.78,932.73,829.72,932.62,829.67Z" transform="translate(-916.52 -714.18)"/><path class="cls-1" d="M946.17,828.66c.37-.12.18.12,0,.35s-.31.4.25.19C946.3,829.17,947,828.24,946.17,828.66Z" transform="translate(-916.52 -714.18)"/><path class="cls-1" d="M933.09,802a1.44,1.44,0,0,1,.33-.16A1,1,0,0,0,933.09,802Z" transform="translate(-916.52 -714.18)"/><path class="cls-1" d="M946.44,829.2h0l.12-.05Z" transform="translate(-916.52 -714.18)"/><path class="cls-1" d="M927,815.16a.48.48,0,0,0-.17.12S926.85,815.26,927,815.16Z" transform="translate(-916.52 -714.18)"/><path class="cls-1" d="M929.23,827l-.17-.27A1.59,1.59,0,0,0,929.23,827Z" transform="translate(-916.52 -714.18)"/><path class="cls-1" d="M929.78,809.41a1.14,1.14,0,0,0,.33-.33l-.08,0A.62.62,0,0,1,929.78,809.41Z" transform="translate(-916.52 -714.18)"/><path class="cls-1" d="M935.41,805.57h-.14l-.2.1A1.89,1.89,0,0,1,935.41,805.57Z" transform="translate(-916.52 -714.18)"/><path class="cls-1" d="M953.6,830.42a1,1,0,0,1-.41-.06C953.38,830.48,952.49,831.06,953.6,830.42Z" transform="translate(-916.52 -714.18)"/><path class="cls-1" d="M933,802.26a.3.3,0,0,1,.14-.22l-.21.13C932.88,802.22,932.89,802.26,933,802.26Z" transform="translate(-916.52 -714.18)"/><path class="cls-1" d="M928.37,807.66a10.41,10.41,0,0,1,.93-.83A6.18,6.18,0,0,0,928.37,807.66Z" transform="translate(-916.52 -714.18)"/><path class="cls-1" d="M930.33,801.94l.22-.17A.67.67,0,0,0,930.33,801.94Z" transform="translate(-916.52 -714.18)"/><path class="cls-1" d="M932.28,804.63a3.43,3.43,0,0,0,.7-.18s.08-.08.09-.13C932.8,804.4,932.54,804.53,932.28,804.63Z" transform="translate(-916.52 -714.18)"/><path class="cls-1" d="M953.18,830.36h0Z" transform="translate(-916.52 -714.18)"/><path class="cls-1" d="M946.91,834.66c1-.53.27-.57.37-.87,1.09-.73.66-.06,1.14-.11A20.35,20.35,0,0,1,950,832.3c.07,0,.19,0,.1.13.61-.68,2.23-1.27,2.93-2.08a.31.31,0,0,1,.15,0,.56.56,0,0,1-.38-.37c.43-.24.68-.65,1-.53-.26.15-.24.24-.32.38l.39-.35c.58.08-.55.45-.43.68a15.6,15.6,0,0,1,2.42-1.71c.31.22-1.51,1-.47.74l-1.1.47c1.06,0-.65.32.36.41a9,9,0,0,0,1.43-.84l.28-.19c.09-.06.17-.12.41-.26a3,3,0,0,0,.63-.41c.12-.24.24-.51.38-.81,0-.42-.3,0-.32-.43a4.34,4.34,0,0,1,.5-1.19,2.52,2.52,0,0,1,.46-.59,1.71,1.71,0,0,0,.59-1.46,2,2,0,0,1-.07-1.9l.3.47c.28-1.59-.44-1,0-2.6.12.3,0,1.26.09,1,.38-1.07-.12-.78-.14-1.6l.34-.17c0-.43-.06-.87-.1-1.31s-.16-.88-.25-1.33c-.14-.91-.46-1.79-.68-2.69.12.07.29.36.3-.09a42.6,42.6,0,0,0-2.75-6.85l-.74-.57c-.11-.17-.1-.39.07-.24-.45-.79-.17.07-.53-.2s-.3-.63,0-.43c-1.13-1.17-3.47-2.86-4.71-4l.33.09a2.61,2.61,0,0,0-1.3-.51,2.78,2.78,0,0,1-1.2-.49l.23,0a14,14,0,0,0-4-1.35c-.7-.09-1.36-.26-2-.3a17.85,17.85,0,0,1-1.78-.24c-.19.23-.89.25-1.56.29s-1.29.22-1.32.5a9.39,9.39,0,0,0-3.43.39c-.57.23-.68.72-1.33,1.08l-.15-.27a6.64,6.64,0,0,0-.74.76l-.65,0-.57.42c.25-.12.59-.18.6-.08a6.65,6.65,0,0,1-.74.46,6.49,6.49,0,0,1-.75.43c-.49.24-.89.38-.95.32-.62.63-1.21,1.27-1.76,1.94-.06-.13.22-.47.43-.75-.41.57-.49.58-.59.55s-.18,0-.51.52c.17-.08.08.2.11.26a4.14,4.14,0,0,0-1,1c-.35.47-.7,1-1,1.46l-.06-.28a16.47,16.47,0,0,0-2.27,5.95c.28-.76.6-.49.49.12l-.38.2c.15.44.22-.64.35.24-.11.79-.42.5-.48,0l0,1c-.1,0-.13-.19-.25-.26a2.77,2.77,0,0,1-.14,1.11,2.13,2.13,0,0,0,.14,1.26l-.1.06a14.53,14.53,0,0,0,1.33,4.91c.24-.07.53.57,1,.93l.4.93.52.91a10.5,10.5,0,0,0,.58.95c.23.3.48.59.75.88.83.73.38.08.83.33-.14.24,1,1.26.32.86a11.86,11.86,0,0,0,1.74,1.35,12.5,12.5,0,0,0,2.26,1.21c-.18-.22-.4-.4-.23-.4.39.17.79.56.68.64l-.11,0c1.25.45,2.58,1.16,4,1.7a12.93,12.93,0,0,0,2.08.57,5,5,0,0,0,1.86,0l-.13,0a12.7,12.7,0,0,0,2.21-.43c1-.08-.59.26.2.33.59-.15,1.09-.42,1.58-.55a9.71,9.71,0,0,0,1.35-.44,7.43,7.43,0,0,0,2.43-1.32,5.59,5.59,0,0,0,2.89-2.21c.92-1.17,1.58-2.53,2.23-3.4l-.21,0c0-.56.35-.56.53-.92-.14,0-.37.49-.33.14a22.92,22.92,0,0,0,1.25-6.78,17.27,17.27,0,0,0-1.16-7,1.79,1.79,0,0,0-1-1.1c-.32-.17-.57-.4-1-1.4l.62.32a18.39,18.39,0,0,0-3.9-3.67,11.26,11.26,0,0,0-2.4-1.21,9.67,9.67,0,0,0-1.28-.34l-.63-.14-.65,0c.21,0,.24-.14.57-.09a4.85,4.85,0,0,0-1.6-.3c-.59,0-1.08.14-1.09.24-.53,0-.12-.18-.46-.28-.74-.1-1.78.45-2.18.31-.07,0,.18-.13.31-.17-.44.21-2.16.45-1.65.62a9.8,9.8,0,0,0-1.71.57,7.78,7.78,0,0,1-1.47.65c-.42.58-1.94,1-1.84,1.48-.09-.21-.6,0-1.13.43a6.67,6.67,0,0,0-1.24,1.35c.09-.29-.57.41-.49,0a8.25,8.25,0,0,0-.76.94c-.14.28-.18.46,0,.47a3.75,3.75,0,0,0-.88.9,9,9,0,0,0-.53,1.08c-.33.67-.46,1.33-1,1.62a15.22,15.22,0,0,0-.41,7.58c-.53,0-.25-2.65-.66-2.55a8.28,8.28,0,0,0,.21,1.59,8,8,0,0,0,.35,1.36c.23.87.55,1.7.86,2.78.17.56-.33-.23-.43-.41a16.08,16.08,0,0,0,3.27,5.48s-.21-.12-.36-.26c.26.31.52.77.65.6l-.28-.26c-.08-.35.28-.13.68.14a5,5,0,0,0,1,.54c-.43,0-.13.34.14.69s.53.65-.12.57c.23.15.53.29.58.15.26.28.3.43-.09.28a2.66,2.66,0,0,0,1,.57,3.15,3.15,0,0,1,.91.52c-.06.08-.29,0-.47,0a7.88,7.88,0,0,1,2.18,1c-.08,0,0,.16-.29,0,1.68.83,3,.85,4.94,1.45-.66.32.65.25.72.62a10.28,10.28,0,0,0,1.11,0l-.42-.21c1,.06,1.8-.25,2.62-.14-.23.08-.46.11-.7.17a8.23,8.23,0,0,0,1.78-.26l-1,0c.92-.34-.15-.45,1.09-.54-.12,0,.1,0,.43,0,.16,0,.35,0,.53,0a2.6,2.6,0,0,1,.47,0h0a3.87,3.87,0,0,1,1.5-.65c.21.06,0,.43.15.47a4.72,4.72,0,0,1,1.15-.75c.5-.27,1-.53,1.17-.85-.12.17,0,.34,0,.34l.19-.42c.41-.17.48-.18.51,0,1.13-.69-.61-.17.8-.85-.09.08,0,.08-.21.25a20.35,20.35,0,0,0,3.25-3c.58-.06-.79,1-.22.84,1.46-1.54,2.33-3.64,3.32-5.35l-.19.32c-.37-.48.86-1.23,1-2.27,0,.25.15.41.13.32a12.69,12.69,0,0,0,.62-2.1c.11-.79.19-1.67.24-2.7l.12.27a11,11,0,0,0,.17-1.48l0-.8,0-.74c-.16-.25-.18-.75-.35-.43a7.09,7.09,0,0,0,.12-1,6.46,6.46,0,0,0-.16-1,6.29,6.29,0,0,0-.64-1.81c-.3-.55-.58-1.1-.85-1.64a6.26,6.26,0,0,1-.78-1.65c.15.24.46.52.34.33a7.47,7.47,0,0,0-.62-.83l-.73-.74c-.06.27.08.29.21.73a3.47,3.47,0,0,1-1-.84c.7.58.27-.25.1-.65,0,.1-.16.06-.18.13-.52-1-.45.23-1.35-.9l.14-.05c-.43-.32-.94-.45-1.4-.78-.06-.35.54.2.7,0-.72-.41-1.58-.48-2.12-1a7.47,7.47,0,0,1,1.1.45,2.43,2.43,0,0,0-1.18-1l.05,0-1.21-.72.29.23a3.57,3.57,0,0,1-1.63-.2,3.62,3.62,0,0,0-1.82-.31c1.4-.15.28-.2.44-.47-.32-.16-.83-.36-.67-.41-.69.12-1.05-.45-2-.16,0-.1-.7-.07-.53-.3-.87,0,.19.19.1.3a3.85,3.85,0,0,1-1.07,0c-.38,0-.78,0-1.2-.08a6.54,6.54,0,0,0-1.33,0,5.81,5.81,0,0,0-1.37.33,5.39,5.39,0,0,0-1.64.69c-.41.26-.83.41-1.48.77-.52,0,.27-.48.27-.48a6.19,6.19,0,0,0-2.05.78c.11-.13-.07-.15-.32-.13-.54.32-.21.52-1,.78a1.94,1.94,0,0,1,.36-.64,12.45,12.45,0,0,0-1.71,1.46c-.26,0,.22-.48.38-.74-.65.6-1.74,1.43-1.71,1.86a2.39,2.39,0,0,1,.46-.29c-.23.19-.27-.08-.12-.26.46-.6.91-.55,1-.5l-.4.37c.4.07.8-.27,1.24-.69a10.55,10.55,0,0,1,1.46-1.06l-.2.58a7.62,7.62,0,0,1,.82-.79c.27,0,.5.17,0,.41.78-.08.57-.37,1.25-.39.08,0,.06,0,0,.08l.64-.39c-.1.14.21.24-.23.34,1.3-.15,2-.84,2.5-.66l-.1,0c1.77-.38.11-.33,1.44-.86a8.75,8.75,0,0,1,1,.65l.16-.31c.19,0,.56,0,.49.15.7-.23-.12-.13.28-.34.91.2,2.53,0,2.68.49.35-.2-.85-.26.14-.33.21.51,1.12.09,1.89.49-.31.21-1-.08-.28.32a1.16,1.16,0,0,1,1.07.1,4.45,4.45,0,0,0,1.1.51c.07-.16.45-.09.94.09s1.05.51,1.6.7c0,0,.08.1.26.22l.69.53.86.65a7.24,7.24,0,0,1,.68.67l-.06,0c.37-.13,1.23.57,1.76,1.18-.18.12-.34.07-.69-.18l.49.56a1.8,1.8,0,0,1,.75.53l-.34,0a14.24,14.24,0,0,1,1,1.16,3.62,3.62,0,0,1,.81,1.53c.27,0,.24-1.28.94,0-.1.1-.3.24-.49-.07a1.61,1.61,0,0,1,.3.59l-.42-.42c.13.58.29.21.46.66-.19.06,0,.37-.17.36s-.08-.4-.23-.54a4.51,4.51,0,0,1,.21.78,1.48,1.48,0,0,1,0,.6c.1-.08.26-.08.37.29.25,1-.15.39-.11,1,.22.2.09.85.4.83a.62.62,0,0,1-.18.48,5.19,5.19,0,0,1,.18,1.3c0,.46,0,.79.21.51l0-.14v.09h0a8.16,8.16,0,0,1,0,1.31c-.07.44-.18.88-.29,1.31-.18.88-.59,1.68-.77,2.51l-.09,0a8.66,8.66,0,0,1-.51,1.51c-.2.5-.34,1-.45,1.33s-.52.53-.55.36a3.71,3.71,0,0,1-1.06,1.67c.32-.72-.28.13.37-.71a5.36,5.36,0,0,0-1.36,1.85c0-.42-.75.34-1,.73l.6-.38a11.45,11.45,0,0,1-1,1.06l-.06-.42a8.47,8.47,0,0,0-1.11.89c-.33.31-.59.69-.91,1-.64.54-1.22,1.17-2.08,1.15-.38.44,1.05-.33.76.11a10.85,10.85,0,0,1-2.19.46,1.78,1.78,0,0,0-1.09.52,1.67,1.67,0,0,1-1.18.5c.19.09.43.37-.57.65-1,.11-1.19-.31-.63-.5.22,0,.33,0,.33,0,.28-.09.66-.2.28-.27l-.1.14c-.23,0-.65,0-1,0s-.57-.08-.43-.18c-.67.12-.29.2.23.26a8.07,8.07,0,0,0-1.5-.08,6.81,6.81,0,0,1-1.5-.21c.17.09.33.25.14.23-1.71-.5-.82.06-2-.18-.61-.41.36-.33-.84-.6-.65-.36,0-.35.28-.34a2.89,2.89,0,0,1-1.38-.59c-.38-.24-.66-.53-.91-.71l.53.21a4.83,4.83,0,0,1-.79-.42l.15.37c-.26-.2-.51-.35-.45-.43-.38,0,0,.49-.69.28-.3-.38-1.23-.72-1.14-1.09,1.07,1,.07-.33,1.06.34a2.92,2.92,0,0,1-.68-.5c0-.06.08,0,.16,0-.82-1.09-.71-.1-1.73-1.1.25,0,0-.47-.17-.61.38.41,0,.41-.49.11-.5-.77-.71-.7-1-1.08l.29.47c-.25-.05-.56-.4-.95-.92.08-.12.4.44.32.21-.65-.43-.63-1.51-1.23-2.29-.11-.46.27-.19.17-.57-.61-.93-.26-1.16-.73-2.18-.14.38-.06.43-.52-.29a15.88,15.88,0,0,0,.75,1.75,8.54,8.54,0,0,1-.73-1c.14.57.55,1.11.64,1.44-.41-.47-.33-.44-.41-.1a2.66,2.66,0,0,0-.35-1.17,2.51,2.51,0,0,1-.36-1.26l.58-.09a9.68,9.68,0,0,0-.28-1.89,5.64,5.64,0,0,1-.1-2.21l-.13.55a1,1,0,0,1-.06-.71,6.73,6.73,0,0,0,.16-.95c.19.09.3-.25.49-.45-.15,0,.37-1.19.07-1.48l.56-.62a4.6,4.6,0,0,0,.51-1.45,4.5,4.5,0,0,1,.16-.66,3.68,3.68,0,0,1,.47-.74c-.08.47.41,0,0,.88.28-.37.55-.67.45-.76.22-.16.63-1.15,1-1.34.07-.21,0-.4.38-.74.07,0,.06.07.06.07s.54-.65,0-.5a8.59,8.59,0,0,0,1.16-.6c.4-.25.79-.57,1.22-.81a5,5,0,0,1,2.38-1c.47-.19,1-.42,1.5-.59s1-.3,1.5-.37c0,.06,0,.1-.16.1a1.26,1.26,0,0,0,1-.3c.2-.17.44-.34,1.18-.21.74.33-.77.16-.31.29.11.32.53.31,1,.26a3.17,3.17,0,0,1,1.57.29l-.22,0c.62.4,1.77.17,2.82.79,0,0-.07,0-.05.08a6.33,6.33,0,0,1,3.14,1.7c-.43-.09-.47-.28-.49,0,.38.36.18-.41,1,.33.11.36.5,1,.31,1.28-.18-.27-.4-.51-.6-.76,0,.6.77,1,1,1.46l-.16,0c.77,1.24,1.14,1.11,1.69,2.66l.06-.2c.66.74,0,.78.53,1.58l-.33.35a11.26,11.26,0,0,1,.82,3.07c-.28-.61-.57-1.83-.87-2.54a14,14,0,0,0,.47,2.24,2.53,2.53,0,0,1-.13-.76,4.94,4.94,0,0,1,.47,2.84c-.37-.13-.48.62-.65,1.49a4,4,0,0,1-.9,2.12c-.39,2-1.76,3.58-3.38,5.08,1-.09-.48.45,0,.83-.43.36-.6.48-.66.48a8.68,8.68,0,0,1-1.63.48c-.43,0,.41-.33.29-.43-1.06.43-.55,0-1.29.12.22.13-.23.5-.89.55a4.39,4.39,0,0,0,1,0,2,2,0,0,1-1.47.35,2.32,2.32,0,0,0-.59,0,2.55,2.55,0,0,0-.91.16l.48-.25c-.79.26-3,.21-3.9.45-.14-.1-.3-.29.07-.28-1.94-.34-4.58-.74-5.81-1.91l.22,0c-.36-.14-.74-.08-1.05-.51.06,0,.21,0,.08-.14a3.65,3.65,0,0,1-1.34-.77,3.22,3.22,0,0,0,.44.14c-1.38-1.42-2.57-1.76-3.66-3.12.18-.13.07-.54-.13-1s-.36-1-.52-1.37h.07c-.29-.49-.42-1-.64-1.44l-.31-.67-.23-.68A10.86,10.86,0,0,1,924,816c.32-.66.38-1.77.76-2.93a10.13,10.13,0,0,1,.62-1.75,7.47,7.47,0,0,1,.87-1.5c-.22.25-.27-.21-.13-.58.33-.38.56-1.33.83-1l-.11.14a1.47,1.47,0,0,0,.79-.6c.29-.28.58-.64.85-.93l-.3-.47a21.34,21.34,0,0,0,3-2.27c1-.77,2-1.44,2.71-1.34a12.61,12.61,0,0,1,1.44-.88l.07.27a32.15,32.15,0,0,1,3.76-.86l-.32.24a1.77,1.77,0,0,0,1.05-.51,1.4,1.4,0,0,1,1-.47l.28.42a7.93,7.93,0,0,1,1.29.11l1.26.27c.42.05.81.24,1.23.32s.84.13,1.25.24c0,0-.13.14-.39,0,.36.17,1,.54,1.62.79s1,.51,1.05.19c-.1.17.29.38.78.65s1.1.6,1.53.83l-.3.12a3.7,3.7,0,0,1,1.79.95c.15.23,0,.31-.19,0,.49.75.65.35,1.24,1.28l-.4-.2a2.73,2.73,0,0,0,1.05.91,3.54,3.54,0,0,1,.6.94,1.2,1.2,0,0,1,.13.83,1.54,1.54,0,0,1,.81.9c-.05.11-.2,0-.27-.11.48,1.46,1.25,2,1.29,3.09a.23.23,0,0,0-.1.22c-.32-1.18-.74-2.07-.68-2-.23.11.1,1-.53.44l.43.55q.21.32.42.69a3.84,3.84,0,0,1,.56,1.5.59.59,0,0,1-.06.14l0-.08a1.65,1.65,0,0,0,.17.57,5,5,0,0,0,.09.79c-.19.14,0,1.11.06,1.59.27-.06.3.58.47,0,0,.08,0-.08-.1-.41a.83.83,0,0,0,0-.2l0,0c-.06-.32-.08-.74-.18-1.21a1.78,1.78,0,0,1,.28,1.31c.21.23.42.5.53.65a20.67,20.67,0,0,1-.79,2.18c.07,1.49-.27,3.45-.1,4.49-.06.43-.29.43-.41.55a4,4,0,0,0,.08-.67,10.33,10.33,0,0,1-.39,1.55c-.18.52-.31,1-.18,1.15-.24.35-.25.15-.28.07s0-.08,0,0a.31.31,0,0,0,0,.09,1.46,1.46,0,0,1-.19.13.68.68,0,0,0,0-.14,3.61,3.61,0,0,0-.86.34,6.2,6.2,0,0,0-.87.51,17.81,17.81,0,0,0-1.54,1.17,10.14,10.14,0,0,1-3.7,2.11c.23-.07.34-.11.41-.08-1,.47-2,1-3,1.6l-2.64,1.58-.58-.56-.83-.85a23.49,23.49,0,0,1-1.53-1.8,3.33,3.33,0,0,0-1.53-1.08l0-.38-1-.54c-1.31-.94-1.43-2.46-3.2-3.54l0,.33c-.49-.53-1.71-1.52-1.46-1.6a.52.52,0,0,1-.44-.3l.09-.12-1.45-1.06c-.89-1.05.6-.29-.81-1.73-.57-.48-1.83-1.17-1.7-.9s.47.62.38.74l-.54-.42c-.42.25-1.13.22-.17,1.63l1,.62.11.42-.71-.68a1.67,1.67,0,0,0,1,.84.77.77,0,0,0,.17.52l1.13.5c0,.22-.62-.11-.14.5.52.23-.08-.65.65-.12.24.54,0,.55.6.88,0,.15-.17.11-.39,0,.51.3,1.13,1,1.52,1.08.23.59,1.45,1.33,1.1,1.61a4.86,4.86,0,0,1,1.36.84c-1.06-.32,1.41,1.43.82,1.65.85.17,2,1.69,3.11,2.41a.59.59,0,0,1-.3-.16,6,6,0,0,1,.8,1.17c.17-.11.47,0,.81.21l.51.3a4.74,4.74,0,0,0,.64.41c.37.63.22.65-.08.51s-.74-.42-.67-.09c.09-.19.9.51,1.38.85.35-.26.56-.45.41-.48,1-.28.81-.33,1.48-.33-.12-.5.51-.38.86-.92,1-.27.44.27,1.31-.38C947.66,834,946.91,834.66,946.91,834.66Zm11.44-20.85h0c0,.23.1.42.13.54Zm-.65-2.13c.07.26.17.58.28.92-.07.11-.19.06-.25-.16C957.82,812.54,957.72,812,957.7,811.68Zm-.82,4.83c-.08-.32,0-.43,0-.48l.1.55,0,0A.53.53,0,0,1,956.88,816.51Z" transform="translate(-916.52 -714.18)"/><path class="cls-1" d="M957.31,817c0,.05,0,.07,0,.13a1.42,1.42,0,0,0,0-.2l-.1-.1Z" transform="translate(-916.52 -714.18)"/><path class="cls-1" d="M958,816.61v0a.19.19,0,0,1,0-.09S958,816.59,958,816.61Z" transform="translate(-916.52 -714.18)"/><polygon class="cls-1" points="15.96 86.39 15.99 86.46 16.15 86.32 15.96 86.39"/><path class="cls-1" d="M954.7,805.49a.37.37,0,0,0-.07-.16S954.66,805.41,954.7,805.49Z" transform="translate(-916.52 -714.18)"/><path class="cls-1" d="M950.41,802.41l-.64-.41A7.59,7.59,0,0,0,950.41,802.41Z" transform="translate(-916.52 -714.18)"/><path class="cls-1" d="M946.64,800.87a.36.36,0,0,0-.11.1h0Z" transform="translate(-916.52 -714.18)"/><path class="cls-1" d="M927.9,828.34l-.11-.12C927.51,828,927.69,828.15,927.9,828.34Z" transform="translate(-916.52 -714.18)"/><path class="cls-1" d="M945.33,834.16a2.55,2.55,0,0,1-.57.29C945.11,834.41,945.36,834.3,945.33,834.16Z" transform="translate(-916.52 -714.18)"/><polygon class="cls-1" points="11.76 93.58 11.76 93.58 11.86 93.48 11.76 93.58"/><path class="cls-1" d="M943.87,834.59a2.86,2.86,0,0,0,.89-.14A4.58,4.58,0,0,0,943.87,834.59Z" transform="translate(-916.52 -714.18)"/><path class="cls-1" d="M929.75,804.09l-.17.11s0,0,0,0Z" transform="translate(-916.52 -714.18)"/><path class="cls-1" d="M929.59,804.25l-.15.16C929.52,804.34,929.59,804.29,929.59,804.25Z" transform="translate(-916.52 -714.18)"/><path class="cls-1" d="M929.15,804.79l.29-.38C929.32,804.52,929.17,804.65,929.15,804.79Z" transform="translate(-916.52 -714.18)"/><path class="cls-1" d="M934.55,801.52l0-.12A.16.16,0,0,0,934.55,801.52Z" transform="translate(-916.52 -714.18)"/><path class="cls-1" d="M936.11,801c-.2,0-.45,0-.72.08a2.86,2.86,0,0,0-.8.25l0,.1C934.77,801.15,935.79,801.19,936.11,801Z" transform="translate(-916.52 -714.18)"/><path class="cls-1" d="M942.82,801.53a7,7,0,0,0-1.29-.12c.23.11.52.25-.07.28C943.07,802,941.13,801.4,942.82,801.53Z" transform="translate(-916.52 -714.18)"/><path class="cls-1" d="M946.73,802.33c-.67-.14,0,.14-.08.2C947.08,802.57,947.19,802.58,946.73,802.33Z" transform="translate(-916.52 -714.18)"/><path class="cls-1" d="M955.17,825.06l-.18-.19C954.75,825.34,955.07,824.92,955.17,825.06Z" transform="translate(-916.52 -714.18)"/><path class="cls-1" d="M952.64,830.3a4.11,4.11,0,0,0,.51-.27v-.36A6.21,6.21,0,0,1,952.64,830.3Z" transform="translate(-916.52 -714.18)"/><polygon class="cls-1" points="32.38 116.68 32.55 116.53 31.88 117.08 32.38 116.68"/><path class="cls-1" d="M934.4,806.29l-.28-.22C933.82,806.27,933.93,806.61,934.4,806.29Z" transform="translate(-916.52 -714.18)"/><path class="cls-1" d="M950.78,812.51a1.63,1.63,0,0,0,.24,1.14A5.48,5.48,0,0,0,950.78,812.51Z" transform="translate(-916.52 -714.18)"/><polygon class="cls-1" points="12.69 91.69 12.47 92.04 12.97 91.47 12.69 91.69"/><path class="cls-1" d="M1034.45,815.35c-.12.06-.12.25.2.32l.32-.24Z" transform="translate(-916.52 -714.18)"/><path class="cls-1" d="M1036,816.84c.38.07.85.25.92-.16-.48-.06-.49-.2-1-.15-.24-.17-.4-.37-.28-.46-.14,0-.4-.33-.65-.18a2.19,2.19,0,0,0,1.2.8C1036.24,816.82,1036.1,816.81,1036,816.84Z" transform="translate(-916.52 -714.18)"/><path class="cls-1" d="M1020.57,822.58l.07.17A.47.47,0,0,0,1020.57,822.58Z" transform="translate(-916.52 -714.18)"/><path class="cls-1" d="M1020.12,806.89c-.06.11-.07.17,0,.2S1020.16,806.89,1020.12,806.89Z" transform="translate(-916.52 -714.18)"/><path class="cls-1" d="M1022.35,805.22l-.14.08A.18.18,0,0,0,1022.35,805.22Z" transform="translate(-916.52 -714.18)"/><path class="cls-1" d="M1020.57,822.58l-.18-.43C1020.28,822.19,1020.46,822.39,1020.57,822.58Z" transform="translate(-916.52 -714.18)"/><path class="cls-1" d="M1038.66,820.1a.92.92,0,0,0-.14-.26l.09.26Z" transform="translate(-916.52 -714.18)"/><path class="cls-1" d="M1026.52,826.77l.13,0,.14-.1Z" transform="translate(-916.52 -714.18)"/><path class="cls-1" d="M1032,827.19c-.12,0-.11.3-.14.43a.38.38,0,0,1,.24-.24A.5.5,0,0,0,1032,827.19Z" transform="translate(-916.52 -714.18)"/><path class="cls-1" d="M1037.63,821.57l0-.16Z" transform="translate(-916.52 -714.18)"/><path class="cls-1" d="M1023.09,824.76a.15.15,0,0,0,0-.11A.2.2,0,0,0,1023.09,824.76Z" transform="translate(-916.52 -714.18)"/><path class="cls-1" d="M1010.21,823.84h0S1010.2,823.8,1010.21,823.84Z" transform="translate(-916.52 -714.18)"/><path class="cls-1" d="M1011,816.67v.1l.15,0Z" transform="translate(-916.52 -714.18)"/><path class="cls-1" d="M1027,803.51h0C1026.86,803.57,1026.93,803.55,1027,803.51Z" transform="translate(-916.52 -714.18)"/><path class="cls-1" d="M1022.48,814.73c-.11.56-.54-.76-.61.07C1022,814.71,1022.48,815.39,1022.48,814.73Z" transform="translate(-916.52 -714.18)"/><path class="cls-1" d="M1038.65,820.28l0,.27A.91.91,0,0,0,1038.65,820.28Z" transform="translate(-916.52 -714.18)"/><path class="cls-1" d="M1021.87,814.8h0v0Z" transform="translate(-916.52 -714.18)"/><path class="cls-1" d="M1037.41,806.19a.29.29,0,0,0,0-.16S1037.4,806.09,1037.41,806.19Z" transform="translate(-916.52 -714.18)"/><path class="cls-1" d="M1029.89,802.62l.22,0A.74.74,0,0,0,1029.89,802.62Z" transform="translate(-916.52 -714.18)"/><path class="cls-1" d="M1039.71,809.87a.61.61,0,0,0,0,.32l0-.06A.28.28,0,0,1,1039.71,809.87Z" transform="translate(-916.52 -714.18)"/><path class="cls-1" d="M1039.68,814.57l.07-.07v-.16Z" transform="translate(-916.52 -714.18)"/><path class="cls-1" d="M1020.94,835.75a1,1,0,0,1-.12-.33C1020.82,835.63,1020.06,835.36,1020.94,835.75Z" transform="translate(-916.52 -714.18)"/><path class="cls-1" d="M1038.51,820.13a.21.21,0,0,1,.14.15l0-.18S1038.53,820.09,1038.51,820.13Z" transform="translate(-916.52 -714.18)"/><path class="cls-1" d="M1041.92,809.62l.11.91A8.6,8.6,0,0,0,1041.92,809.62Z" transform="translate(-916.52 -714.18)"/><path class="cls-1" d="M1044.7,814.8l.08.19A.37.37,0,0,0,1044.7,814.8Z" transform="translate(-916.52 -714.18)"/><path class="cls-1" d="M1042.11,813.2a1.57,1.57,0,0,0-.23.49.67.67,0,0,0,.07.11Z" transform="translate(-916.52 -714.18)"/><path class="cls-1" d="M1020.82,835.41h0Z" transform="translate(-916.52 -714.18)"/><path class="cls-1" d="M1015.74,832.83c.6.58.52,0,.78-.05.84.51.19.49.34.84.56.29,1.11.32,1.49.57,0,.07.06.13-.08.14.71.08,1.64,1,2.51,1a.24.24,0,0,1,0,.12.69.69,0,0,1,.12-.5c.32.14.69.06.71.34-.19-.1-.25,0-.37,0l.38.06c.17.46-.51-.11-.62.13.71.25,1.62.22,2.12.49,0,.36-1.29-.31-.67.21-.26-.14-.53-.25-.79-.41.43.76-.48-.25-.12.53a25,25,0,0,0,2.43.69c.3-.13,0-.29.28-.42a1.56,1.56,0,0,1,1.35.52,1,1,0,0,0,1.1.24c.34-.22.47-.58,1.32-.38l-.29.4c1.16,0,.63-.59,1.83-.4-.19.16-.88.18-.71.22.81.23.54-.22,1.11-.33l.18.32a15.41,15.41,0,0,0,1.83-.58l1.8-.84c0,.12-.19.32.14.28.71-.48,1.57-.8,2.32-1.28l1.18-.65,1.07-.71.29-.62c.11-.09.28-.09.21.07.52-.38-.1-.16,0-.46s.45-.23.35,0a26.41,26.41,0,0,1,2.54-3.52l0,.24c.58-.73.07-1.16.67-1.77l0,.17c1.08-1.68,1.47-3.82,2.23-5.19-.34-.35.48-1.92-.08-2.11a7.21,7.21,0,0,0,.64-2.4c0-.44-.42-.62-.53-1.13l.3,0a5.72,5.72,0,0,0-.41-.67l.28-.44-.18-.48c0,.2,0,.44-.14.43a3.38,3.38,0,0,1-.2-1.23c0-.39,0-.69.07-.73a16.64,16.64,0,0,0-.93-1.65c.14,0,.33.25.47.46-.68-.8.23-.31-.45-1,0,.15-.19,0-.26,0a2.47,2.47,0,0,0-.38-1,8.8,8.8,0,0,0-.77-1h.26a10.39,10.39,0,0,0-1.5-1.63,21.31,21.31,0,0,0-1.84-1.41c.4.4.07.61-.31.39l0-.37c-.35,0,.31.37-.31.24-.45-.36-.12-.53.22-.43-.22-.1-.43-.21-.65-.3,0-.11.19-.07.29-.14-.34,0-.92-.89-1.45-.78v-.11a18.69,18.69,0,0,0-1.75-.69c-.53-.13-1-.25-1.62-.42-.09.27-.57.11-1,.27a8.87,8.87,0,0,0-1.42-.38,5.06,5.06,0,0,0-1.62-.13c-.79.18-.22.25-.56.44-.08-.3-1.2-.06-.64-.35a7.5,7.5,0,0,0-3.26,1.3c.22,0,.42-.06.36.07-.25.18-.67.24-.69.12l.06-.07a5.73,5.73,0,0,1-.62.44c-.2.16-.41.32-.64.47s-.46.3-.7.44l-.64.53-.62.55a7.13,7.13,0,0,0-.49.63,2.34,2.34,0,0,0-.51,1.3v-.09a7.21,7.21,0,0,0-.23,1.65c-.19.74-.1-.48-.37,0,.07,1.81-.26,2.84.28,4.22a2.14,2.14,0,0,0,0,1.16,7.54,7.54,0,0,0,.54,1.38c.23.47.54.9.76,1.34a7.2,7.2,0,0,1,.62,1.19l.09-.18c.37.21.18.46.35.69.07-.11-.15-.42.08-.29a18.88,18.88,0,0,0,3.83,3.23,9.25,9.25,0,0,0,5.12,1.44,1,1,0,0,0,1-.51c.19-.23.4-.41,1.22-.4a5,5,0,0,1-.35.43c.62-.22,1.18-.58,1.78-.83s1.13-.64,1.63-1a9.07,9.07,0,0,0,1.42-1.27c.2-.24.42-.47.6-.72s.32-.53.46-.79c0,.16.06.22-.08.41a2.17,2.17,0,0,0,.71-.9c.16-.39.23-.74.15-.79.2-.32.2,0,.4-.15.38-.4.24-1.3.57-1.46.06,0,0,.17,0,.26.06-.34.52-1.47.17-1.24.42-.83.27-1.7.55-2.37-.28-.5.28-1.54-.2-1.7.46.07.32-1.62-.06-2.13.17.16.05-.52.28-.34-.1-.67-.45-1.22-.61-1a2,2,0,0,0-.13-.92,5.53,5.53,0,0,0-.48-.74c-.3-.46-.63-.8-.55-1.28a12.73,12.73,0,0,0-4.46-3.2c.27-.37,1.68.9,1.85.53a25.63,25.63,0,0,0-4-1.41c-.38-.18.28-.12.44-.16a12,12,0,0,0-4.55-.42s.16-.09.3-.13c-.28,0-.66,0-.62.16l.27-.07c.45.29-1.07.65-1.08.85.4-.65-1.38,0-.75-.8-.18.07-.39.2-.33.33-.27,0-.38-.07-.13-.26-1,.31-.56.46-1.44.67,0-.1.14-.18.2-.31a3.94,3.94,0,0,1-1.51.82c0-.07-.09-.12.13-.19a6.43,6.43,0,0,0-1.53,1,8.13,8.13,0,0,1-1.52,1.08c.07-.61-.46.2-.76,0-.18.2-.37.39-.54.6.12,0,.24,0,.36-.08-.51.46-.72,1.09-1.19,1.45.06-.18.15-.32.22-.48a8.62,8.62,0,0,0-.74,1l.54-.5c-.25.67.42.24-.18.88.07-.17-.39.52-.72.73h0a2.3,2.3,0,0,1-.39,1.09c-.16.07-.34-.26-.44-.22.16.43-.52,1.51-.26,2,0-.15-.22-.21-.27-.17l.17.32c-.16.28-.21.32-.35.24-.24.9.5-.2.12.84,0-.09-.05-.05-.06-.24a15.35,15.35,0,0,0-.16,3.14c-.36.32-.14-.89-.44-.54a28.94,28.94,0,0,0,1.06,4.36l0-.26c.54,0,.09,1.07.57,1.66-.1-.14-.35-.1-.28-.08a6.71,6.71,0,0,0,.7,1.39c.34.45.7,1,1.2,1.51l-.22-.07a9.87,9.87,0,0,0,1.21,1.76c.22,0,.44.32.44,0a3.71,3.71,0,0,0,1.95,1.91c.38.23.79.39,1.16.6a4.8,4.8,0,0,1,1,.77c-.19-.08-.5-.1-.35,0a11.93,11.93,0,0,0,1.4.44c0-.25-.13-.2-.35-.47a2,2,0,0,1,1,.07c-.64,0-.11.36.13.56,0-.08.09-.13.09-.2.62.57.22-.4,1.14.06l-.07.11a7.19,7.19,0,0,1,1.14,0c.14.28-.41.07-.47.29.59.06,1.16-.4,1.67-.15a7.73,7.73,0,0,1-.84.13,1.58,1.58,0,0,0,1.07.3h0c.34,0,.68,0,1,.06l-.26-.06c.63-.76,1.49-.33,2.26-1.11-.74.72-.06.29,0,.6.28,0,.69-.06.61,0,.35-.41.86-.17,1.27-.85.09.07.44-.3.49,0,.48-.45-.23,0-.25-.18a8.36,8.36,0,0,1,1.29-1.12,2.7,2.7,0,0,0,1-1.78,3,3,0,0,0,0-1.33c0-.35-.12-.68-.17-1.19.18-.35.33.31.33.31a2,2,0,0,0,.13-.8,2.11,2.11,0,0,0-.15-.77c.1.1.15,0,.24-.21-.08-.46-.4-.24-.39-.84a1.36,1.36,0,0,1,.49.35,7,7,0,0,0-.87-1.44c.09-.21.4.19.56.35a6.23,6.23,0,0,0-.6-1c-.26-.27-.51-.47-.67-.46l.15.38c-.13-.17.12-.23.26-.11.5.34.3.74.24.79l-.23-.32c-.17.33.05.62.25,1a3.15,3.15,0,0,1,.56,1.19c-.15-.09-.32-.16-.47-.24a5.7,5.7,0,0,1,.45.71c-.08.18-.3.3-.41-.05-.13.53.17.46,0,.91,0,0-.06,0-.08,0a2.88,2.88,0,0,1,.1.51c-.08-.11-.3,0-.22-.24a1.9,1.9,0,0,0-.11.58,2.72,2.72,0,0,0,0,.49c0,.3,0,.53-.21.63v-.07c-.11.6-.12.64,0,.68s.24,0,.19.57a7.07,7.07,0,0,1-1,.15l.18.27c-.09.1-.27.27-.33.16-.15.49.15,0,.12.37-.6.28-1.26,1.26-1.66.9-.07.31.62-.15.12.32-.42-.35-.63.48-1.28.46.07-.3.59-.4,0-.39-.07.27-.35.34-.64.37a2.73,2.73,0,0,0-.83,0c0,.36-1,.35-1.79.45,0-.09-1.51-.24-2.19-.55l0,0c-.21.34-.95.1-1.51,0,.09-.2.22-.26.53-.26l-.49-.15a.92.92,0,0,1-.66,0l.22-.21c-.32-.11-.66-.19-1-.29a3.15,3.15,0,0,1-1-.61c-.19.18.26,1-.69.62,0-.14.14-.35.39-.26a.76.76,0,0,1-.41-.22c.15,0,.29,0,.44,0-.28-.32-.28,0-.54-.18.12-.16-.11-.26,0-.36s.18.24.33.25a1.85,1.85,0,0,1-.59-.81c0,.1-.18.22-.39,0-.52-.46,0-.34-.24-.68-.22,0-.45-.41-.66-.22-.13-.15-.06-.27,0-.39a4.77,4.77,0,0,1-.69-.61c-.22-.24-.4-.4-.4-.13l0,.09,0,0h0c-1-.79-1.25-2.16-1.83-3.18l.1,0c-.37-.61-.65-1.44-.95-1.88-.06-.21,0-.53.18-.47a2.08,2.08,0,0,1-.28-1.34c.25.5.12-.21.21.52a3,3,0,0,0-.23-1.58c.27.23.29-.53.2-.85-.06.16-.1.32-.16.48a3.1,3.1,0,0,1,0-1l.32.18a2.56,2.56,0,0,0,.12-1,6.85,6.85,0,0,0-.05-.91,1.78,1.78,0,0,1,.48-1.57c-.12-.42-.36.68-.53.29.2-.64,1-1,1-1.23.52-.67-.09-.94.49-1.66-.17,0-.51-.05-.18-.69s.86-.34.7,0c-.08.13-.15.17-.18.14-.09.19-.2.43,0,.31l0-.14a5.13,5.13,0,0,0,.5-.47c.19-.14.33-.23.33-.09.24-.41,0-.28-.29-.06a4.12,4.12,0,0,0,.77-.7,4.6,4.6,0,0,1,.83-.64c-.14,0-.32,0-.22-.08,1.06-.64.31-.5,1-1,.51-.1.06.43.73-.1.52-.12.24.23.11.4a2.1,2.1,0,0,1,.92-.46c.31,0,.61,0,.81-.09l-.33.22a2.76,2.76,0,0,1,.56-.26l-.29-.14c.23,0,.41-.11.44,0,.18-.23-.3-.33.1-.67.34,0,.93-.37,1.1-.08-1,.13.17.28-.62.53a1.4,1.4,0,0,1,.57-.14s0,.07-.08.11c1,.07.35-.43,1.32-.58-.1.2.26.29.41.26-.39,0-.22-.3.14-.44.63.11.68-.13,1-.13l-.38,0c.12-.18.45-.18.9-.19,0,.14-.41.07-.25.14.52-.28,1.09.37,1.78.3.29.18,0,.34.22.46.79-.07.71.44,1.5.47-.13-.28-.18-.28.41-.27a9.48,9.48,0,0,0-1.29-.25l.91-.09c-.39-.12-.86-.1-1.07-.2.43-.08.38,0,.24-.28.44.5,1.15.1,1.66.61l-.26.53a2,2,0,0,0,.58.33c.19.09.39.16.6.24a2.81,2.81,0,0,1,1.31.77l-.24-.31c.27-.08.63.42.94.66-.16.11,0,.34,0,.54,0-.06.19.1.37.25s.35.34.54.27l.09.58a2,2,0,0,0,.7.8,1.25,1.25,0,0,1,.62.86c-.29-.21-.29.25-.62-.29.09.29.14.57.27.53,0,.11.1.29.23.49a.82.82,0,0,1,.14.61c.11.12.32.12.37.49a.09.09,0,0,1-.1,0c.11,0,.2.55.39.21a4.9,4.9,0,0,0-.24,1.92,2.64,2.64,0,0,1-.44,1.74,6.39,6.39,0,0,1-.2,1.1l-.12.55c-.07.17-.13.34-.19.49,0-.06-.09,0,0-.15-.53.73.35.76-.35,1.58-.54.29.11-.56-.15-.33-.33-.09-.45.17-.58.52a1.53,1.53,0,0,1-.68.89l.06-.15c-.44.28-.58,1.11-1.23,1.65,0,0,0-.07-.06-.08a3.23,3.23,0,0,1-.68,1,7.9,7.9,0,0,1-1.08.82c.13-.31.26-.29,0-.44-.31.19.3.34-.37.69-.28,0-.81.06-.95-.21a6.5,6.5,0,0,0,.61-.25.59.59,0,0,0-.6.09,1.68,1.68,0,0,1-.56.21v-.16a10.18,10.18,0,0,0-1,.4,2.08,2.08,0,0,1-1.09.21l.11.14c-.66.3-.49-.29-1.14-.08,0-.14-.07-.26-.1-.41l-1,0a3.9,3.9,0,0,1-1.19-.27,3,3,0,0,1,.92,0c.34,0,.69,0,1,0-.19-.06-.5-.14-.8-.2a1.5,1.5,0,0,0-.71-.12.92.92,0,0,1,.5.15,2.63,2.63,0,0,1-1.92-.53c.52-.49-1.57-1.45-1.46-2.35-1.12-.87-1.54-2.27-2.07-3.72-.18.36-.23.26-.29.09s-.12-.4-.4-.26c-.14-.37-.17-.52-.14-.56a6.7,6.7,0,0,1,.18-1.19c.15-.27.18.34.31.28,0-.78.2-.35.34-.85-.22.11-.3-.25-.21-.68l-.3.61a1,1,0,0,1,.13-1,1,1,0,0,0,.28-1l.13.36a4,4,0,0,1,.27-1.2c.12-.48.37-.9.28-1.29.11,0,.31,0,.23.17.16-.27.43-.51.61-.81s.2-.31.31-.45l.37-.39a3.19,3.19,0,0,1,1.61-1l0,.19c.2-.16.31-.42.66-.39,0,.07,0,.18.07.15s.55-.5.92-.44l-.25.21a6.21,6.21,0,0,0,1.63-.38l.74-.26a4.29,4.29,0,0,1,.83-.1c0,.22.25.39.57.51a6.63,6.63,0,0,0,1,.37l0,.06a27.06,27.06,0,0,1,4.13,1,9.61,9.61,0,0,0,1.6,1.43l1,.88a11.11,11.11,0,0,1,.73,1c-.1-.21.29-.2.49,0,.13.34.82.62.45.8l-.06-.1a.81.81,0,0,0,.12.69c.1.25.27.51.39.75l.52-.16a4.66,4.66,0,0,0,.2,1.26c.13.43.36.83.47,1.27a12.23,12.23,0,0,1,.34,1.18,1.31,1.31,0,0,1-.15.89c.15.34.22.78.35,1.14l-.28,0c-.12,1-.1,1.47-.24,2.68l-.17-.27c-.12.66.71,1,.54,1.65l-.46.09a7.39,7.39,0,0,1-.66,1.71,6.78,6.78,0,0,0-.33.85,5.31,5.31,0,0,0-.24.89.24.24,0,0,1-.07-.31c-.13.25-.44.71-.64,1.12s-.36.73-.06.79c-.33-.19-.67,1.06-1,1.67l-.16-.25a2.06,2.06,0,0,1-.44,1.42c-.16.11-.28,0,0-.17-.54.35-.15.54-.79,1l.08-.33c-.47.44-.35.49-.49.87s-1,.74-1.22.6a.73.73,0,0,1-.49.7c-.1-.05,0-.17,0-.23a3.2,3.2,0,0,0-1.05.76,1.57,1.57,0,0,1-.93.47.19.19,0,0,0-.18-.1l1-.46a1.77,1.77,0,0,1,.34-.2c-.14-.21-.71.12-.45-.48a4,4,0,0,1-1.64,1.4.39.39,0,0,1-.11-.06l0,0a.76.76,0,0,0-.37.18,2.25,2.25,0,0,0-.54.1c-.14-.19-.74.18-1.07.19.09.27-.35.31.11.46-.06,0,0,0,.27-.1a.4.4,0,0,0,.13-.07v0l.79-.29a1,1,0,0,1-.85.4,3.65,3.65,0,0,1-.36.53c-.57-.29-1.46-.29-1.61-.55-.5.11-1.09.17-1.65.28a2.93,2.93,0,0,0-1.43.35c-.31,0-.33-.17-.42-.28a1.24,1.24,0,0,0,.47-.08c-.6.13-1.72-.27-1.95.09-.7-.33.49-.21-.52-.43l.16-.06a6.6,6.6,0,0,0-2.56-.82,3.77,3.77,0,0,1-2.52-1.41c.1.14.15.2.15.27a16.87,16.87,0,0,0-1.52-1.28c-.48-.45-1-.87-1.5-1.33a14.47,14.47,0,0,1-1.31-1.51,7.42,7.42,0,0,1-.93-1.73c-.26-.68-.5-.63-.88-.94l.19-.28c-.22-.17-.41-.36-.62-.55-.7-.92,0-2-.78-3.14l-.17.22c0-.5-.38-1.53-.13-1.48-.05,0-.24-.13-.16-.33l.15,0-.32-1.19c0-.48.2-.44.35-.45s.25-.08.34-.73c0-.48-.32-1.46-.44-1.29s-.15.5-.31.5l0-.48c-.46-.15-.89-.65-1.33.58l.2.9-.25.27.05-.74a.88.88,0,0,0,0,1,.54.54,0,0,0-.23.37l.48.85c-.18.12-.38-.37-.46.23.23.38.39-.42.56.23-.18.43-.35.34-.09.79-.11.09-.2,0-.29-.19.22.42.26,1.14.54,1.31-.19.49.46,1.39,0,1.48a4.63,4.63,0,0,1,.71,1c-.78-.48.55,1.38,0,1.44a3,3,0,0,1,.88,1,4.8,4.8,0,0,0,1,1.3c-.07,0-.19-.07-.22-.15a3.92,3.92,0,0,1,.38,1c.36-.17.9.46,1.4.62.14.74-.62,0-.76.38.22-.22,1,.66,1,.32.16.53.2.4.14.82.41-.27.4.27.91.34.37.67-.17.46.52.9C1016.38,833.2,1015.74,832.83,1015.74,832.83Zm18,2.79h0a1.63,1.63,0,0,1-.35.16A2.12,2.12,0,0,0,1033.78,835.62Zm1.42-.71c-.18.08-.4.18-.62.3-.1-.07-.09-.18.06-.25C1034.59,835.06,1034.94,834.94,1035.2,834.91Zm-3.65-.56c.19-.11.28-.08.33,0l-.36.16v0A.29.29,0,0,1,1031.55,834.35Z" transform="translate(-916.52 -714.18)"/><path class="cls-1" d="M1031.27,834.83s0,0-.09,0l.15,0,.06-.11Z" transform="translate(-916.52 -714.18)"/><path class="cls-1" d="M1020.66,822.78l0,0a.2.2,0,0,1,0,.07S1020.65,822.79,1020.66,822.78Z" transform="translate(-916.52 -714.18)"/><polygon class="cls-1" points="128.64 102.39 128.57 102.4 128.65 102.53 128.64 102.39"/><path class="cls-1" d="M1026.89,828.22a.26.26,0,0,0,.09.1S1026.94,828.27,1026.89,828.22Z" transform="translate(-916.52 -714.18)"/><path class="cls-1" d="M1030.62,828.74a3.33,3.33,0,0,0,.54.07Z" transform="translate(-916.52 -714.18)"/><path class="cls-1" d="M1033.55,828.36a.2.2,0,0,0,0-.13h0Z" transform="translate(-916.52 -714.18)"/><path class="cls-1" d="M1029.7,800.75l.12,0C1030.09,800.67,1029.9,800.69,1029.7,800.75Z" transform="translate(-916.52 -714.18)"/><path class="cls-1" d="M1018.38,807.6a3.58,3.58,0,0,1,.09-.45C1018.34,807.35,1018.24,807.51,1018.38,807.6Z" transform="translate(-916.52 -714.18)"/><polygon class="cls-1" points="125.39 95.34 125.38 95.34 125.4 95.44 125.39 95.34"/><path class="cls-1" d="M1018.84,806.62a1.28,1.28,0,0,0-.37.53A3.16,3.16,0,0,0,1018.84,806.62Z" transform="translate(-916.52 -714.18)"/><path class="cls-1" d="M1037.69,817.49l-.08-.14s0,0,0,0Z" transform="translate(-916.52 -714.18)"/><path class="cls-1" d="M1037.56,817.36l-.12-.12C1037.48,817.3,1037.52,817.36,1037.56,817.36Z" transform="translate(-916.52 -714.18)"/><path class="cls-1" d="M1037.16,817a2.2,2.2,0,0,1,.28.24C1037.37,817.14,1037.29,817,1037.16,817Z" transform="translate(-916.52 -714.18)"/><path class="cls-1" d="M1038.67,821.44l.1,0A.15.15,0,0,0,1038.67,821.44Z" transform="translate(-916.52 -714.18)"/><path class="cls-1" d="M1038.61,822.66a3.06,3.06,0,0,0,.24-1.14l-.08,0C1039,821.69,1038.47,822.37,1038.61,822.66Z" transform="translate(-916.52 -714.18)"/><path class="cls-1" d="M1035.26,826.07a7.17,7.17,0,0,0,.71-.52c-.19,0-.42.06-.17-.22C1034.8,825.8,1036.15,825.36,1035.26,826.07Z" transform="translate(-916.52 -714.18)"/><path class="cls-1" d="M1032.82,827.14c.42-.19,0-.14,0-.22C1032.52,827.09,1032.46,827.13,1032.82,827.14Z" transform="translate(-916.52 -714.18)"/><path class="cls-1" d="M1018.2,817h.26C1018.33,816.68,1018.36,817,1018.2,817Z" transform="translate(-916.52 -714.18)"/><polygon class="cls-1" points="100.02 99 99.84 99.39 100.07 99.58 100.02 99"/><polygon class="cls-1" points="102.14 96.97 102.13 97.13 102.19 96.54 102.14 96.97"/><path class="cls-1" d="M1039.59,813.7l.33-.06C1039.9,813.39,1039.56,813.3,1039.59,813.7Z" transform="translate(-916.52 -714.18)"/><path class="cls-1" d="M1030.71,822.75a.67.67,0,0,0-.75-.2A4.5,4.5,0,0,0,1030.71,822.75Z" transform="translate(-916.52 -714.18)"/><polygon class="cls-1" points="125.21 99.15 125.02 98.94 125.28 99.39 125.21 99.15"/></svg>