<svg id="Layer_1" data-name="Layer 1" xmlns="http://www.w3.org/2000/svg" viewBox="0 0 116.08 121.81"><defs><style>.cls-1{fill:#202020;}</style></defs><title>5</title><path class="cls-1" d="M956,747.14c.08-.1,0-.29-.23-.23l-.16.34Z" transform="translate(-922.99 -713.44)"/><path class="cls-1" d="M954.22,746.64c-.28.17-.61.48-.4.77.28-.34.36-.21.65-.61.25,0,.44.08.41.21.08-.09.4,0,.52-.17a1.06,1.06,0,0,0-1.18,0C954.12,746.79,954.2,746.7,954.22,746.64Z" transform="translate(-922.99 -713.44)"/><path class="cls-1" d="M930.8,741.71l.1.12A.53.53,0,0,0,930.8,741.71Z" transform="translate(-922.99 -713.44)"/><path class="cls-1" d="M924.39,729.06c0,.11,0,.15.07.16S924.42,729,924.39,729.06Z" transform="translate(-922.99 -713.44)"/><path class="cls-1" d="M925.16,726.74l0,.13S925.18,726.78,925.16,726.74Z" transform="translate(-922.99 -713.44)"/><path class="cls-1" d="M930.8,741.71a3.49,3.49,0,0,1-.25-.32C930.46,741.45,930.65,741.58,930.8,741.71Z" transform="translate(-922.99 -713.44)"/><path class="cls-1" d="M950.85,747.6a.63.63,0,0,0,.22-.09l-.21,0Z" transform="translate(-922.99 -713.44)"/><path class="cls-1" d="M936.69,744.48l.12,0,.13-.1Z" transform="translate(-922.99 -713.44)"/><path class="cls-1" d="M941.6,745.58c-.11,0-.19.24-.25.35a.38.38,0,0,1,.27-.15A.37.37,0,0,0,941.6,745.58Z" transform="translate(-922.99 -713.44)"/><path class="cls-1" d="M949.66,746.5l.14,0Z" transform="translate(-922.99 -713.44)"/><path class="cls-1" d="M933.43,743a.14.14,0,0,0,0-.11A.37.37,0,0,0,933.43,743Z" transform="translate(-922.99 -713.44)"/><path class="cls-1" d="M939.82,737.73v0S939.79,737.73,939.82,737.73Z" transform="translate(-922.99 -713.44)"/><path class="cls-1" d="M939.44,737.75l0,.08.15,0A.79.79,0,0,0,939.44,737.75Z" transform="translate(-922.99 -713.44)"/><path class="cls-1" d="M927.46,723.07h0C927.4,723.19,927.43,723.14,927.46,723.07Z" transform="translate(-922.99 -713.44)"/><path class="cls-1" d="M954.14,732.17c.43-.32,0,.8.53.29C954.55,732.47,954.53,731.72,954.14,732.17Z" transform="translate(-922.99 -713.44)"/><path class="cls-1" d="M950.71,747.57h-.21A.64.64,0,0,0,950.71,747.57Z" transform="translate(-922.99 -713.44)"/><path class="cls-1" d="M954.67,732.46h0l.05-.06Z" transform="translate(-922.99 -713.44)"/><path class="cls-1" d="M935.61,717.05a.27.27,0,0,0-.14-.07S935.51,717,935.61,717.05Z" transform="translate(-922.99 -713.44)"/><path class="cls-1" d="M928.8,720.75l.17-.1A1.28,1.28,0,0,0,928.8,720.75Z" transform="translate(-922.99 -713.44)"/><path class="cls-1" d="M939.43,715.74a.48.48,0,0,0,.29,0l-.05,0A.25.25,0,0,1,939.43,715.74Z" transform="translate(-922.99 -713.44)"/><path class="cls-1" d="M943.64,715.78l-.07-.06h-.14Z" transform="translate(-922.99 -713.44)"/><path class="cls-1" d="M952.43,732.84a.88.88,0,0,1-.33.08C952.31,733,952,733.62,952.43,732.84Z" transform="translate(-922.99 -713.44)"/><path class="cls-1" d="M950.84,747.45a.16.16,0,0,1-.13.12l.15,0S950.88,747.47,950.84,747.45Z" transform="translate(-922.99 -713.44)"/><path class="cls-1" d="M939.36,713.52l.76,0A5,5,0,0,0,939.36,713.52Z" transform="translate(-922.99 -713.44)"/><path class="cls-1" d="M933.26,729.55l0-.18A.27.27,0,0,0,933.26,729.55Z" transform="translate(-922.99 -713.44)"/><path class="cls-1" d="M942.38,713.44a1.49,1.49,0,0,0,.41.22l.1-.07Z" transform="translate(-922.99 -713.44)"/><path class="cls-1" d="M952.1,732.92Z" transform="translate(-922.99 -713.44)"/><path class="cls-1" d="M949.11,737.19c.66-.44.09-.5.1-.76.61-.65.48,0,.84-.11.39-.45.44-1,.71-1.29.07,0,.14,0,.13.09a5.57,5.57,0,0,1,.61-1A2.13,2.13,0,0,0,952,733a.21.21,0,0,1,.12,0,.81.81,0,0,1-.49-.16c.14-.28.07-.62.34-.61-.1.16,0,.22,0,.34l.07-.34c.45-.12-.11.45.12.57a18.39,18.39,0,0,1,.48-1.89c.38,0-.32,1.14.22.61l-.42.7c.72-.36-.22.44.52.15a4.2,4.2,0,0,0,.39-1.1,4.92,4.92,0,0,1,.26-1.13c-.13-.28-.3,0-.42-.25-.16-1.5,1-1.13.51-2.31-.23-.29-.66-.33-.61-1.15l.44.2c-.2-1.09-.64-.46-.8-1.57.22.12.43.74.42.57,0-.79-.4-.4-.6-.9l.25-.26a8.91,8.91,0,0,0-2.56-2.52c.11,0,.34,0,.18-.25a21,21,0,0,0-4.29-2.21l-.61.19c-.13,0-.22-.18-.08-.21-.56-.2,0,.17-.34.26s-.41-.2-.19-.28a32.09,32.09,0,0,1-3.91.47l.18-.14c-.83.13-.74.79-1.52.81l.12-.11a8.42,8.42,0,0,0-2.41,1.22c-.74.51-1.35,1.08-2,1.47.09.25-.21.58-.49.92s-.43.74-.2.92a9.65,9.65,0,0,0-.69.71,3.89,3.89,0,0,0-.63,1.16c-.11.39.24.66.22,1.13l-.31,0c.09.24.18.46.28.68l-.39.33a2.32,2.32,0,0,0,.07.46c0-.18.15-.38.23-.35a2.85,2.85,0,0,1-.27,1.75,11.3,11.3,0,0,0,.59,1.57c-.12,0-.25-.25-.38-.45.54.78-.27.24.24,1,0-.13.19,0,.25,0a1.79,1.79,0,0,0,.17.9,4.15,4.15,0,0,0,.49,1l-.25,0a12.26,12.26,0,0,0,2.37,3.22c-.27-.43.08-.59.38-.33l-.12.34c.33,0-.21-.38.34-.19.34.37,0,.51-.29.38l.53.35c0,.09-.18,0-.29.1.29,0,.66,1,1.18.91l0,.1a9.91,9.91,0,0,0,3,1.32c.11-.26.53-.08.9-.22a6.93,6.93,0,0,0,2.71.53c.7-.17.19-.25.49-.44.07.25,1.06.11.57.35a6.77,6.77,0,0,0,1.36-.33,8.47,8.47,0,0,0,1.48-.69c-.19,0-.37,0-.32-.14.24-.11.6-.12.62,0l-.06,0a5,5,0,0,1,1.16-.63c.4-.2.86-.35,1.28-.55a3.81,3.81,0,0,0,1.93-1.55l0,.07q.38-.6.72-1.2c.42-.47-.08.42.33.15a8.48,8.48,0,0,1,.95-1.65,3.84,3.84,0,0,0,.73-1.52,1.5,1.5,0,0,0,.64-.78,4.57,4.57,0,0,0,.37-1.25,12.83,12.83,0,0,0,.18-1.35,5.89,5.89,0,0,1,.25-1.16l-.18.07c-.18-.34.1-.41.14-.66-.14,0-.16.37-.26.16a17.82,17.82,0,0,0-2.5-8.32c-.63-.87-1.06.09-1.62-1.16l.51,0c-.88-.64-1.64-1.39-2.51-2a8.23,8.23,0,0,0-2.78-1.52c.14,0,.19-.1.37,0-.29-.41-1.49-.68-1.56-.47-.3-.13,0-.19-.17-.35-.38-.31-1.15,0-1.3-.33,0,0,.13,0,.22,0-.3,0-1.3-.33-1.09,0-.73-.3-1.47-.11-2.06-.33-.41.28-1.31-.22-1.44.23,0-.22-.31-.31-.71-.31a2.88,2.88,0,0,0-1.1.25c.15-.15-.43-.1-.26-.3-.56.08-1,.23-.91.45-1.12-.36-1.87.84-2.6.34a31.13,31.13,0,0,0-4,2.25c-.17-.43,1.39-.78,1.14-1.16-1.18.78-1.67,1.49-2.84,2.16-.33.15,0-.27.11-.4a15.92,15.92,0,0,0-2.89,2.6s0-.16.1-.27c-.16.18-.45.35-.29.47l.13-.2c.47-.06-.22,1.11-.12,1.25-.17-.71-.89.79-1-.18-.08.15-.13.37,0,.43-.18.15-.29.16-.26-.12-.46.75-.09.64-.55,1.27-.08-.06,0-.21-.07-.34a2.84,2.84,0,0,1-.54,1.4c0-.07-.14,0,0-.21-.54,1-.45,1.94-1,3.06-.31-.48-.24.37-.62.35a5.49,5.49,0,0,0,0,.7,1.67,1.67,0,0,1,.23-.23c-.12.58.09,1.14-.09,1.62,0-.15-.07-.3-.1-.45a8.37,8.37,0,0,0,0,1.12l.16-.62c.18.6.47,0,.35.72a8.61,8.61,0,0,1-.21.87h0a1.45,1.45,0,0,1,.24,1c-.1.13-.41,0-.49.05.35.24.34,1.35.76,1.61a.28.28,0,0,0-.33,0l.31.16c0,.28,0,.33-.18.33.19.79.37-.38.46.59,0-.06-.07,0-.15-.15a18.23,18.23,0,0,0,1.12,2.48c-.21.41-.44-.65-.58-.24.62,1.16,1.74,2,2.4,3.07l-.11-.21c.51-.19.39.86,1,1.17-.12-.09-.34,0-.27,0a8.35,8.35,0,0,0,2.37,1.83h-.21a11,11,0,0,0,1.39,1.22c.21,0,.46.15.41-.11a3,3,0,0,0,.88.87,6.72,6.72,0,0,0,1.09.44,4.41,4.41,0,0,1,2,.93c-.17-.06-.44,0-.31,0l1.21.31c0-.25-.11-.19-.29-.44a1.39,1.39,0,0,1,.83,0c-.56,0-.11.35.09.54,0-.08.08-.13.08-.2.5.57.23-.4,1,.09l-.07.1a3.24,3.24,0,0,1,1,.06c.08.29-.36,0-.43.24.48.12,1.05-.27,1.43.08-.21,0-.51,0-.73,0a1.43,1.43,0,0,0,.83.46l0,0c.26.11.53.2.8.29l-.19-.12c.72-.59,1.26.08,2.15-.28-.85.33-.17.23-.26.52.2.11.52.24.41.32.42-.2.65.25,1.24-.06,0,.1.42,0,.31.28.52,0-.11-.17-.06-.29.81-.28,1.85.5,3,.07,1-.2,1.15-.51,2.05-.7.3.15-.25.36-.25.36a2.2,2.2,0,0,0,1.32,0c-.09.09,0,.16.16.26.37,0,.23-.36.73-.24a1.45,1.45,0,0,1-.36.41c.44-.11.86-.31,1.31-.42.13.17-.26.27-.42.39.51-.1,1.31-.22,1.46-.5l-.34-.07c.19,0,.11.22,0,.28-.43.23-.63-.06-.66-.16l.31-.08c-.35-.55-1.28.16-1.93.14l.25-.42-.65.37c-.14-.11-.25-.34.07-.41-.47-.19-.41.16-.81-.06,0,0,0-.06,0-.07l-.45.13c.09-.09-.08-.29.2-.24-.81-.22-1.31.32-1.61,0l.07,0c-1.13.14-.11.31-1,.65l-.55-.76-.12.3c-.12,0-.35,0-.3-.17-.44.19.07.14-.19.32-.54-.3-1.55,0-1.63-.46-.22.22.51.23-.09.34-.13-.54-.7,0-1.18-.27.18-.25.64-.05.17-.35-.36.42-1-.2-1.4-.19-.07.35-.94,0-1.66,0,0,0-.28-.17-.69-.3s-.88-.33-1.18-.47l0-.06c-.22.33-.85.06-1.35,0,.08-.21.2-.26.48-.28l-.44-.13a.83.83,0,0,1-.6,0l.2-.22a4.87,4.87,0,0,1-1.93-.62c-.15.22.3.91-.56.72,0-.14.1-.36.33-.33-.08,0-.3,0-.4-.11l.41-.07c-.29-.24-.26.1-.51,0,.09-.18-.13-.23,0-.35s.18.19.31.17a1.61,1.61,0,0,1-.61-.66c0,.11-.12.24-.34.15-.55-.28-.07-.31-.32-.58-.2,0-.45-.28-.62,0-.15-.09-.1-.23-.12-.33-.34-.05-1.21-.83-1.11-.37l.05.07-.05,0h0c-1-.4-1.57-1.53-2.38-2.17l.07-.07a17.33,17.33,0,0,0-1.39-1.22c-.11-.15-.12-.45,0-.46-.34-.34-.48-.31-.7-1,.39.31,0-.22.36.34-.25-.57-.2-.75-.76-1.18.32.07.08-.55-.12-.77l0,.46a4.27,4.27,0,0,1-.4-.8H926a3.19,3.19,0,0,0-.72-1.5c-.27-.44-.55-.88-.29-1.41-.29-.26,0,.68-.35.47a5.06,5.06,0,0,1,.26-1.39c.14-.75-.58-.65-.46-1.46-.12.1-.44.22-.54-.41.06-.59.51-.67.6-.32,0,.13,0,.2-.07.19,0,.18.09.42.22.2l-.12-.07c.1-.28.18-1,.36-.82-.06-.42-.17-.2-.27.1.26-.68.14-1.09.46-1.76-.1.09-.26.16-.23,0,.42-1-.09-.52.1-1.25.33-.32.34.3.49-.43.3-.36.33,0,.34.24.06-.69.68-1,.91-1.3l-.09.34a1.53,1.53,0,0,1,.23-.48l-.3,0c.14-.15.23-.29.31-.23,0-.26-.42-.08-.36-.55.25-.17.4-.77.71-.66-.61.63.3.12-.09.73a1.09,1.09,0,0,1,.31-.4s0,.06,0,.11c.72-.46-.05-.52.52-1.17.06.2.38.08.45,0-.24.24-.33-.08-.21-.41.49-.3.36-.51.58-.7l-.28.19c0-.21.18-.39.44-.7.11.08-.21.31-.06.26.12-.53,1-.42,1.3-.94.3-.08.23.25.47.16.4-.59.73-.22,1.2-.77-.29-.09-.3,0,0-.48-.32.24-.6.52-.89.78l.43-.71c-.3.2-.54.55-.74.64.19-.37.19-.3-.07-.36.61,0,.7-.74,1.33-.82l.29.51c.84-.2,1.16-1,2.23-1.31l-.36,0c0-.28.61-.3.91-.52,0,.2.28.18.46.25-.07-.15.75-.24.73-.65a5.35,5.35,0,0,1,.55.11c.87-.13.84-.8,1.72-.9-.22.26.18.32-.34.58.27,0,.53-.07.51-.2.18.1.74-.37,1-.22.11-.09.13-.3.46-.31a.11.11,0,0,1,0,.1c0-.1.5-.17.2-.37.91.54,2.53-.07,3.24.6a9.08,9.08,0,0,1,1.92.25s0,.1-.13,0c.7.38.63-.42,1.43.08.31.45-.51,0-.29.21-.11.62,1,.3,1.4.91l-.14,0c.28.41,1.08.29,1.67.76,0,0-.06,0-.06.08a4.33,4.33,0,0,1,2,1c-.34,0-.33-.12-.4.17.26.19.2-.38.74,0,0,.25.29.67.13.9l-.43-.42c-.05.48.56.54.71.83l-.15.07c.62.66.94.44,1.49,1.28l0-.15c.63.26.05.51.59.84l-.27.33a7.2,7.2,0,0,1,1.2,1.55,2.67,2.67,0,0,1-.61-.57c-.2-.23-.41-.46-.59-.63a6.68,6.68,0,0,0,.36.65,1.12,1.12,0,0,0,.4.51c-.09-.12-.24-.24-.23-.4a2.37,2.37,0,0,1,1,1.48c-.71.06.19,1.87-.4,2.42.34,1.2-.2,2.34-.59,3.62.72-.28-.12.38.48.52-.06.34-.15.44-.19.46-.27.25-.51.51-.77.74s0-.33-.11-.37c-.38.59-.38.13-.74.44.23,0,.15.38-.14.66.19-.1.35-.22.53-.33a.82.82,0,0,1-.59.72c-.24.08-.43.2-.65.66l.06-.36a9.3,9.3,0,0,1-.72.93,2.44,2.44,0,0,0-.63,1.08c-.12,0-.31-.06-.16-.23-.94.72-2,2-3.06,2l0-.17c-.19.12-.28.4-.59.35,0-.06,0-.17-.06-.15a1.61,1.61,0,0,1-.83.38l.22-.22a3.84,3.84,0,0,0-1.42.36,4,4,0,0,1-1.34.34c0-.45-.85-.66-1.24-.89l0,0a14.2,14.2,0,0,1-3.35-1.12,3.16,3.16,0,0,0-.42-.7,9.48,9.48,0,0,1-.64-.79,5.21,5.21,0,0,1-.65-.89,3.62,3.62,0,0,1-.44-.94c0,.21-.31.14-.46,0s-.64-.63-.25-.75l0,.1c.28-.37-.07-.86-.17-1.33l-.53.07a1.66,1.66,0,0,0,.06-.54,2.63,2.63,0,0,0,0-.56c-.06-.37-.13-.75-.18-1.12a3.09,3.09,0,0,1-.07-1,.79.79,0,0,1,.32-.68,7.93,7.93,0,0,1-.06-1l.26.09c.32-.73.48-1.08.93-1.93l0,.27c.33-.39-.3-1.05.08-1.47l.42.18c.66-.76,1.69-.95,2.4-1.71a.22.22,0,0,1-.11.26c.22-.08.66-.19,1-.32s.61-.25.46-.51c.05.19.3.11.61,0s.69-.3,1-.42l-.06.29a1.68,1.68,0,0,1,1.13-.61c.16.05.14.23-.07.16.52.17.42-.24,1.06,0l-.25.16a1,1,0,0,0,.83-.18,1.25,1.25,0,0,1,.65.15c.21.12.36.28.37.41a.67.67,0,0,1,.75-.06c0,.1-.13.12-.19.13.75.5,1.38.24,1.76.83a.21.21,0,0,0,0,.19c-.3-.18-.55-.37-.75-.47a1.38,1.38,0,0,1-.29-.16c-.1.23.37.49-.18.64a3.13,3.13,0,0,1,.88.08,2.32,2.32,0,0,1,.47.13,1.17,1.17,0,0,1,.33.29.2.2,0,0,1,0,.11h-.06a.51.51,0,0,0,.28.18c.11.14.16.23.26.36-.12.2.32.52.46.74.21-.18.37.15.38-.27,0,0,0,0-.18-.16a.46.46,0,0,0-.1-.07h0l-.47-.51a.68.68,0,0,1,.58.5,2,2,0,0,1,.61.06,3.26,3.26,0,0,0,0,.88,1,1,0,0,1-.13.61c.11.16.22.36.33.56s.15.43.23.64a3.31,3.31,0,0,0,.56,1.11c.08.26-.13.29-.23.38a1,1,0,0,0-.12-.39,3,3,0,0,1,.06.92c0,.33,0,.61.19.71-.32.58-.24-.42-.39.44l-.08-.15a3.85,3.85,0,0,0-.48,1.07l-.23,1.08a3,3,0,0,1-.42,1.09,2.24,2.24,0,0,1-1,.88c.12-.07.18-.1.24-.08a15.8,15.8,0,0,1-2.69,2,4.07,4.07,0,0,1-3.17.49,1.61,1.61,0,0,0-.58,0c-.15,0-.27.12-.47.17l-.06-.32a3.44,3.44,0,0,1-.72.17,2.92,2.92,0,0,1-1.27-.63,1.68,1.68,0,0,0-1.89,0l.25.13a2.12,2.12,0,0,0-.91.5c-.26.22-.43.45-.5.34a.41.41,0,0,1-.12.42l-.15,0a1.45,1.45,0,0,0,.44,1.48c.21.25.35.32.39.41a.32.32,0,0,1,0,.23c0,.08,0,.15.19.24a1.44,1.44,0,0,0,1,0,1.72,1.72,0,0,0,.6-.46,1.32,1.32,0,0,0,.32-.93.78.78,0,0,0-.28-.6c-.1-.09-.14-.08-.14,0a.68.68,0,0,1,.06.53c-.06.17-.17.25-.25.22a.56.56,0,0,0-.07-.51,1.71,1.71,0,0,0-.64.25c-.13.13-.06,0,.09,0s.09.08-.18-.17c-.12-.09-.24-.36-.19-.23a.24.24,0,0,1,0,.16.58.58,0,0,1,0-.19c0-.06,0,0,0-.06s0-.1,0-.06a1.09,1.09,0,0,1,0,.32.48.48,0,0,1-.09.21l0,0,0,0,.35-.13a.41.41,0,0,1-.22,0h.31l-.15,0c-.09,0-.18,0-.22-.1.26-.06.34.12.32-.13a.33.33,0,0,1,.14.21c0-.18.24-.29.24-.53.14.09.21,0,.4.06s.31.06.26.28a1.07,1.07,0,0,1,.84-.17c-.34.17-.09.26.24.38s.77.29.6.53a2.49,2.49,0,0,1,1.32,0,4.42,4.42,0,0,0,1.55-.08s-.15.11-.23.08c.52.07.67.12,1,.18,0-.2.2-.35.43-.49a3.34,3.34,0,0,0,.64-.51c.69.18-.21.56.07.85-.12-.3.94-.64.64-.82.51,0,.4-.07.76.11-.15-.48.37-.26.55-.72.68-.17.39.29.93-.25C949.58,736.67,949.11,737.19,949.11,737.19Zm1-15.25h0l.28.21Zm-1.19-.8c.14.1.32.22.52.34,0,.11-.11.16-.23.08C949.36,721.55,949.11,721.33,949,721.14Zm.86,3.19c-.14-.11-.14-.19-.11-.25a1.52,1.52,0,0,0,.22.21h0A.42.42,0,0,1,949.83,724.33Z" transform="translate(-922.99 -713.44)"/><path class="cls-1" d="M950.33,724.34l.07,0,0-.12h-.11Z" transform="translate(-922.99 -713.44)"/><path class="cls-1" d="M930.92,741.85l0,0a.25.25,0,0,1,0,.07S930.92,741.87,930.92,741.85Z" transform="translate(-922.99 -713.44)"/><polygon class="cls-1" points="10.2 14.46 10.27 14.46 10.23 14.33 10.2 14.46"/><path class="cls-1" d="M937,745.9s0,.06.07.1S937,746,937,745.9Z" transform="translate(-922.99 -713.44)"/><path class="cls-1" d="M940.05,746.73c.14.06.28.13.43.18A4.65,4.65,0,0,0,940.05,746.73Z" transform="translate(-922.99 -713.44)"/><path class="cls-1" d="M942.46,747.24a.45.45,0,0,0,.06-.12h0Z" transform="translate(-922.99 -713.44)"/><path class="cls-1" d="M927.39,719.5l.06-.08C927.58,719.23,927.48,719.35,927.39,719.5Z" transform="translate(-922.99 -713.44)"/><path class="cls-1" d="M923.33,730.41a1.73,1.73,0,0,1-.16-.37C923.15,730.25,923.17,730.42,923.33,730.41Z" transform="translate(-922.99 -713.44)"/><polygon class="cls-1" points="16.29 0.08 16.29 0.09 16.37 0.08 16.29 0.08"/><path class="cls-1" d="M923.19,729.48a1.2,1.2,0,0,0,0,.56A1.51,1.51,0,0,0,923.19,729.48Z" transform="translate(-922.99 -713.44)"/><path class="cls-1" d="M953,747.53h.12a.09.09,0,0,1,0,0Z" transform="translate(-922.99 -713.44)"/><path class="cls-1" d="M953.14,747.49l.13,0C953.21,747.46,953.16,747.46,953.14,747.49Z" transform="translate(-922.99 -713.44)"/><path class="cls-1" d="M953.54,747.37l-.27.08C953.36,747.45,953.48,747.45,953.54,747.37Z" transform="translate(-922.99 -713.44)"/><path class="cls-1" d="M949.8,747.53l0,.1A.13.13,0,0,0,949.8,747.53Z" transform="translate(-922.99 -713.44)"/><path class="cls-1" d="M948.82,747.58a2.77,2.77,0,0,0,.91.13l0-.08C949.61,747.79,949,747.4,948.82,747.58Z" transform="translate(-922.99 -713.44)"/><path class="cls-1" d="M944.8,746.22l.8.12c-.13-.12-.31-.27.06-.28C944.66,745.68,945.85,746.31,944.8,746.22Z" transform="translate(-922.99 -713.44)"/><path class="cls-1" d="M942.35,745.82c.43,0,0-.15,0-.21C942.11,745.67,942,745.69,942.35,745.82Z" transform="translate(-922.99 -713.44)"/><path class="cls-1" d="M927.22,737.78l.23-.12C927.23,737.43,927.37,737.72,927.22,737.78Z" transform="translate(-922.99 -713.44)"/><path class="cls-1" d="M924.34,735.43a2.44,2.44,0,0,0,0,.38l.29,0A3.07,3.07,0,0,1,924.34,735.43Z" transform="translate(-922.99 -713.44)"/><polygon class="cls-1" points="2.37 19.47 2.44 19.59 2.2 19.12 2.37 19.47"/><path class="cls-1" d="M942.87,715.94l-.07-.33C942.58,715.66,942.51,716,942.87,715.94Z" transform="translate(-922.99 -713.44)"/><path class="cls-1" d="M953.3,721.84a.61.61,0,0,0,.28.65C953.45,722.24,953.42,721.93,953.3,721.84Z" transform="translate(-922.99 -713.44)"/><path class="cls-1" d="M935.87,731.26a1.4,1.4,0,0,0,.16.2,3,3,0,0,1-.18-.41Z" transform="translate(-922.99 -713.44)"/><path class="cls-1" d="M925.73,812.35c.06.11.25.13.31-.1l-.25-.27Z" transform="translate(-922.99 -713.44)"/><path class="cls-1" d="M926.9,811.13c-.06-.32-.14-.72-.5-.7.15.39,0,.4.25.82,0,.23-.25.34-.35.25.05.11-.21.31-.06.51a.93.93,0,0,0,.47-1C926.81,811,926.85,811.09,926.9,811.13Z" transform="translate(-922.99 -713.44)"/><path class="cls-1" d="M945.48,802.49l-.14-.06A.3.3,0,0,0,945.48,802.49Z" transform="translate(-922.99 -713.44)"/><path class="cls-1" d="M955.4,810.48c0-.08-.1-.11-.12-.1S955.39,810.52,955.4,810.48Z" transform="translate(-922.99 -713.44)"/><path class="cls-1" d="M955.91,812.69l0-.13C955.87,812.62,955.87,812.67,955.91,812.69Z" transform="translate(-922.99 -713.44)"/><path class="cls-1" d="M945.48,802.49l.32.19C945.85,802.58,945.64,802.56,945.48,802.49Z" transform="translate(-922.99 -713.44)"/><path class="cls-1" d="M927.86,808a.65.65,0,0,0-.06.23l.09-.18Z" transform="translate(-922.99 -713.44)"/><path class="cls-1" d="M939.65,802.76l-.1,0a.47.47,0,0,0-.06.15Z" transform="translate(-922.99 -713.44)"/><path class="cls-1" d="M935.41,804.11c.1,0,0-.29,0-.42a.33.33,0,0,1-.13.26A.51.51,0,0,0,935.41,804.11Z" transform="translate(-922.99 -713.44)"/><path class="cls-1" d="M929.4,807.92l-.06.12Z" transform="translate(-922.99 -713.44)"/><path class="cls-1" d="M942.83,802.58a.15.15,0,0,0,0,.1A.18.18,0,0,0,942.83,802.58Z" transform="translate(-922.99 -713.44)"/><path class="cls-1" d="M930.28,822.55h.05S930.27,822.51,930.28,822.55Z" transform="translate(-922.99 -713.44)"/><path class="cls-1" d="M932.18,817l0,.08.13.09Z" transform="translate(-922.99 -713.44)"/><path class="cls-1" d="M956.34,816.69v0C956.31,816.57,956.32,816.63,956.34,816.69Z" transform="translate(-922.99 -713.44)"/><path class="cls-1" d="M931,828.27c.14.46-.74-.23-.45.4C930.55,828.55,931.25,828.73,931,828.27Z" transform="translate(-922.99 -713.44)"/><path class="cls-1" d="M928,808a1.63,1.63,0,0,1,.11-.17A.59.59,0,0,0,928,808Z" transform="translate(-922.99 -713.44)"/><path class="cls-1" d="M930.52,828.67h0l0,.06Z" transform="translate(-922.99 -713.44)"/><path class="cls-1" d="M954.71,825.57a.29.29,0,0,0,.16,0A.25.25,0,0,0,954.71,825.57Z" transform="translate(-922.99 -713.44)"/><path class="cls-1" d="M956.93,819.06l0,.17A.77.77,0,0,0,956.93,819.06Z" transform="translate(-922.99 -713.44)"/><path class="cls-1" d="M952.93,828.67c-.07.05-.12.05-.18.17h0C952.8,828.78,952.83,828.72,952.93,828.67Z" transform="translate(-922.99 -713.44)"/><path class="cls-1" d="M950,831l.09,0,.09-.08Z" transform="translate(-922.99 -713.44)"/><path class="cls-1" d="M941,829.55a1.16,1.16,0,0,1-.26-.22C940.85,829.51,940.18,829.68,941,829.55Z" transform="translate(-922.99 -713.44)"/><path class="cls-1" d="M928,808.13a.15.15,0,0,1,0-.17l-.08.12S928,808.14,928,808.13Z" transform="translate(-922.99 -713.44)"/><path class="cls-1" d="M954.41,830.34a3.8,3.8,0,0,1-.53.46A2.42,2.42,0,0,0,954.41,830.34Z" transform="translate(-922.99 -713.44)"/><path class="cls-1" d="M936.53,808.5l.16,0A.21.21,0,0,0,936.53,808.5Z" transform="translate(-922.99 -713.44)"/><path class="cls-1" d="M952.29,832.12a1.18,1.18,0,0,0-.43,0,.23.23,0,0,0,0,.11Z" transform="translate(-922.99 -713.44)"/><path class="cls-1" d="M940.74,829.32h0Z" transform="translate(-922.99 -713.44)"/><path class="cls-1" d="M935.85,829.31c.67.27.45-.21.67-.35.8.18.27.38.48.66.55.06,1-.21,1.39-.12,0,.07.09.11,0,.16a3.6,3.6,0,0,1,1.13-.09,1.94,1.94,0,0,0,1.14-.33.24.24,0,0,1,.09.08.87.87,0,0,1-.18-.48c.3,0,.47-.32.63-.12-.17,0-.16.14-.22.24l.27-.19c.35.25-.37.25-.33.47.58-.27,1.16-.71,1.59-.84.12.13-.12.27-.3.38s-.32.15,0,.2l-.75.09c.7.35-.45.1.22.49a2.2,2.2,0,0,0,1-.39,4.9,4.9,0,0,1,.95-.51c.09-.29-.2-.21-.12-.49.92-1,1.4.05,1.9-1,0-.35-.23-.72.41-1.09l.13.43c.66-.7-.11-.75.66-1.38,0,.22-.3.67-.19.58.61-.36.09-.49.33-.89l.34.09a11.89,11.89,0,0,0,.84-3c.08.08.14.29.31.07a42.93,42.93,0,0,0,.54-4.27l-.37-.47c0-.12.1-.24.17-.12,0-.55-.19,0-.34-.22s.07-.42.22-.26a27.33,27.33,0,0,1-1.64-3.24l.17.11c-.32-.73-1-.31-1.19-1l.12.07c-1-1.33-2.61-2.07-3.54-2.94-.35.26-1.43-.74-1.7-.21-.4-.25-.53-.39-.72-.52a2.79,2.79,0,0,0-1-.45c-.34-.08-.55.28-1,.33v-.31l-.59.29-.3-.38-.4.1c.16,0,.34.12.31.21a2,2,0,0,1-1,0c-.31-.07-.55-.15-.56-.23a8.86,8.86,0,0,0-1.42.5c0-.13.24-.22.42-.34-.71.47-.22-.29-.87.15.12,0,0,.19,0,.25a3,3,0,0,0-1.73.48l0-.24a11.08,11.08,0,0,0-3.09,1.91c.42-.2.55.16.3.4l-.32-.16c0,.3.37-.14.16.35-.36.26-.47-.08-.34-.34-.12.15-.23.3-.34.46-.09-.05,0-.18-.09-.29,0,.29-.95.46-.92,1l-.09,0a9.5,9.5,0,0,0-1.54,2.47c.24.14,0,.48.1.85a6.25,6.25,0,0,0-.92,2.33c.05.65.21.22.34.51-.26,0-.29.92-.45.45a7.08,7.08,0,0,0,.44,2.69c.08-.16.1-.33.2-.26.08.23,0,.55-.14.54l0,0a9.14,9.14,0,0,1,.52,2.37,3.07,3.07,0,0,0,.89,2l-.06,0c.27.33.6.6.9.9.28.49-.35-.18-.25.26a3.62,3.62,0,0,1,.65.65,6.62,6.62,0,0,1,.5.6,3.35,3.35,0,0,0,1.06,1.06c0,.54.62,1.09,1.28,1.52a7.9,7.9,0,0,1,1.77,1.31l0-.18c.35,0,.27.25.44.4,0-.14-.2-.3,0-.29a30.86,30.86,0,0,0,7.2,2.68c.94.11.59-.83,1.73-.38l-.34.33c1.87-.34,3.87-.16,5.6-1-.09.1-.07.2-.24.24.45.18,1.39-.43,1.33-.6.28-.07.12.14.32.18a1.21,1.21,0,0,0,.61-.28c.18-.16.34-.29.48-.23s-.07.12-.12.17c.18-.22,1.1-.49.75-.64.71-.15,1.1-.76,1.66-.91.06-.22.33-.35.57-.48s.4-.3.31-.51c.23.38,1.2-.49,1.34-1,0,.21.36-.18.38.08.34-.39.6-.79.36-.87a1.23,1.23,0,0,0,.59-.41,3.06,3.06,0,0,0,.3-.6c.17-.39.31-.72.75-.75.3-.7.51-1.4.77-2s.35-1.32.53-2c.42.2-.48,1.38,0,1.5.33-1.26.11-2.06.53-3.22.12-.3.15.22.19.34a14.25,14.25,0,0,0,.24-3.51s.08.12.11.24c0-.22.09-.51-.11-.49l0,.21c-.32.33-.56-.86-.76-.89.61.36.1-1.06.87-.52-.05-.14-.15-.31-.29-.27,0-.21.11-.29.28-.08-.17-.78-.32-.48-.42-1.17.09,0,.15.12.28.18a1.91,1.91,0,0,1-.49-1.25c.06,0,.13-.05.15.12a3.94,3.94,0,0,0-.52-1.3,4.69,4.69,0,0,1-.46-1.37c.52.18,0-.4.34-.58l-.32-.53-.08.29c-.17-.5-.59-.82-.69-1.26l.31.29-.5-.86.12.56c-.4-.38-.4.26-.61-.4.09.11-.19-.47-.16-.79h0a1.25,1.25,0,0,1-.61-.68c0-.15.39-.16.42-.26-.2,0-.38-.26-.57-.51s-.44-.47-.67-.49a.27.27,0,0,0,.29-.13h-.33c-.09-.24-.08-.29.06-.36-.42-.59-.21.49-.6-.31.06,0,.07,0,.18.07a3.54,3.54,0,0,0-.9-.87,11.65,11.65,0,0,1-.9-.8c.05-.44.61.36.6,0a11.59,11.59,0,0,0-1.58-.88,11.91,11.91,0,0,1-1.56-.76l.16.14c-.19.19-.34,0-.52-.17a1,1,0,0,0-.73-.42c.14,0,.28-.21.22-.17a4.65,4.65,0,0,0-1.16-.39c-.44-.06-.94-.08-1.51-.14l.17-.1a6.64,6.64,0,0,0-1.62-.41c-.16.12-.43.06-.29.28a2.67,2.67,0,0,0-2.12-.27,3.44,3.44,0,0,1-2,.08c.16,0,.36-.15.24-.14a6.87,6.87,0,0,0-1.1.3c.13.21.17.11.43.24a1.18,1.18,0,0,1-.67.37c.46-.24-.07-.36-.31-.44.05.06,0,.15,0,.22-.65-.28,0,.44-.81.37v-.13a2.54,2.54,0,0,1-.79.43c-.21-.21.26-.2.22-.42-.43.15-.7.71-1.15.62.14-.16.41-.23.56-.35a1,1,0,0,0-.87,0h0l-.76.16h.21a.94.94,0,0,1-.66.68,1.74,1.74,0,0,0-.81.65c.45-.72,0-.28-.1-.57-.21,0-.52.07-.49,0-.19.39-.65.1-.89.71-.07-.07-.33.21-.39-.05-.36.34.19.08.22.21a2.23,2.23,0,0,1-1.06.69,2.47,2.47,0,0,0-1.11,1c-.56.73-.39,1.12-.84,1.8-.31.1-.11-.4-.11-.4a1.53,1.53,0,0,0-.79.92c0-.12-.12-.1-.29-.06-.18.29.15.39-.24.67a1.37,1.37,0,0,1-.11-.5,7.78,7.78,0,0,0-.39,1.21c-.2,0-.1-.35-.11-.55-.18.46-.49,1.16-.33,1.41l.24-.21c-.08.15-.25,0-.23-.17,0-.46.38-.46.47-.43l-.1.29c.33,0,.45-.25.54-.58a3.59,3.59,0,0,1,.41-.93l.18.45.09-.69c.17,0,.4,0,.27.31.42-.19.09-.4.51-.51.06,0,.06,0,0,.06l.18-.37c0,.11.27.15,0,.28.67-.34.58-1.05,1-1l0,.06c.67-.75-.13-.28.22-1l.86.26-.11-.3c.09-.06.26-.17.3,0,.18-.4-.14-.07-.07-.36.57,0,1.08-.88,1.43-.53,0-.3-.49.11-.13-.32.38.35.49-.38,1-.39,0,.3-.44.37.07.37,0-.52.81-.34,1.12-.55-.14-.34.7-.45,1.25-.81a14.05,14.05,0,0,0,1.8-.2V803c0-.41.64-.43,1.06-.6,0,.22,0,.32-.25.46l.4-.08a.71.71,0,0,1,.45-.31l-.06.29a4.2,4.2,0,0,1,1.78-.32c0-.26-.62-.67.15-.9,0,.13.07.37-.13.44.06,0,.23-.14.37-.07a2.25,2.25,0,0,0-.3.24c.33.08.16-.2.43-.18,0,.2.19.15.16.3s-.23-.08-.33,0a1.31,1.31,0,0,1,.76.32.22.22,0,0,1,.22-.29c.55,0,.18.24.49.35.14-.15.47.05.51-.25.16,0,.17.17.22.25.3-.09,1.31.14,1.05-.21l-.07,0h0c1-.09,1.88.57,2.76.83l0,.09a6.7,6.7,0,0,1,.85.23,2.1,2.1,0,0,0,.75.2c.15.09.25.35.13.42.4.15.54,0,.93.54-.44-.11,0,.21-.42-.15.4.39.39.59,1,.72-.31.09.14.47.37.59a2.59,2.59,0,0,0-.17-.38,2.19,2.19,0,0,1,.59.54l-.32.15c.24.53.73.71,1.13,1a1.3,1.3,0,0,1,.75,1.07c.37.09-.25-.56.13-.53.32.42.18,1.15.26,1.28.2.68.8.27,1,1,.06-.14.3-.38.65.08.19.5-.17.79-.4.54-.06-.11,0-.17,0-.19-.12-.13-.26-.3-.28-.06h.13c0,.28.32.9.07.83.27.29.25.07.18-.21.14.64.37.95.5,1.61,0-.12.13-.26.16-.16.2,1,.35.35.59,1-.08.42-.45,0-.14.6,0,.42-.28.15-.41,0,.39.53.08,1.13.09,1.47l-.14-.3a1.59,1.59,0,0,1,.12.49l.21-.22c0,.19,0,.35-.09.36.19.17.37-.2.64.16-.06.26.2.76-.11.87.07-.8-.3.11-.4-.55a.8.8,0,0,1,0,.47s-.07,0-.09-.07c-.25.76.37.32.4,1.1-.18-.09-.32.19-.28.31,0-.31.3-.15.42.14-.16.5.08.55,0,.82l.08-.3c.17.11.13.37.17.73-.14,0-.08-.33-.15-.21.31.43-.39.86-.27,1.42-.16.23-.33,0-.45.17.15.64-.33.59-.31,1.24.28-.12.23-.17.34.32,0-.35.09-.7.09-1a6,6,0,0,1,.18.73c.09-.31,0-.69.08-.87.14.36.09.32.31.2-.42.36,0,.91-.37,1.35l-.57-.18a2.49,2.49,0,0,0-.29,1,2.92,2.92,0,0,1-.34,1.2c.08-.08.14-.17.21-.25.19.23-.22.56-.29.89-.16-.12-.31,0-.48.08.13.06-.34.62,0,.9l-.47.21c-.55.56,0,1.1-.61,1.63,0-.3-.34-.14-.12-.61-.17.18-.35.32-.25.42-.19,0-.28.69-.57.74,0,.13.12.33-.11.5-.05,0-.07-.07-.07-.07s-.26.39.09.39a2.38,2.38,0,0,0-1.34.74,2.23,2.23,0,0,1-1.3.59,11.81,11.81,0,0,1-1.49.9c0-.07,0-.09,0-.12-.69.13-.19.69-1,.78-.49-.17.35-.3.07-.33-.32-.6-.88.43-1.52.15l.12-.07c-.44-.14-.91.48-1.59.52a.09.09,0,0,0,0-.1,3.92,3.92,0,0,1-1.94.7c.2-.25.3-.14.16-.39-.29,0,.11.41-.49.49-.19-.14-.62-.26-.67-.53l.55,0c-.28-.37-.7,0-1-.06l0-.15c-.82,0-.87.37-1.77.24l.07.13c-.55.29-.37-.3-.91-.11l-.07-.41c-.17,0-.47.06-.81.08a7.82,7.82,0,0,1-1-.07,9.65,9.65,0,0,1,1.55-.22c-.32,0-1-.25-1.27-.11.14,0,.32,0,.42.05a2.2,2.2,0,0,1-1.63,0c.38-.69-1.52-.78-1.63-1.59a3.41,3.41,0,0,1-1.46-.81l-1.34-1.19c0,.75-.29-.24-.64.27-.26-.18-.34-.27-.33-.31a5.2,5.2,0,0,1-.37-.92c0-.29.28.12.36,0-.38-.51,0-.38-.13-.79-.11.2-.39,0-.56-.29l.12.56c-.44-.23-.46-.47-.45-.71a.79.79,0,0,0-.39-.75l.32.12a6,6,0,0,1-.66-.84,2.17,2.17,0,0,0-.83-.8c0-.1.14-.27.27-.1-.39-1-1.33-2.18-1.15-3.11l.16.06c-.07-.19-.32-.31-.2-.59.06,0,.16.07.16,0s-.31-.52-.21-.8l.17.23c.18-1-.35-1.62-.22-2.56.42.11.78-.61,1-.93l.05,0a19.66,19.66,0,0,1,1.4-2.89c.82-.19,2-1.41,3.16-1.62-.19,0-.11-.32.06-.45s.6-.57.7-.17l-.1,0c.33.32.79,0,1.22,0l0-.53a3.94,3.94,0,0,0,2-.06c.68-.13,1.32-.16,1.6.2.28-.13.62,0,.91-.15l-.06.28,2,.56-.24.13c.47.16.9-.53,1.38-.33l-.05.44c.82.44,1.34,1.21,2.2,1.56a.2.2,0,0,1-.27,0c.34.27.82,1.36,1.2.9-.14.11,0,.31.17.52s.5.44.66.64l-.28,0c.47.23.61.19.88.74,0,.14-.18.18-.16,0,0,.49.37.28.36.88a1.28,1.28,0,0,0-.22-.17c.08.47.15.42.41.66s0,1-.23,1a.55.55,0,0,1,.3.62c-.1,0-.15-.07-.17-.12a1.75,1.75,0,0,0,0,1,1.05,1.05,0,0,1-.14.79.19.19,0,0,0-.18.06l.16-.8c0-.21,0-.32,0-.3-.25,0-.33.47-.66,0a4,4,0,0,1,.25.8,1.09,1.09,0,0,1-.06.84l-.1,0,0-.06a.51.51,0,0,0,0,.32c-.09.14-.13.23-.2.36s-.32.49-.42.72c.27.1.07.38.42.2,0,0,0-.06.05-.23s0-.08,0-.11l0,0,.22-.61a.6.6,0,0,1-.17.7,2.64,2.64,0,0,1,.27.53c-.54.16-1,.66-1.29.59-.29.74-1,1.49-1,2.18-.13.2-.3.06-.41,0,.06-.13.18-.22.18-.33-.22.44-1,.81-.91,1.2-.59.11.12-.43-.54,0l0-.15a4.33,4.33,0,0,0-1.82.77,1.88,1.88,0,0,1-2.1,0c.11.07.16.1.18.17a16.69,16.69,0,0,1-2.77-1.11,4.86,4.86,0,0,1-2.07-2.14c-.22-.51-.44-.42-.79-.61l.19-.25-.57-.35c-.33-.31-.27-.74-.26-1.14a1.71,1.71,0,0,0-.27-1.26l-.18.17c0-.37-.21-1.18,0-1.12,0,0-.21-.12-.09-.26h.16a7.23,7.23,0,0,1-.16-.93c.31-.65.58.22.88-.66.09-.31,0-1.11-.12-1s-.25.31-.4.25l.09-.37c-.38-.28-.62-.88-1.39,0a3.55,3.55,0,0,0,0,.8l-.28.16a3.31,3.31,0,0,1,.19-.61c-.36.25-.21.57-.16.84a.48.48,0,0,0-.33.25,3.26,3.26,0,0,0,.32.8c-.19.07-.33-.38-.48.12.18.36.44-.29.52.28-.23.33-.43.24-.22.65-.11.06-.2,0-.26-.2.17.38.12,1,.39,1.15-.18.4.33,1.17-.1,1.26a2.39,2.39,0,0,1,.68.79c-.34-.19-.26.11-.12.46s.34.71.06.78a2.2,2.2,0,0,1,.84.77,3.24,3.24,0,0,0,.94.94c-.05,0-.17,0-.2-.09a4.2,4.2,0,0,1,.39.83c.32-.24.89.16,1.31.21.19.61-.55.16-.64.53.16-.24,1,.32,1,0,.2.43.22.3.23.7.31-.37.39.12.84,0,.43.49-.08.52.62.64C936.5,829.38,935.85,829.31,935.85,829.31Zm12-7.43h0l-.07.3Zm.25-1.24c0,.15-.07.34-.11.54a.12.12,0,0,1-.16-.16C947.9,821.1,948,820.82,948.12,820.64Zm-2.5,1.87c0-.17.09-.2.16-.2a2,2,0,0,0-.08.28l0,0A.35.35,0,0,1,945.62,822.51Z" transform="translate(-922.99 -713.44)"/><path class="cls-1" d="M945.85,822.93s0,.05,0,.08l.09-.07,0-.09Z" transform="translate(-922.99 -713.44)"/><path class="cls-1" d="M945.32,802.43h0l0,0Z" transform="translate(-922.99 -713.44)"/><polygon class="cls-1" points="14.99 94.95 14.99 95.02 15.11 94.96 14.99 94.95"/><path class="cls-1" d="M938.8,801.63a.14.14,0,0,0-.1-.06S938.75,801.61,938.8,801.63Z" transform="translate(-922.99 -713.44)"/><path class="cls-1" d="M936,802.37l-.42.06A1.81,1.81,0,0,0,936,802.37Z" transform="translate(-922.99 -713.44)"/><path class="cls-1" d="M933.89,803.16a.25.25,0,0,0,0,.13h0Z" transform="translate(-922.99 -713.44)"/><path class="cls-1" d="M958.81,819a.28.28,0,0,0,0,.09C958.86,819.31,958.85,819.17,958.81,819Z" transform="translate(-922.99 -713.44)"/><path class="cls-1" d="M955.79,808.9a1.24,1.24,0,0,1,.28.22C956,808.94,955.92,808.82,955.79,808.9Z" transform="translate(-922.99 -713.44)"/><polygon class="cls-1" points="31.48 116.85 31.47 116.85 31.42 116.91 31.48 116.85"/><path class="cls-1" d="M956.29,809.57a1,1,0,0,0-.22-.45A1.45,1.45,0,0,0,956.29,809.57Z" transform="translate(-922.99 -713.44)"/><path class="cls-1" d="M926.71,809.73l-.06.09a0,0,0,0,1,0,0Z" transform="translate(-922.99 -713.44)"/><path class="cls-1" d="M926.68,809.85l0,.12C926.68,809.92,926.7,809.88,926.68,809.85Z" transform="translate(-922.99 -713.44)"/><path class="cls-1" d="M926.58,810.23l.07-.26C926.6,810.05,926.54,810.14,926.58,810.23Z" transform="translate(-922.99 -713.44)"/><path class="cls-1" d="M928.54,807.32l0-.09A.16.16,0,0,0,928.54,807.32Z" transform="translate(-922.99 -713.44)"/><path class="cls-1" d="M929.15,806.64c-.17.14-.54.25-.7.51l0,.08C928.48,807,929.13,806.9,929.15,806.64Z" transform="translate(-922.99 -713.44)"/><path class="cls-1" d="M932.77,805.25l-.64.33c.17,0,.38,0,.13.25C933.19,805.6,932,805.73,932.77,805.25Z" transform="translate(-922.99 -713.44)"/><path class="cls-1" d="M934.74,804.28c-.31.23.07.14.08.21C935,804.29,935,804.24,934.74,804.28Z" transform="translate(-922.99 -713.44)"/><path class="cls-1" d="M949.84,804.32l-.16.2C950,804.63,949.73,804.44,949.84,804.32Z" transform="translate(-922.99 -713.44)"/><polygon class="cls-1" points="30.14 91.7 30.02 91.37 29.76 91.44 30.14 91.7"/><polygon class="cls-1" points="30.06 94.27 29.95 94.2 30.32 94.5 30.06 94.27"/><path class="cls-1" d="M950.41,830.4l.24.22C950.79,830.47,950.62,830.16,950.41,830.4Z" transform="translate(-922.99 -713.44)"/><path class="cls-1" d="M939.68,832.84a.51.51,0,0,0-.61-.23C939.32,832.68,939.55,832.85,939.68,832.84Z" transform="translate(-922.99 -713.44)"/><path class="cls-1" d="M935,811.06l-.19.15.38-.17Z" transform="translate(-922.99 -713.44)"/><path class="cls-1" d="M1000.14,740.64c.11.06.28,0,.2-.26l-.35-.1Z" transform="translate(-922.99 -713.44)"/><path class="cls-1" d="M1000.44,738.93c-.22-.25-.51-.55-.8-.32.34.24.23.33.66.56.08.23,0,.43-.15.42.1.06,0,.38.23.46a1,1,0,0,0-.16-1.11C1000.27,738.84,1000.37,738.92,1000.44,738.93Z" transform="translate(-922.99 -713.44)"/><path class="cls-1" d="M1008.81,718.71l-.13.06A.38.38,0,0,0,1008.81,718.71Z" transform="translate(-922.99 -713.44)"/><path class="cls-1" d="M1022,715.45c-.1,0-.15,0-.16.06S1022,715.49,1022,715.45Z" transform="translate(-922.99 -713.44)"/><path class="cls-1" d="M1024.19,716.26l-.13-.06A.16.16,0,0,0,1024.19,716.26Z" transform="translate(-922.99 -713.44)"/><path class="cls-1" d="M1008.81,718.71a3.88,3.88,0,0,1,.36-.15C1009.12,718.45,1009,718.61,1008.81,718.71Z" transform="translate(-922.99 -713.44)"/><path class="cls-1" d="M999.4,735.74a.54.54,0,0,0,.09.22l0-.21Z" transform="translate(-922.99 -713.44)"/><path class="cls-1" d="M1004.82,723.33l-.07.09a.64.64,0,0,0,.06.16Z" transform="translate(-922.99 -713.44)"/><path class="cls-1" d="M1002.65,727.48c.05-.1-.2-.24-.29-.33a.41.41,0,0,1,.09.3A.53.53,0,0,0,1002.65,727.48Z" transform="translate(-922.99 -713.44)"/><path class="cls-1" d="M1000.56,734.67l0,.13Z" transform="translate(-922.99 -713.44)"/><path class="cls-1" d="M1007,720.79l.1,0A.13.13,0,0,0,1007,720.79Z" transform="translate(-922.99 -713.44)"/><path class="cls-1" d="M1022.11,743s0,0,0,0S1022.07,743,1022.11,743Z" transform="translate(-922.99 -713.44)"/><path class="cls-1" d="M1018.16,738.48l0,.07.16,0Z" transform="translate(-922.99 -713.44)"/><path class="cls-1" d="M1028,718.09l0,0C1027.86,718.05,1027.92,718.08,1028,718.09Z" transform="translate(-922.99 -713.44)"/><path class="cls-1" d="M1023.94,746.39c.46.23-.68.36,0,.6C1023.88,746.89,1024.49,746.52,1023.94,746.39Z" transform="translate(-922.99 -713.44)"/><path class="cls-1" d="M999.43,735.61a1.33,1.33,0,0,1,0-.2A.66.66,0,0,0,999.43,735.61Z" transform="translate(-922.99 -713.44)"/><path class="cls-1" d="M1023.94,747h0l.07,0Z" transform="translate(-922.99 -713.44)"/><path class="cls-1" d="M1034.88,724.48a.34.34,0,0,0,.06-.15S1034.89,724.39,1034.88,724.48Z" transform="translate(-922.99 -713.44)"/><path class="cls-1" d="M1030.4,718.88l.13.14Z" transform="translate(-922.99 -713.44)"/><path class="cls-1" d="M1036.53,727.81a.39.39,0,0,0,0,.27l0-.05A.21.21,0,0,1,1036.53,727.81Z" transform="translate(-922.99 -713.44)"/><path class="cls-1" d="M1036.86,731.73l.06-.07v-.12Z" transform="translate(-922.99 -713.44)"/><path class="cls-1" d="M1031.5,734a.78.78,0,0,1-.27.2C1031.44,734.13,1031.46,734.81,1031.5,734Z" transform="translate(-922.99 -713.44)"/><path class="cls-1" d="M999.55,735.74a.18.18,0,0,1-.12-.13l0,.14S999.53,735.77,999.55,735.74Z" transform="translate(-922.99 -713.44)"/><path class="cls-1" d="M1038.74,727.52a4.41,4.41,0,0,1,.08.72A2.34,2.34,0,0,0,1038.74,727.52Z" transform="translate(-922.99 -713.44)"/><path class="cls-1" d="M1009,728.84l.05-.16A.22.22,0,0,0,1009,728.84Z" transform="translate(-922.99 -713.44)"/><path class="cls-1" d="M1039.07,730.35a1.26,1.26,0,0,0-.19.41.2.2,0,0,0,.08.08Z" transform="translate(-922.99 -713.44)"/><path class="cls-1" d="M1031.23,734.19Z" transform="translate(-922.99 -713.44)"/><path class="cls-1" d="M1030.44,739.09c.38-.65-.14-.48-.25-.72.32-.78.43-.22.73-.41.11-.56-.07-1.06.07-1.42.07,0,.1-.08.16,0-.16-.61.35-1.64,0-2.3a.22.22,0,0,1,.1-.08.91.91,0,0,1-.52.07c0-.3-.18-.55,0-.66,0,.18.08.2.15.28a2.12,2.12,0,0,0-.09-.31c.35-.28.12.43.36.44-.06-.64-.45-1.32-.36-1.79.33-.14.18,1.09.44.43l-.09.75c.51-.58,0,.46.53-.08a9.86,9.86,0,0,0-.31-2.11c-.22-.18-.26.13-.48-.05a1.21,1.21,0,0,1-.06-1.21.69.69,0,0,0-.14-.93c-.32-.16-.75-.08-.83-.83l.45.07c-.36-.9-.73-.24-1-1.22.21.07.47.58.44.43,0-.71-.41-.28-.65-.7l.23-.27a10.92,10.92,0,0,0-1.1-1.17c-.44-.34-.84-.72-1.29-1.05.12,0,.34,0,.2-.24a24.69,24.69,0,0,0-3.81-2.44l-.61.15c-.12,0-.2-.19,0-.21-.53-.24-.07.17-.35.23s-.38-.27-.17-.31c-.5,0-1.19.12-1.86.16a9.4,9.4,0,0,1-1.86.08l.17-.12c-.79,0-.74.7-1.46.68l.11-.1c-1.67.33-3.08,1.5-4.32,1.93,0,.24-.32.45-.63.69s-.57.51-.4.75a4.62,4.62,0,0,0-1.77,1.1c-.24.28,0,.66-.2,1l-.26-.16-.06.66-.47.1-.12.4c.09-.14.28-.24.35-.17a2.19,2.19,0,0,1-.55.86c-.21.25-.41.42-.49.4a11.57,11.57,0,0,0-.28,1.54c-.11-.07-.08-.33-.1-.56.08.9-.35.06-.28.87.1-.08.17.11.22.14a3.26,3.26,0,0,0-.45,1.82l-.19-.15a10.22,10.22,0,0,0-.06,1.85c.12.63.16,1.3.32,1.93,0-.48.38-.43.5-.08l-.29.21c.26.19,0-.4.39,0,.07.46-.29.4-.45.15l.24.54c-.08.06-.17-.06-.29-.06.22.18,0,1.09.46,1.3l-.08.07a11.51,11.51,0,0,0,1.48,2.56c.25-.15.4.25.78.34l.61,1.05a6.52,6.52,0,0,0,.84,1c.56.34.3-.05.62,0-.13.22.58.78.1.62a7.72,7.72,0,0,0,1,.74,9.81,9.81,0,0,0,1.35.64c-.07-.16-.19-.28-.07-.32s.43.37.34.46h-.07a9.74,9.74,0,0,1,2.19,1.21,9.23,9.23,0,0,0,1.11.59,2.33,2.33,0,0,0,1.06.12h-.07a11.47,11.47,0,0,0,1.31,0c.57.13-.38.14,0,.36,1.41-.24,2.2.24,3.34-.12a2.59,2.59,0,0,0,2.09,0,10.26,10.26,0,0,1,2.25-.62l-.13-.14c.22-.28.39-.05.62-.11-.09-.11-.38,0-.24-.18a22.78,22.78,0,0,0,6.57-4.7c.66-.74-.42-1,.62-1.74l.08.47c.41-.92.84-1.81,1.3-2.69a9,9,0,0,0,.87-2.8c0,.13.14.16.08.34.36-.32.43-1.45.21-1.5.08-.28.18,0,.32-.19.21-.38-.11-1,.16-1.23.05,0,.06.13.06.2-.05-.27.15-1.23-.14-1a3.61,3.61,0,0,0,.1-1,2.82,2.82,0,0,1,0-.92c-.32-.36.14-1.25-.35-1.33.46,0,.21-1.31-.08-1.71.17.13,0-.41.27-.28-.13-.51-.34-1-.54-.81a1.32,1.32,0,0,0,0-.74,3.33,3.33,0,0,0-.35-.61c-.24-.37-.44-.69-.22-1.09-.46-.65-.9-1.26-1.34-1.83s-.9-1.1-1.4-1.57c.41-.27.94,1.19,1.29.87a7.62,7.62,0,0,0-1.3-1.14,9.68,9.68,0,0,1-1.22-1.14c-.2-.27.28,0,.41,0a16.08,16.08,0,0,1-1.45-1.22,7.32,7.32,0,0,0-1.5-1s.16,0,.27,0c-.19-.14-.41-.34-.5-.16l.22.06c.14.44-1.1.06-1.2.18.62-.31-.87-.71,0-1-.15,0-.36-.06-.39.08-.18-.13-.21-.23.07-.27-.78-.26-.62.06-1.27-.26,0-.09.19-.06.31-.13a2.5,2.5,0,0,1-1.36-.28s0-.14.19-.07a6.44,6.44,0,0,0-1.43-.28,3.72,3.72,0,0,1-1.46-.34c.43-.32-.34-.25-.32-.61h-.64l.21.22c-.54-.1-1,.07-1.49-.12a3.15,3.15,0,0,1,.42-.09c-.33,0-.68,0-1-.06l.56.2c-.57.14,0,.47-.7.3.15,0-.52-.06-.78-.3h0a1.57,1.57,0,0,1-.94.12c-.1-.12.09-.41,0-.49-.27.31-1.27.05-1.59.44a.3.3,0,0,0,.07-.32l-.21.27c-.25-.06-.29-.09-.26-.25-.76,0,.27.45-.63.32.07,0,0-.06.17-.11a3.66,3.66,0,0,0-1.28.21,6.61,6.61,0,0,1-1.22.25c-.33-.31.68-.25.34-.49a12.09,12.09,0,0,0-1.71.71,12.58,12.58,0,0,1-1.63.77l.21,0c0,.27-.18.29-.47.3a1.14,1.14,0,0,0-.82.31c.11-.1,0-.35,0-.28a4.3,4.3,0,0,0-1.08.66l-1.15,1.06,0-.19a8.59,8.59,0,0,0-1.43,1c0,.19-.27.36,0,.4a3,3,0,0,0-1.68,1.43,3.89,3.89,0,0,1-1.38,1.57c.09-.13.13-.39.06-.28l-.58,1c.24.06.2,0,.49-.13a1.16,1.16,0,0,1-.24.74c.18-.5-.32-.21-.54-.08.08,0,.11.12.18.14-.66.3.34.33-.31.88l-.09-.09a3.63,3.63,0,0,1-.29.88c-.3,0,0-.35-.14-.47-.21.42,0,1-.39,1.3,0-.21.15-.46.17-.67-.49.27-.44.35-.64.64l0,0c-.16.22-.32.44-.46.67l.16-.16c.43.82-.35,1.16-.18,2-.16-.86-.2-.2-.47-.36-.14.17-.32.44-.37.32.12.44-.38.55-.19,1.16-.11,0-.12.39-.33.24,0,.5.19-.07.29,0,.17.8-.83,1.64-.5,2.8,0,.95.38,1.15.49,2-.18.28-.34-.25-.34-.25a1.75,1.75,0,0,0-.06,1.25c-.09-.09-.16,0-.27.13,0,.36.36.24.23.7a1.21,1.21,0,0,1-.4-.34c.1.42.26.83.4,1.25-.15.13-.29-.24-.4-.39.1.49.28,1.26.56,1.37l.06-.32c0,.18-.22.12-.28,0-.26-.4,0-.61.12-.63l.1.29c.51-.35-.17-1.2-.14-1.83l.42.25-.36-.63c.11-.13.34-.21.41.09.19-.43-.14-.39.11-.75,0,0,0,0,.07,0l-.1-.43c.08.09.3,0,.22.2.28-.72-.23-1.24.14-1.48V733c0-1-.29-.13-.52-1l.82-.4-.28-.15c0-.11.1-.31.21-.25-.11-.43-.14,0-.28-.23.39-.44.19-1.44.71-1.42-.16-.24-.32.43-.3-.15.54,0,.1-.64.47-1,.22.23,0,.6.32.23-.37-.42.4-.82.47-1.21-.33-.16.15-.87.37-1.51.09.09.72-1.05,1.18-1.49l0,0c-.25-.28.12-.82.33-1.23.17.14.19.25.14.51.07-.13.16-.24.24-.36a.72.72,0,0,1,.12-.54l.16.24c.31-.47.42-1.14,1.06-1.57-.17-.21-.94,0-.54-.73.12.07.32.2.23.4,0-.07.07-.26.2-.33l0,.4c.3-.2,0-.27.17-.46.14.13.23-.06.32.07s-.21.13-.22.26a1.11,1.11,0,0,1,.76-.37.21.21,0,0,1-.05-.36c.4-.42.31,0,.61-.13,0-.2.36-.35.17-.58.12-.11.25,0,.35,0,.14-.28,1-.9.59-.93l-.07,0,0,0h0a2.84,2.84,0,0,1,1.21-.92l.68-.35a3.68,3.68,0,0,0,.65-.35l.05.08c.23-.18.51-.35.76-.52a2.49,2.49,0,0,0,.66-.47c.17-.06.45,0,.42.15.39-.22.39-.39,1.06-.4-.37.29.19.1-.4.24.58-.07.74,0,1.26-.39-.14.31.48.17.73.07a3.29,3.29,0,0,0-.43-.09,3.57,3.57,0,0,1,.83-.16l-.08.36c1.15.16,2-1,2.91-.36.3-.25-.63-.14-.37-.42.55,0,1.1.52,1.26.52.71.18.7-.49,1.46-.28-.08-.13-.16-.45.45-.51.54.1.6.56.25.63-.13,0-.19-.05-.18-.09-.18,0-.41,0-.21.2l.08-.11c.25.13,1,.24.77.41.41,0,.21-.16-.08-.28.64.31,1,.19,1.71.47-.09-.1-.16-.26,0-.23,1,.43.5-.09,1.2.06.33.28-.27.36.46.43.36.27,0,.33-.21.36.67,0,1,.56,1.36.73l-.34,0a1.4,1.4,0,0,1,.5.14c0-.1,0-.2-.07-.29.16.1.3.19.26.28.25-.06,0-.43.48-.45.18.23.79.25.72.57-.69-.46-.06.32-.71.06a1,1,0,0,1,.44.22s-.06,0-.11,0c.56.58.49-.16,1.19.26-.18.1,0,.39.11.42-.27-.17,0-.33.36-.29.37.39.54.22.75.4l-.21-.24c.18-.08.38.1.72.28-.06.13-.33-.13-.26,0,.51,0,.57.79,1.11,1,.11.27-.2.27-.09.48.6.27.35.61.91,1,.05-.31,0-.3.46-.1a5.19,5.19,0,0,0-.88-.66c.25.08.52.14.76.24-.23-.25-.62-.38-.74-.55.39.09.32.11.34-.14.1.55.81.49,1,1.07l-.45.38c.33.73,1.1.89,1.57,1.81l-.1-.32c.28,0,.39.5.61.76-.19.07-.15.28-.19.46.12-.08.33.65.74.57,0,.17,0,.35-.07.52.16.8.92.66,1,1.48-.26-.18-.31.21-.59-.26.06.26.09.5.22.46-.08.18.44.65.32.93.11.09.33.09.34.39,0,0-.09,0-.09,0s.19.45.37.15a3,3,0,0,0-.11,1.6c0,.56.1,1.13-.19,1.47a13.75,13.75,0,0,1,0,1.83c-.05,0-.1,0-.06-.11-.32.69.48.54.11,1.34-.39.36-.08-.47-.25-.24-.63,0-.14,1-.68,1.44v-.14a1.13,1.13,0,0,0-.18.75,2.81,2.81,0,0,1-.21,1,.11.11,0,0,0-.09,0,4.17,4.17,0,0,1-.43,2.11c-.12-.32,0-.34-.26-.35-.11.28.41.11.18.7-.22.1-.58.41-.84.3l.3-.48c-.46.06-.39.62-.61.84l-.1-.12c-.42.75-.16,1-.77,1.69h.15c-.05.66-.42.21-.58.76l-.4-.16a6.89,6.89,0,0,1-1,1.55,3,3,0,0,1,.32-.72c.14-.27.28-.53.38-.74a3.64,3.64,0,0,0-.81,1c.08-.11.15-.29.29-.32a2.54,2.54,0,0,1-1,1.36c-.16-.34-.56-.16-1,.08-.23.12-.46.25-.68.34a.82.82,0,0,1-.62,0,3.3,3.3,0,0,1-1.57.67c-.58.11-1.18.21-1.82.3.55.52-.38.08-.22.68-.31.1-.44.06-.47,0l-1-.31c-.22-.16.29-.15.26-.28-.66,0-.28-.25-.71-.42.08.22-.24.3-.61.2l.52.3c-1,.29-.76-.54-1.72-.36l.32-.15c-.5.08-1.71-.33-2.31,0-.06-.1-.12-.29.1-.26-1.07-.38-2.62-.54-3.27-1.26l.15-.09c-.21-.06-.46,0-.61-.25,0,0,.15-.07.08-.14s-.64-.1-.81-.36l.29,0a2.86,2.86,0,0,0-1.18-.79,5.39,5.39,0,0,1-1.17-.67c.33-.3-.13-1.07-.32-1.45l.06,0a15,15,0,0,0-1-1.38,6.74,6.74,0,0,1-1-1.41c.22-.85-.43-2.51,0-3.69-.08.18-.35,0-.38-.27.13-.26-.18-.82.21-.71l0,.1a.64.64,0,0,0,.37-.47c.07-.21.12-.46.19-.67l-.49-.22a3.06,3.06,0,0,0,.59-.86c.17-.32.23-.69.39-1a6.52,6.52,0,0,1,.4-.91,1,1,0,0,1,.6-.45,7.69,7.69,0,0,1,.34-.91l.22.19c.54-.57.85-.82,1.5-1.54v.29c.4-.34,0-1.06.41-1.41l.38.24a9.16,9.16,0,0,1,1.29-.65,4.11,4.11,0,0,0,1.25-.71c0,.07,0,.19-.12.25.21-.06.64-.13,1-.24s.59-.2.46-.47c0,.18.28.15.57,0l.91-.34-.07.28c.42-.38.44-.49,1.08-.53.14.05.11.24-.08.15.46.2.42-.27,1,0l-.25.13c.48.14.46,0,.78-.1a.91.91,0,0,1,.59.18.65.65,0,0,1,.29.45.59.59,0,0,1,.71,0c0,.1-.13.11-.19.11a2.69,2.69,0,0,0,.91.46.89.89,0,0,1,.67.48.2.2,0,0,0,0,.19,3.83,3.83,0,0,0-.67-.5c-.18-.12-.27-.19-.25-.19-.12.23.28.53-.25.62a2.25,2.25,0,0,1,1.6.58.49.49,0,0,1,0,.11l-.06,0a.7.7,0,0,0,.26.2,1.57,1.57,0,0,0,.24.37c-.12.19.34.5.47.74.21-.2.38.12.37-.29,0,0-.06,0-.18-.16s-.06-.07-.09-.08h0l-.47-.48a.67.67,0,0,1,.58.48,4.68,4.68,0,0,1,.59,0c-.07.55.16,1.25,0,1.47.57.62,1,1.65,1.62,2,.13.21-.06.31-.12.42-.09-.12-.13-.28-.22-.32a8.07,8.07,0,0,1,.38.82c.12.29.22.54.41.56-.05.63-.39-.27-.18.54l-.13-.1a3.25,3.25,0,0,0,0,1.12,4.74,4.74,0,0,0,.15.5l.12.51a2.28,2.28,0,0,1-.39,2.23c.09-.1.13-.15.2-.16-.29.45-.41,1-.7,1.39l-.37.69c-.14.21-.31.42-.46.63a3.6,3.6,0,0,1-2.52,1.58c-.55.11-.55.3-.85.59l-.18-.27-.53.44a1.45,1.45,0,0,1-1.2-.16,5.17,5.17,0,0,0-.59-.23,2,2,0,0,0-.7,0l.08.23c-.37-.1-1.19-.3-1-.49,0,0-.21.13-.28,0l.07-.14a4,4,0,0,1-.88-.34c-.18-.32,0-.38.07-.49s.13-.19,0-.57a1.09,1.09,0,0,0-.22-.2,2.72,2.72,0,0,0-.24-.24c-.17-.14-.34-.25-.37-.17s0,.4-.12.47l-.19-.34c-.46.07-1.07-.28-1,1a6.41,6.41,0,0,0,.65.63,1.53,1.53,0,0,0,0,.36,5.09,5.09,0,0,1-.39-.63c0,.48.32.63.62.76a.56.56,0,0,0,0,.45,5.62,5.62,0,0,0,.92.23c0,.21-.52,0-.12.48.44,0-.07-.52.52-.31.22.36.05.5.53.52,0,.13-.11.17-.3.14.44,0,1,.36,1.3.15.32.39,1.28.16,1.2.6a3,3,0,0,1,1-.33c-.62.57,1.3-.06,1.21.47.4-.5,1.67-.6,2.34-1.23,0,0-.08.17-.16.18a4.38,4.38,0,0,1,1-.21c-.16-.38.44-.84.55-1.3.69-.11,0,.58.4.74-.21-.22.58-1,.23-1,.45-.17.32-.21.71-.17-.33-.37.21-.38.19-.84.53-.41.48.11.71-.59C1030.61,738.44,1030.44,739.09,1030.44,739.09Zm-3.51-14.74h0c.11.09.21.15.26.2Zm-1-.82a5.12,5.12,0,0,1,.45.35.12.12,0,0,1-.22.07C1026.21,724,1026,723.69,1025.89,723.53Zm.6,3.15c-.15-.1-.15-.18-.12-.24a1.93,1.93,0,0,0,.24.2h0A.37.37,0,0,1,1026.49,726.68Z" transform="translate(-922.99 -713.44)"/><path class="cls-1" d="M1027,726.68l.06,0a.49.49,0,0,0,0-.12h-.11Z" transform="translate(-922.99 -713.44)"/><path class="cls-1" d="M1008.65,718.78h0Z" transform="translate(-922.99 -713.44)"/><polygon class="cls-1" points="86.67 14.04 86.73 14.08 86.75 13.95 86.67 14.04"/><path class="cls-1" d="M1003.38,723.16a.19.19,0,0,0-.1,0S1003.34,723.19,1003.38,723.16Z" transform="translate(-922.99 -713.44)"/><path class="cls-1" d="M1001.87,725.77l-.28.34A2.11,2.11,0,0,0,1001.87,725.77Z" transform="translate(-922.99 -713.44)"/><path class="cls-1" d="M1000.84,727.86a.31.31,0,0,0,.1.08h0Z" transform="translate(-922.99 -713.44)"/><path class="cls-1" d="M1031.36,717.25l.08,0C1031.64,717.38,1031.51,717.31,1031.36,717.25Z" transform="translate(-922.99 -713.44)"/><path class="cls-1" d="M1020.79,714.27a2.12,2.12,0,0,1,.36-.1C1021,714.13,1020.8,714.11,1020.79,714.27Z" transform="translate(-922.99 -713.44)"/><polygon class="cls-1" points="115.74 14.01 115.73 14 115.75 14.08 115.74 14.01"/><path class="cls-1" d="M1021.66,714.22a.93.93,0,0,0-.51-.05A1.45,1.45,0,0,0,1021.66,714.22Z" transform="translate(-922.99 -713.44)"/><path class="cls-1" d="M999.48,737.84V738h0Z" transform="translate(-922.99 -713.44)"/><path class="cls-1" d="M999.53,738l0,.12C999.57,738,999.56,738,999.53,738Z" transform="translate(-922.99 -713.44)"/><path class="cls-1" d="M999.67,738.33l-.1-.25C999.58,738.17,999.58,738.28,999.67,738.33Z" transform="translate(-922.99 -713.44)"/><path class="cls-1" d="M999.52,734.73l-.1,0A.13.13,0,0,0,999.52,734.73Z" transform="translate(-922.99 -713.44)"/><path class="cls-1" d="M999.55,733.79c0,.22-.26.55-.21.87l.08,0C999.27,734.54,999.7,734,999.55,733.79Z" transform="translate(-922.99 -713.44)"/><path class="cls-1" d="M1001.42,730.24l-.25.71c.14-.1.32-.24.27.1C1002,730.21,1001.16,731.18,1001.42,730.24Z" transform="translate(-922.99 -713.44)"/><path class="cls-1" d="M1002.25,728.09c-.1.39.15,0,.2.09C1002.45,727.91,1002.45,727.85,1002.25,728.09Z" transform="translate(-922.99 -713.44)"/><path class="cls-1" d="M1013.23,716.42l.06.26C1013.55,716.53,1013.26,716.58,1013.23,716.42Z" transform="translate(-922.99 -713.44)"/><polygon class="cls-1" points="93.03 0.85 92.69 0.75 92.59 1 93.03 0.85"/><polygon class="cls-1" points="95.15 2.41 95.02 2.46 95.51 2.32 95.15 2.41"/><path class="cls-1" d="M1036.62,731l.31-.09C1036.87,730.74,1036.51,730.7,1036.62,731Z" transform="translate(-922.99 -713.44)"/><path class="cls-1" d="M1032.92,741.93a.53.53,0,0,0-.5.44C1032.61,742.19,1032.86,742.06,1032.92,741.93Z" transform="translate(-922.99 -713.44)"/><path class="cls-1" d="M1010.44,731.52c0,.08,0,.16,0,.25a3,3,0,0,1,0-.43Z" transform="translate(-922.99 -713.44)"/><path class="cls-1" d="M998.71,814.39c.09.07.28,0,.22-.22l-.34-.14Z" transform="translate(-922.99 -713.44)"/><path class="cls-1" d="M999.25,812.81c-.17-.26-.43-.6-.74-.44.31.29.18.36.55.65,0,.23-.11.4-.23.37.09.08,0,.36.17.47a1,1,0,0,0,0-1.07C999.1,812.71,999.19,812.79,999.25,812.81Z" transform="translate(-922.99 -713.44)"/><path class="cls-1" d="M1014.52,801.27l-.14,0A.29.29,0,0,0,1014.52,801.27Z" transform="translate(-922.99 -713.44)"/><path class="cls-1" d="M1027.28,804.63c-.09,0-.14,0-.16,0S1027.29,804.67,1027.28,804.63Z" transform="translate(-922.99 -713.44)"/><path class="cls-1" d="M1029,806.07l-.09-.09S1029,806.07,1029,806.07Z" transform="translate(-922.99 -713.44)"/><path class="cls-1" d="M1014.52,801.27l.34.12C1014.9,801.29,1014.69,801.3,1014.52,801.27Z" transform="translate(-922.99 -713.44)"/><path class="cls-1" d="M999,809.61a.53.53,0,0,0,0,.22l0-.2Z" transform="translate(-922.99 -713.44)"/><path class="cls-1" d="M1008.82,802l-.1,0a.88.88,0,0,0-.05.15Z" transform="translate(-922.99 -713.44)"/><path class="cls-1" d="M1005,803.86c.09,0,0-.29-.08-.41a.32.32,0,0,1-.07.28A.5.5,0,0,0,1005,803.86Z" transform="translate(-922.99 -713.44)"/><path class="cls-1" d="M1000.37,809v0Z" transform="translate(-922.99 -713.44)"/><path class="cls-1" d="M1011.91,801.6a.51.51,0,0,0,0,.1A.21.21,0,0,0,1011.91,801.6Z" transform="translate(-922.99 -713.44)"/><path class="cls-1" d="M1012.32,819.33l0,0S1012.34,819.29,1012.32,819.33Z" transform="translate(-922.99 -713.44)"/><path class="cls-1" d="M1017.47,816.84l-.07,0a.77.77,0,0,0,0,.15Z" transform="translate(-922.99 -713.44)"/><path class="cls-1" d="M1031.75,808.89h0C1031.65,808.83,1031.69,808.86,1031.75,808.89Z" transform="translate(-922.99 -713.44)"/><path class="cls-1" d="M1016.87,828.4c.35.35-.74.14-.2.57C1016.65,828.85,1017.34,828.68,1016.87,828.4Z" transform="translate(-922.99 -713.44)"/><path class="cls-1" d="M999,809.49c0-.06,0-.12.07-.19A1.2,1.2,0,0,0,999,809.49Z" transform="translate(-922.99 -713.44)"/><path class="cls-1" d="M1016.67,829h0l.06,0Z" transform="translate(-922.99 -713.44)"/><path class="cls-1" d="M1035.53,816.86a.29.29,0,0,0,.11-.11S1035.58,816.78,1035.53,816.86Z" transform="translate(-922.99 -713.44)"/><path class="cls-1" d="M1033.6,810.37l.05.16A.5.5,0,0,0,1033.6,810.37Z" transform="translate(-922.99 -713.44)"/><path class="cls-1" d="M1036,820.36a.35.35,0,0,0,0,.24l0,0A.2.2,0,0,1,1036,820.36Z" transform="translate(-922.99 -713.44)"/><path class="cls-1" d="M1034.93,823.83l.08,0,0-.11Z" transform="translate(-922.99 -713.44)"/><path class="cls-1" d="M1021.15,825.51a.63.63,0,0,1-.31-.09C1021,825.54,1020.47,826,1021.15,825.51Z" transform="translate(-922.99 -713.44)"/><path class="cls-1" d="M999.11,809.65a.18.18,0,0,1-.09-.16l0,.14S999.08,809.67,999.11,809.65Z" transform="translate(-922.99 -713.44)"/><path class="cls-1" d="M1038.13,820.81a5.43,5.43,0,0,1-.16.67A3,3,0,0,0,1038.13,820.81Z" transform="translate(-922.99 -713.44)"/><path class="cls-1" d="M1008.31,808.61l.12-.12A.23.23,0,0,0,1008.31,808.61Z" transform="translate(-922.99 -713.44)"/><path class="cls-1" d="M1037.49,823.49a1,1,0,0,0-.33.29.35.35,0,0,0,0,.11Z" transform="translate(-922.99 -713.44)"/><path class="cls-1" d="M1020.84,825.41h0Z" transform="translate(-922.99 -713.44)"/><path class="cls-1" d="M1016.23,827.18c.8.1.4-.32.57-.51.85-.11.4.26.72.44.58-.11.89-.58,1.27-.64,0,0,.12,0,.06.15.45-.41,1.54-.6,1.87-1.24a.25.25,0,0,1,.12,0,.89.89,0,0,1-.35-.38c.25-.14.29-.49.52-.35-.14.1-.09.19-.12.3l.18-.27c.42.12-.26.35-.12.56.22-.23.42-.5.61-.74a2.14,2.14,0,0,1,.54-.6c.31.17-.69.82,0,.62a5,5,0,0,1-.64.36c.78.09-.38.24.38.38a2.36,2.36,0,0,0,.77-.72,9.24,9.24,0,0,1,.68-.8c0-.29-.26-.12-.28-.41.3-.6.55-.74.86-.83s.57-.16.56-.74c-.12-.36-.43-.57,0-1.17l.3.35a.82.82,0,0,0,0-.78c-.08-.17-.09-.31.07-.77a.92.92,0,0,1,.08.43c0,.14,0,.25,0,.18.42-.58-.15-.49-.09-1l.34-.08a9.79,9.79,0,0,0-.64-3.06c.11,0,.27.19.3-.08a36.48,36.48,0,0,0-1.57-4l-.55-.21c-.07-.1,0-.26.1-.19-.24-.47-.16.09-.41,0s-.11-.41.08-.32a15.12,15.12,0,0,1-2.77-2.11.69.69,0,0,1,.2,0c-.57-.49-1,.07-1.45-.46h.14c-1.35-.85-3.09-1-4.27-1.5-.13.21-.53.12-.9.11s-.74,0-.76.31a3.83,3.83,0,0,0-2-.2c-.36.09-.4.51-.76.74l-.14-.28c-.14.18-.27.36-.39.55l-.46-.16-.32.29c.15-.08.37-.07.4,0a3.49,3.49,0,0,1-.89.53c-.29.14-.56.21-.62.16a7.89,7.89,0,0,0-.84,1.34c-.08-.1,0-.33.12-.54-.26.85-.4-.09-.57.73.11-.05.12.14.17.19a1.9,1.9,0,0,0-.55.64,5.63,5.63,0,0,0-.37,1l-.15-.19a11.29,11.29,0,0,0-.67,3.53c.14-.43.49-.29.5,0l-.33.12c.2.24.14-.35.37.12,0,.43-.38.29-.48,0l.1.55c-.1,0-.15-.1-.27-.13.17.22-.31,1,.06,1.28l-.1,0a13.18,13.18,0,0,0,.59,2.71c.28-.06.32.33.62.54a7.2,7.2,0,0,0,.64,2.3c.43.47.3,0,.58.2-.2.16.27.91-.12.61a7,7,0,0,0,1.86,1.92c0-.17-.1-.32,0-.32s.3.45.19.51l-.06,0a8.59,8.59,0,0,1,1.72,1.65,3.09,3.09,0,0,0,1.83,1.16h-.07c.4.09.8.2,1.2.26.49.25-.38.05-.07.35,1.35.1,1.9.77,3,.77.62,1,2.82.54,3.82,1.11l0-.18c.29-.15.32.14.52.19,0-.14-.28-.18-.1-.26,2.35,0,4.88.51,7.45.16.93-.16.3-1,1.52-.9l-.22.41c.85-.45,1.75-.79,2.61-1.24a6.84,6.84,0,0,0,2.3-1.74c0,.13,0,.2-.12.32.48-.07,1.1-1,.94-1.16.21-.21.18.07.37,0,.38-.22.4-1,.7-1,0,0,0,.14,0,.21.06-.28.71-1,.34-.94.46-.56.53-1.24.87-1.71-.13-.43.52-1.09.14-1.32.45.18.64-1.11.49-1.57.12.17.18-.35.35-.16,0-.5,0-1-.23-.9a1.56,1.56,0,0,0,.11-1.31c-.1-.41-.19-.75.14-1a28.94,28.94,0,0,0-1.28-3.91c.47-.09.42,1.36.87,1.2-.5-1.18-1.06-1.72-1.44-2.87-.06-.31.25.09.36.16a12.79,12.79,0,0,0-1.81-3s.14,0,.24.12c-.14-.17-.24-.45-.39-.31l.16.14c-.06.44-1-.35-1.14-.26.7-.08-.54-.91.39-.94-.12-.08-.31-.16-.39-.05-.1-.19-.09-.29.17-.23-.6-.5-.58-.14-1.05-.65.07-.07.2,0,.33,0a2.11,2.11,0,0,1-1.13-.68c.06,0,.06-.13.19,0-.78-.65-1.61-.7-2.4-1.45.51-.18-.22-.32-.07-.67l-.57-.21.11.27c-.44-.26-1-.26-1.29-.56l.41,0-.88-.38.41.37c-.54-.06-.16.44-.71,0,.14,0-.45-.21-.6-.52h0a1.26,1.26,0,0,1-.87-.2c0-.15.23-.36.2-.45-.34.18-1.14-.35-1.54-.13a.3.3,0,0,0,.17-.28l-.28.18c-.19-.15-.21-.2-.13-.33-.65-.27.07.51-.66.07.07,0,.05,0,.19,0-.77-.34-1.59-.29-2.3-.58-.13-.42.67.06.5-.31-1.1-.2-2.33-.05-3.36-.32l.19.08c-.24.5-.74-.4-1.32-.22.14,0,.22-.27.17-.22a8.46,8.46,0,0,0-2.62,0l.15-.12a9.2,9.2,0,0,0-1.61-.21c-.14.14-.41.11-.25.31a2.65,2.65,0,0,0-2.08-.07,3.69,3.69,0,0,1-2,.24c.15,0,.34-.2.22-.17-.36.12-.71.23-1.06.38.15.2.18.09.44.21a1.11,1.11,0,0,1-.62.42c.43-.27-.1-.37-.35-.41.06,0,0,.15,0,.21-.67-.2.05.46-.76.47v-.13a3.35,3.35,0,0,1-.72.51c-.23-.19.22-.25.16-.45-.41.2-.58.8-1,.77.13-.16.37-.29.5-.43-.53-.1-.54,0-.86.13h0c-.25.09-.5.18-.74.29l.21,0c-.09.88-.88.75-1.16,1.6.27-.8-.07-.28-.23-.54-.2.07-.48.2-.48.08-.1.42-.59.28-.68.91-.09-.06-.28.27-.4,0-.25.42.19,0,.26.14-.21.75-1.43,1.08-1.58,2.24a13.06,13.06,0,0,0-.22,2c-.25.19-.23-.34-.23-.34a1.64,1.64,0,0,0-.44,1.11c0-.11-.15,0-.29,0-.07.34.28.32,0,.71a1.34,1.34,0,0,1-.29-.43,10.83,10.83,0,0,0,.08,1.27c-.19.09-.21-.29-.29-.46,0,.48,0,1.25.22,1.41l.13-.28c0,.17-.24.06-.28-.07a.38.38,0,0,1,.28-.57v.3c.61-.2.12-1.15.33-1.73l.33.35q-.09-.33-.15-.66c.15-.09.39-.09.36.19.33-.31,0-.39.31-.63.05,0,.06,0,.06,0l0-.41c0,.11.29.06.14.25.48-.53.2-1.15.61-1.24v.06c.37-.91-.23-.23-.14-1.06.3,0,.6,0,.9,0l-.19-.26c.07-.07.2-.22.28-.12,0-.43-.15,0-.17-.32.5-.22.77-1.14,1.21-.87,0-.29-.46.21-.21-.28.47.26.36-.5.86-.62.08.29-.32.46.16.35-.11-.53.72-.47.94-.75-.19-.3.56-.59,1.05-1,0,.11,1.14-.35,1.72-.42v.07c0-.38.56-.52,1-.71.05.22,0,.32-.2.48l.39-.11c.06-.14.16-.23.41-.34l0,.29c.51-.13,1-.55,1.71-.45,0-.26-.66-.64.08-.9,0,.13.1.37-.09.44.06,0,.22-.14.35-.09l-.27.26c.33.07.15-.21.41-.22,0,.2.2.12.18.29-.06,0-.23-.06-.32,0a1.14,1.14,0,0,1,.77.23.22.22,0,0,1,.19-.3c.54,0,.2.23.51.32.13-.14.48,0,.48-.3.17,0,.19.14.25.22.29-.14,1.32,0,1-.33l-.08,0h.05c1-.25,1.93.31,2.86.32v.09a8.23,8.23,0,0,0,1.66,0c.16,0,.35.25.26.35a1.65,1.65,0,0,1,1.07.19c-.45.08.11.18-.45,0,.52.19.61.36,1.24.24-.25.2.33.39.6.39l-.33-.27a3.19,3.19,0,0,1,.78.21l-.22.28c1,.66,2.14-.11,2.71.83.36-.12-.51-.37-.17-.53.47.22.8.84.94.91.56.43.79-.2,1.4.22,0-.14,0-.47.57-.33s.33.73,0,.67c-.11,0-.14-.11-.12-.14-.17,0-.38-.08-.26.12l.11-.08c.17.23.79.53.55.63.38.08.24-.1,0-.28.48.46.88.49,1.37,1-.06-.11-.06-.29,0-.23.73.66.48,0,1.06.41.19.37-.37.26.25.54.24.35-.13.3-.31.27.6.21.75.82,1,1.09l-.28-.14a1.52,1.52,0,0,1,.39.29l0-.29c.11.15.22.26.15.33.24,0,.17-.39.59-.27.08.26.62.47.44.74-.45-.64-.18.27-.65-.16a.82.82,0,0,1,.3.33c0,.05-.06,0-.11,0,.27.72.48,0,1,.6-.2,0-.15.34-.06.42-.17-.24.16-.3.43-.15.16.48.39.38.52.61l-.11-.28c.2,0,.33.2.55.48-.11.09-.25-.23-.23-.09.46.18.17.91.58,1.29,0,.27-.29.17-.27.39.47.44,0,.68.45,1.17.15-.25.1-.27.47.07-.17-.31-.37-.6-.55-.89l.58.48c-.12-.3-.4-.56-.43-.75.3.22.23.21.36,0-.17.55.54.72.47,1.29l-.56.18c0,.77.69,1.16.74,2.15l0-.33c.25.08.15.59.3.88-.2,0-.25.21-.35.35.14,0,.07.69.47.74l-.24.45c0,.77.59.88.5,1.65-.2-.24-.35.09-.49-.42,0,.25-.05.47.08.48-.14.13.19.71,0,.92.08.11.27.18.2.45,0,0-.09,0-.09,0s0,.46.3.25a2.72,2.72,0,0,0-.63,1.36c-.16.5-.32,1-.71,1.18-.1.25-.22.53-.32.8l-.42.71c0-.07-.08-.06,0-.13-.54.43.19.68-.47,1.17-.51.07.14-.43-.11-.33-.28-.17-.41,0-.57.24s-.34.53-.66.53l.07-.1c-.22,0-.36.23-.52.46a2.27,2.27,0,0,1-.65.62.09.09,0,0,0,0-.08,2.19,2.19,0,0,1-.61.73,8,8,0,0,1-.89.58c.1-.3.22-.24,0-.43-.25.14.24.36-.28.63-.23-.07-.66-.05-.79-.31a5,5,0,0,0,.5-.18c-.37-.24-.65.22-.94.24v-.16c-.76.25-.7.64-1.59.76l.11.1c-.43.46-.43-.14-.88.2l-.19-.38a7.58,7.58,0,0,1-1.68.57,7.15,7.15,0,0,1,1.38-.7c-.31,0-1.06.1-1.22.3.12,0,.28-.15.41-.09a2.22,2.22,0,0,1-1.55.48c.13-.75-1.67-.24-2.09-.9-1.15.18-2.2-.36-3.46-.59.33.68-.37-.06-.43.55-.31,0-.42-.08-.44-.12q-.4-.29-.78-.6c-.16-.23.31,0,.32-.19-.61-.23-.19-.32-.54-.6,0,.24-.31.22-.63,0l.4.44c-1,0-.56-.74-1.5-.79l.34-.06c-.48-.06-1.49-.72-2.12-.56,0-.1,0-.3.16-.23-.87-.6-2.29-1-2.66-1.89l.17,0c-.16-.13-.44-.08-.5-.38.06,0,.17,0,.12-.11s-.54-.25-.62-.51l.26.08c-.43-.91-1.19-1.13-1.67-1.94.42-.17.23-1,.21-1.4h.06c-.27-1.16-.82-1.94-1-3.11.44-.71.3-2.42.94-3.37-.13.13-.32-.13-.3-.34s0-.78.35-.58l0,.08c.42,0,.57-.49.78-.81l-.4-.35a2,2,0,0,0,.78-.51,8.11,8.11,0,0,0,.65-.66c.44-.43,1-.77,1.34-.55.18-.22.48-.32.7-.51l0,.28c.7-.1,1-.12,1.93-.22l-.18.21c.49,0,.63-.79,1.13-.8l.1.44c.9.1,1.62.71,2.57.7a.2.2,0,0,1-.24.1c.18.1.52.33.81.48s.55.23.63-.06c-.18.32.76.53,1.25.73l-.23.17c.53,0,.63-.08,1.12.27.08.13-.07.25-.15.06.22.45.46.07.73.61l-.27-.05c.29.39.33.3.66.38s.47.82.3,1a.51.51,0,0,1,.55.39c-.06.08-.16,0-.21,0,.21.78.8,1,.74,1.58a.24.24,0,0,0-.14.14c-.18-.6-.38-1.07-.34-1-.23.12-.1.58-.56.36.16.14.4.33.61.55a1.41,1.41,0,0,1,.34.75l-.07.08,0,0a.59.59,0,0,0,.1.29,1.38,1.38,0,0,0,0,.4c-.19.09,0,.56,0,.81.28,0,.25.3.47,0,0,0,0,0,0-.22a.3.3,0,0,0,0-.1h0a5.16,5.16,0,0,0-.1-.62c.16.18.35.38.19.68a2.62,2.62,0,0,1,.47.34c-.34.39-.65,1-.89,1a5.34,5.34,0,0,1-.07,1.18,2.12,2.12,0,0,0,0,1.12c-.05.23-.26.15-.38.18,0-.14.11-.26.08-.35-.06.21-.21.49-.32.76s-.23.47-.12.63c-.48.33-.06-.45-.5.17a.77.77,0,0,0,0-.15,2,2,0,0,0-.8.62c-.22.21-.38.5-.6.75a1.85,1.85,0,0,1-1.9.81c.12,0,.18,0,.22.09a6.3,6.3,0,0,1-2.74-.19l-.61-.32a4.42,4.42,0,0,1-.5-.47,1.9,1.9,0,0,1-.37-.59c0-.11-.08-.19-.11-.27s0-.14,0-.26c0-.49-.21-.51-.4-.83l.3-.11a3.91,3.91,0,0,1-.31-.57,1.2,1.2,0,0,1,.45-1,1.67,1.67,0,0,0,.56-1.1h-.23c.19-.3.58-1,.72-.79,0-.05-.08-.24.1-.25l.12.1a4.44,4.44,0,0,1,.51-.74c.33-.11.37,0,.44.17s.18.22.54.1.79-.55.69-.65-.36-.08-.39-.24l.35-.09a2.94,2.94,0,0,0,.12-.69c0-.21-.21-.44-.86-.53a3.88,3.88,0,0,0-.73.49l-.33-.11a5.26,5.26,0,0,1,.66-.25c-.45-.09-.65.19-.83.43a.49.49,0,0,0-.42-.06,4.92,4.92,0,0,0-.38.81c-.19-.08,0-.51-.43-.25-.12.4.51.09.18.57-.4.09-.46-.09-.6.34-.13,0-.13-.15-.06-.31-.16.37-.58.84-.47,1.13-.43.18-.5,1.12-.89.92a3.2,3.2,0,0,1,0,1.06c-.18-.37-.26-.06-.36.32s-.13.82-.41.72a2.67,2.67,0,0,1,.34,1.18,3.57,3.57,0,0,0,.16.72l.15.47.31.32c-.07,0-.2-.09-.23-.18a1.66,1.66,0,0,1,.23.56c0,.14.06.27.11.43.31-.16.95.29,1.37.36.1.32,0,.36-.21.37s-.4-.06-.44.15c.15-.21,1.08.37,1,0,.29.43.28.32.37.7.27-.42.46.08.91-.1.59.37.08.5.84.45C1016.93,827.09,1016.23,827.18,1016.23,827.18ZM1024.3,816h0l.1.3Zm-.38-1.2.18.51c-.09.08-.19.06-.22-.06C1024,815.25,1023.91,815,1023.92,814.76Zm-1.31,2.78c-.06-.15,0-.21,0-.24a2.75,2.75,0,0,0,.07.27l0,0A.38.38,0,0,1,1022.61,817.54Z" transform="translate(-922.99 -713.44)"/><path class="cls-1" d="M1023,817.8s0,0,0,.07l.06-.1-.09-.06Z" transform="translate(-922.99 -713.44)"/><path class="cls-1" d="M1014.36,801.21h0a.1.1,0,0,1,0,0Z" transform="translate(-922.99 -713.44)"/><polygon class="cls-1" points="86.59 94.31 86.62 94.37 86.7 94.27 86.59 94.31"/><path class="cls-1" d="M1007.87,801a.19.19,0,0,0-.1-.05S1007.82,801,1007.87,801Z" transform="translate(-922.99 -713.44)"/><path class="cls-1" d="M1005.19,802.06l-.41.12A2.11,2.11,0,0,0,1005.19,802.06Z" transform="translate(-922.99 -713.44)"/><path class="cls-1" d="M1003.27,803.24a.55.55,0,0,0,0,.12h0Z" transform="translate(-922.99 -713.44)"/><path class="cls-1" d="M1035.1,809.22s0,0,.06.07S1035.22,809.33,1035.1,809.22Z" transform="translate(-922.99 -713.44)"/><path class="cls-1" d="M1026.66,803.15a2.06,2.06,0,0,1,.35,0C1026.85,803.07,1026.73,803,1026.66,803.15Z" transform="translate(-922.99 -713.44)"/><polygon class="cls-1" points="115.16 107.3 115.15 107.29 115.14 107.37 115.16 107.3"/><path class="cls-1" d="M1027.44,803.37a.81.81,0,0,0-.43-.2A1.2,1.2,0,0,0,1027.44,803.37Z" transform="translate(-922.99 -713.44)"/><path class="cls-1" d="M998.51,811.6l0,.11h0Z" transform="translate(-922.99 -713.44)"/><path class="cls-1" d="M998.53,811.72l0,.13C998.55,811.79,998.56,811.75,998.53,811.72Z" transform="translate(-922.99 -713.44)"/><path class="cls-1" d="M998.59,812.11l0-.26C998.54,811.94,998.52,812.05,998.59,812.11Z" transform="translate(-922.99 -713.44)"/><path class="cls-1" d="M999.37,808.71l-.08-.07S999.33,808.69,999.37,808.71Z" transform="translate(-922.99 -713.44)"/><path class="cls-1" d="M999.7,807.86c-.1.19-.42.41-.48.73l.07,0C999.19,808.44,999.78,808.12,999.7,807.86Z" transform="translate(-922.99 -713.44)"/><path class="cls-1" d="M1002.72,805.52l-.51.48c.16,0,.37-.06.2.2C1003.21,805.74,1002.1,806.19,1002.72,805.52Z" transform="translate(-922.99 -713.44)"/><path class="cls-1" d="M1004.35,804.15c-.26.27.1.12.13.18C1004.59,804.12,1004.62,804.06,1004.35,804.15Z" transform="translate(-922.99 -713.44)"/><path class="cls-1" d="M1019.24,802.05l-.09.25C1019.45,802.31,1019.18,802.2,1019.24,802.05Z" transform="translate(-922.99 -713.44)"/><polygon class="cls-1" points="99.55 88 99.3 87.77 99.11 87.96 99.55 88"/><polygon class="cls-1" points="100.75 90.26 100.62 90.26 101.1 90.32 100.75 90.26"/><path class="cls-1" d="M1035,823.15l.32.05C1035.3,823,1035,822.84,1035,823.15Z" transform="translate(-922.99 -713.44)"/><path class="cls-1" d="M1026.79,829.36a.49.49,0,0,0-.64,0C1026.4,829.34,1026.66,829.42,1026.79,829.36Z" transform="translate(-922.99 -713.44)"/><polygon class="cls-1" points="85.63 98.13 85.59 98.34 85.75 98.01 85.63 98.13"/><path class="cls-1" d="M986.8,794.07c.07-.11,0-.28-.28-.19l-.11.36Z" transform="translate(-922.99 -713.44)"/><path class="cls-1" d="M984.93,793.84c-.27.21-.59.53-.34.8.26-.35.36-.22.61-.67.25-.09.47,0,.45.14.08-.1.42,0,.52-.25a1.15,1.15,0,0,0-1.22.21C984.84,794,984.92,793.91,984.93,793.84Z" transform="translate(-922.99 -713.44)"/><path class="cls-1" d="M963.12,784.28l0,.15Z" transform="translate(-922.99 -713.44)"/><path class="cls-1" d="M961.47,769.54c0,.12,0,.17,0,.18S961.5,769.53,961.47,769.54Z" transform="translate(-922.99 -713.44)"/><path class="cls-1" d="M962.71,767.26l-.08.13S962.72,767.3,962.71,767.26Z" transform="translate(-922.99 -713.44)"/><path class="cls-1" d="M963.12,784.28l-.13-.41C962.88,783.91,963,784.09,963.12,784.28Z" transform="translate(-922.99 -713.44)"/><path class="cls-1" d="M981.44,795a.64.64,0,0,0,.24-.1l-.22,0Z" transform="translate(-922.99 -713.44)"/><path class="cls-1" d="M967.87,789l.1.08.16-.05Z" transform="translate(-922.99 -713.44)"/><path class="cls-1" d="M972.34,791.52c-.1-.06-.25.18-.34.28a.38.38,0,0,1,.31-.08A.53.53,0,0,0,972.34,791.52Z" transform="translate(-922.99 -713.44)"/><path class="cls-1" d="M980.25,793.79l.15,0Z" transform="translate(-922.99 -713.44)"/><path class="cls-1" d="M965.2,786.48a.24.24,0,0,0,0-.1A.19.19,0,0,0,965.2,786.48Z" transform="translate(-922.99 -713.44)"/><path class="cls-1" d="M975.55,774.55h.05S975.57,774.5,975.55,774.55Z" transform="translate(-922.99 -713.44)"/><path class="cls-1" d="M981.6,772h-.09a1.42,1.42,0,0,0,0,.16Z" transform="translate(-922.99 -713.44)"/><path class="cls-1" d="M965.47,763.6h0C965.4,763.72,965.44,763.67,965.47,763.6Z" transform="translate(-922.99 -713.44)"/><path class="cls-1" d="M994,775.32c.41-.35,0,.83.54.28C994.44,775.61,994.37,774.84,994,775.32Z" transform="translate(-922.99 -713.44)"/><path class="cls-1" d="M981.3,794.93h-.23A.62.62,0,0,0,981.3,794.93Z" transform="translate(-922.99 -713.44)"/><path class="cls-1" d="M994.56,775.6h0l.05-.06Z" transform="translate(-922.99 -713.44)"/><path class="cls-1" d="M974.38,758.53a.45.45,0,0,0-.13-.1S974.29,758.49,974.38,758.53Z" transform="translate(-922.99 -713.44)"/><path class="cls-1" d="M967,761.32l.18-.09A.74.74,0,0,0,967,761.32Z" transform="translate(-922.99 -713.44)"/><path class="cls-1" d="M978.53,757.79a.48.48,0,0,0,.3,0l-.05,0A.24.24,0,0,1,978.53,757.79Z" transform="translate(-922.99 -713.44)"/><path class="cls-1" d="M982.9,758.28l-.06-.07-.14,0Z" transform="translate(-922.99 -713.44)"/><path class="cls-1" d="M987.91,774.21a.79.79,0,0,1-.34.08C987.78,774.32,987.45,775,987.91,774.21Z" transform="translate(-922.99 -713.44)"/><path class="cls-1" d="M981.44,794.8a.17.17,0,0,1-.14.13l.16,0A.11.11,0,0,0,981.44,794.8Z" transform="translate(-922.99 -713.44)"/><path class="cls-1" d="M978.75,755.58l.77.07A5.63,5.63,0,0,0,978.75,755.58Z" transform="translate(-922.99 -713.44)"/><path class="cls-1" d="M970,775.91l-.08-.17A.3.3,0,0,0,970,775.91Z" transform="translate(-922.99 -713.44)"/><path class="cls-1" d="M981.8,755.83a1.21,1.21,0,0,0,.39.26s.08,0,.1-.06Z" transform="translate(-922.99 -713.44)"/><path class="cls-1" d="M987.56,774.29h0Z" transform="translate(-922.99 -713.44)"/><path class="cls-1" d="M984.06,778.47c.72-.4.15-.51.19-.77.73-.57.52,0,.9,0,.41-.47.57-1,.88-1.27.06,0,.14,0,.12.1.24-.61,1.26-1.36,1.29-2.2a.21.21,0,0,1,.12,0,.73.73,0,0,1-.48-.17c.15-.29.11-.62.36-.63-.08.18,0,.23,0,.35a2.17,2.17,0,0,0,.07-.35c.22-.08.2,0,.15.21s-.16.32,0,.38a4.87,4.87,0,0,0,.26-1.08,6.16,6.16,0,0,1,.21-.93c.18,0,.13.3.1.55s-.11.39.17.1c-.14.25-.29.5-.44.74.75-.39-.24.48.52.14a2.58,2.58,0,0,0,.38-1.2c0-.34.11-.65.18-1.26-.17-.28-.29.07-.46-.2a3.24,3.24,0,0,1,0-.52,1.25,1.25,0,0,1,.21-.9.82.82,0,0,0-.09-1.1c-.31-.25-.72-.2-.87-1l.47.1c-.45-1-.77-.29-1.16-1.39.24.08.58.65.53.48-.18-.79-.45-.34-.82-.75l.18-.31a8.9,8.9,0,0,0-3.11-1.94c.11-.06.35-.05.14-.28a22,22,0,0,0-4.76-1.39,4.56,4.56,0,0,0-.58.3c-.14,0-.27-.11-.12-.18-.62-.07,0,.19-.3.32s-.47-.13-.26-.23c-.52.19-1.24.43-1.93.76-.36.13-.69.3-1,.45l-.91.37.14-.2a1.33,1.33,0,0,0-.65.7,1,1,0,0,1-.57.65l.08-.14a7.94,7.94,0,0,0-1.81,2.15c-.45.8-.82,1.56-1.23,2.18.17.19,0,.61-.13,1s-.18.84.11.94a5,5,0,0,0-.68,2.19c0,.41.42.57.53,1l-.3.06a5,5,0,0,0,.42.6l-.29.42.18.43c0-.18.05-.41.14-.4a3,3,0,0,1,.16,1.8l.45.75c.17.24.35.46.52.69-.12,0-.3-.2-.48-.37.72.66-.21.31.46.91,0-.13.19,0,.26-.06a2.66,2.66,0,0,0,.4.86,6.66,6.66,0,0,0,.79.87l-.25,0a11.38,11.38,0,0,0,3.35,2.45c-.41-.32-.12-.58.25-.43v.36c.32-.06-.32-.3.27-.27.44.26.15.49-.17.45a6.48,6.48,0,0,0,.63.17c0,.1-.17.09-.26.19.33-.09.92.76,1.42.52v.1a12.57,12.57,0,0,0,3.18.55c.05-.28.49-.18.83-.39a8.71,8.71,0,0,0,2.75.18c.68-.25.17-.27.45-.48.1.26,1.07,0,.6.32a10.16,10.16,0,0,0,1.35-.41,9.75,9.75,0,0,0,1.49-.73c-.2,0-.38,0-.33-.13.24-.13.62-.13.63,0l-.06.06a12.61,12.61,0,0,1,2.5-1.21,3.91,3.91,0,0,0,2-1.57l0,.07a11.21,11.21,0,0,0,.76-1.22c.46-.47-.1.42.33.15.63-1.45,1.49-2,1.76-3.28a2,2,0,0,0,.65-.83,6.67,6.67,0,0,0,.33-1.3,18,18,0,0,1,.36-2.58l-.18.08c-.17-.35.1-.43.13-.69-.14,0-.14.39-.25.17a19.15,19.15,0,0,0-2.64-8.52.91.91,0,0,0-.86-.46c-.27,0-.49-.11-.81-.74l.51.05c-.9-.69-1.74-1.39-2.63-2.05a9.27,9.27,0,0,0-2.86-1.51c.14,0,.19-.1.38,0-.3-.43-1.51-.68-1.58-.5-.3-.14,0-.19-.16-.35-.38-.29-1.15-.09-1.31-.37,0,0,.14,0,.23,0-.31,0-1.29-.4-1.1,0-.72-.33-1.47-.22-2.06-.48-.44.23-1.3-.33-1.47.09.1-.45-1.34-.48-1.83-.26.17-.13-.42-.16-.22-.34-.57,0-1.09.1-1,.33-1.06-.52-2,.56-2.67-.06a31.26,31.26,0,0,0-4.45,1.61c-.1-.46,1.56-.57,1.37-1-1.35.59-2,1.24-3.27,1.76-.36.11.1-.27.18-.39-.61.39-1.2.78-1.79,1.11a7.21,7.21,0,0,0-1.51,1.28s.05-.16.14-.26c-.2.15-.51.32-.34.46a1.53,1.53,0,0,1,.14-.21c.48,0-.31,1.14-.22,1.28-.1-.71-1,.74-1-.23-.09.14-.16.35,0,.42-.18.16-.29.17-.25-.13-.49.77-.12.66-.64,1.28-.08-.07,0-.22,0-.35a3.21,3.21,0,0,1-.64,1.39c0-.07-.14,0,0-.22-.66,1-.61,1.94-1.32,3-.24-.52-.29.34-.66.25l-.17.68.28-.18c-.27.54-.14,1.14-.41,1.59l0-.47L960,769.6l.33-.57c0,.63.47.08.14.79,0-.16-.13.56-.41.82h0a1.77,1.77,0,0,1-.06,1c-.14.09-.4-.16-.49-.1.27.34-.1,1.4.2,1.79a.27.27,0,0,0-.31-.11l.24.26c-.09.27-.13.31-.29.25-.07.83.49-.24.25.73,0-.08-.06,0-.09-.2a23,23,0,0,0,.12,2.79c-.36.3-.16-.78-.45-.45a12.64,12.64,0,0,0,.5,2,12.76,12.76,0,0,1,.58,1.89l0-.24c.52,0,.05,1,.49,1.49-.09-.13-.34-.09-.27-.07a3.69,3.69,0,0,0,.21.64c.11.2.24.41.38.62a11.93,11.93,0,0,0,1,1.4l-.2-.07a8.85,8.85,0,0,0,.93,1.66c.21.05.38.31.42,0a3.33,3.33,0,0,0,1.45,2,4.68,4.68,0,0,1,1.64,1.61c-.15-.1-.4-.19-.3-.09.36.25.73.46,1.1.69,0-.24,0-.21-.16-.52a1.45,1.45,0,0,1,.81.31c-.54-.22-.22.3-.09.56,0-.08.12-.1.14-.17.33.7.35-.32.95.39l-.1.08a4.76,4.76,0,0,1,1,.36c0,.31-.38-.06-.5.11.45.26,1.13,0,1.4.49-.22,0-.5-.18-.72-.21.29.51.38.47.7.69l0,0c.23.18.48.34.73.5l-.17-.17c.88-.39,1.24.45,2.22.28-.93.13-.21.19-.38.46.19.15.48.35.36.4.47-.11.59.44,1.26.23,0,.1.43.12.27.34.55.06-.08-.2,0-.31a3.21,3.21,0,0,1,1.39.37,3.06,3.06,0,0,0,1.69.23c1-.09,1.25-.35,2.19-.49.3.17-.28.35-.28.35a2.46,2.46,0,0,0,1.37,0c-.09.09,0,.16.16.28.39,0,.25-.37.76-.25a1.26,1.26,0,0,1-.37.41c.46-.11.9-.31,1.37-.42.14.16-.27.27-.43.39.54-.08,1.38-.3,1.5-.58l-.34,0c.18,0,.12.22,0,.28-.43.28-.66,0-.69-.11a3,3,0,0,0,.32-.09c-.38-.52-1.32.16-2,.17l.27-.43a4.86,4.86,0,0,1-.68.35c-.15-.11-.24-.35.08-.4-.47-.22-.42.14-.82-.1-.05,0,0-.06,0-.08l-.47.11c.09-.08-.06-.29.22-.22-.8-.27-1.36.18-1.63-.15l.07,0c-1.16,0-.15.31-1.06.52l-.45-.84-.17.28c-.11,0-.34-.1-.27-.21-.48.12,0,.14-.25.29-.49-.4-1.57-.28-1.56-.77-.27.17.48.31-.16.31,0-.54-.7-.14-1.12-.54.24-.2.65.1.25-.3-.46.33-.92-.42-1.34-.53-.15.31-.95-.2-1.64-.46.1-.09-1.13-.81-1.61-1.32l.05,0c-.3.24-.87-.18-1.31-.45.14-.16.27-.17.54-.09l-.37-.28a.94.94,0,0,1-.59-.17l.26-.15a4.91,4.91,0,0,1-1.66-1.25c-.22.15,0,1-.78.49.07-.12.22-.31.42-.2-.06,0-.28-.1-.33-.26a2.47,2.47,0,0,0,.41.09c-.2-.33-.28,0-.47-.24.14-.13-.05-.26.09-.34s.12.25.25.28a1.66,1.66,0,0,1-.37-.85c-.06.1-.19.18-.38,0-.43-.46,0-.31-.12-.66-.2,0-.33-.44-.57-.27-.11-.15,0-.26,0-.36-.33-.16-.89-1.23-1-.75l0,.09,0,0h0c-.85-.77-1-2-1.49-3l.09,0c-.3-.57-.57-1.3-.85-1.7,0-.19.06-.49.2-.44-.17-.45-.35-.48-.29-1.2.25.45.11-.19.21.46,0-.63.12-.79-.25-1.42.29.19.23-.5.17-.79a4,4,0,0,0-.15.45,3.63,3.63,0,0,1,0-.92l.34.14a4,4,0,0,0-.13-1.73,1.49,1.49,0,0,1,.2-1.5c-.18-.37-.25.66-.48.34.12-.59.67-1.13.69-1.3.33-.75-.32-.83,0-1.63-.13.08-.48.1-.42-.55.23-.57.7-.56.68-.18,0,.14-.09.19-.13.17,0,.2,0,.45.16.26l-.1-.1c.21-.25.44-1,.57-.77,0-.46-.13-.25-.29,0,.37-.67.41-1.1.81-1.77-.11.09-.28.13-.23,0,.57-1,0-.55.31-1.27.37-.3.3.34.54-.41.33-.36.32.07.32.28.11-.74.82-1,1-1.3l-.12.35a2.12,2.12,0,0,1,.27-.5l-.3,0c.15-.16.25-.31.33-.24,0-.26-.43-.11-.31-.58.28-.14.47-.76.77-.63-.66.62.3.13-.14.74a1.21,1.21,0,0,1,.34-.4s0,.06,0,.12c.75-.46,0-.54.61-1.16,0,.2.39.1.46,0-.25.24-.33-.09-.18-.42.5-.31.4-.49.65-.67l-.32.16c0-.2.23-.36.52-.66.11.09-.24.3-.08.26.17-.53,1-.36,1.41-.83.31,0,.19.27.45.22.47-.55.73-.16,1.3-.63-.29-.13-.3-.06.07-.49-.34.22-.68.43-1,.67.16-.22.35-.44.53-.65-.33.15-.63.47-.83.55.23-.36.23-.29,0-.37.6.07.82-.65,1.46-.65l.21.55c.88-.07,1.33-.83,2.48-1h-.38c.09-.27.68-.2,1-.37,0,.2.25.23.42.32,0-.14.82-.13.87-.52l.53.19c.92,0,1-.67,1.92-.64-.27.23.14.35-.44.53.29,0,.56,0,.56-.12.17.13.82-.29,1.09-.08.13-.08.18-.29.51-.26,0,0,0,.1,0,.1s.53-.11.25-.34c.88.64,2.61.21,3.3.92a12,12,0,0,1,2,.37c-.05,0,0,.1-.13,0,.71.43.66-.38,1.47.14.32.48-.52,0-.29.2-.12.65,1.07.34,1.46,1l-.15,0c.31.39,1.12.3,1.75.76,0,0-.06,0,0,.08a4.57,4.57,0,0,1,2.13,1c-.34,0-.34-.12-.41.17.27.19.2-.38.75,0,.08.24.32.69.17.92-.15-.14-.29-.3-.45-.43,0,.47.57.55.74.84l-.14.07c.63.68,1,.45,1.52,1.32l0-.16c.63.29.08.51.6.86l-.26.34a6.79,6.79,0,0,1,1.22,1.62,16.18,16.18,0,0,1-1.21-1.26,4,4,0,0,0,.78,1.21c-.09-.13-.24-.26-.25-.42a2.45,2.45,0,0,1,1,1.54c-.37,0-.3.51-.22,1s.15,1.18-.14,1.45c.36,1.24-.14,2.45-.49,3.78.71-.31-.11.4.48.51-.08.34-.14.46-.19.48a9.45,9.45,0,0,1-.77.78c-.27.12,0-.35-.11-.38-.37.61-.37.14-.74.46.24,0,.15.37-.16.66a6.32,6.32,0,0,0,.56-.33c-.3,1.05-.89.44-1.29,1.4l.06-.36c-.23.49-1.3,1.35-1.43,2-.12,0-.32-.06-.16-.24-1,.73-2.13,2-3.2,2.07l0-.18c-.2.12-.28.43-.62.37,0-.07,0-.17-.06-.15s-.53.46-.87.43L986,782c-1.23.1-1.79.77-2.88.95,0-.45-1-.55-1.46-.69l0-.06a31.26,31.26,0,0,1-3.79-.3,7.69,7.69,0,0,0-1.54-1.12,5.61,5.61,0,0,1-1.62-1.46c.09.19-.26.23-.47.09s-.79-.45-.44-.66l.06.08c.14-.4-.26-.84-.51-1.25l-.5.2a6,6,0,0,0-.68-2.19c-.31-.72-.51-1.43-.2-1.82a6.76,6.76,0,0,1-.33-1H972c0-.85.14-1.26.25-2.3l.17.25c.13-.55-.63-.92-.47-1.48h.46c.37-1,1.18-1.67,1.57-2.63a.24.24,0,0,1,0,.29c.28-.41,1.48-1,1-1.33.12.15.33,0,.56-.21s.55-.48.79-.66l0,.28c.31-.46.29-.6.94-.85.17,0,.18.19,0,.16.55.06.36-.37,1-.29l-.22.2c.55,0,.49-.11.8-.34s1.08.1,1.13.36a.67.67,0,0,1,.75-.18c0,.1-.11.14-.17.16.86.34,1.45,0,2,.5a.19.19,0,0,0,0,.19c-.67-.29-1.24-.43-1.18-.44-.06.25.47.44-.06.67a3.58,3.58,0,0,1,.92-.08,1.35,1.35,0,0,1,.91.27s0,.07,0,.11h-.06a.72.72,0,0,0,.33.13,3.33,3.33,0,0,0,.34.32c0,.2.47.44.65.65.17-.23.43,0,.31-.36,0,0-.06,0-.21-.12a.23.23,0,0,0-.12-.06h0c-.14-.12-.37-.24-.6-.4.26,0,.57,0,.71.38a4.37,4.37,0,0,1,.61-.07c.09.55.38,1.29.26,1.5.66.57,1,1.62,1.64,2.06.13.24-.11.32-.17.42-.07-.13-.07-.3-.18-.36a4.76,4.76,0,0,1,.24.89c0,.31.08.59.26.67-.22.62-.28-.38-.34.48l-.08-.14a4.2,4.2,0,0,0-.43,1.07,4.34,4.34,0,0,0-.09.54l-.14.54a2.49,2.49,0,0,1-1.56,1.9c.14,0,.19-.09.26-.06a14.89,14.89,0,0,1-3,1.68,3.85,3.85,0,0,1-3.24-.07c-.49-.32-.69-.08-1-.1a1.33,1.33,0,0,1,.1-.28h-.32c-.1,0-.27,0-.31-.07A.64.64,0,0,1,977,776a2,2,0,0,1,.27-.53,2.71,2.71,0,0,0,.58-1.23h-.25c.22-.34.75-1.09.87-.85,0,0,0-.26.16-.27l.11.11a3.82,3.82,0,0,1,.72-.73c.39-.1.41.08.47.21s.14.22.6.18c.29-.12,1.05-.38,1-.5s-.41-.17-.41-.33l.42,0a2.16,2.16,0,0,0,.26-.64c0-.21-.15-.5-.86-.69a4.39,4.39,0,0,0-.92.35,3.49,3.49,0,0,0-.34-.15,5,5,0,0,1,.79-.15,1,1,0,0,0-1,.31.52.52,0,0,0-.45-.1,4.41,4.41,0,0,0-.61.79c-.2-.09.16-.52-.42-.28-.22.41.54.12.08.61-.47.07-.48-.11-.73.35-.14,0-.12-.16,0-.34-.26.39-.78.94-.7,1.27-.5.23-.62,1.36-1,1.19a3.76,3.76,0,0,1,.07.57c0,.26,0,.52.06.8-.53-1-.09,2.17-.13,1.94a3.31,3.31,0,0,1,.88.28,5.44,5.44,0,0,0,.88.4l.81.26a3.19,3.19,0,0,0,.81,0c-.06,0-.18.09-.26,0,.53.13.68.31,1,.39.09-.4.92-.46,1.29-.8.69.28-.31.51-.08.84-.06-.3,1.09-.49.8-.72.53.09.43,0,.77.23-.07-.49.42-.21.67-.67.73-.07.38.37,1-.14C984.59,778,984.07,778.48,984.06,778.47Zm-.25-14.8h0l.33.15Zm-1.35-.57a6,6,0,0,0,.59.24c0,.11-.08.18-.21.12C982.94,763.43,982.64,763.26,982.46,763.1Zm1.59,3c-.17-.07-.19-.15-.18-.21l.29.15,0,0A.31.31,0,0,1,984.05,766.09Z" transform="translate(-922.99 -713.44)"/><path class="cls-1" d="M984.55,766l.07,0,0-.12-.11,0Z" transform="translate(-922.99 -713.44)"/><path class="cls-1" d="M963.18,784.46v0a.22.22,0,0,1,0,.08Z" transform="translate(-922.99 -713.44)"/><polygon class="cls-1" points="46.54 60.86 46.61 60.85 46.53 60.73 46.54 60.86"/><path class="cls-1" d="M967.69,790.47a.13.13,0,0,0,0,.12S967.71,790.52,967.69,790.47Z" transform="translate(-922.99 -713.44)"/><path class="cls-1" d="M970.51,792.21c.12.1.24.21.37.3Z" transform="translate(-922.99 -713.44)"/><path class="cls-1" d="M972.8,793.35a.57.57,0,0,0,.08-.09h0Z" transform="translate(-922.99 -713.44)"/><path class="cls-1" d="M965.69,760l.07-.08C965.92,759.71,965.8,759.82,965.69,760Z" transform="translate(-922.99 -713.44)"/><path class="cls-1" d="M960.09,770.63a1.83,1.83,0,0,1-.05-.4C960,770.43,959.93,770.59,960.09,770.63Z" transform="translate(-922.99 -713.44)"/><polygon class="cls-1" points="55.68 42.14 55.68 42.14 55.76 42.15 55.68 42.14"/><path class="cls-1" d="M960.17,769.68a1,1,0,0,0-.13.55A1.77,1.77,0,0,0,960.17,769.68Z" transform="translate(-922.99 -713.44)"/><path class="cls-1" d="M983.74,794.83h.12a.07.07,0,0,1,0-.05Z" transform="translate(-922.99 -713.44)"/><path class="cls-1" d="M983.87,794.78l.13,0C983.94,794.74,983.89,794.75,983.87,794.78Z" transform="translate(-922.99 -713.44)"/><path class="cls-1" d="M984.28,794.62l-.28.11C984.1,794.72,984.23,794.71,984.28,794.62Z" transform="translate(-922.99 -713.44)"/><path class="cls-1" d="M980.33,794.83l0,.1A.13.13,0,0,0,980.33,794.83Z" transform="translate(-922.99 -713.44)"/><path class="cls-1" d="M979.3,794.81a2.47,2.47,0,0,0,1,.2l0-.08C980.12,795.07,979.54,794.68,979.3,794.81Z" transform="translate(-922.99 -713.44)"/><path class="cls-1" d="M975.38,792.87l.77.29c-.11-.15-.26-.33.1-.27C975.34,792.32,976.41,793.18,975.38,792.87Z" transform="translate(-922.99 -713.44)"/><path class="cls-1" d="M973,792c.43.09,0-.15.1-.2C972.82,791.76,972.74,791.75,973,792Z" transform="translate(-922.99 -713.44)"/><path class="cls-1" d="M961.16,779.18h.26C961.31,778.86,961.32,779.19,961.16,779.18Z" transform="translate(-922.99 -713.44)"/><polygon class="cls-1" points="36.38 62.38 36.24 62.74 36.48 62.89 36.38 62.38"/><path class="cls-1" d="M961.21,773.75l0,.14a4.87,4.87,0,0,1-.06-.55A2.83,2.83,0,0,0,961.21,773.75Z" transform="translate(-922.99 -713.44)"/><path class="cls-1" d="M982.09,758.37l0-.32C981.81,758.07,981.71,758.41,982.09,758.37Z" transform="translate(-922.99 -713.44)"/><path class="cls-1" d="M993,764.6a.6.6,0,0,0,.3.67C993.14,765,993.09,764.7,993,764.6Z" transform="translate(-922.99 -713.44)"/><path class="cls-1" d="M973,777l.21.16c-.09-.12-.2-.23-.29-.36A1.19,1.19,0,0,0,973,777Z" transform="translate(-922.99 -713.44)"/></svg>