<svg id="Layer_1" data-name="Layer 1" xmlns="http://www.w3.org/2000/svg" viewBox="0 0 117.96 141.89"><defs><style>.cls-1{fill:#202020;}.cls-2{fill:none;stroke:#000;stroke-miterlimit:10;}</style></defs><title>6</title><path class="cls-1" d="M934.74,703.83a.14.14,0,0,0-.21-.18l0,.36Z" transform="translate(-921.91 -703.56)"/><path class="cls-1" d="M933.35,703.66a.61.61,0,0,0,0,.81c.08-.37.18-.26.27-.69a.23.23,0,0,1,.36.12c0-.11.3,0,.33-.26a.64.64,0,0,0-.86.24C933.32,703.83,933.36,703.73,933.35,703.66Z" transform="translate(-921.91 -703.56)"/><path class="cls-1" d="M922.88,718.5l0-.13A.5.5,0,0,0,922.88,718.5Z" transform="translate(-921.91 -703.56)"/><path class="cls-1" d="M927.28,729.5c-.07-.06-.12-.06-.14,0S927.28,729.53,927.28,729.5Z" transform="translate(-921.91 -703.56)"/><path class="cls-1" d="M928.69,731.12l-.08-.09C928.63,731.08,928.66,731.12,928.69,731.12Z" transform="translate(-921.91 -703.56)"/><path class="cls-1" d="M922.88,718.5a3,3,0,0,0-.12.32C922.86,718.84,922.84,718.65,922.88,718.5Z" transform="translate(-921.91 -703.56)"/><path class="cls-1" d="M931.44,705.5a.37.37,0,0,0,.09-.16l-.11.11Z" transform="translate(-921.91 -703.56)"/><path class="cls-1" d="M923.57,713.19l0-.09-.1-.12Z" transform="translate(-921.91 -703.56)"/><path class="cls-1" d="M925.32,709.44c-.06.07.16.25.25.34a.27.27,0,0,1-.06-.27A.47.47,0,0,0,925.32,709.44Z" transform="translate(-921.91 -703.56)"/><path class="cls-1" d="M930.08,705l.07-.09Z" transform="translate(-921.91 -703.56)"/><path class="cls-1" d="M922.79,716.06a.2.2,0,0,0-.11,0Z" transform="translate(-921.91 -703.56)"/><path class="cls-1" d="M942.37,715.76v0S942.35,715.76,942.37,715.76Z" transform="translate(-921.91 -703.56)"/><path class="cls-1" d="M938.35,716l0-.06-.12-.11Z" transform="translate(-921.91 -703.56)"/><path class="cls-1" d="M932,733.32h0C931.85,733.3,931.91,733.31,932,733.32Z" transform="translate(-921.91 -703.56)"/><path class="cls-1" d="M954.09,714.56c-.09.47-.53-.51-.58.16C953.59,714.62,954.11,715.1,954.09,714.56Z" transform="translate(-921.91 -703.56)"/><path class="cls-1" d="M931.34,705.52l-.13.09A.29.29,0,0,0,931.34,705.52Z" transform="translate(-921.91 -703.56)"/><path class="cls-1" d="M953.51,714.72h0v0Z" transform="translate(-921.91 -703.56)"/><path class="cls-1" d="M940.92,734.45a.63.63,0,0,0-.11-.12A.22.22,0,0,0,940.92,734.45Z" transform="translate(-921.91 -703.56)"/><path class="cls-1" d="M934.33,733.5l.15.07A.34.34,0,0,0,934.33,733.5Z" transform="translate(-921.91 -703.56)"/><path class="cls-1" d="M944.24,733.35c.09,0,.14,0,.24-.06l-.05,0C944.4,733.33,944.35,733.36,944.24,733.35Z" transform="translate(-921.91 -703.56)"/><path class="cls-1" d="M947.5,731.84l-.09,0-.09.07Z" transform="translate(-921.91 -703.56)"/><path class="cls-1" d="M945,721.71a1.29,1.29,0,0,1,.28,0C945,721.66,945.17,721.27,945,721.71Z" transform="translate(-921.91 -703.56)"/><path class="cls-1" d="M931.36,705.37a.15.15,0,0,1,0,.15l.08-.07A.1.1,0,0,0,931.36,705.37Z" transform="translate(-921.91 -703.56)"/><path class="cls-1" d="M943.68,731.2l.46-.14A3.85,3.85,0,0,0,943.68,731.2Z" transform="translate(-921.91 -703.56)"/><path class="cls-1" d="M935.62,712.34l0,.12A.13.13,0,0,0,935.62,712.34Z" transform="translate(-921.91 -703.56)"/><path class="cls-1" d="M945.45,730.44a.79.79,0,0,0,.33,0,.29.29,0,0,0,0-.09Z" transform="translate(-921.91 -703.56)"/><path class="cls-1" d="M945.23,721.73h0Z" transform="translate(-921.91 -703.56)"/><path class="cls-1" d="M945.24,718.89c0,.36.37.16.59.24.1.5-.27.22-.47.36.07.29.37.58.29.82-.06,0-.09,0-.15,0,.2.4-.27.93-.16,1.44h-.11a1.24,1.24,0,0,1,.48.19c-.09.19,0,.46-.26.4.08-.1,0-.17,0-.26l0,.25c-.4,0,.06-.32-.16-.45-.11.39-.19,1-.5,1.15-.28-.17.4-.64-.1-.51.13-.1.27-.19.39-.3-.63,0,.19-.21-.46-.27-.42.38-.26.63-.77.94,0,.23.22.18.23.42a.51.51,0,0,1-.75.22c-.22-.12-.36-.22-.56.09s0,.71-.51.63l0-.42c-.56.1-.21.65-.89.48.1-.16.46-.19.36-.23-.44-.23-.25.26-.58.3l-.09-.34a6.3,6.3,0,0,1-2.11.12c.07-.09.21-.16.08-.31a3.53,3.53,0,0,1-2.33-1.47h-.43a.11.11,0,0,1,.08-.18c-.16-.3-.14.13-.34.1s0-.3.1-.28a3.21,3.21,0,0,1-1-.7,1.65,1.65,0,0,1-.47-1.11l.12.08c0-.5-.81-.31-.65-.88l.07.08c-.21-1.08-.51-2.39,0-3.2-.43-.23.37-1-.19-1.25.47-.56.5-.36,1-1.12.12-.2-.2-.47-.13-.78l.28.13c0-.17-.06-.33-.09-.5h.43l.06-.28c-.07.08-.23.13-.3.07a1,1,0,0,1,.9-.68,8.82,8.82,0,0,1,.45-.93c.08.1,0,.26,0,.41.13-.61.28.14.42-.4-.1,0-.1-.16-.13-.21.31,0,.7-.4,1-.67l.05.22a8.56,8.56,0,0,1,2-1.09.26.26,0,0,1-.13-.49l.19.29c.1-.23-.29-.06,0-.37.33,0,.3.31.15.45l.35-.19c0,.09,0,.16,0,.28,0-.11.23-.07.4,0s.35.07.44-.11l0,.09c.41-.06.7-.07,1-.11a4.31,4.31,0,0,1,.89,0c0-.27.31-.2.55-.38.25.09.51.22.78.34a3.83,3.83,0,0,0,.83.35c.46,0,.2-.18.44-.27-.05.25.54.46.17.51.36.11.57.21.83.31s.54.16,1,.34c0-.15-.12-.25,0-.29s.29.31.2.39h0a2.35,2.35,0,0,1,1.29,1.2c.34.5.57,1,1,1.16l0,0,.76.53c.18.37-.3-.09-.26.25.86.57.69,1.28,1.22,1.89a.9.9,0,0,0-.1.66,3.89,3.89,0,0,0,.2.76,2.15,2.15,0,0,1,.12,1.52l.17-.06c.19.2-.08.26-.11.41.14,0,.14-.23.25-.11a6,6,0,0,1-.23,2.75,13.88,13.88,0,0,1-1.09,2.56c-.29.59.71.73-.06,1.33l-.19-.37c-.25,1.42-1.42,2.39-2.09,3.56,0-.11-.07-.18,0-.27-.36,0-.73.72-.62.87-.17.12-.15-.1-.31-.09s-.36.68-.62.58c-.05,0,0-.11,0-.15-.08.19-.7.47-.4.59-.46.21-.75.62-1.18.68-.08.4-.81.28-.72.69-.15-.43-1,0-1.19.31.06-.16-.3,0-.25-.26-.34.1-.64.26-.52.47-.4-.18-.68,0-1,.18s-.54.25-.78-.07a7.22,7.22,0,0,1-1.55.47c-.26.05-.51.11-.77.15l-.76.05c.05-.45,1.11,0,1.06-.49l-1.21.31a2.23,2.23,0,0,1-1.23,0c-.23-.1.17-.17.26-.24a5.55,5.55,0,0,1-1.37-.13,4.38,4.38,0,0,0-1.29-.19s.12-.06.21-.08c-.17,0-.36-.15-.4.05l.18,0c.08.18-.12.29-.36.37s-.51.09-.55.16c.46-.46-.76-.43-.07-1-.12,0-.28,0-.31.18-.14-.09-.16-.18,0-.27-.6-.09-.49.19-1,0,.05-.09.16-.08.26-.16a1.19,1.19,0,0,1-1-.17s0-.13.16-.07c-.37-.14-.71-.21-1.06-.31a2,2,0,0,1-1-.54c.45-.2-.15-.3,0-.63l-.43-.19,0,.25c-.3-.26-.8-.24-1-.6l.32.1-.59-.48.21.4c-.43-.15-.29.38-.62-.09.11.06-.3-.3-.29-.6h0a.74.74,0,0,1-.59-.45c0-.14.36-.22.39-.31-.36,0-.67-.68-1.09-.71a.34.34,0,0,0,.29-.12H926c0-.21,0-.26.13-.32-.26-.51-.3.42-.49-.28,0,0,.07,0,.16.07a4.87,4.87,0,0,0-.53-.85,3,3,0,0,1-.4-.87c.27-.32.31.46.51.14a7.31,7.31,0,0,1-1.2-2.46l0,.17c-.53,0,.15-.71-.17-1.09.06.1.32.09.26.07a16.62,16.62,0,0,0-.48-2.11l.14.11c.1-.35.12-.93.19-1.31-.13-.12-.1-.34-.3-.22a2.35,2.35,0,0,0,.41-1.68,1.84,1.84,0,0,1,.45-1.54c0,.12,0,.32.07.22a5.32,5.32,0,0,1,.14-.89c-.24,0-.17.07-.41.19a.85.85,0,0,1,0-.65c0,.44.36.13.54,0-.08,0-.13-.08-.2-.09.55-.3-.41-.25.08-.76l.1.08a1.56,1.56,0,0,1,.15-.74c.29,0,0,.28.18.39.15-.33-.12-.88.26-1.06,0,.18-.1.38-.1.56.44-.19.38-.26.55-.47l0,0a3.72,3.72,0,0,1,.43-.46l-.16.09c-.35-.74.37-.86.35-1.63,0,.75.15.22.36.43.16-.07.39-.2.41-.1,0-.37.45-.25.41-.79.09,0,.2-.24.35,0,.16-.34-.19,0-.26-.14,0-.35.37-.51.68-.72a1.8,1.8,0,0,0,.79-.88c.43-.59.31-1,.77-1.51.28,0,0,.39,0,.4a1.42,1.42,0,0,0,.83-.54c0,.11.09.13.23.16.22-.17,0-.4.35-.48a1.69,1.69,0,0,1,0,.49,5.59,5.59,0,0,1,.68-.78c.15.11-.07.32-.12.47.3-.23.79-.56.79-.86l-.26,0c.12-.07.16.18.09.27a.3.3,0,0,1-.52,0l.19-.16c-.48-.4-.85.49-1.24.75l0-.47-.24.57c-.15,0-.34-.18-.17-.37-.41,0-.18.3-.57.28-.05,0-.05,0,0-.07s-.15.19-.22.3c0-.11-.23-.21,0-.28-.66.2-.6.9-1,.8l0-.05c-.59.68.12.28-.12,1l-.83-.23.16.28c-.07.06-.22.17-.28.06-.08.39.13.06.14.33a1.26,1.26,0,0,0-.6.5c-.15.2-.3.36-.52.25.08.27.39-.22.23.25-.49-.22-.25.48-.69.64-.14-.25.21-.47-.23-.29.2.44-.52.6-.64.94.31.21-.3.68-.43,1.26-.08-.08-.67.86-1,1.31l-.05,0c.3.24,0,.73,0,1.12-.2-.08-.25-.18-.27-.42l-.13.36a.62.62,0,0,1,0,.49l-.23-.17c-.13.5,0,1.07-.31,1.65.24.08.83-.32.82.35-.14,0-.38,0-.39-.21,0,.06.06.22,0,.32-.06-.1-.13-.21-.18-.31-.16.26.17.19.1.41-.19,0-.16.15-.31.08s.11-.18.05-.29a1.17,1.17,0,0,1-.41.64.22.22,0,0,1,.26.23c-.07.5-.27.14-.42.42.11.14-.06.45.24.48,0,.15-.15.17-.23.22.11.27,0,1.23.29.94l0-.06v0h0a4,4,0,0,1,.06,1.3,2.85,2.85,0,0,0,0,1.3H923c.2.48.23,1.1.54,1.4,0,.14-.08.38-.21.35a1.37,1.37,0,0,1,.3.94c-.27-.32-.11.18-.23-.34.07.51-.08.69.41,1.09-.32-.08-.14.48,0,.67l0-.4a3.09,3.09,0,0,1,.29.69l-.35,0c0,.59.46.92.8,1.23a1.36,1.36,0,0,1,.62,1.11c.36.08-.22-.55.15-.51.26.39.2,1.09.3,1.21.28.66.76.17,1.16.74,0-.15.19-.43.62-.16s.08.77-.2.63c-.09-.07-.1-.14-.07-.17-.14-.07-.33-.18-.28,0l.13,0c.08.25.58.71.34.74.37.14.24,0,.08-.27.37.53.76.61,1.2,1.1-.05-.12,0-.29,0-.23.67.67.47.05,1,.35.21.33-.33.29.29.5.26.31-.09.31-.28.31.61.13.89.68,1.19.86l-.33-.05a1.53,1.53,0,0,1,.47.17l0-.29c.14.11.28.18.24.27.23-.06,0-.42.46-.46.16.23.7.19.66.49-.66-.36,0,.35-.65.13a1.25,1.25,0,0,1,.42.19s-.05.05-.1.05c.59.51.45-.22,1.15,0-.15.14.06.38.19.38-.29-.1-.05-.32.25-.36.42.28.53,0,.76.12l-.25-.13c.14-.15.36-.07.69,0,0,.15-.31,0-.21.11.42-.23.72.55,1.28.41.21.15,0,.33.16.44.61-.14.59.33,1.23.24-.15-.28-.18-.19.26-.4-.33,0-.67,0-1,0l.68-.25c-.29,0-.64.05-.82,0,.33-.15.29-.1.18-.31.36.41.81-.07,1.25.17l-.06.59c.72.29,1.29-.2,2.22-.13l-.3-.09c.11-.24.56-.06.86-.17,0,.2.18.26.32.37,0-.12.69-.08.72-.48l.45.19c.77,0,.73-.7,1.42-.82-.15.26.2.31-.23.59.24-.06.46-.09.42-.22.18.08.58-.42.84-.32.07-.12,0-.32.28-.41a.14.14,0,0,1,0,.1c0-.1.34-.28,0-.4a1.69,1.69,0,0,0,1.37-.29,2,2,0,0,1,1.25-.45c.42-.32.88-.78,1.26-1.06,0,.06.06.08,0,.12.65-.25,0-.68.64-1,.5,0-.17.39.08.32.53.42.61-.67,1.21-.78l-.05.11c.44-.13.44-.88.86-1.33,0,0,0,.06.08.06a5.78,5.78,0,0,1,.56-1.82c.12.28,0,.3.26.33.1-.25-.4-.15-.2-.63.22-.08.48-.37.76-.29l-.22.46c.44-.06.29-.6.46-.81l.13.1c.29-.75-.08-.91.24-1.67l-.14,0c-.23-.55.32-.29.19-.81l.42,0c0-.33-.09-1.11-.1-1.65a3.56,3.56,0,0,1,.32,1.43c.08-.29.23-1,0-1.2,0,.12.1.29,0,.4a2.44,2.44,0,0,1-.22-1.49c.37.09.46-.29.52-.75s0-1,.35-1.22c-.35-1.07-.08-2.19-.49-3.44-.45.61-.13-.35-.7-.08-.13-.26-.16-.37-.13-.41a6,6,0,0,0,0-1c.07-.27.25.2.36.12-.24-.63.12-.36.07-.85-.17.19-.37-.08-.51-.44a4.1,4.1,0,0,1,0,.61c-.73-.64,0-1-.76-1.58l.34.13c-.2-.17-.47-.53-.78-.86a1.8,1.8,0,0,0-1-.56c0-.11,0-.31.2-.19-.78-.88-2.23-1.24-2.82-1.91l.15-.08c-.21-.08-.45.05-.62-.2,0-.05.15-.09.06-.14a1.45,1.45,0,0,1-.82-.23l.28,0c-.94-.66-1.73-.26-2.61-.4.11-.42-.72-.75-1.16-.88l0-.06a6.88,6.88,0,0,0-3.43.58,2.83,2.83,0,0,0-1.73.14c-.68.19-1.38.57-2,.78.2,0,.15.31,0,.47s-.46.69-.67.35l.09-.06c-.42-.18-.81.32-1.17.62l.33.43a1.94,1.94,0,0,0-.88.54,5,5,0,0,0-.6.92c-.31.64-.53,1.22-1,1.38,0,.32-.13.65-.12.95l-.26-.11a5.84,5.84,0,0,0-.61,2.11l-.16-.24c-.15.56.7.83.66,1.31l-.44.12-.14,1.47a2.51,2.51,0,0,0,.37,1.43.24.24,0,0,1-.25-.16c0,.23.09.7.19,1.07s.32.61.56.42c-.17.07-.09.32.09.6a6,6,0,0,0,.7.72l-.28.07c.52.22.63.14,1.07.57.06.13-.1.24-.16,0,.19.48.42.14.71.65l-.28,0c.33.37.38.27.71.3s.67.62.59.87a.59.59,0,0,1,.68.1c0,.1-.14.1-.2.09.64.59,1.22.28,1.63.72a.19.19,0,0,0,0,.19,4.51,4.51,0,0,1-1-.48c-.12.23.37.51-.19.64a5.52,5.52,0,0,1,1.82.15.31.31,0,0,1,0,.1l-.07,0a.51.51,0,0,0,.34,0,1.75,1.75,0,0,0,.43.17c0,.21.62.21.9.22,0-.28.35-.22,0-.46,0,0,0,0-.23,0s-.09,0-.12,0l0,0c-.17,0-.41,0-.66-.07a.67.67,0,0,1,.73,0l.39-.43c.32.42,1.06.59,1.19.81.83-.22,2-.57,2.21-1.28.17-.17.3,0,.42,0-.1.12-.24.19-.28.29.39-.32,1.19-.81,1-1.17.54-.26,0,.48.54-.11v.16a2.18,2.18,0,0,0,1.16-1.77,4.64,4.64,0,0,1,.74-2.08c-.07.11-.11.16-.17.17a4.25,4.25,0,0,0,0-3,10,10,0,0,0-1.58-2.65c-.42-.42-.61-.27-1-.26l0-.33a3.61,3.61,0,0,0-.67.09,2.26,2.26,0,0,1-1-.51,1.27,1.27,0,0,0-1.33-.13l.15.2c-.38-.05-1.14.26-1.13,0,0,0-.07.24-.23.18l-.06-.15a4.91,4.91,0,0,0-.76.58c-.33.13-.39,0-.48-.13s-.23-.24-.7.14-.49,1.2-.31,1.12.34-.24.46-.14l-.15.31c.3.35.62.72,1.21.53q0-.23.12-.48l.24.12a1.64,1.64,0,0,0-.25.21c.27,0,.24-.17.3-.35a.38.38,0,0,0,.26.13,4.66,4.66,0,0,1,.18-.57c.11.15,0,.4.25.4.12-.25-.33-.33,0-.55.27.15.23.31.44.1a.2.2,0,0,1-.06.26c.17-.18.53-.15.64-.39.22.23.77-.05.7.39a.92.92,0,0,1,.65-.24c-.25.2-.06.26.14.33s.42.19.27.43c.43-.33.91.23,1.39.36-.05,0-.14,0-.15,0,.16.2.08.36.12.52.32-.22.63,0,1,.16-.2.47-.5,0-.77.3.26-.17.51.33.7.15-.14.32,0,.25-.31.45.5-.09.13.2.47.34-.19.4-.45.15-.26.52C945.44,719.2,945.25,718.88,945.24,718.89Zm-6.33,5.34h0l.22,0Zm-.87-.3a2.18,2.18,0,0,0,.37.15c0,.1-.07.19-.15.15C938.33,724.18,938.14,724.06,938,723.93Zm1.62,2.44c-.19,0-.24,0-.26-.11h.33l0,0A.34.34,0,0,1,939.66,726.37Z" transform="translate(-921.91 -703.56)"/><path class="cls-1" d="M940,726l.07,0L940,726l-.07.08Z" transform="translate(-921.91 -703.56)"/><path class="cls-1" d="M922.93,718.35v0l.05,0Z" transform="translate(-921.91 -703.56)"/><polygon class="cls-1" points="13.34 9.72 13.28 9.69 13.3 9.79 13.34 9.72"/><path class="cls-1" d="M925,713.12a.14.14,0,0,0,.09,0Z" transform="translate(-921.91 -703.56)"/><path class="cls-1" d="M926,711a1.36,1.36,0,0,1,.24-.24A.89.89,0,0,0,926,711Z" transform="translate(-921.91 -703.56)"/><path class="cls-1" d="M927,709.58a.39.39,0,0,0-.08-.1h0Z" transform="translate(-921.91 -703.56)"/><path class="cls-1" d="M934.71,731.65h.07C934.94,731.64,934.83,731.64,934.71,731.65Z" transform="translate(-921.91 -703.56)"/><path class="cls-1" d="M927.28,728l.29.1C927.48,728,927.4,727.9,927.28,728Z" transform="translate(-921.91 -703.56)"/><polygon class="cls-1" points="21.71 27.65 21.71 27.66 21.76 27.64 21.71 27.65"/><path class="cls-1" d="M927.85,728.38a.54.54,0,0,0-.28-.28A.83.83,0,0,0,927.85,728.38Z" transform="translate(-921.91 -703.56)"/><path class="cls-1" d="M932.82,704.79l.07,0v0Z" transform="translate(-921.91 -703.56)"/><path class="cls-1" d="M932.88,704.72l.07-.07S932.88,704.68,932.88,704.72Z" transform="translate(-921.91 -703.56)"/><path class="cls-1" d="M933.1,704.49l-.15.16C933,704.62,933.09,704.59,933.1,704.49Z" transform="translate(-921.91 -703.56)"/><path class="cls-1" d="M930.75,705.83l0,.1A.16.16,0,0,0,930.75,705.83Z" transform="translate(-921.91 -703.56)"/><path class="cls-1" d="M930.2,706.27c.14-.1.45-.1.62-.27l0-.07C930.78,706.1,930.21,706,930.2,706.27Z" transform="translate(-921.91 -703.56)"/><path class="cls-1" d="M927.1,707.48c.16-.15.34-.28.5-.41-.15,0-.36,0-.18-.22C926.62,707.23,927.71,706.89,927.1,707.48Z" transform="translate(-921.91 -703.56)"/><path class="cls-1" d="M925.77,709c.15-.32-.13-.09-.17-.14C925.56,709.09,925.56,709.15,925.77,709Z" transform="translate(-921.91 -703.56)"/><path class="cls-1" d="M923.23,722.85l-.25,0C923.09,723.14,923.07,722.86,923.23,722.85Z" transform="translate(-921.91 -703.56)"/><polygon class="cls-1" points="3.49 21.32 3.54 21.03 3.28 21.02 3.49 21.32"/><polygon class="cls-1" points="2.73 23.62 2.64 23.53 2.96 23.88 2.73 23.62"/><path class="cls-1" d="M947.06,732.36l-.22-.23C946.7,732.27,946.83,732.6,947.06,732.36Z" transform="translate(-921.91 -703.56)"/><path class="cls-1" d="M953.59,724.07a.45.45,0,0,0,.28-.54C953.77,723.75,953.58,723.94,953.59,724.07Z" transform="translate(-921.91 -703.56)"/><polygon class="cls-1" points="12.76 6.11 12.83 5.86 12.61 6.25 12.76 6.11"/><path class="cls-1" d="M945.61,761c.08-.09,0-.28-.19-.25l-.16.33Z" transform="translate(-921.91 -703.56)"/><path class="cls-1" d="M944.07,760.37c-.27.17-.56.47-.37.76.25-.33.32-.2.59-.59.23,0,.4.11.36.23.08-.09.36.07.48-.13a.85.85,0,0,0-1.07,0C944,760.52,944.05,760.43,944.07,760.37Z" transform="translate(-921.91 -703.56)"/><path class="cls-1" d="M924.2,770l.11-.11A.29.29,0,0,0,924.2,770Z" transform="translate(-921.91 -703.56)"/><path class="cls-1" d="M924.62,783.76c-.06-.09-.11-.11-.14-.1S924.61,783.8,924.62,783.76Z" transform="translate(-921.91 -703.56)"/><path class="cls-1" d="M925.87,786l-.09-.12C925.8,785.91,925.82,786,925.87,786Z" transform="translate(-921.91 -703.56)"/><path class="cls-1" d="M924.2,770a3.85,3.85,0,0,0-.3.27C924,770.32,924.07,770.11,924.2,770Z" transform="translate(-921.91 -703.56)"/><path class="cls-1" d="M941.1,761.44a.42.42,0,0,0,.18-.11l-.18.06Z" transform="translate(-921.91 -703.56)"/><path class="cls-1" d="M928.41,765.22l.09-.07a1,1,0,0,0,0-.17Z" transform="translate(-921.91 -703.56)"/><path class="cls-1" d="M932.49,762.55c-.11,0,0,.31,0,.44a.32.32,0,0,1,.12-.28A.43.43,0,0,0,932.49,762.55Z" transform="translate(-921.91 -703.56)"/><path class="cls-1" d="M939.87,760.5l.12-.06Z" transform="translate(-921.91 -703.56)"/><path class="cls-1" d="M925.75,767.51a.14.14,0,0,0-.1,0A.23.23,0,0,0,925.75,767.51Z" transform="translate(-921.91 -703.56)"/><path class="cls-1" d="M943.48,769.89s0,0,0,0S943.45,769.89,943.48,769.89Z" transform="translate(-921.91 -703.56)"/><path class="cls-1" d="M939.1,771.62v-.07l-.14-.07Z" transform="translate(-921.91 -703.56)"/><path class="cls-1" d="M929.2,789.29v0C929.07,789.23,929.13,789.26,929.2,789.29Z" transform="translate(-921.91 -703.56)"/><path class="cls-1" d="M955.05,769.85c0,.55-.62-.58-.57.2C954.55,769.94,955.16,770.48,955.05,769.85Z" transform="translate(-921.91 -703.56)"/><path class="cls-1" d="M941,761.42l-.18,0A.6.6,0,0,0,941,761.42Z" transform="translate(-921.91 -703.56)"/><path class="cls-1" d="M954.48,770.05h0v0Z" transform="translate(-921.91 -703.56)"/><path class="cls-1" d="M939.47,792.17a.25.25,0,0,0-.11-.12A.32.32,0,0,0,939.47,792.17Z" transform="translate(-921.91 -703.56)"/><path class="cls-1" d="M931.87,790.09l.16.11A.66.66,0,0,0,931.87,790.09Z" transform="translate(-921.91 -703.56)"/><path class="cls-1" d="M943.53,791.39a.46.46,0,0,0,.29,0l-.05,0A.27.27,0,0,1,943.53,791.39Z" transform="translate(-921.91 -703.56)"/><path class="cls-1" d="M947.55,790l-.09,0-.12.08Z" transform="translate(-921.91 -703.56)"/><path class="cls-1" d="M948.26,776.38a.79.79,0,0,1,.29-.08C948.34,776.29,948.41,775.78,948.26,776.38Z" transform="translate(-921.91 -703.56)"/><path class="cls-1" d="M941.07,761.29a.14.14,0,0,1-.1.13l.13,0A.09.09,0,0,0,941.07,761.29Z" transform="translate(-921.91 -703.56)"/><path class="cls-1" d="M943.22,789.18l.58-.09A4.87,4.87,0,0,0,943.22,789.18Z" transform="translate(-921.91 -703.56)"/><path class="cls-1" d="M933.12,770.45l0,.13A.15.15,0,0,0,933.12,770.45Z" transform="translate(-921.91 -703.56)"/><path class="cls-1" d="M945.45,788.5a.85.85,0,0,0,.38,0,.24.24,0,0,0,0-.09Z" transform="translate(-921.91 -703.56)"/><path class="cls-1" d="M948.55,776.3Z" transform="translate(-921.91 -703.56)"/><path class="cls-1" d="M948,772.85c.1.44.4.12.63.17.24.58-.21.33-.36.55.16.33.47.62.47.91-.06,0-.09.08-.16,0,.27.43-.1,1.2.08,1.77a.16.16,0,0,1-.1,0,.86.86,0,0,1,.5.07c0,.25.07.54-.19.55.06-.15,0-.2-.07-.29v.29c-.41.1,0-.39-.22-.47-.06.51-.05,1.2-.34,1.51-.32-.08.31-.88-.19-.55.12-.16.26-.31.37-.49-.66.22.15-.31-.52-.15-.39.63-.19.84-.68,1.42,0,.25.26.11.31.36-.43,1.13-1.17.14-1.39,1,0,.3.21.69-.39.87,0-.14,0-.28-.08-.42-.61.35,0,.74-.85.86.05-.19.46-.37.33-.36-.59,0-.21.34-.56.52l-.22-.27c-.32.22-.71.35-1.08.58a6.19,6.19,0,0,1-1.29.38c0-.1.19-.21,0-.31a4.83,4.83,0,0,1-3.34-.68l-.49.14c-.09,0-.12-.18,0-.2-.35-.25-.09.17-.32.2s-.23-.29,0-.31a3.6,3.6,0,0,1-2.61-1.35l.18,0c-.39-.47-.92,0-1.16-.64l.12,0A15.58,15.58,0,0,1,933.1,777a2.72,2.72,0,0,1-.4-1.73c-.21,0-.3-.36-.28-.67s0-.6-.32-.63c.26-.77.35-.56.67-1.56.07-.26-.29-.47-.26-.84l.3.07c-.06-.18-.13-.37-.18-.56l.43-.12,0-.34c-.06.12-.23.22-.3.17,0-.56.7-1.09.85-1a8.69,8.69,0,0,1,.41-1.18c.08.09,0,.29,0,.47.1-.72.33.08.44-.56-.11,0-.13-.15-.17-.2a3.86,3.86,0,0,0,1.08-1l.08.21c.17-.14.33-.29.49-.45s.37-.29.55-.45a6.54,6.54,0,0,1,1.23-.81c-.36.08-.46-.28-.2-.46l.24.24c.1-.27-.34,0-.07-.37.39-.11.39.24.23.42l.39-.28c.06.09,0,.17,0,.3.11-.26.83,0,1-.38l0,.09c.49-.13.83-.26,1.17-.32a5.36,5.36,0,0,1,1.07-.2c0-.29.33-.24.58-.48a5.41,5.41,0,0,1,1,.21c.35.06.7.15,1.07.21.55-.06.19-.22.46-.35,0,.24.75.39.33.48.44.09.72.15,1,.2s.66.14,1.25.23c-.08-.14-.2-.23-.1-.29s.41.28.33.39h-.06a2.43,2.43,0,0,1,1,.4,6.35,6.35,0,0,1,.81.74c.27.24.46.55.7.75a2.37,2.37,0,0,0,.73.45l-.05,0c.3.19.63.35.93.56.26.41-.33-.1-.23.28a2.34,2.34,0,0,1,1,1.05,5,5,0,0,0,.67,1.11,1.08,1.08,0,0,0,0,.77,4,4,0,0,0,.29.89,5,5,0,0,1,.3,1,1.51,1.51,0,0,1,0,.87l.17-.08c.2.23-.06.32-.08.5.13,0,.12-.28.24-.14.49,2.16-.36,4.51-1.27,6.44-.35.71.68.79-.15,1.55,0-.13-.1-.27-.17-.41-.36,1.67-1.71,2.84-2.63,4.14,0-.12-.06-.2,0-.3-.37.08-.93.79-.81,1-.21.14-.16-.11-.33-.09-.33.1-.53.72-.8.63,0,0,0-.11.08-.16-.11.23-.88.51-.56.64-.6.17-1,.66-1.49.68-.09.21-.34.28-.56.35s-.43.11-.41.33c-.11-.43-1.11,0-1.45.25.09-.16-.36-.06-.25-.28-.42.12-.81.23-.69.46-.86-.39-1.6.62-2.1,0a12.39,12.39,0,0,1-3.76.23c.12-.44,1.32.18,1.33-.33-.57,0-1,.09-1.49.13a3.83,3.83,0,0,1-1.44-.22c-.27-.15.21-.13.32-.19a26.91,26.91,0,0,1-3.06-.92.38.38,0,0,1,.25,0c-.19-.08-.39-.26-.46-.07l.2,0c.17.4-1,.21-1.11.32.58-.35-.81-.65,0-1-.13,0-.32,0-.36.1-.15-.13-.16-.23.09-.26-.67-.26-.56,0-1.1-.34.06-.07.19,0,.31-.09a1.44,1.44,0,0,1-1.15-.47c.06,0,.06-.12.19,0-.74-.55-1.57-.67-2.15-1.58.53-.06-.14-.35.13-.65l-.44-.35v.28c-.31-.37-.77-.58-.91-1l.33.21c-.19-.24-.39-.47-.56-.72a4.32,4.32,0,0,0,.16.51c-.44-.31-.37.31-.64-.31.11.09-.27-.44-.19-.78h0a1.21,1.21,0,0,1-.53-.71c.06-.14.41-.11.45-.2-.38-.09-.55-1-.94-1.19a.31.31,0,0,0,.32,0l-.3-.11c0-.25,0-.29.19-.3-.17-.66-.41.35-.43-.49,0,0,.07,0,.14.13a10.73,10.73,0,0,1-.46-2.28c.36-.25.14.64.44.35a7.4,7.4,0,0,1-.25-3.2l-.08.19c-.47-.25.38-.72.33-1.26,0,.14.23.25.18.2.29-.63.34-1.38.76-2.41l0,.19c.31-.3.65-.9,1-1.22,0-.19.16-.38-.1-.38a3.43,3.43,0,0,0,1.5-1.41,2.65,2.65,0,0,1,1.49-1.24c-.11.1-.2.33-.1.25.24-.26.49-.53.75-.77-.21-.14-.19,0-.49,0a1.14,1.14,0,0,1,.43-.63c-.3.42.23.29.47.27-.07,0-.06-.14-.12-.19.7,0-.19-.44.61-.66l0,.12c.2-.21.34-.51.63-.64.25.16-.2.27-.1.47.36-.25.48-.9,1-.88-.12.16-.35.31-.47.47a1.26,1.26,0,0,0,.83-.17h0l.72-.23-.21,0c.15-.89.93-.63,1.4-1.37-.47.7,0,.28.08.57.21,0,.5,0,.46.09.23-.36.6-.07.92-.57.06.08.35-.13.37.13.39-.24-.16-.12-.17-.25.54-.57,1.65-.19,2.48-.89.79-.41.87-.75,1.64-1.09.31.1-.15.39-.15.39a1.89,1.89,0,0,0,1.18-.22c-.07.11,0,.15.17.25.32-.07.17-.38.62-.3a1.38,1.38,0,0,1-.27.43c.37-.14.73-.38,1.13-.5.12.16-.22.28-.35.4.44-.11,1.15-.26,1.28-.53l-.3-.08c.16,0,.1.23,0,.29a.37.37,0,0,1-.6-.14l.28-.09c-.35-.55-1.16.21-1.73.27l.18-.45c-.18.14-.37.28-.54.43-.15-.08-.28-.29,0-.41-.45-.12-.34.22-.75.06,0,0,0-.05,0-.08l-.39.2c.06-.1-.13-.27.14-.26-.8-.07-1.12.57-1.47.34l.05,0c-1,.42,0,.32-.66.88-.24-.2-.48-.39-.73-.57v.32c-.1,0-.31.07-.32-.06-.31.33.11.11,0,.37-.58-.11-1.27.62-1.57.2-.08.28.53,0,.08.34-.35-.43-.55.33-1.08.3,0-.3.5-.35,0-.38-.08.52-.88.31-1.21.57.15.32-.7.54-1.23,1a8.2,8.2,0,0,0-1.77.75l0-.06c.1.37-.47.68-.79,1-.12-.19-.1-.31,0-.55l-.35.28c0,.16-.09.28-.29.5l-.08-.29c-.45.4-.72,1-1.4,1.39.14.22.91.12.46.78-.12-.08-.31-.23-.19-.41,0,.06-.1.25-.24.3l.07-.39c-.32.16,0,.27-.21.44-.13-.14-.24,0-.32-.09s.23-.12.25-.25a1.65,1.65,0,0,1-.8.38c.1,0,.19.18,0,.36-.39.45-.31,0-.62.19,0,.2-.36.41-.13.6-.11.14-.24.08-.35.08-.1.32-.83,1.22-.37,1.1l.06-.05,0,.05h0c-.31,1-1.23,1.73-1.42,2.77l-.1,0a5,5,0,0,0-.16,1.79c0,.17-.22.39-.33.3a2.66,2.66,0,0,1-.06,1.2c-.17-.48-.16.16-.12-.49-.08.6-.29.76,0,1.4-.27-.21-.28.49-.18.78l.14-.45c.06.32.08.61.11.9l-.35-.11a2.53,2.53,0,0,0,.47,1.69,1.84,1.84,0,0,1,.39,1.46c.34.22-.09-.7.27-.52a9.84,9.84,0,0,1,0,1.46c.22.79.75.45,1.06,1.21.05-.15.28-.39.68.06.24.49,0,.84-.32.6-.09-.11-.09-.19,0-.2-.13-.13-.3-.32-.3,0h.14c0,.31.52.94.25.91.35.29.27,0,.13-.26.28.71.69.93,1.08,1.59,0-.13,0-.31.08-.22.64.91.49.21,1,.71.18.42-.41.2.24.61.26.41-.14.3-.34.24.65.33.9,1,1.19,1.28l-.35-.17a3.46,3.46,0,0,1,.51.33l0-.32c.16.16.31.27.25.35.27,0,.09-.42.57-.34.17.26.77.39.7.69-.7-.58-.1.33-.76-.06a1.46,1.46,0,0,1,.45.31s-.06,0-.12,0c.61.69.54-.1,1.3.36-.18.1,0,.4.17.43-.32-.17,0-.34.35-.32.45.38.6.18.85.33l-.27-.21c.18-.12.41,0,.8.13,0,.14-.37,0-.26.06.52-.13.79.68,1.44.68.24.2-.08.32.14.48.73,0,.65.48,1.42.45-.15-.28-.2-.23.35-.34-.4,0-.8-.06-1.19-.13.27,0,.55-.08.82-.14a5.75,5.75,0,0,1-1-.15c.4-.08.34,0,.24-.28.36.5,1,0,1.45.4l-.14.58a2,2,0,0,0,1.21.18,5.21,5.21,0,0,1,1.41,0l-.35-.13c.17-.22.68,0,1-.05,0,.2.18.27.33.4,0-.15.82,0,.91-.38.17.09.34.15.51.23.91.05,1-.62,1.79-.69-.22.25.19.33-.36.57.29,0,.55,0,.53-.18.2.11.74-.39,1-.28.09-.11.08-.32.4-.38,0,0,0,.1,0,.1s.45-.24.12-.39a2.4,2.4,0,0,0,1.63-.24,3.17,3.17,0,0,1,1.52-.44c.52-.34,1.15-.75,1.6-1.1,0,.07.05.09,0,.13.76-.29.09-.7.89-1.09.55,0-.26.43,0,.35.5.42.8-.73,1.46-.9l-.08.13c.24-.08.4-.33.57-.61a3.46,3.46,0,0,1,.55-.91s0,.06.07.06a5.49,5.49,0,0,1,.33-1c.14-.37.36-.73.47-1.06.12.32,0,.35.25.36.12-.3-.4-.13-.16-.72.22-.1.55-.45.83-.38l-.29.54c.48-.1.38-.7.55-1l.13.1c.34-.89,0-1,.32-2l-.14.06c-.2-.63.37-.36.22-1l.42-.06,0-.87a10,10,0,0,1,0-1.07,4.47,4.47,0,0,1,.31,1.67,2.4,2.4,0,0,0,.05-1.42c0,.14.08.34,0,.47a3.46,3.46,0,0,1-.24-1.75c.37.09.47-.37.5-.92a2.53,2.53,0,0,1,.27-1.46c-.4-1.25-.26-2.57-.84-4-.37.72-.18-.4-.72-.08-.18-.29-.23-.41-.2-.46a7,7,0,0,0-.16-1.1c0-.3.29.23.39.13-.36-.7.06-.41-.08-1-.14.21-.38-.08-.6-.49a4,4,0,0,1,.12.69,1.33,1.33,0,0,1-.51-.9,1.09,1.09,0,0,0-.59-.87l.38.14c-.45-.38-1.53-1.55-2.29-1.46,0-.12,0-.34.19-.22a6.44,6.44,0,0,0-1.91-1,7.1,7.1,0,0,1-1.74-.74l.15-.11c-.25,0-.5.12-.74-.13,0,0,.14-.11,0-.16a2.33,2.33,0,0,1-1-.1l.31-.09a2.8,2.8,0,0,0-1.62-.2c-.49.07-.94.17-1.47.21,0-.44-1-.65-1.53-.66l0-.07a8.53,8.53,0,0,0-3.84,1.27,3.63,3.63,0,0,0-2,.55l-.56.29-.53.36c-.35.24-.72.42-1,.64.22-.09.2.29.05.49-.31.17-.45.85-.7.54l.09-.08c-.48-.1-.86.52-1.19,1l.38.38a3.18,3.18,0,0,0-1.4,2c-.27.8-.37,1.55-.8,1.85a8.51,8.51,0,0,0,.07,1.14l-.28,0a6.05,6.05,0,0,0,0,2.69l-.23-.23c.05.73,1,.71,1.13,1.28l-.36.3c.41,1.08.66,2.4,1.73,3a.26.26,0,0,1-.31-.07c.29.48,1.27,1.78,1.51,1.21-.26.31.9.79,1.49,1l-.24.19a2.21,2.21,0,0,1,1.35.16c.13.1,0,.26-.14.1.44.37.51-.05,1,.36l-.3.06c.51.27.52.14.88,0s1,.41,1,.65a.72.72,0,0,1,.77-.12c0,.1-.1.13-.17.15a1.9,1.9,0,0,0,1.15.1,2.09,2.09,0,0,1,.93,0,.21.21,0,0,0,.12.17,5.43,5.43,0,0,1-1.34-.11c0,.25.61.36.06.66a7.45,7.45,0,0,1,2-.46.73.73,0,0,1,.09.08l-.06,0a.71.71,0,0,0,.39-.1,2.34,2.34,0,0,0,.53,0c.06.1.25.1.47.06s.45-.16.61-.2c-.11-.26.3-.35-.14-.45.05,0,0,0-.24.13l-.13.06,0,0a3.7,3.7,0,0,1-.76.18,1,1,0,0,1,.81-.28c.1-.23.21-.45.27-.57.52.29,1.37.1,1.59.26.84-.55,1.93-1.4,1.94-2.2.14-.23.32-.12.45-.14-.06.16-.19.28-.2.39l.58-.85c.18-.3.29-.59.17-.74.5-.47.1.52.53-.31l0,.17a2.84,2.84,0,0,0,.86-2.29,7,7,0,0,1,.34-2.56c0,.14-.06.21-.13.24a5.08,5.08,0,0,0-.8-3.43,9.28,9.28,0,0,0-2.55-2.56,1.19,1.19,0,0,0-1.17-.08l-.07-.32a4.38,4.38,0,0,0-.73.21,3,3,0,0,1-1.33-.27,1.68,1.68,0,0,0-1.55.21l.21.16c-.45,0-1.24.59-1.28.36,0,.06,0,.26-.23.25l-.09-.13a4.83,4.83,0,0,0-.71.87c-.33.27-.43.15-.55.06s-.3-.16-.69.44a1.85,1.85,0,0,0-.16.92c0,.29.07.48.16.42s.27-.41.41-.36l-.07.4c.41.23.82.5,1.36,0a3.55,3.55,0,0,1,0-.56h.27c-.08.11-.13.23-.21.34.31-.07.2-.29.23-.49a.4.4,0,0,0,.32,0,2.11,2.11,0,0,1,.08-.65c.15.12.05.42.35.31.07-.31-.42-.2-.16-.54.34,0,.34.25.52-.06.09.09.07.19,0,.29.16-.25.6-.32.67-.59.17.1.38,0,.57,0s.35,0,.36.21a1.14,1.14,0,0,1,.72-.39c-.24.27,0,.25.27.3s.58.09.47.37c.41-.41,1.17.07,1.78.15-.05,0-.15.05-.18,0,.28.18.24.38.35.55.28-.31.7,0,1.08,0-.05.56-.49.1-.68.46.22-.25.61.29.76,0,0,.37,0,.29-.16.58.45-.18.22.2.57.32-.07.52-.36.25-.1.68C948.26,773.2,948,772.85,948,772.85Zm-6,8.95h0a1.42,1.42,0,0,0,.27,0A1.1,1.1,0,0,1,942,781.8Zm-1.11,0a1.83,1.83,0,0,0,.48,0c0,.09,0,.2-.12.19C941.32,782,941.05,781.93,940.89,781.82Zm2.77,1.71c-.21.08-.29,0-.33,0l.36-.09,0,0A.38.38,0,0,1,943.66,783.53Z" transform="translate(-921.91 -703.56)"/><path class="cls-1" d="M943.94,783.07A.18.18,0,0,1,944,783l-.13,0,0,.1Z" transform="translate(-921.91 -703.56)"/><path class="cls-1" d="M924.33,769.84l0,0,.06,0Z" transform="translate(-921.91 -703.56)"/><polygon class="cls-1" points="10.96 68.05 10.89 68.04 10.93 68.14 10.96 68.05"/><path class="cls-1" d="M929.69,765.85a.18.18,0,0,0,.11,0S929.74,765.84,929.69,765.85Z" transform="translate(-921.91 -703.56)"/><path class="cls-1" d="M932.07,764.37l.4-.11A1.83,1.83,0,0,0,932.07,764.37Z" transform="translate(-921.91 -703.56)"/><path class="cls-1" d="M934,763.49a.49.49,0,0,0,0-.13h0Z" transform="translate(-921.91 -703.56)"/><path class="cls-1" d="M932.52,788.31l.08,0C932.79,788.36,932.66,788.33,932.52,788.31Z" transform="translate(-921.91 -703.56)"/><path class="cls-1" d="M924.89,782.13l.28.21C925.09,782.18,925,782.05,924.89,782.13Z" transform="translate(-921.91 -703.56)"/><polygon class="cls-1" points="21.24 85.63 21.24 85.64 21.31 85.62 21.24 85.63"/><path class="cls-1" d="M925.41,782.75a.86.86,0,0,0-.24-.41A1.14,1.14,0,0,0,925.41,782.75Z" transform="translate(-921.91 -703.56)"/><path class="cls-1" d="M943,761.25h.1a.07.07,0,0,1,0,0Z" transform="translate(-921.91 -703.56)"/><path class="cls-1" d="M943.1,761.21l.11,0A.12.12,0,0,0,943.1,761.21Z" transform="translate(-921.91 -703.56)"/><path class="cls-1" d="M943.45,761.08l-.24.09C943.3,761.16,943.4,761.17,943.45,761.08Z" transform="translate(-921.91 -703.56)"/><path class="cls-1" d="M940.17,761.5l0,.11A.18.18,0,0,0,940.17,761.5Z" transform="translate(-921.91 -703.56)"/><path class="cls-1" d="M939.33,761.71c.21,0,.55.09.81,0v-.08C940.05,761.78,939.48,761.49,939.33,761.71Z" transform="translate(-921.91 -703.56)"/><path class="cls-1" d="M935.44,761.57c.25-.07.49-.14.74-.19-.16-.06-.38-.14-.06-.27C935.11,761.12,936.39,761.26,935.44,761.57Z" transform="translate(-921.91 -703.56)"/><path class="cls-1" d="M933.21,762.35c.35-.23-.07-.14-.08-.21C932.94,762.35,932.9,762.4,933.21,762.35Z" transform="translate(-921.91 -703.56)"/><path class="cls-1" d="M922.24,774.84l-.25-.07C922,775.1,922.09,774.78,922.24,774.84Z" transform="translate(-921.91 -703.56)"/><polygon class="cls-1" points="1.76 74.4 1.87 74.09 1.61 74 1.76 74.4"/><polygon class="cls-1" points="0.47 76.7 0.39 76.57 0.65 77.07 0.47 76.7"/><path class="cls-1" d="M947,790.54l-.21-.25C946.57,790.42,946.66,790.77,947,790.54Z" transform="translate(-921.91 -703.56)"/><path class="cls-1" d="M955.07,781.08a.59.59,0,0,0,.32-.65C955.29,780.7,955.07,780.93,955.07,781.08Z" transform="translate(-921.91 -703.56)"/><path class="cls-1" d="M931.86,767.7l.06-.29c-.07.16-.14.32-.2.48Z" transform="translate(-921.91 -703.56)"/><path class="cls-1" d="M938.26,817a.15.15,0,0,0-.27-.11l.07.35Z" transform="translate(-921.91 -703.56)"/><path class="cls-1" d="M936.82,817.28c-.1.26-.14.65.16.81,0-.39.12-.31.1-.76.14-.15.35-.11.39,0,0-.11.29-.12.26-.35a.7.7,0,0,0-.79.48C936.84,817.45,936.84,817.34,936.82,817.28Z" transform="translate(-921.91 -703.56)"/><path class="cls-1" d="M926.59,833.33l0-.13A.25.25,0,0,0,926.59,833.33Z" transform="translate(-921.91 -703.56)"/><path class="cls-1" d="M933.61,843.14c-.09,0-.14,0-.16,0S933.61,843.17,933.61,843.14Z" transform="translate(-921.91 -703.56)"/><path class="cls-1" d="M935.5,844.25l-.11-.06S935.47,844.27,935.5,844.25Z" transform="translate(-921.91 -703.56)"/><path class="cls-1" d="M926.59,833.33a1.36,1.36,0,0,0-.07.35C926.63,833.69,926.56,833.5,926.59,833.33Z" transform="translate(-921.91 -703.56)"/><path class="cls-1" d="M935.24,819.55a.36.36,0,0,0,.07-.17,1.13,1.13,0,0,1-.1.13Z" transform="translate(-921.91 -703.56)"/><path class="cls-1" d="M927.25,827.82l0-.09a1,1,0,0,0-.09-.13Z" transform="translate(-921.91 -703.56)"/><path class="cls-1" d="M929.13,824c-.06.07.16.25.24.35a.3.3,0,0,1,0-.28A.66.66,0,0,0,929.13,824Z" transform="translate(-921.91 -703.56)"/><path class="cls-1" d="M933.79,819.3l.07-.1Z" transform="translate(-921.91 -703.56)"/><path class="cls-1" d="M926.4,830.79l-.11,0A.15.15,0,0,0,926.4,830.79Z" transform="translate(-921.91 -703.56)"/><path class="cls-1" d="M946.59,822.67v0S946.56,822.67,946.59,822.67Z" transform="translate(-921.91 -703.56)"/><path class="cls-1" d="M942.88,823.56v-.07l-.15-.06Z" transform="translate(-921.91 -703.56)"/><path class="cls-1" d="M939.4,845.36h0C939.27,845.38,939.33,845.38,939.4,845.36Z" transform="translate(-921.91 -703.56)"/><path class="cls-1" d="M954.67,820.37c.11.48-.73-.26-.48.38C954.23,820.61,954.9,820.89,954.67,820.37Z" transform="translate(-921.91 -703.56)"/><path class="cls-1" d="M935.14,819.59l-.12.11A.33.33,0,0,0,935.14,819.59Z" transform="translate(-921.91 -703.56)"/><path class="cls-1" d="M954.19,820.75h0l0,.06Z" transform="translate(-921.91 -703.56)"/><path class="cls-1" d="M948.5,843.73a.39.39,0,0,0-.14-.08S948.41,843.7,948.5,843.73Z" transform="translate(-921.91 -703.56)"/><path class="cls-1" d="M941.76,844.84l.17,0A.36.36,0,0,0,941.76,844.84Z" transform="translate(-921.91 -703.56)"/><path class="cls-1" d="M951.43,841.66c.09,0,.14,0,.22-.12h0C951.59,841.59,951.55,841.64,951.43,841.66Z" transform="translate(-921.91 -703.56)"/><path class="cls-1" d="M954.19,839.22h-.08l-.07.1Z" transform="translate(-921.91 -703.56)"/><path class="cls-1" d="M951,828.69a.76.76,0,0,1,.28-.09C951.1,828.61,951.11,828.16,951,828.69Z" transform="translate(-921.91 -703.56)"/><path class="cls-1" d="M935.13,819.44a.12.12,0,0,1,0,.15l.07-.08S935.17,819.44,935.13,819.44Z" transform="translate(-921.91 -703.56)"/><path class="cls-1" d="M950.27,839.77a3.23,3.23,0,0,0,.44-.27Z" transform="translate(-921.91 -703.56)"/><path class="cls-1" d="M937.16,826.72l0,.11A.15.15,0,0,0,937.16,826.72Z" transform="translate(-921.91 -703.56)"/><path class="cls-1" d="M951.82,838.49a.74.74,0,0,0,.34,0s0-.06,0-.09Z" transform="translate(-921.91 -703.56)"/><path class="cls-1" d="M951.31,828.59h0Z" transform="translate(-921.91 -703.56)"/><path class="cls-1" d="M950.42,825.65c.12.39.41.08.64.1.25.5-.2.31-.35.52.16.28.55.49.54.75-.06,0-.08.07-.16,0,.33.34,0,1,.32,1.51a.16.16,0,0,1-.1,0,1.22,1.22,0,0,1,.51,0c0,.22.16.46-.09.5,0-.14-.07-.17-.13-.24l.06.25c-.37.13-.06-.34-.31-.38a2.5,2.5,0,0,1,0,1.34c-.34-.05.11-.8-.3-.46l.27-.46c-.62.25.11-.29-.53-.08-.28.58,0,.75-.38,1.31.12.22.28.07.39.29-.16,1-1.07.26-1.07,1.06.09.27.4.61-.11.86l-.19-.38c-.44.46.19.67-.49,1,0-.19.27-.44.17-.41-.53.09-.07.37-.32.61l-.27-.2a7.16,7.16,0,0,1-1.65,1.47c0-.11.07-.26-.13-.29a3.32,3.32,0,0,1-2.73.24l-.36.23a.11.11,0,0,1,0-.2c-.32-.16-.05.19-.23.27s-.23-.2-.09-.27a3,3,0,0,1-1.23,0,1.91,1.91,0,0,1-1-.69h.15c-.33-.4-.86.18-1.06-.38l.1,0c-.83-.79-1.83-1.74-1.88-2.74-.22,0-.32-.25-.43-.51s-.17-.51-.46-.44c0-.72.2-.59.13-1.51,0-.23-.42-.28-.53-.58l.3,0-.39-.37.36-.25-.08-.27c0,.11-.14.24-.23.23a1.09,1.09,0,0,1,.06-.71c.09-.21.25-.36.33-.35a5.25,5.25,0,0,1-.11-1c.12,0,.12.22.16.36-.17-.58.35,0,.18-.55-.08.05-.17-.08-.22-.11a2.47,2.47,0,0,0,.53-1.09l.16.16c.17-.31.38-.64.55-1a5.38,5.38,0,0,1,.77-1c-.3.13-.52-.16-.35-.37l.31.16c0-.26-.29.1-.2-.31.27-.21.4.12.34.32l.21-.35c.08.06,0,.16.11.27,0-.28.72-.13.69-.56l.07.07a10.49,10.49,0,0,1,1.65-1c-.09-.26.18-.33.32-.59.28,0,.57,0,.87-.07a3.67,3.67,0,0,0,.93-.09c.42-.2.09-.25.28-.44.07.25.71.16.39.38a7.49,7.49,0,0,1,.9-.11c.27,0,.57-.12,1.07-.15-.1-.12-.22-.18-.15-.26s.41.15.37.27l-.05,0a1.41,1.41,0,0,1,.88.08,3.37,3.37,0,0,1,.85.42c.26.17.52.32.75.44a1.18,1.18,0,0,0,.72.17h-.05a7,7,0,0,1,.91.18c.34.25-.31,0-.13.33,1,.15,1.16.92,1.91,1.27-.07.49.29.86.65,1.31a2.22,2.22,0,0,1,.69,1.39l.14-.12c.26.12,0,.28,0,.44.12-.08.06-.28.2-.2a8.65,8.65,0,0,1,.62,5.57c-.07.66.91.46.38,1.3l-.3-.29c.22,1.46-.59,2.77-.89,4.12,0-.11-.12-.16-.06-.27-.34.14-.48.93-.34,1-.14.17-.18-.05-.33,0s-.13.79-.43.76c-.05,0,0-.11,0-.16,0,.22-.55.68-.23.71-.41.32-.56.82-1,1,0,.41-.75.5-.52.88-.27-.36-.94.3-1.09.66,0-.17-.32,0-.32-.18-.31.21-.54.48-.36.64-.87-.1-1,1.1-1.7.64a10,10,0,0,1-2.84,1.58c-.08-.43,1.09-.35.9-.8a5.16,5.16,0,0,1-2.31,1c-.26,0,.11-.22.18-.31-.93.37-1.86.21-2.72.5,0,0,.09-.09.18-.13-.17,0-.4-.07-.37.14l.16-.05c.29.3-.68.62-.72.77.3-.57-.88-.17-.38-.89-.12,0-.26.11-.24.25-.17-.05-.22-.13,0-.28-.61.06-.42.32-1,.25,0-.1.13-.12.2-.23a1.27,1.27,0,0,1-1.07.15c0-.05,0-.14.13-.11-.79-.11-1.48.24-2.31-.21.39-.33-.25-.23-.17-.6-.16,0-.32,0-.48,0l.11.24c-.38-.16-.84,0-1.12-.3l.34,0c-.24-.09-.5-.16-.74-.26l.35.32c-.48,0-.16.46-.64.11.13,0-.39-.2-.48-.51h0a.82.82,0,0,1-.72-.25c0-.14.27-.31.27-.41-.35.16-.86-.47-1.27-.37a.31.31,0,0,0,.24-.21l-.29.09c-.1-.19-.09-.23,0-.33-.42-.41-.17.49-.57-.13.06,0,.06,0,.17,0-.44-.54-1.09-.83-1.4-1.42.18-.37.43.37.53,0a5.83,5.83,0,0,1-1.73-2.15l0,.17c-.54.09-.07-.7-.39-1,.06.09.32,0,.25,0a2.87,2.87,0,0,0-.32-.9c-.14-.32-.27-.69-.42-1.15l.15.1c0-.36,0-.94.08-1.33-.14-.11-.12-.34-.32-.21a2.37,2.37,0,0,0,.36-1.72,2,2,0,0,1,.49-1.57c0,.13,0,.33.05.23l.19-.9c-.24,0-.17.06-.41.19a1,1,0,0,1,0-.67c0,.46.35.13.53,0-.08,0-.13-.08-.2-.1.58-.28-.39-.26.15-.76l.09.09a2,2,0,0,1,.16-.77c.29,0,0,.3.18.41.14-.35-.1-.91.31-1.08,0,.18-.13.38-.15.56a1,1,0,0,0,.6-.46l0,0,.44-.48-.15.1c-.37-.79.42-.87.4-1.66,0,.76.15.22.37.44.16-.08.37-.23.4-.12,0-.4.46-.28.43-.83.09,0,.21-.24.36,0,.18-.35-.19,0-.27-.13.11-.71,1.22-.81,1.46-1.76.39-.66.26-1,.66-1.61.28-.05.1.4.1.4a1.62,1.62,0,0,0,.77-.69c0,.11.11.12.26.13.2-.21-.09-.4.29-.54a1.5,1.5,0,0,1,0,.49,8.82,8.82,0,0,1,.56-.93c.18.07,0,.33,0,.49.26-.3.7-.74.64-1l-.26.08c.1-.1.2.14.14.24a.32.32,0,0,1-.52.16l.16-.2c-.56-.3-.74.69-1.13,1l-.11-.46-.17.61c-.15,0-.37-.13-.22-.35-.41.09-.14.33-.54.37-.05,0-.05,0,0-.07l-.17.35c0-.12-.24-.17,0-.29-.64.29-.53,1-.93.91l0-.06c-.53.75.15.28,0,1l-.86-.17.17.27c-.07.06-.21.18-.28.08-.08.39.14,0,.15.32-.52.14-.67,1-1.12.8.08.27.41-.22.24.25-.5-.21-.29.48-.7.68-.15-.26.19-.5-.24-.31.23.47-.54.61-.66,1,.28.2-.28.72-.47,1.29,0,0-.22.17-.44.45s-.43.65-.61.87l0,0c.28.25,0,.72-.09,1.14-.2-.09-.25-.19-.26-.44l-.14.37a.63.63,0,0,1,.05.51l-.23-.18c-.18.5,0,1.09-.36,1.7.25.09.82-.33.83.36-.15,0-.38,0-.4-.22,0,.07.07.23,0,.34l-.16-.32c-.17.27.15.19.07.42-.2-.05-.17.15-.32.08s.13-.19.07-.29c-.11.25-.24.57-.41.66a.22.22,0,0,1,.26.24c-.06.52-.26.15-.4.45.12.14-.07.46.24.49,0,.16-.14.18-.22.24.13.28,0,1.29.35,1l0-.07v0h0c.36.83,0,1.85.44,2.66l-.1,0a3.39,3.39,0,0,0,.82,1.33c.07.13,0,.4-.14.4a1.9,1.9,0,0,1,.52.89c-.36-.25-.05.2-.33-.29.21.5.15.7.7,1-.32,0,0,.52.22.67l-.1-.41a4.58,4.58,0,0,1,.51.61l-.34.12a2,2,0,0,0,1.15,1c.45.2.83.38,1,.89.37,0-.39-.48,0-.54.35.33.53,1,.67,1.09.51.53.8-.07,1.36.36,0-.15,0-.46.55-.33s.34.69,0,.65c-.12,0-.15-.09-.13-.13-.16,0-.37-.08-.25.13l.1-.08c.17.22.81.48.59.59.39,0,.22-.11,0-.28a7.67,7.67,0,0,0,1.51.69c-.08-.09-.13-.26,0-.22.87.42.47-.09,1.09,0,.31.26-.23.39.44.39.36.21,0,.33-.17.39.64-.09,1.08.37,1.43.46l-.34,0a1.78,1.78,0,0,1,.52,0l-.15-.26c.18.07.34.09.32.19.21-.13-.09-.41.31-.57.23.16.75-.07.81.26-.77-.16.06.32-.61.32a1,1,0,0,1,.47,0s0,.06-.08.08c.74.33.37-.31,1.14-.29-.1.18.17.34.3.3-.31,0-.14-.3.14-.43.49.14.53-.1.78-.1l-.29-.05c.09-.18.34-.17.67-.25,0,.14-.3.11-.18.17.35-.33.88.27,1.38,0,.26.09.07.33.29.38.56-.3.69.13,1.28-.17-.23-.2-.24-.13.14-.44l-1,.35.59-.46c-.3,0-.61.27-.8.26.28-.24.25-.18.08-.35.47.27.76-.35,1.28-.22l.12.58c.79.08,1.19-.62,2.13-.79h-.32c0-.26.54-.23.79-.44,0,.2.25.19.42.25-.07-.12.66-.26.57-.66l.5,0c.75-.24.5-.92,1.16-1.21-.08.29.29.24-.06.62.21-.12.43-.2.36-.32.19,0,.42-.61.71-.59,0-.13-.05-.3.17-.46.05,0,.06.08.06.08s.25-.38-.07-.4c1,0,1.55-1.38,2.35-1.52.33-.43.65-1,.94-1.4,0,.06.08.06,0,.12.54-.46-.24-.66.34-1.18.48-.17-.07.43.17.29.64.24.37-.86.94-1.15l0,.13c.39-.28.16-1,.43-1.59a.13.13,0,0,0,.1,0,6.79,6.79,0,0,1,0-2c.21.24.08.3.36.24,0-.28-.43,0-.39-.55.18-.14.34-.52.62-.54l0,.53c.39-.21.08-.68.17-1l.15,0c0-.82-.38-.85-.32-1.7l-.11.09c-.41-.46.2-.4-.11-.85l.39-.17c-.11-.31-.48-1-.65-1.56.36.24.56.88.79,1.27,0-.31-.15-1.06-.38-1.18.07.11.18.26.13.39a2.62,2.62,0,0,1-.72-1.37c.78-.09-.26-1.57.07-2.2a7.51,7.51,0,0,1-.8-1.51,6.63,6.63,0,0,0-1-1.6c-.16.74-.26-.29-.67.17-.22-.2-.29-.29-.28-.33l-.4-.9c0-.29.3.11.38,0-.48-.51,0-.41-.29-.83-.06.23-.39.09-.66-.22l.27.57c-1-.32-.35-1-1.39-1.18h.37c-.48-.2-1.69-.88-2.32-.57,0-.09-.11-.28.11-.26-1.13-.5-2.64-.12-3.49-.48l.09-.14c-.22,0-.39.26-.65.11,0-.06.09-.15,0-.16a1.6,1.6,0,0,1-.86.18l.24-.17a2.48,2.48,0,0,0-1.41.26,6.35,6.35,0,0,1-1.16.6c-.1-.44-1-.31-1.48-.24v-.06a4.84,4.84,0,0,0-1.59.93c-.21.2-.43.38-.63.59s-.4.44-.62.65c-.92.09-2.11,1.62-2.9,2.66.18-.13.28.19.21.4s0,.87-.4.68l0-.1a.69.69,0,0,0-.5.43,4.61,4.61,0,0,0-.21.75l.49.2a1.54,1.54,0,0,0-.47,1,3.63,3.63,0,0,0,0,1.14c.05.37.1.72.11,1a1,1,0,0,1-.13.74,5.2,5.2,0,0,0,.45.88l-.27.06a5.85,5.85,0,0,0,.73,2.14l-.27-.11c.24.55,1.07.28,1.32.71l-.29.36c.54.8.89,1.88,1.91,2.28a.26.26,0,0,1-.3,0c.18.16.47.53.77.78s.62.33.71,0c-.11.16.11.32.41.45a6.16,6.16,0,0,0,1,.22l-.19.21a2.4,2.4,0,0,1,1.23-.11c.12.08,0,.26-.11.13.44.28.42-.1,1,.13l-.25.14c.5.11.48,0,.78-.16s.93.11,1,.37a.62.62,0,0,1,.63-.3c.05.08,0,.17-.1.19a2,2,0,0,0,1-.21,1.17,1.17,0,0,1,.79-.23.23.23,0,0,0,.15.13l-.84.24a1.33,1.33,0,0,1-.32,0c0,.25.64.19.25.62a6.45,6.45,0,0,1,1.58-1,.27.27,0,0,1,.11,0l0,.05a.61.61,0,0,0,.3-.18,1.11,1.11,0,0,0,.44-.16c.15.15.63-.23.86-.4-.18-.21.13-.39-.28-.38,0,0,0,.07-.16.18a.2.2,0,0,0-.08.08v0l-.57.37a.66.66,0,0,1,.58-.48l0-.58a2.59,2.59,0,0,0,.83,0c.27-.06.49-.13.61-.07.54-.68,1.25-1.6,1.07-2.31.07-.22.27-.14.38-.17,0,.14-.11.27-.08.37.13-.46.63-1.24.31-1.5.37-.46.19.44.44-.32l.06.14a2.32,2.32,0,0,0,.41-2.08,4.12,4.12,0,0,1,0-2.23c0,.12,0,.19-.11.22a4.81,4.81,0,0,0-.86-2.94,18.29,18.29,0,0,0-2.13-2.26c-.46-.38-.64-.17-1-.16v-.32l-.67.13c-.42,0-.71-.25-1.09-.45a1.34,1.34,0,0,0-1.37-.07,1.46,1.46,0,0,1,.16.19,4.52,4.52,0,0,0-.73.13c-.24.07-.43.13-.44,0,0,.05,0,.24-.23.19l-.08-.14a4,4,0,0,0-.69.75c-.31.21-.41.09-.53,0s-.28-.17-.66.38-.09,1.36,0,1.22.25-.36.4-.31l-.05.35a1.11,1.11,0,0,0,1.33.08,1.41,1.41,0,0,1-.05-.46l.24,0-.15.24c.28,0,.14-.21.15-.37a.5.5,0,0,0,.28.09,1.37,1.37,0,0,1,0-.57c.13.14.06.39.3.36,0-.27-.35-.26-.14-.55.28.12.27.32.44.07a.23.23,0,0,1,0,.27c.12-.23.5-.17.58-.45.24.24.78-.09.73.37a.9.9,0,0,1,.66-.27c-.49.42.8.22.51.75.44-.38,1,.21,1.58.27,0,0-.14,0-.16,0,.23.19.18.38.27.55.29-.3.66,0,1,0,0,.51-.49.14-.68.48.24-.25.59.23.74,0,0,.34.06.24-.17.52.44-.2.17.16.54.21-.09.46-.4.26-.12.61C950.7,825.94,950.42,825.65,950.42,825.65Zm-3.54,9.08h0l.21-.11Zm-.88.32.39-.11c.06.08.06.19,0,.21S946.15,835.08,946,835.05Zm2.84.85c-.14.13-.23.12-.28.08l.27-.2v0A.45.45,0,0,1,948.84,835.9Z" transform="translate(-921.91 -703.56)"/><path class="cls-1" d="M948.92,835.42l.05-.06h-.12v.11Z" transform="translate(-921.91 -703.56)"/><path class="cls-1" d="M926.63,833.17v0l0-.05Z" transform="translate(-921.91 -703.56)"/><polygon class="cls-1" points="15.47 124.15 15.4 124.16 15.47 124.23 15.47 124.15"/><path class="cls-1" d="M928.63,827.77a.16.16,0,0,0,.09,0Z" transform="translate(-921.91 -703.56)"/><path class="cls-1" d="M929.77,825.66l.26-.24A1.26,1.26,0,0,0,929.77,825.66Z" transform="translate(-921.91 -703.56)"/><path class="cls-1" d="M930.88,824.18a.43.43,0,0,0-.07-.1h0Z" transform="translate(-921.91 -703.56)"/><path class="cls-1" d="M941.56,843l.07,0C941.79,842.89,941.68,842.91,941.56,843Z" transform="translate(-921.91 -703.56)"/><path class="cls-1" d="M933.11,841.69l.31,0C933.29,841.62,933.2,841.55,933.11,841.69Z" transform="translate(-921.91 -703.56)"/><polygon class="cls-1" points="28.31 136.24 28.31 136.24 28.36 136.21 28.31 136.24"/><path class="cls-1" d="M933.78,841.9a.58.58,0,0,0-.36-.19A1,1,0,0,0,933.78,841.9Z" transform="translate(-921.91 -703.56)"/><path class="cls-1" d="M936.53,818.53l.08,0s0,0,0,0Z" transform="translate(-921.91 -703.56)"/><path class="cls-1" d="M936.59,818.44l.06-.08S936.58,818.41,936.59,818.44Z" transform="translate(-921.91 -703.56)"/><path class="cls-1" d="M936.77,818.17l-.12.19C936.71,818.31,936.78,818.26,936.77,818.17Z" transform="translate(-921.91 -703.56)"/><path class="cls-1" d="M934.57,820l0,.1A.16.16,0,0,0,934.57,820Z" transform="translate(-921.91 -703.56)"/><path class="cls-1" d="M934.05,820.54c.14-.1.46-.15.6-.37l0-.07C934.63,820.28,934.05,820.3,934.05,820.54Z" transform="translate(-921.91 -703.56)"/><path class="cls-1" d="M931,822c.16-.15.3-.31.47-.45-.15,0-.37,0-.19-.21C930.47,821.8,931.54,821.39,931,822Z" transform="translate(-921.91 -703.56)"/><path class="cls-1" d="M929.62,823.57c.16-.32-.13-.09-.17-.14C929.4,823.67,929.39,823.73,929.62,823.57Z" transform="translate(-921.91 -703.56)"/><path class="cls-1" d="M927.66,837.75l-.24.09C927.58,838.08,927.51,837.79,927.66,837.75Z" transform="translate(-921.91 -703.56)"/><path class="cls-1" d="M930.31,839.22l0-.28L930,839Z" transform="translate(-921.91 -703.56)"/><polygon class="cls-1" points="8.38 138.12 8.26 138.07 8.69 138.3 8.38 138.12"/><path class="cls-1" d="M953.93,839.88l-.28-.16C953.55,839.89,953.78,840.18,953.93,839.88Z" transform="translate(-921.91 -703.56)"/><path class="cls-1" d="M957.69,829.69a.47.47,0,0,0,.08-.62C957.76,829.32,957.65,829.57,957.69,829.69Z" transform="translate(-921.91 -703.56)"/><path class="cls-1" d="M934.89,824.93c0-.09,0-.17,0-.26a2.46,2.46,0,0,0,0,.47Z" transform="translate(-921.91 -703.56)"/><path class="cls-2" d="M984.73,722.87" transform="translate(-921.91 -703.56)"/><path class="cls-1" d="M999.16,719c-.08-.08-.28,0-.23.18l.33.16Z" transform="translate(-921.91 -703.56)"/><path class="cls-1" d="M998.61,720.5c.17.25.52.5.79.3-.36-.21-.24-.28-.62-.53,0-.22.09-.39.21-.36-.08-.07.06-.34-.15-.45a.84.84,0,0,0,0,1C998.76,720.58,998.67,720.51,998.61,720.5Z" transform="translate(-921.91 -703.56)"/><path class="cls-1" d="M1013.53,734.79l-.15,0A.33.33,0,0,0,1013.53,734.79Z" transform="translate(-921.91 -703.56)"/><path class="cls-1" d="M1025.57,728.27c0,.1,0,.16,0,.18S1025.61,728.27,1025.57,728.27Z" transform="translate(-921.91 -703.56)"/><path class="cls-1" d="M1027.11,726.31l-.09.13S1027.11,726.36,1027.11,726.31Z" transform="translate(-921.91 -703.56)"/><path class="cls-1" d="M1013.53,734.79l.38.12C1013.93,734.8,1013.71,734.82,1013.53,734.79Z" transform="translate(-921.91 -703.56)"/><path class="cls-1" d="M1000,723.22a.47.47,0,0,0-.13-.15l.08.16Z" transform="translate(-921.91 -703.56)"/><path class="cls-1" d="M1007.37,733.61l-.1-.05-.15.08Z" transform="translate(-921.91 -703.56)"/><path class="cls-1" d="M1003.29,731c.08.08.29-.11.4-.17a.34.34,0,0,1-.3,0A.5.5,0,0,0,1003.29,731Z" transform="translate(-921.91 -703.56)"/><path class="cls-1" d="M999.29,724.57l-.09-.11Z" transform="translate(-921.91 -703.56)"/><path class="cls-1" d="M1010.65,734.81a.2.2,0,0,0,0,.11A.2.2,0,0,0,1010.65,734.81Z" transform="translate(-921.91 -703.56)"/><path class="cls-1" d="M1009.38,718a.09.09,0,0,0,0,0S1009.4,718,1009.38,718Z" transform="translate(-921.91 -703.56)"/><path class="cls-1" d="M1014.19,718.11l-.05.06.09.13Z" transform="translate(-921.91 -703.56)"/><path class="cls-1" d="M1028.88,722.05v0C1028.89,722.2,1028.89,722.13,1028.88,722.05Z" transform="translate(-921.91 -703.56)"/><path class="cls-1" d="M1000.34,713.5c.39-.38,0,.85.55.25C1000.76,713.79,1000.7,713,1000.34,713.5Z" transform="translate(-921.91 -703.56)"/><path class="cls-1" d="M1000,723.34l.06.18C1000,723.44,1000,723.38,1000,723.34Z" transform="translate(-921.91 -703.56)"/><path class="cls-1" d="M1000.89,713.75h0l.05-.07Z" transform="translate(-921.91 -703.56)"/><path class="cls-1" d="M1026.69,711.68a.26.26,0,0,0,0,.15S1026.68,711.78,1026.69,711.68Z" transform="translate(-921.91 -703.56)"/><path class="cls-1" d="M1028.56,719.3l0-.19C1028.58,719.18,1028.57,719.25,1028.56,719.3Z" transform="translate(-921.91 -703.56)"/><path class="cls-1" d="M1023.62,708.91a.48.48,0,0,0-.2-.2.13.13,0,0,0,0,.06C1023.49,708.77,1023.56,708.8,1023.62,708.91Z" transform="translate(-921.91 -703.56)"/><path class="cls-1" d="M1020.05,706.74l.05.08.13,0Z" transform="translate(-921.91 -703.56)"/><path class="cls-1" d="M1012.62,711.84a.77.77,0,0,1-.29-.08C1012.5,711.88,1012.13,712.28,1012.62,711.84Z" transform="translate(-921.91 -703.56)"/><path class="cls-1" d="M999.84,723.28a.13.13,0,0,1,.15.06l0-.11A.1.1,0,0,0,999.84,723.28Z" transform="translate(-921.91 -703.56)"/><path class="cls-1" d="M1022.11,710.54a2.6,2.6,0,0,0-.43-.38Z" transform="translate(-921.91 -703.56)"/><path class="cls-1" d="M1018.62,724.29l.09-.1A.15.15,0,0,0,1018.62,724.29Z" transform="translate(-921.91 -703.56)"/><path class="cls-1" d="M1020.22,709.29a.76.76,0,0,0-.2-.32l-.09,0Z" transform="translate(-921.91 -703.56)"/><path class="cls-1" d="M1012.32,711.76h0Z" transform="translate(-921.91 -703.56)"/><path class="cls-1" d="M1010.08,715c.37-.43-.11-.43-.19-.66.36-.6.41-.07.7-.12.2-.38.18-.85.4-1.07.06,0,.12,0,.13.1.11-.53.93-.94,1.09-1.54a.16.16,0,0,1,.11,0,1,1,0,0,1-.38-.34c.19-.18.24-.49.46-.36-.13.09-.08.18-.09.28l.15-.25c.41.14-.22.32-.06.52.34-.39.67-1,1.08-1.12.24.24-.73.59-.12.56a5.51,5.51,0,0,0-.57.25c.69.15-.31.18.37.39a3.51,3.51,0,0,0,.65-.48,1.58,1.58,0,0,1,.67-.43c.07-.24-.18-.22-.11-.47a.69.69,0,0,1,1-.14.48.48,0,0,0,.71,0c.13-.25.13-.75.73-.57l-.13.39a.57.57,0,0,0,.53-.27c.1-.13.22-.22.59-.06-.14.14-.56.1-.45.15.47.32.34-.2.72-.18l0,.34a5.68,5.68,0,0,1,2.38.43c-.1.06-.27.08-.16.27a3.8,3.8,0,0,1,2,2.46l.44.21c0,.08-.05.21-.14.14.06.41.18-.06.36.07s0,.35-.17.25a3.73,3.73,0,0,1,.72,1.23,2.15,2.15,0,0,1,.06,1.43l-.09-.15c-.1.57.6.69.27,1.24l0-.12c-.28,1.28-.63,2.8-1.57,3.42.27.42-.9,1-.5,1.39a9.08,9.08,0,0,0-1.56.76c-.23.16-.07.56-.32.83l-.2-.24c-.06.19-.12.37-.19.55l-.43-.15a2.73,2.73,0,0,1-.23.25c.13-.05.32,0,.35,0-.37.43-1.21.49-1.29.35l-1,.71c0-.13.15-.25.27-.38-.47.53-.22-.26-.65.23.1,0,0,.18,0,.24a3,3,0,0,0-1.44.23l.06-.21a9.85,9.85,0,0,0-1.37.17,14.57,14.57,0,0,1-1.48,0c.35.13.24.5-.07.5l-.09-.34c-.21.17.31.17-.12.35-.39-.09-.21-.4,0-.48l-.47,0c0-.1.1-.14.15-.26-.23.17-.72-.42-1.05-.17v-.1a15.75,15.75,0,0,1-2.21-.61c-.13.26-.4.07-.72.15-.26-.19-.52-.41-.79-.63a6.28,6.28,0,0,0-.83-.68c-.51-.18-.26.11-.56.11.12-.22-.44-.7,0-.58-.34-.28-.56-.45-.82-.63s-.49-.43-.94-.78c0,.16.05.29-.06.29s-.23-.42-.1-.48l0,0a2.72,2.72,0,0,1-.85-1.81c-.18-.66-.07-1.28-.48-1.68l0,0a8.88,8.88,0,0,1-.35-1c0-.46.21.26.34-.07a1.15,1.15,0,0,1-.14-.72,4,4,0,0,1,.09-.62,7.8,7.8,0,0,0,.22-1.2c.47-.2.67-.74,1-1.32a2.63,2.63,0,0,1,1.09-1.4l-.17-.07c0-.3.26-.16.41-.26-.12-.08-.29.09-.27-.09,1.24-1.79,3.49-2.6,5.51-3,.38-.07.43-.32.52-.54s.23-.4.77-.25l-.22.37a5.73,5.73,0,0,1,1.16-.34c.4,0,.81-.05,1.22-.06s.82.06,1.22.06l1.21,0c-.1.06-.12.16-.27.13.28.3,1.2.21,1.25,0,.24.09,0,.19.14.33.27.22.89-.07,1,.21,0,0-.11,0-.18,0,.26-.08.93.38.84,0,.5.33,1.11.3,1.45.69.42-.12.83.59,1.12.3-.27.37.67.86,1.09.93-.18,0,.16.33-.07.38.32.27.67.45.77.23a1.53,1.53,0,0,0,.75.86c.29.2.59.37.43.77a8.61,8.61,0,0,1,1.23,1.34c.18.24.35.49.51.73a8.1,8.1,0,0,1,.39.78c-.22.05-.33-.24-.45-.52s-.29-.51-.48-.39c.35.41.57.78.83,1.14a2.57,2.57,0,0,1,.48,1.31c0,.28-.23-.12-.32-.19a6.7,6.7,0,0,1,.24.76c0,.25,0,.51.08.76s0,.5.08.75a5.82,5.82,0,0,0,.09.73s-.08-.11-.11-.2c0,.19-.08.44.12.42l0-.19c.31-.31.6.81.75.87-.54-.39-.29,1-1,.36,0,.12.09.29.23.29-.07.18-.15.22-.28,0,0,.69.3.5.13,1.12-.1,0-.1-.16-.2-.25a1.6,1.6,0,0,1,0,1.22s-.14,0-.1-.17c-.08.45-.14.85-.18,1.27a3.57,3.57,0,0,1-.11.64,2.78,2.78,0,0,1-.34.63c-.26-.46-.29.25-.64.13a5.26,5.26,0,0,1-.15.53l.27-.1c-.24.41-.25.9-.57,1.2l.06-.39a8.67,8.67,0,0,1-.43.79,3.26,3.26,0,0,0,.4-.34c-.11.52.45.23,0,.7.05-.13-.31.39-.64.46h0a1,1,0,0,1-.42.75c-.16,0-.26-.32-.36-.33.06.37-.7.88-.7,1.32a.27.27,0,0,0-.16-.27l0,.31c-.22.09-.27.08-.35-.06-.54.4.48.22-.27.59,0-.06,0-.07.06-.19a12.2,12.2,0,0,1-1.83,1.38c-.37-.21.49-.43.11-.56-.4.33-.85.63-1.28,1a4.84,4.84,0,0,1-1.43.69l.19,0c0,.58-.81,0-1.24.32.11-.06.09-.32.07-.26-.68.11-1.35.39-2.42.62l.13-.13a14.69,14.69,0,0,0-1.52-.18c-.14.12-.39.06-.26.28a3.46,3.46,0,0,0-1.93-.54,4.94,4.94,0,0,1-1-.13,1.79,1.79,0,0,1-.79-.53c.13.06.36,0,.26,0a8.38,8.38,0,0,1-1-.29c0,.24.06.2.19.45a1,1,0,0,1-.73-.1c.49.09.15-.34,0-.54,0,.08-.11.11-.12.19-.3-.63-.31.37-.85-.24l.1-.09a2.62,2.62,0,0,1-.83-.31c0-.29.33.07.46-.11-.35-.23-1,0-1.16-.5a4.42,4.42,0,0,0,.6.24,1.37,1.37,0,0,0-.46-.69l0,0-.47-.56.09.18c-.88.22-.91-.6-1.74-.79.81.19.26-.09.51-.27-.07-.19-.2-.44-.08-.45-.43,0-.22-.54-.8-.65.06-.08-.22-.28,0-.38-.33-.28-.06.18-.18.23-.36-.14-.52-.52-.68-.93A2.65,2.65,0,0,0,1001,726c-.56-.64-1-.62-1.41-1.31,0-.31.41.07.41.07a1.86,1.86,0,0,0-.43-1.08c.1,0,.14,0,.21-.2-.11-.3-.39-.1-.37-.55a1.55,1.55,0,0,1,.46.19c-.19-.33-.47-.64-.66-1,.14-.14.31.17.46.27-.22-.39-.35-1.06-.65-1.16l0,.3c0-.16.21-.12.28,0a.37.37,0,0,1-.1.6l-.11-.27c-.55.42.38,1.09.49,1.63l-.46-.1c.17.15.31.31.5.45,0,.15-.23.32-.4.07,0,.46.28.29.2.71,0,.05,0,0-.07,0l.27.34c-.11,0-.24.18-.29-.08.05.81.81.94.65,1.34l0,0c.62.84.32,0,1,.43-.12.27-.23.55-.34.83l.31-.08c0,.09.15.28,0,.31.39.21.07-.13.36-.05,0,.6,1,1,.65,1.41.3,0-.17-.48.3-.17-.29.46.45.43.62.9-.29.09-.51-.32-.35.18.53-.13.59.71.95.93.25-.26.77.43,1.36.75-.13.1.93.86,1.39,1.32l0,0c.3-.26.83.09,1.28.24-.12.19-.23.23-.5.2l.4.2c.14-.06.28,0,.57,0l-.22.21a8.43,8.43,0,0,1,1.9.55c.1-.24-.35-.84.44-.8,0,.14-.05.38-.26.38.07,0,.26,0,.37,0l-.37.14c.31.19.23-.14.49-.05-.06.19.15.19.08.33s-.21-.14-.33-.09a1.49,1.49,0,0,1,.71.51c0-.13.06-.25.29-.24.59.07.15.26.48.41.17-.11.53.09.58-.2.17,0,.18.17.24.26.32-.08,1.45,0,1.11-.3l-.07,0h.05a2.4,2.4,0,0,1,.75-.08c.25,0,.51,0,.77,0a3.69,3.69,0,0,0,1.52-.14v.1c.56-.24,1.28-.36,1.59-.74.16-.06.45,0,.42.16a2.76,2.76,0,0,1,1.06-.48c-.33.37.21.07-.36.33.56-.19.76-.12,1.2-.65-.07.32.57.07.75-.17l-.44.07a5.08,5.08,0,0,1,.73-.48l.06.36a2.29,2.29,0,0,0,1.29-1.1,1.88,1.88,0,0,1,1.16-.93c0-.39-.58.37-.57,0,.41-.37,1.16-.47,1.29-.61.67-.46.08-.87.68-1.42-.16,0-.47-.1-.21-.63s.78-.29.68.06c-.07.12-.13.16-.16.13-.07.17-.18.39.06.29l0-.13c.26-.16.65-.84.72-.57.13-.43-.07-.26-.28,0a7.56,7.56,0,0,0,1-1.57c-.11.07-.28.11-.23,0,.6-.91,0-.52.26-1.2.31-.32.35.3.47-.45.27-.38.33,0,.35.23a1.63,1.63,0,0,1,.33-.9,4.88,4.88,0,0,0,.38-.66v.39a2.52,2.52,0,0,1,.09-.59l-.28.15c.09-.2.14-.38.24-.35-.1-.25-.43.07-.53-.4.21-.24,0-.85.36-.89-.24.86.34,0,.26.71a1.63,1.63,0,0,1,.09-.53s.06,0,.07.1c.41-.82-.29-.45-.16-1.32.17.13.37-.18.32-.33,0,.36-.3.14-.42-.19.16-.56-.08-.62-.06-.91l-.07.33c-.18-.11-.14-.39-.2-.77.15,0,.09.35.16.21-.31-.41.25-1,0-1.59.1-.3.33-.07.39-.33-.37-.65.08-.8-.26-1.49-.19.27-.12.28-.46-.15l.42,1.13-.5-.67c.07.34.3.7.31.91-.27-.31-.2-.28-.36-.08.23-.54-.37-.89-.32-1.46l.57-.16a2.36,2.36,0,0,0-.45-1.15,5.55,5.55,0,0,1-.74-1.22l.08.36c-.28,0-.33-.59-.6-.84.18-.08.11-.3.13-.5-.11.1-.47-.68-.84-.52a4.85,4.85,0,0,0-.09-.55c-.54-.73-1.08-.4-1.64-1,.33,0,.15-.36.67-.07-.19-.22-.38-.39-.47-.3,0-.2-.77-.31-.85-.62-.15,0-.29.11-.54-.07,0-.05.06-.08.06-.08s-.48-.16-.39.17a2.18,2.18,0,0,0-1.19-1.09,3,3,0,0,1-1.27-.88c-.61-.16-1.29-.42-1.83-.53.05,0,0-.1.13,0-.69-.39-.61.42-1.37,0-.36-.41.48-.05.24-.23,0-.7-1-.11-1.55-.6h.14c-.42-.33-1.13.13-1.85,0,0,0,0-.06,0-.1a8.11,8.11,0,0,1-2.12.58c.19-.29.31-.15.15-.41-.31.07.12.4-.48.55-.21-.11-.67-.17-.78-.43l.59-.1c-.35-.31-.77.12-1.09.11v-.16c-.89.29-.81.64-1.74.91l.13.08c-.36.56-.49,0-.88.42l-.3-.3c-.32.18-.94.91-1.44,1.27a5.15,5.15,0,0,1,1.08-1.3c-.33.15-1.07.62-1.13.87.11-.1.22-.27.37-.29a2.28,2.28,0,0,1-.47.66,5.38,5.38,0,0,1-.69.64c-.18-.34-.58-.11-1,.21s-.86.78-1.26.77c-.64,1.12-1.71,1.91-2.31,3.35.76-.25-.17.41.44.56-.09.33-.13.45-.18.46-.23.29-.44.59-.65.91s0-.36-.18-.37c-.24.76-.33.27-.58.78.23-.07.27.33.13.78l.36-.6c.2,1.12-.7.92-.29,2.09l-.21-.36c.08.29.07.86.22,1.38a2.36,2.36,0,0,0,.71,1.22c0,.12-.17.31-.28.07a4.64,4.64,0,0,0,.46,1,4.44,4.44,0,0,0,.64.9,9.69,9.69,0,0,1,1.13,1.52l-.18,0c.2.16.49.14.59.48-.06,0-.18,0-.11.12a3,3,0,0,1,.83.55l-.32-.06c.83,1.05,1.8.94,2.7,1.42-.23.37.59,1,1,1.27l0,0a6.37,6.37,0,0,0,1.94.58c.64,0,1.24.09,1.93.12.75.61,2.84.61,4.27.59-.22-.05,0-.34.23-.41.34.08.81-.49.85-.07l-.12,0c.33.32,1,.07,1.5-.09l-.09-.53a3.32,3.32,0,0,0,2.25-.82c.66-.49,1.16-1,1.67-1,.17-.31.48-.58.63-.9l.18.22a7.16,7.16,0,0,0,1.7-1.88l0,.31c.41-.53-.2-1.14.08-1.63l.45.06c.54-1,1.32-2,1.17-3.18a.23.23,0,0,1,.14.28c.17-.5.57-2.12-.05-1.93.19,0,.19-.3.13-.68a5.66,5.66,0,0,0-.41-1.08l.29.05a2.53,2.53,0,0,1-.81-1.08c0-.17.16-.21.16,0,0-.57-.36-.33-.49-1l.27.16c-.22-.53-.27-.46-.61-.64s-.47-1-.32-1.17a.73.73,0,0,1-.66-.41c0-.09.16,0,.23,0-.49-.88-1.19-.83-1.54-1.43a.18.18,0,0,0,0-.2,4.71,4.71,0,0,1,1,.91c.2-.18-.27-.66.37-.56a10.09,10.09,0,0,1-2-.87.5.5,0,0,1,0-.13h.07a.6.6,0,0,0-.37-.15,2.59,2.59,0,0,0-.46-.3c0-.22-.69-.4-1-.45,0,.27-.44.14-.11.45-.05,0,.07,0,.27,0a.39.39,0,0,0,.14,0l0,0a5.22,5.22,0,0,1,.75.26,1,1,0,0,1-.84-.2l-.53.34a2.59,2.59,0,0,0-.68-.63,1.38,1.38,0,0,1-.55-.4,10.16,10.16,0,0,0-1.6.24,2,2,0,0,0-1.14.74c-.22.15-.33,0-.45-.09.12-.1.3-.15.36-.25-.24.15-.61.29-.91.46s-.51.38-.48.57c-.66.15.16-.48-.6,0l.05-.16a2.94,2.94,0,0,0-1.83,1.46,4.17,4.17,0,0,1-1.75,1.7c.13-.07.19-.1.25-.08a10.32,10.32,0,0,0-2.13,2.51c-.29.46-.6.92-.91,1.37s-.77,1.12-1.28,1.76c-.12.1,0,.16,0,.22l.17.16a1.35,1.35,0,0,0,.31.2c.21.1.41.14.66.23l-.12.29a5.12,5.12,0,0,0,.92.18,3.39,3.39,0,0,1,1.17.69,1.61,1.61,0,0,0,1.51.3l-.15-.22c.43.09,1.33-.15,1.29.08,0,0,.11-.23.29-.16l0,.16a5.85,5.85,0,0,0,.95-.54c.8-.21.11.69,1.28.13.42-.3.82-1.18.6-1.14s-.41.22-.52.1l.25-.31c-.24-.41-.42-.86-1.18-.69a2.9,2.9,0,0,1-.29.51l-.25-.13a2.71,2.71,0,0,0,.37-.21c-.31-.06-.35.16-.46.36a.45.45,0,0,0-.29-.16,3.5,3.5,0,0,1-.36.58c-.1-.16.13-.41-.22-.42-.19.25.33.36-.05.57-.3-.17-.24-.34-.52-.13,0-.12,0-.2.11-.26-.24.17-.68.1-.83.34-.24-.27-.92,0-.8-.48a1.12,1.12,0,0,1-.78.14c.3-.17.09-.25-.14-.36s-.25-.16-.08-.39c-.17.18-.31.16-.41.1s-.16-.06-.13-.11a.2.2,0,0,0,0-.16s.11,0,.07.06a.43.43,0,0,1,.37-.08c-.42-.07-.13-.69-.15-1.09.59-.17.22.5.6.58-.27-.16.21-.84-.1-.87.4-.15.27-.19.65-.14-.36-.34.13-.31.07-.73.51-.27.43.17.68-.36C1010.26,714.53,1010.08,715,1010.08,715Zm10.42-4.75h0l-.23-.12Zm.85.62a1.81,1.81,0,0,0-.35-.3c0-.1.12-.15.21-.08C1021.12,710.52,1021.29,710.71,1021.35,710.89Zm-1.25-3c.22,0,.27.12.28.18l-.38-.1,0,0A.24.24,0,0,1,1020.1,707.93Z" transform="translate(-921.91 -703.56)"/><path class="cls-1" d="M1019.61,708.15h-.09l.11.1.09-.06Z" transform="translate(-921.91 -703.56)"/><path class="cls-1" d="M1013.35,734.74h0a.1.1,0,0,1,0,0Z" transform="translate(-921.91 -703.56)"/><polygon class="cls-1" points="97.6 19.93 97.65 19.98 97.68 19.88 97.6 19.93"/><path class="cls-1" d="M1007.38,732.18a.16.16,0,0,0,0-.1S1007.35,732.13,1007.38,732.18Z" transform="translate(-921.91 -703.56)"/><path class="cls-1" d="M1005.12,730.67l-.24-.31A1.87,1.87,0,0,0,1005.12,730.67Z" transform="translate(-921.91 -703.56)"/><path class="cls-1" d="M1003.65,729.2l-.12.06h0Z" transform="translate(-921.91 -703.56)"/><path class="cls-1" d="M1026.68,719.44s0-.06,0-.08C1026.62,719.18,1026.63,719.3,1026.68,719.44Z" transform="translate(-921.91 -703.56)"/><path class="cls-1" d="M1024,728.64a3.37,3.37,0,0,1,.09-.34C1023.94,728.43,1023.85,728.53,1024,728.64Z" transform="translate(-921.91 -703.56)"/><polygon class="cls-1" points="100.24 7.02 100.25 7.02 100.2 6.98 100.24 7.02"/><path class="cls-1" d="M1024.35,727.94a.74.74,0,0,0-.29.36A1.12,1.12,0,0,0,1024.35,727.94Z" transform="translate(-921.91 -703.56)"/><path class="cls-1" d="M999.58,721.46v-.09h-.05Z" transform="translate(-921.91 -703.56)"/><path class="cls-1" d="M999.53,721.36l0-.1S999.5,721.35,999.53,721.36Z" transform="translate(-921.91 -703.56)"/><path class="cls-1" d="M999.38,721l.1.22C999.47,721.18,999.46,721.08,999.38,721Z" transform="translate(-921.91 -703.56)"/><path class="cls-1" d="M1000.21,724.09h.1A.12.12,0,0,0,1000.21,724.09Z" transform="translate(-921.91 -703.56)"/><path class="cls-1" d="M1000.55,724.84c-.06-.2,0-.54-.15-.77h-.09C1000.5,724.13,1000.32,724.73,1000.55,724.84Z" transform="translate(-921.91 -703.56)"/><path class="cls-1" d="M1001.39,728.54a6.74,6.74,0,0,1-.38-.64c0,.17,0,.4-.25.13C1001.05,729,1000.82,727.74,1001.39,728.54Z" transform="translate(-921.91 -703.56)"/><path class="cls-1" d="M1002.85,730.37c-.32-.24-.1.12-.16.15C1003,730.63,1003,730.66,1002.85,730.37Z" transform="translate(-921.91 -703.56)"/><path class="cls-1" d="M1018.59,734l.06.25C1018.93,734.14,1018.61,734.19,1018.59,734Z" transform="translate(-921.91 -703.56)"/><polygon class="cls-1" points="98.79 27.83 98.47 27.86 98.49 28.13 98.79 27.83"/><polygon class="cls-1" points="101.39 28.09 101.31 28.21 101.65 27.78 101.39 28.09"/><path class="cls-1" d="M1020.83,706.83l-.05.33C1021,707.21,1021.2,706.92,1020.83,706.83Z" transform="translate(-921.91 -703.56)"/><path class="cls-1" d="M1008.6,706.14a.58.58,0,0,0-.69.17A4.59,4.59,0,0,0,1008.6,706.14Z" transform="translate(-921.91 -703.56)"/><polygon class="cls-1" points="96.18 23.67 95.98 23.87 96.41 23.59 96.18 23.67"/><path class="cls-1" d="M1011.68,761.54a.15.15,0,0,0-.16-.24l-.12.34Z" transform="translate(-921.91 -703.56)"/><path class="cls-1" d="M1010.41,761c-.21.19-.41.5-.22.78.16-.34.22-.21.41-.62a.22.22,0,0,1,.31.2c.06-.09.28,0,.37-.16a.59.59,0,0,0-.86,0C1010.34,761.18,1010.4,761.08,1010.41,761Z" transform="translate(-921.91 -703.56)"/><path class="cls-1" d="M998.59,773.54l0-.12A.42.42,0,0,0,998.59,773.54Z" transform="translate(-921.91 -703.56)"/><path class="cls-1" d="M1003.26,784.13c-.08-.06-.13,0-.15,0S1003.26,784.16,1003.26,784.13Z" transform="translate(-921.91 -703.56)"/><path class="cls-1" d="M1004.74,785.63l-.09-.09C1004.67,785.59,1004.7,785.63,1004.74,785.63Z" transform="translate(-921.91 -703.56)"/><path class="cls-1" d="M998.59,773.54l-.1.32C998.6,773.88,998.57,773.7,998.59,773.54Z" transform="translate(-921.91 -703.56)"/><path class="cls-1" d="M1008.19,762.34a.81.81,0,0,0,.12-.14l-.13.08Z" transform="translate(-921.91 -703.56)"/><path class="cls-1" d="M999.39,768.34l0-.09a.51.51,0,0,0-.09-.13Z" transform="translate(-921.91 -703.56)"/><path class="cls-1" d="M1001.55,764.86c-.07.06.12.27.19.38a.31.31,0,0,1,0-.28A.43.43,0,0,0,1001.55,764.86Z" transform="translate(-921.91 -703.56)"/><path class="cls-1" d="M1007,761.57l.09-.08Z" transform="translate(-921.91 -703.56)"/><path class="cls-1" d="M998.48,771.14l-.1,0A.18.18,0,0,0,998.48,771.14Z" transform="translate(-921.91 -703.56)"/><path class="cls-1" d="M1020.29,773.48l0,0S1020.28,773.46,1020.29,773.48Z" transform="translate(-921.91 -703.56)"/><path class="cls-1" d="M1017.55,770.56h.07c0-.06,0-.11,0-.16Z" transform="translate(-921.91 -703.56)"/><path class="cls-1" d="M1008.11,787.53h0C1008,787.52,1008.05,787.53,1008.11,787.53Z" transform="translate(-921.91 -703.56)"/><path class="cls-1" d="M1031.26,770.33c-.11.46-.51-.51-.59.14C1030.76,770.38,1031.27,770.86,1031.26,770.33Z" transform="translate(-921.91 -703.56)"/><path class="cls-1" d="M1008.09,762.33l-.14.06A.37.37,0,0,0,1008.09,762.33Z" transform="translate(-921.91 -703.56)"/><path class="cls-1" d="M1030.67,770.47h0v0Z" transform="translate(-921.91 -703.56)"/><path class="cls-1" d="M1016.82,788.11a.35.35,0,0,0-.1-.11S1016.75,788.06,1016.82,788.11Z" transform="translate(-921.91 -703.56)"/><path class="cls-1" d="M1010.42,787.51l.15.07A.93.93,0,0,0,1010.42,787.51Z" transform="translate(-921.91 -703.56)"/><path class="cls-1" d="M1020,787.13c.09,0,.13,0,.23,0s0,0,0,0S1020.13,787.15,1020,787.13Z" transform="translate(-921.91 -703.56)"/><path class="cls-1" d="M1023.29,786.06l-.08,0-.1.05Z" transform="translate(-921.91 -703.56)"/><path class="cls-1" d="M1019,780.25a.94.94,0,0,1,.23.16C1019.14,780.26,1019.45,780,1019,780.25Z" transform="translate(-921.91 -703.56)"/><path class="cls-1" d="M1008.14,762.19c0,.07,0,.11,0,.14l.09-.05S1008.16,762.2,1008.14,762.19Z" transform="translate(-921.91 -703.56)"/><path class="cls-1" d="M1019.6,785l.5-.08A3.43,3.43,0,0,0,1019.6,785Z" transform="translate(-921.91 -703.56)"/><path class="cls-1" d="M1012.67,767.44l-.06.09A.1.1,0,0,0,1012.67,767.44Z" transform="translate(-921.91 -703.56)"/><path class="cls-1" d="M1021.49,784.38a.61.61,0,0,0,.33.09.24.24,0,0,0,0-.09Z" transform="translate(-921.91 -703.56)"/><path class="cls-1" d="M1019.27,780.42h0Z" transform="translate(-921.91 -703.56)"/><path class="cls-1" d="M1020.68,778.13c-.17.29.23.31.38.48-.15.46-.34,0-.57.06-.1.25,0,.68-.15.81-.06,0-.11,0-.12-.1,0,.44-.69.62-.86,1.09a.15.15,0,0,1-.09-.05,1.24,1.24,0,0,1,.29.41c-.18.11-.24.4-.42.21.12,0,.09-.14.11-.23,0,.07-.1.12-.15.18-.32-.25.22-.22.1-.47-.3.28-.68.72-1,.71-.15-.31.67-.32.18-.49a4,4,0,0,0,.49,0c-.53-.37.27-.07-.25-.48a1.89,1.89,0,0,0-.56.23.9.9,0,0,1-.59.17c-.11.21.09.26,0,.48-.89.44-.74-.78-1.36-.34-.17.23-.28.65-.73.36l.21-.36c-.58-.11-.44.49-1,.1.15-.11.5,0,.42-.08-.32-.38-.33.16-.64.06l0-.35a5.54,5.54,0,0,1-2-.61c.09,0,.25-.07.18-.25a3.21,3.21,0,0,1-1.5-2.16l-.4-.16c0-.08.06-.19.15-.14,0-.34-.18.06-.35,0s.06-.3.18-.21a2.5,2.5,0,0,1-.75-2.23l.1.12c.06-.5-.64-.54-.39-1l.06.09c.1-1.1.12-2.41.82-3.06-.35-.31.58-.91.09-1.23.56-.42.55-.22,1.2-.81.14-.18-.11-.51.05-.77l.24.2v-.51l.41.09a2,2,0,0,1,.13-.25c-.09.06-.26.06-.31,0,.22-.4.92-.55,1-.43l.65-.8c0,.11-.06.25-.12.39.26-.57.24.19.5-.3-.1,0-.07-.17-.09-.23a2.27,2.27,0,0,0,1.13-.48l0,.22c.34-.13.68-.32,1.06-.46a5,5,0,0,1,1.16-.41.25.25,0,0,1-.09-.49l.16.29c.12-.24-.28-.06,0-.38.32,0,.28.32.12.46l.36-.18c0,.09,0,.16,0,.28.13-.22.69.23.86-.15l0,.1a9.58,9.58,0,0,0,1-.11c.28,0,.55,0,.88,0,0-.28.3-.2.53-.39.25.09.51.19.77.31a3.38,3.38,0,0,0,.82.31c.44,0,.19-.19.42-.28,0,.25.53.44.17.5a5.29,5.29,0,0,1,.8.27,9.8,9.8,0,0,1,1,.31c0-.14-.1-.25,0-.29s.27.31.18.4h0c.56.11.91.68,1.2,1.17s.5,1,.94,1.18l-.05,0a5.37,5.37,0,0,1,.7.56c.16.37-.28-.11-.27.23a2,2,0,0,1,.47.45,4.12,4.12,0,0,1,.21.5,3.27,3.27,0,0,0,.43,1,1.72,1.72,0,0,0,.05,1.4,2.05,2.05,0,0,1,.08,1.49l.18-.06c.18.2-.1.26-.13.4.14,0,.15-.22.25-.1a5.54,5.54,0,0,1-.27,2.64,11.2,11.2,0,0,1-1.2,2.34c-.3.52.62.76-.17,1.23l-.15-.37a2.32,2.32,0,0,1-.43.86,3.74,3.74,0,0,1-.65.73c-.48.46-1,.85-1.46,1.35,0-.1,0-.19.08-.26-.36,0-.86.54-.77.71-.19.09-.13-.13-.29-.15s-.47.6-.71.46c0,0,0-.11.07-.15-.11.19-.78.34-.5.52-.51.08-.84.49-1.28.48-.14.39-.87.14-.82.58-.1-.44-1-.07-1.22.2.07-.16-.31-.07-.23-.29-.35.1-.66.26-.54.47-.77-.39-1.27.7-1.76.06a12.17,12.17,0,0,1-3,.73c0-.43,1.1-.07,1-.54a5.13,5.13,0,0,1-2.39.44c-.24-.08.15-.19.23-.26-.94.12-1.77-.2-2.62-.13,0,0,.11-.07.2-.09-.16,0-.36-.14-.38.07l.17,0c.2.34-.78.49-.85.62.41-.5-.77-.37-.15-1-.11,0-.26.07-.28.21-.14-.08-.16-.17,0-.28-.59,0-.45.21-1,0,0-.09.15-.09.23-.18a1.07,1.07,0,0,1-1-.07s0-.13.15-.08c-.7-.26-1.42-.08-2.07-.67.43-.23-.17-.28,0-.62l-.43-.15,0,.25c-.33-.21-.76-.22-1-.53l.33.06-.63-.41.24.37c-.44-.1-.27.4-.62,0,.11,0-.3-.29-.3-.59h0c-.22-.06-.48-.1-.6-.4,0-.14.34-.23.37-.32-.37.07-.67-.64-1.08-.65a.33.33,0,0,0,.29-.14l-.3,0c0-.2,0-.24.11-.31-.27-.48-.29.42-.49-.25,0,0,.07,0,.16.06-.28-.61-.82-1-1-1.65.27-.32.31.45.51.12a7.35,7.35,0,0,1-1.25-2.36v.17c-.55,0,.11-.69-.22-1.06.06.1.32.09.25.07a16.29,16.29,0,0,0-.5-2l.14.11c.11-.35.06-.91.15-1.27-.13-.12-.09-.33-.3-.22a2.2,2.2,0,0,0,.42-1.61,1.64,1.64,0,0,1,.5-1.47c0,.12,0,.31.05.22.07-.27.1-.56.2-.84-.24,0-.19,0-.42.15a.77.77,0,0,1,0-.63c0,.43.34.15.53,0-.08,0-.13-.09-.2-.11.56-.22-.38-.28.17-.71l.09.09c.06-.24,0-.52.2-.71.29,0,0,.27.15.4.18-.29,0-.87.38-1,0,.16-.15.35-.18.52.46-.12.4-.2.61-.37l0,0,.48-.38-.16.07c-.26-.79.47-.77.58-1.51-.12.72.11.24.29.49.17,0,.39-.13.41,0,0-.37.45-.16.52-.68.07.06.23-.18.33,0,.23-.29-.17-.08-.22-.19.24-.63,1.26-.45,1.71-1.23.51-.5.49-.86,1-1.28.27,0,0,.4,0,.4a1.38,1.38,0,0,0,.9-.35c0,.11,0,.15.19.22.23-.12,0-.4.44-.36a1.6,1.6,0,0,1-.14.44c.27-.16.51-.43.81-.6.12.15-.13.3-.21.44.32-.18.87-.35.94-.64l-.25,0c.13,0,.11.21,0,.28a.29.29,0,0,1-.5-.09l.21-.11c-.37-.52-.9.32-1.34.44l0-.46c-.12.15-.24.33-.35.49-.13-.07-.28-.26-.08-.4-.4-.07-.24.24-.6.14,0,0,0,0,0-.07l-.27.25c0-.11-.17-.24,0-.28-.68,0-.77.71-1.12.55l0-.05c-.69.54.06.29-.29.93l-.77-.41.09.3c-.08,0-.24.12-.28,0-.15.37.12.08.08.35-.52,0-.85.8-1.22.5,0,.27.42-.13.18.29-.45-.32-.34.4-.77.5-.1-.28.27-.44-.19-.34.14.49-.62.48-.78.8.25.24-.36.65-.6,1.17-.07-.1-.77.75-1.12,1.17l0,0c.26.27,0,.71-.13,1.1a.4.4,0,0,1-.24-.44l-.16.34a.72.72,0,0,1,0,.5l-.22-.19c-.17.48,0,1.05-.39,1.62.24.09.82-.28.81.37-.14,0-.38,0-.39-.22,0,.06.06.22,0,.32-.06-.11-.11-.21-.16-.32-.17.26.15.2.08.41-.19,0-.17.14-.32.07s.12-.18.07-.28a1.21,1.21,0,0,1-.44.61c.12,0,.26.05.25.24-.05.49-.26.13-.39.41.12.14-.07.44.23.48,0,.14-.15.15-.24.2.11.27,0,1.21.31.93l0-.06v0h0c.29.81-.12,1.73.15,2.53l-.09,0c.19.47.27,1.07.58,1.35,0,.13-.08.37-.21.35a1.5,1.5,0,0,1,.33.91c-.29-.3-.09.17-.25-.33.1.49,0,.68.44,1-.31-.06-.13.48,0,.67v-.4a4.94,4.94,0,0,1,.32.66l-.35,0a1.74,1.74,0,0,0,.82,1.18c.34.3.68.53.65,1.07.34.07-.21-.55.15-.52.23.4.22,1.07.32,1.19.31.63.78.1,1.17.66,0-.15.17-.43.61-.19s.13.74-.17.63c-.09-.06-.11-.13-.08-.15-.15-.06-.33-.16-.28.06l.13,0c.1.24.63.64.39.7.36.13.24-.06.07-.28.37.53.77.57,1.23,1,0-.11,0-.28,0-.22.7.6.46,0,1,.26.22.33-.31.32.31.48.29.27-.07.33-.25.34.62,0,.92.58,1.22.75-.11,0-.21,0-.32,0a2.77,2.77,0,0,1,.48.13l-.08-.28c.15.1.3.15.26.24.22-.08,0-.41.41-.49.19.19.71.11.69.42-.67-.32,0,.34-.63.18a1.06,1.06,0,0,1,.43.15s-.05.06-.1.06c.62.47.42-.25,1.12,0-.13.15.09.38.22.36-.29-.07-.07-.31.22-.39.43.23.52,0,.75.06l-.26-.11c.13-.16.35-.09.67-.09,0,.15-.3,0-.2.12.39-.24.75.44,1.27.3.22.14,0,.34.18.43.59-.19.6.3,1.21.14-.16-.24-.19-.18.23-.41-.32.06-.65.08-1,.12l.64-.3c-.28,0-.61.1-.79,0,.31-.17.28-.12.16-.33.36.39.78-.14,1.22.1l0,.59c.7.29,1.23-.3,2.13-.2l-.29-.09c.1-.23.54-.08.82-.19,0,.19.18.25.32.36,0-.14.66-.06.68-.47l.44.2c.73,0,.71-.7,1.39-.76-.16.25.18.33-.25.57.23,0,.45,0,.42-.19.16.1.56-.41.81-.28.07-.11,0-.31.3-.36a.1.1,0,0,1,0,.09c0-.09.35-.24.07-.38.86.4,1.84-.63,2.6-.38l1.37-.79c0,.06,0,.09,0,.11.65-.13.08-.68.79-.85.48.08-.24.34,0,.33.42.51.7-.52,1.31-.5l-.08.1c.45,0,.61-.75,1.1-1.11,0,0,0,.06.06.07a7.63,7.63,0,0,1,.87-1.67c.08.3-.07.29.2.37.14-.23-.36-.21-.09-.65.22,0,.53-.28.78-.18a3.18,3.18,0,0,1-.28.43c.47,0,.36-.56.57-.74l.11.11c.4-.7,0-.91.41-1.63l-.15,0c-.16-.55.34-.26.24-.78h.42c0-.32-.06-1.11,0-1.63a3.87,3.87,0,0,1,.25,1.43c.12-.28.24-1,.09-1.19,0,.12.07.29,0,.39a2.54,2.54,0,0,1-.17-1.47c.77.2.35-1.48.9-1.91-.3-1,0-2.12-.39-3.35-.47.58-.1-.35-.68-.1-.12-.26-.15-.36-.12-.39a7.4,7.4,0,0,0,0-.94c.08-.26.25.2.35.13-.21-.61.14-.34.11-.81-.17.17-.38-.08-.46-.46l0,.6c-.64-.67.1-.93-.63-1.58l.31.15c-.16-.18-.4-.55-.71-.88a1.47,1.47,0,0,0-1-.61c0-.1,0-.3.22-.17a4.19,4.19,0,0,0-.64-.62c-.26-.17-.53-.33-.79-.48a4.54,4.54,0,0,1-1.32-.89l.15-.08c-.2-.09-.46.07-.62-.18,0,0,.15-.1.06-.15a1.49,1.49,0,0,1-.82-.21,1.51,1.51,0,0,1,.28,0,2.24,2.24,0,0,0-1.32-.36,6.58,6.58,0,0,1-1.26.05c.1-.45-.73-.7-1.15-.83l0-.06a7.12,7.12,0,0,0-3.28.61c-.8-.43-2.41.3-3.58.53.2,0,.11.33-.05.45s-.54.58-.68.21l.09,0c-.37-.25-.82.14-1.21.35l.23.48a2.45,2.45,0,0,0-1.71,1.05c-.47.51-.76,1.07-1.25,1.08a7.93,7.93,0,0,0-.32.89l-.23-.17a5.13,5.13,0,0,0-1.07,1.88l-.1-.27c-.26.51.5.95.35,1.4h-.44c-.28.88-.8,1.81-.47,2.77a.22.22,0,0,1-.19-.21c-.06.44-.29,1.77.29,1.56-.38,0,0,1,.33,1.43l-.29,0c.44.35.55.33.79.86,0,.14-.17.18-.16,0,0,.48.36.25.42.82l-.24-.13c.16.45.24.38.54.53s.36.8.18,1a.6.6,0,0,1,.59.33c-.06.09-.16,0-.22,0,.34.78,1,.71,1.21,1.27a.21.21,0,0,0,0,.19,4.38,4.38,0,0,1-.77-.83c-.2.16.13.61-.42.51.22.11.54.23.85.35a2.77,2.77,0,0,1,.78.46.48.48,0,0,1,0,.12h-.06a.55.55,0,0,0,.3.16,1.28,1.28,0,0,0,.33.29c-.05.22.5.42.75.52.1-.26.39-.08.19-.42,0,0-.06,0-.22-.05a.25.25,0,0,0-.12,0l0,0c-.16-.06-.35-.18-.58-.3a.66.66,0,0,1,.68.25l.51-.27c.14.51.74.9.77,1.17.83.07,1.94.24,2.43-.31.21-.06.25.15.34.23-.13.07-.29,0-.36.13.45-.12,1.34-.15,1.38-.54.57.06-.25.39.5.19l-.08.13a2.11,2.11,0,0,0,1.86-.85,4.59,4.59,0,0,1,1.71-1.34c-.11.06-.17.08-.23.06A4,4,0,0,0,1023,778a24.05,24.05,0,0,0,.21-2.93c0-.55-.27-.56-.55-.8l.24-.21c-.17-.14-.35-.27-.52-.39-.3-.28-.26-.66-.36-1a1.21,1.21,0,0,0-.77-1l-.06.24c-.22-.3-.91-.66-.74-.8-.06,0-.22.11-.28-.06l.07-.13a3.58,3.58,0,0,0-.91-.18c-.62-.36.36-.58-.72-.91-.45,0-1.2.35-1,.46s.39.13.38.29l-.32.06c-.09.45-.21.92.32,1.29a1.51,1.51,0,0,1,.45-.2l.07.25-.32-.07c.13.26.27.1.45,0a.5.5,0,0,0,.07.29l.55-.24c0,.19-.32.24-.14.45.26-.07,0-.46.39-.39.07.3-.09.4.22.38a.22.22,0,0,1-.24.14c.25,0,.45.31.71.2,0,.35.56.53.18.79a1,1,0,0,1,.63.3c-.64-.07.34.7-.25.85.54.07.54.83.83,1.27,0,0-.12-.06-.11-.11,0,.28-.12.37-.21.54.38,0,.51.44.7.7-.41.3-.44-.25-.81-.16.31,0,.27.58.53.51-.29.2-.17.2-.51.24.46.17,0,.23.24.51-.37.24-.44-.09-.47.3C1020.67,778.47,1020.69,778.14,1020.68,778.13Zm-8.36,1.83h0l.19.12Zm-.66-.57.27.27c0,.09-.14.14-.2.08S1011.69,779.54,1011.66,779.39Zm.58,2.82c-.18-.05-.21-.13-.2-.19l.29.12,0,0A.28.28,0,0,1,1012.24,782.21Z" transform="translate(-921.91 -703.56)"/><path class="cls-1" d="M1012.69,782h.07l-.06-.1-.1,0Z" transform="translate(-921.91 -703.56)"/><path class="cls-1" d="M998.64,773.4v0l0,0Z" transform="translate(-921.91 -703.56)"/><polygon class="cls-1" points="90.2 64.68 90.14 64.64 90.14 64.73 90.2 64.68"/><path class="cls-1" d="M1000.78,768.39s.05,0,.09,0Z" transform="translate(-921.91 -703.56)"/><path class="cls-1" d="M1002,766.52l.27-.19A2.24,2.24,0,0,0,1002,766.52Z" transform="translate(-921.91 -703.56)"/><path class="cls-1" d="M1003.22,765.32a.54.54,0,0,0-.06-.11h0Z" transform="translate(-921.91 -703.56)"/><path class="cls-1" d="M1010.65,785.64h.07C1010.88,785.62,1010.77,785.62,1010.65,785.64Z" transform="translate(-921.91 -703.56)"/><path class="cls-1" d="M1003.2,782.64l.29.08C1003.4,782.61,1003.32,782.53,1003.2,782.64Z" transform="translate(-921.91 -703.56)"/><polygon class="cls-1" points="97.64 81.4 97.64 81.4 97.69 81.39 97.64 81.4"/><path class="cls-1" d="M1003.76,783a.58.58,0,0,0-.27-.27A.7.7,0,0,0,1003.76,783Z" transform="translate(-921.91 -703.56)"/><path class="cls-1" d="M1009.64,762h.08s0,0,0,0Z" transform="translate(-921.91 -703.56)"/><path class="cls-1" d="M1009.73,761.93l.08-.06S1009.73,761.89,1009.73,761.93Z" transform="translate(-921.91 -703.56)"/><path class="cls-1" d="M1010,761.77l-.17.1C1009.87,761.86,1010,761.85,1010,761.77Z" transform="translate(-921.91 -703.56)"/><path class="cls-1" d="M1007.46,762.49l0,.11A.26.26,0,0,0,1007.46,762.49Z" transform="translate(-921.91 -703.56)"/><path class="cls-1" d="M1006.85,762.8c.16,0,.46,0,.64-.12v-.08C1007.44,762.78,1006.92,762.58,1006.85,762.8Z" transform="translate(-921.91 -703.56)"/><path class="cls-1" d="M1003.64,763.29l.56-.3c-.15,0-.36-.06-.14-.25C1003.22,763,1004.34,762.84,1003.64,763.29Z" transform="translate(-921.91 -703.56)"/><path class="cls-1" d="M1002.08,764.49c.2-.27-.12-.11-.15-.16C1001.85,764.56,1001.84,764.62,1002.08,764.49Z" transform="translate(-921.91 -703.56)"/><path class="cls-1" d="M999.05,777.79l-.25.05C998.91,778.08,998.89,777.81,999.05,777.79Z" transform="translate(-921.91 -703.56)"/><polygon class="cls-1" points="79.36 76.12 79.39 75.84 79.13 75.85 79.36 76.12"/><polygon class="cls-1" points="78.65 78.41 78.55 78.34 78.9 78.65 78.65 78.41"/><path class="cls-1" d="M1022.81,786.52l-.19-.26C1022.48,786.37,1022.56,786.72,1022.81,786.52Z" transform="translate(-921.91 -703.56)"/><path class="cls-1" d="M1030.43,779.6a.41.41,0,0,0,.32-.51C1030.65,779.31,1030.45,779.48,1030.43,779.6Z" transform="translate(-921.91 -703.56)"/><polygon class="cls-1" points="90.41 61.07 90.53 60.85 90.24 61.17 90.41 61.07"/><path class="cls-1" d="M1037.33,839.35a.15.15,0,0,0,.29,0l-.22-.3Z" transform="translate(-921.91 -703.56)"/><path class="cls-1" d="M1038.51,838.41c-.06-.3-.23-.66-.56-.63.21.34.08.34.32.73-.07.2-.27.27-.36.19,0,.1-.21.24-.08.44a.73.73,0,0,0,.49-.84C1038.41,838.26,1038.46,838.37,1038.51,838.41Z" transform="translate(-921.91 -703.56)"/><path class="cls-1" d="M1031.86,820l.08.11A.21.21,0,0,0,1031.86,820Z" transform="translate(-921.91 -703.56)"/><path class="cls-1" d="M1019.59,815.54c.1,0,.14,0,.15-.07S1019.57,815.51,1019.59,815.54Z" transform="translate(-921.91 -703.56)"/><path class="cls-1" d="M1017.27,815.24h.14S1017.3,815.21,1017.27,815.24Z" transform="translate(-921.91 -703.56)"/><path class="cls-1" d="M1031.86,820l-.23-.29C1031.55,819.76,1031.73,819.86,1031.86,820Z" transform="translate(-921.91 -703.56)"/><path class="cls-1" d="M1038.47,835.55a.62.62,0,0,0,.07.19l0-.17Z" transform="translate(-921.91 -703.56)"/><path class="cls-1" d="M1036.25,823.83l.07.09h.16Z" transform="translate(-921.91 -703.56)"/><path class="cls-1" d="M1038.66,827.66c0-.1-.3,0-.43,0a.32.32,0,0,1,.27.12A.37.37,0,0,0,1038.66,827.66Z" transform="translate(-921.91 -703.56)"/><path class="cls-1" d="M1039.7,834.71a.27.27,0,0,1,0,.12A.3.3,0,0,0,1039.7,834.71Z" transform="translate(-921.91 -703.56)"/><path class="cls-1" d="M1034.11,821.4a.26.26,0,0,0,0-.1A.12.12,0,0,0,1034.11,821.4Z" transform="translate(-921.91 -703.56)"/><path class="cls-1" d="M1022.39,827.24l0,0S1022.37,827.22,1022.39,827.24Z" transform="translate(-921.91 -703.56)"/><path class="cls-1" d="M1019.13,824.82l.06,0a.88.88,0,0,0-.05-.15Z" transform="translate(-921.91 -703.56)"/><path class="cls-1" d="M1013,815.82h0C1013.1,815.75,1013,815.78,1013,815.82Z" transform="translate(-921.91 -703.56)"/><path class="cls-1" d="M1019.06,841.91c-.47-.21.67-.39,0-.61C1019.12,841.41,1018.49,841.8,1019.06,841.91Z" transform="translate(-921.91 -703.56)"/><path class="cls-1" d="M1038.52,835.45a.88.88,0,0,1,0-.16A.33.33,0,0,0,1038.52,835.45Z" transform="translate(-921.91 -703.56)"/><path class="cls-1" d="M1019,841.3h0l-.07,0Z" transform="translate(-921.91 -703.56)"/><path class="cls-1" d="M1005.42,822.34a.45.45,0,0,0,.16,0S1005.51,822.3,1005.42,822.34Z" transform="translate(-921.91 -703.56)"/><path class="cls-1" d="M1010.9,817.39l-.18.05A.65.65,0,0,0,1010.9,817.39Z" transform="translate(-921.91 -703.56)"/><path class="cls-1" d="M1004.35,826c-.05.09-.1.11-.1.25l0,0C1004.27,826.2,1004.27,826.14,1004.35,826Z" transform="translate(-921.91 -703.56)"/><path class="cls-1" d="M1003.85,830l.06-.07,0-.13Z" transform="translate(-921.91 -703.56)"/><path class="cls-1" d="M1018.86,832a.89.89,0,0,1,.07.28C1018.94,832.05,1019.39,832.09,1018.86,832Z" transform="translate(-921.91 -703.56)"/><path class="cls-1" d="M1038.63,835.57c-.07,0-.1-.06-.11-.12v.12A.11.11,0,0,0,1038.63,835.57Z" transform="translate(-921.91 -703.56)"/><path class="cls-1" d="M1006.45,826.74a5,5,0,0,0-.16.51C1006.35,827.11,1006.39,826.92,1006.45,826.74Z" transform="translate(-921.91 -703.56)"/><path class="cls-1" d="M1027.22,823.28l-.11-.06A.13.13,0,0,0,1027.22,823.28Z" transform="translate(-921.91 -703.56)"/><path class="cls-1" d="M1006.11,828.83a.75.75,0,0,0-.22.29s0,0,.07.06Z" transform="translate(-921.91 -703.56)"/><path class="cls-1" d="M1018.93,832.26Z" transform="translate(-921.91 -703.56)"/><path class="cls-1" d="M1021.71,831.44c-.32.15,0,.4,0,.63-.45.28-.31-.18-.52-.3-.22.2-.44.52-.69.55,0-.06-.07-.08,0-.16-.34.3-1,0-1.53.2a.22.22,0,0,1,0-.1,1.15,1.15,0,0,1-.07.51c-.23,0-.5.09-.5-.17.13.06.18,0,.26-.08h-.26c-.08-.41.35,0,.43-.24l-.75,0a1.3,1.3,0,0,1-.62-.23c.11-.33.79.28.51-.21a2.87,2.87,0,0,0,.44.34c-.17-.64.27.14.15-.52-.54-.34-.74-.15-1.24-.6-.24.07-.12.26-.36.32-.5-.2-.52-.49-.48-.75s.08-.44-.29-.57-.72.2-.78-.38l.42,0c-.28-.55-.69-.07-.71-.8.19.06.31.42.31.31.14-.51-.34-.19-.42-.53l.31-.15a5,5,0,0,1-.39-2.18c.08.07.15.21.3.06a3.39,3.39,0,0,1,1.57-2.48,3.71,3.71,0,0,1,0-.47c.06-.06.21,0,.18.09.36-.18-.12-.15-.06-.36s.33-.07.29.09a3.61,3.61,0,0,1,.83-1.07,2.21,2.21,0,0,1,1.25-.55l-.09.13c.55-.09.36-.83,1-.71l-.09.07c1.2-.27,2.62-.58,3.45,0,.11-.19.39-.07.66,0s.49.23.64,0c.52.52.29.55,1,1.19.17.18.51-.06.8.1l-.19.24a3.07,3.07,0,0,1,.53,0l-.1.43.26.16c-.07-.1-.07-.28,0-.32a1,1,0,0,1,.43,1.12c.29.24.52.53.8.81-.12,0-.26-.11-.4-.19.57.36-.22.23.26.58,0-.09.18,0,.24-.05a1.34,1.34,0,0,0,.11.61,3.28,3.28,0,0,0,.27.7l-.23,0a11.39,11.39,0,0,1,.51,2.61c.09-.34.46-.29.5,0l-.32.12c.21.18.11-.3.37.08,0,.37-.36.23-.47,0,0,.14.07.28.1.43s-.14-.08-.27-.11c.19.18-.35.69,0,1h-.1a11.86,11.86,0,0,1-.36,2c.26.11.09.37.22.67-.16.25-.37.48-.56.73a5.74,5.74,0,0,0-.6.76c-.16.46.11.25.11.53-.23-.13-.63.42-.55,0-.23.34-.43.52-.6.76s-.38.48-.71.91c.15,0,.28,0,.28.06s-.4.21-.46.09l0-.05a2.24,2.24,0,0,1-.75.6,7.76,7.76,0,0,1-1,.33,2.87,2.87,0,0,0-1.62.67l0,0a8.47,8.47,0,0,1-.85.58c-.45.1.21-.26-.16-.31-.92.7-1.64.34-2.47.72a2.11,2.11,0,0,0-1.59-.22,2.82,2.82,0,0,1-1.72-.21l0,.18c-.25.15-.27-.12-.43-.19,0,.15.23.19.07.27a9.52,9.52,0,0,1-5.49-2.43c-.52-.44-.89.5-1.29-.44l.41-.08a3.73,3.73,0,0,1-1.52-1.48l-.54-1a5,5,0,0,0-.53-.95c.1.06.2,0,.25.15.09-.34-.28-1.06-.49-1,0-.22.16-.09.22-.24.06-.31-.41-.71-.21-.9,0,0,.09.08.11.13-.15-.18-.08-.91-.33-.71.14-.55-.19-1.05,0-1.48-.28-.31.22-.93-.19-1.07.44.1.53-.89.4-1.29.1.15.22-.26.37-.08.1-.38.12-.75-.12-.75a1.31,1.31,0,0,0,.44-1c0-.33.07-.65.49-.68a9.25,9.25,0,0,1,.59-1.63c.13-.25.24-.52.38-.75l.46-.69c.32.33-.74.94-.3,1.21.44-.89.56-1.62,1.39-2.22.24-.13,0,.25,0,.37.62-.83,1.54-1.14,2.22-1.79,0,0,0,.13-.11.21.15-.1.39-.15.28-.32l-.12.13c-.2-.06-.12-.28,0-.51s.35-.44.33-.52c0,.67.92-.24.75.65.09-.09.19-.24.12-.35.17,0,.25,0,.15.23.56-.32.28-.44.84-.63,0,.1-.07.17-.09.3a1.2,1.2,0,0,1,1-.59c0,.06.06.13-.08.16.81-.24,1.36-.81,2.35-.74-.24.45.34.13.42.49l.5-.14-.22-.17c.45,0,.85-.29,1.25-.16l-.34.15.85-.06-.48-.15c.47-.18,0-.47.58-.35-.13,0,.46,0,.68.28h0a1,1,0,0,1,.82-.07c.08.13-.12.4-.07.49.26-.28,1.06.08,1.4-.2a.32.32,0,0,0-.12.3l.23-.21c.19.13.21.17.15.32.61.19-.1-.51.6-.14-.06,0-.05.05-.18.06a17.5,17.5,0,0,1,2.11.57c.08.41-.61-.1-.48.27a11.27,11.27,0,0,1,3,.81l-.15-.11c.37-.43.54.56,1.09.57-.13,0-.28.19-.22.15a17.25,17.25,0,0,0,2.19,1l-.18,0c.24.33.82.64,1.09,1,.19,0,.36.14.37-.11a2.9,2.9,0,0,0,1.3,1.39,2.21,2.21,0,0,1,1.16,1.35c-.09-.11-.31-.17-.23-.09l.71.69c.13-.2,0-.19,0-.47a1,1,0,0,1,.61.38c-.41-.27-.29.22-.29.45,0-.07.14-.06.19-.11,0,.67.43-.2.61.55l-.12,0c.2.19.49.3.6.58-.17.24-.25-.18-.45-.08.22.33.84.43.8.88-.15-.11-.28-.32-.43-.43a1,1,0,0,0,.13.77v0c.06.22.12.45.17.67v-.19c.86.14.58.85,1.24,1.32-.65-.46-.28,0-.58.05,0,.19,0,.47-.11.43.35.2,0,.54.46.85-.09,0,.09.33-.17.33.2.36.14-.14.27-.14a1.34,1.34,0,0,1,.24,1.05,2.68,2.68,0,0,0,0,.63,1.47,1.47,0,0,0,.23.63,11,11,0,0,1,.75,1.66c-.15.25-.36-.22-.36-.22a2.1,2.1,0,0,0-.07,1.08c-.08-.08-.16,0-.28.09,0,.29.35.25.13.61a1.9,1.9,0,0,1-.34-.35,9.46,9.46,0,0,1,.13,1.1c-.18,0-.2-.28-.28-.42,0,.2,0,.46,0,.69a.76.76,0,0,0,.1.55l.19-.22c0,.15-.25,0-.26-.12-.07-.38.22-.46.33-.45v.27c.59-.12.2-1.06.26-1.56l.38.28-.28-.6c.12-.1.36-.16.39.11.25-.37-.1-.35.15-.68,0,0,.06,0,.07,0l-.12-.4c.09.08.29-.06.23.18.24-.71-.3-1.12,0-1.4l0,0c-.25-.95-.32-.07-.75-.73a7.59,7.59,0,0,0,.66-.6l-.32,0c0-.1,0-.3.1-.28-.28-.33-.11.08-.35-.09.2-.54-.46-1.22,0-1.47-.27-.09,0,.49-.34.05.45-.3-.25-.53-.2-1,.3,0,.32.47.38,0-.53-.08-.21-.85-.47-1.15-.34.14-.47-.68-.89-1.16A6.43,6.43,0,0,0,1037,825l.06,0c-.38.12-.63-.43-1-.71a.42.42,0,0,1,.53,0l-.26-.32a.77.77,0,0,1-.49-.25l.28-.09c-.35-.44-1-.64-1.3-1.29-.21.16-.15.9-.76.48.08-.11.23-.3.4-.2-.06,0-.23-.09-.28-.21l.37,0c-.14-.31-.25,0-.42-.18.14-.14,0-.23.1-.32s.1.22.23.23a1.33,1.33,0,0,1-.34-.74.22.22,0,0,1-.35.07c-.41-.37,0-.32-.16-.6-.19,0-.37-.32-.57-.1-.12-.1-.06-.23-.06-.33-.29-.1-1.08-.78-1-.33l0,.06,0,0h0c-.9-.3-1.49-1.22-2.36-1.56l.05-.09a5.73,5.73,0,0,0-1.56-.48c-.14-.06-.27-.32-.16-.39a1.84,1.84,0,0,1-1-.41c.46,0-.08-.2.45,0-.48-.29-.55-.47-1.19-.43.28-.17-.28-.46-.56-.45l.31.29a4.09,4.09,0,0,1-.77-.25l.23-.28a2.13,2.13,0,0,0-1.53-.3,1.55,1.55,0,0,1-1.32-.37c-.33.18.58.26.27.48-.5-.13-1-.69-1.13-.72-.71-.26-.73.42-1.46.23.09.13.16.43-.39.53-.5-.06-.62-.51-.29-.6.13,0,.19,0,.18.07.17,0,.39-.09.19-.22l-.07.12c-.26-.13-1-.13-.81-.32-.4.11-.17.19.12.26-.68-.2-1,0-1.76-.06.12.06.23.19.12.2-1-.07-.42.27-1.09.4-.41-.12.08-.45-.59-.2-.44,0-.15-.29,0-.41a3.32,3.32,0,0,1-1.6.15l.32-.17a2.55,2.55,0,0,1-.53.18l.26.18c-.21,0-.37.06-.4,0-.15.22.26.33-.06.66-.29,0-.71.38-.9.11.82-.16-.2-.27.46-.54a1.05,1.05,0,0,1-.49.15s0-.07.06-.1c-.88,0-.23.46-1,.78,0-.21-.31-.23-.42-.14.31-.14.27.2.05.45-.54.1-.46.36-.71.48l.3-.1c0,.21-.24.31-.53.54-.1-.1.24-.24.09-.23-.09.23-.33.27-.59.32a1.14,1.14,0,0,0-.72.4c-.28.06-.22-.25-.46-.18-.4.56-.71.29-1.11.89.32,0,.29,0,.11.47l.71-.89-.3.75c.25-.22.41-.6.6-.69-.14.36-.14.3.1.34-.57,0-.51.76-1.05.94l-.41-.42c-.73.45-.75,1.26-1.41,2l.27-.22c.11.25-.33.55-.43.87-.16-.13-.32,0-.49.09.13.05-.37.67-.06.93l-.45.29c-.4.75.14,1.09-.16,1.8-.13-.3-.38,0-.35-.56-.1.25-.19.48-.07.52-.16.12,0,.78-.2,1,.05.13.25.21.18.49-.05,0-.1,0-.1,0s0,.48.31.27c-.78.68-.28,2.2-.77,2.88,0,.29.07.61.11.92l.17.86c-.07,0-.1,0-.09-.09-.07.75.57.35.58,1.17-.2.48-.28-.38-.33-.1-.3.13-.21.37-.08.66a1.72,1.72,0,0,1,.26.93l-.09-.12c0,.49.58.92.93,1.53,0,0-.07,0-.09,0a3.42,3.42,0,0,1,.79.64,10.06,10.06,0,0,1,.81.74c-.31,0-.29-.15-.4.11.22.21.25-.32.68.07,0,.22.27.6.12.84l-.43-.38c0,.46.56.51.74.76l-.13.09c.72.55,1,.22,1.72.74l0-.15c.62-.09.26.4.83.38l0,.42c.35.07,1.21.15,1.78.26a4.18,4.18,0,0,1-1.58,0c.3.15,1.06.42,1.29.29-.14,0-.33,0-.43-.08a2.79,2.79,0,0,1,1.63.08c-.33.72,1.58.6,2,1.23,1.2-.11,2.32.38,3.72.25-.52-.57.4,0,.27-.65.3-.07.42-.08.45,0a8.52,8.52,0,0,0,1,.23c.25.14-.28.19-.23.32.71-.08.33.2.83.28-.13-.19.19-.35.6-.37l-.61-.14c.87-.56,1,.33,1.84-.3l-.25.29c.47-.25,1.84-.64,2.07-1.33.12,0,.3.12.11.26,1.19-.46,2.11-1.8,3-2.21l0,.18c.15-.19.13-.47.44-.56,0,.06,0,.18.12.11a1.79,1.79,0,0,1,.52-.79l-.06.3c1-.77.89-1.71,1.31-2.6.36.22,1-.58,1.2-1l0,0a7.29,7.29,0,0,0,.3-3.76c.59-.78.23-2.75.11-4.08,0,.22-.33.05-.44-.16s-.55-.7-.15-.79l0,.11c.32-.36,0-.93-.24-1.4l-.51.16a2.9,2.9,0,0,0-1-2c-.58-.55-1.13-1-1.21-1.45a5.39,5.39,0,0,0-1-.41l.17-.23a5.28,5.28,0,0,0-2.28-1.09l.29-.13c-.66-.17-1,.55-1.54.52l-.11-.44a4.77,4.77,0,0,0-3.23.24.23.23,0,0,1,.17-.25c-.25.05-.74.13-1.14.25s-.65.35-.46.57c-.07-.17-.33-.07-.63.12a6.19,6.19,0,0,0-.78.74l-.07-.28c-.24.53-.17.65-.64,1.1-.15.06-.25-.1,0-.16-.51.19-.15.44-.71.75l0-.29c-.41.35-.32.39-.37.74s-.7.71-.95.63a.7.7,0,0,1-.14.74c-.1,0-.09-.14-.08-.21a1.69,1.69,0,0,0-.48,1,1.7,1.7,0,0,1-.32.82.19.19,0,0,0-.19.06,3.73,3.73,0,0,1,.51-1.18c-.23-.12-.53.44-.65-.17,0,.28,0,.65,0,1a2,2,0,0,1-.14,1,.31.31,0,0,1-.09.07l0-.07a.58.58,0,0,0,0,.39,1.85,1.85,0,0,0-.13.5c-.25.06-.13.73-.1,1.05.28-.05.27.35.47-.05,0,.05,0,0-.07-.25a.4.4,0,0,0,0-.13l0,0a2.67,2.67,0,0,1,0-.75,1,1,0,0,1,.09.82l.49.36c-.41.42-.36,1.27-.56,1.47.43.89,1.17,2,1.94,2,.22.13.09.31.09.44-.14-.07-.25-.2-.36-.21.43.31,1.15,1,1.47.76.43.49-.49.08.27.52l-.16,0a2.5,2.5,0,0,0,2.16.8,7.58,7.58,0,0,1,2.44.17c-.14,0-.21,0-.24-.1a3.93,3.93,0,0,0,3-1.33,6.28,6.28,0,0,0,1.38-3.13c.1-.66-.2-.7-.42-1l.27-.2c-.17-.19-.35-.35-.52-.51a2.77,2.77,0,0,1-.33-1.22,2.33,2.33,0,0,0-.22-.66,1.63,1.63,0,0,0-.62-.53,2.21,2.21,0,0,1-.05.25,4.55,4.55,0,0,0-.59-.53c-.21-.15-.39-.27-.29-.35-.06,0-.23.11-.31-.07l.06-.15a4,4,0,0,0-1.07-.1c-.38-.12-.35-.27-.35-.42s-.05-.33-.76-.28a1.61,1.61,0,0,0-.78.46c-.2.2-.29.37-.2.39s.47,0,.52.09l-.32.2c.09.45.21.92.82,1.06a1.77,1.77,0,0,1,.34-.33l.13.2a1.57,1.57,0,0,1-.3,0c.19.22.26,0,.41-.12a.56.56,0,0,0,.11.28,1.38,1.38,0,0,1,.5-.32c0,.18-.29.28-.1.46.26-.13,0-.45.36-.45.1.31-.07.42.25.4a.22.22,0,0,1-.23.15c.27,0,.48.32.75.21,0,.35.59.6.2.84a1,1,0,0,1,.64.39c-.33-.07-.25.13-.16.35s.14.51-.14.53c.57.15.43.95.61,1.44,0,0-.1-.09-.07-.13a.85.85,0,0,1-.35.44c.36.11.36.56.41.88-.49.1-.3-.4-.67-.47.3.13,0,.59.26.66-.35,0-.24.08-.54-.06.32.4-.11.2-.1.57-.45,0-.32-.33-.6,0C1021.5,831.74,1021.72,831.43,1021.71,831.44Zm-6.91-5.21h0a.78.78,0,0,0,0,.24A.88.88,0,0,1,1014.8,826.23Zm.28-.94a1.19,1.19,0,0,0-.15.4c-.1,0-.19-.06-.16-.16C1014.81,825.6,1014.93,825.39,1015.08,825.29Zm-2.35,2c-.05-.21,0-.28.08-.31a1.27,1.27,0,0,0,0,.37l0,0A.36.36,0,0,1,1012.73,827.31Z" transform="translate(-921.91 -703.56)"/><path class="cls-1" d="M1013.12,827.67s0,0,0,.08a.61.61,0,0,0,.05-.12l-.09-.07Z" transform="translate(-921.91 -703.56)"/><path class="cls-1" d="M1032,820.11l0,0a.14.14,0,0,1,0,.06Z" transform="translate(-921.91 -703.56)"/><polygon class="cls-1" points="104.46 119.07 104.5 119.02 104.4 119.02 104.46 119.07"/><path class="cls-1" d="M1035.59,825.07a.19.19,0,0,0,0,.11A.28.28,0,0,0,1035.59,825.07Z" transform="translate(-921.91 -703.56)"/><path class="cls-1" d="M1036.92,827.27l.07.37A1.87,1.87,0,0,0,1036.92,827.27Z" transform="translate(-921.91 -703.56)"/><path class="cls-1" d="M1037.62,829.1a.23.23,0,0,0,.12,0h-.12Z" transform="translate(-921.91 -703.56)"/><path class="cls-1" d="M1011.92,819l0,0C1011.74,819.15,1011.83,819.07,1011.92,819Z" transform="translate(-921.91 -703.56)"/><path class="cls-1" d="M1020.68,816.67a1.63,1.63,0,0,1-.31.11C1020.54,816.81,1020.66,816.83,1020.68,816.67Z" transform="translate(-921.91 -703.56)"/><polygon class="cls-1" points="84.56 123.13 84.55 123.12 84.54 123.18 84.56 123.13"/><path class="cls-1" d="M1019.94,816.74a.73.73,0,0,0,.43,0A.89.89,0,0,0,1019.94,816.74Z" transform="translate(-921.91 -703.56)"/><path class="cls-1" d="M1038.09,837.17l0,.08,0,0Z" transform="translate(-921.91 -703.56)"/><path class="cls-1" d="M1038.09,837.27v.11A.14.14,0,0,0,1038.09,837.27Z" transform="translate(-921.91 -703.56)"/><path class="cls-1" d="M1038.08,837.6v-.22C1038.06,837.45,1038,837.53,1038.08,837.6Z" transform="translate(-921.91 -703.56)"/><path class="cls-1" d="M1038.67,834.75l-.1,0A.13.13,0,0,0,1038.67,834.75Z" transform="translate(-921.91 -703.56)"/><path class="cls-1" d="M1038.64,834c0,.18-.22.45-.15.7l.08,0C1038.42,834.6,1038.81,834.16,1038.64,834Z" transform="translate(-921.91 -703.56)"/><path class="cls-1" d="M1039.39,830.48c0,.23.06.47.09.7.08-.14.18-.34.28,0C1039.88,830.2,1039.58,831.39,1039.39,830.48Z" transform="translate(-921.91 -703.56)"/><path class="cls-1" d="M1038.81,828.35c.19.34.15-.06.21-.07C1038.84,828.09,1038.8,828.05,1038.81,828.35Z" transform="translate(-921.91 -703.56)"/><path class="cls-1" d="M1027.83,817.47l.14-.22C1027.68,817.16,1027.92,817.34,1027.83,817.47Z" transform="translate(-921.91 -703.56)"/><polygon class="cls-1" points="102.71 114.13 102.92 114.36 103.11 114.18 102.71 114.13"/><path class="cls-1" d="M1023.37,815.49h.14a4.35,4.35,0,0,0-.51,0Z" transform="translate(-921.91 -703.56)"/><path class="cls-1" d="M1003.6,829.24l.33-.08C1003.89,829,1003.54,828.89,1003.6,829.24Z" transform="translate(-921.91 -703.56)"/><path class="cls-1" d="M1009,839.38a.52.52,0,0,0,.53.43C1009.3,839.66,1009.14,839.42,1009,839.38Z" transform="translate(-921.91 -703.56)"/><polygon class="cls-1" points="108.23 119.77 108.45 119.94 108.13 119.57 108.23 119.77"/></svg>