<svg id="Layer_1" data-name="Layer 1" xmlns="http://www.w3.org/2000/svg" viewBox="0 0 1891.68 329.55"><defs><style>.cls-1{fill:none;stroke:#000;stroke-linecap:round;stroke-linejoin:round;stroke-width:2px;}</style></defs><title>noise</title><path class="cls-1" d="M1350.13,1112.53l2.76,2.75,12.77-22.21" transform="translate(-12.95 -928.99)"/><path class="cls-1" d="M387.19,1145.74l-4.54,9.1-13.51,1.32,6.4,11.62" transform="translate(-12.95 -928.99)"/><path class="cls-1" d="M882.33,1210.12c5.62,3.45,11.48,6.58,16.8,10.45s6.41,8.16.17,13c-4.8,3.71-8.73,8.52-13,12.85" transform="translate(-12.95 -928.99)"/><path class="cls-1" d="M516.76,1104.15c.73,3.16,1.46,6.31,1.88,8.16l27.93-5.59" transform="translate(-12.95 -928.99)"/><path class="cls-1" d="M240.8,1221l19-3.19,3,30.39" transform="translate(-12.95 -928.99)"/><path class="cls-1" d="M586.87,1254.44c8.64.42,17.29.8,25.92,1.29,6.06.34,12.1.83,18.15,1.26" transform="translate(-12.95 -928.99)"/><path class="cls-1" d="M315.89,1121.17c-1.15-2.23-2.29-4.47-4.05-7.9l-6.9,10.86,10.95,2.23" transform="translate(-12.95 -928.99)"/><path class="cls-1" d="M485.64,1086l-10,1.87,13.38,4.9-8.57,11.37" transform="translate(-12.95 -928.99)"/><path class="cls-1" d="M50.23,1164.16c1.18,3.52,2.36,7,3.51,10.49l7.95-3.24,1.76,1.47-2.84,4.24" transform="translate(-12.95 -928.99)"/><path class="cls-1" d="M288.71,1166.56h9.69c-1.25-5.52-2.24-9.89-3.22-14.26" transform="translate(-12.95 -928.99)"/><path class="cls-1" d="M908.15,1080.5l18.16,20.72" transform="translate(-12.95 -928.99)"/><path class="cls-1" d="M561,1251.87l23.89,5.67c.09-1.08.19-2.17.28-3.26l4.74-14.4c9.76,3.25,20.18,3.67,24.23,14.53" transform="translate(-12.95 -928.99)"/><path class="cls-1" d="M962.65,1168.58l7.63,1.42c-.74,6.48-1.47,12.91-2.32,20.44l-11.77,1.48" transform="translate(-12.95 -928.99)"/><path class="cls-1" d="M400.18,1179.42l12.36-1.77c7.42,8.31,25.19,11.17,21.36,30.26" transform="translate(-12.95 -928.99)"/><path class="cls-1" d="M1277.59,1161.84l-6.49-4.86-10.37,4c.82,4.33,1.72,9.08,2.61,13.83" transform="translate(-12.95 -928.99)"/><path class="cls-1" d="M1516.14,1251.06l23.18,2.47-.41,1,12.08,2.75c.58-4.11,1-7.13,1.43-10.16" transform="translate(-12.95 -928.99)"/><path class="cls-1" d="M1133.68,1106.23l12.9,9.19c-2.52,5-5.11,10.24-7.69,15.43" transform="translate(-12.95 -928.99)"/><path class="cls-1" d="M112.46,1182.26l19.24,2.89-3.69-5.5" transform="translate(-12.95 -928.99)"/><path class="cls-1" d="M525.84,1115.81l17.11,1c-.52-2.52-1-5-1.56-7.49" transform="translate(-12.95 -928.99)"/><path class="cls-1" d="M814.83,1075.39l20.72-13" transform="translate(-12.95 -928.99)"/><path class="cls-1" d="M1667.76,1234.09c-5.62.87-11.34,1.32-16.8,2.77-2.85.77-5.23,3.29-7.82,5" transform="translate(-12.95 -928.99)"/><path class="cls-1" d="M1501.8,1152.58v13l3.64,1.65-19.51,12.17c3,4.06,6.83,9.38,10.71,14.69" transform="translate(-12.95 -928.99)"/><path class="cls-1" d="M674.89,1114.39l11.62,13.93,7.83-1" transform="translate(-12.95 -928.99)"/><path class="cls-1" d="M1689.79,1228.88c.62,2.57,1.23,5.13,2,8.43h10.61c-.41-6.65-.78-12.67-1.09-17.59l10.62-1.32,1-3-9-6" transform="translate(-12.95 -928.99)"/><path class="cls-1" d="M1513.52,1220c-7.87-6.29-11.72-.57-15.9,4.94,4.32,11.5,13.49,10.08,22.65,9.27l3.28-16.39c3.5,1.69,11-7.8,12,4.75" transform="translate(-12.95 -928.99)"/><path class="cls-1" d="M1402,1150.07l13.49-1.7,13.73,6.86" transform="translate(-12.95 -928.99)"/><path class="cls-1" d="M983.43,1210c6.93.79,15.47-3.23,19.44,6.46" transform="translate(-12.95 -928.99)"/><path class="cls-1" d="M541.5,1246.7q.64-11,1.28-22" transform="translate(-12.95 -928.99)"/><path class="cls-1" d="M405.32,1125l-13,6.5v9.07" transform="translate(-12.95 -928.99)"/><path class="cls-1" d="M1107.88,1246.22l15.43,10.44,17-10.46" transform="translate(-12.95 -928.99)"/><path class="cls-1" d="M633.43,1137.75c11.65-2.83,4.74,8.8,11.41,10.24l-7,3.85,6,11.83" transform="translate(-12.95 -928.99)"/><path class="cls-1" d="M405.38,1195c.44,8.21.29,16.51,1.53,24.59.75,4.84,3.67,9.35,5.72,14.29l14.81,0" transform="translate(-12.95 -928.99)"/><path class="cls-1" d="M888.77,1153.09l7.58,4.48c1.36,4.76,2.86,10,4.71,16.45l12.09-6.2c.4,3.33.72,6,1.15,9.5,10-5.66,18.54-4.07,27.21,3.49l-4.76,3.35" transform="translate(-12.95 -928.99)"/><path class="cls-1" d="M444.3,1241.6h3.89" transform="translate(-12.95 -928.99)"/><path class="cls-1" d="M478,1236.38q-.72-8.3-1.43-16.6l4.13-1.55,12.85,14.25" transform="translate(-12.95 -928.99)"/><path class="cls-1" d="M1297,1139.79h11.67v13" transform="translate(-12.95 -928.99)"/><path class="cls-1" d="M1298.38,1224,1287,1208l18.43-5.79,1.35,2.6q2.2-5.38,4.39-10.76l2.94.25q-.74,5.13-1.46,10.26" transform="translate(-12.95 -928.99)"/><path class="cls-1" d="M172.1,1209.42c7.78.43,15.56.75,23.33,1.32,4.26.31,8.48,1,12.9.39,7.61,5,15.32,9.52,24.69,3.43" transform="translate(-12.95 -928.99)"/><path class="cls-1" d="M742.33,1171.36c3.46,2.16,6.7,4.88,10.44,6.28,2.66,1,6,.19,9,.18" transform="translate(-12.95 -928.99)"/><path class="cls-1" d="M1236.12,1161.87l5.38-12.09c7.86,2.86,8,9.27,7.58,16" transform="translate(-12.95 -928.99)"/><path class="cls-1" d="M1238.74,1200.75l-6.49-7.77-6.46,4.56,11.91,16.9,3.11-.36c.93-5.32,1.85-10.64,3.07-17.68l10.42,12.11" transform="translate(-12.95 -928.99)"/><path class="cls-1" d="M690.47,1146.78c-.37,5.18-.73,10.36-1.14,16.25l14.11-2" transform="translate(-12.95 -928.99)"/><path class="cls-1" d="M783.76,1119.48l19.45,13" transform="translate(-12.95 -928.99)"/><path class="cls-1" d="M96.86,1133l20.74,0" transform="translate(-12.95 -928.99)"/><path class="cls-1" d="M117.68,1221.13c5,5.1,9.55,11.13,18.15,7.76" transform="translate(-12.95 -928.99)"/><path class="cls-1" d="M243.36,1179.55l6.29,12.85,11.42-6.44,8.22,3.94" transform="translate(-12.95 -928.99)"/><path class="cls-1" d="M226.44,1099.21c8.86-1.47,13.68,4.14,18.15,10.36" transform="translate(-12.95 -928.99)"/><path class="cls-1" d="M1727.36,1209.41c1.48,6.53,14.53,8.08,7.79,18.14-10.21-1.67-11.09-2.76-13.15-11.61-.56-2.43-3.28-4.36-5-6.52" transform="translate(-12.95 -928.99)"/><path class="cls-1" d="M1046.93,1208.69c6.06-9.09,9.93-18.66,6.46-29.82" transform="translate(-12.95 -928.99)"/><path class="cls-1" d="M1409.83,1213.57a18.21,18.21,0,0,0,2.38-.13l14.48,10.48" transform="translate(-12.95 -928.99)"/><path class="cls-1" d="M192.8,1169.23l17,8.19c-1.07,3.44-1.88,6.06-2.88,9.31l-12-2.48,5.18,12.75,9.58-5.75" transform="translate(-12.95 -928.99)"/><path class="cls-1" d="M1342.37,1133.27l11.52,4.85,14.42,15.86" transform="translate(-12.95 -928.99)"/><path class="cls-1" d="M405.31,1114.62l19.44,3.87" transform="translate(-12.95 -928.99)"/><path class="cls-1" d="M651.56,1114.41c8.15,2.85,8.45,10,9,16.84.32,3.87.06,7.78.06,11.93l26.11,3.59,18.07-11.25-5.3-4.3" transform="translate(-12.95 -928.99)"/><path class="cls-1" d="M1469.45,1216.11c8.1-5.21,10.09,3,14,8.2l6-7.5,1.75.88-1,3.59" transform="translate(-12.95 -928.99)"/><path class="cls-1" d="M519.45,1215.61c.73,2.21,1.47,4.41,2.4,7.18l-7.83,4.38-7.95-19,9.91-8.58c3.61,8.1,16.21,5.86,15.13,17.32" transform="translate(-12.95 -928.99)"/><path class="cls-1" d="M783.71,1062.46l3.91,19.43" transform="translate(-12.95 -928.99)"/><path class="cls-1" d="M1267.16,1094.45,1259,1101c2.64,4,4.76,7.16,6.88,10.35" transform="translate(-12.95 -928.99)"/><path class="cls-1" d="M1533,1225.13l12.29-4.56-3.23-11" transform="translate(-12.95 -928.99)"/><path class="cls-1" d="M1789.6,1243.06l-11.31-6-3,1.28q1.34,6.87,2.65,13.75" transform="translate(-12.95 -928.99)"/><path class="cls-1" d="M1177.8,1171l22,7.76" transform="translate(-12.95 -928.99)"/><path class="cls-1" d="M337.92,1122.45l18.31,4.93c.92,6.19-.13,14.11,6.34,19.67" transform="translate(-12.95 -928.99)"/><path class="cls-1" d="M989.88,1178.93c1.73-1.3,3.7-3.94,5.14-3.68,10,1.84,19.88,4.28,31.39,6.88l-4.13-11" transform="translate(-12.95 -928.99)"/><path class="cls-1" d="M129.36,1240.56c2.22-10.24,7.49,3.78,10.28-3.2-1.24-5.19-3-12.4-4.89-20.48,15.27,1.23,15.73,13.79,21.82,21.07" transform="translate(-12.95 -928.99)"/><path class="cls-1" d="M1652.22,1248.36l21.7-3.62c-.32,2.9-.64,5.84-1,8.78" transform="translate(-12.95 -928.99)"/><path class="cls-1" d="M1615.89,1199.14c-3.73,10.73,4.27,16,10.48,21.92,2.45,2.33,6,3.55,9,5.28" transform="translate(-12.95 -928.99)"/><path class="cls-1" d="M76.11,1108.41c4.45-1.75,14.61,5.06,11.66-7.78" transform="translate(-12.95 -928.99)"/><path class="cls-1" d="M1136.33,1176.21c2.17,3.89,3.43,9,6.68,11.41,6.62,5,2.19,9.62,1.12,14.51" transform="translate(-12.95 -928.99)"/><path class="cls-1" d="M1603,1219.89c10.25-.62,1.7,9.23,6.89,11.3l-6.35,3.51-6.33-9-2,7.15" transform="translate(-12.95 -928.99)"/><path class="cls-1" d="M1669.05,1223.72c.43,3,.86,6,1.68,11.75l11.71-9.24,11.94-6.8c1.95,4.48,3.86,8.91,5.78,13.33" transform="translate(-12.95 -928.99)"/><path class="cls-1" d="M538.86,1179.31l-1.32,3.88,1.38,1.78c2.14-1.89,4.74-3.47,6.3-5.75,1.81-2.67,2.7-6,4-9" transform="translate(-12.95 -928.99)"/><path class="cls-1" d="M960.08,1194.5,977,1208.75" transform="translate(-12.95 -928.99)"/><path class="cls-1" d="M936.71,1134.91c3.55,6.64,9.77,5.23,15.55,5.17" transform="translate(-12.95 -928.99)"/><path class="cls-1" d="M78.79,1213.39c-1.48,7.85,4,8.79,9,7.54,6.71-1.67,13-5,19.49-7.56" transform="translate(-12.95 -928.99)"/><path class="cls-1" d="M909.53,1185.47l-10.37-5.17v6.48" transform="translate(-12.95 -928.99)"/><path class="cls-1" d="M1836.21,1193.77l10.36-15.56" transform="translate(-12.95 -928.99)"/><path class="cls-1" d="M654.27,1257l5.18-1.3" transform="translate(-12.95 -928.99)"/><path class="cls-1" d="M685.23,1088.46,693,1072.9" transform="translate(-12.95 -928.99)"/><path class="cls-1" d="M825.27,1158.33l4.29-6.47,10.94,3.24-3.75,11.07,11.85,5.1" transform="translate(-12.95 -928.99)"/><path class="cls-1" d="M1475.87,1142.23l21.23-3.21c1,4.11,1.57,6.24,2.1,8.37" transform="translate(-12.95 -928.99)"/><path class="cls-1" d="M179.91,1248.3c6.85,9.24,15.13,5.52,23.33,2.57" transform="translate(-12.95 -928.99)"/><path class="cls-1" d="M496,1106.76c1.22,9.45,3.74,17.79,15.56,18.13" transform="translate(-12.95 -928.99)"/><path class="cls-1" d="M1260.81,1250c.49-5.25,1-10.51,1.69-18.38l11.55,9c8.13-4,15-3.71,20.74,5.25,1.9,3,7.13,3.77,10.84,5.56l3.22-2.92L1301,1234.4" transform="translate(-12.95 -928.99)"/><path class="cls-1" d="M746.24,1194.68q.64,7.14,1.3,14.26" transform="translate(-12.95 -928.99)"/><path class="cls-1" d="M185,1096.66c-.15-1.75-.29-3.5-.43-5.25l-2.95-1-4.4,8.82" transform="translate(-12.95 -928.99)"/><path class="cls-1" d="M1610.69,1182.29l11.84,1.69-4.07-8.17" transform="translate(-12.95 -928.99)"/><path class="cls-1" d="M32.08,1156.4l10.38,12.95" transform="translate(-12.95 -928.99)"/><path class="cls-1" d="M1619.81,1236.72c13-1.75,18.09-11.29,22-22" transform="translate(-12.95 -928.99)"/><path class="cls-1" d="M1473.35,1227.77l5.18-1.3v10.37" transform="translate(-12.95 -928.99)"/><path class="cls-1" d="M649,1158.48c6,2.58,13.41,3.85,17.75,8.16,3.68,3.66,3.79,10.85,5.63,16.43,1.15,3.51,2.57,6.92,3.87,10.38" transform="translate(-12.95 -928.99)"/><path class="cls-1" d="M1193.31,1124.32l-9.73-9.72,13.61-1.95" transform="translate(-12.95 -928.99)"/><path class="cls-1" d="M14,1249.73l15.54-6.92V1251" transform="translate(-12.95 -928.99)"/><path class="cls-1" d="M1727.33,1178.31l19,4.73-5.39,6,4.54,2.26" transform="translate(-12.95 -928.99)"/><path class="cls-1" d="M451.94,1078.29v6.48l7.78-1.31" transform="translate(-12.95 -928.99)"/><path class="cls-1" d="M234.3,1199c6.38.39,12.66.6,14.25-7.79" transform="translate(-12.95 -928.99)"/><path class="cls-1" d="M1168.76,1206l17.4,2.12-7,12.13" transform="translate(-12.95 -928.99)"/><path class="cls-1" d="M1040.43,1178.88l-5.19,2.6,5.2,7.77" transform="translate(-12.95 -928.99)"/><path class="cls-1" d="M1138.91,1159.36l-9.42,2.62c-.31,1-.63,1.94-.94,2.92,18.74,5.54,24.39,27.71,44.09,32" transform="translate(-12.95 -928.99)"/><path class="cls-1" d="M563.53,1241.5c.25-3.74-8.44-4.83-2.88-10.64,1.1-1.15-1.45-5.78-2.32-8.8" transform="translate(-12.95 -928.99)"/><path class="cls-1" d="M444.2,1127.54l-7.79-2.15,20.74-6.93" transform="translate(-12.95 -928.99)"/><path class="cls-1" d="M231.74,1231.41l-26.35-2.64-5.93,10.89,3.78,8.62" transform="translate(-12.95 -928.99)"/><path class="cls-1" d="M389.8,1169.06l3.9,15.55" transform="translate(-12.95 -928.99)"/><path class="cls-1" d="M1538.13,1201.8c-.5,2.48-1,5-1.51,7.46l2.34,1.5,23.9-16-3.74-3.07-1.56,3.6" transform="translate(-12.95 -928.99)"/><path class="cls-1" d="M1553.66,1173.27l.8,10,4.39.35" transform="translate(-12.95 -928.99)"/><path class="cls-1" d="M576.44,1172.79c6.6-5.39,4.74-10-1.83-15.81-1.46,2.93-2.41,4.84-3.37,6.75" transform="translate(-12.95 -928.99)"/><path class="cls-1" d="M579,1127.43l15.55-5.2" transform="translate(-12.95 -928.99)"/><path class="cls-1" d="M1391.68,1207.1c-5.49,12.44,8.1,9.24,10.8,15l3.47-.71c0-5.62,1.33-11.67-.32-16.75-2.72-8.39-6-16.23-1-24.73" transform="translate(-12.95 -928.99)"/><path class="cls-1" d="M147.48,1209.44c-3.51-2.07-4.07-10.29-10.1-6.06-1.82,1.28-.27,7.37-.27,11.26" transform="translate(-12.95 -928.99)"/><path class="cls-1" d="M606.23,1157.22,623,1176.34c1.07-.32,4.49-1.3,9.19-2.66l6.5,8.13" transform="translate(-12.95 -928.99)"/><path class="cls-1" d="M420.88,1139.23c5,5.76,10.37,11.06,18.16,12.94" transform="translate(-12.95 -928.99)"/><path class="cls-1" d="M1138.9,1151.58l22,7.76" transform="translate(-12.95 -928.99)"/><path class="cls-1" d="M1110.43,1203.45c4.46,4.21,9.15,7.51,15.56,3.88" transform="translate(-12.95 -928.99)"/><path class="cls-1" d="M523.34,1223.38q2.6,10.38,5.2,20.74" transform="translate(-12.95 -928.99)"/><path class="cls-1" d="M652.92,1189.58c-1.55,5.67-.18,8.71,6.45,9.43,2,.22,3.5,4.82,5.23,7.41" transform="translate(-12.95 -928.99)"/><path class="cls-1" d="M450.79,1254.55l12.18,1.94c1.34-3.37,2.35-5.9,3.37-8.43" transform="translate(-12.95 -928.99)"/><path class="cls-1" d="M973,1145.24c2.43-6.46,7.66-5.9,13-5.19" transform="translate(-12.95 -928.99)"/><path class="cls-1" d="M63.15,1117.5l15.56,2.57" transform="translate(-12.95 -928.99)"/><path class="cls-1" d="M240.79,1210.66l11.66-5.19" transform="translate(-12.95 -928.99)"/><path class="cls-1" d="M474,1167.7c-.92-2.11-1.85-4.22-2.77-6.32l-3.41,2.23c-.7,3.49-1.39,7-2.25,11.33l-11,1.84" transform="translate(-12.95 -928.99)"/><path class="cls-1" d="M899.19,1214c9.66-6.43,9.62,5,14.26,7.76" transform="translate(-12.95 -928.99)"/><path class="cls-1" d="M837,1189.42c.77,5.24-2.58,12.16,5.84,14.26" transform="translate(-12.95 -928.99)"/><path class="cls-1" d="M698.21,1104l10.38,13" transform="translate(-12.95 -928.99)"/><path class="cls-1" d="M817.53,1205c15,12.43,18.05,6.29,8.73,38.88l18.52,0q0-13,0-25.92" transform="translate(-12.95 -928.99)"/><path class="cls-1" d="M818.84,1225.73c-3.89,0-7.86.5-11.64-.12-4.26-.7-8.34-2.41-12.51-3.67l.6-3.25,18.36-7.21" transform="translate(-12.95 -928.99)"/><path class="cls-1" d="M507.82,1255.8l14.25-7.79" transform="translate(-12.95 -928.99)"/><path class="cls-1" d="M713.77,1114.36l9.6-5,6,2.36" transform="translate(-12.95 -928.99)"/><path class="cls-1" d="M739.78,1225.79l28.06-7.43,5.64,12.59" transform="translate(-12.95 -928.99)"/><path class="cls-1" d="M725.48,1167.48l5.75-5.76,18.87,1.86" transform="translate(-12.95 -928.99)"/><path class="cls-1" d="M1496.66,1212.2c7.91-6.41,22-2.44,25.91-15.58" transform="translate(-12.95 -928.99)"/><path class="cls-1" d="M493.46,1140.46l16.42,1.8c-1.43-4-2.45-6.77-3.46-9.58" transform="translate(-12.95 -928.99)"/><path class="cls-1" d="M1522.57,1191.44l19.44,0" transform="translate(-12.95 -928.99)"/><path class="cls-1" d="M1521.26,1173.3c2.87-4,5.75-8,8.74-12.08l-8.76-2.18" transform="translate(-12.95 -928.99)"/><path class="cls-1" d="M373,1256.56l14.25-3.25" transform="translate(-12.95 -928.99)"/><path class="cls-1" d="M765.61,1114.31l13-2.6" transform="translate(-12.95 -928.99)"/><path class="cls-1" d="M563.5,1196.13l-9.37-1.25c-2.41-10.5,9.13-23.5,22.73-21.88L570,1185.76" transform="translate(-12.95 -928.99)"/><path class="cls-1" d="M500,1175.45c-.67-5.64-1.33-11.28-2.23-18.87L523.29,1169" transform="translate(-12.95 -928.99)"/><path class="cls-1" d="M1416.23,1113.77h13" transform="translate(-12.95 -928.99)"/><path class="cls-1" d="M1407.23,1205.79l22.13-5.12,7.68,3.8" transform="translate(-12.95 -928.99)"/><path class="cls-1" d="M1597.74,1199.15l6.63-3.37c.87,3,1.66,5.8,2.45,8.55" transform="translate(-12.95 -928.99)"/><path class="cls-1" d="M1326.87,1199.38l5.85-5.19,5.82,11.66" transform="translate(-12.95 -928.99)"/><path class="cls-1" d="M375.55,1178.15l-7.13-9.5c-3.17,5.54-5.79,10.12-8.42,14.69" transform="translate(-12.95 -928.99)"/><path class="cls-1" d="M273.18,1192.49c10.86-.11,21.89,1.83,32.4-2.62" transform="translate(-12.95 -928.99)"/><path class="cls-1" d="M1290.57,1182.56c7.9,6,13.34,5.14,18.17-2.59,2-3.14,4.28-6.07,6.44-9.09" transform="translate(-12.95 -928.99)"/><path class="cls-1" d="M660.62,1106.62c2.16,0,4.58-.64,6.44.1,12.79,5.12,23.38,2.26,32.6-7.76,1-1.08,4.16-.15,8-.15l-4.31,6.48" transform="translate(-12.95 -928.99)"/><path class="cls-1" d="M360,1205.38c4-10.11-7-2.12-8.19-8.81L362.52,1184l9.16,16.16" transform="translate(-12.95 -928.99)"/><path class="cls-1" d="M397.59,1185.9c7.54,2.56,11.31,13.85,22.22,9.5.82-.33,4.15,5.6,6.31,8.63" transform="translate(-12.95 -928.99)"/><path class="cls-1" d="M1234.8,1134.66l14.26,6.46" transform="translate(-12.95 -928.99)"/><path class="cls-1" d="M1214.13,1218.92l6.35-8,30,27.42" transform="translate(-12.95 -928.99)"/><path class="cls-1" d="M868.08,1211.43l-15-1.94c9.24,13,17.19,24.39,25.52,35.53,1.19,1.59,4.19,1.82,6.35,2.69" transform="translate(-12.95 -928.99)"/><path class="cls-1" d="M1723.46,1195.16l11.66-6.49" transform="translate(-12.95 -928.99)"/><path class="cls-1" d="M427.36,1141.81l14.26-3.9" transform="translate(-12.95 -928.99)"/><path class="cls-1" d="M293.92,1193.77c3.59,11.51,9.94,18.19,21.35,23.65l20.13-5.54" transform="translate(-12.95 -928.99)"/><path class="cls-1" d="M470.13,1132.71l13,0v-7.77" transform="translate(-12.95 -928.99)"/><path class="cls-1" d="M1150.61,1202.12l-3.36,6.64c3,8,5.76,15.58,8.57,23.17" transform="translate(-12.95 -928.99)"/><path class="cls-1" d="M51.59,1236.74l9.6-3.83-7-5.24" transform="translate(-12.95 -928.99)"/><path class="cls-1" d="M636,1130l11.42-13.47-6.25-4.67" transform="translate(-12.95 -928.99)"/><path class="cls-1" d="M899.14,1163.45c2.2-3.56,12.7,2.56,9.07-7.78" transform="translate(-12.95 -928.99)"/><path class="cls-1" d="M1061.18,1197l14.26,1.29" transform="translate(-12.95 -928.99)"/><path class="cls-1" d="M1015.86,1243.71c2.85-4.4,9-8.2,2.58-14.26" transform="translate(-12.95 -928.99)"/><path class="cls-1" d="M997.64,1160.78l11.67,9.06" transform="translate(-12.95 -928.99)"/><path class="cls-1" d="M935.5,1244.42l13-3.26,14.26,6.48" transform="translate(-12.95 -928.99)"/><path class="cls-1" d="M431.28,1174.21l18.81,11.21c4.59-12.93,8.43-23.75,12.28-34.56" transform="translate(-12.95 -928.99)"/><path class="cls-1" d="M78.81,1234.13l-9.87-3.54-2,2.75c5.62,3.88-5,13.2,6.69,15.05" transform="translate(-12.95 -928.99)"/><path class="cls-1" d="M958.74,1141.37c6.47,5.2,15.55,6.79,19.83,15.35.87,1.72,6.54,1,10,1.47" transform="translate(-12.95 -928.99)"/><path class="cls-1" d="M974.31,1153c-7,6.82,0,9.43,3.9,13" transform="translate(-12.95 -928.99)"/><path class="cls-1" d="M65.76,1127.86l12.95-2.6" transform="translate(-12.95 -928.99)"/><path class="cls-1" d="M664.55,1153.28c11.58.68,8.47-8,9.09-14.35l-6.51-1.21" transform="translate(-12.95 -928.99)"/><path class="cls-1" d="M51.58,1225.08c2.26-3.63,9.61-5.66,14.25-3.9,9.08,3.44,18.08,7.13,27.29,10.17,2.2.73,5.12-.7,7.71-1.13" transform="translate(-12.95 -928.99)"/><path class="cls-1" d="M1890.67,1224.83l13-2.61" transform="translate(-12.95 -928.99)"/><path class="cls-1" d="M24.36,1223.8c10.83-3.38,4.58,8.21,9.08,10.36" transform="translate(-12.95 -928.99)"/><path class="cls-1" d="M1001.47,1090.79c4.38-4.06,8.35-4.33,11.67,1.28" transform="translate(-12.95 -928.99)"/><path class="cls-1" d="M1009.27,1116.7c-.43,1.73-1.56,3.65-1.14,5.14.77,2.74,2.44,5.23,3.74,7.82" transform="translate(-12.95 -928.99)"/><path class="cls-1" d="M1021,1131l11.66-3.9" transform="translate(-12.95 -928.99)"/><path class="cls-1" d="M463.69,1182l11.67,6.47" transform="translate(-12.95 -928.99)"/><path class="cls-1" d="M71,1169.33c.77,3.05,1.53,6.1,2.2,8.75l8.18,4.2" transform="translate(-12.95 -928.99)"/><path class="cls-1" d="M194.13,1201.63l13,5.17" transform="translate(-12.95 -928.99)"/><path class="cls-1" d="M1079.35,1228.1l11.65-11.67" transform="translate(-12.95 -928.99)"/><path class="cls-1" d="M1089.63,1127c0,1.73.34,3.55-.09,5.16-.39,1.42-1.63,2.62-2.49,3.92" transform="translate(-12.95 -928.99)"/><path class="cls-1" d="M1087.1,1197l14.14,5.41-3.76,7.54" transform="translate(-12.95 -928.99)"/><path class="cls-1" d="M1806.42,1218.42c-1.72.43-4.29.36-4.94,1.44s.63,3.31,1.06,5" transform="translate(-12.95 -928.99)"/><path class="cls-1" d="M650.32,1187l9.3,4.64-19.7,21.26,9.14,11.68" transform="translate(-12.95 -928.99)"/><path class="cls-1" d="M685.3,1166.22c-4.27,5.89-7.33,12-3.87,19.45" transform="translate(-12.95 -928.99)"/><path class="cls-1" d="M1131.2,1233.24l14.27,20.73" transform="translate(-12.95 -928.99)"/><path class="cls-1" d="M878.46,1224.38c7.33,5,9.32,12.39,9.09,20.73" transform="translate(-12.95 -928.99)"/><path class="cls-1" d="M640,1207.73l-7.83-4.69,5.68-7.61,3.18.25,1.56,10.76" transform="translate(-12.95 -928.99)"/><path class="cls-1" d="M1182.93,1108.78c4.12-1.61,8.61-6.63,11.67,1.28" transform="translate(-12.95 -928.99)"/><path class="cls-1" d="M1185.63,1230.6l5-7.33,22.26-1.52.65-2.76,13.51,9" transform="translate(-12.95 -928.99)"/><path class="cls-1" d="M146.17,1201.67l13,2.58" transform="translate(-12.95 -928.99)"/><path class="cls-1" d="M1676.84,1247c12.14-6.65,22.12.21,32.41,5.16" transform="translate(-12.95 -928.99)"/><path class="cls-1" d="M1208.91,1173.56v9.82c11.06-6.43,11.62-14.92,2.57-20.19" transform="translate(-12.95 -928.99)"/><path class="cls-1" d="M834.39,1216.64c5.22-8.38,10.79-16.32,22-16.86" transform="translate(-12.95 -928.99)"/><path class="cls-1" d="M244.58,1086.24l11.66,3.88" transform="translate(-12.95 -928.99)"/><path class="cls-1" d="M619.26,1235c4.81-4.63,1.07-15.06,11-16.21" transform="translate(-12.95 -928.99)"/><path class="cls-1" d="M621.78,1152c-3,6.26-.41,11.12,3.9,15.55" transform="translate(-12.95 -928.99)"/><path class="cls-1" d="M1652.16,1175.78c11.4,6.09,13.57,18.07,18.17,28.5" transform="translate(-12.95 -928.99)"/><path class="cls-1" d="M184.9,1024.08q2.61,5.18,5.2,10.36" transform="translate(-12.95 -928.99)"/><path class="cls-1" d="M599.73,1127.41l11.66-2.6" transform="translate(-12.95 -928.99)"/><path class="cls-1" d="M277.11,1241.74c-.54-2.14-1.07-4.27-2.1-8.37l20.24,5.76" transform="translate(-12.95 -928.99)"/><path class="cls-1" d="M509.05,1187.11l10.37-5.2" transform="translate(-12.95 -928.99)"/><path class="cls-1" d="M1315.21,1209.76l6.48-2.2,0,42.37" transform="translate(-12.95 -928.99)"/><path class="cls-1" d="M1615.92,1236.72l-1.47,5.91,8,3.16" transform="translate(-12.95 -928.99)"/><path class="cls-1" d="M1613.27,1162.85c-.18-6.64,2.15-9.77,9.06-6.49" transform="translate(-12.95 -928.99)"/><path class="cls-1" d="M1324.28,1200.68l7.74,12.92q1.32-3.22,2.63-6.45" transform="translate(-12.95 -928.99)"/><path class="cls-1" d="M186.33,1173.12l13,5.18" transform="translate(-12.95 -928.99)"/><path class="cls-1" d="M1376.13,1209.71l5.63-13c3.15-2.43,8.11-5.53,13.8,0" transform="translate(-12.95 -928.99)"/><path class="cls-1" d="M1582.19,1201.76c9-2.84,12.19,5.86,18.16,9.06" transform="translate(-12.95 -928.99)"/><path class="cls-1" d="M1369.62,1173.42h15.55v-5.18" transform="translate(-12.95 -928.99)"/><path class="cls-1" d="M34.74,1236.76l3.9,13" transform="translate(-12.95 -928.99)"/><path class="cls-1" d="M790.25,1135c3.74,8,9.77,5.06,16.43,3.15,1.3,2.18,2.81,4.69,4.32,7.2" transform="translate(-12.95 -928.99)"/><path class="cls-1" d="M754,1196l12-9.56,19.43,28.25,3.8-1.32,3.63-10.92" transform="translate(-12.95 -928.99)"/><path class="cls-1" d="M104.69,1195.22c-.43,1.3-1.6,3.35-1.17,3.77,3.24,3.17,6.79,6,10.25,9l-1.12,3.11,12.79-1.62" transform="translate(-12.95 -928.99)"/><path class="cls-1" d="M760.52,1221.89l25.92,5.16" transform="translate(-12.95 -928.99)"/><path class="cls-1" d="M265.32,1094l16.85,9" transform="translate(-12.95 -928.99)"/><path class="cls-1" d="M1452.59,1205.76l13-1.87v-7.22" transform="translate(-12.95 -928.99)"/><path class="cls-1" d="M1452.57,1178.54l10.38,16.84" transform="translate(-12.95 -928.99)"/><path class="cls-1" d="M750.15,1225.79l9.47,14.22L780,1229.65" transform="translate(-12.95 -928.99)"/><path class="cls-1" d="M747.43,1072.85v-10.36" transform="translate(-12.95 -928.99)"/><path class="cls-1" d="M1479.81,1208.32l7.79,9.07" transform="translate(-12.95 -928.99)"/><path class="cls-1" d="M730.68,1184.33c.55-2.23,1.11-4.46,1.93-7.78l10,8c-2.14,4-3.77,7.11-5.41,10.18" transform="translate(-12.95 -928.99)"/><path class="cls-1" d="M505.21,1242.84l11.67-1.95,0-13.61" transform="translate(-12.95 -928.99)"/><path class="cls-1" d="M553.09,1148.19l11.68,24.61" transform="translate(-12.95 -928.99)"/><path class="cls-1" d="M1455.16,1182.42l11.68,3.85c.43-1.09,1.51-3.77,2.58-6.45" transform="translate(-12.95 -928.99)"/><path class="cls-1" d="M579.07,1219.45c4.27-5.71,8.69-3.71,14.39-1.68,5,1.78,11.1.36,16.71.36" transform="translate(-12.95 -928.99)"/><path class="cls-1" d="M553.16,1232.43c1.42-8.52,2.85-17,4.78-28.52l29.95,0,0-1.13,14.53,3.71" transform="translate(-12.95 -928.99)"/><path class="cls-1" d="M380.73,1171.66q2.11,10.47,4.24,20.93l2.15-1.95,14.37,9.52" transform="translate(-12.95 -928.99)"/><path class="cls-1" d="M1551,1144.76c-1.22,7.46,4.36,4.69,7.78,5.18" transform="translate(-12.95 -928.99)"/><path class="cls-1" d="M1525.2,1239.39l16.59,8.92,23.59-5.06" transform="translate(-12.95 -928.99)"/><path class="cls-1" d="M90.42,1175.79l4.63-7,22.59,8.33" transform="translate(-12.95 -928.99)"/><path class="cls-1" d="M1551.1,1219.93l12.71-4.52c2.29,3.13,5.16,7.06,8,11" transform="translate(-12.95 -928.99)"/><path class="cls-1" d="M1567.94,1205.66l9.85,11.24c.71-2.88,1.27-5.12,1.82-7.36" transform="translate(-12.95 -928.99)"/><path class="cls-1" d="M104.72,1221.14h11.66q2-4.55,3.88-9.08" transform="translate(-12.95 -928.99)"/><path class="cls-1" d="M1383.93,1234.33c5.34-3.84,10.07-8,9-15.56" transform="translate(-12.95 -928.99)"/><path class="cls-1" d="M233,1169.19l2.61,18.15" transform="translate(-12.95 -928.99)"/><path class="cls-1" d="M1339.77,1124.2l10.37,3.88" transform="translate(-12.95 -928.99)"/><path class="cls-1" d="M1338.46,1106.06l18.14-3.91" transform="translate(-12.95 -928.99)"/><path class="cls-1" d="M660.75,1254.37c-5.16-9.06-4.65-18-.15-27.28,1.27-2.61,1-6,1.41-9" transform="translate(-12.95 -928.99)"/><path class="cls-1" d="M1335.91,1160.49l15.54-11.68" transform="translate(-12.95 -928.99)"/><path class="cls-1" d="M414.41,1154.79l-8,2c2.14,7.46,3.77,13.11,5.39,18.75" transform="translate(-12.95 -928.99)"/><path class="cls-1" d="M685.27,1137.71l13-13" transform="translate(-12.95 -928.99)"/><path class="cls-1" d="M510.31,1144.34,522,1143" transform="translate(-12.95 -928.99)"/><path class="cls-1" d="M697,1180.47l7.78,5.18,1.29-3.89" transform="translate(-12.95 -928.99)"/><path class="cls-1" d="M1626.2,1126.55c3.41.49,9-2.28,7.78,5.18" transform="translate(-12.95 -928.99)"/><path class="cls-1" d="M715.13,1192.12l-5-6.64-2.94.37q.72,6.38,1.43,12.75" transform="translate(-12.95 -928.99)"/><path class="cls-1" d="M1630.18,1236.71l10.37,7.77" transform="translate(-12.95 -928.99)"/><path class="cls-1" d="M410.5,1127.57l11.67,6.47" transform="translate(-12.95 -928.99)"/><path class="cls-1" d="M141,1182.23l-1.83,11.37,3.58,2.06,8.62-8.25" transform="translate(-12.95 -928.99)"/><path class="cls-1" d="M729.34,1142.86l10.37-5.2" transform="translate(-12.95 -928.99)"/><path class="cls-1" d="M37.23,1114.92l3.9,11.67" transform="translate(-12.95 -928.99)"/><path class="cls-1" d="M414.46,1205.33l19.44,2.58" transform="translate(-12.95 -928.99)"/><path class="cls-1" d="M747.5,1153.21c2-6.41,4-12.82,6-19.31l-8.57-1.42" transform="translate(-12.95 -928.99)"/><path class="cls-1" d="M1680.72,1232.78l3.44,13.73-2.37.68q3.36,5.11,6.73,10.21" transform="translate(-12.95 -928.99)"/><path class="cls-1" d="M262.85,1240.45l11.66-2.6" transform="translate(-12.95 -928.99)"/><path class="cls-1" d="M752.72,1203.75l12.73-1.34,5.39,8.64c1.8-4.54,2.86-7.22,3.92-9.91" transform="translate(-12.95 -928.99)"/><path class="cls-1" d="M747.47,1114.33c2.74,12.59,14.5,12.69,24,17v14.07l-3.24,1.47,9.08,7.6" transform="translate(-12.95 -928.99)"/><path class="cls-1" d="M1276.31,1177.39l-27.22-1.52,0,22.28" transform="translate(-12.95 -928.99)"/><path class="cls-1" d="M774.71,1142.82c11.62.43,5,9.58,3.5,11.32-5.07,5.87-.53,9.16,1.7,13.3" transform="translate(-12.95 -928.99)"/><path class="cls-1" d="M1223.14,1143.74c13.54,2.64,7.13,16.39,13.76,22.88l-6,3" transform="translate(-12.95 -928.99)"/><path class="cls-1" d="M498.67,1166.38l-4.25,4.26c2.84,8.51,16.86,11.91,11.95,24.48l-9-3.59-1.6,8.93,10.68,6.09" transform="translate(-12.95 -928.99)"/><path class="cls-1" d="M343.17,1196.32v12l14.25-1.6" transform="translate(-12.95 -928.99)"/><path class="cls-1" d="M291.36,1240.43l-16.08,5.86,8.32,5.81" transform="translate(-12.95 -928.99)"/><path class="cls-1" d="M179.9,1237.93l14.27,13" transform="translate(-12.95 -928.99)"/><path class="cls-1" d="M1177.87,1251.35c5.33-2.55,7.14-6.27,3.88-11.67" transform="translate(-12.95 -928.99)"/><path class="cls-1" d="M428.75,1246.79l-1.32-27.21" transform="translate(-12.95 -928.99)"/><path class="cls-1" d="M1174,1222.84l-1.92,7.3,5.81.47" transform="translate(-12.95 -928.99)"/><path class="cls-1" d="M83.9,1125.25l11.66-1.3" transform="translate(-12.95 -928.99)"/><path class="cls-1" d="M1150.58,1172.31l4.54-3c-1.5-2.44-3-4.89-4.54-7.35" transform="translate(-12.95 -928.99)"/><path class="cls-1" d="M431.19,1065.34l10.36-2.6" transform="translate(-12.95 -928.99)"/><path class="cls-1" d="M922.52,1220.46l-9.51,2.26.18,2.78,14.52,2.73" transform="translate(-12.95 -928.99)"/><path class="cls-1" d="M154,1254.8c.95-5.17,1.9-10.34,2.88-15.75l12.66-6.3" transform="translate(-12.95 -928.99)"/><path class="cls-1" d="M917.25,1119.37l10.37,3.88" transform="translate(-12.95 -928.99)"/><path class="cls-1" d="M919.91,1202.31l11.67,5.18" transform="translate(-12.95 -928.99)"/><path class="cls-1" d="M945.86,1229.51l-4.6-4.59-3.28,5c1.4,7.4,13-1.54,11.77,8.68" transform="translate(-12.95 -928.99)"/><path class="cls-1" d="M939.22,1044.18l10.37-5.19" transform="translate(-12.95 -928.99)"/><path class="cls-1" d="M1109.08,1138.65l27.22,1.27" transform="translate(-12.95 -928.99)"/><path class="cls-1" d="M1100,1165.87l10.37-7.78" transform="translate(-12.95 -928.99)"/><path class="cls-1" d="M1096.21,1241.05l15.6-7.77-7.83-3.9" transform="translate(-12.95 -928.99)"/><path class="cls-1" d="M459.85,1239c2.53-9.21,5.06-18.42,8.38-30.48l9.74,9.73" transform="translate(-12.95 -928.99)"/><path class="cls-1" d="M1807.66,1142l9.06-6.49" transform="translate(-12.95 -928.99)"/><path class="cls-1" d="M1084.49,1173.66c9.61-4.63,5.92-14.74,9-22" transform="translate(-12.95 -928.99)"/><path class="cls-1" d="M444.27,1207.9c-.43,5.18-.86,10.37-1.41,17l-10.25-6.64" transform="translate(-12.95 -928.99)"/><path class="cls-1" d="M1067.65,1186.64l6.88-5,12.56,2.35" transform="translate(-12.95 -928.99)"/><path class="cls-1" d="M321.18,1256l2.58-22" transform="translate(-12.95 -928.99)"/><path class="cls-1" d="M1057.32,1235.9c.76-2.63,1.52-5.25,2.29-7.93-4.72-13.85-14.63-20.8-29.53-20.56" transform="translate(-12.95 -928.99)"/><path class="cls-1" d="M992.51,1225.58l11.31.6-7.41,11.06" transform="translate(-12.95 -928.99)"/><path class="cls-1" d="M1040.39,1134.82l16.86,10.35" transform="translate(-12.95 -928.99)"/><path class="cls-1" d="M1039.17,1230.73l4.55,2.65c6.5-8.53,13.31-17.61,26.66-10.66,1.35.69,4.21-1.53,6.37-2.39" transform="translate(-12.95 -928.99)"/><path class="cls-1" d="M1844,1243c3.56-10.9,11.46-8.81,19.94-6.35l3.38-6.63" transform="translate(-12.95 -928.99)"/><path class="cls-1" d="M1027.48,1191.86l18.14,2.57" transform="translate(-12.95 -928.99)"/><path class="cls-1" d="M325,1211.89c1.94-4,3.88-8,5.78-11.88,7.2.34,14.35,9.7,20.13-1.11" transform="translate(-12.95 -928.99)"/><path class="cls-1" d="M1870,1254.65l9.08,2.59" transform="translate(-12.95 -928.99)"/><path class="cls-1" d="M1869.92,1211.88l11.31.76c.08.92.22,2.67.36,4.42" transform="translate(-12.95 -928.99)"/><path class="cls-1" d="M1870,1245.58l6.5,1.21c-.25-.57-.51-1.13-.76-1.69l8.52-3.42" transform="translate(-12.95 -928.99)"/><path class="cls-1" d="M1825.88,1237.84c5.32.5,7.7-.47,2.17-5.57l-3.47,4.28" transform="translate(-12.95 -928.99)"/><path class="cls-1" d="M991.15,1142.64l5.19,15.54" transform="translate(-12.95 -928.99)"/><path class="cls-1" d="M338,1237.8l-6.47,9.07" transform="translate(-12.95 -928.99)"/><path class="cls-1" d="M975.63,1184.12c.22,4.37.44,8.74.73,14.62l8.35-5.55" transform="translate(-12.95 -928.99)"/><path class="cls-1" d="M1079.36,1245l1.29-14.26" transform="translate(-12.95 -928.99)"/><path class="cls-1" d="M1815.5,1227.48l8.43,7.24,2.15-1.07-1.5-7.47" transform="translate(-12.95 -928.99)"/><path class="cls-1" d="M960.05,1155.62l-2.46-4.19c-4.14,9.63-4.09,9.73,5.06,12" transform="translate(-12.95 -928.99)"/><path class="cls-1" d="M1787,1188.63c-2.86,3.59-2.86,3.59,2.6,12.95" transform="translate(-12.95 -928.99)"/><path class="cls-1" d="M1105.16,1101.07l10.37,2.58" transform="translate(-12.95 -928.99)"/><path class="cls-1" d="M1763.65,1214.57l9.08,7.76" transform="translate(-12.95 -928.99)"/><path class="cls-1" d="M1115.58,1163.27c3.27-1.15,6.88-3.36,7.78,2.58" transform="translate(-12.95 -928.99)"/><path class="cls-1" d="M192.85,1230.14l-18.53,10-4.87-8.78,8.94-6.42c-4.11-4.63-7.3-9.49-11.72-12.58-1.75-1.22-6.26,1.51-8.81,4.82l3.88,1.31" transform="translate(-12.95 -928.99)"/><path class="cls-1" d="M306.92,1244.3c-10.24,3.21-11.51,1.57-9.17-11.18l15.17-6.59c-1.4,7.29-2.56,13.28-3.92,20.36h12.18" transform="translate(-12.95 -928.99)"/><path class="cls-1" d="M930.22,1125.84l10.37,2.58" transform="translate(-12.95 -928.99)"/><path class="cls-1" d="M1750.7,1227.54c3.71,4.57,14.89.82,13,11.65" transform="translate(-12.95 -928.99)"/><path class="cls-1" d="M896.62,1241.22l10.25,11.7,13.08-6.54" transform="translate(-12.95 -928.99)"/><path class="cls-1" d="M1154.54,1255.26l2.58-22" transform="translate(-12.95 -928.99)"/><path class="cls-1" d="M1159.59,1088.06l5.17-7.78" transform="translate(-12.95 -928.99)"/><path class="cls-1" d="M55.43,1182.3,71,1184.88" transform="translate(-12.95 -928.99)"/><path class="cls-1" d="M1180.44,1225.42l-11.7-8.08-6,27.33,13.28,9.64c3.74-4.44,7.23-.42,10.88,2.21" transform="translate(-12.95 -928.99)"/><path class="cls-1" d="M892.59,1077.92H903" transform="translate(-12.95 -928.99)"/><path class="cls-1" d="M1726.09,1239.22c.86-6,1.74-12.09,2.51-18.15.05-.37-.8-.86-1.23-1.29l-1.3,1.3" transform="translate(-12.95 -928.99)"/><path class="cls-1" d="M883.63,1203.64l9.12-6.4c.34.91.67,1.82,1,2.73l14.49-5.42" transform="translate(-12.95 -928.99)"/><path class="cls-1" d="M871.91,1137.55c5.43-7.13,9.25,3.68,15.21.32l-4.84,7.45" transform="translate(-12.95 -928.99)"/><path class="cls-1" d="M869.28,1098.67l5.19,7.78" transform="translate(-12.95 -928.99)"/><path class="cls-1" d="M1177.82,1189.14c1.73,1.72,3.46,3.45,4.19,4.19l17.84-1.62" transform="translate(-12.95 -928.99)"/><path class="cls-1" d="M179.77,1081.11h10.37" transform="translate(-12.95 -928.99)"/><path class="cls-1" d="M851.18,1153.12c-5.69-.47-6.83,1.78-3.88,6.49" transform="translate(-12.95 -928.99)"/><path class="cls-1" d="M844.76,1225.71l16.85-1.31" transform="translate(-12.95 -928.99)"/><path class="cls-1" d="M1207.64,1200.78c-11.27-4.28-3.84-15.17-7.8-22" transform="translate(-12.95 -928.99)"/><path class="cls-1" d="M485.66,1114.55,496,1112" transform="translate(-12.95 -928.99)"/><path class="cls-1" d="M820.1,1177.77c10.19-3.74,19.36,0,28.51,3.87" transform="translate(-12.95 -928.99)"/><path class="cls-1" d="M488.26,1124.91c8.44,3.45,2.3,6.87,0,10.39a55.57,55.57,0,0,0-2.61,5.17" transform="translate(-12.95 -928.99)"/><path class="cls-1" d="M330.24,1236.51c1.41-4.28,2.82-8.57,4.5-13.64l23.2-2.18c1.13,5.81,2.26,11.58,3.42,17.51l9.06-3" transform="translate(-12.95 -928.99)"/><path class="cls-1" d="M1218,1154.11l3.9,9.07" transform="translate(-12.95 -928.99)"/><path class="cls-1" d="M803.31,1246.48l3.92-5.23,8.87.39,3.64-17.39,10.76-2.42" transform="translate(-12.95 -928.99)"/><path class="cls-1" d="M1221.93,1244.83c7.33-.46,15.93,2.21,19.43-7.79" transform="translate(-12.95 -928.99)"/><path class="cls-1" d="M805.82,1155.75l28.52,7.76" transform="translate(-12.95 -928.99)"/><path class="cls-1" d="M786.38,1154.47h18.15c0-.87.06-1.73.1-2.59h-7.88" transform="translate(-12.95 -928.99)"/><path class="cls-1" d="M787.72,1202.43c-1.66,7.87-4.88,16.42,7.79,18.13" transform="translate(-12.95 -928.99)"/><path class="cls-1" d="M798.08,1192.05c-2.16,0-4.32,0-6.48,0-6.82-.14-16,3-12-10.45.9-3-2.43-7.3-4.09-11.76l21.23-2.93c.81,6.9,1.72,14.72,2.64,22.55" transform="translate(-12.95 -928.99)"/><path class="cls-1" d="M90.48,1245.78,84.16,1243l2-4.6,14.71-3" transform="translate(-12.95 -928.99)"/><path class="cls-1" d="M344.46,1193.73l7.25-12-2.09-12.6" transform="translate(-12.95 -928.99)"/><path class="cls-1" d="M763.06,1166.16l9.07-6.49" transform="translate(-12.95 -928.99)"/><path class="cls-1" d="M1680.65,1149.83l7.77-7.78" transform="translate(-12.95 -928.99)"/><path class="cls-1" d="M748.84,1211.53l18.14-3.9" transform="translate(-12.95 -928.99)"/><path class="cls-1" d="M484.47,1240.27c9.45-4.53,18.47-11.48,29.81-5.21" transform="translate(-12.95 -928.99)"/><path class="cls-1" d="M730.71,1231l-13.44,10.78c2.23,3.91,3.4,9.54,9.57,3.48" transform="translate(-12.95 -928.99)"/><path class="cls-1" d="M713.83,1186.94c11-1.48,8.9,10.1,14.27,14.24" transform="translate(-12.95 -928.99)"/><path class="cls-1" d="M34.69,1179.73l3.91,20.73" transform="translate(-12.95 -928.99)"/><path class="cls-1" d="M684.06,1236.21l20.44,1.57c2.09,5.3,3.79,9.63,5.5,14" transform="translate(-12.95 -928.99)"/><path class="cls-1" d="M704.71,1132.51c6.18,9.65,5.87,10.75-6.46,23.33" transform="translate(-12.95 -928.99)"/><path class="cls-1" d="M409.24,1161.27l7.81-1c.91-2.89,1.68-5.51,2.58-8.09.18-.52.83-1.21,1.26-1.21s.87.77,1.3,1.2" transform="translate(-12.95 -928.99)"/><path class="cls-1" d="M1307.38,1134.59l11.66,2.59" transform="translate(-12.95 -928.99)"/><path class="cls-1" d="M242,1119.94l6.48,2.58-3.88,5.19" transform="translate(-12.95 -928.99)"/><path class="cls-1" d="M672.36,1197.34c16.83-7.73,20.42-7.22,27.22,3.86" transform="translate(-12.95 -928.99)"/><path class="cls-1" d="M680.16,1225.84c7.82-1.8,11.87,2.33,14.27,9.07" transform="translate(-12.95 -928.99)"/><path class="cls-1" d="M686.65,1229.73l-5.43,3.18-8.82-20.24,2.81-1.57c3.81,1.89,7.45,4.67,11.47,5.42s8.64-.43,14.42-.88l3.85,8.28-7.94-2" transform="translate(-12.95 -928.99)"/><path class="cls-1" d="M238.22,1237.88c-2.85,10.29,4.48,13.52,11.68,16.84" transform="translate(-12.95 -928.99)"/><path class="cls-1" d="M516.82,1178l20.75,15.53" transform="translate(-12.95 -928.99)"/><path class="cls-1" d="M671.1,1229.74l-.83,13.16-2.21-.31,1.76,10.48" transform="translate(-12.95 -928.99)"/><path class="cls-1" d="M1600.27,1124l7.77-7.78" transform="translate(-12.95 -928.99)"/><path class="cls-1" d="M527.18,1169l-6,1.28,12.47,10.38" transform="translate(-12.95 -928.99)"/><path class="cls-1" d="M649,1137.74c.86-2.16,1.56-4.4,2.62-6.46,1.58-3.1,3.41-6.07,5.14-9.1" transform="translate(-12.95 -928.99)"/><path class="cls-1" d="M524.53,1099l10.37-2.6" transform="translate(-12.95 -928.99)"/><path class="cls-1" d="M1593.89,1244.52q.73,5.74,1.45,11.51l-4.12.73c-2.13-10.47-4.25-21-6.68-32.9l-6.52-3.81,6.78-5.33" transform="translate(-12.95 -928.99)"/><path class="cls-1" d="M1584.76,1170.65l17.41,4.34c.48,1.71,1.46,5.2,2.55,9.12l-4.39,2.08" transform="translate(-12.95 -928.99)"/><path class="cls-1" d="M1582.18,1184.91c1.79,2.76,9,4,2.6,9.07" transform="translate(-12.95 -928.99)"/><path class="cls-1" d="M1385.18,1182.48l9.55-3.08-7-4.7" transform="translate(-12.95 -928.99)"/><path class="cls-1" d="M223.9,1162.72c7.81,1.29,12.87,10.37,22,7.76" transform="translate(-12.95 -928.99)"/><path class="cls-1" d="M223.88,1140.69l7.79,7.77" transform="translate(-12.95 -928.99)"/><path class="cls-1" d="M1570.51,1179.74l12,4,1.83-4.49-7.31-3.44" transform="translate(-12.95 -928.99)"/><path class="cls-1" d="M611.49,1245.34l5.18-7.8c10.23,1.29,2.05,10.8,5.2,15.57" transform="translate(-12.95 -928.99)"/><path class="cls-1" d="M14,1172l10.37,3.88" transform="translate(-12.95 -928.99)"/><path class="cls-1" d="M1426.64,1163l11.68,19.43" transform="translate(-12.95 -928.99)"/><path class="cls-1" d="M562.19,1181.23l12.39,15.47,14.82-14.84" transform="translate(-12.95 -928.99)"/><path class="cls-1" d="M1437,1155.22l10.36-2.6" transform="translate(-12.95 -928.99)"/><path class="cls-1" d="M363.91,1202.78c6,1.1,12.7-7.7,18.15,1.28" transform="translate(-12.95 -928.99)"/><path class="cls-1" d="M116.36,1199.1q1.31,5.19,2.6,10.37" transform="translate(-12.95 -928.99)"/><path class="cls-1" d="M558.32,1211.69c1.73-2.16,4.09-4.08,5-6.54,1.77-4.56,2.72-9.45,4-14.2" transform="translate(-12.95 -928.99)"/><path class="cls-1" d="M125.43,1192.61c1.91,2.81-7.65,7.28,1.3,9.07" transform="translate(-12.95 -928.99)"/><path class="cls-1" d="M1475.92,1209.62l7.77-7.78" transform="translate(-12.95 -928.99)"/><path class="cls-1" d="M540.13,1153.38l7.78,5.18" transform="translate(-12.95 -928.99)"/><path class="cls-1" d="M1478.47,1150l6.48,9.07" transform="translate(-12.95 -928.99)"/><path class="cls-1" d="M1481,1121.49l6.48-9.08" transform="translate(-12.95 -928.99)"/><path class="cls-1" d="M533.7,1209.12l22,10.35" transform="translate(-12.95 -928.99)"/><path class="cls-1" d="M542.67,1088.58q1.29,3.89,2.6,7.77" transform="translate(-12.95 -928.99)"/><path class="cls-1" d="M374.25,1173l25.95-8.53c-1.65,7.41-2.78,12.5-3.91,17.59" transform="translate(-12.95 -928.99)"/><path class="cls-1" d="M794.11,1101.33q2.6,5.18,5.2,10.36" transform="translate(-12.95 -928.99)"/><path class="cls-1" d="M221.32,1179.57c5.46,3.4,4.33,8.12,2.61,13" transform="translate(-12.95 -928.99)"/><path class="cls-1" d="M1430.59,1238.17q3.24,7.14,6.49,14.26" transform="translate(-12.95 -928.99)"/><path class="cls-1" d="M77.53,1256.16l24.62-1.32" transform="translate(-12.95 -928.99)"/><path class="cls-1" d="M397.5,1078.33l5.19.42v4.76" transform="translate(-12.95 -928.99)"/><path class="cls-1" d="M805.81,1137.61c-3.46-7.13-.28-10.93,6.47-13" transform="translate(-12.95 -928.99)"/><path class="cls-1" d="M799.35,1167.42c2.16,1.3,5.85,2.25,6.23,3.94,1.85,8.41,2.84,17,1.56,25.88l6.42,4.23c.6-.72,1.38-1.27,1.31-1.65-1.35-7.16,1.82-15.74-6.44-20.74" transform="translate(-12.95 -928.99)"/><path class="cls-1" d="M1443.52,1200.58l14.31,11.53-5.23,6.61" transform="translate(-12.95 -928.99)"/><path class="cls-1" d="M807.13,1171.3l9.07-3.89" transform="translate(-12.95 -928.99)"/><path class="cls-1" d="M1460.39,1236.85l11.68,7.77" transform="translate(-12.95 -928.99)"/><path class="cls-1" d="M1462.92,1160.38c.44-1.29.88-2.58,1-3l10.66,1.69" transform="translate(-12.95 -928.99)"/><path class="cls-1" d="M1360.6,1234.35l11.67,14.24" transform="translate(-12.95 -928.99)"/><path class="cls-1" d="M488.37,1250.63l5.17-13" transform="translate(-12.95 -928.99)"/><path class="cls-1" d="M1008.05,1211.31c3.08-8.75,11.24-4.31,16.85-6.49" transform="translate(-12.95 -928.99)"/><path class="cls-1" d="M695.65,1144.18c10.55,5.55,21.25,10.58,33.7,9" transform="translate(-12.95 -928.99)"/><path class="cls-1" d="M818.81,1188.14c4.32-.43,8.71-.52,12.94-1.4,4-.84,7.79-2.5,11.68-3.8" transform="translate(-12.95 -928.99)"/><path class="cls-1" d="M1876.37,1173c.44,3.45.87,6.91,1.31,10.37" transform="translate(-12.95 -928.99)"/><path class="cls-1" d="M1008,1189.28l-2.58,5.2,3.89,1.41v-5.31" transform="translate(-12.95 -928.99)"/><path class="cls-1" d="M1875.13,1232.62q-1.31,3.89-2.59,7.78" transform="translate(-12.95 -928.99)"/><path class="cls-1" d="M1352.79,1194.17l9.07,6.48" transform="translate(-12.95 -928.99)"/><path class="cls-1" d="M1008,1149.1l-7.77,5.19" transform="translate(-12.95 -928.99)"/><path class="cls-1" d="M1857,1237.82l7.79,18.13" transform="translate(-12.95 -928.99)"/><path class="cls-1" d="M1347.55,1133.26l6.48-6.48" transform="translate(-12.95 -928.99)"/><path class="cls-1" d="M987.35,1254.1c8.73-1.27,18.58,3,25.92-5.21" transform="translate(-12.95 -928.99)"/><path class="cls-1" d="M1494.05,1185l25.92-3.91" transform="translate(-12.95 -928.99)"/><path class="cls-1" d="M169.54,1252.19l13-9.08" transform="translate(-12.95 -928.99)"/><path class="cls-1" d="M1343.75,1237l14.25-3.9" transform="translate(-12.95 -928.99)"/><path class="cls-1" d="M707.39,1240.08l8.43-1.06,0-16.83,7.13-2.86" transform="translate(-12.95 -928.99)"/><path class="cls-1" d="M993.73,1137.45l9.08,1.29" transform="translate(-12.95 -928.99)"/><path class="cls-1" d="M564.83,1244.09l15-3.58-.3-3.81-8.25-4.28" transform="translate(-12.95 -928.99)"/><path class="cls-1" d="M1076.76,1229.4l-12.27,4.09,7.09,2.39" transform="translate(-12.95 -928.99)"/><path class="cls-1" d="M485.65,1100.29l5.16,4.57,16.88,1.89" transform="translate(-12.95 -928.99)"/><path class="cls-1" d="M452.67,1185.86l5.6-3.92c4.34,5.31,7.48,9.14,10.61,13" transform="translate(-12.95 -928.99)"/><path class="cls-1" d="M1513.52,1216.07l9.06-6.49" transform="translate(-12.95 -928.99)"/><path class="cls-1" d="M299,1083.6v7.78" transform="translate(-12.95 -928.99)"/><path class="cls-1" d="M410.47,1086.1q-2,3.24-3.88,6.48" transform="translate(-12.95 -928.99)"/><path class="cls-1" d="M562.22,1224.65l17.95-2.91c4.35,3.91,3,8.14-2.39,12" transform="translate(-12.95 -928.99)"/><path class="cls-1" d="M373,1220.92c1.64-7.5,5.92-9.74,12.95-6.49" transform="translate(-12.95 -928.99)"/><path class="cls-1" d="M846,1192l9.35-3.17c1.57-3.28,3.43-7.11,5.3-11l-5.59-1.39" transform="translate(-12.95 -928.99)"/><path class="cls-1" d="M1838.82,1217.1c-.43,3-.85,6-1.28,9.07" transform="translate(-12.95 -928.99)"/><path class="cls-1" d="M1320.37,1170.87c6.54-.16,11,2,13.22,9,1.1,3.5,4.93,6.13,7.53,9.15" transform="translate(-12.95 -928.99)"/><path class="cls-1" d="M106,1187.45l9.08,5.17" transform="translate(-12.95 -928.99)"/><path class="cls-1" d="M1828.45,1209.33c4.77,9.09,8.24,9.09,18.14,0" transform="translate(-12.95 -928.99)"/><path class="cls-1" d="M687.9,1181.77l7.78,3.88" transform="translate(-12.95 -928.99)"/><path class="cls-1" d="M143.56,1174.45q3.88,2.6,7.78,5.18" transform="translate(-12.95 -928.99)"/><path class="cls-1" d="M108.51,1109.68V1124l9.08,2.5" transform="translate(-12.95 -928.99)"/><path class="cls-1" d="M369.05,1154.82l-7.13-3.63c2.51-6,5.14-10.11,12.41-7,1,.43,3.35-2.35,5.08-3.65" transform="translate(-12.95 -928.99)"/><path class="cls-1" d="M1315.13,1111.26l13,7.76" transform="translate(-12.95 -928.99)"/><path class="cls-1" d="M256.32,1183.43l-8.73-4.87,10-6.79" transform="translate(-12.95 -928.99)"/><path class="cls-1" d="M348.31,1148.36H332.58c.61-4.32,1-7.34,1.47-10.37" transform="translate(-12.95 -928.99)"/><path class="cls-1" d="M1536.87,1242c.58-4.73,1.17-9.46,1.82-14.65l9.83,1.68" transform="translate(-12.95 -928.99)"/><path class="cls-1" d="M1310,1181.25l15.56,9.06" transform="translate(-12.95 -928.99)"/><path class="cls-1" d="M976.87,1118l3.89,9.07" transform="translate(-12.95 -928.99)"/><path class="cls-1" d="M1100,1178.83l7.8,16.85" transform="translate(-12.95 -928.99)"/><path class="cls-1" d="M979.57,1245l5.19,6.48" transform="translate(-12.95 -928.99)"/><path class="cls-1" d="M869.32,1149.22l1.29-5.19,3.89,1.3" transform="translate(-12.95 -928.99)"/><path class="cls-1" d="M1543.26,1142.17,1551,1137" transform="translate(-12.95 -928.99)"/><path class="cls-1" d="M982.15,1232.07l-6.55,3.78-.12,2.65,18.34,1.34" transform="translate(-12.95 -928.99)"/><path class="cls-1" d="M881,1185.5l6,1.87c.78-5.21,1.48-10,2.48-16.69l-16.2-1c1.14-5.71,2.48-12.47,3.83-19.22" transform="translate(-12.95 -928.99)"/><path class="cls-1" d="M1301,1199.4l7.88-6.32-2.71-4" transform="translate(-12.95 -928.99)"/><path class="cls-1" d="M253.79,1253.42l10.36-2.6" transform="translate(-12.95 -928.99)"/><path class="cls-1" d="M592,1180.56l9.07-1.31" transform="translate(-12.95 -928.99)"/><path class="cls-1" d="M200.56,1151.08l16.86,9.06" transform="translate(-12.95 -928.99)"/><path class="cls-1" d="M1789.59,1232.69l4,5.73-10.5,15" transform="translate(-12.95 -928.99)"/><path class="cls-1" d="M143.47,1065.59l7.78,7.77" transform="translate(-12.95 -928.99)"/><path class="cls-1" d="M1784.31,1126.42v4.76l5.18.42" transform="translate(-12.95 -928.99)"/><path class="cls-1" d="M1123.37,1173.63c-10.59-2-4.68,5.35-6.71,8.2l3.55,3.34,10.94-9" transform="translate(-12.95 -928.99)"/><path class="cls-1" d="M599.65,1031.51l2.59,7.77" transform="translate(-12.95 -928.99)"/><path class="cls-1" d="M1295.78,1216.26l3.9,9.06" transform="translate(-12.95 -928.99)"/><path class="cls-1" d="M1295.79,1234.4l3.89-9.08" transform="translate(-12.95 -928.99)"/><path class="cls-1" d="M616.65,1219.42c-5.24-4.68-10.49-9.35-17.74-15.81l19-10.11" transform="translate(-12.95 -928.99)"/><path class="cls-1" d="M605,1175.36c0,2.16-.87,5,.16,6.37,4.07,5.5,5.74,20.44,2.46,27.33" transform="translate(-12.95 -928.99)"/><path class="cls-1" d="M410.51,1137.94l18.15-2.61" transform="translate(-12.95 -928.99)"/><path class="cls-1" d="M881,1159.58q1.29,4.53,2.6,9.07" transform="translate(-12.95 -928.99)"/><path class="cls-1" d="M855.08,1159.6l19.64,1.4,20.53-10.51" transform="translate(-12.95 -928.99)"/><path class="cls-1" d="M1772.74,1234c-4.21-13.42,12.22-.35,9.88-11.84-3.81.76-8.79,1.8-13.79,2.71-.34.06-1.09-.74-1.23-1.25a11.06,11.06,0,0,1-.06-2.58" transform="translate(-12.95 -928.99)"/><path class="cls-1" d="M1273.71,1173.5c-.12-11.48,4.69-14.45,16.84-10.38" transform="translate(-12.95 -928.99)"/><path class="cls-1" d="M1593.85,1188.79v3.65l5.19,2.82" transform="translate(-12.95 -928.99)"/><path class="cls-1" d="M965.3,1234.68h8.47l3.19-7.78" transform="translate(-12.95 -928.99)"/><path class="cls-1" d="M610.11,1140.36q2.58-3.88,5.17-7.78" transform="translate(-12.95 -928.99)"/><path class="cls-1" d="M612.77,1225.9l1.49,9.18-8,5.08" transform="translate(-12.95 -928.99)"/><path class="cls-1" d="M454.54,1093.84l13-2.61" transform="translate(-12.95 -928.99)"/><path class="cls-1" d="M1259.41,1117.79l9.07,1.28" transform="translate(-12.95 -928.99)"/><path class="cls-1" d="M178.59,1222.38l10.24,2.85,2.46-5,18.4-1.78" transform="translate(-12.95 -928.99)"/><path class="cls-1" d="M1145.46,1247.49l9.07-2.6" transform="translate(-12.95 -928.99)"/><path class="cls-1" d="M1246.47,1148.9l8.38-5.57,5.88,6.86" transform="translate(-12.95 -928.99)"/><path class="cls-1" d="M1736.45,1228.85c9,5.19,14.94,17.71,28.61,11.86.11,0,1.64,3.23,2.51,5" transform="translate(-12.95 -928.99)"/><path class="cls-1" d="M960.07,1182.84l-1.76-7.14-3.42.54v6.6" transform="translate(-12.95 -928.99)"/><path class="cls-1" d="M655.52,1203.83c5,8.6-4.29,13.58-5.3,20.72-.51,3.57-2.45,6.94-3.75,10.4" transform="translate(-12.95 -928.99)"/><path class="cls-1" d="M1741.61,1208.1l3.9,1.32,5.17-2.62" transform="translate(-12.95 -928.99)"/><path class="cls-1" d="M1649.63,1247.06l-6.38-4.78-7,12.57h9.48" transform="translate(-12.95 -928.99)"/><path class="cls-1" d="M290,1213.21c-.86,2.16-1.21,4.81-2.71,6.36-2,2.09-4.9,3.33-9,5.94l9.14,2" transform="translate(-12.95 -928.99)"/><path class="cls-1" d="M1639.2,1181c-1.19,1.8-2.39,3.59-3.81,5.72l9,5.71v11.9l2.79.76c1.22-2.42,2.45-4.83,3.68-7.25" transform="translate(-12.95 -928.99)"/><path class="cls-1" d="M1641.78,1162.83l-1.29,9.07" transform="translate(-12.95 -928.99)"/><path class="cls-1" d="M954.85,1137.48v13" transform="translate(-12.95 -928.99)"/><path class="cls-1" d="M1652.06,1064.32l5.19.41v4.77" transform="translate(-12.95 -928.99)"/><path class="cls-1" d="M1657.36,1196.51l3.88-9.07" transform="translate(-12.95 -928.99)"/><path class="cls-1" d="M452.05,1218.26c5,12.15,14.7,7.41,23.34,6.46" transform="translate(-12.95 -928.99)"/><path class="cls-1" d="M38.59,1190.09c2.59,1.3,5.22,2.53,7.77,3.91,2.21,1.19,4.33,2.56,6.49,3.86" transform="translate(-12.95 -928.99)"/><path class="cls-1" d="M532.33,1124.88l9.08,3.88" transform="translate(-12.95 -928.99)"/><path class="cls-1" d="M1670.26,1123.92l9.07,1.29" transform="translate(-12.95 -928.99)"/><path class="cls-1" d="M119,1240.57c8.29,3.2,18.92,3.87,18.16,16.84" transform="translate(-12.95 -928.99)"/><path class="cls-1" d="M532.3,1086v4.76l5.19.42" transform="translate(-12.95 -928.99)"/><path class="cls-1" d="M279.67,1206.74l-10.21,11.11,11.52,4.44" transform="translate(-12.95 -928.99)"/><path class="cls-1" d="M528.52,1219.49c5.19-5,8.42-1.17,11.67,2.58" transform="translate(-12.95 -928.99)"/><path class="cls-1" d="M935.44,1175.08c1.34-2.57,2.67-5.14,4.57-8.82l13.58,7.51" transform="translate(-12.95 -928.99)"/><path class="cls-1" d="M349.69,1243l9.07-2.6" transform="translate(-12.95 -928.99)"/><path class="cls-1" d="M941.85,1083.06l7.78,5.18" transform="translate(-12.95 -928.99)"/><path class="cls-1" d="M1201.1,1132.09l6.48,6.48" transform="translate(-12.95 -928.99)"/><path class="cls-1" d="M1198.47,1093.21l7.77-5.19" transform="translate(-12.95 -928.99)"/><path class="cls-1" d="M623.15,1241.45l18.15,5.16" transform="translate(-12.95 -928.99)"/><path class="cls-1" d="M1689.76,1190l9.07,3.88" transform="translate(-12.95 -928.99)"/><path class="cls-1" d="M424.79,1157.37l7.78,5.18" transform="translate(-12.95 -928.99)"/><path class="cls-1" d="M936.77,1214c.53-2,1.05-4,1.57-6l-.65,0q-5,10.77-10,21.55" transform="translate(-12.95 -928.99)"/><path class="cls-1" d="M1202.48,1235.77c2.59-1.73,5.16-4.86,7.78-4.9,6-.09,6.8-3.85,7.76-8.07" transform="translate(-12.95 -928.99)"/><path class="cls-1" d="M1183,1160.62c5.86,1,11.71,2,7.78,10.36" transform="translate(-12.95 -928.99)"/><path class="cls-1" d="M1188.22,1235.79l10.11,21.65,11.94-6.12" transform="translate(-12.95 -928.99)"/><path class="cls-1" d="M940.61,1151.75l7.6,4.54-7.59,7.13" transform="translate(-12.95 -928.99)"/><path class="cls-1" d="M1192.08,1202.09l-5.9,8,7.21,4.92" transform="translate(-12.95 -928.99)"/><path class="cls-1" d="M943.18,1123.24q3.89,5.17,7.78,10.36" transform="translate(-12.95 -928.99)"/><path class="cls-1" d="M1211.55,1231.88q.65,5.83,1.31,11.66" transform="translate(-12.95 -928.99)"/><path class="cls-1" d="M1717,1204.24l6.28-4.7-3.69-5.67" transform="translate(-12.95 -928.99)"/><path class="cls-1" d="M37.28,1174.54l8.27,3.51,6-2.22" transform="translate(-12.95 -928.99)"/><path class="cls-1" d="M918.56,1134.92c.44,3,.87,6,1.3,9.07l-6.48-1.29" transform="translate(-12.95 -928.99)"/><path class="cls-1" d="M1177.76,1116.56c5.54-5.19,2.61-10.37,0-15.55" transform="translate(-12.95 -928.99)"/><path class="cls-1" d="M1225.76,1173.54l11.67,7.77" transform="translate(-12.95 -928.99)"/><path class="cls-1" d="M1171.31,1154.15l2.91-2.43,8.75,3.72" transform="translate(-12.95 -928.99)"/><path class="cls-1" d="M905.59,1119.38l11.65-11.67" transform="translate(-12.95 -928.99)"/><path class="cls-1" d="M641.14,1060l7.78,2.59" transform="translate(-12.95 -928.99)"/><path class="cls-1" d="M417.06,1215.7c7.5,5.19,12.67,3.43,15.55-5.2" transform="translate(-12.95 -928.99)"/><path class="cls-1" d="M338,1176.88q2.58-7.77,5.17-15.55" transform="translate(-12.95 -928.99)"/><path class="cls-1" d="M1155.81,1222.85l5.35-6.1c-.7-1.42-1.73-3.49-2.77-5.56" transform="translate(-12.95 -928.99)"/><path class="cls-1" d="M1626.27,1209.5c1.72-2.6,3.79-5,5.1-7.82,3.07-6.5-1.92-7.68-6.41-9" transform="translate(-12.95 -928.99)"/><path class="cls-1" d="M1745.51,1214.58h5.18v7.77" transform="translate(-12.95 -928.99)"/><path class="cls-1" d="M899.14,1154.38l11.66-1.31" transform="translate(-12.95 -928.99)"/><path class="cls-1" d="M1253,1152.78l16.85,1.29" transform="translate(-12.95 -928.99)"/><path class="cls-1" d="M1258.2,1225.36v-7.78" transform="translate(-12.95 -928.99)"/><path class="cls-1" d="M264.12,1205.46c8.61-1.83,6.22-8.64,6.46-14.26" transform="translate(-12.95 -928.99)"/><path class="cls-1" d="M1254.27,1178.7l15.56,9.06" transform="translate(-12.95 -928.99)"/><path class="cls-1" d="M593.3,1194.81l22.35-10c3.17,4.46,6,8.48,9.71,13.63l-10,5.4" transform="translate(-12.95 -928.99)"/><path class="cls-1" d="M1124.71,1226.77c5.41-2.18,10-8.11,16.85-3.9" transform="translate(-12.95 -928.99)"/><path class="cls-1" d="M1131.05,1057l7.77-2.6" transform="translate(-12.95 -928.99)"/><path class="cls-1" d="M965.21,1127.11l4.78-6.41c-1.59-4.76-3.19-9.55-4.8-14.33" transform="translate(-12.95 -928.99)"/><path class="cls-1" d="M1590,1243.23l13,0" transform="translate(-12.95 -928.99)"/><path class="cls-1" d="M1591.25,1177.13q-1.3,3.88-2.59,7.77" transform="translate(-12.95 -928.99)"/><path class="cls-1" d="M65.82,1203q-1.32,3.23-2.65,6.43l-3.12-1.59,7.07,4.23" transform="translate(-12.95 -928.99)"/><path class="cls-1" d="M602.35,1167.59l10.38,7.77" transform="translate(-12.95 -928.99)"/><path class="cls-1" d="M1288,1159.24l6-6.78,6.94,4.17" transform="translate(-12.95 -928.99)"/><path class="cls-1" d="M1579.56,1147.33l2.59,7.77" transform="translate(-12.95 -928.99)"/><path class="cls-1" d="M650.37,1237.53l16.85,3.88" transform="translate(-12.95 -928.99)"/><path class="cls-1" d="M1289.32,1238.29q1.29-10.36,2.57-20.74" transform="translate(-12.95 -928.99)"/><path class="cls-1" d="M174.66,1171.84c.82,2,1.65,4,2.37,5.76l14.5,13.66" transform="translate(-12.95 -928.99)"/><path class="cls-1" d="M284.86,1217.1l14.25-9.08" transform="translate(-12.95 -928.99)"/><path class="cls-1" d="M63.25,1226.36c4.55-4.37,9.75-8.58,2.78-16.85H74.9" transform="translate(-12.95 -928.99)"/><path class="cls-1" d="M363.83,1112.06l3.89,3.23,3.89-3.24" transform="translate(-12.95 -928.99)"/><path class="cls-1" d="M1783.09,1212c-2.24-5.38-2.78-10.25,3.88-13" transform="translate(-12.95 -928.99)"/><path class="cls-1" d="M1779.2,1214.55h13" transform="translate(-12.95 -928.99)"/><path class="cls-1" d="M71,1236.73c5.34-.12,10.92.43,14.25-5.2" transform="translate(-12.95 -928.99)"/><path class="cls-1" d="M200.57,1161.45l13,7.76" transform="translate(-12.95 -928.99)"/><path class="cls-1" d="M586.79,1161.12l14.26,3.88" transform="translate(-12.95 -928.99)"/><path class="cls-1" d="M1302.27,1226.62l16.85,6.46" transform="translate(-12.95 -928.99)"/><path class="cls-1" d="M1088.42,1225.5l4.41,5.85,12-5.09c-1.76-3.79-3.06-6.61-5.78-12.48l19.17,5.22" transform="translate(-12.95 -928.99)"/><path class="cls-1" d="M674.92,1155.86v7.78" transform="translate(-12.95 -928.99)"/><path class="cls-1" d="M1545.88,1175.87v9.07h6.48" transform="translate(-12.95 -928.99)"/><path class="cls-1" d="M1310.05,1227.91c-1.46-8.36,5.46-8.36,10.36-10.38" transform="translate(-12.95 -928.99)"/><path class="cls-1" d="M681.44,1203.81l14.26,3.88" transform="translate(-12.95 -928.99)"/><path class="cls-1" d="M1078,1137.38c10.88-2.29,12.91,8.71,19.45,12.94" transform="translate(-12.95 -928.99)"/><path class="cls-1" d="M172.05,1153.69c-5.76,12.31,7.66,11.32,11.68,16.84" transform="translate(-12.95 -928.99)"/><path class="cls-1" d="M859,1189.41c-3.74,7-3.74,7,3.91,16.86l11.65-3.92" transform="translate(-12.95 -928.99)"/><path class="cls-1" d="M147.5,1240.55l7.78-1.3" transform="translate(-12.95 -928.99)"/><path class="cls-1" d="M433.89,1192.35l12.05-6c-3.35-14.72-3.35-14.72-10.77-13.4" transform="translate(-12.95 -928.99)"/><path class="cls-1" d="M989.93,1234.66c.59-3,1.18-6,1.79-9.06-7-.06-13.43-.1-7,9.06" transform="translate(-12.95 -928.99)"/><path class="cls-1" d="M1342.45,1229.18q.65,8.41,1.31,16.84" transform="translate(-12.95 -928.99)"/><path class="cls-1" d="M1354.09,1198.06l-9.68,6.2c-3.34-2.3-3.94-6.11,3.16-10.14a8.41,8.41,0,0,0,3.71-3.9c.3-.9-1.52-2.52-2.39-3.82" transform="translate(-12.95 -928.99)"/><path class="cls-1" d="M1072.84,1187.93l6.47-2.6" transform="translate(-12.95 -928.99)"/><path class="cls-1" d="M1061.19,1207.38l14.94,3.73c1.12,5,2.17,9.7,3.22,14.4" transform="translate(-12.95 -928.99)"/><path class="cls-1" d="M1505.76,1235.52l9.16,14.65-10.45,3.5" transform="translate(-12.95 -928.99)"/><path class="cls-1" d="M711.25,1205.08l-5.18-2.59,2.59-2.59,2.59,3.89" transform="translate(-12.95 -928.99)"/><path class="cls-1" d="M1347.63,1227.88l-7.31-3.44q.77-2.36,1.54-4.71l14.84,4.25" transform="translate(-12.95 -928.99)"/><path class="cls-1" d="M1348.85,1139.74l9.49,18.82c2.39-3.57,3.58-5.37,4.78-7.16" transform="translate(-12.95 -928.99)"/><path class="cls-1" d="M239.45,1151l3.88-5.18" transform="translate(-12.95 -928.99)"/><path class="cls-1" d="M1343.74,1218.81l11.65-9.09" transform="translate(-12.95 -928.99)"/><path class="cls-1" d="M1864.71,1175.6l5.19,5.18" transform="translate(-12.95 -928.99)"/><path class="cls-1" d="M827.9,1206.28c.57-2.91,1.15-5.82,2.13-10.79l-8.62,4.32" transform="translate(-12.95 -928.99)"/><path class="cls-1" d="M1054.68,1172.39l12.92,4.3,5.22-4.31" transform="translate(-12.95 -928.99)"/><path class="cls-1" d="M739.74,1170.06l-19.72,0c0,1.41,0,2.82,0,4.23l6.75,1" transform="translate(-12.95 -928.99)"/><path class="cls-1" d="M375.58,1213.14c-.14-11.43,9.58-8.1,15.55-10.38" transform="translate(-12.95 -928.99)"/><path class="cls-1" d="M1483.67,1168.14l13,2.58" transform="translate(-12.95 -928.99)"/><path class="cls-1" d="M1356.66,1181.21l5.26-.43,2.46-3.41-6.43-2.64" transform="translate(-12.95 -928.99)"/><path class="cls-1" d="M1478.45,1131.86q3.24,3.24,6.49,6.47" transform="translate(-12.95 -928.99)"/><path class="cls-1" d="M1481.14,1249.8c-2.36-3.61-14.15-3-6.08-10.82l8.67,1.74" transform="translate(-12.95 -928.99)"/><path class="cls-1" d="M1045.66,1233.31l5.59,6.28,7.37-1.1" transform="translate(-12.95 -928.99)"/><path class="cls-1" d="M1000.29,1223l9-11.17,7.86,7.27" transform="translate(-12.95 -928.99)"/><path class="cls-1" d="M728.11,1220.62l11.68,16.84" transform="translate(-12.95 -928.99)"/><path class="cls-1" d="M1045.59,1154.26c9,3.88,7.22,7.82,0,11.63a67.68,67.68,0,0,1-6.46,2.63" transform="translate(-12.95 -928.99)"/><path class="cls-1" d="M813.6,1154.45v-7.78" transform="translate(-12.95 -928.99)"/><path class="cls-1" d="M231.59,1057.74l7.78,2.58" transform="translate(-12.95 -928.99)"/><path class="cls-1" d="M744.94,1192.09l11.66-1.3" transform="translate(-12.95 -928.99)"/><path class="cls-1" d="M230.34,1110.87c4.53-1.34,5.22-3.45,1.29-6.48" transform="translate(-12.95 -928.99)"/><path class="cls-1" d="M750,1049.52l5.19,7.78" transform="translate(-12.95 -928.99)"/><path class="cls-1" d="M1387.78,1199.33l10.38,10.36" transform="translate(-12.95 -928.99)"/><path class="cls-1" d="M109.92,1243.17c-4.48,6.2-17.71-2.88-18.14,10.39" transform="translate(-12.95 -928.99)"/><path class="cls-1" d="M234.32,1222.33c-7.52,8.13,1.81,10.11,5,16.62l4.05-10.15" transform="translate(-12.95 -928.99)"/><path class="cls-1" d="M400.11,1091.29c-.87,2.59-1.73,5.19-2.59,7.78" transform="translate(-12.95 -928.99)"/><path class="cls-1" d="M1417.63,1240.78c-.31-1.68-.61-3.35-1-5.19h23l.91-1.71-8.69-4.77" transform="translate(-12.95 -928.99)"/><path class="cls-1" d="M1031.4,1233.33c-.74-5.63-1.47-11.25-2.55-19.51l-5.51,11,13.24,3.34" transform="translate(-12.95 -928.99)"/><path class="cls-1" d="M789.05,1242.6l8.09,2.55,1,7.81" transform="translate(-12.95 -928.99)"/><path class="cls-1" d="M1424,1067.1l5.19,6.48" transform="translate(-12.95 -928.99)"/><path class="cls-1" d="M786.34,1111.7l13,7.77" transform="translate(-12.95 -928.99)"/><path class="cls-1" d="M773.49,1234.84l11,9.36,5.86-12" transform="translate(-12.95 -928.99)"/><path class="cls-1" d="M1034,1235.92c.44,1.29,1.55,3.49,1.2,3.75-4.77,3.59-6.22,7.31-1.18,11.8" transform="translate(-12.95 -928.99)"/><path class="cls-1" d="M1403.31,1168.21l11.67,1.29" transform="translate(-12.95 -928.99)"/><path class="cls-1" d="M779.92,1179.1h6.48" transform="translate(-12.95 -928.99)"/><path class="cls-1" d="M1403.28,1129.33l1.57-4.64,6.2,4.63" transform="translate(-12.95 -928.99)"/><path class="cls-1" d="M1400.73,1176c2.59,2.16,6.42,3.86,7.43,6.6s5.58,9.27-3.53,9" transform="translate(-12.95 -928.99)"/><path class="cls-1" d="M796.77,1184.27l-10.48-2c-.08-1.41-.15-2.83-.22-4.25l10.7-1.48" transform="translate(-12.95 -928.99)"/><path class="cls-1" d="M1418.89,1195.42l5.19,14.25" transform="translate(-12.95 -928.99)"/><path class="cls-1" d="M1421.44,1144.87l3-1.53-3-3.66" transform="translate(-12.95 -928.99)"/><path class="cls-1" d="M759.17,1162.27l2.38,14.19,8,1.36" transform="translate(-12.95 -928.99)"/><path class="cls-1" d="M1431.79,1129.31l13-2.61" transform="translate(-12.95 -928.99)"/><path class="cls-1" d="M813.6,1159.63l7.79,11.66" transform="translate(-12.95 -928.99)"/><path class="cls-1" d="M726.81,1214.14V1220l-5.19-2.75c0-6.22,13.62-8.38,24.62-4.43" transform="translate(-12.95 -928.99)"/><path class="cls-1" d="M1485,1239.43l5.83-1.84v8.13L1485,1242" transform="translate(-12.95 -928.99)"/><path class="cls-1" d="M813.62,1180.37c6.86-4.79,13.3-9.86,12.94-19.45" transform="translate(-12.95 -928.99)"/><path class="cls-1" d="M1490.1,1115l5.19,5.18" transform="translate(-12.95 -928.99)"/><path class="cls-1" d="M1492.8,1243.31l7.31,3.63-11.19,9.33" transform="translate(-12.95 -928.99)"/><path class="cls-1" d="M835.61,1132.4q.66,3.24,1.3,6.48" transform="translate(-12.95 -928.99)"/><path class="cls-1" d="M843.4,1141.46l-9.07,2.28,9.07,6.8" transform="translate(-12.95 -928.99)"/><path class="cls-1" d="M478,1193.61l10.39,18.14" transform="translate(-12.95 -928.99)"/><path class="cls-1" d="M1509.59,1170.71l13,5.18" transform="translate(-12.95 -928.99)"/><path class="cls-1" d="M1337.29,1255.1c-1.5-2-3-4-4.34-5.87l9.51-1.91" transform="translate(-12.95 -928.99)"/><path class="cls-1" d="M694.37,1163.62l5.19,11.66" transform="translate(-12.95 -928.99)"/><path class="cls-1" d="M367.78,1187.23,382,1182" transform="translate(-12.95 -928.99)"/><path class="cls-1" d="M1329.39,1115.14h6.48" transform="translate(-12.95 -928.99)"/><path class="cls-1" d="M1330.74,1172.16l5.17-6.48" transform="translate(-12.95 -928.99)"/><path class="cls-1" d="M1325.5,1108.66,1332,1110" transform="translate(-12.95 -928.99)"/><path class="cls-1" d="M406.68,1209.23l7.77-11.67" transform="translate(-12.95 -928.99)"/><path class="cls-1" d="M479.21,1147q1.95,3.24,3.89,6.48" transform="translate(-12.95 -928.99)"/><path class="cls-1" d="M1317.78,1176.06l6.48-1.3" transform="translate(-12.95 -928.99)"/><path class="cls-1" d="M878.42,1181.61l-7.93-4.56c1.92,8.6-8.6,15.32-1.12,24" transform="translate(-12.95 -928.99)"/><path class="cls-1" d="M76.23,1249.68l6.48,1.29" transform="translate(-12.95 -928.99)"/><path class="cls-1" d="M213.56,1195.13l-1.29,6.48" transform="translate(-12.95 -928.99)"/><path class="cls-1" d="M1556.29,1225.11c-5.27,4.7-9.63,9.61-3.87,16.85" transform="translate(-12.95 -928.99)"/><path class="cls-1" d="M475.38,1211.76l9.06-7.78" transform="translate(-12.95 -928.99)"/><path class="cls-1" d="M886.2,1180.31l-11.55,9.26c5.82,5.46,11.28,9.6,5.47,16.57l-3.25-.29,1.56-11.28" transform="translate(-12.95 -928.99)"/><path class="cls-1" d="M1575.71,1194c.43,3.45.87,6.91,1.3,10.36" transform="translate(-12.95 -928.99)"/><path class="cls-1" d="M882.27,1132.36,892.63,1122" transform="translate(-12.95 -928.99)"/><path class="cls-1" d="M1265.86,1080.2l5.18,5.18" transform="translate(-12.95 -928.99)"/><path class="cls-1" d="M50.31,1252.3,68.45,1251" transform="translate(-12.95 -928.99)"/><path class="cls-1" d="M357.34,1095.22l6.48,1.29" transform="translate(-12.95 -928.99)"/><path class="cls-1" d="M47.67,1194H59.33" transform="translate(-12.95 -928.99)"/><path class="cls-1" d="M1252.93,1121.68l-3.06,3.06,3.06,2.12" transform="translate(-12.95 -928.99)"/><path class="cls-1" d="M1249.15,1246.1l3.87-15.55" transform="translate(-12.95 -928.99)"/><path class="cls-1" d="M901.69,1102.53l19.44,6.47" transform="translate(-12.95 -928.99)"/><path class="cls-1" d="M1249.11,1204.63c.87,3,1.73,6,2.6,9.07" transform="translate(-12.95 -928.99)"/><path class="cls-1" d="M1635.32,1184.86l-7.87,4c3.1-5.59-2.17-11.66,6.56-13.08" transform="translate(-12.95 -928.99)"/><path class="cls-1" d="M520.72,1189.69c1.95,3.78,3.9,7.57,6.49,12.58v5.56" transform="translate(-12.95 -928.99)"/><path class="cls-1" d="M639.91,1133.86l6.48-1.3" transform="translate(-12.95 -928.99)"/><path class="cls-1" d="M446.87,1218.26c8.4-3.19,16.69-4.39,24.63,1.28" transform="translate(-12.95 -928.99)"/><path class="cls-1" d="M913.32,1070.12l5.19,5.18" transform="translate(-12.95 -928.99)"/><path class="cls-1" d="M352.22,1175.57c1.61-3,3.23-6,5.7-10.67l-13.48,1.61" transform="translate(-12.95 -928.99)"/><path class="cls-1" d="M1666.41,1170.58l3.89,5.18" transform="translate(-12.95 -928.99)"/><path class="cls-1" d="M917.33,1214l4.19,1.19c-.73-2.92-1.17-4.65-1.6-6.38" transform="translate(-12.95 -928.99)"/><path class="cls-1" d="M1657.38,1225l18.15-1.31" transform="translate(-12.95 -928.99)"/><path class="cls-1" d="M133.21,1201.68l-9,2c2.22,5.94,3.67,9.77,5.11,13.61" transform="translate(-12.95 -928.99)"/><path class="cls-1" d="M1211.48,1150.23l3-1.53-3-3.66" transform="translate(-12.95 -928.99)"/><path class="cls-1" d="M621.82,1203.86c2.6,4.75,5.39,9.41,7.73,14.28,2,4.18,3.53,8.61,5.26,12.93" transform="translate(-12.95 -928.99)"/><path class="cls-1" d="M348.28,1116l5.19,3.88" transform="translate(-12.95 -928.99)"/><path class="cls-1" d="M1688.48,1214.63l1.29-6.48" transform="translate(-12.95 -928.99)"/><path class="cls-1" d="M1197.17,1088l-2.76,6.32-3.08-1.62,7.15,5.67" transform="translate(-12.95 -928.99)"/><path class="cls-1" d="M1188.19,1195.61l11.67,7.77" transform="translate(-12.95 -928.99)"/><path class="cls-1" d="M947.13,1198.4l-8.29,2.09c6.76-7.78,6.76-7.78,10.88-3.38" transform="translate(-12.95 -928.99)"/><path class="cls-1" d="M1711.83,1235.35l22,14.23" transform="translate(-12.95 -928.99)"/><path class="cls-1" d="M338,1257.24l9.07-6.49" transform="translate(-12.95 -928.99)"/><path class="cls-1" d="M1731.29,1257.36l15.55-3.9" transform="translate(-12.95 -928.99)"/><path class="cls-1" d="M1153.21,1208.6c11.24,5.18,5.87-6.23,9.06-9.08" transform="translate(-12.95 -928.99)"/><path class="cls-1" d="M632.16,1162.38,627,1174.05" transform="translate(-12.95 -928.99)"/><path class="cls-1" d="M623.11,1192.2l24.13-15.84,3.08,1.56" transform="translate(-12.95 -928.99)"/><path class="cls-1" d="M952.31,1193.22l5.12-11.8,4,10.49" transform="translate(-12.95 -928.99)"/><path class="cls-1" d="M429.94,1119.78l-5.43-1.87,1.69-3.31,12.81,7.76" transform="translate(-12.95 -928.99)"/><path class="cls-1" d="M138.36,1156.31l5.19,5.18" transform="translate(-12.95 -928.99)"/><path class="cls-1" d="M1109.12,1177.53l15.55,2.58" transform="translate(-12.95 -928.99)"/><path class="cls-1" d="M435.11,1108.11l6.49,3.88" transform="translate(-12.95 -928.99)"/><path class="cls-1" d="M584.16,1114.47q3.26,3.22,6.49,6.47" transform="translate(-12.95 -928.99)"/><path class="cls-1" d="M1788.31,1249.54l22,1.28" transform="translate(-12.95 -928.99)"/><path class="cls-1" d="M1097.45,1173.65l9.07,1.29" transform="translate(-12.95 -928.99)"/><path class="cls-1" d="M1092.24,1141.26l7.76-11.68" transform="translate(-12.95 -928.99)"/><path class="cls-1" d="M1838.84,1230.06l6-5.25c.57,1.62,1.19,3.43,1.82,5.24" transform="translate(-12.95 -928.99)"/><path class="cls-1" d="M1841.44,1250.79h10.37" transform="translate(-12.95 -928.99)"/><path class="cls-1" d="M566,1137.81l-3,1.53c1.07,1.27,2.06,2.46,3,3.65" transform="translate(-12.95 -928.99)"/><path class="cls-1" d="M1854.37,1204.12l5.18-5.19" transform="translate(-12.95 -928.99)"/><path class="cls-1" d="M314.68,1231.34l16.85,0" transform="translate(-12.95 -928.99)"/><path class="cls-1" d="M1009.37,1241.12c-6.63-.17-9.76,2.17-6.47,9.08" transform="translate(-12.95 -928.99)"/><path class="cls-1" d="M1002.88,1230.76c7-4.57,12-12.92,22-11.69" transform="translate(-12.95 -928.99)"/><path class="cls-1" d="M1867.31,1188.56l3.89-1.3-2.59,3.89" transform="translate(-12.95 -928.99)"/><path class="cls-1" d="M308.16,1184.68l3.91,18.15" transform="translate(-12.95 -928.99)"/><path class="cls-1" d="M1015.73,1094.66l6.48,3.88" transform="translate(-12.95 -928.99)"/><path class="cls-1" d="M1032.67,1199.63l14.26,1.28" transform="translate(-12.95 -928.99)"/><path class="cls-1" d="M314.64,1180.79h6.53l-.51,3.94-11.2-2.63" transform="translate(-12.95 -928.99)"/><path class="cls-1" d="M310.74,1170.43l9.07-3v-4.15l-7.78.7" transform="translate(-12.95 -928.99)"/><path class="cls-1" d="M159.12,1187.4l13,9.06" transform="translate(-12.95 -928.99)"/><path class="cls-1" d="M550.38,1013.4l5.19,2.59" transform="translate(-12.95 -928.99)"/><path class="cls-1" d="M301.62,1106.93l2.6,5.18" transform="translate(-12.95 -928.99)"/><path class="cls-1" d="M170.78,1183.5c-4.31-2.46-5.74-5.34-1.3-9.07" transform="translate(-12.95 -928.99)"/><path class="cls-1" d="M1053.37,1160.73l9.08,9.06" transform="translate(-12.95 -928.99)"/><path class="cls-1" d="M1057.28,1190.53l5.19,2.59" transform="translate(-12.95 -928.99)"/><path class="cls-1" d="M1001.48,1096l2.59,5.18" transform="translate(-12.95 -928.99)"/><path class="cls-1" d="M1854.36,1193.75q2.58-3.88,5.17-7.78" transform="translate(-12.95 -928.99)"/><path class="cls-1" d="M1069,1204.78q1.3,5.19,2.6,10.37" transform="translate(-12.95 -928.99)"/><path class="cls-1" d="M432.63,1235.13l12.95-5.2" transform="translate(-12.95 -928.99)"/><path class="cls-1" d="M293.87,1145.81q3.9,5.19,7.79,10.37" transform="translate(-12.95 -928.99)"/><path class="cls-1" d="M16.54,1166.78l5.18-3.89" transform="translate(-12.95 -928.99)"/><path class="cls-1" d="M573.81,1137.8l3.9,3.89" transform="translate(-12.95 -928.99)"/><path class="cls-1" d="M988.53,1114.13c-.86,1.72-1.73,3.45-2.59,5.18" transform="translate(-12.95 -928.99)"/><path class="cls-1" d="M1085.81,1206.06l3.89,3.89" transform="translate(-12.95 -928.99)"/><path class="cls-1" d="M1810.29,1188.61l6.48,6.47" transform="translate(-12.95 -928.99)"/><path class="cls-1" d="M1807.69,1180.83l5.18,2.59" transform="translate(-12.95 -928.99)"/><path class="cls-1" d="M583,1222l5.18-2.6" transform="translate(-12.95 -928.99)"/><path class="cls-1" d="M1100,1136.06c1.68.57,3.37,1.13,5.65,1.88-.93,1.42-2,3-3.05,4.6" transform="translate(-12.95 -928.99)"/><path class="cls-1" d="M584.19,1150.75h5.19" transform="translate(-12.95 -928.99)"/><path class="cls-1" d="M1109.15,1217.71v11.66" transform="translate(-12.95 -928.99)"/><path class="cls-1" d="M975.62,1176.35l2.59-5.19" transform="translate(-12.95 -928.99)"/><path class="cls-1" d="M1777.94,1253.44a26.26,26.26,0,0,0,.12,3.87,15.51,15.51,0,0,0,2.48,0c-.44-1.73-.87-3.45-1.3-5.18" transform="translate(-12.95 -928.99)"/><path class="cls-1" d="M1119.52,1225.48c1.72,2.29,3.43,4.58,5.84,7.82,3.6.17,9.28.51,4.53-7.83" transform="translate(-12.95 -928.99)"/><path class="cls-1" d="M1764.85,1104.4l3.9,3.89" transform="translate(-12.95 -928.99)"/><path class="cls-1" d="M271.89,1200.27l13,10.35" transform="translate(-12.95 -928.99)"/><path class="cls-1" d="M336.68,1186l5-2.73,5.38,2.72" transform="translate(-12.95 -928.99)"/><path class="cls-1" d="M1142.87,1241c2.7-2.5,6.46-4.7,2.58-9.08" transform="translate(-12.95 -928.99)"/><path class="cls-1" d="M37.32,1223.79q-.65,5.19-1.28,10.37" transform="translate(-12.95 -928.99)"/><path class="cls-1" d="M1735.12,1193.85l5.19,2.59" transform="translate(-12.95 -928.99)"/><path class="cls-1" d="M1153.09,1072.51l3.9,5.18" transform="translate(-12.95 -928.99)"/><path class="cls-1" d="M1154.49,1196.93l3.9,3.89" transform="translate(-12.95 -928.99)"/><path class="cls-1" d="M1167.45,1186.55l3.88-3.89" transform="translate(-12.95 -928.99)"/><path class="cls-1" d="M1705.35,1239.24l3.89,3.88" transform="translate(-12.95 -928.99)"/><path class="cls-1" d="M190.19,1143.31c.86,1.73,1.73,3.45,2.6,5.18" transform="translate(-12.95 -928.99)"/><path class="cls-1" d="M630.79,1083.32q1.31-2.6,2.59-5.19" transform="translate(-12.95 -928.99)"/><path class="cls-1" d="M190.16,1107v-5.18" transform="translate(-12.95 -928.99)"/><path class="cls-1" d="M1693.62,1165.38l-2.58,5.18" transform="translate(-12.95 -928.99)"/><path class="cls-1" d="M1181.74,1234.5c10.36-3.63,18.22-.82,23.34,11.57v-9" transform="translate(-12.95 -928.99)"/><path class="cls-1" d="M922.5,1194.54c5,4.76,11.22,1.8,16.85,2.57" transform="translate(-12.95 -928.99)"/><path class="cls-1" d="M1203.67,1113.94c4.4-4.3,9.42-1.83,14.26-1.3" transform="translate(-12.95 -928.99)"/><path class="cls-1" d="M925.12,1224.34c-1.23-7.19,1.77-11.09,9.06-11.67" transform="translate(-12.95 -928.99)"/><path class="cls-1" d="M49,1203.05l-1.29,9.07q3.24,3.24,6.49,6.47" transform="translate(-12.95 -928.99)"/><path class="cls-1" d="M1639.18,1152.46c.86,1.73,1.73,3.46,2.59,5.18" transform="translate(-12.95 -928.99)"/><path class="cls-1" d="M1216.62,1095.79l6.81-2.34,1-2.85" transform="translate(-12.95 -928.99)"/><path class="cls-1" d="M646.33,1067.76l5.19,2.58" transform="translate(-12.95 -928.99)"/><path class="cls-1" d="M1632.78,1244.49q-2.44,4-4.87,8l-2.9-.19,0-13" transform="translate(-12.95 -928.99)"/><path class="cls-1" d="M647.79,1251.79c-2.76-5.37-2.76-5.37,7.76-7.78" transform="translate(-12.95 -928.99)"/><path class="cls-1" d="M1615.84,1142.11c2.73,1,8.42-3.89,7.78,3.88" transform="translate(-12.95 -928.99)"/><path class="cls-1" d="M1246.49,1174.82c-8.62,3.6-9.06,5.22-3.87,14.26" transform="translate(-12.95 -928.99)"/><path class="cls-1" d="M1617.16,1166.74c-1.3-.87-2.52-2.27-3.91-2.47-2.1-.29-5.93-4.65-5.17-6.6" transform="translate(-12.95 -928.99)"/><path class="cls-1" d="M654.17,1132.55l11.66-1.3" transform="translate(-12.95 -928.99)"/><path class="cls-1" d="M258.92,1191.21q.66,8.41,1.31,16.84" transform="translate(-12.95 -928.99)"/><path class="cls-1" d="M354.84,1201.49q4.53,8.43,9.08,16.84" transform="translate(-12.95 -928.99)"/><path class="cls-1" d="M522,1130.07l5.18,2.59" transform="translate(-12.95 -928.99)"/><path class="cls-1" d="M888.79,1185.49l3.9,10.37" transform="translate(-12.95 -928.99)"/><path class="cls-1" d="M1280.17,1154.06l5.19,2.59" transform="translate(-12.95 -928.99)"/><path class="cls-1" d="M411.88,1220.89l3.89-5.19-3.9-3.89" transform="translate(-12.95 -928.99)"/><path class="cls-1" d="M1530.31,1155.14l5.18-2.59" transform="translate(-12.95 -928.99)"/><path class="cls-1" d="M873.28,1227c3.09-6.12,9.28-11.41,5.16-19.45" transform="translate(-12.95 -928.99)"/><path class="cls-1" d="M1297,1124.23l5.18,2.59" transform="translate(-12.95 -928.99)"/><path class="cls-1" d="M1301,1211.07l5.19,2.58" transform="translate(-12.95 -928.99)"/><path class="cls-1" d="M693.08,1176.58l10.38,3.88" transform="translate(-12.95 -928.99)"/><path class="cls-1" d="M695.57,1049.57c.86,1.73,1.73,3.45,2.6,5.18" transform="translate(-12.95 -928.99)"/><path class="cls-1" d="M1317.63,999.8l5.19,5.18" transform="translate(-12.95 -928.99)"/><path class="cls-1" d="M702.19,1214.16l5.08-1.6c.5.59,1,1.17,1.51,1.75l-4,3.74" transform="translate(-12.95 -928.99)"/><path class="cls-1" d="M107.26,1164.12l1.35-2.7,2.54,1.4" transform="translate(-12.95 -928.99)"/><path class="cls-1" d="M207.05,1153.66l3.74-4.5,1.44,5.8" transform="translate(-12.95 -928.99)"/><path class="cls-1" d="M1333.37,1221.41c-1,1.66-2,3.31-2.76,4.64l6.66,7" transform="translate(-12.95 -928.99)"/><path class="cls-1" d="M711.16,1098.81l5.18-2.6" transform="translate(-12.95 -928.99)"/><path class="cls-1" d="M721.62,1203.78l6.13-1.54.39,4.12h-6.52" transform="translate(-12.95 -928.99)"/><path class="cls-1" d="M843.42,1172.57l6.49,5.18" transform="translate(-12.95 -928.99)"/><path class="cls-1" d="M213.55,1186.06l6.33,2.76-2.14,3.12-7.2,2.7c.66-5.26,1.18-9.51,1.71-13.76" transform="translate(-12.95 -928.99)"/><path class="cls-1" d="M1338.51,1173.45l10.38,5.18" transform="translate(-12.95 -928.99)"/><path class="cls-1" d="M1347.65,1252.5v-11.66" transform="translate(-12.95 -928.99)"/><path class="cls-1" d="M1347.64,1234.36v-11.67" transform="translate(-12.95 -928.99)"/><path class="cls-1" d="M384.58,1122.41l5.18-2.6" transform="translate(-12.95 -928.99)"/><path class="cls-1" d="M1469.43,1187.6h5.18" transform="translate(-12.95 -928.99)"/><path class="cls-1" d="M726.73,1116.94l5.19,2.59" transform="translate(-12.95 -928.99)"/><path class="cls-1" d="M213.4,1005.91l5.19,2.59" transform="translate(-12.95 -928.99)"/><path class="cls-1" d="M501.19,1083.43l2.6,5.18" transform="translate(-12.95 -928.99)"/><path class="cls-1" d="M234.31,1208.07l7.15,3.38-7.61,3.14c-.23-.58-1.18-2.9-2.13-5.22" transform="translate(-12.95 -928.99)"/><path class="cls-1" d="M737.1,1122.11l5.19,2.59" transform="translate(-12.95 -928.99)"/><path class="cls-1" d="M89.16,1223.75v11.66" transform="translate(-12.95 -928.99)"/><path class="cls-1" d="M1363.15,1190.28q-1.29,2.6-2.59,5.18" transform="translate(-12.95 -928.99)"/><path class="cls-1" d="M751.39,1154.5l4.17,5.93,2.31-4.64" transform="translate(-12.95 -928.99)"/><path class="cls-1" d="M90.44,1199.12h5.18" transform="translate(-12.95 -928.99)"/><path class="cls-1" d="M216.14,1174.39l5.18-2.59" transform="translate(-12.95 -928.99)"/><path class="cls-1" d="M1368.32,1166.94l5.18,2.59" transform="translate(-12.95 -928.99)"/><path class="cls-1" d="M90.36,1098l3.88-3.89" transform="translate(-12.95 -928.99)"/><path class="cls-1" d="M1439.6,1163l-3.89,3.89" transform="translate(-12.95 -928.99)"/><path class="cls-1" d="M1434.37,1111.16l5.18,2.59" transform="translate(-12.95 -928.99)"/><path class="cls-1" d="M1377.38,1152.68l5.18,2.59" transform="translate(-12.95 -928.99)"/><path class="cls-1" d="M1420.21,1227.82l4.63,4.62c1.53-2,3-4,4.44-5.93" transform="translate(-12.95 -928.99)"/><path class="cls-1" d="M226.53,1200.31l3.6-7.22-11.39-.55" transform="translate(-12.95 -928.99)"/><path class="cls-1" d="M96.88,1156.35l3.89-3.89" transform="translate(-12.95 -928.99)"/><path class="cls-1" d="M1394.29,1225.24l5.18-1.3" transform="translate(-12.95 -928.99)"/><path class="cls-1" d="M790.33,1223.16q.46,4.8.94,9.6l3.62-.08c1.5-2.31,3-4.62,4.51-6.94" transform="translate(-12.95 -928.99)"/><path class="cls-1" d="M1403.29,1142.29l2.59-2.59" transform="translate(-12.95 -928.99)"/><path class="cls-1" d="M98.22,1201.71l9.07,2.58" transform="translate(-12.95 -928.99)"/><path class="cls-1" d="M1413.66,1139.69l2.59,2.59" transform="translate(-12.95 -928.99)"/><path class="cls-1" d="M1413.7,1194.12l3.68,1.25c2.27-2.63,4.48-5.18,6.68-7.74" transform="translate(-12.95 -928.99)"/><path class="cls-1" d="M1413.67,1160.43l2.59-2.6" transform="translate(-12.95 -928.99)"/><path class="cls-1" d="M770.8,1122.08l2.59-2.59" transform="translate(-12.95 -928.99)"/><path class="cls-1" d="M772.21,1253c2.39-4.12-5.4-9.26,1.28-13" transform="translate(-12.95 -928.99)"/><path class="cls-1" d="M1426.66,1194.11l2.59-2.59" transform="translate(-12.95 -928.99)"/><path class="cls-1" d="M1428,1218.74l3.89-1.3" transform="translate(-12.95 -928.99)"/><path class="cls-1" d="M1431.86,1212.25l2.59-2.59" transform="translate(-12.95 -928.99)"/><path class="cls-1" d="M1434.44,1191.51c.86.87,1.73,1.73,2.59,2.59" transform="translate(-12.95 -928.99)"/><path class="cls-1" d="M1434.39,1139.67l2.59-2.59" transform="translate(-12.95 -928.99)"/><path class="cls-1" d="M91.69,1138.21l2.59,2.59" transform="translate(-12.95 -928.99)"/><path class="cls-1" d="M1443.45,1117.63c-.43,1.3-.87,2.59-1.3,3.89" transform="translate(-12.95 -928.99)"/><path class="cls-1" d="M1364.32,1038.64c.87.86,1.73,1.73,2.59,2.59" transform="translate(-12.95 -928.99)"/><path class="cls-1" d="M822.75,1249.05l2.59,2.59" transform="translate(-12.95 -928.99)"/><path class="cls-1" d="M87.77,1111c.44,1.3.87,2.6,1.3,3.89" transform="translate(-12.95 -928.99)"/><path class="cls-1" d="M1444.79,1173.36l3.89,1.29" transform="translate(-12.95 -928.99)"/><path class="cls-1" d="M501.2,1096.39l-1.29,3.89" transform="translate(-12.95 -928.99)"/><path class="cls-1" d="M732,1172.66l-.42,5.26-1.84.45-2.92-5.7" transform="translate(-12.95 -928.99)"/><path class="cls-1" d="M1468.09,1139.64l2.59-2.59" transform="translate(-12.95 -928.99)"/><path class="cls-1" d="M86.53,1169.32c.43,1.29.86,2.59,1.3,3.88" transform="translate(-12.95 -928.99)"/><path class="cls-1" d="M1478.37,1036c.87.86,1.73,1.73,2.59,2.59" transform="translate(-12.95 -928.99)"/><path class="cls-1" d="M402.66,1052.41l2.6,2.59" transform="translate(-12.95 -928.99)"/><path class="cls-1" d="M1481.08,1173.33l3.89,1.29" transform="translate(-12.95 -928.99)"/><path class="cls-1" d="M717.75,1225.81l3.89,3.89-3.89,1.3" transform="translate(-12.95 -928.99)"/><path class="cls-1" d="M1491.43,1152.58,1494,1150" transform="translate(-12.95 -928.99)"/><path class="cls-1" d="M846,1122l2.59-2.59" transform="translate(-12.95 -928.99)"/><path class="cls-1" d="M1333.26,1095.69l2.59-2.59" transform="translate(-12.95 -928.99)"/><path class="cls-1" d="M1495.36,1201.83l4-.89c0-.66,0-1.33-.08-2l-5.19.29" transform="translate(-12.95 -928.99)"/><path class="cls-1" d="M78.74,1159l4.38,5.42,3.4-2.84" transform="translate(-12.95 -928.99)"/><path class="cls-1" d="M1322.87,1064.59l2.59,2.59" transform="translate(-12.95 -928.99)"/><path class="cls-1" d="M1322.88,1080.15l2.6,2.59" transform="translate(-12.95 -928.99)"/><path class="cls-1" d="M858.92,1103.87l2.59,2.59" transform="translate(-12.95 -928.99)"/><path class="cls-1" d="M80,1152.47c.87.44,1.71.92,2.61,1.27a3.63,3.63,0,0,0,1.28,0" transform="translate(-12.95 -928.99)"/><path class="cls-1" d="M1307.32,1067.2l2.59,2.59" transform="translate(-12.95 -928.99)"/><path class="cls-1" d="M78.69,1099.34l2.59-2.6" transform="translate(-12.95 -928.99)"/><path class="cls-1" d="M684.07,1245.28c-.87-2.59-1.84-5.15-2.57-7.78-.94-3.37-.36-8.44-6.51-5.17" transform="translate(-12.95 -928.99)"/><path class="cls-1" d="M76.14,1151.18l2.59-2.59" transform="translate(-12.95 -928.99)"/><path class="cls-1" d="M518.14,1209.13V1213" transform="translate(-12.95 -928.99)"/><path class="cls-1" d="M879.65,1103.85l2.6,2.59" transform="translate(-12.95 -928.99)"/><path class="cls-1" d="M410.45,1062.77l5.18.42V1068" transform="translate(-12.95 -928.99)"/><path class="cls-1" d="M1543.27,1150l2.59,2.59" transform="translate(-12.95 -928.99)"/><path class="cls-1" d="M73.54,1143.41l2.59-2.6" transform="translate(-12.95 -928.99)"/><path class="cls-1" d="M1544.6,1187.53c-.12,2.59-.24,5.17-.36,8l5.54-2.82" transform="translate(-12.95 -928.99)"/><path class="cls-1" d="M1551.06,1165.49l2.59,2.59" transform="translate(-12.95 -928.99)"/><path class="cls-1" d="M519.34,1088.6l-1.29,3.89" transform="translate(-12.95 -928.99)"/><path class="cls-1" d="M1553.73,1257.51l11.66-1.3" transform="translate(-12.95 -928.99)"/><path class="cls-1" d="M1555,1164.2l3.88-1.3" transform="translate(-12.95 -928.99)"/><path class="cls-1" d="M664.48,1072.92l2.6,2.59" transform="translate(-12.95 -928.99)"/><path class="cls-1" d="M1268.44,1075l2.59-2.6" transform="translate(-12.95 -928.99)"/><path class="cls-1" d="M659.38,1166.24l-5.59.46c3.16,6.51,3.16,6.51,8.18,4.73" transform="translate(-12.95 -928.99)"/><path class="cls-1" d="M60.66,1235.44a12.27,12.27,0,0,0,2.61,1.21c.32.07.85-.78,1.28-1.22" transform="translate(-12.95 -928.99)"/><path class="cls-1" d="M60.58,1138.23l2.59-2.59" transform="translate(-12.95 -928.99)"/><path class="cls-1" d="M1258.12,1129.45c.43,1.3.87,2.59,1.3,3.89" transform="translate(-12.95 -928.99)"/><path class="cls-1" d="M1589.8,1004.75l2.6,2.59" transform="translate(-12.95 -928.99)"/><path class="cls-1" d="M645.13,1181.81c5.13.06,10.68.89,11.66-6.49" transform="translate(-12.95 -928.99)"/><path class="cls-1" d="M1253,1190.37a12.35,12.35,0,0,1,2.61-1.22c.32-.07.84.79,1.28,1.22" transform="translate(-12.95 -928.99)"/><path class="cls-1" d="M361.18,1036.89l2.59-2.59" transform="translate(-12.95 -928.99)"/><path class="cls-1" d="M361.28,1163.9l-1.29,3.89" transform="translate(-12.95 -928.99)"/><path class="cls-1" d="M900.4,1111.61l2.59,2.59" transform="translate(-12.95 -928.99)"/><path class="cls-1" d="M900.32,1018.29c.86.87,1.73,1.73,2.59,2.59" transform="translate(-12.95 -928.99)"/><path class="cls-1" d="M1602.88,1144.71l2.59-2.59" transform="translate(-12.95 -928.99)"/><path class="cls-1" d="M420.91,1174.22c-.43-1.29-.86-2.59-1.3-3.89" transform="translate(-12.95 -928.99)"/><path class="cls-1" d="M1237.38,1124.28c3.48-.42,7.36-.64,2.59-5.18" transform="translate(-12.95 -928.99)"/><path class="cls-1" d="M1241.27,1125.58c.86.43,1.71.91,2.6,1.27a4,4,0,0,0,1.29,0" transform="translate(-12.95 -928.99)"/><path class="cls-1" d="M1234.87,1218.9l3.59-3,5.48,3" transform="translate(-12.95 -928.99)"/><path class="cls-1" d="M1237.36,1098.36,1240,1101" transform="translate(-12.95 -928.99)"/><path class="cls-1" d="M262.74,1107l2.59,2.59" transform="translate(-12.95 -928.99)"/><path class="cls-1" d="M265.34,1122.51l2.6,2.59" transform="translate(-12.95 -928.99)"/><path class="cls-1" d="M1231,1209.83l-2.59,3.89" transform="translate(-12.95 -928.99)"/><path class="cls-1" d="M1227.07,1189.1c.43,1.29.86,2.59,1.3,3.88" transform="translate(-12.95 -928.99)"/><path class="cls-1" d="M1232.28,1229.27c-.31,2.25-.63,4.5-1.1,7.86-8.61-8-.27-8.81,2.4-11.75" transform="translate(-12.95 -928.99)"/><path class="cls-1" d="M1224.53,1252.6a11.84,11.84,0,0,1,2.61-1.21c.32-.07.84.78,1.28,1.21" transform="translate(-12.95 -928.99)"/><path class="cls-1" d="M524.53,1091.19l2.59-2.6" transform="translate(-12.95 -928.99)"/><path class="cls-1" d="M1221.77,1056.9l2.59,2.59" transform="translate(-12.95 -928.99)"/><path class="cls-1" d="M1219.28,1172.25a12,12,0,0,1,2.6-1.21c.32-.08.85.78,1.28,1.21" transform="translate(-12.95 -928.99)"/><path class="cls-1" d="M1639.15,1124l2.6,2.59" transform="translate(-12.95 -928.99)"/><path class="cls-1" d="M1647,1227.62l-3.88,7.78" transform="translate(-12.95 -928.99)"/><path class="cls-1" d="M353.45,1093.92l2.59-2.59" transform="translate(-12.95 -928.99)"/><path class="cls-1" d="M1649.6,1212.07l2.59,2.59" transform="translate(-12.95 -928.99)"/><path class="cls-1" d="M1654.79,1219.84c.86-.86,1.72-1.73,2.59-2.59" transform="translate(-12.95 -928.99)"/><path class="cls-1" d="M926.32,1116.77l2.59-2.59" transform="translate(-12.95 -928.99)"/><path class="cls-1" d="M1661.25,1195.21a12.35,12.35,0,0,0,2.61,1.22c.32.07.84-.79,1.28-1.22" transform="translate(-12.95 -928.99)"/><path class="cls-1" d="M527.17,1153.39l2.59-2.59" transform="translate(-12.95 -928.99)"/><path class="cls-1" d="M928.89,1085.66l2.59,2.59" transform="translate(-12.95 -928.99)"/><path class="cls-1" d="M1193.26,1064.7l2.59-2.59" transform="translate(-12.95 -928.99)"/><path class="cls-1" d="M345.59,1000.61l2.6,2.59" transform="translate(-12.95 -928.99)"/><path class="cls-1" d="M947,1075.28l2.6,2.59" transform="translate(-12.95 -928.99)"/><path class="cls-1" d="M1698.8,1160.19l2.59-2.6" transform="translate(-12.95 -928.99)"/><path class="cls-1" d="M1177.68,1031l2.6,2.59" transform="translate(-12.95 -928.99)"/><path class="cls-1" d="M42.52,1234.16c-.44,1.29-.87,2.59-1.3,3.89" transform="translate(-12.95 -928.99)"/><path class="cls-1" d="M949.65,1111.57l2.59-2.6" transform="translate(-12.95 -928.99)"/><path class="cls-1" d="M1170,1163.22l2.59,2.59" transform="translate(-12.95 -928.99)"/><path class="cls-1" d="M1709.18,1168l2.59,2.59" transform="translate(-12.95 -928.99)"/><path class="cls-1" d="M1167.32,1033.62l2.59,2.59" transform="translate(-12.95 -928.99)"/><path class="cls-1" d="M37.25,1138.25l3.89,1.3" transform="translate(-12.95 -928.99)"/><path class="cls-1" d="M532.37,1166.35l14.25,1.28" transform="translate(-12.95 -928.99)"/><path class="cls-1" d="M1159.57,1072.51l2.6,2.59" transform="translate(-12.95 -928.99)"/><path class="cls-1" d="M340.41,998l2.59-2.6" transform="translate(-12.95 -928.99)"/><path class="cls-1" d="M1157,1051.77l2.6,2.59" transform="translate(-12.95 -928.99)"/><path class="cls-1" d="M341.87,1191.14h-5.25c0,.95,0,1.9,0,2.85l11.72,2.32" transform="translate(-12.95 -928.99)"/><path class="cls-1" d="M1735,1056.47l2.59,2.59" transform="translate(-12.95 -928.99)"/><path class="cls-1" d="M623,1018.53l2.59-2.6" transform="translate(-12.95 -928.99)"/><path class="cls-1" d="M1137.57,1104.93l6.47-6.49" transform="translate(-12.95 -928.99)"/><path class="cls-1" d="M1136.35,1194.36l2.59,2.59" transform="translate(-12.95 -928.99)"/><path class="cls-1" d="M281,1184.71l3.89,1.29" transform="translate(-12.95 -928.99)"/><path class="cls-1" d="M32.12,1205.65l10.37-6.49" transform="translate(-12.95 -928.99)"/><path class="cls-1" d="M458.43,1095.13,461,1099" transform="translate(-12.95 -928.99)"/><path class="cls-1" d="M1125.93,1132.15l2.59-2.59" transform="translate(-12.95 -928.99)"/><path class="cls-1" d="M612.71,1159.8l3.89-2.59" transform="translate(-12.95 -928.99)"/><path class="cls-1" d="M29.42,1078.64l2.6,2.59" transform="translate(-12.95 -928.99)"/><path class="cls-1" d="M1124.69,1202.14q2.6,7.78,5.2,15.55" transform="translate(-12.95 -928.99)"/><path class="cls-1" d="M602.34,1155.92l2.59-2.59" transform="translate(-12.95 -928.99)"/><path class="cls-1" d="M1779.14,1142l2.6,2.59" transform="translate(-12.95 -928.99)"/><path class="cls-1" d="M1110.34,1090.69l3.89,1.3" transform="translate(-12.95 -928.99)"/><path class="cls-1" d="M976.87,1123.21l-1.29,3.89" transform="translate(-12.95 -928.99)"/><path class="cls-1" d="M594.56,1148.15l2.59,2.59" transform="translate(-12.95 -928.99)"/><path class="cls-1" d="M591.94,1109.27c.86.87,1.72,1.73,2.59,2.59" transform="translate(-12.95 -928.99)"/><path class="cls-1" d="M454.5,1049.77l2.59-2.59" transform="translate(-12.95 -928.99)"/><path class="cls-1" d="M1102.43,930l2.59,2.59" transform="translate(-12.95 -928.99)"/><path class="cls-1" d="M1797.27,1118.63l2.59-2.59" transform="translate(-12.95 -928.99)"/><path class="cls-1" d="M585.47,1128.72c.43,1.3.87,2.59,1.3,3.89" transform="translate(-12.95 -928.99)"/><path class="cls-1" d="M978.11,1054.52l2.6,2.59" transform="translate(-12.95 -928.99)"/><path class="cls-1" d="M1097.34,1046.64l2.6,2.59" transform="translate(-12.95 -928.99)"/><path class="cls-1" d="M1803.84,1234l10.37-2.6" transform="translate(-12.95 -928.99)"/><path class="cls-1" d="M581.59,1135.2l2.59,2.59" transform="translate(-12.95 -928.99)"/><path class="cls-1" d="M14,1205.67l9.32.49,1.05-3.09" transform="translate(-12.95 -928.99)"/><path class="cls-1" d="M169.44,1133l2.6,2.59" transform="translate(-12.95 -928.99)"/><path class="cls-1" d="M1819.39,1219.7l2.59,3.89" transform="translate(-12.95 -928.99)"/><path class="cls-1" d="M1079.26,1119.23l7.32,2.48-9.91,2.71" transform="translate(-12.95 -928.99)"/><path class="cls-1" d="M1829.78,1252.1l3.89-1.3" transform="translate(-12.95 -928.99)"/><path class="cls-1" d="M1831,1165.26l2.6,2.59" transform="translate(-12.95 -928.99)"/><path class="cls-1" d="M19.18,1221.22l2.59,3.88H16.59" transform="translate(-12.95 -928.99)"/><path class="cls-1" d="M1841.4,1201.54,1844,1199" transform="translate(-12.95 -928.99)"/><path class="cls-1" d="M992.48,1190.59c4.41,3.22,3.73,15.8,14.27,7.76" transform="translate(-12.95 -928.99)"/><path class="cls-1" d="M1849.23,1257.26c.86-2.59,1.39-5.36,2.67-7.72s3.36-4.38,5.09-6.54" transform="translate(-12.95 -928.99)"/><path class="cls-1" d="M1854.38,1219.67l2.59,2.59" transform="translate(-12.95 -928.99)"/><path class="cls-1" d="M321.11,1173c4.57,1.9,6.29,4.28,1.31,7.77" transform="translate(-12.95 -928.99)"/><path class="cls-1" d="M1009.21,1041.53l2.59-2.59" transform="translate(-12.95 -928.99)"/><path class="cls-1" d="M1901,1201.49l2.6,2.59" transform="translate(-12.95 -928.99)"/><path class="cls-1" d="M156.52,1179.63l2.59-2.6" transform="translate(-12.95 -928.99)"/><path class="cls-1" d="M550.44,1078.2l2.59,2.59" transform="translate(-12.95 -928.99)"/><path class="cls-1" d="M1037.81,1155.56q-1.93-1.3-3.89-2.59h6.48" transform="translate(-12.95 -928.99)"/><path class="cls-1" d="M544,1126.16l3.88-1.3" transform="translate(-12.95 -928.99)"/><path class="cls-1" d="M161.62,1081.12l2.59-2.59" transform="translate(-12.95 -928.99)"/><path class="cls-1" d="M542.71,1143l2.6,2.59" transform="translate(-12.95 -928.99)"/><path class="cls-1" d="M1024.84,1137.42l2.59,2.59" transform="translate(-12.95 -928.99)"/><path class="cls-1" d="M1027.41,1111.5l2.59,2.59" transform="translate(-12.95 -928.99)"/><path class="cls-1" d="M1613.33,1234.13h9.07" transform="translate(-12.95 -928.99)"/><path class="cls-1" d="M1439.64,1209.65c.86,6.86-3.43,12.58-11.66,15.57" transform="translate(-12.95 -928.99)"/><path class="cls-1" d="M84,1201.72l2.59,3.89,1.93-1.91L84,1199.13" transform="translate(-12.95 -928.99)"/><path class="cls-1" d="M853.79,1171.26q-.64,7.14-1.28,14.26" transform="translate(-12.95 -928.99)"/></svg>